<svg width="394" height="63" viewBox="0 0 394 63" fill="none" xmlns="http://www.w3.org/2000/svg">
<rect x="-0.5" y="0.5" width="393" height="62" transform="matrix(-1 0 0 1 393 0)" fill="url(#paint0_radial_612_41966)" fill-opacity="0.6" stroke="white"/>
<rect x="88" y="45" width="18" height="3" rx="1.5" fill="#E2730E"/>
<path d="M80.208 38.12H79.712C79.4453 38.12 79.312 37.9867 79.312 37.72V34.712C79.312 34.4453 79.1787 34.312 78.912 34.312H73.376C73.1093 34.312 72.976 34.1787 72.976 33.912V33.512C72.976 33.2453 73.1093 33.112 73.376 33.112H78.912C79.1787 33.112 79.312 32.9787 79.312 32.712V31.48C79.312 31.2133 79.4453 31.08 79.712 31.08H80.208C80.4747 31.08 80.608 31.2133 80.608 31.48V32.712C80.608 32.9787 80.7413 33.112 81.008 33.112H86.656C86.9227 33.112 87.056 33.2453 87.056 33.512V33.912C87.056 34.1787 86.9227 34.312 86.656 34.312H81.008C80.7413 34.312 80.608 34.4453 80.608 34.712V37.72C80.608 37.9867 80.4747 38.12 80.208 38.12ZM74.16 31.096C74.1387 31.0427 74.112 30.9947 74.08 30.952C74.0587 30.9093 74.032 30.8613 74 30.808C73.8507 30.584 73.8773 30.36 74.08 30.136C74.3147 29.9013 74.432 29.6027 74.432 29.24V24.216C74.432 23.9493 74.5653 23.816 74.832 23.816H75.36C75.6267 23.816 75.76 23.9493 75.76 24.216V25.544C75.76 25.8107 75.8933 25.944 76.16 25.944H79.264C79.5307 25.944 79.664 26.0773 79.664 26.344V26.744C79.664 27.0107 79.5307 27.144 79.264 27.144H76.16C75.8933 27.144 75.76 27.2773 75.76 27.544V29.336C75.76 29.4853 75.8027 29.5973 75.888 29.672C75.9733 29.736 76.0907 29.752 76.24 29.72L79.52 29.08C79.7227 29.048 79.824 29.128 79.824 29.32L79.808 29.64C79.808 29.6933 79.808 29.7413 79.808 29.784C79.8187 29.8267 79.824 29.8747 79.824 29.928C79.8453 30.0133 79.8347 30.088 79.792 30.152C79.7493 30.2053 79.6853 30.2427 79.6 30.264L75.568 31.144C75.408 31.1867 75.264 31.224 75.136 31.256C75.008 31.288 74.8907 31.32 74.784 31.352C74.5067 31.448 74.2987 31.3627 74.16 31.096ZM84.992 31.064H82.256C81.488 31.064 80.9653 30.9413 80.688 30.696C80.4107 30.4507 80.272 29.9973 80.272 29.336V24.184C80.272 23.9173 80.4053 23.784 80.672 23.784H81.168C81.4347 23.784 81.568 23.9173 81.568 24.184V26.008C81.568 26.1787 81.616 26.296 81.712 26.36C81.808 26.424 81.936 26.4293 82.096 26.376C83.2587 25.9493 84.2773 25.48 85.152 24.968C85.3333 24.8613 85.4987 24.8827 85.648 25.032L86.016 25.432C86.1333 25.5493 86.1813 25.6667 86.16 25.784C86.1493 25.8907 86.0693 25.9813 85.92 26.056C84.6293 26.6747 83.2747 27.2133 81.856 27.672C81.664 27.7253 81.568 27.848 81.568 28.04V29.336C81.568 29.56 81.616 29.704 81.712 29.768C81.808 29.832 82.0267 29.864 82.368 29.864H84.912C85.2 29.864 85.392 29.7467 85.488 29.512C85.552 29.352 85.6 29.0053 85.632 28.472C85.664 28.088 85.8667 27.976 86.24 28.136C86.2933 28.1573 86.3413 28.1787 86.384 28.2C86.4373 28.2107 86.4907 28.2267 86.544 28.248C86.64 28.28 86.7147 28.3333 86.768 28.408C86.832 28.4827 86.8587 28.5733 86.848 28.68C86.784 29.544 86.6347 30.152 86.4 30.504C86.144 30.8773 85.6747 31.064 84.992 31.064ZM102.512 37.288H89.52C89.2533 37.288 89.12 37.1547 89.12 36.888V36.392C89.12 36.1253 89.2533 35.992 89.52 35.992H93.056C93.3227 35.992 93.456 35.8587 93.456 35.592V24.312C93.456 24.0453 93.5893 23.912 93.856 23.912H94.368C94.6347 23.912 94.768 24.0453 94.768 24.312V35.592C94.768 35.8587 94.9013 35.992 95.168 35.992H96.848C97.1147 35.992 97.248 35.8587 97.248 35.592V24.328C97.248 24.0613 97.3813 23.928 97.648 23.928H98.16C98.4267 23.928 98.56 24.0613 98.56 24.328V35.592C98.56 35.8587 98.6933 35.992 98.96 35.992H102.512C102.779 35.992 102.912 36.1253 102.912 36.392V36.888C102.912 37.1547 102.779 37.288 102.512 37.288ZM91.472 32.84C91.28 32.2 91.0293 31.4853 90.72 30.696C90.4107 29.896 90.0427 29.0107 89.616 28.04C89.4987 27.7627 89.5787 27.5813 89.856 27.496L90.32 27.336C90.5547 27.2827 90.7147 27.3573 90.8 27.56C91.216 28.456 91.5893 29.304 91.92 30.104C92.2507 30.904 92.5387 31.6667 92.784 32.392C92.848 32.6373 92.768 32.8027 92.544 32.888L92.016 33.096C91.888 33.1493 91.776 33.1493 91.68 33.096C91.584 33.0427 91.5147 32.9573 91.472 32.84ZM99.536 33.192L99.152 32.984C98.9067 32.8453 98.8533 32.6587 98.992 32.424C99.888 30.9307 100.645 29.352 101.264 27.688C101.317 27.5707 101.392 27.4907 101.488 27.448C101.595 27.4053 101.707 27.416 101.824 27.48L102.272 27.704C102.379 27.7573 102.448 27.832 102.48 27.928C102.512 28.0133 102.507 28.1093 102.464 28.216C101.707 29.9653 100.907 31.576 100.064 33.048C100.011 33.1547 99.9307 33.2187 99.824 33.24C99.728 33.2613 99.632 33.2453 99.536 33.192ZM118.624 37.624H105.44C105.173 37.624 105.04 37.4907 105.04 37.224V36.744C105.04 36.4773 105.173 36.344 105.44 36.344H110.96C111.227 36.344 111.36 36.2107 111.36 35.944V32.936C111.36 32.6693 111.227 32.536 110.96 32.536H107.12C106.853 32.536 106.72 32.4027 106.72 32.136V31.656C106.72 31.3893 106.853 31.256 107.12 31.256H110.96C111.227 31.256 111.36 31.1227 111.36 30.856V28.408C111.36 28.1413 111.227 28.008 110.96 28.008H108.064C107.904 28.008 107.787 28.0827 107.712 28.232C107.509 28.6053 107.296 28.9627 107.072 29.304C106.859 29.6347 106.629 29.9547 106.384 30.264C106.309 30.36 106.219 30.4133 106.112 30.424C106.016 30.4347 105.915 30.4027 105.808 30.328C105.744 30.2747 105.68 30.232 105.616 30.2C105.552 30.1573 105.483 30.1093 105.408 30.056C105.28 29.9813 105.2 29.8853 105.168 29.768C105.147 29.6507 105.184 29.5333 105.28 29.416C106.379 28.0507 107.227 26.3547 107.824 24.328C107.899 24.0827 108.053 23.9867 108.288 24.04L108.816 24.152C109.093 24.2053 109.195 24.3653 109.12 24.632C109.035 24.9093 108.949 25.176 108.864 25.432C108.789 25.6773 108.709 25.9173 108.624 26.152C108.56 26.3227 108.56 26.4613 108.624 26.568C108.699 26.664 108.827 26.712 109.008 26.712H110.96C111.227 26.712 111.36 26.5787 111.36 26.312V24.12C111.36 23.8533 111.493 23.72 111.76 23.72H112.304C112.571 23.72 112.704 23.8533 112.704 24.12V26.312C112.704 26.5787 112.837 26.712 113.104 26.712H117.888C118.155 26.712 118.288 26.8453 118.288 27.112V27.608C118.288 27.8747 118.155 28.008 117.888 28.008H113.104C112.837 28.008 112.704 28.1413 112.704 28.408V30.856C112.704 31.1227 112.837 31.256 113.104 31.256H117.312C117.579 31.256 117.712 31.3893 117.712 31.656V32.136C117.712 32.4027 117.579 32.536 117.312 32.536H113.104C112.837 32.536 112.704 32.6693 112.704 32.936V35.944C112.704 36.2107 112.837 36.344 113.104 36.344H118.624C118.891 36.344 119.024 36.4773 119.024 36.744V37.224C119.024 37.4907 118.891 37.624 118.624 37.624Z" fill="#E2730E"/>
<path d="M273.352 38.104H272.776C272.509 38.104 272.376 37.9707 272.376 37.704V35.368C272.376 35.0907 272.312 34.9253 272.184 34.872C272.056 34.808 271.885 34.8667 271.672 35.048C270.339 36.1467 268.755 36.9733 266.92 37.528C266.824 37.56 266.728 37.5547 266.632 37.512C266.547 37.4693 266.477 37.4053 266.424 37.32C266.392 37.2667 266.36 37.2187 266.328 37.176C266.296 37.1333 266.259 37.0853 266.216 37.032C265.949 36.6907 266.019 36.4613 266.424 36.344C267 36.1947 267.544 36.0133 268.056 35.8C268.579 35.5867 269.091 35.3467 269.592 35.08C270.147 34.7707 270.648 34.4453 271.096 34.104C271.544 33.752 271.939 33.3733 272.28 32.968C272.344 32.904 272.376 32.8187 272.376 32.712V32.024C272.376 31.7573 272.243 31.624 271.976 31.624H269.096C268.829 31.624 268.696 31.7573 268.696 32.024V34.216C268.696 34.4827 268.563 34.616 268.296 34.616H267.736C267.469 34.616 267.336 34.4827 267.336 34.216V30.856C267.336 30.5893 267.469 30.456 267.736 30.456H271.976C272.243 30.456 272.376 30.3227 272.376 30.056V29.8C272.376 29.5333 272.243 29.4 271.976 29.4H266.616C266.349 29.4 266.216 29.2667 266.216 29V28.616C266.216 28.3493 266.349 28.216 266.616 28.216H272.184C272.312 28.216 272.376 28.1467 272.376 28.008C272.376 27.88 272.323 27.7787 272.216 27.704L272.024 27.56C271.992 27.5387 271.955 27.5173 271.912 27.496C271.88 27.4747 271.843 27.4533 271.8 27.432C271.64 27.3467 271.629 27.2453 271.768 27.128C271.832 27.0747 271.891 27.0213 271.944 26.968C272.008 26.904 272.072 26.8453 272.136 26.792C272.296 26.632 272.349 26.4987 272.296 26.392C272.253 26.2853 272.115 26.232 271.88 26.232H270.936C270.723 26.232 270.584 26.2907 270.52 26.408C270.456 26.5147 270.467 26.664 270.552 26.856C270.595 26.9307 270.627 27.0053 270.648 27.08C270.68 27.144 270.712 27.2133 270.744 27.288C270.787 27.3947 270.781 27.4907 270.728 27.576C270.685 27.6613 270.611 27.7253 270.504 27.768L270.104 27.928C269.848 28.0133 269.667 27.928 269.56 27.672C269.432 27.32 269.251 26.9093 269.016 26.44C268.952 26.3013 268.835 26.232 268.664 26.232H268.44C268.312 26.232 268.2 26.2907 268.104 26.408C267.933 26.664 267.752 26.9093 267.56 27.144C267.379 27.3787 267.181 27.6027 266.968 27.816C266.893 27.9013 266.803 27.944 266.696 27.944C266.6 27.944 266.509 27.912 266.424 27.848C266.371 27.8053 266.323 27.768 266.28 27.736C266.237 27.6933 266.189 27.656 266.136 27.624C265.827 27.4107 265.8 27.176 266.056 26.92C266.867 26.0987 267.523 25.1173 268.024 23.976C268.131 23.7627 268.291 23.6827 268.504 23.736L268.968 23.864C269.107 23.896 269.197 23.9653 269.24 24.072C269.293 24.168 269.293 24.2747 269.24 24.392C269.219 24.424 269.197 24.472 269.176 24.536C269.005 24.8987 269.117 25.08 269.512 25.08H272.44C272.707 25.08 272.84 25.2133 272.84 25.48V25.528C272.84 25.6773 272.861 25.7627 272.904 25.784C272.957 25.7947 273.027 25.7413 273.112 25.624C273.293 25.3787 273.459 25.1227 273.608 24.856C273.757 24.5787 273.891 24.2853 274.008 23.976C274.051 23.88 274.115 23.8107 274.2 23.768C274.285 23.7253 274.376 23.7147 274.472 23.736L274.984 23.848C275.283 23.9227 275.379 24.0987 275.272 24.376C275.251 24.408 275.229 24.456 275.208 24.52C275.123 24.6907 275.112 24.8293 275.176 24.936C275.251 25.032 275.379 25.08 275.56 25.08H279.496C279.763 25.08 279.896 25.2133 279.896 25.48V25.832C279.896 26.0987 279.763 26.232 279.496 26.232H277.464C277.251 26.232 277.112 26.2907 277.048 26.408C276.984 26.5147 277 26.664 277.096 26.856C277.139 26.92 277.171 26.984 277.192 27.048C277.224 27.112 277.256 27.176 277.288 27.24C277.341 27.3573 277.347 27.464 277.304 27.56C277.261 27.6453 277.181 27.7147 277.064 27.768L276.664 27.912C276.429 27.9973 276.259 27.9173 276.152 27.672C275.971 27.2453 275.741 26.824 275.464 26.408C275.4 26.2907 275.293 26.232 275.144 26.232H274.472C274.333 26.232 274.221 26.2907 274.136 26.408C274.04 26.5467 273.944 26.6747 273.848 26.792C273.752 26.9093 273.661 27.0267 273.576 27.144C273.533 27.208 273.549 27.24 273.624 27.24C273.709 27.24 273.752 27.2827 273.752 27.368V27.816C273.752 28.0827 273.885 28.216 274.152 28.216H279.288C279.555 28.216 279.688 28.3493 279.688 28.616V29C279.688 29.2667 279.555 29.4 279.288 29.4H274.152C273.885 29.4 273.752 29.5333 273.752 29.8V30.056C273.752 30.3227 273.885 30.456 274.152 30.456H278.408C278.675 30.456 278.808 30.5893 278.808 30.856V33.4C278.808 33.6987 278.771 33.9227 278.696 34.072C278.621 34.2213 278.472 34.3387 278.248 34.424C278.045 34.4987 277.784 34.5467 277.464 34.568C277.336 34.5787 277.197 34.5893 277.048 34.6C276.909 34.6 276.755 34.6 276.584 34.6C276.381 34.6 276.243 34.4987 276.168 34.296C276.147 34.2427 276.125 34.1947 276.104 34.152C276.083 34.0987 276.061 34.0453 276.04 33.992C275.901 33.6827 275.997 33.528 276.328 33.528L276.856 33.544C277.251 33.544 277.459 33.5333 277.48 33.512C277.48 33.5013 277.48 33.3733 277.48 33.128C277.491 32.8827 277.496 32.5147 277.496 32.024C277.496 31.7573 277.363 31.624 277.096 31.624H274.152C273.885 31.624 273.752 31.7573 273.752 32.024V32.824C273.752 32.92 273.784 33.0107 273.848 33.096C274.467 33.7467 275.309 34.36 276.376 34.936C276.856 35.2133 277.368 35.4587 277.912 35.672C278.467 35.8747 279.053 36.0613 279.672 36.232C280.088 36.3387 280.168 36.5787 279.912 36.952C279.869 37.0053 279.827 37.0587 279.784 37.112C279.752 37.176 279.715 37.24 279.672 37.304C279.619 37.3787 279.549 37.432 279.464 37.464C279.389 37.496 279.309 37.5013 279.224 37.48C278.104 37.1493 277.075 36.7173 276.136 36.184C275.496 35.8107 274.936 35.4427 274.456 35.08C274.243 34.9093 274.072 34.856 273.944 34.92C273.816 34.9733 273.752 35.1387 273.752 35.416V37.704C273.752 37.9707 273.619 38.104 273.352 38.104ZM285.96 37.992C285.939 37.9067 285.907 37.8213 285.864 37.736C285.832 37.6507 285.795 37.5653 285.752 37.48C285.624 37.2347 285.672 37.0107 285.896 36.808C286.152 36.584 286.28 36.2853 286.28 35.912V33.864C286.28 33.5973 286.147 33.464 285.88 33.464H285C284.733 33.464 284.6 33.3307 284.6 33.064V32.68C284.6 32.4133 284.733 32.28 285 32.28H286.952C287.219 32.28 287.352 32.1467 287.352 31.88V31.208C287.352 30.9413 287.219 30.808 286.952 30.808H285.416C285.149 30.808 285.016 30.6747 285.016 30.408V30.056C285.016 29.7893 285.149 29.656 285.416 29.656H286.952C287.219 29.656 287.352 29.5227 287.352 29.256V28.648C287.352 28.3813 287.219 28.248 286.952 28.248H285.064C284.797 28.248 284.664 28.3813 284.664 28.648C284.653 29.288 284.637 29.8907 284.616 30.456C284.605 31.0107 284.579 31.5387 284.536 32.04C284.365 34.3013 283.859 36.216 283.016 37.784C282.941 37.912 282.851 37.9867 282.744 38.008C282.637 38.0293 282.525 37.9973 282.408 37.912C282.355 37.88 282.301 37.848 282.248 37.816C282.195 37.784 282.141 37.752 282.088 37.72C281.8 37.5707 281.731 37.3627 281.88 37.096C282.285 36.3387 282.589 35.5547 282.792 34.744C283.037 33.7413 283.192 32.7653 283.256 31.816C283.32 30.8347 283.352 29.928 283.352 29.096V24.872C283.352 24.6053 283.485 24.472 283.752 24.472H294.696C294.963 24.472 295.096 24.6053 295.096 24.872V27.848C295.096 28.1147 294.963 28.248 294.696 28.248H293.192C292.925 28.248 292.792 28.3813 292.792 28.648V29.256C292.792 29.5227 292.925 29.656 293.192 29.656H295.016C295.283 29.656 295.416 29.7893 295.416 30.056V30.408C295.416 30.6747 295.283 30.808 295.016 30.808H293.192C292.925 30.808 292.792 30.9413 292.792 31.208V31.88C292.792 32.1467 292.925 32.28 293.192 32.28H295.64C295.907 32.28 296.04 32.4133 296.04 32.68V33.064C296.04 33.3307 295.907 33.464 295.64 33.464H294.92C294.76 33.464 294.669 33.496 294.648 33.56C294.627 33.6133 294.685 33.6827 294.824 33.768C294.963 33.8533 295.032 33.9547 295.032 34.072C295.032 34.1893 294.968 34.296 294.84 34.392C294.328 34.744 293.832 35.064 293.352 35.352C293.181 35.448 293.091 35.56 293.08 35.688C293.08 35.8053 293.16 35.912 293.32 36.008C293.981 36.3813 294.749 36.68 295.624 36.904C296.008 37.0107 296.077 37.2293 295.832 37.56C295.789 37.6133 295.752 37.6613 295.72 37.704C295.688 37.7573 295.656 37.8107 295.624 37.864C295.571 37.9493 295.501 38.0133 295.416 38.056C295.331 38.0987 295.24 38.104 295.144 38.072C292.541 37.336 290.717 35.88 289.672 33.704C289.597 33.544 289.475 33.464 289.304 33.464H287.928C287.661 33.464 287.528 33.5973 287.528 33.864V35.976C287.528 36.1253 287.571 36.2373 287.656 36.312C287.741 36.376 287.859 36.392 288.008 36.36L290.488 35.816C290.605 35.784 290.696 35.8 290.76 35.864C290.835 35.928 290.867 36.024 290.856 36.152C290.845 36.2267 290.84 36.3013 290.84 36.376C290.84 36.44 290.84 36.5093 290.84 36.584V36.712C290.84 36.7973 290.797 36.8507 290.712 36.872C290.232 36.9893 289.8 37.096 289.416 37.192C289.043 37.288 288.717 37.3733 288.44 37.448C288.141 37.5227 287.875 37.5867 287.64 37.64C287.416 37.6933 287.229 37.7413 287.08 37.784L286.408 37.992C286.333 38.0133 286.264 38.0453 286.2 38.088C286.093 38.152 286.013 38.12 285.96 37.992ZM291.544 31.88V31.208C291.544 30.9413 291.411 30.808 291.144 30.808H289C288.733 30.808 288.6 30.9413 288.6 31.208V31.88C288.6 32.1467 288.733 32.28 289 32.28H291.144C291.411 32.28 291.544 32.1467 291.544 31.88ZM293.784 26.68V26.04C293.784 25.7733 293.651 25.64 293.384 25.64H285.064C284.797 25.64 284.664 25.7733 284.664 26.04V26.68C284.664 26.9467 284.797 27.08 285.064 27.08H293.384C293.651 27.08 293.784 26.9467 293.784 26.68ZM292.968 33.464H291.48C291.277 33.464 291.144 33.5173 291.08 33.624C291.016 33.7307 291.043 33.864 291.16 34.024C291.331 34.28 291.523 34.5147 291.736 34.728C291.789 34.792 291.859 34.8293 291.944 34.84C292.04 34.8507 292.125 34.8293 292.2 34.776C292.381 34.6693 292.552 34.568 292.712 34.472C292.872 34.3653 293.032 34.2587 293.192 34.152C293.48 33.9493 293.603 33.784 293.56 33.656C293.517 33.528 293.32 33.464 292.968 33.464ZM288.6 28.648V29.256C288.6 29.5227 288.733 29.656 289 29.656H291.144C291.411 29.656 291.544 29.5227 291.544 29.256V28.648C291.544 28.3813 291.411 28.248 291.144 28.248H289C288.733 28.248 288.6 28.3813 288.6 28.648ZM311.656 36.936H298.376C298.109 36.936 297.976 36.8027 297.976 36.536V36.024C297.976 35.7573 298.109 35.624 298.376 35.624H303.848C304.115 35.624 304.248 35.4907 304.248 35.224V27.224C304.248 26.9573 304.115 26.824 303.848 26.824H299.192C298.925 26.824 298.792 26.6907 298.792 26.424V25.88C298.792 25.6133 298.925 25.48 299.192 25.48H310.872C311.139 25.48 311.272 25.6133 311.272 25.88V26.424C311.272 26.6907 311.139 26.824 310.872 26.824H306.072C305.805 26.824 305.672 26.9573 305.672 27.224V35.224C305.672 35.4907 305.805 35.624 306.072 35.624H311.656C311.923 35.624 312.056 35.7573 312.056 36.024V36.536C312.056 36.8027 311.923 36.936 311.656 36.936ZM323 38.12H322.472C322.205 38.12 322.072 37.9867 322.072 37.72V27.976C322.072 27.7093 321.939 27.576 321.672 27.576H321.368C321.208 27.576 321.091 27.6453 321.016 27.784C320.44 28.808 319.816 29.72 319.144 30.52C318.963 30.7333 318.76 30.744 318.536 30.552C318.44 30.456 318.328 30.36 318.2 30.264C317.976 30.072 317.955 29.8693 318.136 29.656C319.416 28.1733 320.44 26.3707 321.208 24.248C321.293 24.024 321.459 23.9387 321.704 23.992L322.184 24.136C322.301 24.168 322.387 24.232 322.44 24.328C322.493 24.424 322.493 24.5307 322.44 24.648C322.376 24.84 322.307 25.0267 322.232 25.208C322.168 25.3893 322.099 25.5653 322.024 25.736C321.949 25.9173 321.944 26.0613 322.008 26.168C322.083 26.264 322.216 26.312 322.408 26.312H327.8C328.067 26.312 328.2 26.4453 328.2 26.712V27.176C328.2 27.4427 328.067 27.576 327.8 27.576H323.8C323.533 27.576 323.4 27.7093 323.4 27.976V29.256C323.4 29.5227 323.533 29.656 323.8 29.656H327.448C327.715 29.656 327.848 29.7893 327.848 30.056V30.488C327.848 30.7547 327.715 30.888 327.448 30.888H323.8C323.533 30.888 323.4 31.0213 323.4 31.288V32.696C323.4 32.9627 323.533 33.096 323.8 33.096H327.672C327.939 33.096 328.072 33.2293 328.072 33.496V33.944C328.072 34.2107 327.939 34.344 327.672 34.344H323.8C323.533 34.344 323.4 34.4773 323.4 34.744V37.72C323.4 37.9867 323.267 38.12 323 38.12ZM316.856 38.104H316.344C316.077 38.104 315.944 37.9707 315.944 37.704V30.744C315.944 30.04 315.704 29.9547 315.224 30.488C315.117 30.6267 314.995 30.7653 314.856 30.904C314.739 31.0427 314.616 31.1013 314.488 31.08C314.371 31.048 314.269 30.9573 314.184 30.808C314.141 30.7227 314.099 30.6427 314.056 30.568C314.013 30.4827 313.965 30.4027 313.912 30.328C313.773 30.136 313.784 29.9547 313.944 29.784C315.405 28.2587 316.579 26.3653 317.464 24.104C317.571 23.88 317.741 23.8 317.976 23.864L318.472 24.04C318.589 24.0827 318.669 24.152 318.712 24.248C318.765 24.3333 318.765 24.4347 318.712 24.552C318.509 25.064 318.291 25.56 318.056 26.04C317.821 26.52 317.571 26.9947 317.304 27.464C317.272 27.528 317.256 27.5973 317.256 27.672V37.704C317.256 37.9707 317.123 38.104 316.856 38.104ZM343.752 37.784H335.432C335.165 37.784 335.032 37.6507 335.032 37.384V36.968C335.032 36.7013 335.165 36.568 335.432 36.568H336.216C336.483 36.568 336.616 36.4347 336.616 36.168V24.888C336.616 24.6213 336.749 24.488 337.016 24.488H342.424C342.691 24.488 342.824 24.6213 342.824 24.888V36.168C342.824 36.4347 342.957 36.568 343.224 36.568H343.752C344.019 36.568 344.152 36.7013 344.152 36.968V37.384C344.152 37.6507 344.019 37.784 343.752 37.784ZM341.528 32.088V30.072C341.528 29.8053 341.395 29.672 341.128 29.672H338.28C338.013 29.672 337.88 29.8053 337.88 30.072V32.088C337.88 32.3547 338.013 32.488 338.28 32.488H341.128C341.395 32.488 341.528 32.3547 341.528 32.088ZM341.528 28.056V26.104C341.528 25.8373 341.395 25.704 341.128 25.704H338.28C338.013 25.704 337.88 25.8373 337.88 26.104V28.056C337.88 28.3227 338.013 28.456 338.28 28.456H341.128C341.395 28.456 341.528 28.3227 341.528 28.056ZM341.528 36.168V34.088C341.528 33.8213 341.395 33.688 341.128 33.688H338.28C338.013 33.688 337.88 33.8213 337.88 34.088V36.168C337.88 36.4347 338.013 36.568 338.28 36.568H341.128C341.395 36.568 341.528 36.4347 341.528 36.168ZM330.056 36.696L329.976 36.216C329.955 36.0987 329.971 35.9973 330.024 35.912C330.077 35.8267 330.163 35.7733 330.28 35.752C330.749 35.656 331.245 35.5493 331.768 35.432C332.291 35.3147 332.856 35.1867 333.464 35.048L334.968 34.696C335.267 34.6427 335.432 34.76 335.464 35.048L335.496 35.4C335.507 35.496 335.485 35.5867 335.432 35.672C335.379 35.7467 335.299 35.7947 335.192 35.816L330.552 37C330.275 37.0747 330.109 36.9733 330.056 36.696ZM330.152 33.608C330.131 33.5547 330.115 33.512 330.104 33.48C330.093 33.4373 330.077 33.3893 330.056 33.336C330.003 33.208 329.997 33.096 330.04 33C330.093 32.8933 330.173 32.8027 330.28 32.728C330.547 32.5573 330.84 32.28 331.16 31.896L331.192 31.864C331.448 31.608 331.8 31.192 332.248 30.616C332.429 30.392 332.483 30.2213 332.408 30.104C332.333 29.9867 332.157 29.9493 331.88 29.992C331.613 30.0453 331.373 30.0933 331.16 30.136C330.957 30.168 330.781 30.2053 330.632 30.248C330.344 30.312 330.157 30.2107 330.072 29.944C330.051 29.8693 330.029 29.8 330.008 29.736C329.987 29.6613 329.965 29.592 329.944 29.528C329.901 29.4107 329.901 29.304 329.944 29.208C329.987 29.1013 330.051 29.0107 330.136 28.936C330.243 28.8507 330.344 28.7493 330.44 28.632C330.536 28.504 330.637 28.3547 330.744 28.184L330.776 28.152C330.883 28.0027 331.016 27.7893 331.176 27.512C331.347 27.2347 331.549 26.8933 331.784 26.488C332.168 25.784 332.541 24.9787 332.904 24.072C332.957 23.9547 333.032 23.88 333.128 23.848C333.235 23.8053 333.347 23.8107 333.464 23.864L333.912 24.072C334.019 24.1253 334.088 24.2 334.12 24.296C334.163 24.392 334.157 24.4933 334.104 24.6C333.795 25.272 333.475 25.9013 333.144 26.488C332.824 27.0747 332.493 27.6293 332.152 28.152C332.003 28.3867 331.96 28.5627 332.024 28.68C332.088 28.7867 332.259 28.824 332.536 28.792L333.48 28.68C333.533 28.68 333.587 28.664 333.64 28.632C333.693 28.6 333.731 28.5573 333.752 28.504C334.019 28.12 334.269 27.7253 334.504 27.32C334.568 27.224 334.648 27.1653 334.744 27.144C334.851 27.112 334.957 27.128 335.064 27.192L335.416 27.4C335.523 27.464 335.587 27.5493 335.608 27.656C335.64 27.752 335.624 27.8533 335.56 27.96C335.155 28.6107 334.744 29.224 334.328 29.8C333.912 30.376 333.491 30.92 333.064 31.432C332.829 31.7093 332.744 31.912 332.808 32.04C332.883 32.1573 333.096 32.184 333.448 32.12L335.224 31.784C335.427 31.752 335.528 31.8373 335.528 32.04L335.512 32.344L335.528 32.6C335.528 32.7813 335.443 32.888 335.272 32.92C334.323 33.112 333.533 33.272 332.904 33.4C332.275 33.528 331.795 33.6347 331.464 33.72C331.208 33.784 330.979 33.848 330.776 33.912C330.477 34.008 330.269 33.9067 330.152 33.608Z" fill="#E2730E"/>
<defs>
<radialGradient id="paint0_radial_612_41966" cx="0" cy="0" r="1" gradientUnits="userSpaceOnUse" gradientTransform="translate(-23.2569 66.8946) rotate(-9.27651) scale(450.51 554.178)">
<stop stop-color="white"/>
<stop offset="0.203136" stop-color="white" stop-opacity="0"/>
<stop offset="0.341295" stop-color="#F6F6F6" stop-opacity="0.512805"/>
<stop offset="0.471833" stop-color="#F6F6F6" stop-opacity="0.512805"/>
<stop offset="0.553745" stop-color="white" stop-opacity="0"/>
<stop offset="0.637642" stop-color="white" stop-opacity="0.340082"/>
<stop offset="0.809883" stop-color="white" stop-opacity="0.8"/>
<stop offset="0.861497" stop-color="#EEEEEE"/>
<stop offset="0.950559" stop-color="#EEEEEE" stop-opacity="0.01"/>
</radialGradient>
</defs>
</svg>
