<svg width="32" height="40" viewBox="0 0 32 40" fill="none" xmlns="http://www.w3.org/2000/svg">
<path d="M16 33.7143C23.5429 33.7143 29.7143 27.5429 29.7143 20C29.7143 12.4571 23.5429 6.28571 16 6.28571C8.45714 6.28571 2.28571 12.4571 2.28571 20C2.28571 27.5429 8.45714 33.7143 16 33.7143ZM16 36C7.08571 36 0 28.9143 0 20C0 11.0857 7.08571 4 16 4C24.9143 4 32 11.0857 32 20C32 28.9143 24.9143 36 16 36ZM16 15.4286C18.5143 15.4286 20.5714 17.4857 20.5714 20C20.5714 22.5143 18.5143 24.5714 16 24.5714C13.4857 24.5714 11.4286 22.5143 11.4286 20C11.4286 17.4857 13.4857 15.4286 16 15.4286Z" fill="#262626"/>
</svg>
