<svg width="40" height="59" viewBox="0 0 40 59" fill="none" xmlns="http://www.w3.org/2000/svg">
<path d="M18.42 48.12H1.68C1.34667 48.12 1.18 47.9533 1.18 47.62V47.02C1.18 46.6867 1.34667 46.52 1.68 46.52H5.18C5.51333 46.52 5.68 46.3533 5.68 46.02V42.6C5.68 42.2667 5.51333 42.1 5.18 42.1H2.46C2.12667 42.1 1.96 41.9333 1.96 41.6V41C1.96 40.6667 2.12667 40.5 2.46 40.5H5.18C5.51333 40.5 5.68 40.3333 5.68 40V37.06C5.68 36.7267 5.84667 36.56 6.18 36.56H6.82C7.15333 36.56 7.32 36.7267 7.32 37.06V40C7.32 40.3333 7.48667 40.5 7.82 40.5H12.18C12.5133 40.5 12.68 40.3333 12.68 40V37.06C12.68 36.7267 12.8467 36.56 13.18 36.56H13.84C14.1733 36.56 14.34 36.7267 14.34 37.06V40C14.34 40.3333 14.5067 40.5 14.84 40.5H17.72C18.0533 40.5 18.22 40.6667 18.22 41V41.6C18.22 41.9333 18.0533 42.1 17.72 42.1H14.84C14.5067 42.1 14.34 42.2667 14.34 42.6V46.02C14.34 46.3533 14.5067 46.52 14.84 46.52H18.42C18.7533 46.52 18.92 46.6867 18.92 47.02V47.62C18.92 47.9533 18.7533 48.12 18.42 48.12ZM12.68 46.02V42.6C12.68 42.2667 12.5133 42.1 12.18 42.1H7.82C7.48667 42.1 7.32 42.2667 7.32 42.6V46.02C7.32 46.3533 7.48667 46.52 7.82 46.52H12.18C12.5133 46.52 12.68 46.3533 12.68 46.02ZM16.72 54.16C16.12 53.6 15.44 53 14.68 52.36C13.9333 51.72 13.08 51.04 12.12 50.32C11.9333 50.1733 11.8467 50.0267 11.86 49.88C11.8733 49.72 11.9733 49.5867 12.16 49.48L12.66 49.18C12.8333 49.0733 13.0133 49.08 13.2 49.2C14.1733 49.8933 15.06 50.5533 15.86 51.18C16.6733 51.8067 17.4067 52.4133 18.06 53C18.2067 53.1333 18.2733 53.2667 18.26 53.4C18.2467 53.5467 18.16 53.6733 18 53.78L17.34 54.22C17.2333 54.2867 17.12 54.3133 17 54.3C16.8933 54.2867 16.8 54.24 16.72 54.16ZM2.36 54.16C2.29333 54.0933 2.22667 54.0267 2.16 53.96C2.09333 53.9067 2.02 53.8467 1.94 53.78C1.58 53.4467 1.60667 53.1533 2.02 52.9C3.91333 51.8333 5.38 50.64 6.42 49.32C6.56667 49.12 6.76667 49.0667 7.02 49.16L7.7 49.44C7.9 49.52 8.02 49.6333 8.06 49.78C8.1 49.9267 8.04667 50.0733 7.9 50.22C6.47333 51.7667 4.84 53.1067 3 54.24C2.77333 54.3867 2.56 54.36 2.36 54.16ZM32.64 54.04H28.72C27.64 54.04 26.9067 53.86 26.52 53.5C26.12 53.14 25.92 52.4667 25.92 51.48V42.3C25.92 41.9667 26.0867 41.8 26.42 41.8H27.08C27.4133 41.8 27.58 41.9667 27.58 42.3V51.5C27.58 51.9267 27.66 52.1933 27.82 52.3C27.9667 52.42 28.3067 52.48 28.84 52.48H32.56C33.1067 52.48 33.4733 52.2267 33.66 51.72C33.7933 51.32 33.8933 50.4867 33.96 49.22C34 48.7 34.2533 48.5533 34.72 48.78C34.8667 48.8467 35.02 48.9133 35.18 48.98C35.2867 49.02 35.3733 49.0867 35.44 49.18C35.52 49.2733 35.5533 49.38 35.54 49.5C35.4467 51.1533 35.2267 52.3133 34.88 52.98C34.4933 53.6867 33.7467 54.04 32.64 54.04ZM22.18 51.2L21.5 50.92C21.2067 50.7867 21.1133 50.5667 21.22 50.26C21.9267 48.46 22.4467 46.3 22.78 43.78C22.8067 43.62 22.8733 43.5 22.98 43.42C23.0867 43.34 23.2133 43.3133 23.36 43.34L23.98 43.46C24.2867 43.5267 24.42 43.7133 24.38 44.02C24.18 45.3933 23.9533 46.6533 23.7 47.8C23.4467 48.9467 23.16 49.9867 22.84 50.92C22.7867 51.0667 22.7 51.1667 22.58 51.22C22.46 51.2733 22.3267 51.2667 22.18 51.2ZM37.36 50.28C37.1333 49.2533 36.8333 48.2067 36.46 47.14C36.0867 46.06 35.64 44.9533 35.12 43.82C34.9867 43.4867 35.08 43.2533 35.4 43.12L36.02 42.9C36.14 42.8467 36.2533 42.8467 36.36 42.9C36.48 42.94 36.5733 43.0267 36.64 43.16C37.2 44.36 37.6733 45.5133 38.06 46.62C38.46 47.7133 38.7733 48.7733 39 49.8C39.0667 50.08 38.9667 50.2733 38.7 50.38L38.04 50.64C37.8667 50.7067 37.72 50.7067 37.6 50.64C37.48 50.5733 37.4 50.4533 37.36 50.28ZM31.74 42.3C30.5933 41.1 29.1 39.8267 27.26 38.48C27.1133 38.3733 27.0333 38.2533 27.02 38.12C27.02 37.9867 27.08 37.8533 27.2 37.72L27.58 37.34C27.78 37.1533 27.9933 37.14 28.22 37.3C30.22 38.6733 31.8 39.9533 32.96 41.14C33.0667 41.2467 33.1133 41.36 33.1 41.48C33.1 41.6 33.0533 41.7133 32.96 41.82L32.48 42.32C32.2133 42.56 31.9667 42.5533 31.74 42.3Z" fill="white"/>
<path d="M31.3333 24.1667C31.3333 26.821 29.1934 28.9752 26.5443 28.9991V29H16.8777V28.9991C16.8626 28.9991 16.8484 29 16.8333 29C14.1639 29 12 26.8361 12 24.1667C12 24.1516 12.0009 24.1374 12.0009 24.1223H12V14.4557H12.0009C12.0248 11.8066 14.179 9.66667 16.8333 9.66667C18.1689 9.66667 19.3768 9.12657 20.2513 8.25214C21.1257 7.37771 21.6667 6.16893 21.6667 4.83333C21.6667 2.16391 23.8306 0 26.5 0C29.1694 0 31.3333 2.16391 31.3333 4.83333C31.3333 7.50275 29.1694 9.66667 26.5 9.66667C25.1644 9.66667 23.9565 10.2076 23.0821 11.0821C22.2076 11.9565 21.6667 13.1644 21.6667 14.5C21.6667 17.1721 23.8288 19.3333 26.5 19.3333H26.5443V19.3342C29.1934 19.3582 31.3333 21.5123 31.3333 24.1667Z" fill="white"/>
</svg>
