<svg width="32" height="40" viewBox="0 0 32 40" fill="none" xmlns="http://www.w3.org/2000/svg">
    <g clip-path="url(#clip0_507_11850)">
        <path
            d="M31 30C31 32.7459 28.7862 34.9743 26.0459 34.9991V35H16.0459V34.9991C16.0303 34.9991 16.0156 35 16 35C13.2385 35 11 32.7615 11 30C11 29.9844 11.0009 29.9697 11.0009 29.9541H11V19.9541H11.0009C11.0257 17.2138 13.2541 15 16 15C17.3817 15 18.6312 14.4413 19.5358 13.5367C20.4404 12.6321 21 11.3817 21 10C21 7.23853 23.2385 5 26 5C28.7615 5 31 7.23853 31 10C31 12.7615 28.7615 15 26 15C24.6183 15 23.3688 15.5596 22.4642 16.4642C21.5596 17.3688 21 18.6183 21 20C21 22.7642 23.2367 25 26 25H26.0459V25.0009C28.7862 25.0257 31 27.2541 31 30Z"
            stroke="#838383" stroke-miterlimit="10" />
    </g>
    <defs>
        <clipPath id="clip0_507_11850">
            <rect width="32" height="40" fill="white" />
        </clipPath>
    </defs>
</svg>