<svg width="32" height="40" viewBox="0 0 32 40" fill="none" xmlns="http://www.w3.org/2000/svg">
<g clip-path="url(#clip0_507_11850)">
<g clip-path="url(#clip1_507_11850)">
<path d="M26.5974 14.8248C29.4556 14.8248 31.7725 12.5078 31.7725 9.64968C31.7725 6.79157 29.4556 4.47461 26.5974 4.47461C23.7393 4.47461 21.4224 6.79157 21.4224 9.64968C21.4224 12.5078 23.7393 14.8248 26.5974 14.8248Z" fill="#182E7A"/>
<path d="M16.2473 25.1749C19.1055 25.1749 21.4224 22.8579 21.4224 19.9998C21.4224 17.1417 19.1055 14.8247 16.2473 14.8247C13.3892 14.8247 11.0723 17.1417 11.0723 19.9998C11.0723 22.8579 13.3892 25.1749 16.2473 25.1749Z" fill="#182E7A"/>
<path d="M16.2473 35.525C19.1055 35.525 21.4224 33.208 21.4224 30.3499C21.4224 27.4918 19.1055 25.1748 16.2473 25.1748C13.3892 25.1748 11.0723 27.4918 11.0723 30.3499C11.0723 33.208 13.3892 35.525 16.2473 35.525Z" fill="#182E7A"/>
<path d="M26.5974 35.525C29.4556 35.525 31.7725 33.208 31.7725 30.3499C31.7725 27.4918 29.4556 25.1748 26.5974 25.1748C23.7393 25.1748 21.4224 27.4918 21.4224 30.3499C21.4224 33.208 23.7393 35.525 26.5974 35.525Z" fill="#182E7A"/>
<path d="M21.4221 19.9998C21.4221 17.1397 23.7371 14.8247 26.5972 14.8247H21.4221V19.9998Z" fill="#182E7A"/>
<path d="M16.2471 14.8247C19.1071 14.8247 21.4221 17.1397 21.4221 19.9998V14.8247H16.2471Z" fill="#182E7A"/>
<path d="M21.4221 9.64941C21.4221 12.5095 19.1071 14.8245 16.2471 14.8245H21.4221V9.64941Z" fill="#182E7A"/>
<path d="M26.5972 14.8245C23.7371 14.8245 21.4221 12.5095 21.4221 9.64941V14.8245H26.5972Z" fill="#182E7A"/>
<path d="M21.4224 30.3504C21.4224 27.4903 23.7374 25.1753 26.5974 25.1753H21.4224V30.3504Z" fill="#182E7A"/>
<path d="M16.2473 25.1753C19.1074 25.1753 21.4224 27.4903 21.4224 30.3504V25.1753H16.2473Z" fill="#182E7A"/>
<path d="M21.4224 20C21.4224 22.8601 19.1074 25.1751 16.2473 25.1751H21.4224V20Z" fill="#182E7A"/>
<path d="M26.5974 25.1751C23.7374 25.1751 21.4224 22.8601 21.4224 20V25.1751H26.5974Z" fill="#182E7A"/>
<path d="M21.4224 19.9521H11.0723V30.3023H21.4224V19.9521Z" fill="#182E7A"/>
<path d="M26.6449 25.1748H16.2948V35.525H26.6449V25.1748Z" fill="#182E7A"/>
<path d="M5.95944 5.47461H16.1852L16.2858 5.47552C18.5741 5.4962 20.4225 7.35713 20.4225 9.64968C20.4225 11.9422 18.5741 13.8032 16.2858 13.8238L15.2949 13.8328V13.8977C12.3354 14.3552 10.0723 16.9115 10.0723 19.9998V30.2878L10.0714 30.3884C10.0507 32.6767 8.18979 34.5251 5.89724 34.5251C3.60469 34.5251 1.74376 32.6767 1.72308 30.3884L1.72217 30.288V10.6972H1.72312V9.69716C1.72312 9.68345 1.72292 9.6716 1.72271 9.66266L1.72218 9.64315C1.72218 9.64303 1.72218 9.64291 1.72217 9.64279C1.72587 7.3534 3.5728 5.49618 5.8588 5.47552L5.95944 5.47461Z" stroke="#8390C0" stroke-width="2" stroke-miterlimit="10"/>
<path d="M30.7726 19.9998C30.7726 22.3056 28.9034 24.1749 26.5976 24.1749C24.2917 24.1749 22.4225 22.3056 22.4225 19.9998C22.4225 17.694 24.2917 15.8247 26.5976 15.8247C28.9034 15.8247 30.7726 17.694 30.7726 19.9998Z" stroke="#8390C0" stroke-width="2" stroke-miterlimit="10"/>
</g>
</g>
<defs>
<clipPath id="clip0_507_11850">
<rect width="32" height="40" fill="white"/>
</clipPath>
<clipPath id="clip1_507_11850">
<rect width="32.095" height="32" fill="white" transform="translate(0.199707 4)"/>
</clipPath>
</defs>
</svg>
