<svg width="96" height="96" viewBox="0 0 96 96" fill="none" xmlns="http://www.w3.org/2000/svg">
<g filter="url(#filter0_bii_535_27158)">
<path fill-rule="evenodd" clip-rule="evenodd" d="M96 10.6667C96 4.77563 91.2244 0 85.3333 0H58.6667C52.7756 0 48 4.77563 48 10.6667V37.3333C48 43.2244 43.2244 48 37.3333 48H10.6667C4.77563 48 0 52.7756 0 58.6667V85.3333C0 91.2244 4.77563 96 10.6667 96H48H85.3333C91.2244 96 96 91.2244 96 85.3333V48V10.6667Z" fill="#182E7A"/>
</g>
<path d="M17.4613 69.454H16.8373C16.688 69.454 16.5707 69.4113 16.4853 69.326C16.4 69.2407 16.3573 69.1233 16.3573 68.974V59.47C16.3573 59.3527 16.32 59.262 16.2453 59.198C16.1813 59.1233 16.0907 59.086 15.9733 59.086H15.8613C15.68 59.086 15.536 59.1713 15.4293 59.342C14.928 60.2487 14.3733 61.0807 13.7653 61.838C13.6587 61.9553 13.5413 62.0193 13.4133 62.03C13.2853 62.03 13.1627 61.9713 13.0453 61.854C12.9813 61.8007 12.9173 61.7473 12.8533 61.694C12.7893 61.6407 12.72 61.5873 12.6453 61.534C12.368 61.31 12.3467 61.0593 12.5813 60.782C13.1787 60.0673 13.7173 59.2833 14.1973 58.43C14.6773 57.5767 15.104 56.6433 15.4773 55.63C15.52 55.502 15.5947 55.4113 15.7013 55.358C15.808 55.294 15.9253 55.2833 16.0533 55.326L16.6133 55.47C16.944 55.5767 17.0507 55.7847 16.9333 56.094C16.8267 56.382 16.7147 56.654 16.5973 56.91C16.512 57.1233 16.512 57.294 16.5973 57.422C16.6827 57.5393 16.832 57.598 17.0453 57.598H22.0693C22.2187 57.598 22.336 57.6407 22.4213 57.726C22.5067 57.8113 22.5493 57.9287 22.5493 58.078V58.606C22.5493 58.7553 22.5067 58.8727 22.4213 58.958C22.336 59.0433 22.2187 59.086 22.0693 59.086H18.4213C18.272 59.086 18.1547 59.1287 18.0693 59.214C17.984 59.2993 17.9413 59.4167 17.9413 59.566V60.494C17.9413 60.6433 17.984 60.7607 18.0693 60.846C18.1547 60.9313 18.272 60.974 18.4213 60.974H21.7013C21.8507 60.974 21.968 61.0167 22.0533 61.102C22.1387 61.1873 22.1813 61.3047 22.1813 61.454V61.918C22.1813 62.0673 22.1387 62.1847 22.0533 62.27C21.968 62.3553 21.8507 62.398 21.7013 62.398H18.4213C18.272 62.398 18.1547 62.4407 18.0693 62.526C17.984 62.6113 17.9413 62.7287 17.9413 62.878V63.902C17.9413 64.0513 17.984 64.1687 18.0693 64.254C18.1547 64.3393 18.272 64.382 18.4213 64.382H21.9253C22.0747 64.382 22.192 64.4247 22.2773 64.51C22.3627 64.5953 22.4053 64.7127 22.4053 64.862V65.342C22.4053 65.4913 22.3627 65.6087 22.2773 65.694C22.192 65.7793 22.0747 65.822 21.9253 65.822H18.4213C18.272 65.822 18.1547 65.8647 18.0693 65.95C17.984 66.0353 17.9413 66.1527 17.9413 66.302V68.974C17.9413 69.1233 17.8987 69.2407 17.8133 69.326C17.728 69.4113 17.6107 69.454 17.4613 69.454ZM11.2053 69.438H10.5973C10.448 69.438 10.3307 69.3953 10.2453 69.31C10.16 69.2247 10.1173 69.1073 10.1173 68.958V62.254C10.1173 61.966 10.064 61.806 9.95733 61.774C9.85067 61.742 9.70667 61.8327 9.52533 62.046C9.45067 62.1207 9.39733 62.1793 9.36533 62.222C9.216 62.382 9.06667 62.4513 8.91733 62.43C8.77867 62.398 8.66133 62.286 8.56533 62.094C8.512 61.9873 8.45867 61.886 8.40533 61.79C8.352 61.694 8.29867 61.6033 8.24533 61.518C8.10667 61.294 8.12267 61.086 8.29333 60.894C8.976 60.158 9.58933 59.3473 10.1333 58.462C10.6773 57.566 11.168 56.5847 11.6053 55.518C11.6587 55.39 11.7387 55.2993 11.8453 55.246C11.952 55.1927 12.0693 55.1873 12.1973 55.23L12.7573 55.406C12.9067 55.4593 13.008 55.5447 13.0613 55.662C13.1147 55.7687 13.1093 55.8913 13.0453 56.03C12.864 56.51 12.6613 56.974 12.4373 57.422C12.224 57.8593 11.9947 58.302 11.7493 58.75C11.7067 58.8353 11.6853 58.9153 11.6853 58.99V68.958C11.6853 69.1073 11.6427 69.2247 11.5573 69.31C11.472 69.3953 11.3547 69.438 11.2053 69.438ZM33.0293 69.47H32.4213C32.272 69.47 32.1547 69.4273 32.0693 69.342C31.984 69.2567 31.9413 69.1393 31.9413 68.99V63.022C31.9413 62.8727 31.984 62.7553 32.0693 62.67C32.1547 62.5847 32.272 62.542 32.4213 62.542H37.4773C37.6267 62.542 37.744 62.5847 37.8293 62.67C37.9147 62.7553 37.9573 62.8727 37.9573 63.022V68.91C37.9573 69.0593 37.9147 69.1767 37.8293 69.262C37.744 69.3473 37.6267 69.39 37.4773 69.39H36.7893C36.544 69.39 36.4213 69.2673 36.4213 69.022C36.4213 68.7767 36.2987 68.654 36.0533 68.654H33.8453C33.568 68.654 33.4293 68.7927 33.4293 69.07C33.4293 69.3367 33.296 69.47 33.0293 69.47ZM36.4213 66.702V64.51C36.4213 64.3607 36.3787 64.2433 36.2933 64.158C36.208 64.0727 36.0907 64.03 35.9413 64.03H33.9093C33.76 64.03 33.6427 64.0727 33.5573 64.158C33.472 64.2433 33.4293 64.3607 33.4293 64.51V66.702C33.4293 66.8513 33.472 66.9687 33.5573 67.054C33.6427 67.1393 33.76 67.182 33.9093 67.182H35.9413C36.0907 67.182 36.208 67.1393 36.2933 67.054C36.3787 66.9687 36.4213 66.8513 36.4213 66.702ZM25.8293 69.47H25.2533C25.104 69.47 24.9867 69.4273 24.9013 69.342C24.816 69.2567 24.7733 69.1393 24.7733 68.99V63.022C24.7733 62.8727 24.816 62.7553 24.9013 62.67C24.9867 62.5847 25.104 62.542 25.2533 62.542H30.0213C30.1707 62.542 30.288 62.5847 30.3733 62.67C30.4587 62.7553 30.5013 62.8727 30.5013 63.022V68.878C30.5013 69.0273 30.4587 69.1447 30.3733 69.23C30.288 69.3153 30.1707 69.358 30.0213 69.358H29.3333C29.0987 69.358 28.9813 69.2407 28.9813 69.006C28.9813 68.7713 28.864 68.654 28.6293 68.654H26.6453C26.368 68.654 26.2293 68.7927 26.2293 69.07C26.2293 69.3367 26.096 69.47 25.8293 69.47ZM28.9813 66.702V64.51C28.9813 64.3607 28.9387 64.2433 28.8533 64.158C28.768 64.0727 28.6507 64.03 28.5013 64.03H26.7093C26.56 64.03 26.4427 64.0727 26.3573 64.158C26.272 64.2433 26.2293 64.3607 26.2293 64.51V66.702C26.2293 66.8513 26.272 66.9687 26.3573 67.054C26.4427 67.1393 26.56 67.182 26.7093 67.182H28.5013C28.6507 67.182 28.768 67.1393 28.8533 67.054C28.9387 66.9687 28.9813 66.8513 28.9813 66.702ZM35.3013 61.118H27.4453C27.296 61.118 27.1787 61.0753 27.0933 60.99C27.008 60.9047 26.9653 60.7873 26.9653 60.638V56.19C26.9653 56.0407 27.008 55.9233 27.0933 55.838C27.1787 55.7527 27.296 55.71 27.4453 55.71H35.3013C35.4507 55.71 35.568 55.7527 35.6533 55.838C35.7387 55.9233 35.7813 56.0407 35.7813 56.19V60.638C35.7813 60.7873 35.7387 60.9047 35.6533 60.99C35.568 61.0753 35.4507 61.118 35.3013 61.118ZM34.1973 59.166V57.678C34.1973 57.5287 34.1547 57.4113 34.0693 57.326C33.984 57.2407 33.8667 57.198 33.7173 57.198H28.9333C28.784 57.198 28.6667 57.2407 28.5813 57.326C28.496 57.4113 28.4533 57.5287 28.4533 57.678V59.166C28.4533 59.3153 28.496 59.4327 28.5813 59.518C28.6667 59.6033 28.784 59.646 28.9333 59.646H33.7173C33.8667 59.646 33.984 59.6033 34.0693 59.518C34.1547 59.4327 34.1973 59.3153 34.1973 59.166ZM21.0613 87.838C20.7093 87.006 20.1867 86.1473 19.4933 85.262C19.3867 85.1233 19.344 84.99 19.3653 84.862C19.3973 84.7233 19.488 84.6113 19.6373 84.526L20.0213 84.318C20.1173 84.2647 20.2187 84.2487 20.3253 84.27C20.432 84.2807 20.528 84.334 20.6133 84.43C21.456 85.4433 22.0587 86.382 22.4213 87.246C22.528 87.4807 22.464 87.6673 22.2293 87.806L21.7973 88.078C21.648 88.174 21.504 88.2007 21.3653 88.158C21.2373 88.1153 21.136 88.0087 21.0613 87.838ZM17.6533 89.31H14.4053C13.36 89.31 12.672 89.1767 12.3413 88.91C11.9893 88.6433 11.8133 88.142 11.8133 87.406V84.782C11.8133 84.6327 11.856 84.5153 11.9413 84.43C12.0267 84.3447 12.144 84.302 12.2933 84.302H12.9493C13.0987 84.302 13.216 84.3447 13.3013 84.43C13.3867 84.5153 13.4293 84.6327 13.4293 84.782V87.39C13.4293 87.6033 13.4933 87.742 13.6213 87.806C13.7493 87.87 14.048 87.902 14.5173 87.902H17.5573C17.8987 87.902 18.128 87.8113 18.2453 87.63C18.2987 87.5447 18.352 87.3367 18.4053 87.006C18.448 86.622 18.656 86.5047 19.0293 86.654C19.2 86.7287 19.36 86.7873 19.5093 86.83C19.6267 86.862 19.7227 86.926 19.7973 87.022C19.872 87.118 19.8987 87.23 19.8773 87.358C19.7813 88.0513 19.6 88.542 19.3333 88.83C19.0027 89.15 18.4427 89.31 17.6533 89.31ZM9.15733 88.478L8.64533 88.238C8.48533 88.1527 8.38933 88.046 8.35733 87.918C8.32533 87.79 8.352 87.6513 8.43733 87.502C8.85333 86.8087 9.17867 85.966 9.41333 84.974C9.49867 84.6753 9.69067 84.5527 9.98933 84.606L10.5173 84.718C10.656 84.7393 10.7573 84.8033 10.8213 84.91C10.896 85.006 10.9173 85.1233 10.8853 85.262C10.768 85.8167 10.6133 86.3447 10.4213 86.846C10.24 87.3473 10.0213 87.8273 9.76533 88.286C9.70133 88.4033 9.61067 88.478 9.49333 88.51C9.38667 88.542 9.27467 88.5313 9.15733 88.478ZM16.3573 86.238C15.8347 85.6407 15.184 85.0487 14.4053 84.462C14.256 84.3447 14.1813 84.222 14.1813 84.094C14.1813 83.9553 14.256 83.8273 14.4053 83.71C14.5547 83.5927 14.6133 83.502 14.5813 83.438C14.5493 83.3633 14.4427 83.326 14.2613 83.326H10.7733C10.624 83.326 10.5067 83.2833 10.4213 83.198C10.336 83.1127 10.2933 82.9953 10.2933 82.846V78.59C10.2933 78.4407 10.336 78.3233 10.4213 78.238C10.5067 78.1527 10.624 78.11 10.7733 78.11H12.1013C12.3147 78.11 12.464 78.0513 12.5493 77.934C12.6347 77.806 12.624 77.6513 12.5173 77.47C12.4 77.2567 12.2773 77.0433 12.1493 76.83C12.0213 76.606 11.8773 76.3873 11.7173 76.174C11.6107 76.0247 11.5733 75.886 11.6053 75.758C11.6373 75.63 11.7333 75.5233 11.8933 75.438L12.3413 75.23C12.5653 75.1233 12.7573 75.166 12.9173 75.358C13.4507 76.0407 13.872 76.702 14.1813 77.342C14.2347 77.4593 14.24 77.5713 14.1973 77.678C14.1653 77.7847 14.0907 77.8647 13.9733 77.918C13.856 77.9713 13.8027 78.0193 13.8133 78.062C13.824 78.094 13.8933 78.11 14.0213 78.11H16.1173C16.2987 78.11 16.4373 78.0353 16.5333 77.886C17.0027 77.0967 17.4133 76.2913 17.7653 75.47C17.8187 75.3313 17.904 75.2407 18.0213 75.198C18.1387 75.1553 18.2667 75.1607 18.4053 75.214L19.0453 75.47C19.1947 75.534 19.2907 75.63 19.3333 75.758C19.376 75.8753 19.3547 76.0033 19.2693 76.142C19.152 76.3553 19.0293 76.5633 18.9013 76.766C18.784 76.9687 18.6667 77.1713 18.5493 77.374C18.4213 77.598 18.3947 77.7793 18.4693 77.918C18.544 78.046 18.7093 78.11 18.9653 78.11H19.9413C20.0907 78.11 20.208 78.1527 20.2933 78.238C20.3787 78.3233 20.4213 78.4407 20.4213 78.59V82.846C20.4213 82.9953 20.3787 83.1127 20.2933 83.198C20.208 83.2833 20.0907 83.326 19.9413 83.326H16.7413C16.272 83.326 16.0107 83.406 15.9573 83.566C15.9147 83.726 16.0693 83.9553 16.4213 84.254C16.624 84.4247 16.8107 84.5953 16.9813 84.766C17.1627 84.9367 17.3333 85.1073 17.4933 85.278C17.5893 85.3847 17.632 85.502 17.6213 85.63C17.6107 85.7473 17.5573 85.8487 17.4613 85.934L17.0613 86.286C16.944 86.3927 16.8213 86.4407 16.6933 86.43C16.5653 86.4193 16.4533 86.3553 16.3573 86.238ZM18.7093 81.39V80.03C18.7093 79.8807 18.6667 79.7633 18.5813 79.678C18.496 79.5927 18.3787 79.55 18.2293 79.55H12.4213C12.272 79.55 12.1547 79.5927 12.0693 79.678C11.984 79.7633 11.9413 79.8807 11.9413 80.03V81.39C11.9413 81.5393 11.984 81.6567 12.0693 81.742C12.1547 81.8273 12.272 81.87 12.4213 81.87H18.2293C18.3787 81.87 18.496 81.8273 18.5813 81.742C18.6667 81.6567 18.7093 81.5393 18.7093 81.39ZM31.0613 89.086C31.008 88.99 30.9387 88.8833 30.8533 88.766C30.6187 88.446 30.6773 88.19 31.0293 87.998C32.3093 87.3153 33.3067 86.414 34.0213 85.294C34.1067 85.1553 34.112 85.0113 34.0373 84.862C33.8667 84.4673 33.7067 84.0673 33.5573 83.662C33.4187 83.2567 33.2907 82.8407 33.1733 82.414C33.0133 81.8593 32.7893 81.8327 32.5013 82.334C32.48 82.3873 32.4533 82.4407 32.4213 82.494C32.3893 82.5367 32.3573 82.5847 32.3253 82.638C32.2293 82.798 32.112 82.8833 31.9733 82.894C31.8347 82.894 31.696 82.8353 31.5573 82.718C31.504 82.6753 31.4507 82.6327 31.3973 82.59C31.3547 82.5473 31.3067 82.5047 31.2533 82.462C30.9973 82.27 30.9547 82.0353 31.1253 81.758C32.064 80.2967 32.7147 78.254 33.0773 75.63C33.1307 75.3207 33.312 75.182 33.6213 75.214L34.0853 75.278C34.2347 75.2993 34.3467 75.358 34.4213 75.454C34.496 75.55 34.5227 75.6727 34.5013 75.822C34.416 76.3767 34.32 76.8993 34.2133 77.39C34.1813 77.5713 34.208 77.7153 34.2933 77.822C34.3787 77.9287 34.512 77.982 34.6933 77.982H37.8613C38.0107 77.982 38.128 78.0247 38.2133 78.11C38.2987 78.1953 38.3413 78.3127 38.3413 78.462V78.958C38.3413 79.1073 38.2987 79.2247 38.2133 79.31C38.128 79.3953 38.0107 79.438 37.8613 79.438H37.7333C37.4667 79.438 37.3067 79.5767 37.2533 79.854C36.9653 81.7847 36.4907 83.4593 35.8293 84.878C35.7973 84.942 35.7813 85.0167 35.7813 85.102C35.7813 85.1873 35.8027 85.262 35.8453 85.326C36.464 86.3287 37.2267 87.15 38.1333 87.79C38.4853 88.0353 38.5173 88.318 38.2293 88.638C38.1867 88.6913 38.144 88.7447 38.1013 88.798C38.0693 88.8513 38.032 88.9047 37.9893 88.958C37.904 89.0753 37.7973 89.1447 37.6693 89.166C37.552 89.1873 37.4347 89.1553 37.3173 89.07C36.9227 88.7927 36.5547 88.4887 36.2133 88.158C35.8827 87.8273 35.5733 87.47 35.2853 87.086C35.0187 86.7127 34.736 86.702 34.4373 87.054C33.744 87.9073 32.848 88.6487 31.7493 89.278C31.6107 89.3633 31.4827 89.3847 31.3653 89.342C31.248 89.2993 31.1467 89.214 31.0613 89.086ZM35.3173 82.238C35.4133 81.8967 35.4987 81.5393 35.5733 81.166C35.6587 80.782 35.7387 80.3873 35.8133 79.982C35.8347 79.822 35.8027 79.694 35.7173 79.598C35.632 79.4913 35.504 79.438 35.3333 79.438H34.4053C34.224 79.438 34.0907 79.4913 34.0053 79.598C33.92 79.694 33.8987 79.8273 33.9413 79.998C34.1013 80.7767 34.2933 81.5287 34.5173 82.254C34.6347 82.6167 34.768 82.798 34.9173 82.798C35.0773 82.798 35.2107 82.6113 35.3173 82.238ZM24.5973 88.99C24.576 88.9473 24.5547 88.9047 24.5333 88.862C24.512 88.83 24.4853 88.7927 24.4533 88.75C24.2293 88.3767 24.32 88.1313 24.7253 88.014C25.4187 87.822 26.048 87.5767 26.6133 87.278C26.8267 87.1607 26.928 87.0273 26.9173 86.878C26.9173 86.7287 26.8053 86.6007 26.5813 86.494C26.4213 86.4087 26.256 86.334 26.0853 86.27C25.9253 86.1953 25.76 86.1207 25.5893 86.046C25.4187 85.9713 25.312 85.87 25.2693 85.742C25.2373 85.6033 25.2693 85.4593 25.3653 85.31C25.4187 85.246 25.4613 85.182 25.4933 85.118C25.536 85.0433 25.5787 84.974 25.6213 84.91C25.7387 84.7287 25.7653 84.5847 25.7013 84.478C25.6373 84.3607 25.4987 84.302 25.2853 84.302H25.0613C24.912 84.302 24.7947 84.2593 24.7093 84.174C24.624 84.0887 24.5813 83.9713 24.5813 83.822V83.502C24.5813 83.3527 24.624 83.2353 24.7093 83.15C24.7947 83.0647 24.912 83.022 25.0613 83.022H26.3253C26.528 83.022 26.672 82.9313 26.7573 82.75C26.7787 82.6967 26.7947 82.6487 26.8053 82.606C26.8267 82.5527 26.848 82.4993 26.8693 82.446C26.976 82.1793 27.1627 82.0727 27.4293 82.126L28.1173 82.27C28.3093 82.302 28.368 82.4087 28.2933 82.59C28.272 82.6327 28.2507 82.6753 28.2293 82.718C28.2187 82.75 28.2027 82.782 28.1813 82.814C28.1707 82.8247 28.1653 82.8353 28.1653 82.846C28.1653 82.8567 28.16 82.8673 28.1493 82.878L28.1333 82.926C28.1227 82.99 28.144 83.022 28.1973 83.022H30.2613C30.2827 83.022 30.304 83.022 30.3253 83.022C30.3467 83.022 30.368 83.0167 30.3893 83.006L30.4373 82.99C30.5227 82.9687 30.5973 82.974 30.6613 83.006L30.9813 83.118C31.1093 83.1713 31.2 83.2513 31.2533 83.358C31.3067 83.4647 31.312 83.582 31.2693 83.71C30.9387 84.6593 30.5067 85.4807 29.9733 86.174C29.856 86.3233 29.808 86.4673 29.8293 86.606C29.8507 86.734 29.936 86.8407 30.0853 86.926L30.3093 87.07C30.4587 87.1553 30.5387 87.2673 30.5493 87.406C30.5707 87.5447 30.5227 87.678 30.4053 87.806L30.1493 88.094C30.064 88.19 29.9573 88.2433 29.8293 88.254C29.712 88.2647 29.6 88.2273 29.4933 88.142C29.3867 88.078 29.28 88.014 29.1733 87.95C29.0667 87.8753 28.9547 87.806 28.8373 87.742C28.6667 87.6353 28.4907 87.646 28.3093 87.774C27.424 88.4033 26.384 88.8993 25.1893 89.262C24.9227 89.326 24.7253 89.2353 24.5973 88.99ZM28.6453 85.742C28.7627 85.614 28.8693 85.486 28.9653 85.358C29.072 85.23 29.168 85.0967 29.2533 84.958C29.3707 84.766 29.392 84.6113 29.3173 84.494C29.2427 84.366 29.0933 84.302 28.8693 84.302H27.7813C27.6 84.302 27.456 84.382 27.3493 84.542L27.2053 84.814C27.12 84.9633 27.0987 85.102 27.1413 85.23C27.184 85.3473 27.28 85.438 27.4293 85.502C27.5467 85.5553 27.6587 85.6087 27.7653 85.662C27.872 85.7153 27.984 85.7687 28.1013 85.822C28.304 85.9287 28.4853 85.902 28.6453 85.742ZM24.5973 81.934C24.576 81.902 24.5547 81.87 24.5333 81.838C24.512 81.806 24.4907 81.7793 24.4693 81.758C24.2133 81.3847 24.2773 81.102 24.6613 80.91C25.2053 80.622 25.7013 80.27 26.1493 79.854C26.384 79.6407 26.464 79.4647 26.3893 79.326C26.3253 79.1873 26.1387 79.118 25.8293 79.118H24.7573C24.608 79.118 24.4907 79.0753 24.4053 78.99C24.32 78.9047 24.2773 78.7873 24.2773 78.638V78.35C24.2773 78.2007 24.32 78.0833 24.4053 77.998C24.4907 77.9127 24.608 77.87 24.7573 77.87H25.0773C25.2587 77.87 25.392 77.8167 25.4773 77.71C25.5627 77.6033 25.5733 77.4647 25.5093 77.294C25.4453 77.1447 25.376 76.99 25.3013 76.83C25.2267 76.67 25.1413 76.5047 25.0453 76.334C24.96 76.1847 24.9387 76.046 24.9813 75.918C25.024 75.79 25.1253 75.694 25.2853 75.63L25.5413 75.518C25.648 75.4753 25.7547 75.47 25.8613 75.502C25.968 75.534 26.0533 75.598 26.1173 75.694C26.4267 76.1847 26.6507 76.638 26.7893 77.054C26.832 77.1713 26.8267 77.278 26.7733 77.374C26.7307 77.47 26.6507 77.5447 26.5333 77.598L26.3893 77.646C26.0693 77.7953 26.0853 77.87 26.4373 77.87H26.8853C27.0347 77.87 27.152 77.8273 27.2373 77.742C27.3227 77.6567 27.3653 77.5393 27.3653 77.39V75.534C27.3653 75.3847 27.408 75.2673 27.4933 75.182C27.5787 75.0967 27.696 75.054 27.8453 75.054H28.3093C28.4587 75.054 28.576 75.0967 28.6613 75.182C28.7467 75.2673 28.7893 75.3847 28.7893 75.534V77.39C28.7893 77.5393 28.832 77.6567 28.9173 77.742C29.0027 77.8273 29.12 77.87 29.2693 77.87H31.3813C31.5307 77.87 31.648 77.9127 31.7333 77.998C31.8187 78.0833 31.8613 78.2007 31.8613 78.35V78.638C31.8613 78.7873 31.8187 78.9047 31.7333 78.99C31.648 79.0753 31.5307 79.118 31.3813 79.118H30.5653C30.192 79.118 29.9893 79.1767 29.9573 79.294C29.9253 79.4113 30.0693 79.5713 30.3893 79.774L31.0133 80.158C31.2907 80.35 31.328 80.5847 31.1253 80.862L30.9173 81.134C30.8213 81.2513 30.704 81.3207 30.5653 81.342C30.4373 81.3527 30.3147 81.3047 30.1973 81.198C30.1013 81.1127 30 81.0273 29.8933 80.942C29.7867 80.8567 29.6693 80.7607 29.5413 80.654C29.3173 80.4727 29.136 80.4193 28.9973 80.494C28.8587 80.5687 28.7893 80.7447 28.7893 81.022V81.486C28.7893 81.6353 28.7467 81.7527 28.6613 81.838C28.576 81.9233 28.4587 81.966 28.3093 81.966H27.8453C27.696 81.966 27.5787 81.9233 27.4933 81.838C27.408 81.7527 27.3653 81.6353 27.3653 81.486V81.182C27.3653 80.702 27.1787 80.622 26.8053 80.942C26.5707 81.166 26.3253 81.374 26.0693 81.566C25.8133 81.758 25.5467 81.9447 25.2693 82.126C25.1413 82.2113 25.0187 82.2327 24.9013 82.19C24.784 82.1473 24.6827 82.062 24.5973 81.934ZM29.8133 77.694L29.6533 77.614C29.504 77.55 29.408 77.4593 29.3653 77.342C29.3333 77.214 29.36 77.0753 29.4453 76.926C29.5627 76.734 29.6747 76.542 29.7813 76.35C29.888 76.1473 29.9893 75.9393 30.0853 75.726C30.1387 75.5873 30.224 75.4967 30.3413 75.454C30.4587 75.4113 30.5867 75.4167 30.7253 75.47L31.0613 75.614C31.2213 75.678 31.3173 75.774 31.3493 75.902C31.392 76.03 31.3653 76.1687 31.2693 76.318C30.9707 76.7553 30.672 77.166 30.3733 77.55C30.3093 77.646 30.224 77.71 30.1173 77.742C30.0107 77.7633 29.9093 77.7473 29.8133 77.694Z" fill="white"/>
<line x1="72.8508" y1="4.34877" x2="44.3494" y2="91.1485" stroke="white" stroke-width="2.66667" stroke-linecap="round"/>
<defs>
<filter id="filter0_bii_535_27158" x="-32" y="-32" width="160" height="160" filterUnits="userSpaceOnUse" color-interpolation-filters="sRGB">
<feFlood flood-opacity="0" result="BackgroundImageFix"/>
<feGaussianBlur in="BackgroundImageFix" stdDeviation="16"/>
<feComposite in2="SourceAlpha" operator="in" result="effect1_backgroundBlur_535_27158"/>
<feBlend mode="normal" in="SourceGraphic" in2="effect1_backgroundBlur_535_27158" result="shape"/>
<feColorMatrix in="SourceAlpha" type="matrix" values="0 0 0 0 0 0 0 0 0 0 0 0 0 0 0 0 0 0 127 0" result="hardAlpha"/>
<feOffset dx="-32" dy="32"/>
<feGaussianBlur stdDeviation="16"/>
<feComposite in2="hardAlpha" operator="arithmetic" k2="-1" k3="1"/>
<feColorMatrix type="matrix" values="0 0 0 0 1 0 0 0 0 1 0 0 0 0 1 0 0 0 0.158 0"/>
<feBlend mode="normal" in2="shape" result="effect2_innerShadow_535_27158"/>
<feColorMatrix in="SourceAlpha" type="matrix" values="0 0 0 0 0 0 0 0 0 0 0 0 0 0 0 0 0 0 127 0" result="hardAlpha"/>
<feOffset dx="16" dy="-16"/>
<feGaussianBlur stdDeviation="8"/>
<feComposite in2="hardAlpha" operator="arithmetic" k2="-1" k3="1"/>
<feColorMatrix type="matrix" values="0 0 0 0 0.646745 0 0 0 0 0.646745 0 0 0 0 0.646745 0 0 0 0.158 0"/>
<feBlend mode="normal" in2="effect2_innerShadow_535_27158" result="effect3_innerShadow_535_27158"/>
</filter>
</defs>
</svg>
