<svg width="40" height="58" viewBox="0 0 40 58" fill="none" xmlns="http://www.w3.org/2000/svg">
<path d="M18.5142 9.69643C21.1918 9.69643 23.3624 7.52581 23.3624 4.84821C23.3624 2.17062 21.1918 0 18.5142 0C15.8366 0 13.666 2.17062 13.666 4.84821C13.666 7.52581 15.8366 9.69643 18.5142 9.69643Z" fill="white"/>
<path d="M18.5142 19.3038C21.1918 19.3038 23.3624 17.1332 23.3624 14.4556C23.3624 11.778 21.1918 9.60742 18.5142 9.60742C15.8366 9.60742 13.666 11.778 13.666 14.4556C13.666 17.1332 15.8366 19.3038 18.5142 19.3038Z" fill="white"/>
<path d="M28.2095 19.3038C30.8871 19.3038 33.0578 17.1332 33.0578 14.4556C33.0578 11.778 30.8871 9.60742 28.2095 9.60742C25.5319 9.60742 23.3613 11.778 23.3613 14.4556C23.3613 17.1332 25.5319 19.3038 28.2095 19.3038Z" fill="white"/>
<path d="M28.2095 29.0001C30.8871 29.0001 33.0578 26.8295 33.0578 24.1519C33.0578 21.4743 30.8871 19.3037 28.2095 19.3037C25.5319 19.3037 23.3613 21.4743 23.3613 24.1519C23.3613 26.8295 25.5319 29.0001 28.2095 29.0001Z" fill="white"/>
<path d="M23.3613 14.4532C23.3613 11.7738 25.5301 9.60498 28.2095 9.60498H23.3613V14.4532Z" fill="white"/>
<path d="M18.5137 9.60498C21.1931 9.60498 23.3619 11.7738 23.3619 14.4532V9.60498H18.5137Z" fill="white"/>
<path d="M23.3619 4.75684C23.3619 7.43625 21.1931 9.60505 18.5137 9.60505H23.3619V4.75684Z" fill="white"/>
<path d="M28.2095 9.60505C25.5301 9.60505 23.3613 7.43625 23.3613 4.75684V9.60505H28.2095Z" fill="white"/>
<path d="M23.3613 24.1519C23.3613 21.4725 25.5301 19.3037 28.2095 19.3037H23.3613V24.1519Z" fill="white"/>
<path d="M18.5137 19.3037C21.1931 19.3037 23.3619 21.4725 23.3619 24.1519V19.3037H18.5137Z" fill="white"/>
<path d="M23.3619 14.4556C23.3619 17.135 21.1931 19.3038 18.5137 19.3038H23.3619V14.4556Z" fill="white"/>
<path d="M28.2095 19.3038C25.5301 19.3038 23.3613 17.135 23.3613 14.4556V19.3038H28.2095Z" fill="white"/>
<path d="M23.3624 4.71436H13.666V14.4108H23.3624V4.71436Z" fill="white"/>
<path d="M33.0578 14.5H23.3613V24.1964H33.0578V14.5Z" fill="white"/>
<g clip-path="url(#clip0_1125_32956)">
<path d="M18.42 47.12H1.68C1.34667 47.12 1.18 46.9533 1.18 46.62V46.02C1.18 45.6867 1.34667 45.52 1.68 45.52H5.18C5.51333 45.52 5.68 45.3533 5.68 45.02V41.6C5.68 41.2667 5.51333 41.1 5.18 41.1H2.46C2.12667 41.1 1.96 40.9333 1.96 40.6V40C1.96 39.6667 2.12667 39.5 2.46 39.5H5.18C5.51333 39.5 5.68 39.3333 5.68 39V36.06C5.68 35.7267 5.84667 35.56 6.18 35.56H6.82C7.15333 35.56 7.32 35.7267 7.32 36.06V39C7.32 39.3333 7.48667 39.5 7.82 39.5H12.18C12.5133 39.5 12.68 39.3333 12.68 39V36.06C12.68 35.7267 12.8467 35.56 13.18 35.56H13.84C14.1733 35.56 14.34 35.7267 14.34 36.06V39C14.34 39.3333 14.5067 39.5 14.84 39.5H17.72C18.0533 39.5 18.22 39.6667 18.22 40V40.6C18.22 40.9333 18.0533 41.1 17.72 41.1H14.84C14.5067 41.1 14.34 41.2667 14.34 41.6V45.02C14.34 45.3533 14.5067 45.52 14.84 45.52H18.42C18.7533 45.52 18.92 45.6867 18.92 46.02V46.62C18.92 46.9533 18.7533 47.12 18.42 47.12ZM12.68 45.02V41.6C12.68 41.2667 12.5133 41.1 12.18 41.1H7.82C7.48667 41.1 7.32 41.2667 7.32 41.6V45.02C7.32 45.3533 7.48667 45.52 7.82 45.52H12.18C12.5133 45.52 12.68 45.3533 12.68 45.02ZM16.72 53.16C16.12 52.6 15.44 52 14.68 51.36C13.9333 50.72 13.08 50.04 12.12 49.32C11.9333 49.1733 11.8467 49.0267 11.86 48.88C11.8733 48.72 11.9733 48.5867 12.16 48.48L12.66 48.18C12.8333 48.0733 13.0133 48.08 13.2 48.2C14.1733 48.8933 15.06 49.5533 15.86 50.18C16.6733 50.8067 17.4067 51.4133 18.06 52C18.2067 52.1333 18.2733 52.2667 18.26 52.4C18.2467 52.5467 18.16 52.6733 18 52.78L17.34 53.22C17.2333 53.2867 17.12 53.3133 17 53.3C16.8933 53.2867 16.8 53.24 16.72 53.16ZM2.36 53.16C2.29333 53.0933 2.22667 53.0267 2.16 52.96C2.09333 52.9067 2.02 52.8467 1.94 52.78C1.58 52.4467 1.60667 52.1533 2.02 51.9C3.91333 50.8333 5.38 49.64 6.42 48.32C6.56667 48.12 6.76667 48.0667 7.02 48.16L7.7 48.44C7.9 48.52 8.02 48.6333 8.06 48.78C8.1 48.9267 8.04667 49.0733 7.9 49.22C6.47333 50.7667 4.84 52.1067 3 53.24C2.77333 53.3867 2.56 53.36 2.36 53.16ZM25.74 53.42H24.96C24.6267 53.42 24.46 53.2533 24.46 52.92V48.78C24.46 48.5133 24.3867 48.34 24.24 48.26C24.1067 48.18 23.9267 48.2 23.7 48.32C23.4733 48.44 23.24 48.5533 23 48.66C22.7733 48.7667 22.5333 48.8733 22.28 48.98C22.04 49.0733 21.84 49.0067 21.68 48.78C21.6267 48.7133 21.5733 48.6467 21.52 48.58C21.48 48.5133 21.4333 48.4467 21.38 48.38C21.06 47.9933 21.1267 47.7067 21.58 47.52C23.2067 46.8533 24.6933 46.02 26.04 45.02C26.76 44.4867 27.4133 43.9267 28 43.34C28.6 42.7533 29.1333 42.12 29.6 41.44C29.6667 41.3333 29.76 41.2667 29.88 41.24C30 41.2 30.1133 41.2067 30.22 41.26L30.98 41.6C31.2067 41.6933 31.2467 41.8333 31.1 42.02C30.9667 42.1933 30.98 42.3733 31.14 42.56C32.9 44.44 35.28 45.9867 38.28 47.2C38.5067 47.2933 38.6333 47.42 38.66 47.58C38.6867 47.7267 38.6267 47.8933 38.48 48.08C38.4267 48.1467 38.3733 48.22 38.32 48.3C38.28 48.3667 38.24 48.4333 38.2 48.5C38.0267 48.74 37.8067 48.8067 37.54 48.7C37.3133 48.5933 37.0933 48.4933 36.88 48.4C36.6667 48.3067 36.46 48.2067 36.26 48.1C36.0333 47.98 35.8533 47.96 35.72 48.04C35.5867 48.12 35.52 48.2867 35.52 48.54V52.84C35.52 53.1733 35.3533 53.34 35.02 53.34H34.16C33.96 53.34 33.86 53.2467 33.86 53.06C33.86 52.86 33.7667 52.76 33.58 52.76H26.4C26.1733 52.76 26.06 52.8733 26.06 53.1C26.06 53.3133 25.9533 53.42 25.74 53.42ZM33.86 50.76V48.7C33.86 48.3667 33.6933 48.2 33.36 48.2H26.56C26.2267 48.2 26.06 48.3667 26.06 48.7V50.76C26.06 51.0933 26.2267 51.26 26.56 51.26H33.36C33.6933 51.26 33.86 51.0933 33.86 50.76ZM32.44 45.7C31.76 45.1533 31.08 44.5333 30.4 43.84C30.16 43.5867 29.9067 43.5933 29.64 43.86C29.3333 44.2067 29.0133 44.5333 28.68 44.84C28.36 45.1467 28.0267 45.4467 27.68 45.74C27.2933 46.0467 27.1267 46.2867 27.18 46.46C27.2333 46.62 27.5067 46.7 28 46.7H32.12C32.64 46.7 32.9267 46.6133 32.98 46.44C33.0333 46.2667 32.8533 46.02 32.44 45.7ZM22.74 44.08C22.6733 44.0133 22.6133 43.9467 22.56 43.88C22.5067 43.8133 22.4467 43.7467 22.38 43.68C22.2333 43.52 22.1667 43.36 22.18 43.2C22.2067 43.04 22.3133 42.9067 22.5 42.8C24.0733 41.9333 25.3933 40.8867 26.46 39.66C26.62 39.4733 26.8 39.4267 27 39.52L27.56 39.7C27.76 39.7667 27.88 39.8733 27.92 40.02C27.96 40.1667 27.9067 40.32 27.76 40.48C26.4667 41.9867 25.0067 43.22 23.38 44.18C23.2733 44.2467 23.16 44.2733 23.04 44.26C22.9333 44.2333 22.8333 44.1733 22.74 44.08ZM36.34 44.02C35.22 42.94 33.8 41.8467 32.08 40.74C31.9067 40.6333 31.8133 40.5067 31.8 40.36C31.7867 40.2133 31.86 40.0733 32.02 39.94L32.32 39.66C32.5067 39.5133 32.7067 39.4933 32.92 39.6C33.8667 40.1733 34.7133 40.74 35.46 41.3C36.22 41.8467 36.8867 42.3867 37.46 42.92C37.7267 43.16 37.7267 43.4 37.46 43.64L37.04 44.04C36.9333 44.1467 36.8133 44.2 36.68 44.2C36.56 44.1867 36.4467 44.1267 36.34 44.02ZM37.64 40.9H37C36.6667 40.9 36.5 40.7333 36.5 40.4V39.2C36.5 38.8667 36.3333 38.7 36 38.7H23.9C23.5667 38.7 23.4 38.8667 23.4 39.2V40.4C23.4 40.7333 23.2333 40.9 22.9 40.9H22.3C21.9667 40.9 21.8 40.7333 21.8 40.4V37.68C21.8 37.3467 21.9667 37.18 22.3 37.18H28.58C28.8067 37.18 28.96 37.12 29.04 37C29.12 36.8667 29.1067 36.7 29 36.5C28.9733 36.46 28.9467 36.42 28.92 36.38C28.9067 36.3267 28.8867 36.2733 28.86 36.22C28.7667 36.0467 28.7467 35.8933 28.8 35.76C28.8667 35.6267 29 35.5333 29.2 35.48L29.86 35.32C30.1133 35.2667 30.2933 35.3467 30.4 35.56C30.6667 35.9733 30.8933 36.4133 31.08 36.88C31.1733 37.08 31.3333 37.18 31.56 37.18H37.64C37.9733 37.18 38.14 37.3467 38.14 37.68V40.4C38.14 40.7333 37.9733 40.9 37.64 40.9Z" fill="white"/>
</g>
<defs>
<clipPath id="clip0_1125_32956">
<rect width="40" height="28" fill="white" transform="translate(0 30)"/>
</clipPath>
</defs>
</svg>
