<svg width="32" height="40" viewBox="0 0 32 40" fill="none" xmlns="http://www.w3.org/2000/svg">
    <g clip-path="url(#clip0_507_11850)">
        <path
            d="M21.0604 20H21.0614V30.0307H21.0604C21.0356 32.7794 18.8003 35 16.046 35C13.2917 35 11.0564 32.7794 11.0316 30.0307H11.0307V29.9847C11.0307 27.2129 8.78712 24.9693 6.01534 24.9693C3.2454 24.9693 1 22.7239 1 19.954C1 19.9383 1.00092 19.9236 1.00092 19.908H1V9.8773H1.00368C1.07638 7.17178 3.29141 5 6.01534 5C8.73926 5 10.9543 7.17178 11.027 9.8773H11.0307V9.92331C11.0307 12.6951 13.2742 14.9387 16.046 14.9387C18.816 14.9387 21.0614 17.184 21.0614 19.954C21.0614 19.9696 21.0604 19.9844 21.0604 20Z"
            stroke="#838383" stroke-miterlimit="10" />
    </g>
    <defs>
        <clipPath id="clip0_507_11850">
            <rect width="32" height="40" fill="white" />
        </clipPath>
    </defs>
</svg>