<svg width="32" height="40" viewBox="0 0 32 40" fill="none" xmlns="http://www.w3.org/2000/svg">
<g clip-path="url(#clip0_507_11850)">
<path d="M5.22256 35.5254C8.08068 35.5254 10.3976 33.2085 10.3976 30.3504C10.3976 27.4923 8.08068 25.1753 5.22256 25.1753C2.36444 25.1753 0.0474854 27.4923 0.0474854 30.3504C0.0474854 33.2085 2.36444 35.5254 5.22256 35.5254Z" fill="#CC8DBB"/>
<path d="M5.22256 14.9195C8.08068 14.9195 10.3976 12.6025 10.3976 9.74441C10.3976 6.8863 8.08068 4.56934 5.22256 4.56934C2.36444 4.56934 0.0474854 6.8863 0.0474854 9.74441C0.0474854 12.6025 2.36444 14.9195 5.22256 14.9195Z" fill="#B34C98"/>
<path d="M5.22256 25.1749C8.08068 25.1749 10.3976 22.8579 10.3976 19.9998C10.3976 17.1417 8.08068 14.8247 5.22256 14.8247C2.36444 14.8247 0.0474854 17.1417 0.0474854 19.9998C0.0474854 22.8579 2.36444 25.1749 5.22256 25.1749Z" fill="#B34C98"/>
<path d="M15.5727 25.1749C18.4308 25.1749 20.7477 22.8579 20.7477 19.9998C20.7477 17.1417 18.4308 14.8247 15.5727 14.8247C12.7145 14.8247 10.3976 17.1417 10.3976 19.9998C10.3976 22.8579 12.7145 25.1749 15.5727 25.1749Z" fill="#B34C98"/>
<path d="M15.5728 35.525C18.4309 35.525 20.7479 33.208 20.7479 30.3499C20.7479 27.4918 18.4309 25.1748 15.5728 25.1748C12.7147 25.1748 10.3977 27.4918 10.3977 30.3499C10.3977 33.208 12.7147 35.525 15.5728 35.525Z" fill="#B34C98"/>
<path d="M10.3975 19.9993C10.3975 17.1392 12.7125 14.8242 15.5725 14.8242H10.3975V19.9993Z" fill="#B34C98"/>
<path d="M5.22241 14.8242C8.08247 14.8242 10.3975 17.1392 10.3975 19.9993V14.8242H5.22241Z" fill="#B34C98"/>
<path d="M10.3975 9.64893C10.3975 12.509 8.08247 14.824 5.22241 14.824H10.3975V9.64893Z" fill="#B34C98"/>
<path d="M15.5725 14.824C12.7125 14.824 10.3975 12.509 10.3975 9.64893V14.824H15.5725Z" fill="#B34C98"/>
<path d="M10.3976 30.3499C10.3976 27.4898 12.7126 25.1748 15.5727 25.1748H10.3976V30.3499Z" fill="#B34C98"/>
<path d="M5.22253 25.1748C8.08259 25.1748 10.3976 27.4898 10.3976 30.3499V25.1748H5.22253Z" fill="#B34C98"/>
<path d="M10.3976 19.9995C10.3976 22.8596 8.08259 25.1746 5.22253 25.1746H10.3976V19.9995Z" fill="#B34C98"/>
<path d="M15.5727 25.1746C12.7126 25.1746 10.3976 22.8596 10.3976 19.9995V25.1746H15.5727Z" fill="#B34C98"/>
<path d="M10.3976 9.60205H0.0474854V19.9522H10.3976V9.60205Z" fill="#B34C98"/>
<path d="M20.7479 20.0469H10.3977V30.397H20.7479V20.0469Z" fill="#B34C98"/>
<path d="M30.2878 10.982V30.4713L30.2784 30.6189C30.1398 32.7996 28.3283 34.5251 26.1127 34.5251C23.8972 34.5251 22.0857 32.7996 21.9471 30.6189L21.9377 30.4713V19.9998C21.9377 16.591 19.1806 13.8304 15.7731 13.8248L15.7351 13.824L15.7351 13.8239L15.7242 13.8238C13.4359 13.8032 11.5875 11.9422 11.5875 9.64968C11.5875 7.35834 13.4338 5.4976 15.7198 5.47461L26.0652 5.47556H26.0653C26.079 5.47556 26.0909 5.47536 26.0998 5.47516L26.1193 5.47462C26.1194 5.47462 26.1195 5.47462 26.1197 5.47461C28.4224 5.47834 30.2878 7.34611 30.2878 9.64968C30.2878 9.73408 30.2842 9.82239 30.2782 9.92179L30.2143 10.982H30.2878Z" stroke="#CC8DBB" stroke-width="2" stroke-miterlimit="10"/>
</g>
<defs>
<clipPath id="clip0_507_11850">
<rect width="31.8101" height="32" fill="white" transform="translate(0 4)"/>
</clipPath>
</defs>
</svg>
