<svg width="40" height="60" viewBox="0 0 40 60" fill="none" xmlns="http://www.w3.org/2000/svg">
<path d="M36 5.33333C36 8.2789 33.6122 10.6667 30.6667 10.6667C27.7191 10.6667 25.3333 13.0525 25.3333 16C25.3333 18.9456 22.9456 21.3333 20 21.3333C17.0525 21.3333 14.6667 23.7191 14.6667 26.6667C14.6667 29.6122 12.2789 32 9.33333 32C6.38777 32 4 29.6122 4 26.6667C4 23.7211 6.38777 21.3333 9.33333 21.3333C12.2809 21.3333 14.6667 18.9475 14.6667 16C14.6667 13.0525 12.2809 10.6667 9.33333 10.6667H9.2844V10.6657C6.36135 10.6393 4 8.26226 4 5.33333C4 2.4044 6.36135 0.0274016 9.2844 0.000979549V0H30.6177V0.000979549C30.6344 0.000979549 30.65 0 30.6667 0C33.6122 0 36 2.38777 36 5.33333Z" fill="white"/>
<path d="M18.42 49.12H1.68C1.34667 49.12 1.18 48.9533 1.18 48.62V48.02C1.18 47.6867 1.34667 47.52 1.68 47.52H5.18C5.51333 47.52 5.68 47.3533 5.68 47.02V43.6C5.68 43.2667 5.51333 43.1 5.18 43.1H2.46C2.12667 43.1 1.96 42.9333 1.96 42.6V42C1.96 41.6667 2.12667 41.5 2.46 41.5H5.18C5.51333 41.5 5.68 41.3333 5.68 41V38.06C5.68 37.7267 5.84667 37.56 6.18 37.56H6.82C7.15333 37.56 7.32 37.7267 7.32 38.06V41C7.32 41.3333 7.48667 41.5 7.82 41.5H12.18C12.5133 41.5 12.68 41.3333 12.68 41V38.06C12.68 37.7267 12.8467 37.56 13.18 37.56H13.84C14.1733 37.56 14.34 37.7267 14.34 38.06V41C14.34 41.3333 14.5067 41.5 14.84 41.5H17.72C18.0533 41.5 18.22 41.6667 18.22 42V42.6C18.22 42.9333 18.0533 43.1 17.72 43.1H14.84C14.5067 43.1 14.34 43.2667 14.34 43.6V47.02C14.34 47.3533 14.5067 47.52 14.84 47.52H18.42C18.7533 47.52 18.92 47.6867 18.92 48.02V48.62C18.92 48.9533 18.7533 49.12 18.42 49.12ZM12.68 47.02V43.6C12.68 43.2667 12.5133 43.1 12.18 43.1H7.82C7.48667 43.1 7.32 43.2667 7.32 43.6V47.02C7.32 47.3533 7.48667 47.52 7.82 47.52H12.18C12.5133 47.52 12.68 47.3533 12.68 47.02ZM16.72 55.16C16.12 54.6 15.44 54 14.68 53.36C13.9333 52.72 13.08 52.04 12.12 51.32C11.9333 51.1733 11.8467 51.0267 11.86 50.88C11.8733 50.72 11.9733 50.5867 12.16 50.48L12.66 50.18C12.8333 50.0733 13.0133 50.08 13.2 50.2C14.1733 50.8933 15.06 51.5533 15.86 52.18C16.6733 52.8067 17.4067 53.4133 18.06 54C18.2067 54.1333 18.2733 54.2667 18.26 54.4C18.2467 54.5467 18.16 54.6733 18 54.78L17.34 55.22C17.2333 55.2867 17.12 55.3133 17 55.3C16.8933 55.2867 16.8 55.24 16.72 55.16ZM2.36 55.16C2.29333 55.0933 2.22667 55.0267 2.16 54.96C2.09333 54.9067 2.02 54.8467 1.94 54.78C1.58 54.4467 1.60667 54.1533 2.02 53.9C3.91333 52.8333 5.38 51.64 6.42 50.32C6.56667 50.12 6.76667 50.0667 7.02 50.16L7.7 50.44C7.9 50.52 8.02 50.6333 8.06 50.78C8.1 50.9267 8.04667 51.0733 7.9 51.22C6.47333 52.7667 4.84 54.1067 3 55.24C2.77333 55.3867 2.56 55.36 2.36 55.16ZM21.78 45.6C21.7133 45.52 21.6467 45.44 21.58 45.36C21.5267 45.28 21.4667 45.2067 21.4 45.14C21.2267 44.9533 21.1467 44.78 21.16 44.62C21.1867 44.46 21.3133 44.3267 21.54 44.22C22.34 43.8333 23.1 43.4067 23.82 42.94C24.5533 42.4733 25.26 41.9667 25.94 41.42C26.6733 40.8467 27.34 40.2467 27.94 39.62C28.54 38.98 29.0933 38.3133 29.6 37.62C29.6667 37.5133 29.76 37.4467 29.88 37.42C30 37.38 30.1133 37.3867 30.22 37.44L31.08 37.84C31.2933 37.9467 31.3333 38.0933 31.2 38.28C31.0667 38.48 31.08 38.6667 31.24 38.84C32.1467 39.8533 33.2933 40.8467 34.68 41.82C35.3067 42.2733 35.9267 42.6867 36.54 43.06C37.1533 43.4333 37.78 43.7733 38.42 44.08C38.86 44.3067 38.9133 44.6067 38.58 44.98C38.5 45.06 38.42 45.1467 38.34 45.24C38.2733 45.32 38.2067 45.4067 38.14 45.5C37.9667 45.74 37.7533 45.7933 37.5 45.66C36.2067 44.9533 34.9733 44.1533 33.8 43.26C32.6267 42.3533 31.5 41.3333 30.42 40.2C30.18 39.9467 29.9267 39.9533 29.66 40.22C27.62 42.4733 25.2133 44.3267 22.44 45.78C22.32 45.8467 22.2 45.86 22.08 45.82C21.96 45.78 21.86 45.7067 21.78 45.6ZM31.18 46.4C30.46 45.6533 29.46 44.7933 28.18 43.82C28.0333 43.7133 27.9533 43.5933 27.94 43.46C27.94 43.3133 28.0133 43.18 28.16 43.06L28.52 42.72C28.6133 42.64 28.7133 42.6 28.82 42.6C28.94 42.6 29.0467 42.6333 29.14 42.7C30.5267 43.7 31.5933 44.5667 32.34 45.3C32.4467 45.4067 32.5 45.52 32.5 45.64C32.5 45.76 32.4467 45.8733 32.34 45.98L31.92 46.42C31.6667 46.6467 31.42 46.64 31.18 46.4ZM30.38 55.32L29.66 55C29.4733 54.92 29.3667 54.8067 29.34 54.66C29.3133 54.5133 29.3667 54.3667 29.5 54.22C30.22 53.3667 30.9067 52.54 31.56 51.74C32.2267 50.9267 32.8667 50.14 33.48 49.38C33.6667 49.14 33.72 48.9467 33.64 48.8C33.5733 48.6533 33.3867 48.58 33.08 48.58H23.82C23.4867 48.58 23.32 48.4133 23.32 48.08V47.44C23.32 47.1067 23.4867 46.94 23.82 46.94H35.44C35.4667 46.94 35.4933 46.94 35.52 46.94C35.5467 46.9267 35.5733 46.92 35.6 46.92L35.66 46.88C35.7667 46.8533 35.86 46.86 35.94 46.9L36.52 47.2C36.68 47.28 36.7733 47.3867 36.8 47.52C36.84 47.6533 36.8067 47.7933 36.7 47.94C35.8733 49.0467 34.9867 50.2 34.04 51.4C33.0933 52.5867 32.0667 53.8467 30.96 55.18C30.8 55.38 30.6067 55.4267 30.38 55.32Z" fill="white"/>
</svg>
