<svg width="32" height="40" viewBox="0 0 32 40" fill="none" xmlns="http://www.w3.org/2000/svg">
<g clip-path="url(#clip0_507_11850)">
<g clip-path="url(#clip1_507_11850)">
<path d="M26.7458 14.6012C29.647 14.6012 31.9988 12.2494 31.9988 9.34823C31.9988 6.44707 29.647 4.09521 26.7458 4.09521C23.8447 4.09521 21.4928 6.44707 21.4928 9.34823C21.4928 12.2494 23.8447 14.6012 26.7458 14.6012Z" fill="#E2730E"/>
<path d="M5.73373 14.6012C8.63488 14.6012 10.9867 12.2494 10.9867 9.34823C10.9867 6.44707 8.63488 4.09521 5.73373 4.09521C2.83257 4.09521 0.480713 6.44707 0.480713 9.34823C0.480713 12.2494 2.83257 14.6012 5.73373 14.6012Z" fill="#E2730E"/>
<path d="M16.2397 14.6012C19.1409 14.6012 21.4927 12.2494 21.4927 9.34823C21.4927 6.44707 19.1409 4.09521 16.2397 4.09521C13.3385 4.09521 10.9867 6.44707 10.9867 9.34823C10.9867 12.2494 13.3385 14.6012 16.2397 14.6012Z" fill="#E2730E"/>
<path d="M16.2397 25.1071C19.1409 25.1071 21.4927 22.7552 21.4927 19.8541C21.4927 16.9529 19.1409 14.6011 16.2397 14.6011C13.3385 14.6011 10.9867 16.9529 10.9867 19.8541C10.9867 22.7552 13.3385 25.1071 16.2397 25.1071Z" fill="#E2730E"/>
<path d="M5.73373 35.613C8.63488 35.613 10.9867 33.2611 10.9867 30.3599C10.9867 27.4588 8.63488 25.1069 5.73373 25.1069C2.83257 25.1069 0.480713 27.4588 0.480713 30.3599C0.480713 33.2611 2.83257 35.613 5.73373 35.613Z" fill="#E2730E"/>
<path d="M16.2397 14.6011C19.1429 14.6011 21.4928 16.951 21.4928 19.8541V14.6011H16.2397Z" fill="#E2730E"/>
<path d="M21.4928 9.34814C21.4928 12.2513 19.1429 14.6012 16.2397 14.6012H21.4928V9.34814Z" fill="#E2730E"/>
<path d="M26.7458 14.6012C23.8427 14.6012 21.4928 12.2513 21.4928 9.34814V14.6012H26.7458Z" fill="#E2730E"/>
<path d="M21.4928 19.8541C21.4928 16.951 23.8427 14.6011 26.7458 14.6011H21.4928V19.8541Z" fill="#E2730E"/>
<path d="M5.73376 25.1069C8.6369 25.1069 10.9868 27.4568 10.9868 30.3599V25.1069H5.73376Z" fill="#E2730E"/>
<path d="M10.9868 19.854C10.9868 22.7571 8.6369 25.107 5.73376 25.107H10.9868V19.854Z" fill="#E2730E"/>
<path d="M16.2398 25.107C13.3367 25.107 10.9868 22.7571 10.9868 19.854V25.107H16.2398Z" fill="#E2730E"/>
<path d="M10.9868 30.3599C10.9868 27.4568 13.3367 25.1069 16.2398 25.1069H10.9868V30.3599Z" fill="#E2730E"/>
<path d="M5.73376 14.6011C8.6369 14.6011 10.9868 16.951 10.9868 19.8541V14.6011H5.73376Z" fill="#E2730E"/>
<path d="M10.9868 9.34814C10.9868 12.2513 8.6369 14.6012 5.73376 14.6012H10.9868V9.34814Z" fill="#E2730E"/>
<path d="M16.2398 14.6012C13.3367 14.6012 10.9868 12.2513 10.9868 9.34814V14.6012H16.2398Z" fill="#E2730E"/>
<path d="M10.9868 19.8541C10.9868 16.951 13.3367 14.6011 16.2398 14.6011H10.9868V19.8541Z" fill="#E2730E"/>
<path d="M5.6853 4.09456L5.6853 14.6006L26.6974 14.6006V4.09456L5.6853 4.09456Z" fill="#E2730E"/>
<path d="M30.9517 29.2609V29.3561L30.9697 29.4497C31.0209 29.7157 31.0481 29.9879 31.0481 30.2652C31.0481 32.6118 29.1477 34.5145 26.8019 34.5182C26.8017 34.5182 26.8015 34.5182 26.8013 34.5182L26.7816 34.5176C26.7726 34.5174 26.7607 34.5172 26.7469 34.5172H25.7469V34.5182H17.2409V34.5172H16.2409C16.2271 34.5172 16.2152 34.5174 16.2062 34.5176L16.1865 34.5182C16.1863 34.5182 16.1861 34.5182 16.1859 34.5182C13.8401 34.5145 11.9397 32.6118 11.9397 30.2652C11.9397 27.9185 13.8401 26.0158 16.1859 26.0122C16.1861 26.0122 16.1863 26.0122 16.1865 26.0122L16.2062 26.0127C16.2152 26.0129 16.2271 26.0131 16.2409 26.0131H17.2409V26.0122H17.2897L17.3835 25.9941C19.9629 25.4967 21.9757 23.4203 22.3739 20.8074H22.4377L22.4466 19.8164C22.4677 17.4854 24.3634 15.6025 26.6987 15.6025C29.0341 15.6025 30.9298 17.4854 30.9508 19.8164L30.9517 19.9185V29.2609Z" stroke="#E4AE7E" stroke-width="2" stroke-miterlimit="10"/>
<path d="M9.98784 19.8072C9.98784 22.1561 8.0837 24.0602 5.73482 24.0602C3.38595 24.0602 1.48181 22.1561 1.48181 19.8072C1.48181 17.4583 3.38595 15.5542 5.73482 15.5542C8.0837 15.5542 9.98784 17.4583 9.98784 19.8072Z" stroke="#E4AE7E" stroke-width="2" stroke-miterlimit="10"/>
</g>
</g>
<defs>
<clipPath id="clip0_507_11850">
<rect width="32" height="40" fill="white"/>
</clipPath>
<clipPath id="clip1_507_11850">
<rect width="32.5783" height="32" fill="white" transform="translate(0 4)"/>
</clipPath>
</defs>
</svg>
