<svg width="40" height="61" viewBox="0 0 40 61" fill="none" xmlns="http://www.w3.org/2000/svg">
<path d="M27.3333 24.1667C27.3333 26.8361 25.1694 29 22.5 29C19.8306 29 17.6667 26.8361 17.6667 24.1667C17.6667 21.4955 15.5045 19.3333 12.8333 19.3333C10.1639 19.3333 8 17.1694 8 14.5C8 11.8306 10.1639 9.66667 12.8333 9.66667C15.5045 9.66667 17.6667 7.50453 17.6667 4.83333C17.6667 2.16391 19.8306 0 22.5 0C25.1694 0 27.3333 2.16391 27.3333 4.83333C27.3333 7.50275 25.1694 9.66667 22.5 9.66667C19.8288 9.66667 17.6667 11.8288 17.6667 14.5C17.6667 17.1712 19.8288 19.3333 22.5 19.3333C25.1694 19.3333 27.3333 21.4972 27.3333 24.1667Z" fill="white"/>
<path d="M18.42 50.12H1.68C1.34667 50.12 1.18 49.9533 1.18 49.62V49.02C1.18 48.6867 1.34667 48.52 1.68 48.52H5.18C5.51333 48.52 5.68 48.3533 5.68 48.02V44.6C5.68 44.2667 5.51333 44.1 5.18 44.1H2.46C2.12667 44.1 1.96 43.9333 1.96 43.6V43C1.96 42.6667 2.12667 42.5 2.46 42.5H5.18C5.51333 42.5 5.68 42.3333 5.68 42V39.06C5.68 38.7267 5.84667 38.56 6.18 38.56H6.82C7.15333 38.56 7.32 38.7267 7.32 39.06V42C7.32 42.3333 7.48667 42.5 7.82 42.5H12.18C12.5133 42.5 12.68 42.3333 12.68 42V39.06C12.68 38.7267 12.8467 38.56 13.18 38.56H13.84C14.1733 38.56 14.34 38.7267 14.34 39.06V42C14.34 42.3333 14.5067 42.5 14.84 42.5H17.72C18.0533 42.5 18.22 42.6667 18.22 43V43.6C18.22 43.9333 18.0533 44.1 17.72 44.1H14.84C14.5067 44.1 14.34 44.2667 14.34 44.6V48.02C14.34 48.3533 14.5067 48.52 14.84 48.52H18.42C18.7533 48.52 18.92 48.6867 18.92 49.02V49.62C18.92 49.9533 18.7533 50.12 18.42 50.12ZM12.68 48.02V44.6C12.68 44.2667 12.5133 44.1 12.18 44.1H7.82C7.48667 44.1 7.32 44.2667 7.32 44.6V48.02C7.32 48.3533 7.48667 48.52 7.82 48.52H12.18C12.5133 48.52 12.68 48.3533 12.68 48.02ZM16.72 56.16C16.12 55.6 15.44 55 14.68 54.36C13.9333 53.72 13.08 53.04 12.12 52.32C11.9333 52.1733 11.8467 52.0267 11.86 51.88C11.8733 51.72 11.9733 51.5867 12.16 51.48L12.66 51.18C12.8333 51.0733 13.0133 51.08 13.2 51.2C14.1733 51.8933 15.06 52.5533 15.86 53.18C16.6733 53.8067 17.4067 54.4133 18.06 55C18.2067 55.1333 18.2733 55.2667 18.26 55.4C18.2467 55.5467 18.16 55.6733 18 55.78L17.34 56.22C17.2333 56.2867 17.12 56.3133 17 56.3C16.8933 56.2867 16.8 56.24 16.72 56.16ZM2.36 56.16C2.29333 56.0933 2.22667 56.0267 2.16 55.96C2.09333 55.9067 2.02 55.8467 1.94 55.78C1.58 55.4467 1.60667 55.1533 2.02 54.9C3.91333 53.8333 5.38 52.64 6.42 51.32C6.56667 51.12 6.76667 51.0667 7.02 51.16L7.7 51.44C7.9 51.52 8.02 51.6333 8.06 51.78C8.1 51.9267 8.04667 52.0733 7.9 52.22C6.47333 53.7667 4.84 55.1067 3 56.24C2.77333 56.3867 2.56 56.36 2.36 56.16ZM28.22 56.08C28.1667 56.0133 28.1133 55.9533 28.06 55.9C28.02 55.86 27.9733 55.8133 27.92 55.76C27.5867 55.4267 27.6 55.1133 27.96 54.82C29.4933 53.6733 30.5667 52.2733 31.18 50.62C31.8067 48.9 32.1933 46.9933 32.34 44.9C32.3533 44.74 32.3133 44.6133 32.22 44.52C32.1267 44.4267 32 44.38 31.84 44.38H29.74C29.4067 44.38 29.24 44.2133 29.24 43.88V43.3C29.24 42.9667 29.4067 42.8 29.74 42.8H31.92C32.0667 42.8 32.18 42.76 32.26 42.68C32.3533 42.5867 32.4067 42.4667 32.42 42.32C32.4333 41.7733 32.44 41.22 32.44 40.66C32.4533 40.1 32.46 39.52 32.46 38.92C32.46 38.5867 32.6267 38.42 32.96 38.42H33.56C33.8933 38.42 34.06 38.5867 34.06 38.92C34.06 39.52 34.0533 40.1 34.04 40.66C34.04 41.2067 34.0333 41.7467 34.02 42.28C34.0067 42.44 34.0467 42.5667 34.14 42.66C34.2333 42.7533 34.36 42.8 34.52 42.8H38.22C38.2733 42.8 38.3267 42.8267 38.38 42.88C38.4067 42.96 38.42 43.0267 38.42 43.08L38.4 43.62C38.3467 45.6467 38.2933 47.38 38.24 48.82C38.1867 50.2467 38.1267 51.4 38.06 52.28C37.9267 54.0133 37.6933 55.0733 37.36 55.46L37.32 55.5C36.9733 55.9667 36.4867 56.22 35.86 56.26L34.86 56.28C34.6733 56.28 34.4667 56.28 34.24 56.28C34.0267 56.28 33.8 56.2733 33.56 56.26C33.28 56.2333 33.1067 56.0733 33.04 55.78C33.0267 55.7133 33.0133 55.6467 33 55.58C32.9867 55.5133 32.9667 55.4467 32.94 55.38C32.7667 54.8867 32.9267 54.66 33.42 54.7C33.7533 54.7133 34.0867 54.7267 34.42 54.74C34.7533 54.74 35.0933 54.74 35.44 54.74C35.64 54.74 35.7933 54.6667 35.9 54.52L35.98 54.44C36.3667 53.8933 36.6333 50.7133 36.78 44.9C36.7933 44.74 36.7533 44.6133 36.66 44.52C36.5667 44.4267 36.44 44.38 36.28 44.38H34.42C34.2733 44.38 34.1533 44.4267 34.06 44.52C33.98 44.6 33.9333 44.7133 33.92 44.86C33.8 47.18 33.38 49.32 32.66 51.28C31.9533 53.2267 30.7133 54.86 28.94 56.18C28.6867 56.3533 28.4467 56.32 28.22 56.08ZM21.06 54L20.94 53.34C20.9133 53.1933 20.9333 53.0667 21 52.96C21.08 52.8533 21.1933 52.7867 21.34 52.76L21.86 52.66C21.98 52.6333 22.0733 52.58 22.14 52.5C22.22 52.4067 22.26 52.3 22.26 52.18V39.84C22.26 39.5067 22.4267 39.34 22.76 39.34H28.3C28.6333 39.34 28.8 39.5067 28.8 39.84V50.64C28.8 50.8133 28.8467 50.94 28.94 51.02C29.0467 51.1 29.18 51.12 29.34 51.08C29.5 51.04 29.6333 51.06 29.74 51.14C29.8467 51.22 29.9067 51.3467 29.92 51.52L29.96 52.06C29.96 52.34 29.8267 52.5133 29.56 52.58C28.1067 52.9267 26.72 53.2533 25.4 53.56C24.0933 53.8533 22.8467 54.1333 21.66 54.4C21.5133 54.44 21.38 54.4267 21.26 54.36C21.1533 54.28 21.0867 54.16 21.06 54ZM27.24 47.14V45.52C27.24 45.1867 27.0733 45.02 26.74 45.02H24.3C23.9667 45.02 23.8 45.1867 23.8 45.52V47.14C23.8 47.4733 23.9667 47.64 24.3 47.64H26.74C27.0733 47.64 27.24 47.4733 27.24 47.14ZM27.24 43.02V41.36C27.24 41.0267 27.0733 40.86 26.74 40.86H24.3C23.9667 40.86 23.8 41.0267 23.8 41.36V43.02C23.8 43.3533 23.9667 43.52 24.3 43.52H26.74C27.0733 43.52 27.24 43.3533 27.24 43.02ZM24.4 52.14L26.84 51.62C26.96 51.5933 27.0533 51.54 27.12 51.46C27.2 51.3667 27.24 51.26 27.24 51.14V49.64C27.24 49.3067 27.0733 49.14 26.74 49.14H24.3C23.9667 49.14 23.8 49.3067 23.8 49.64V51.66C23.8 51.8467 23.8533 51.9867 23.96 52.08C24.0667 52.16 24.2133 52.18 24.4 52.14Z" fill="white"/>
</svg>
