<svg width="32" height="40" viewBox="0 0 32 40" fill="none" xmlns="http://www.w3.org/2000/svg">
    <g clip-path="url(#clip0_507_11850)">
        <g clip-path="url(#clip1_507_11850)">
            <path
                d="M11.0307 10.0153C11.0307 12.7871 13.2742 15.0307 16.046 15.0307H26.1227V15.0316C28.8558 15.0564 31.0663 17.2669 31.0911 20H31.092V29.9387H31.0911C31.0911 29.9543 31.092 29.969 31.092 29.9847C31.092 32.7546 28.8466 35 26.0767 35C23.3224 35 21.0871 32.7794 21.0623 30.0307C21.0623 30.0463 21.0614 30.061 21.0614 30.0767C21.0614 27.3049 18.8178 25.0614 16.046 25.0614C13.2742 25.0614 11.0307 27.3049 11.0307 30.0767C11.0307 30.061 11.0298 30.0463 11.0298 30.0307C11.0049 32.7794 8.76963 35 6.01534 35C3.26104 35 1.02577 32.7794 1.00092 30.0307H1V10.0613H1.00092C1.00092 10.0457 1 10.031 1 10.0153C1 7.2454 3.2454 5 6.01534 5C8.78528 5 11.0307 7.2454 11.0307 10.0153ZM11.0307 10.0153C11.0307 10.031 11.0298 10.0457 11.0298 10.0613"
                stroke="#838383" stroke-miterlimit="10" />
        </g>
    </g>
    <defs>
        <clipPath id="clip0_507_11850">
            <rect width="32" height="40" fill="white" />
        </clipPath>
        <clipPath id="clip1_507_11850">
            <rect width="32" height="32" fill="white" transform="translate(0 4)" />
        </clipPath>
    </defs>
</svg>