<svg width="32" height="40" viewBox="0 0 32 40" fill="none" xmlns="http://www.w3.org/2000/svg">
<g clip-path="url(#clip0_507_11850)">
<path d="M10.4286 9.71387H0.0476074V30.3805H10.4286V9.71387Z" fill="#F1D7E5"/>
<path d="M5.23821 14.8565C8.10483 14.8565 10.4287 12.5327 10.4287 9.66606C10.4287 6.79944 8.10483 4.47559 5.23821 4.47559C2.37158 4.47559 0.0477295 6.79944 0.0477295 9.66606C0.0477295 12.5327 2.37158 14.8565 5.23821 14.8565Z" fill="#F1D7E5"/>
<path d="M5.23821 25.2374C8.10483 25.2374 10.4287 22.9135 10.4287 20.0469C10.4287 17.1803 8.10483 14.8564 5.23821 14.8564C2.37158 14.8564 0.0477295 17.1803 0.0477295 20.0469C0.0477295 22.9135 2.37158 25.2374 5.23821 25.2374Z" fill="#F1D7E5"/>
<path d="M26.0002 25.2374C28.8668 25.2374 31.1906 22.9135 31.1906 20.0469C31.1906 17.1803 28.8668 14.8564 26.0002 14.8564C23.1335 14.8564 20.8097 17.1803 20.8097 20.0469C20.8097 22.9135 23.1335 25.2374 26.0002 25.2374Z" fill="#F1D7E5"/>
<path d="M5.23821 35.523C8.10483 35.523 10.4287 33.1992 10.4287 30.3326C10.4287 27.4659 8.10483 25.1421 5.23821 25.1421C2.37158 25.1421 0.0477295 27.4659 0.0477295 30.3326C0.0477295 33.1992 2.37158 35.523 5.23821 35.523Z" fill="#F1D7E5"/>
<path d="M26.0002 35.523C28.8668 35.523 31.1906 33.1992 31.1906 30.3326C31.1906 27.4659 28.8668 25.1421 26.0002 25.1421C23.1335 25.1421 20.8097 27.4659 20.8097 30.3326C20.8097 33.1992 23.1335 35.523 26.0002 35.523Z" fill="#F1D7E5"/>
<path d="M10.4287 20.0474C10.4287 17.1788 12.7506 14.8569 15.6192 14.8569H10.4287V20.0474Z" fill="#F1D7E5"/>
<path d="M5.23828 14.8569C8.10685 14.8569 10.4288 17.1788 10.4288 20.0474V14.8569H5.23828Z" fill="#F1D7E5"/>
<path d="M10.4288 9.6665C10.4288 12.5351 8.10685 14.857 5.23828 14.857H10.4288V9.6665Z" fill="#F1D7E5"/>
<path d="M15.6192 14.857C12.7506 14.857 10.4287 12.5351 10.4287 9.6665V14.857H15.6192Z" fill="#F1D7E5"/>
<path d="M10.4287 30.4288C10.4287 27.5602 12.7506 25.2383 15.6192 25.2383H10.4287V30.4288Z" fill="#F1D7E5"/>
<path d="M5.23828 25.2383C8.10685 25.2383 10.4288 27.5602 10.4288 30.4288V25.2383H5.23828Z" fill="#F1D7E5"/>
<path d="M10.4288 20.0479C10.4288 22.9164 8.10685 25.2383 5.23828 25.2383H10.4288V20.0479Z" fill="#F1D7E5"/>
<path d="M15.6192 25.2383C12.7506 25.2383 10.4287 22.9164 10.4287 20.0479V25.2383H15.6192Z" fill="#F1D7E5"/>
<path d="M20.8098 30.4288C20.8098 27.5602 23.1317 25.2383 26.0003 25.2383H20.8098V30.4288Z" fill="#F1D7E5"/>
<path d="M15.6194 25.2383C18.488 25.2383 20.8099 27.5602 20.8099 30.4288V25.2383H15.6194Z" fill="#F1D7E5"/>
<path d="M20.8099 20.0479C20.8099 22.9164 18.488 25.2383 15.6194 25.2383H20.8099V20.0479Z" fill="#F1D7E5"/>
<path d="M26.0003 25.2383C23.1317 25.2383 20.8098 22.9164 20.8098 20.0479V25.2383H26.0003Z" fill="#F1D7E5"/>
<path d="M26.0477 25.2374L26.0477 14.8564L5.19058 14.8564L5.19058 25.2374L26.0477 25.2374Z" fill="#F1D7E5"/>
<path d="M31.1906 19.9995H20.8097V30.2852H31.1906V19.9995Z" fill="#F1D7E5"/>
<path d="M19.7142 30.3331C19.7142 32.6474 17.8381 34.5235 15.5237 34.5235C13.2094 34.5235 11.3333 32.6474 11.3333 30.3331C11.3333 28.0187 13.2094 26.1426 15.5237 26.1426C17.8381 26.1426 19.7142 28.0187 19.7142 30.3331Z" stroke="#DAA7BB" stroke-width="2" stroke-miterlimit="10"/>
<path d="M16.5713 5.47703V5.47607H25.8423L25.9433 5.47699C28.24 5.49775 30.0952 7.36554 30.0952 9.66655C30.0952 11.9676 28.24 13.8354 25.9433 13.8561L25.8423 13.857H16.5713V13.8561H15.5713C15.5576 13.8561 15.5457 13.8563 15.5368 13.8565L15.5172 13.857C15.5171 13.857 15.517 13.857 15.5168 13.857C13.2056 13.8533 11.3333 11.9786 11.3333 9.66655C11.3333 7.35446 13.2056 5.4798 15.5168 5.47608C15.517 5.47608 15.5171 5.47609 15.5172 5.47609L15.5368 5.47662C15.5457 5.47683 15.5576 5.47703 15.5713 5.47703H16.5713ZM15.5132 5.47597C15.5129 5.47596 15.5128 5.47596 15.5132 5.47597L15.5132 5.47597Z" stroke="#DAA7BB" stroke-width="2" stroke-miterlimit="10"/>
</g>
<defs>
<clipPath id="clip0_507_11850">
<rect width="31.6191" height="32" fill="white" transform="translate(0 4)"/>
</clipPath>
</defs>
</svg>
