<svg width="40" height="58" viewBox="0 0 40 58" fill="none" xmlns="http://www.w3.org/2000/svg">
<path d="M9.94141 13C9.94141 10.6067 11.8815 8.66667 14.2747 8.66667C14.4226 8.66667 14.5681 8.67383 14.712 8.68893V8.66667H22.9414C25.3363 8.66667 27.2747 6.7282 27.2747 4.33333C27.2747 1.94006 29.2148 0 31.6081 0C34.0013 0 35.9414 1.94006 35.9414 4.33333C35.9414 6.72661 34.0013 8.66667 31.6081 8.66667C29.2124 8.66667 27.2747 10.6051 27.2747 13C27.2747 14.1974 27.759 15.2804 28.5429 16.0643C29.3269 16.8483 30.4106 17.3333 31.6081 17.3333H31.6478C34.0228 17.3548 35.9414 19.2869 35.9414 21.6667C35.9414 24.0464 34.0228 25.9777 31.6478 25.9992L22.9812 26C22.9676 26 22.9549 26 22.9414 26C20.5481 26 18.6081 24.0599 18.6081 21.6667C18.6081 19.2718 16.6696 17.3333 14.2747 17.3333C11.8815 17.3333 9.94141 15.3933 9.94141 13Z" fill="white"/>
<g clip-path="url(#clip0_586_35896)">
<path d="M18.42 47.12H1.68C1.34667 47.12 1.18 46.9533 1.18 46.62V46.02C1.18 45.6867 1.34667 45.52 1.68 45.52H5.18C5.51333 45.52 5.68 45.3533 5.68 45.02V41.6C5.68 41.2667 5.51333 41.1 5.18 41.1H2.46C2.12667 41.1 1.96 40.9333 1.96 40.6V40C1.96 39.6667 2.12667 39.5 2.46 39.5H5.18C5.51333 39.5 5.68 39.3333 5.68 39V36.06C5.68 35.7267 5.84667 35.56 6.18 35.56H6.82C7.15333 35.56 7.32 35.7267 7.32 36.06V39C7.32 39.3333 7.48667 39.5 7.82 39.5H12.18C12.5133 39.5 12.68 39.3333 12.68 39V36.06C12.68 35.7267 12.8467 35.56 13.18 35.56H13.84C14.1733 35.56 14.34 35.7267 14.34 36.06V39C14.34 39.3333 14.5067 39.5 14.84 39.5H17.72C18.0533 39.5 18.22 39.6667 18.22 40V40.6C18.22 40.9333 18.0533 41.1 17.72 41.1H14.84C14.5067 41.1 14.34 41.2667 14.34 41.6V45.02C14.34 45.3533 14.5067 45.52 14.84 45.52H18.42C18.7533 45.52 18.92 45.6867 18.92 46.02V46.62C18.92 46.9533 18.7533 47.12 18.42 47.12ZM12.68 45.02V41.6C12.68 41.2667 12.5133 41.1 12.18 41.1H7.82C7.48667 41.1 7.32 41.2667 7.32 41.6V45.02C7.32 45.3533 7.48667 45.52 7.82 45.52H12.18C12.5133 45.52 12.68 45.3533 12.68 45.02ZM16.72 53.16C16.12 52.6 15.44 52 14.68 51.36C13.9333 50.72 13.08 50.04 12.12 49.32C11.9333 49.1733 11.8467 49.0267 11.86 48.88C11.8733 48.72 11.9733 48.5867 12.16 48.48L12.66 48.18C12.8333 48.0733 13.0133 48.08 13.2 48.2C14.1733 48.8933 15.06 49.5533 15.86 50.18C16.6733 50.8067 17.4067 51.4133 18.06 52C18.2067 52.1333 18.2733 52.2667 18.26 52.4C18.2467 52.5467 18.16 52.6733 18 52.78L17.34 53.22C17.2333 53.2867 17.12 53.3133 17 53.3C16.8933 53.2867 16.8 53.24 16.72 53.16ZM2.36 53.16C2.29333 53.0933 2.22667 53.0267 2.16 52.96C2.09333 52.9067 2.02 52.8467 1.94 52.78C1.58 52.4467 1.60667 52.1533 2.02 51.9C3.91333 50.8333 5.38 49.64 6.42 48.32C6.56667 48.12 6.76667 48.0667 7.02 48.16L7.7 48.44C7.9 48.52 8.02 48.6333 8.06 48.78C8.1 48.9267 8.04667 49.0733 7.9 49.22C6.47333 50.7667 4.84 52.1067 3 53.24C2.77333 53.3867 2.56 53.36 2.36 53.16ZM38.28 52.78H21.8C21.4667 52.78 21.3 52.6133 21.3 52.28V51.68C21.3 51.3467 21.4667 51.18 21.8 51.18H28.7C29.0333 51.18 29.2 51.0133 29.2 50.68V46.92C29.2 46.5867 29.0333 46.42 28.7 46.42H23.9C23.5667 46.42 23.4 46.2533 23.4 45.92V45.32C23.4 44.9867 23.5667 44.82 23.9 44.82H28.7C29.0333 44.82 29.2 44.6533 29.2 44.32V41.26C29.2 40.9267 29.0333 40.76 28.7 40.76H25.08C24.88 40.76 24.7333 40.8533 24.64 41.04C24.3867 41.5067 24.12 41.9533 23.84 42.38C23.5733 42.7933 23.2867 43.1933 22.98 43.58C22.8867 43.7 22.7733 43.7667 22.64 43.78C22.52 43.7933 22.3933 43.7533 22.26 43.66C22.18 43.5933 22.1 43.54 22.02 43.5C21.94 43.4467 21.8533 43.3867 21.76 43.32C21.6 43.2267 21.5 43.1067 21.46 42.96C21.4333 42.8133 21.48 42.6667 21.6 42.52C22.9733 40.8133 24.0333 38.6933 24.78 36.16C24.8733 35.8533 25.0667 35.7333 25.36 35.8L26.02 35.94C26.3667 36.0067 26.4933 36.2067 26.4 36.54C26.2933 36.8867 26.1867 37.22 26.08 37.54C25.9867 37.8467 25.8867 38.1467 25.78 38.44C25.7 38.6533 25.7 38.8267 25.78 38.96C25.8733 39.08 26.0333 39.14 26.26 39.14H28.7C29.0333 39.14 29.2 38.9733 29.2 38.64V35.9C29.2 35.5667 29.3667 35.4 29.7 35.4H30.38C30.7133 35.4 30.88 35.5667 30.88 35.9V38.64C30.88 38.9733 31.0467 39.14 31.38 39.14H37.36C37.6933 39.14 37.86 39.3067 37.86 39.64V40.26C37.86 40.5933 37.6933 40.76 37.36 40.76H31.38C31.0467 40.76 30.88 40.9267 30.88 41.26V44.32C30.88 44.6533 31.0467 44.82 31.38 44.82H36.64C36.9733 44.82 37.14 44.9867 37.14 45.32V45.92C37.14 46.2533 36.9733 46.42 36.64 46.42H31.38C31.0467 46.42 30.88 46.5867 30.88 46.92V50.68C30.88 51.0133 31.0467 51.18 31.38 51.18H38.28C38.6133 51.18 38.78 51.3467 38.78 51.68V52.28C38.78 52.6133 38.6133 52.78 38.28 52.78Z" fill="white"/>
</g>
<defs>
<clipPath id="clip0_586_35896">
<rect width="40" height="28" fill="white" transform="translate(0 30)"/>
</clipPath>
</defs>
</svg>
