<svg width="32" height="40" viewBox="0 0 32 40" fill="none" xmlns="http://www.w3.org/2000/svg">
    <g clip-path="url(#clip0_507_11850)">
        <g clip-path="url(#clip1_507_11850)">
            <path
                d="M30.9991 10.0459H31V20.0459H30.9991C30.9743 22.7862 28.7459 25 26 25C25.9844 25 25.9697 24.9991 25.9541 24.9991V25H16C13.2367 25 11 27.2367 11 30C11 32.7615 8.76147 35 6 35C3.23853 35 1 32.7615 1 30C1 27.2385 3.23853 25 6 25C8.7633 25 11 22.7633 11 20V10.0459H11.0009C11.0009 10.0303 11 10.0156 11 10C11 7.25413 13.2138 5.02569 15.9541 5.00092V5H25.9541V5.00092C25.9697 5.00092 25.9844 5 26 5C28.7615 5 31 7.23853 31 10C31 10.0156 30.9991 10.0303 30.9991 10.0459Z"
                stroke="#838383" stroke-miterlimit="10" />
        </g>
    </g>
    <defs>
        <clipPath id="clip0_507_11850">
            <rect width="32" height="40" fill="white" />
        </clipPath>
        <clipPath id="clip1_507_11850">
            <rect width="32" height="32" fill="white" transform="translate(0 4)" />
        </clipPath>
    </defs>
</svg>