<svg width="32" height="40" viewBox="0 0 32 40" fill="none" xmlns="http://www.w3.org/2000/svg">
<g clip-path="url(#clip0_507_11850)">
<path d="M16.0476 14.8248C18.9057 14.8248 21.2227 12.5078 21.2227 9.64968C21.2227 6.79157 18.9057 4.47461 16.0476 4.47461C13.1895 4.47461 10.8726 6.79157 10.8726 9.64968C10.8726 12.5078 13.1895 14.8248 16.0476 14.8248Z" fill="#2EA398"/>
<path d="M26.3979 14.8248C29.256 14.8248 31.5729 12.5078 31.5729 9.64968C31.5729 6.79157 29.256 4.47461 26.3979 4.47461C23.5397 4.47461 21.2228 6.79157 21.2228 9.64968C21.2228 12.5078 23.5397 14.8248 26.3979 14.8248Z" fill="#2EA398"/>
<path d="M16.0476 25.1749C18.9057 25.1749 21.2227 22.8579 21.2227 19.9998C21.2227 17.1417 18.9057 14.8247 16.0476 14.8247C13.1895 14.8247 10.8726 17.1417 10.8726 19.9998C10.8726 22.8579 13.1895 25.1749 16.0476 25.1749Z" fill="#2EA398"/>
<path d="M5.69754 35.525C8.55565 35.525 10.8726 33.208 10.8726 30.3499C10.8726 27.4918 8.55565 25.1748 5.69754 25.1748C2.83942 25.1748 0.522461 27.4918 0.522461 30.3499C0.522461 33.208 2.83942 35.525 5.69754 35.525Z" fill="#2EA398"/>
<path d="M26.3979 25.1749C29.256 25.1749 31.5729 22.8579 31.5729 19.9998C31.5729 17.1417 29.256 14.8247 26.3979 14.8247C23.5397 14.8247 21.2228 17.1417 21.2228 19.9998C21.2228 22.8579 23.5397 25.1749 26.3979 25.1749Z" fill="#2EA398"/>
<path d="M10.8723 30.3499C10.8723 27.4898 13.1873 25.1748 16.0474 25.1748H10.8723V30.3499Z" fill="#2EA398"/>
<path d="M5.69727 25.1748C8.55733 25.1748 10.8723 27.4898 10.8723 30.3499V25.1748H5.69727Z" fill="#2EA398"/>
<path d="M10.8723 20C10.8723 22.8601 8.55733 25.1751 5.69727 25.1751H10.8723V20Z" fill="#2EA398"/>
<path d="M16.0474 25.1751C13.1873 25.1751 10.8723 22.8601 10.8723 20V25.1751H16.0474Z" fill="#2EA398"/>
<path d="M26.3504 4.47461H16.0002V25.1749H26.3504V4.47461Z" fill="#2EA398"/>
<path d="M31.5729 20.0474L31.5729 9.69727L10.8726 9.69727L10.8726 20.0474L31.5729 20.0474Z" fill="#2EA398"/>
<path d="M9.8717 9.61124L9.87261 9.71189V18.9524H9.87166V19.9524C9.87166 19.9661 9.87186 19.9779 9.87206 19.9869L9.87259 20.0064L9.8726 20.0067C9.86888 22.3094 8.00111 24.1749 5.69754 24.1749C3.39396 24.1749 1.52619 22.3094 1.52247 20.0067C1.52247 20.0066 1.52247 20.0065 1.52248 20.0064L1.52301 19.9869C1.52321 19.9779 1.52341 19.9661 1.52341 19.9524V18.9524H1.52246V9.71188L1.52337 9.61124C1.54405 7.32295 3.40498 5.47461 5.69754 5.47461C7.99009 5.47461 9.85102 7.32295 9.8717 9.61124Z" stroke="#82D9D0" stroke-width="2" stroke-miterlimit="10"/>
<path d="M25.3503 34.524V34.525H16.1098L16.0092 34.524C13.7209 34.5034 11.8726 32.6424 11.8726 30.3499C11.8726 28.0573 13.7209 26.1964 16.0092 26.1757L16.1098 26.1748H25.3503V26.1758H26.3503C26.364 26.1758 26.3759 26.1756 26.3848 26.1754L26.4044 26.1748C26.4045 26.1748 26.4046 26.1748 26.4047 26.1748C28.7074 26.1785 30.5729 28.0463 30.5729 30.3499C30.5729 32.6535 28.7074 34.5212 26.4047 34.5249L26.4044 34.5249L26.3848 34.5244C26.3759 34.5242 26.364 34.524 26.3503 34.524H25.3503Z" stroke="#82D9D0" stroke-width="2" stroke-miterlimit="10"/>
</g>
<defs>
<clipPath id="clip0_507_11850">
<rect width="32" height="40" fill="white"/>
</clipPath>
</defs>
</svg>
