<svg width="96" height="96" viewBox="0 0 96 96" fill="none" xmlns="http://www.w3.org/2000/svg">
<g filter="url(#filter0_bi_561_29827)">
<path fill-rule="evenodd" clip-rule="evenodd" d="M96 10.6667C96 4.77563 91.2244 0 85.3333 0H58.6667C52.7756 0 48 4.77563 48 10.6667V37.3333C48 43.2244 43.2244 48 37.3333 48H10.6667C4.77563 48 0 52.7756 0 58.6667V85.3333C0 91.2244 4.77563 96 10.6667 96H48H85.3333C91.2244 96 96 91.2244 96 85.3333V48V10.6667Z" fill="#2EA398"/>
</g>
<path d="M17.4613 69.452H16.8373C16.688 69.452 16.5707 69.4094 16.4853 69.324C16.4 69.2387 16.3573 69.1214 16.3573 68.972V59.468C16.3573 59.3507 16.32 59.26 16.2453 59.196C16.1813 59.1214 16.0907 59.084 15.9733 59.084H15.8613C15.68 59.084 15.536 59.1694 15.4293 59.34C14.928 60.2467 14.3733 61.0787 13.7653 61.836C13.6587 61.9534 13.5413 62.0174 13.4133 62.028C13.2853 62.028 13.1627 61.9694 13.0453 61.852C12.9813 61.7987 12.9173 61.7454 12.8533 61.692C12.7893 61.6387 12.72 61.5854 12.6453 61.532C12.368 61.308 12.3467 61.0574 12.5813 60.78C13.1787 60.0654 13.7173 59.2814 14.1973 58.428C14.6773 57.5747 15.104 56.6414 15.4773 55.628C15.52 55.5 15.5947 55.4094 15.7013 55.356C15.808 55.292 15.9253 55.2814 16.0533 55.324L16.6133 55.468C16.944 55.5747 17.0507 55.7827 16.9333 56.092C16.8267 56.38 16.7147 56.652 16.5973 56.908C16.512 57.1214 16.512 57.292 16.5973 57.42C16.6827 57.5374 16.832 57.596 17.0453 57.596H22.0693C22.2187 57.596 22.336 57.6387 22.4213 57.724C22.5067 57.8094 22.5493 57.9267 22.5493 58.076V58.604C22.5493 58.7534 22.5067 58.8707 22.4213 58.956C22.336 59.0414 22.2187 59.084 22.0693 59.084H18.4213C18.272 59.084 18.1547 59.1267 18.0693 59.212C17.984 59.2974 17.9413 59.4147 17.9413 59.564V60.492C17.9413 60.6414 17.984 60.7587 18.0693 60.844C18.1547 60.9294 18.272 60.972 18.4213 60.972H21.7013C21.8507 60.972 21.968 61.0147 22.0533 61.1C22.1387 61.1854 22.1813 61.3027 22.1813 61.452V61.916C22.1813 62.0654 22.1387 62.1827 22.0533 62.268C21.968 62.3534 21.8507 62.396 21.7013 62.396H18.4213C18.272 62.396 18.1547 62.4387 18.0693 62.524C17.984 62.6094 17.9413 62.7267 17.9413 62.876V63.9C17.9413 64.0494 17.984 64.1667 18.0693 64.252C18.1547 64.3374 18.272 64.38 18.4213 64.38H21.9253C22.0747 64.38 22.192 64.4227 22.2773 64.508C22.3627 64.5934 22.4053 64.7107 22.4053 64.86V65.34C22.4053 65.4894 22.3627 65.6067 22.2773 65.692C22.192 65.7774 22.0747 65.82 21.9253 65.82H18.4213C18.272 65.82 18.1547 65.8627 18.0693 65.948C17.984 66.0334 17.9413 66.1507 17.9413 66.3V68.972C17.9413 69.1214 17.8987 69.2387 17.8133 69.324C17.728 69.4094 17.6107 69.452 17.4613 69.452ZM11.2053 69.436H10.5973C10.448 69.436 10.3307 69.3934 10.2453 69.308C10.16 69.2227 10.1173 69.1054 10.1173 68.956V62.252C10.1173 61.964 10.064 61.804 9.95733 61.772C9.85067 61.74 9.70667 61.8307 9.52533 62.044C9.45067 62.1187 9.39733 62.1774 9.36533 62.22C9.216 62.38 9.06667 62.4494 8.91733 62.428C8.77867 62.396 8.66133 62.284 8.56533 62.092C8.512 61.9854 8.45867 61.884 8.40533 61.788C8.352 61.692 8.29867 61.6014 8.24533 61.516C8.10667 61.292 8.12267 61.084 8.29333 60.892C8.976 60.156 9.58933 59.3454 10.1333 58.46C10.6773 57.564 11.168 56.5827 11.6053 55.516C11.6587 55.388 11.7387 55.2974 11.8453 55.244C11.952 55.1907 12.0693 55.1854 12.1973 55.228L12.7573 55.404C12.9067 55.4574 13.008 55.5427 13.0613 55.66C13.1147 55.7667 13.1093 55.8894 13.0453 56.028C12.864 56.508 12.6613 56.972 12.4373 57.42C12.224 57.8574 11.9947 58.3 11.7493 58.748C11.7067 58.8334 11.6853 58.9134 11.6853 58.988V68.956C11.6853 69.1054 11.6427 69.2227 11.5573 69.308C11.472 69.3934 11.3547 69.436 11.2053 69.436ZM33.0293 69.468H32.4213C32.272 69.468 32.1547 69.4254 32.0693 69.34C31.984 69.2547 31.9413 69.1374 31.9413 68.988V63.02C31.9413 62.8707 31.984 62.7534 32.0693 62.668C32.1547 62.5827 32.272 62.54 32.4213 62.54H37.4773C37.6267 62.54 37.744 62.5827 37.8293 62.668C37.9147 62.7534 37.9573 62.8707 37.9573 63.02V68.908C37.9573 69.0574 37.9147 69.1747 37.8293 69.26C37.744 69.3454 37.6267 69.388 37.4773 69.388H36.7893C36.544 69.388 36.4213 69.2654 36.4213 69.02C36.4213 68.7747 36.2987 68.652 36.0533 68.652H33.8453C33.568 68.652 33.4293 68.7907 33.4293 69.068C33.4293 69.3347 33.296 69.468 33.0293 69.468ZM36.4213 66.7V64.508C36.4213 64.3587 36.3787 64.2414 36.2933 64.156C36.208 64.0707 36.0907 64.028 35.9413 64.028H33.9093C33.76 64.028 33.6427 64.0707 33.5573 64.156C33.472 64.2414 33.4293 64.3587 33.4293 64.508V66.7C33.4293 66.8494 33.472 66.9667 33.5573 67.052C33.6427 67.1374 33.76 67.18 33.9093 67.18H35.9413C36.0907 67.18 36.208 67.1374 36.2933 67.052C36.3787 66.9667 36.4213 66.8494 36.4213 66.7ZM25.8293 69.468H25.2533C25.104 69.468 24.9867 69.4254 24.9013 69.34C24.816 69.2547 24.7733 69.1374 24.7733 68.988V63.02C24.7733 62.8707 24.816 62.7534 24.9013 62.668C24.9867 62.5827 25.104 62.54 25.2533 62.54H30.0213C30.1707 62.54 30.288 62.5827 30.3733 62.668C30.4587 62.7534 30.5013 62.8707 30.5013 63.02V68.876C30.5013 69.0254 30.4587 69.1427 30.3733 69.228C30.288 69.3134 30.1707 69.356 30.0213 69.356H29.3333C29.0987 69.356 28.9813 69.2387 28.9813 69.004C28.9813 68.7694 28.864 68.652 28.6293 68.652H26.6453C26.368 68.652 26.2293 68.7907 26.2293 69.068C26.2293 69.3347 26.096 69.468 25.8293 69.468ZM28.9813 66.7V64.508C28.9813 64.3587 28.9387 64.2414 28.8533 64.156C28.768 64.0707 28.6507 64.028 28.5013 64.028H26.7093C26.56 64.028 26.4427 64.0707 26.3573 64.156C26.272 64.2414 26.2293 64.3587 26.2293 64.508V66.7C26.2293 66.8494 26.272 66.9667 26.3573 67.052C26.4427 67.1374 26.56 67.18 26.7093 67.18H28.5013C28.6507 67.18 28.768 67.1374 28.8533 67.052C28.9387 66.9667 28.9813 66.8494 28.9813 66.7ZM35.3013 61.116H27.4453C27.296 61.116 27.1787 61.0734 27.0933 60.988C27.008 60.9027 26.9653 60.7854 26.9653 60.636V56.188C26.9653 56.0387 27.008 55.9214 27.0933 55.836C27.1787 55.7507 27.296 55.708 27.4453 55.708H35.3013C35.4507 55.708 35.568 55.7507 35.6533 55.836C35.7387 55.9214 35.7813 56.0387 35.7813 56.188V60.636C35.7813 60.7854 35.7387 60.9027 35.6533 60.988C35.568 61.0734 35.4507 61.116 35.3013 61.116ZM34.1973 59.164V57.676C34.1973 57.5267 34.1547 57.4094 34.0693 57.324C33.984 57.2387 33.8667 57.196 33.7173 57.196H28.9333C28.784 57.196 28.6667 57.2387 28.5813 57.324C28.496 57.4094 28.4533 57.5267 28.4533 57.676V59.164C28.4533 59.3134 28.496 59.4307 28.5813 59.516C28.6667 59.6014 28.784 59.644 28.9333 59.644H33.7173C33.8667 59.644 33.984 59.6014 34.0693 59.516C34.1547 59.4307 34.1973 59.3134 34.1973 59.164ZM21.0613 87.836C20.7093 87.004 20.1867 86.1454 19.4933 85.26C19.3867 85.1214 19.344 84.988 19.3653 84.86C19.3973 84.7214 19.488 84.6094 19.6373 84.524L20.0213 84.316C20.1173 84.2627 20.2187 84.2467 20.3253 84.268C20.432 84.2787 20.528 84.332 20.6133 84.428C21.456 85.4414 22.0587 86.38 22.4213 87.244C22.528 87.4787 22.464 87.6654 22.2293 87.804L21.7973 88.076C21.648 88.172 21.504 88.1987 21.3653 88.156C21.2373 88.1134 21.136 88.0067 21.0613 87.836ZM17.6533 89.308H14.4053C13.36 89.308 12.672 89.1747 12.3413 88.908C11.9893 88.6414 11.8133 88.14 11.8133 87.404V84.78C11.8133 84.6307 11.856 84.5134 11.9413 84.428C12.0267 84.3427 12.144 84.3 12.2933 84.3H12.9493C13.0987 84.3 13.216 84.3427 13.3013 84.428C13.3867 84.5134 13.4293 84.6307 13.4293 84.78V87.388C13.4293 87.6014 13.4933 87.74 13.6213 87.804C13.7493 87.868 14.048 87.9 14.5173 87.9H17.5573C17.8987 87.9 18.128 87.8094 18.2453 87.628C18.2987 87.5427 18.352 87.3347 18.4053 87.004C18.448 86.62 18.656 86.5027 19.0293 86.652C19.2 86.7267 19.36 86.7854 19.5093 86.828C19.6267 86.86 19.7227 86.924 19.7973 87.02C19.872 87.116 19.8987 87.228 19.8773 87.356C19.7813 88.0494 19.6 88.54 19.3333 88.828C19.0027 89.148 18.4427 89.308 17.6533 89.308ZM9.15733 88.476L8.64533 88.236C8.48533 88.1507 8.38933 88.044 8.35733 87.916C8.32533 87.788 8.352 87.6494 8.43733 87.5C8.85333 86.8067 9.17867 85.964 9.41333 84.972C9.49867 84.6734 9.69067 84.5507 9.98933 84.604L10.5173 84.716C10.656 84.7374 10.7573 84.8014 10.8213 84.908C10.896 85.004 10.9173 85.1214 10.8853 85.26C10.768 85.8147 10.6133 86.3427 10.4213 86.844C10.24 87.3454 10.0213 87.8254 9.76533 88.284C9.70133 88.4014 9.61067 88.476 9.49333 88.508C9.38667 88.54 9.27467 88.5294 9.15733 88.476ZM16.3573 86.236C15.8347 85.6387 15.184 85.0467 14.4053 84.46C14.256 84.3427 14.1813 84.22 14.1813 84.092C14.1813 83.9534 14.256 83.8254 14.4053 83.708C14.5547 83.5907 14.6133 83.5 14.5813 83.436C14.5493 83.3614 14.4427 83.324 14.2613 83.324H10.7733C10.624 83.324 10.5067 83.2814 10.4213 83.196C10.336 83.1107 10.2933 82.9934 10.2933 82.844V78.588C10.2933 78.4387 10.336 78.3214 10.4213 78.236C10.5067 78.1507 10.624 78.108 10.7733 78.108H12.1013C12.3147 78.108 12.464 78.0494 12.5493 77.932C12.6347 77.804 12.624 77.6494 12.5173 77.468C12.4 77.2547 12.2773 77.0414 12.1493 76.828C12.0213 76.604 11.8773 76.3854 11.7173 76.172C11.6107 76.0227 11.5733 75.884 11.6053 75.756C11.6373 75.628 11.7333 75.5214 11.8933 75.436L12.3413 75.228C12.5653 75.1214 12.7573 75.164 12.9173 75.356C13.4507 76.0387 13.872 76.7 14.1813 77.34C14.2347 77.4574 14.24 77.5694 14.1973 77.676C14.1653 77.7827 14.0907 77.8627 13.9733 77.916C13.856 77.9694 13.8027 78.0174 13.8133 78.06C13.824 78.092 13.8933 78.108 14.0213 78.108H16.1173C16.2987 78.108 16.4373 78.0334 16.5333 77.884C17.0027 77.0947 17.4133 76.2894 17.7653 75.468C17.8187 75.3294 17.904 75.2387 18.0213 75.196C18.1387 75.1534 18.2667 75.1587 18.4053 75.212L19.0453 75.468C19.1947 75.532 19.2907 75.628 19.3333 75.756C19.376 75.8734 19.3547 76.0014 19.2693 76.14C19.152 76.3534 19.0293 76.5614 18.9013 76.764C18.784 76.9667 18.6667 77.1694 18.5493 77.372C18.4213 77.596 18.3947 77.7774 18.4693 77.916C18.544 78.044 18.7093 78.108 18.9653 78.108H19.9413C20.0907 78.108 20.208 78.1507 20.2933 78.236C20.3787 78.3214 20.4213 78.4387 20.4213 78.588V82.844C20.4213 82.9934 20.3787 83.1107 20.2933 83.196C20.208 83.2814 20.0907 83.324 19.9413 83.324H16.7413C16.272 83.324 16.0107 83.404 15.9573 83.564C15.9147 83.724 16.0693 83.9534 16.4213 84.252C16.624 84.4227 16.8107 84.5934 16.9813 84.764C17.1627 84.9347 17.3333 85.1054 17.4933 85.276C17.5893 85.3827 17.632 85.5 17.6213 85.628C17.6107 85.7454 17.5573 85.8467 17.4613 85.932L17.0613 86.284C16.944 86.3907 16.8213 86.4387 16.6933 86.428C16.5653 86.4174 16.4533 86.3534 16.3573 86.236ZM18.7093 81.388V80.028C18.7093 79.8787 18.6667 79.7614 18.5813 79.676C18.496 79.5907 18.3787 79.548 18.2293 79.548H12.4213C12.272 79.548 12.1547 79.5907 12.0693 79.676C11.984 79.7614 11.9413 79.8787 11.9413 80.028V81.388C11.9413 81.5374 11.984 81.6547 12.0693 81.74C12.1547 81.8254 12.272 81.868 12.4213 81.868H18.2293C18.3787 81.868 18.496 81.8254 18.5813 81.74C18.6667 81.6547 18.7093 81.5374 18.7093 81.388ZM31.0613 89.084C31.008 88.988 30.9387 88.8814 30.8533 88.764C30.6187 88.444 30.6773 88.188 31.0293 87.996C32.3093 87.3134 33.3067 86.412 34.0213 85.292C34.1067 85.1534 34.112 85.0094 34.0373 84.86C33.8667 84.4654 33.7067 84.0654 33.5573 83.66C33.4187 83.2547 33.2907 82.8387 33.1733 82.412C33.0133 81.8574 32.7893 81.8307 32.5013 82.332C32.48 82.3854 32.4533 82.4387 32.4213 82.492C32.3893 82.5347 32.3573 82.5827 32.3253 82.636C32.2293 82.796 32.112 82.8814 31.9733 82.892C31.8347 82.892 31.696 82.8334 31.5573 82.716C31.504 82.6734 31.4507 82.6307 31.3973 82.588C31.3547 82.5454 31.3067 82.5027 31.2533 82.46C30.9973 82.268 30.9547 82.0334 31.1253 81.756C32.064 80.2947 32.7147 78.252 33.0773 75.628C33.1307 75.3187 33.312 75.18 33.6213 75.212L34.0853 75.276C34.2347 75.2974 34.3467 75.356 34.4213 75.452C34.496 75.548 34.5227 75.6707 34.5013 75.82C34.416 76.3747 34.32 76.8974 34.2133 77.388C34.1813 77.5694 34.208 77.7134 34.2933 77.82C34.3787 77.9267 34.512 77.98 34.6933 77.98H37.8613C38.0107 77.98 38.128 78.0227 38.2133 78.108C38.2987 78.1934 38.3413 78.3107 38.3413 78.46V78.956C38.3413 79.1054 38.2987 79.2227 38.2133 79.308C38.128 79.3934 38.0107 79.436 37.8613 79.436H37.7333C37.4667 79.436 37.3067 79.5747 37.2533 79.852C36.9653 81.7827 36.4907 83.4574 35.8293 84.876C35.7973 84.94 35.7813 85.0147 35.7813 85.1C35.7813 85.1854 35.8027 85.26 35.8453 85.324C36.464 86.3267 37.2267 87.148 38.1333 87.788C38.4853 88.0334 38.5173 88.316 38.2293 88.636C38.1867 88.6894 38.144 88.7427 38.1013 88.796C38.0693 88.8494 38.032 88.9027 37.9893 88.956C37.904 89.0734 37.7973 89.1427 37.6693 89.164C37.552 89.1854 37.4347 89.1534 37.3173 89.068C36.9227 88.7907 36.5547 88.4867 36.2133 88.156C35.8827 87.8254 35.5733 87.468 35.2853 87.084C35.0187 86.7107 34.736 86.7 34.4373 87.052C33.744 87.9054 32.848 88.6467 31.7493 89.276C31.6107 89.3614 31.4827 89.3827 31.3653 89.34C31.248 89.2974 31.1467 89.212 31.0613 89.084ZM35.3173 82.236C35.4133 81.8947 35.4987 81.5374 35.5733 81.164C35.6587 80.78 35.7387 80.3854 35.8133 79.98C35.8347 79.82 35.8027 79.692 35.7173 79.596C35.632 79.4894 35.504 79.436 35.3333 79.436H34.4053C34.224 79.436 34.0907 79.4894 34.0053 79.596C33.92 79.692 33.8987 79.8254 33.9413 79.996C34.1013 80.7747 34.2933 81.5267 34.5173 82.252C34.6347 82.6147 34.768 82.796 34.9173 82.796C35.0773 82.796 35.2107 82.6094 35.3173 82.236ZM24.5973 88.988C24.576 88.9454 24.5547 88.9027 24.5333 88.86C24.512 88.828 24.4853 88.7907 24.4533 88.748C24.2293 88.3747 24.32 88.1294 24.7253 88.012C25.4187 87.82 26.048 87.5747 26.6133 87.276C26.8267 87.1587 26.928 87.0254 26.9173 86.876C26.9173 86.7267 26.8053 86.5987 26.5813 86.492C26.4213 86.4067 26.256 86.332 26.0853 86.268C25.9253 86.1934 25.76 86.1187 25.5893 86.044C25.4187 85.9694 25.312 85.868 25.2693 85.74C25.2373 85.6014 25.2693 85.4574 25.3653 85.308C25.4187 85.244 25.4613 85.18 25.4933 85.116C25.536 85.0414 25.5787 84.972 25.6213 84.908C25.7387 84.7267 25.7653 84.5827 25.7013 84.476C25.6373 84.3587 25.4987 84.3 25.2853 84.3H25.0613C24.912 84.3 24.7947 84.2574 24.7093 84.172C24.624 84.0867 24.5813 83.9694 24.5813 83.82V83.5C24.5813 83.3507 24.624 83.2334 24.7093 83.148C24.7947 83.0627 24.912 83.02 25.0613 83.02H26.3253C26.528 83.02 26.672 82.9294 26.7573 82.748C26.7787 82.6947 26.7947 82.6467 26.8053 82.604C26.8267 82.5507 26.848 82.4974 26.8693 82.444C26.976 82.1774 27.1627 82.0707 27.4293 82.124L28.1173 82.268C28.3093 82.3 28.368 82.4067 28.2933 82.588C28.272 82.6307 28.2507 82.6734 28.2293 82.716C28.2187 82.748 28.2027 82.78 28.1813 82.812C28.1707 82.8227 28.1653 82.8334 28.1653 82.844C28.1653 82.8547 28.16 82.8654 28.1493 82.876L28.1333 82.924C28.1227 82.988 28.144 83.02 28.1973 83.02H30.2613C30.2827 83.02 30.304 83.02 30.3253 83.02C30.3467 83.02 30.368 83.0147 30.3893 83.004L30.4373 82.988C30.5227 82.9667 30.5973 82.972 30.6613 83.004L30.9813 83.116C31.1093 83.1694 31.2 83.2494 31.2533 83.356C31.3067 83.4627 31.312 83.58 31.2693 83.708C30.9387 84.6574 30.5067 85.4787 29.9733 86.172C29.856 86.3214 29.808 86.4654 29.8293 86.604C29.8507 86.732 29.936 86.8387 30.0853 86.924L30.3093 87.068C30.4587 87.1534 30.5387 87.2654 30.5493 87.404C30.5707 87.5427 30.5227 87.676 30.4053 87.804L30.1493 88.092C30.064 88.188 29.9573 88.2414 29.8293 88.252C29.712 88.2627 29.6 88.2254 29.4933 88.14C29.3867 88.076 29.28 88.012 29.1733 87.948C29.0667 87.8734 28.9547 87.804 28.8373 87.74C28.6667 87.6334 28.4907 87.644 28.3093 87.772C27.424 88.4014 26.384 88.8974 25.1893 89.26C24.9227 89.324 24.7253 89.2334 24.5973 88.988ZM28.6453 85.74C28.7627 85.612 28.8693 85.484 28.9653 85.356C29.072 85.228 29.168 85.0947 29.2533 84.956C29.3707 84.764 29.392 84.6094 29.3173 84.492C29.2427 84.364 29.0933 84.3 28.8693 84.3H27.7813C27.6 84.3 27.456 84.38 27.3493 84.54L27.2053 84.812C27.12 84.9614 27.0987 85.1 27.1413 85.228C27.184 85.3454 27.28 85.436 27.4293 85.5C27.5467 85.5534 27.6587 85.6067 27.7653 85.66C27.872 85.7134 27.984 85.7667 28.1013 85.82C28.304 85.9267 28.4853 85.9 28.6453 85.74ZM24.5973 81.932C24.576 81.9 24.5547 81.868 24.5333 81.836C24.512 81.804 24.4907 81.7774 24.4693 81.756C24.2133 81.3827 24.2773 81.1 24.6613 80.908C25.2053 80.62 25.7013 80.268 26.1493 79.852C26.384 79.6387 26.464 79.4627 26.3893 79.324C26.3253 79.1854 26.1387 79.116 25.8293 79.116H24.7573C24.608 79.116 24.4907 79.0734 24.4053 78.988C24.32 78.9027 24.2773 78.7854 24.2773 78.636V78.348C24.2773 78.1987 24.32 78.0814 24.4053 77.996C24.4907 77.9107 24.608 77.868 24.7573 77.868H25.0773C25.2587 77.868 25.392 77.8147 25.4773 77.708C25.5627 77.6014 25.5733 77.4627 25.5093 77.292C25.4453 77.1427 25.376 76.988 25.3013 76.828C25.2267 76.668 25.1413 76.5027 25.0453 76.332C24.96 76.1827 24.9387 76.044 24.9813 75.916C25.024 75.788 25.1253 75.692 25.2853 75.628L25.5413 75.516C25.648 75.4734 25.7547 75.468 25.8613 75.5C25.968 75.532 26.0533 75.596 26.1173 75.692C26.4267 76.1827 26.6507 76.636 26.7893 77.052C26.832 77.1694 26.8267 77.276 26.7733 77.372C26.7307 77.468 26.6507 77.5427 26.5333 77.596L26.3893 77.644C26.0693 77.7934 26.0853 77.868 26.4373 77.868H26.8853C27.0347 77.868 27.152 77.8254 27.2373 77.74C27.3227 77.6547 27.3653 77.5374 27.3653 77.388V75.532C27.3653 75.3827 27.408 75.2654 27.4933 75.18C27.5787 75.0947 27.696 75.052 27.8453 75.052H28.3093C28.4587 75.052 28.576 75.0947 28.6613 75.18C28.7467 75.2654 28.7893 75.3827 28.7893 75.532V77.388C28.7893 77.5374 28.832 77.6547 28.9173 77.74C29.0027 77.8254 29.12 77.868 29.2693 77.868H31.3813C31.5307 77.868 31.648 77.9107 31.7333 77.996C31.8187 78.0814 31.8613 78.1987 31.8613 78.348V78.636C31.8613 78.7854 31.8187 78.9027 31.7333 78.988C31.648 79.0734 31.5307 79.116 31.3813 79.116H30.5653C30.192 79.116 29.9893 79.1747 29.9573 79.292C29.9253 79.4094 30.0693 79.5694 30.3893 79.772L31.0133 80.156C31.2907 80.348 31.328 80.5827 31.1253 80.86L30.9173 81.132C30.8213 81.2494 30.704 81.3187 30.5653 81.34C30.4373 81.3507 30.3147 81.3027 30.1973 81.196C30.1013 81.1107 30 81.0254 29.8933 80.94C29.7867 80.8547 29.6693 80.7587 29.5413 80.652C29.3173 80.4707 29.136 80.4174 28.9973 80.492C28.8587 80.5667 28.7893 80.7427 28.7893 81.02V81.484C28.7893 81.6334 28.7467 81.7507 28.6613 81.836C28.576 81.9214 28.4587 81.964 28.3093 81.964H27.8453C27.696 81.964 27.5787 81.9214 27.4933 81.836C27.408 81.7507 27.3653 81.6334 27.3653 81.484V81.18C27.3653 80.7 27.1787 80.62 26.8053 80.94C26.5707 81.164 26.3253 81.372 26.0693 81.564C25.8133 81.756 25.5467 81.9427 25.2693 82.124C25.1413 82.2094 25.0187 82.2307 24.9013 82.188C24.784 82.1454 24.6827 82.06 24.5973 81.932ZM29.8133 77.692L29.6533 77.612C29.504 77.548 29.408 77.4574 29.3653 77.34C29.3333 77.212 29.36 77.0734 29.4453 76.924C29.5627 76.732 29.6747 76.54 29.7813 76.348C29.888 76.1454 29.9893 75.9374 30.0853 75.724C30.1387 75.5854 30.224 75.4947 30.3413 75.452C30.4587 75.4094 30.5867 75.4147 30.7253 75.468L31.0613 75.612C31.2213 75.676 31.3173 75.772 31.3493 75.9C31.392 76.028 31.3653 76.1667 31.2693 76.316C30.9707 76.7534 30.672 77.164 30.3733 77.548C30.3093 77.644 30.224 77.708 30.1173 77.74C30.0107 77.7614 29.9093 77.7454 29.8133 77.692Z" fill="white"/>
<line x1="72.8508" y1="4.35072" x2="44.3494" y2="91.1505" stroke="white" stroke-width="2.66667" stroke-linecap="round"/>
<defs>
<filter id="filter0_bi_561_29827" x="-32" y="-32" width="160" height="160" filterUnits="userSpaceOnUse" color-interpolation-filters="sRGB">
<feFlood flood-opacity="0" result="BackgroundImageFix"/>
<feGaussianBlur in="BackgroundImageFix" stdDeviation="16"/>
<feComposite in2="SourceAlpha" operator="in" result="effect1_backgroundBlur_561_29827"/>
<feBlend mode="normal" in="SourceGraphic" in2="effect1_backgroundBlur_561_29827" result="shape"/>
<feColorMatrix in="SourceAlpha" type="matrix" values="0 0 0 0 0 0 0 0 0 0 0 0 0 0 0 0 0 0 127 0" result="hardAlpha"/>
<feOffset dx="-32" dy="32"/>
<feGaussianBlur stdDeviation="16"/>
<feComposite in2="hardAlpha" operator="arithmetic" k2="-1" k3="1"/>
<feColorMatrix type="matrix" values="0 0 0 0 1 0 0 0 0 1 0 0 0 0 1 0 0 0 0.158 0"/>
<feBlend mode="normal" in2="shape" result="effect2_innerShadow_561_29827"/>
</filter>
</defs>
</svg>
