<svg width="40" height="60" viewBox="0 0 40 60" fill="none" xmlns="http://www.w3.org/2000/svg">
<path d="M28.9992 4.37309H29V13.0398H28.9992C28.9777 15.4147 27.0464 17.3333 24.6667 17.3333C24.6532 17.3333 24.6404 17.3325 24.6269 17.3325V17.3333H16C13.6051 17.3333 11.6667 19.2718 11.6667 21.6667C11.6667 24.0599 9.72661 26 7.33333 26C4.94006 26 3 24.0599 3 21.6667C3 19.2734 4.94006 17.3333 7.33333 17.3333C9.7282 17.3333 11.6667 15.3949 11.6667 13V4.37309H11.6675C11.6675 4.35957 11.6667 4.34685 11.6667 4.33333C11.6667 1.95358 13.5853 0.0222638 15.9602 0.000795884V0H24.6269V0.000795884C24.6404 0.000795884 24.6532 0 24.6667 0C27.0599 0 29 1.94006 29 4.33333C29 4.34685 28.9992 4.35957 28.9992 4.37309Z" fill="white"/>
<path d="M18.42 49.12H1.68C1.34667 49.12 1.18 48.9533 1.18 48.62V48.02C1.18 47.6867 1.34667 47.52 1.68 47.52H5.18C5.51333 47.52 5.68 47.3533 5.68 47.02V43.6C5.68 43.2667 5.51333 43.1 5.18 43.1H2.46C2.12667 43.1 1.96 42.9333 1.96 42.6V42C1.96 41.6667 2.12667 41.5 2.46 41.5H5.18C5.51333 41.5 5.68 41.3333 5.68 41V38.06C5.68 37.7267 5.84667 37.56 6.18 37.56H6.82C7.15333 37.56 7.32 37.7267 7.32 38.06V41C7.32 41.3333 7.48667 41.5 7.82 41.5H12.18C12.5133 41.5 12.68 41.3333 12.68 41V38.06C12.68 37.7267 12.8467 37.56 13.18 37.56H13.84C14.1733 37.56 14.34 37.7267 14.34 38.06V41C14.34 41.3333 14.5067 41.5 14.84 41.5H17.72C18.0533 41.5 18.22 41.6667 18.22 42V42.6C18.22 42.9333 18.0533 43.1 17.72 43.1H14.84C14.5067 43.1 14.34 43.2667 14.34 43.6V47.02C14.34 47.3533 14.5067 47.52 14.84 47.52H18.42C18.7533 47.52 18.92 47.6867 18.92 48.02V48.62C18.92 48.9533 18.7533 49.12 18.42 49.12ZM12.68 47.02V43.6C12.68 43.2667 12.5133 43.1 12.18 43.1H7.82C7.48667 43.1 7.32 43.2667 7.32 43.6V47.02C7.32 47.3533 7.48667 47.52 7.82 47.52H12.18C12.5133 47.52 12.68 47.3533 12.68 47.02ZM16.72 55.16C16.12 54.6 15.44 54 14.68 53.36C13.9333 52.72 13.08 52.04 12.12 51.32C11.9333 51.1733 11.8467 51.0267 11.86 50.88C11.8733 50.72 11.9733 50.5867 12.16 50.48L12.66 50.18C12.8333 50.0733 13.0133 50.08 13.2 50.2C14.1733 50.8933 15.06 51.5533 15.86 52.18C16.6733 52.8067 17.4067 53.4133 18.06 54C18.2067 54.1333 18.2733 54.2667 18.26 54.4C18.2467 54.5467 18.16 54.6733 18 54.78L17.34 55.22C17.2333 55.2867 17.12 55.3133 17 55.3C16.8933 55.2867 16.8 55.24 16.72 55.16ZM2.36 55.16C2.29333 55.0933 2.22667 55.0267 2.16 54.96C2.09333 54.9067 2.02 54.8467 1.94 54.78C1.58 54.4467 1.60667 54.1533 2.02 53.9C3.91333 52.8333 5.38 51.64 6.42 50.32C6.56667 50.12 6.76667 50.0667 7.02 50.16L7.7 50.44C7.9 50.52 8.02 50.6333 8.06 50.78C8.1 50.9267 8.04667 51.0733 7.9 51.22C6.47333 52.7667 4.84 54.1067 3 55.24C2.77333 55.3867 2.56 55.36 2.36 55.16ZM33.06 55.26H32.48C32.1467 55.26 31.98 55.0933 31.98 54.76V51.36C31.98 50.7867 31.8933 50.48 31.72 50.44C31.5467 50.3867 31.2867 50.58 30.94 51.02C30.0067 52.2067 28.8467 53.2133 27.46 54.04C27.34 54.1067 27.2133 54.12 27.08 54.08C26.96 54.0533 26.86 53.98 26.78 53.86C26.74 53.7933 26.6933 53.74 26.64 53.7C26.6 53.6467 26.5533 53.5867 26.5 53.52C26.2067 53.16 26.26 52.8667 26.66 52.64C28.2733 51.7333 29.58 50.5533 30.58 49.1C30.7267 48.8733 30.76 48.6933 30.68 48.56C30.6133 48.4267 30.4467 48.36 30.18 48.36H27.6C27.2667 48.36 27.1 48.1933 27.1 47.86V47.34C27.1 47.0067 27.2667 46.84 27.6 46.84H31.48C31.8133 46.84 31.98 46.6733 31.98 46.34V45.24C31.98 44.9067 32.1467 44.74 32.48 44.74H33.06C33.3933 44.74 33.56 44.9067 33.56 45.24V46.34C33.56 46.6733 33.7267 46.84 34.06 46.84H38.06C38.3933 46.84 38.56 47.0067 38.56 47.34V47.86C38.56 48.1933 38.3933 48.36 38.06 48.36H35.38C35.1133 48.36 34.94 48.4267 34.86 48.56C34.7933 48.6933 34.8333 48.8733 34.98 49.1C35.9533 50.5133 37.1533 51.68 38.58 52.6C38.7533 52.7067 38.8467 52.8333 38.86 52.98C38.8867 53.1267 38.8267 53.2733 38.68 53.42C38.6133 53.4867 38.5533 53.5533 38.5 53.62C38.46 53.6867 38.4133 53.7533 38.36 53.82C38.2533 53.94 38.14 54.0133 38.02 54.04C37.9 54.0667 37.78 54.0333 37.66 53.94C36.4733 53.0867 35.4533 52.1 34.6 50.98C33.9067 50.06 33.56 50.1667 33.56 51.3V54.76C33.56 55.0933 33.3933 55.26 33.06 55.26ZM21.78 54.88C21.7533 54.8 21.7267 54.7133 21.7 54.62C21.6733 54.54 21.6467 54.4533 21.62 54.36C21.5533 54.1867 21.5467 54.0533 21.6 53.96C21.6667 53.8533 21.7933 53.8 21.98 53.8L22.58 53.82C23.0867 53.82 23.3667 53.8067 23.42 53.78C23.4467 53.7533 23.46 52.24 23.46 49.24C23.46 49.0267 23.3933 48.88 23.26 48.8C23.14 48.7067 22.98 48.7 22.78 48.78L21.94 49.1C21.7933 49.1667 21.66 49.1667 21.54 49.1C21.42 49.0333 21.3333 48.9267 21.28 48.78L21.12 48.16C21.08 48.0133 21.0867 47.8867 21.14 47.78C21.1933 47.6733 21.2933 47.6 21.44 47.56C21.7067 47.4667 21.98 47.3733 22.26 47.28C22.5533 47.1733 22.8533 47.0667 23.16 46.96L23.32 46.9C23.4133 46.8467 23.46 46.7733 23.46 46.68V43.34C23.46 43.0067 23.2933 42.84 22.96 42.84H21.66C21.3267 42.84 21.16 42.6733 21.16 42.34V41.8C21.16 41.4667 21.3267 41.3 21.66 41.3H22.96C23.2933 41.3 23.46 41.1333 23.46 40.8V37.9C23.46 37.5667 23.6267 37.4 23.96 37.4H24.5C24.8333 37.4 25 37.5667 25 37.9V40.8C25 41.1333 25.1667 41.3 25.5 41.3H26.38C26.7133 41.3 26.88 41.4667 26.88 41.8V42.34C26.88 42.6733 26.7133 42.84 26.38 42.84H25.5C25.1667 42.84 25 43.0067 25 43.34V45.58C25 45.8067 25.06 45.96 25.18 46.04C25.3133 46.12 25.48 46.12 25.68 46.04L26.2 45.84C26.36 45.7733 26.5 45.7733 26.62 45.84C26.74 45.9067 26.82 46.0333 26.86 46.22L26.98 46.76C27.02 47.0267 26.9267 47.2133 26.7 47.32C26.5133 47.3867 26.3067 47.46 26.08 47.54C25.8667 47.62 25.62 47.7133 25.34 47.82C25.1133 47.9133 25 48.0733 25 48.3V53.58C25 54.38 24.7667 54.86 24.3 55.02C23.9 55.1933 23.2333 55.2867 22.3 55.3C22.0333 55.3 21.86 55.16 21.78 54.88ZM27.84 45.58C27.7467 45.46 27.64 45.3533 27.52 45.26C27.1733 44.94 27.1867 44.6467 27.56 44.38C28.72 43.5267 29.7 42.5 30.5 41.3C30.6467 41.0867 30.8467 41.0133 31.1 41.08L31.62 41.26C31.8067 41.3267 31.92 41.4267 31.96 41.56C32.0133 41.6933 31.9867 41.84 31.88 42C31.4 42.72 30.88 43.38 30.32 43.98C29.7733 44.58 29.18 45.1333 28.54 45.64C28.4333 45.7333 28.3133 45.7733 28.18 45.76C28.06 45.7467 27.9467 45.6867 27.84 45.58ZM36.74 45.38C35.9933 44.3533 34.9867 43.2667 33.72 42.12C33.5867 41.9867 33.52 41.8533 33.52 41.72C33.5333 41.5733 33.62 41.4467 33.78 41.34L34.12 41.08C34.3467 40.9467 34.5533 40.96 34.74 41.12C35.4467 41.72 36.0667 42.3067 36.6 42.88C37.1467 43.44 37.6133 43.98 38 44.5C38.0933 44.62 38.1267 44.7467 38.1 44.88C38.0733 45 38.0067 45.1 37.9 45.18L37.46 45.5C37.3267 45.6067 37.1933 45.6467 37.06 45.62C36.94 45.5933 36.8333 45.5133 36.74 45.38ZM28.22 42.16H27.8C27.4667 42.16 27.3 41.9933 27.3 41.66V38.96C27.3 38.6267 27.4667 38.46 27.8 38.46H37.82C38.1533 38.46 38.32 38.6267 38.32 38.96V41.58C38.32 41.9133 38.1533 42.08 37.82 42.08H37.34C37.0067 42.08 36.84 41.9133 36.84 41.58V40.42C36.84 40.0867 36.6733 39.92 36.34 39.92H29.22C28.8867 39.92 28.72 40.0867 28.72 40.42V41.66C28.72 41.9933 28.5533 42.16 28.22 42.16Z" fill="white"/>
</svg>
