<svg width="32" height="40" viewBox="0 0 32 40" fill="none" xmlns="http://www.w3.org/2000/svg">
    <g clip-path="url(#clip0_507_11850)">
        <path
            d="M31 30C31 32.7615 28.7615 35 26 35C23.2385 35 21 32.7615 21 30C21 27.2367 18.7633 25 16 25C13.2385 25 11 22.7615 11 20C11 17.2385 13.2385 15 16 15C18.7633 15 21 12.7633 21 10C21 7.23853 23.2385 5 26 5C28.7615 5 31 7.23853 31 10C31 12.7615 28.7615 15 26 15C23.2367 15 21 17.2367 21 20C21 22.7633 23.2367 25 26 25C28.7615 25 31 27.2385 31 30Z"
            stroke="#838383" stroke-miterlimit="10" />
    </g>
    <defs>
        <clipPath id="clip0_507_11850">
            <rect width="32" height="40" fill="white" />
        </clipPath>
    </defs>
</svg>