<svg width="32" height="40" viewBox="0 0 32 40" fill="none" xmlns="http://www.w3.org/2000/svg">
<g clip-path="url(#clip0_507_11850)">
<g clip-path="url(#clip1_507_11850)">
<path d="M21.4221 19.9988C21.4221 17.1387 23.7371 14.8237 26.5972 14.8237H21.4221V19.9988Z" fill="#E9C91C"/>
<path d="M16.2471 14.8237C19.1071 14.8237 21.4221 17.1387 21.4221 19.9988V14.8237H16.2471Z" fill="#E9C91C"/>
<path d="M21.4221 9.64893C21.4221 12.509 19.1071 14.824 16.2471 14.824H21.4221V9.64893Z" fill="#E9C91C"/>
<path d="M26.5972 14.824C23.7371 14.824 21.4221 12.509 21.4221 9.64893V14.824H26.5972Z" fill="#E9C91C"/>
<path d="M21.4224 30.3499C21.4224 27.4898 23.7374 25.1748 26.5974 25.1748H21.4224V30.3499Z" fill="#E9C91C"/>
<path d="M16.2473 25.1748C19.1074 25.1748 21.4224 27.4898 21.4224 30.3499V25.1748H16.2473Z" fill="#E9C91C"/>
<path d="M21.4224 20C21.4224 22.8601 19.1074 25.1751 16.2473 25.1751H21.4224V20Z" fill="#E9C91C"/>
<path d="M26.5974 25.1751C23.7374 25.1751 21.4224 22.8601 21.4224 20V25.1751H26.5974Z" fill="#E9C91C"/>
<path d="M16.2473 25.1749C19.1055 25.1749 21.4224 22.8579 21.4224 19.9998C21.4224 17.1417 19.1055 14.8247 16.2473 14.8247C13.3892 14.8247 11.0723 17.1417 11.0723 19.9998C11.0723 22.8579 13.3892 25.1749 16.2473 25.1749Z" fill="#E9C91C"/>
<path d="M26.5974 35.525C29.4556 35.525 31.7725 33.208 31.7725 30.3499C31.7725 27.4918 29.4556 25.1748 26.5974 25.1748C23.7393 25.1748 21.4224 27.4918 21.4224 30.3499C21.4224 33.208 23.7393 35.525 26.5974 35.525Z" fill="#E9C91C"/>
<path d="M26.5974 14.8248C29.4556 14.8248 31.7725 12.5078 31.7725 9.64968C31.7725 6.79157 29.4556 4.47461 26.5974 4.47461C23.7393 4.47461 21.4224 6.79157 21.4224 9.64968C21.4224 12.5078 23.7393 14.8248 26.5974 14.8248Z" fill="#E9C91C"/>
<path d="M30.7726 20.0003C30.7726 22.3061 28.9034 24.1753 26.5976 24.1753C24.2917 24.1753 22.4225 22.3061 22.4225 20.0003C22.4225 17.6944 24.2917 15.8252 26.5976 15.8252C28.9034 15.8252 30.7726 17.6944 30.7726 20.0003Z" stroke="#F8E37D" stroke-width="2" stroke-miterlimit="10"/>
<path d="M16.2344 13.8242C16.2255 13.824 16.2136 13.8238 16.1999 13.8238V13.8249C12.8095 13.8504 10.0723 16.6033 10.0723 19.9998C10.0723 23.0882 12.3354 25.6445 15.2949 26.102V26.1669L16.2858 26.1758C18.5741 26.1965 20.4225 28.0574 20.4225 30.35C20.4225 32.6425 18.5741 34.5035 16.2858 34.5241L16.1852 34.5251H6.94472V34.5241H5.94472C5.931 34.5241 5.91913 34.5243 5.91019 34.5245L5.89066 34.525L5.89034 34.525C3.60095 34.5213 1.74374 32.6744 1.72308 30.3884L1.72217 30.2878V9.71131L1.72308 9.6113C1.74376 7.33629 3.58385 5.4962 5.85885 5.47552L5.95887 5.47461H15.1999V5.47556H16.1999C16.2136 5.47556 16.2255 5.47536 16.2344 5.47516L16.254 5.47462C16.2541 5.47462 16.2542 5.47462 16.2543 5.47461C18.557 5.47834 20.4225 7.34611 20.4225 9.64968C20.4225 11.9533 18.557 13.821 16.2543 13.8248L16.254 13.8247L16.2344 13.8242Z" stroke="#F8E37D" stroke-width="2" stroke-miterlimit="10"/>
</g>
</g>
<defs>
<clipPath id="clip0_507_11850">
<rect width="32" height="40" fill="white"/>
</clipPath>
<clipPath id="clip1_507_11850">
<rect width="32.095" height="32" fill="white" transform="translate(0.199707 4)"/>
</clipPath>
</defs>
</svg>
