<svg width="40" height="61" viewBox="0 0 40 61" fill="none" xmlns="http://www.w3.org/2000/svg">
<path d="M18.42 50.12H1.68C1.34667 50.12 1.18 49.9533 1.18 49.62V49.02C1.18 48.6867 1.34667 48.52 1.68 48.52H5.18C5.51333 48.52 5.68 48.3533 5.68 48.02V44.6C5.68 44.2667 5.51333 44.1 5.18 44.1H2.46C2.12667 44.1 1.96 43.9333 1.96 43.6V43C1.96 42.6667 2.12667 42.5 2.46 42.5H5.18C5.51333 42.5 5.68 42.3333 5.68 42V39.06C5.68 38.7267 5.84667 38.56 6.18 38.56H6.82C7.15333 38.56 7.32 38.7267 7.32 39.06V42C7.32 42.3333 7.48667 42.5 7.82 42.5H12.18C12.5133 42.5 12.68 42.3333 12.68 42V39.06C12.68 38.7267 12.8467 38.56 13.18 38.56H13.84C14.1733 38.56 14.34 38.7267 14.34 39.06V42C14.34 42.3333 14.5067 42.5 14.84 42.5H17.72C18.0533 42.5 18.22 42.6667 18.22 43V43.6C18.22 43.9333 18.0533 44.1 17.72 44.1H14.84C14.5067 44.1 14.34 44.2667 14.34 44.6V48.02C14.34 48.3533 14.5067 48.52 14.84 48.52H18.42C18.7533 48.52 18.92 48.6867 18.92 49.02V49.62C18.92 49.9533 18.7533 50.12 18.42 50.12ZM12.68 48.02V44.6C12.68 44.2667 12.5133 44.1 12.18 44.1H7.82C7.48667 44.1 7.32 44.2667 7.32 44.6V48.02C7.32 48.3533 7.48667 48.52 7.82 48.52H12.18C12.5133 48.52 12.68 48.3533 12.68 48.02ZM16.72 56.16C16.12 55.6 15.44 55 14.68 54.36C13.9333 53.72 13.08 53.04 12.12 52.32C11.9333 52.1733 11.8467 52.0267 11.86 51.88C11.8733 51.72 11.9733 51.5867 12.16 51.48L12.66 51.18C12.8333 51.0733 13.0133 51.08 13.2 51.2C14.1733 51.8933 15.06 52.5533 15.86 53.18C16.6733 53.8067 17.4067 54.4133 18.06 55C18.2067 55.1333 18.2733 55.2667 18.26 55.4C18.2467 55.5467 18.16 55.6733 18 55.78L17.34 56.22C17.2333 56.2867 17.12 56.3133 17 56.3C16.8933 56.2867 16.8 56.24 16.72 56.16ZM2.36 56.16C2.29333 56.0933 2.22667 56.0267 2.16 55.96C2.09333 55.9067 2.02 55.8467 1.94 55.78C1.58 55.4467 1.60667 55.1533 2.02 54.9C3.91333 53.8333 5.38 52.64 6.42 51.32C6.56667 51.12 6.76667 51.0667 7.02 51.16L7.7 51.44C7.9 51.52 8.02 51.6333 8.06 51.78C8.1 51.9267 8.04667 52.0733 7.9 52.22C6.47333 53.7667 4.84 55.1067 3 56.24C2.77333 56.3867 2.56 56.36 2.36 56.16ZM37.78 56.26C36.1133 55.3267 34.8333 54.0067 33.94 52.3C33.7133 51.8733 33.5067 51.66 33.32 51.66C33.1467 51.66 32.9467 51.8667 32.72 52.28C31.8267 53.84 30.2267 55.1533 27.92 56.22C27.6533 56.3267 27.4333 56.26 27.26 56.02L27.02 55.72C26.7 55.3333 26.7533 55.0467 27.18 54.86C28.6867 54.1533 29.7933 53.38 30.5 52.54C30.8467 52.14 31.1333 51.7333 31.36 51.32C31.5867 50.8933 31.7733 50.4667 31.92 50.04C31.9867 49.8533 31.9733 49.7067 31.88 49.6C31.7867 49.4933 31.6467 49.44 31.46 49.44H27.9C27.5667 49.44 27.4 49.2733 27.4 48.94V48.42C27.4 48.0867 27.5667 47.92 27.9 47.92H28.2C28.5333 47.92 28.7 47.7533 28.7 47.42V42.02C28.7 41.6867 28.8667 41.52 29.2 41.52H31.92C32.2533 41.52 32.42 41.3533 32.42 41.02V39C32.42 38.6667 32.5867 38.5 32.92 38.5H33.48C33.8133 38.5 33.98 38.6667 33.98 39V41.02C33.98 41.3533 34.1467 41.52 34.48 41.52H37.5C37.8333 41.52 38 41.6867 38 42.02V47.42C38 47.7533 38.1667 47.92 38.5 47.92H38.64C38.9733 47.92 39.14 48.0867 39.14 48.42V48.94C39.14 49.2733 38.9733 49.44 38.64 49.44H35.1C34.9 49.44 34.7533 49.5 34.66 49.62C34.58 49.74 34.5733 49.8933 34.64 50.08C35.4267 52.24 36.7333 53.82 38.56 54.82C38.9733 55.06 39.0267 55.3667 38.72 55.74C38.6133 55.8733 38.5267 55.9867 38.46 56.08C38.3667 56.2 38.26 56.28 38.14 56.32C38.02 56.36 37.9 56.34 37.78 56.26ZM36.44 47.42V43.54C36.44 43.2067 36.2733 43.04 35.94 43.04H34.48C34.1467 43.04 33.98 43.2067 33.98 43.54C33.98 44.4467 33.9733 45.22 33.96 45.86C33.96 46.4867 33.9533 46.9933 33.94 47.38C33.9267 47.54 33.9667 47.6733 34.06 47.78C34.1533 47.8733 34.28 47.92 34.44 47.92H35.94C36.2733 47.92 36.44 47.7533 36.44 47.42ZM32.36 47.48C32.4 47 32.42 46.4933 32.42 45.96V43.54C32.42 43.2067 32.2533 43.04 31.92 43.04H30.72C30.3867 43.04 30.22 43.2067 30.22 43.54V47.42C30.22 47.7533 30.3867 47.92 30.72 47.92H31.88C32.1733 47.92 32.3333 47.7733 32.36 47.48ZM22.72 54.3H22.2C21.8667 54.3 21.7 54.1333 21.7 53.8V40.32C21.7 39.9867 21.8667 39.82 22.2 39.82H26.48C26.8133 39.82 26.98 39.9867 26.98 40.32V52.24C26.98 52.5733 26.8133 52.74 26.48 52.74H23.72C23.3867 52.74 23.22 52.9067 23.22 53.24V53.8C23.22 54.1333 23.0533 54.3 22.72 54.3ZM25.46 50.72V47.44C25.46 47.1067 25.2933 46.94 24.96 46.94H23.72C23.3867 46.94 23.22 47.1067 23.22 47.44V50.72C23.22 51.0533 23.3867 51.22 23.72 51.22H24.96C25.2933 51.22 25.46 51.0533 25.46 50.72ZM25.46 44.96V41.84C25.46 41.5067 25.2933 41.34 24.96 41.34H23.72C23.3867 41.34 23.22 41.5067 23.22 41.84V44.96C23.22 45.2933 23.3867 45.46 23.72 45.46H24.96C25.2933 45.46 25.46 45.2933 25.46 44.96Z" fill="white"/>
<g clip-path="url(#clip0_586_35900)">
<path d="M25.0759 12.5C25.0552 10.2224 23.2132 8.38037 20.9356 8.35966V8.3589H12.5383C10.2285 8.3589 8.3589 6.48926 8.3589 4.17945C8.3589 1.87117 6.48773 0 4.17945 0C1.87117 0 0 1.87117 0 4.17945C0 4.19248 0.00076762 4.20475 0.00076762 4.21779H0V20.8589H0.00076762C0.0214731 23.1495 1.8842 25 4.17945 25C6.47469 25 8.33742 23.1495 8.35813 20.8589C8.35813 20.8719 8.3589 20.8842 8.3589 20.8972C8.3589 18.5874 10.2285 16.7178 12.5383 16.7178C14.8482 16.7178 16.7178 18.5874 16.7178 20.8972C16.7178 20.8842 16.7186 20.8719 16.7186 20.8589C16.7393 23.1495 18.602 25 20.8972 25C23.2055 25 25.0767 23.1288 25.0767 20.8206C25.0767 20.8075 25.0759 20.7952 25.0759 20.7822H25.0767V12.5H25.0759Z" fill="white"/>
</g>
<defs>
<clipPath id="clip0_586_35900">
<rect width="25.0767" height="25" fill="white"/>
</clipPath>
</defs>
</svg>
