<svg width="32" height="40" viewBox="0 0 32 40" fill="none" xmlns="http://www.w3.org/2000/svg">
    <g clip-path="url(#clip0_507_11850)">
        <g clip-path="url(#clip1_507_11850)">
            <path
                d="M1 20C1 17.2385 3.23853 15 6 15C6.17064 15 6.33853 15.0083 6.50459 15.0257V15H16C18.7633 15 21 12.7633 21 10C21 7.23853 23.2385 5 26 5C28.7615 5 31 7.23853 31 10C31 12.7615 28.7615 15 26 15C23.2358 15 21 17.2367 21 20C21 21.3817 21.5587 22.6312 22.4633 23.5358C23.3679 24.4404 24.6184 25 26 25H26.0459V25.0009C28.7862 25.0257 31 27.2541 31 30C31 32.7459 28.7862 34.9743 26.0459 34.9991V35H16.0459V34.9991C16.0303 34.9991 16.0156 35 16 35C13.2385 35 11 32.7615 11 30C11 27.2367 8.7633 25 6 25C3.23853 25 1 22.7615 1 20Z"
                stroke="#838383" stroke-miterlimit="10" />
        </g>
    </g>
    <defs>
        <clipPath id="clip0_507_11850">
            <rect width="32" height="40" fill="white" />
        </clipPath>
        <clipPath id="clip1_507_11850">
            <rect width="32" height="32" fill="white" transform="translate(0 4)" />
        </clipPath>
    </defs>
</svg>