<svg width="32" height="40" viewBox="0 0 32 40" fill="none" xmlns="http://www.w3.org/2000/svg">
<g clip-path="url(#clip0_507_11850)">
<g clip-path="url(#clip1_507_11850)">
<path d="M5.68027 25.2062C8.52993 25.2062 10.84 22.8961 10.84 20.0465C10.84 17.1968 8.52993 14.8867 5.68027 14.8867C2.83061 14.8867 0.520508 17.1968 0.520508 20.0465C0.520508 22.8961 2.83061 25.2062 5.68027 25.2062Z" fill="#56CF71"/>
<path d="M26.3193 35.5256C29.169 35.5256 31.4791 33.2155 31.4791 30.3658C31.4791 27.5162 29.169 25.2061 26.3193 25.2061C23.4697 25.2061 21.1595 27.5162 21.1595 30.3658C21.1595 33.2155 23.4697 35.5256 26.3193 35.5256Z" fill="#56CF71"/>
<path d="M15.9999 35.5256C18.8495 35.5256 21.1596 33.2155 21.1596 30.3658C21.1596 27.5162 18.8495 25.2061 15.9999 25.2061C13.1502 25.2061 10.8401 27.5162 10.8401 30.3658C10.8401 33.2155 13.1502 35.5256 15.9999 35.5256Z" fill="#56CF71"/>
<path d="M15.9999 25.2062C18.8495 25.2062 21.1596 22.8961 21.1596 20.0465C21.1596 17.1968 18.8495 14.8867 15.9999 14.8867C13.1502 14.8867 10.8401 17.1968 10.8401 20.0465C10.8401 22.8961 13.1502 25.2062 15.9999 25.2062Z" fill="#56CF71"/>
<path d="M26.3193 14.8869C29.169 14.8869 31.4791 12.5768 31.4791 9.72715C31.4791 6.87749 29.169 4.56738 26.3193 4.56738C23.4697 4.56738 21.1595 6.87749 21.1595 9.72715C21.1595 12.5768 23.4697 14.8869 26.3193 14.8869Z" fill="#56CF71"/>
<path d="M15.9998 14.8867C18.8514 14.8867 21.1595 17.1949 21.1595 20.0465V14.8867H15.9998Z" fill="#56CF71"/>
<path d="M21.1595 9.72656C21.1595 12.5782 18.8514 14.8863 15.9998 14.8863H21.1595V9.72656Z" fill="#56CF71"/>
<path d="M26.3193 14.8863C23.4677 14.8863 21.1595 12.5782 21.1595 9.72656V14.8863H26.3193Z" fill="#56CF71"/>
<path d="M21.1595 20.0465C21.1595 17.1949 23.4677 14.8867 26.3193 14.8867H21.1595V20.0465Z" fill="#56CF71"/>
<path d="M5.68005 25.207C8.53165 25.207 10.8398 27.5152 10.8398 30.3668V25.207H5.68005Z" fill="#56CF71"/>
<path d="M10.8398 20.0469C10.8398 22.8985 8.53165 25.2066 5.68005 25.2066H10.8398V20.0469Z" fill="#56CF71"/>
<path d="M15.9996 25.2066C13.148 25.2066 10.8398 22.8985 10.8398 20.0469V25.2066H15.9996Z" fill="#56CF71"/>
<path d="M10.8398 30.3668C10.8398 27.5152 13.148 25.207 15.9996 25.207H10.8398V30.3668Z" fill="#56CF71"/>
<path d="M15.9998 25.207C18.8514 25.207 21.1595 27.5152 21.1595 30.3668V25.207H15.9998Z" fill="#56CF71"/>
<path d="M21.1595 20.0469C21.1595 22.8985 18.8514 25.2066 15.9998 25.2066H21.1595V20.0469Z" fill="#56CF71"/>
<path d="M26.3193 25.2066C23.4677 25.2066 21.1595 22.8985 21.1595 20.0469V25.2066H26.3193Z" fill="#56CF71"/>
<path d="M21.1595 30.3668C21.1595 27.5152 23.4677 25.207 26.3193 25.207H21.1595V30.3668Z" fill="#56CF71"/>
<path d="M6.20093 14.8865L6.20093 25.2061H16.5205V14.8865H6.20093Z" fill="#56CF71"/>
<path d="M16.0471 25.2068V35.5264H26.3666V25.2068H16.0471Z" fill="#56CF71"/>
<path d="M16.0355 13.8859H6.86891V13.8413L5.82895 13.8829C5.77819 13.885 5.75089 13.8859 5.7269 13.8859C3.42948 13.8859 1.56714 12.0236 1.56714 9.72617C1.56714 7.42875 3.42948 5.56641 5.7269 5.56641C5.74846 5.56641 5.75228 5.56665 5.7596 5.56712C5.76895 5.56773 5.78401 5.5687 5.84892 5.57L6.86891 5.5904V5.56641H16.0339L16.1616 5.56984C18.4051 5.63012 20.2062 7.4683 20.2062 9.72617C20.2062 11.9837 18.4053 13.8214 16.1612 13.8825L16.0355 13.8859Z" stroke="#A5E4B3" stroke-width="2" stroke-miterlimit="10"/>
<path d="M30.5258 20.0455C30.5258 22.3429 28.6634 24.2053 26.3661 24.2053C24.0687 24.2053 22.2063 22.3429 22.2063 20.0455C22.2063 17.7481 24.0687 15.8857 26.3661 15.8857C28.6634 15.8857 30.5258 17.7481 30.5258 20.0455Z" stroke="#A5E4B3" stroke-width="2" stroke-miterlimit="10"/>
<path d="M9.88667 30.3648C9.88667 32.6622 8.02428 34.5246 5.7269 34.5246C3.42953 34.5246 1.56714 32.6622 1.56714 30.3648C1.56714 28.0675 3.42953 26.2051 5.7269 26.2051C8.02428 26.2051 9.88667 28.0675 9.88667 30.3648Z" stroke="#A5E4B3" stroke-width="2" stroke-miterlimit="10"/>
</g>
</g>
<defs>
<clipPath id="clip0_507_11850">
<rect width="32" height="40" fill="white"/>
</clipPath>
<clipPath id="clip1_507_11850">
<rect width="32" height="32" fill="white" transform="translate(0 4)"/>
</clipPath>
</defs>
</svg>
