<svg width="32" height="40" viewBox="0 0 32 40" fill="none" xmlns="http://www.w3.org/2000/svg">
    <g style="mix-blend-mode:difference" opacity="0.64">
        <g clip-path="url(#clip0_503_943)">
            <path
                d="M20 23.2114C20 23.6451 19.654 24 19.2312 24H12.7688C12.5649 24 12.3693 23.9169 12.2252 23.769C12.081 23.6211 12 23.4205 12 23.2114V16.7886C12 16.5795 12.081 16.3789 12.2252 16.231C12.3693 16.0831 12.5649 16 12.7688 16H19.2312C19.654 16 20 16.3549 20 16.7886V23.2114Z"
                fill="#838383" />
            <path fill-rule="evenodd" clip-rule="evenodd"
                d="M16 36C24.8366 36 32 28.8366 32 20C32 11.1634 24.8366 4 16 4C7.16344 4 0 11.1634 0 20C0 28.8366 7.16344 36 16 36ZM16 35C24.2843 35 31 28.2843 31 20C31 11.7157 24.2843 5 16 5C7.71573 5 1 11.7157 1 20C1 28.2843 7.71573 35 16 35Z"
                fill="#838383" />
        </g>
    </g>
    <defs>
        <clipPath id="clip0_503_943">
            <rect width="32" height="32" fill="white" transform="translate(0 4)" />
        </clipPath>
    </defs>
</svg>