<svg width="32" height="40" viewBox="0 0 32 40" fill="none" xmlns="http://www.w3.org/2000/svg">
<g clip-path="url(#clip0_503_694)">
<path d="M21.204 24.0717C21.204 24.6217 20.754 25.0717 20.204 25.0717H11.798C11.5328 25.0717 11.2784 24.9664 11.0909 24.7788C10.9033 24.5913 10.798 24.337 10.798 24.0717V15.9277C10.798 15.6625 10.9033 15.4082 11.0909 15.2206C11.2784 15.0331 11.5328 14.9277 11.798 14.9277H20.204C20.754 14.9277 21.204 15.3777 21.204 15.9277V24.0717Z" fill="#262626"/>
<path d="M31.736 20.0037C31.7402 17.9355 31.336 15.8868 30.5465 13.9753C29.757 12.0637 28.5977 10.3269 27.1353 8.86444C25.6729 7.402 23.936 6.24277 22.0244 5.45325C20.1129 4.66374 18.0642 4.25949 15.996 4.2637C13.9295 4.26037 11.8827 4.66519 9.97307 5.45493C8.06343 6.24466 6.32855 7.40376 4.86802 8.8657C3.40426 10.3271 2.24392 12.0634 1.45378 13.975C0.663645 15.8865 0.259301 17.9353 0.264019 20.0037C0.252905 22.0731 0.652728 24.124 1.4403 26.0377C2.22788 27.9514 3.38753 29.6896 4.85202 31.1517C6.31298 32.6157 8.05028 33.7749 9.96301 34.5618C11.8757 35.3487 13.9258 35.7478 15.994 35.7357C24.66 35.6477 31.736 28.6657 31.736 20.0037ZM2.11202 20.0037C2.11097 18.1798 2.46931 16.3735 3.16658 14.6881C3.86385 13.0027 4.88637 11.4712 6.17572 10.1811C7.46507 8.89097 8.99599 7.86756 10.681 7.16933C12.366 6.47109 14.1721 6.1117 15.996 6.1117C23.714 6.1117 29.974 12.3657 29.974 20.0037C29.974 27.6297 23.714 33.8917 15.996 33.8917C14.1701 33.8999 12.3607 33.5463 10.6722 32.8512C8.98376 32.1561 7.44976 31.1334 6.15882 29.8421C4.86789 28.5508 3.84559 27.0165 3.151 25.3278C2.45641 23.6392 2.10328 21.8296 2.11202 20.0037Z" fill="#262626"/>
</g>
<defs>
<clipPath id="clip0_503_694">
<rect width="32" height="32" fill="white" transform="translate(0 4)"/>
</clipPath>
</defs>
</svg>
