<svg width="395" height="35" viewBox="0 0 395 35" fill="none" xmlns="http://www.w3.org/2000/svg">
<g clip-path="url(#clip0_599_42531)">
<path d="M281.943 11.0364C283.568 11.0364 284.886 9.69734 284.886 8.04554C284.886 6.39374 283.568 5.05469 281.943 5.05469C280.318 5.05469 279 6.39374 279 8.04554C279 9.69734 280.318 11.0364 281.943 11.0364Z" fill="#9DF4A3"/>
<path d="M287.83 17.0169C289.455 17.0169 290.773 15.6778 290.773 14.026C290.773 12.3742 289.455 11.0352 287.83 11.0352C286.204 11.0352 284.887 12.3742 284.887 14.026C284.887 15.6778 286.204 17.0169 287.83 17.0169Z" fill="#9DF4A3"/>
<path d="M281.943 23.0012C283.568 23.0012 284.886 21.6622 284.886 20.0104C284.886 18.3586 283.568 17.0195 281.943 17.0195C280.318 17.0195 279 18.3586 279 20.0104C279 21.6622 280.318 23.0012 281.943 23.0012Z" fill="#9DF4A3"/>
<path d="M284.887 14.026C284.887 13.6332 284.962 13.2442 285.11 12.8812C285.258 12.5182 285.475 12.1884 285.748 11.9107C286.021 11.6329 286.346 11.4126 286.703 11.2624C287.06 11.1122 287.443 11.0349 287.829 11.0352H284.887V14.026Z" fill="#9DF4A3"/>
<path d="M281.943 11.0352C282.33 11.0349 282.713 11.1122 283.07 11.2624C283.427 11.4126 283.751 11.6329 284.025 11.9107C284.298 12.1884 284.515 12.5182 284.663 12.8812C284.81 13.2442 284.886 13.6332 284.886 14.026V11.0352H281.943Z" fill="#9DF4A3"/>
<path d="M284.886 8.04688C284.886 8.4397 284.81 8.82872 284.663 9.19168C284.515 9.55465 284.298 9.88444 284.025 10.1622C283.751 10.44 283.427 10.6603 283.07 10.8105C282.713 10.9607 282.33 11.0379 281.943 11.0377H284.886V8.04688Z" fill="#9DF4A3"/>
<path d="M287.829 11.0377C287.443 11.0379 287.06 10.9607 286.703 10.8105C286.346 10.6603 286.021 10.44 285.748 10.1622C285.475 9.88444 285.258 9.55465 285.11 9.19168C284.962 8.82872 284.887 8.4397 284.887 8.04688V11.0377H287.829Z" fill="#9DF4A3"/>
<path d="M284.887 20.0104C284.887 19.6176 284.962 19.2285 285.11 18.8656C285.258 18.5026 285.475 18.1728 285.748 17.895C286.021 17.6173 286.346 17.397 286.703 17.2468C287.06 17.0965 287.443 17.0193 287.829 17.0195H284.887V20.0104Z" fill="#9DF4A3"/>
<path d="M281.943 17.0195C282.33 17.0193 282.713 17.0965 283.07 17.2468C283.427 17.397 283.751 17.6173 284.025 17.895C284.298 18.1728 284.515 18.5026 284.663 18.8656C284.81 19.2285 284.886 19.6176 284.886 20.0104V17.0195H281.943Z" fill="#9DF4A3"/>
<path d="M284.886 14.0273C284.886 14.4202 284.81 14.8092 284.663 15.1722C284.515 15.5351 284.298 15.8649 284.025 16.1427C283.751 16.4204 283.427 16.6407 283.07 16.791C282.713 16.9412 282.33 17.0184 281.943 17.0182H284.886V14.0273Z" fill="#9DF4A3"/>
<path d="M287.829 17.0182C287.443 17.0184 287.06 16.9412 286.703 16.791C286.346 16.6407 286.021 16.4204 285.748 16.1427C285.475 15.8649 285.258 15.5351 285.11 15.1722C284.962 14.8092 284.887 14.4202 284.887 14.0273V17.0182H287.829Z" fill="#9DF4A3"/>
<path d="M295.82 10.9817C297.445 10.9817 298.763 9.64266 298.763 7.99085C298.763 6.33905 297.445 5 295.82 5C294.195 5 292.877 6.33905 292.877 7.99085C292.877 9.64266 294.195 10.9817 295.82 10.9817Z" fill="#81EA8D"/>
<path d="M301.707 16.9622C303.332 16.9622 304.65 15.6231 304.65 13.9713C304.65 12.3195 303.332 10.9805 301.707 10.9805C300.081 10.9805 298.764 12.3195 298.764 13.9713C298.764 15.6231 300.081 16.9622 301.707 16.9622Z" fill="#81EA8D"/>
<path d="M295.82 22.9466C297.445 22.9466 298.763 21.6075 298.763 19.9557C298.763 18.3039 297.445 16.9648 295.82 16.9648C294.195 16.9648 292.877 18.3039 292.877 19.9557C292.877 21.6075 294.195 22.9466 295.82 22.9466Z" fill="#81EA8D"/>
<path d="M298.764 13.9713C298.763 13.5785 298.839 13.1895 298.987 12.8265C299.135 12.4636 299.352 12.1338 299.625 11.856C299.898 11.5782 300.223 11.3579 300.58 11.2077C300.937 11.0575 301.32 10.9803 301.706 10.9805H298.764V13.9713Z" fill="#81EA8D"/>
<path d="M295.82 10.9805C296.207 10.9803 296.59 11.0575 296.947 11.2077C297.304 11.3579 297.628 11.5782 297.902 11.856C298.175 12.1338 298.392 12.4636 298.54 12.8265C298.687 13.1895 298.763 13.5785 298.763 13.9713V10.9805H295.82Z" fill="#81EA8D"/>
<path d="M298.763 7.99219C298.763 8.38501 298.687 8.77403 298.54 9.13699C298.392 9.49996 298.175 9.82975 297.902 10.1075C297.628 10.3853 297.304 10.6056 296.947 10.7558C296.59 10.906 296.207 10.9833 295.82 10.983H298.763V7.99219Z" fill="#81EA8D"/>
<path d="M301.706 10.983C301.32 10.9833 300.937 10.906 300.58 10.7558C300.223 10.6056 299.898 10.3853 299.625 10.1075C299.352 9.82975 299.135 9.49996 298.987 9.13699C298.839 8.77403 298.763 8.38501 298.764 7.99219V10.983H301.706Z" fill="#81EA8D"/>
<path d="M298.764 19.9557C298.763 19.5629 298.839 19.1739 298.987 18.8109C299.135 18.4479 299.352 18.1181 299.625 17.8404C299.898 17.5626 300.223 17.3423 300.58 17.1921C300.937 17.0418 301.32 16.9646 301.706 16.9648H298.764V19.9557Z" fill="#81EA8D"/>
<path d="M295.82 16.9648C296.207 16.9646 296.59 17.0418 296.947 17.1921C297.304 17.3423 297.628 17.5626 297.902 17.8404C298.175 18.1181 298.392 18.4479 298.54 18.8109C298.687 19.1739 298.763 19.5629 298.763 19.9557V16.9648H295.82Z" fill="#81EA8D"/>
<path d="M298.763 13.9727C298.763 14.3655 298.687 14.7545 298.54 15.1175C298.392 15.4804 298.175 15.8102 297.902 16.088C297.628 16.3658 297.304 16.5861 296.947 16.7363C296.59 16.8865 296.207 16.9637 295.82 16.9635H298.763V13.9727Z" fill="#81EA8D"/>
<path d="M301.706 16.9635C301.32 16.9637 300.937 16.8865 300.58 16.7363C300.223 16.5861 299.898 16.3658 299.625 16.088C299.352 15.8102 299.135 15.4804 298.987 15.1175C298.839 14.7545 298.763 14.3655 298.764 13.9727V16.9635H301.706Z" fill="#81EA8D"/>
<path d="M310.455 10.9817C312.08 10.9817 313.398 9.64266 313.398 7.99085C313.398 6.33905 312.08 5 310.455 5C308.829 5 307.512 6.33905 307.512 7.99085C307.512 9.64266 308.829 10.9817 310.455 10.9817Z" fill="#6CE07D"/>
<path d="M316.341 16.9622C317.967 16.9622 319.284 15.6231 319.284 13.9713C319.284 12.3195 317.967 10.9805 316.341 10.9805C314.716 10.9805 313.398 12.3195 313.398 13.9713C313.398 15.6231 314.716 16.9622 316.341 16.9622Z" fill="#6CE07D"/>
<path d="M310.455 22.9466C312.08 22.9466 313.398 21.6075 313.398 19.9557C313.398 18.3039 312.08 16.9648 310.455 16.9648C308.829 16.9648 307.512 18.3039 307.512 19.9557C307.512 21.6075 308.829 22.9466 310.455 22.9466Z" fill="#6CE07D"/>
<path d="M313.398 13.9713C313.398 13.5785 313.474 13.1895 313.622 12.8265C313.77 12.4636 313.987 12.1338 314.26 11.856C314.533 11.5782 314.858 11.3579 315.215 11.2077C315.572 11.0575 315.955 10.9803 316.341 10.9805H313.398V13.9713Z" fill="#6CE07D"/>
<path d="M310.455 10.9805C310.842 10.9803 311.224 11.0575 311.581 11.2077C311.939 11.3579 312.263 11.5782 312.536 11.856C312.81 12.1338 313.026 12.4636 313.174 12.8265C313.322 13.1895 313.398 13.5785 313.398 13.9713V10.9805H310.455Z" fill="#6CE07D"/>
<path d="M313.398 7.99219C313.398 8.38501 313.322 8.77403 313.174 9.13699C313.026 9.49996 312.81 9.82975 312.536 10.1075C312.263 10.3853 311.939 10.6056 311.581 10.7558C311.224 10.906 310.842 10.9833 310.455 10.983H313.398V7.99219Z" fill="#6CE07D"/>
<path d="M316.341 10.983C315.955 10.9833 315.572 10.906 315.215 10.7558C314.858 10.6056 314.533 10.3853 314.26 10.1075C313.987 9.82975 313.77 9.49996 313.622 9.13699C313.474 8.77403 313.398 8.38501 313.398 7.99219V10.983H316.341Z" fill="#6CE07D"/>
<path d="M313.398 19.9557C313.398 19.5629 313.474 19.1739 313.622 18.8109C313.77 18.4479 313.987 18.1181 314.26 17.8404C314.533 17.5626 314.858 17.3423 315.215 17.1921C315.572 17.0418 315.955 16.9646 316.341 16.9648H313.398V19.9557Z" fill="#6CE07D"/>
<path d="M310.455 16.9648C310.842 16.9646 311.224 17.0418 311.581 17.1921C311.939 17.3423 312.263 17.5626 312.536 17.8404C312.81 18.1181 313.026 18.4479 313.174 18.8109C313.322 19.1739 313.398 19.5629 313.398 19.9557V16.9648H310.455Z" fill="#6CE07D"/>
<path d="M313.398 13.9727C313.398 14.3655 313.322 14.7545 313.174 15.1175C313.026 15.4804 312.81 15.8102 312.536 16.088C312.263 16.3658 311.939 16.5861 311.581 16.7363C311.224 16.8865 310.842 16.9637 310.455 16.9635H313.398V13.9727Z" fill="#6CE07D"/>
<path d="M316.341 16.9635C315.955 16.9637 315.572 16.8865 315.215 16.7363C314.858 16.5861 314.533 16.3658 314.26 16.088C313.987 15.8102 313.77 15.4804 313.622 15.1175C313.474 14.7545 313.398 14.3655 313.398 13.9727V16.9635H316.341Z" fill="#6CE07D"/>
<path d="M323.685 10.9817C325.311 10.9817 326.628 9.64266 326.628 7.99085C326.628 6.33905 325.311 5 323.685 5C322.06 5 320.742 6.33905 320.742 7.99085C320.742 9.64266 322.06 10.9817 323.685 10.9817Z" fill="#56CF71"/>
<path d="M329.57 16.9622C331.195 16.9622 332.513 15.6231 332.513 13.9713C332.513 12.3195 331.195 10.9805 329.57 10.9805C327.945 10.9805 326.627 12.3195 326.627 13.9713C326.627 15.6231 327.945 16.9622 329.57 16.9622Z" fill="#56CF71"/>
<path d="M323.685 22.9466C325.311 22.9466 326.628 21.6075 326.628 19.9557C326.628 18.3039 325.311 16.9648 323.685 16.9648C322.06 16.9648 320.742 18.3039 320.742 19.9557C320.742 21.6075 322.06 22.9466 323.685 22.9466Z" fill="#56CF71"/>
<path d="M326.627 13.9713C326.627 13.5785 326.703 13.1895 326.851 12.8265C326.998 12.4636 327.215 12.1338 327.488 11.856C327.762 11.5782 328.086 11.3579 328.443 11.2077C328.8 11.0575 329.183 10.9803 329.57 10.9805H326.627V13.9713Z" fill="#56CF71"/>
<path d="M323.686 10.9805C324.072 10.9803 324.455 11.0575 324.812 11.2077C325.169 11.3579 325.494 11.5782 325.767 11.856C326.04 12.1338 326.257 12.4636 326.405 12.8265C326.553 13.1895 326.629 13.5785 326.628 13.9713V10.9805H323.686Z" fill="#56CF71"/>
<path d="M326.628 7.99219C326.629 8.38501 326.553 8.77403 326.405 9.13699C326.257 9.49996 326.04 9.82975 325.767 10.1075C325.494 10.3853 325.169 10.6056 324.812 10.7558C324.455 10.906 324.072 10.9833 323.686 10.983H326.628V7.99219Z" fill="#56CF71"/>
<path d="M329.57 10.983C329.183 10.9833 328.8 10.906 328.443 10.7558C328.086 10.6056 327.762 10.3853 327.488 10.1075C327.215 9.82975 326.998 9.49996 326.851 9.13699C326.703 8.77403 326.627 8.38501 326.627 7.99219V10.983H329.57Z" fill="#56CF71"/>
<path d="M326.627 19.9557C326.627 19.5629 326.703 19.1739 326.851 18.8109C326.998 18.4479 327.215 18.1181 327.488 17.8404C327.762 17.5626 328.086 17.3423 328.443 17.1921C328.8 17.0418 329.183 16.9646 329.57 16.9648H326.627V19.9557Z" fill="#56CF71"/>
<path d="M323.686 16.9648C324.072 16.9646 324.455 17.0418 324.812 17.1921C325.169 17.3423 325.494 17.5626 325.767 17.8404C326.04 18.1181 326.257 18.4479 326.405 18.8109C326.553 19.1739 326.629 19.5629 326.628 19.9557V16.9648H323.686Z" fill="#56CF71"/>
<path d="M326.628 13.9727C326.629 14.3655 326.553 14.7545 326.405 15.1175C326.257 15.4804 326.04 15.8102 325.767 16.088C325.494 16.3658 325.169 16.5861 324.812 16.7363C324.455 16.8865 324.072 16.9637 323.686 16.9635H326.628V13.9727Z" fill="#56CF71"/>
<path d="M329.57 16.9635C329.183 16.9637 328.8 16.8865 328.443 16.7363C328.086 16.5861 327.762 16.3658 327.488 16.088C327.215 15.8102 326.998 15.4804 326.851 15.1175C326.703 14.7545 326.627 14.3655 326.627 13.9727V16.9635H329.57Z" fill="#56CF71"/>
</g>
<line y1="13.207" x2="190" y2="13.207" stroke="white" stroke-width="2"/>
<line x1="355.881" y1="13" x2="394.999" y2="13" stroke="white" stroke-width="2"/>
<g style="mix-blend-mode:darken" filter="url(#filter0_bd_599_42531)">
<path d="M196 13.5C196 6.04416 202.044 0 209.5 0H253.5C260.956 0 267 6.04416 267 13.5V13.5C267 20.9558 260.956 27 253.5 27H209.5C202.044 27 196 20.9558 196 13.5V13.5Z" fill="#56CF71"/>
</g>
<path d="M214.576 9.024H208.56C208.347 9.024 208.24 9.13067 208.24 9.344V11.664C208.24 11.76 208.267 11.7707 208.32 11.696C208.373 11.6213 208.437 11.6053 208.512 11.648C208.992 11.8827 209.467 12.1333 209.936 12.4C210.416 12.656 210.912 12.928 211.424 13.216C211.883 13.4933 212.304 13.7547 212.688 14C213.072 14.2347 213.419 14.4587 213.728 14.672C213.899 14.7893 213.92 14.9387 213.792 15.12L213.472 15.552C213.344 15.7333 213.195 15.7547 213.024 15.616C212.747 15.4133 212.443 15.2 212.112 14.976C211.792 14.752 211.429 14.5173 211.024 14.272C210.64 14.0267 210.256 13.7973 209.872 13.584C209.488 13.36 209.099 13.1413 208.704 12.928C208.565 12.8427 208.453 12.8267 208.368 12.88C208.283 12.9333 208.24 13.04 208.24 13.2V20.672C208.24 20.8853 208.133 20.992 207.92 20.992H207.456C207.243 20.992 207.136 20.8853 207.136 20.672V9.344C207.136 9.13067 207.029 9.024 206.816 9.024H201.44C201.227 9.024 201.12 8.91733 201.12 8.704V8.288C201.12 8.07467 201.227 7.968 201.44 7.968H214.576C214.789 7.968 214.896 8.07467 214.896 8.288V8.704C214.896 8.91733 214.789 9.024 214.576 9.024ZM223.456 20.704V11.632C223.456 11.4187 223.563 11.312 223.776 11.312H224.192C224.405 11.312 224.512 11.4187 224.512 11.632V20.704C224.512 20.9173 224.405 21.024 224.192 21.024H223.776C223.563 21.024 223.456 20.9173 223.456 20.704ZM224.368 6.944L224.704 7.104C224.907 7.18933 224.955 7.33333 224.848 7.536C224.827 7.568 224.805 7.6 224.784 7.632C224.773 7.664 224.757 7.696 224.736 7.728C224.651 7.856 224.656 7.97867 224.752 8.096C225.648 9.17333 226.624 10.1067 227.68 10.896C228.704 11.664 229.792 12.336 230.944 12.912C231.125 12.9973 231.147 13.1093 231.008 13.248C230.976 13.28 230.944 13.3173 230.912 13.36C230.88 13.392 230.848 13.424 230.816 13.456C230.72 13.5627 230.656 13.648 230.624 13.712C230.517 13.872 230.379 13.9093 230.208 13.824C229.653 13.5147 229.115 13.1893 228.592 12.848C228.08 12.496 227.579 12.128 227.088 11.744C226.128 10.9973 225.184 10.0907 224.256 9.024C224.085 8.832 223.92 8.832 223.76 9.024C222.107 11.04 220.133 12.6347 217.84 13.808C217.691 13.8933 217.552 13.856 217.424 13.696C217.403 13.6533 217.376 13.616 217.344 13.584C217.312 13.5413 217.28 13.4987 217.248 13.456C217.216 13.4133 217.184 13.376 217.152 13.344C217.12 13.312 217.083 13.2747 217.04 13.232C216.912 13.0933 216.933 12.9813 217.104 12.896C218.48 12.256 219.776 11.424 220.992 10.4C222.197 9.38667 223.184 8.272 223.952 7.056C224.005 6.98133 224.069 6.93333 224.144 6.912C224.219 6.89067 224.293 6.90133 224.368 6.944ZM244.624 8.496H235.792C235.579 8.496 235.472 8.60267 235.472 8.816V9.872C235.472 10.0853 235.579 10.192 235.792 10.192H244.624C244.837 10.192 244.944 10.0853 244.944 9.872V8.816C244.944 8.60267 244.837 8.496 244.624 8.496ZM245.664 11.104H235.792C235.579 11.104 235.472 11.2107 235.472 11.424V12.128C235.472 12.5653 235.461 13.024 235.44 13.504C235.429 13.9733 235.403 14.4747 235.36 15.008C235.285 16.0533 235.115 17.1093 234.848 18.176C234.603 19.1467 234.245 20.0267 233.776 20.816C233.691 20.9547 233.573 20.9813 233.424 20.896L233.216 20.752C233.173 20.7307 233.131 20.7093 233.088 20.688C233.056 20.6667 233.019 20.6453 232.976 20.624C232.827 20.528 232.795 20.416 232.88 20.288C233.317 19.4987 233.648 18.6667 233.872 17.792C234.117 16.8107 234.277 15.8293 234.352 14.848C234.416 13.8667 234.448 12.96 234.448 12.128V7.904C234.448 7.69067 234.555 7.584 234.768 7.584H245.664C245.877 7.584 245.984 7.69067 245.984 7.904V10.784C245.984 10.9973 245.877 11.104 245.664 11.104ZM239.408 13.984V15.072C239.408 15.2853 239.515 15.392 239.728 15.392H242.352C242.565 15.392 242.672 15.2853 242.672 15.072V13.984C242.672 13.7707 242.565 13.664 242.352 13.664H239.728C239.515 13.664 239.408 13.7707 239.408 13.984ZM245.472 16.592L245.696 16.752C245.813 16.8373 245.872 16.928 245.872 17.024C245.872 17.1093 245.819 17.1893 245.712 17.264C245.424 17.4773 245.131 17.68 244.832 17.872C244.544 18.0533 244.245 18.2293 243.936 18.4C243.797 18.4747 243.723 18.56 243.712 18.656C243.712 18.752 243.776 18.8427 243.904 18.928C244.747 19.4613 245.728 19.8667 246.848 20.144C246.997 20.1973 247.019 20.2827 246.912 20.4C246.891 20.432 246.864 20.464 246.832 20.496C246.8 20.528 246.773 20.5653 246.752 20.608C246.731 20.6507 246.704 20.688 246.672 20.72C246.651 20.752 246.629 20.7893 246.608 20.832C246.523 20.9707 246.395 21.024 246.224 20.992C243.589 20.256 241.739 18.7627 240.672 16.512C240.619 16.384 240.523 16.32 240.384 16.32H238.672C238.459 16.32 238.352 16.4267 238.352 16.64V19.232C238.352 19.3493 238.384 19.44 238.448 19.504C238.523 19.5573 238.619 19.568 238.736 19.536L241.6 18.896C241.76 18.864 241.829 18.9227 241.808 19.072L241.792 19.28V19.312V19.504C241.792 19.6427 241.723 19.728 241.584 19.76C241.136 19.8773 240.731 19.9787 240.368 20.064C240.005 20.16 239.685 20.2453 239.408 20.32C239.099 20.3947 238.827 20.4587 238.592 20.512C238.368 20.576 238.181 20.6347 238.032 20.688L237.344 20.896C237.259 20.9173 237.2 20.9387 237.168 20.96C237.083 20.992 237.024 20.9653 236.992 20.88C236.96 20.784 236.917 20.6827 236.864 20.576C236.843 20.5333 236.821 20.4907 236.8 20.448C236.779 20.416 236.757 20.384 236.736 20.352C236.661 20.2347 236.683 20.128 236.8 20.032C236.907 19.9573 237.003 19.872 237.088 19.776C237.259 19.6053 237.344 19.3493 237.344 19.008V16.64C237.344 16.4267 237.237 16.32 237.024 16.32H235.904C235.691 16.32 235.584 16.2133 235.584 16V15.712C235.584 15.4987 235.691 15.392 235.904 15.392H238.112C238.325 15.392 238.432 15.2853 238.432 15.072V13.984C238.432 13.7707 238.325 13.664 238.112 13.664H236.352C236.139 13.664 236.032 13.5573 236.032 13.344V13.088C236.032 12.8747 236.139 12.768 236.352 12.768H238.112C238.325 12.768 238.432 12.6613 238.432 12.448V11.632C238.432 11.4187 238.539 11.312 238.752 11.312H239.088C239.301 11.312 239.408 11.4187 239.408 11.632V12.448C239.408 12.6613 239.515 12.768 239.728 12.768H242.352C242.565 12.768 242.672 12.6613 242.672 12.448V11.632C242.672 11.4187 242.779 11.312 242.992 11.312H243.312C243.525 11.312 243.632 11.4187 243.632 11.632V12.448C243.632 12.6613 243.739 12.768 243.952 12.768H246.016C246.229 12.768 246.336 12.8747 246.336 13.088V13.344C246.336 13.5573 246.229 13.664 246.016 13.664H243.952C243.739 13.664 243.632 13.7707 243.632 13.984V15.072C243.632 15.2853 243.739 15.392 243.952 15.392H246.624C246.837 15.392 246.944 15.4987 246.944 15.712V16C246.944 16.2133 246.837 16.32 246.624 16.32H242.096C241.925 16.32 241.813 16.3627 241.76 16.448C241.717 16.5333 241.739 16.6453 241.824 16.784C241.952 16.9867 242.085 17.184 242.224 17.376C242.363 17.5573 242.512 17.7387 242.672 17.92C242.789 18.0373 242.923 18.0533 243.072 17.968C243.435 17.7547 243.792 17.5253 244.144 17.28C244.325 17.1627 244.491 17.0507 244.64 16.944C244.8 16.8267 244.949 16.7147 245.088 16.608C245.141 16.5653 245.205 16.544 245.28 16.544C245.355 16.5333 245.419 16.5493 245.472 16.592ZM252.192 12V11.648C252.192 11.4347 252.299 11.328 252.512 11.328H262.368C262.581 11.328 262.688 11.4347 262.688 11.648V12C262.688 12.2133 262.581 12.32 262.368 12.32H258.688C258.475 12.32 258.368 12.4267 258.368 12.64V19.648C258.368 20.0107 258.315 20.2773 258.208 20.448C258.08 20.64 257.893 20.7733 257.648 20.848C257.424 20.9013 257.088 20.9387 256.64 20.96C256.203 20.992 255.648 21.008 254.976 21.008C254.816 21.008 254.709 20.9227 254.656 20.752C254.635 20.7093 254.619 20.6667 254.608 20.624C254.608 20.5813 254.597 20.5387 254.576 20.496C254.555 20.4427 254.533 20.3947 254.512 20.352C254.501 20.3093 254.485 20.2667 254.464 20.224C254.379 20.0427 254.432 19.9627 254.624 19.984C254.869 19.9947 255.099 20 255.312 20C255.536 20 255.744 20 255.936 20C256.171 20 256.368 20 256.528 20C256.688 20 256.811 19.9947 256.896 19.984C257.035 19.984 257.141 19.9573 257.216 19.904C257.269 19.8507 257.296 19.76 257.296 19.632V12.64C257.296 12.4267 257.189 12.32 256.976 12.32H252.512C252.299 12.32 252.192 12.2133 252.192 12ZM263.008 8.16V8.496C263.008 8.70933 262.901 8.816 262.688 8.816H251.584C251.371 8.816 251.264 8.92267 251.264 9.136V12.992C251.264 13.7813 251.232 14.6507 251.168 15.6C251.125 16.08 251.067 16.5547 250.992 17.024C250.917 17.4933 250.821 17.9573 250.704 18.416C250.501 19.2373 250.197 20.0107 249.792 20.736C249.707 20.8747 249.6 20.8853 249.472 20.768C249.44 20.7467 249.408 20.72 249.376 20.688C249.344 20.6667 249.307 20.64 249.264 20.608C249.221 20.576 249.179 20.544 249.136 20.512C249.104 20.4907 249.072 20.4693 249.04 20.448C248.891 20.3627 248.853 20.24 248.928 20.08C249.291 19.44 249.568 18.736 249.76 17.968C249.963 17.1467 250.096 16.2933 250.16 15.408C250.181 14.9707 250.197 14.5547 250.208 14.16C250.229 13.7547 250.24 13.3653 250.24 12.992V8.16C250.24 7.94667 250.347 7.84 250.56 7.84H262.688C262.901 7.84 263.008 7.94667 263.008 8.16Z" fill="white"/>
<defs>
<filter id="filter0_bd_599_42531" x="116" y="-80" width="231" height="187" filterUnits="userSpaceOnUse" color-interpolation-filters="sRGB">
<feFlood flood-opacity="0" result="BackgroundImageFix"/>
<feGaussianBlur in="BackgroundImageFix" stdDeviation="40"/>
<feComposite in2="SourceAlpha" operator="in" result="effect1_backgroundBlur_599_42531"/>
<feColorMatrix in="SourceAlpha" type="matrix" values="0 0 0 0 0 0 0 0 0 0 0 0 0 0 0 0 0 0 127 0" result="hardAlpha"/>
<feOffset dy="4"/>
<feGaussianBlur stdDeviation="2"/>
<feComposite in2="hardAlpha" operator="out"/>
<feColorMatrix type="matrix" values="0 0 0 0 0.888333 0 0 0 0 0.873528 0 0 0 0 0.873528 0 0 0 0.25 0"/>
<feBlend mode="normal" in2="effect1_backgroundBlur_599_42531" result="effect2_dropShadow_599_42531"/>
<feBlend mode="normal" in="SourceGraphic" in2="effect2_dropShadow_599_42531" result="shape"/>
</filter>
<clipPath id="clip0_599_42531">
<rect width="53.5135" height="18" fill="white" transform="translate(279 5)"/>
</clipPath>
</defs>
</svg>
