<svg width="396" height="35" viewBox="0 0 396 35" fill="none" xmlns="http://www.w3.org/2000/svg">
<g clip-path="url(#clip0_602_41264)">
<path d="M282.943 11.0364C284.568 11.0364 285.886 9.69734 285.886 8.04554C285.886 6.39374 284.568 5.05469 282.943 5.05469C281.318 5.05469 280 6.39374 280 8.04554C280 9.69734 281.318 11.0364 282.943 11.0364Z" fill="#F9F2F6"/>
<path d="M288.83 17.0169C290.455 17.0169 291.773 15.6778 291.773 14.026C291.773 12.3742 290.455 11.0352 288.83 11.0352C287.204 11.0352 285.887 12.3742 285.887 14.026C285.887 15.6778 287.204 17.0169 288.83 17.0169Z" fill="#F9F2F6"/>
<path d="M282.943 23.0012C284.568 23.0012 285.886 21.6622 285.886 20.0104C285.886 18.3586 284.568 17.0195 282.943 17.0195C281.318 17.0195 280 18.3586 280 20.0104C280 21.6622 281.318 23.0012 282.943 23.0012Z" fill="#F9F2F6"/>
<path d="M285.887 14.026C285.887 13.6332 285.962 13.2442 286.11 12.8812C286.258 12.5182 286.475 12.1884 286.748 11.9107C287.021 11.6329 287.346 11.4126 287.703 11.2624C288.06 11.1122 288.443 11.0349 288.829 11.0352H285.887V14.026Z" fill="#F9F2F6"/>
<path d="M282.941 11.0352C283.328 11.0349 283.711 11.1122 284.068 11.2624C284.425 11.4126 284.749 11.6329 285.023 11.9107C285.296 12.1884 285.513 12.5182 285.661 12.8812C285.808 13.2442 285.884 13.6332 285.884 14.026V11.0352H282.941Z" fill="#F9F2F6"/>
<path d="M285.884 8.04688C285.884 8.4397 285.808 8.82872 285.661 9.19168C285.513 9.55465 285.296 9.88444 285.023 10.1622C284.749 10.44 284.425 10.6603 284.068 10.8105C283.711 10.9607 283.328 11.0379 282.941 11.0377H285.884V8.04688Z" fill="#F9F2F6"/>
<path d="M288.829 11.0377C288.443 11.0379 288.06 10.9607 287.703 10.8105C287.346 10.6603 287.021 10.44 286.748 10.1622C286.475 9.88444 286.258 9.55465 286.11 9.19168C285.962 8.82872 285.887 8.4397 285.887 8.04688V11.0377H288.829Z" fill="#F9F2F6"/>
<path d="M285.887 20.0104C285.887 19.6176 285.962 19.2285 286.11 18.8656C286.258 18.5026 286.475 18.1728 286.748 17.895C287.021 17.6173 287.346 17.397 287.703 17.2468C288.06 17.0965 288.443 17.0193 288.829 17.0195H285.887V20.0104Z" fill="#F9F2F6"/>
<path d="M282.941 17.0195C283.328 17.0193 283.711 17.0965 284.068 17.2468C284.425 17.397 284.749 17.6173 285.023 17.895C285.296 18.1728 285.513 18.5026 285.661 18.8656C285.808 19.2285 285.884 19.6176 285.884 20.0104V17.0195H282.941Z" fill="#F9F2F6"/>
<path d="M285.884 14.0273C285.884 14.4202 285.808 14.8092 285.661 15.1722C285.513 15.5351 285.296 15.8649 285.023 16.1427C284.749 16.4204 284.425 16.6407 284.068 16.791C283.711 16.9412 283.328 17.0184 282.941 17.0182H285.884V14.0273Z" fill="#F9F2F6"/>
<path d="M288.829 17.0182C288.443 17.0184 288.06 16.9412 287.703 16.791C287.346 16.6407 287.021 16.4204 286.748 16.1427C286.475 15.8649 286.258 15.5351 286.11 15.1722C285.962 14.8092 285.887 14.4202 285.887 14.0273V17.0182H288.829Z" fill="#F9F2F6"/>
<path d="M296.822 10.9817C298.447 10.9817 299.765 9.64266 299.765 7.99085C299.765 6.33905 298.447 5 296.822 5C295.197 5 293.879 6.33905 293.879 7.99085C293.879 9.64266 295.197 10.9817 296.822 10.9817Z" fill="#F9EDF4"/>
<path d="M302.709 16.9622C304.334 16.9622 305.652 15.6231 305.652 13.9713C305.652 12.3195 304.334 10.9805 302.709 10.9805C301.083 10.9805 299.766 12.3195 299.766 13.9713C299.766 15.6231 301.083 16.9622 302.709 16.9622Z" fill="#F9EDF4"/>
<path d="M296.822 22.9466C298.447 22.9466 299.765 21.6075 299.765 19.9557C299.765 18.3039 298.447 16.9648 296.822 16.9648C295.197 16.9648 293.879 18.3039 293.879 19.9557C293.879 21.6075 295.197 22.9466 296.822 22.9466Z" fill="#F9EDF4"/>
<path d="M299.766 13.9713C299.765 13.5785 299.841 13.1895 299.989 12.8265C300.137 12.4636 300.354 12.1338 300.627 11.856C300.9 11.5782 301.225 11.3579 301.582 11.2077C301.939 11.0575 302.322 10.9803 302.708 10.9805H299.766V13.9713Z" fill="#F9EDF4"/>
<path d="M296.82 10.9805C297.207 10.9803 297.59 11.0575 297.947 11.2077C298.304 11.3579 298.628 11.5782 298.902 11.856C299.175 12.1338 299.392 12.4636 299.54 12.8265C299.687 13.1895 299.763 13.5785 299.763 13.9713V10.9805H296.82Z" fill="#F9EDF4"/>
<path d="M299.763 7.99219C299.763 8.38501 299.687 8.77403 299.54 9.13699C299.392 9.49996 299.175 9.82975 298.902 10.1075C298.628 10.3853 298.304 10.6056 297.947 10.7558C297.59 10.906 297.207 10.9833 296.82 10.983H299.763V7.99219Z" fill="#F9EDF4"/>
<path d="M302.708 10.983C302.322 10.9833 301.939 10.906 301.582 10.7558C301.225 10.6056 300.9 10.3853 300.627 10.1075C300.354 9.82975 300.137 9.49996 299.989 9.13699C299.841 8.77403 299.765 8.38501 299.766 7.99219V10.983H302.708Z" fill="#F9EDF4"/>
<path d="M299.766 19.9557C299.765 19.5629 299.841 19.1739 299.989 18.8109C300.137 18.4479 300.354 18.1181 300.627 17.8404C300.9 17.5626 301.225 17.3423 301.582 17.1921C301.939 17.0418 302.322 16.9646 302.708 16.9648H299.766V19.9557Z" fill="#F9EDF4"/>
<path d="M296.82 16.9648C297.207 16.9646 297.59 17.0418 297.947 17.1921C298.304 17.3423 298.628 17.5626 298.902 17.8404C299.175 18.1181 299.392 18.4479 299.54 18.8109C299.687 19.1739 299.763 19.5629 299.763 19.9557V16.9648H296.82Z" fill="#F9EDF4"/>
<path d="M299.763 13.9727C299.763 14.3655 299.687 14.7545 299.54 15.1175C299.392 15.4804 299.175 15.8102 298.902 16.088C298.628 16.3658 298.304 16.5861 297.947 16.7363C297.59 16.8865 297.207 16.9637 296.82 16.9635H299.763V13.9727Z" fill="#F9EDF4"/>
<path d="M302.708 16.9635C302.322 16.9637 301.939 16.8865 301.582 16.7363C301.225 16.5861 300.9 16.3658 300.627 16.088C300.354 15.8102 300.137 15.4804 299.989 15.1175C299.841 14.7545 299.765 14.3655 299.766 13.9727V16.9635H302.708Z" fill="#F9EDF4"/>
<path d="M311.455 10.9817C313.08 10.9817 314.398 9.64266 314.398 7.99085C314.398 6.33905 313.08 5 311.455 5C309.829 5 308.512 6.33905 308.512 7.99085C308.512 9.64266 309.829 10.9817 311.455 10.9817Z" fill="#F9E5F0"/>
<path d="M317.341 16.9622C318.967 16.9622 320.284 15.6231 320.284 13.9713C320.284 12.3195 318.967 10.9805 317.341 10.9805C315.716 10.9805 314.398 12.3195 314.398 13.9713C314.398 15.6231 315.716 16.9622 317.341 16.9622Z" fill="#F9E5F0"/>
<path d="M311.455 22.9466C313.08 22.9466 314.398 21.6075 314.398 19.9557C314.398 18.3039 313.08 16.9648 311.455 16.9648C309.829 16.9648 308.512 18.3039 308.512 19.9557C308.512 21.6075 309.829 22.9466 311.455 22.9466Z" fill="#F9E5F0"/>
<path d="M314.398 13.9713C314.398 13.5785 314.474 13.1895 314.622 12.8265C314.77 12.4636 314.987 12.1338 315.26 11.856C315.533 11.5782 315.858 11.3579 316.215 11.2077C316.572 11.0575 316.955 10.9803 317.341 10.9805H314.398V13.9713Z" fill="#F9E5F0"/>
<path d="M311.453 10.9805C311.84 10.9803 312.222 11.0575 312.58 11.2077C312.937 11.3579 313.261 11.5782 313.534 11.856C313.808 12.1338 314.025 12.4636 314.172 12.8265C314.32 13.1895 314.396 13.5785 314.396 13.9713V10.9805H311.453Z" fill="#F9E5F0"/>
<path d="M314.396 7.99219C314.396 8.38501 314.32 8.77403 314.172 9.13699C314.025 9.49996 313.808 9.82975 313.534 10.1075C313.261 10.3853 312.937 10.6056 312.58 10.7558C312.222 10.906 311.84 10.9833 311.453 10.983H314.396V7.99219Z" fill="#F9E5F0"/>
<path d="M317.341 10.983C316.955 10.9833 316.572 10.906 316.215 10.7558C315.858 10.6056 315.533 10.3853 315.26 10.1075C314.987 9.82975 314.77 9.49996 314.622 9.13699C314.474 8.77403 314.398 8.38501 314.398 7.99219V10.983H317.341Z" fill="#F9E5F0"/>
<path d="M314.398 19.9557C314.398 19.5629 314.474 19.1739 314.622 18.8109C314.77 18.4479 314.987 18.1181 315.26 17.8404C315.533 17.5626 315.858 17.3423 316.215 17.1921C316.572 17.0418 316.955 16.9646 317.341 16.9648H314.398V19.9557Z" fill="#F9E5F0"/>
<path d="M311.453 16.9648C311.84 16.9646 312.222 17.0418 312.58 17.1921C312.937 17.3423 313.261 17.5626 313.534 17.8404C313.808 18.1181 314.025 18.4479 314.172 18.8109C314.32 19.1739 314.396 19.5629 314.396 19.9557V16.9648H311.453Z" fill="#F9E5F0"/>
<path d="M314.396 13.9727C314.396 14.3655 314.32 14.7545 314.172 15.1175C314.025 15.4804 313.808 15.8102 313.534 16.088C313.261 16.3658 312.937 16.5861 312.58 16.7363C312.222 16.8865 311.84 16.9637 311.453 16.9635H314.396V13.9727Z" fill="#F9E5F0"/>
<path d="M317.341 16.9635C316.955 16.9637 316.572 16.8865 316.215 16.7363C315.858 16.5861 315.533 16.3658 315.26 16.088C314.987 15.8102 314.77 15.4804 314.622 15.1175C314.474 14.7545 314.398 14.3655 314.398 13.9727V16.9635H317.341Z" fill="#F9E5F0"/>
<path d="M324.685 10.9817C326.311 10.9817 327.628 9.64266 327.628 7.99085C327.628 6.33905 326.311 5 324.685 5C323.06 5 321.742 6.33905 321.742 7.99085C321.742 9.64266 323.06 10.9817 324.685 10.9817Z" fill="#F1D7E5"/>
<path d="M330.572 16.9622C332.197 16.9622 333.515 15.6231 333.515 13.9713C333.515 12.3195 332.197 10.9805 330.572 10.9805C328.947 10.9805 327.629 12.3195 327.629 13.9713C327.629 15.6231 328.947 16.9622 330.572 16.9622Z" fill="#F1D7E5"/>
<path d="M324.685 22.9466C326.311 22.9466 327.628 21.6075 327.628 19.9557C327.628 18.3039 326.311 16.9648 324.685 16.9648C323.06 16.9648 321.742 18.3039 321.742 19.9557C321.742 21.6075 323.06 22.9466 324.685 22.9466Z" fill="#F1D7E5"/>
<path d="M327.629 13.9713C327.629 13.5785 327.705 13.1895 327.852 12.8265C328 12.4636 328.217 12.1338 328.49 11.856C328.764 11.5782 329.088 11.3579 329.445 11.2077C329.802 11.0575 330.185 10.9803 330.572 10.9805H327.629V13.9713Z" fill="#F1D7E5"/>
<path d="M324.684 10.9805C325.07 10.9803 325.453 11.0575 325.81 11.2077C326.167 11.3579 326.492 11.5782 326.765 11.856C327.038 12.1338 327.255 12.4636 327.403 12.8265C327.551 13.1895 327.627 13.5785 327.626 13.9713V10.9805H324.684Z" fill="#F1D7E5"/>
<path d="M327.626 7.99219C327.627 8.38501 327.551 8.77403 327.403 9.13699C327.255 9.49996 327.038 9.82975 326.765 10.1075C326.492 10.3853 326.167 10.6056 325.81 10.7558C325.453 10.906 325.07 10.9833 324.684 10.983H327.626V7.99219Z" fill="#F1D7E5"/>
<path d="M330.572 10.983C330.185 10.9833 329.802 10.906 329.445 10.7558C329.088 10.6056 328.764 10.3853 328.49 10.1075C328.217 9.82975 328 9.49996 327.852 9.13699C327.705 8.77403 327.629 8.38501 327.629 7.99219V10.983H330.572Z" fill="#F1D7E5"/>
<path d="M327.629 19.9557C327.629 19.5629 327.705 19.1739 327.852 18.8109C328 18.4479 328.217 18.1181 328.49 17.8404C328.764 17.5626 329.088 17.3423 329.445 17.1921C329.802 17.0418 330.185 16.9646 330.572 16.9648H327.629V19.9557Z" fill="#F1D7E5"/>
<path d="M324.684 16.9648C325.07 16.9646 325.453 17.0418 325.81 17.1921C326.167 17.3423 326.492 17.5626 326.765 17.8404C327.038 18.1181 327.255 18.4479 327.403 18.8109C327.551 19.1739 327.627 19.5629 327.626 19.9557V16.9648H324.684Z" fill="#F1D7E5"/>
<path d="M327.626 13.9727C327.627 14.3655 327.551 14.7545 327.403 15.1175C327.255 15.4804 327.038 15.8102 326.765 16.088C326.492 16.3658 326.167 16.5861 325.81 16.7363C325.453 16.8865 325.07 16.9637 324.684 16.9635H327.626V13.9727Z" fill="#F1D7E5"/>
<path d="M330.572 16.9635C330.185 16.9637 329.802 16.8865 329.445 16.7363C329.088 16.5861 328.764 16.3658 328.49 16.088C328.217 15.8102 328 15.4804 327.852 15.1175C327.705 14.7545 327.629 14.3655 327.629 13.9727V16.9635H330.572Z" fill="#F1D7E5"/>
</g>
<line x1="0.998821" y1="13.9336" x2="190.999" y2="13.4854" stroke="white"/>
<line x1="356.883" y1="13.5" x2="396.001" y2="13.5" stroke="white"/>
<g style="mix-blend-mode:darken" filter="url(#filter0_bd_602_41264)">
<path d="M197 13.5C197 6.04416 203.044 0 210.5 0H254.5C261.956 0 268 6.04416 268 13.5V13.5C268 20.9558 261.956 27 254.5 27H210.5C203.044 27 197 20.9558 197 13.5V13.5Z" fill="#F1D7E5"/>
</g>
<path d="M215.576 9.024H209.56C209.347 9.024 209.24 9.13067 209.24 9.344V11.664C209.24 11.76 209.267 11.7707 209.32 11.696C209.373 11.6213 209.437 11.6053 209.512 11.648C209.992 11.8827 210.467 12.1333 210.936 12.4C211.416 12.656 211.912 12.928 212.424 13.216C212.883 13.4933 213.304 13.7547 213.688 14C214.072 14.2347 214.419 14.4587 214.728 14.672C214.899 14.7893 214.92 14.9387 214.792 15.12L214.472 15.552C214.344 15.7333 214.195 15.7547 214.024 15.616C213.747 15.4133 213.443 15.2 213.112 14.976C212.792 14.752 212.429 14.5173 212.024 14.272C211.64 14.0267 211.256 13.7973 210.872 13.584C210.488 13.36 210.099 13.1413 209.704 12.928C209.565 12.8427 209.453 12.8267 209.368 12.88C209.283 12.9333 209.24 13.04 209.24 13.2V20.672C209.24 20.8853 209.133 20.992 208.92 20.992H208.456C208.243 20.992 208.136 20.8853 208.136 20.672V9.344C208.136 9.13067 208.029 9.024 207.816 9.024H202.44C202.227 9.024 202.12 8.91733 202.12 8.704V8.288C202.12 8.07467 202.227 7.968 202.44 7.968H215.576C215.789 7.968 215.896 8.07467 215.896 8.288V8.704C215.896 8.91733 215.789 9.024 215.576 9.024ZM224.456 20.704V11.632C224.456 11.4187 224.563 11.312 224.776 11.312H225.192C225.405 11.312 225.512 11.4187 225.512 11.632V20.704C225.512 20.9173 225.405 21.024 225.192 21.024H224.776C224.563 21.024 224.456 20.9173 224.456 20.704ZM225.368 6.944L225.704 7.104C225.907 7.18933 225.955 7.33333 225.848 7.536C225.827 7.568 225.805 7.6 225.784 7.632C225.773 7.664 225.757 7.696 225.736 7.728C225.651 7.856 225.656 7.97867 225.752 8.096C226.648 9.17333 227.624 10.1067 228.68 10.896C229.704 11.664 230.792 12.336 231.944 12.912C232.125 12.9973 232.147 13.1093 232.008 13.248C231.976 13.28 231.944 13.3173 231.912 13.36C231.88 13.392 231.848 13.424 231.816 13.456C231.72 13.5627 231.656 13.648 231.624 13.712C231.517 13.872 231.379 13.9093 231.208 13.824C230.653 13.5147 230.115 13.1893 229.592 12.848C229.08 12.496 228.579 12.128 228.088 11.744C227.128 10.9973 226.184 10.0907 225.256 9.024C225.085 8.832 224.92 8.832 224.76 9.024C223.107 11.04 221.133 12.6347 218.84 13.808C218.691 13.8933 218.552 13.856 218.424 13.696C218.403 13.6533 218.376 13.616 218.344 13.584C218.312 13.5413 218.28 13.4987 218.248 13.456C218.216 13.4133 218.184 13.376 218.152 13.344C218.12 13.312 218.083 13.2747 218.04 13.232C217.912 13.0933 217.933 12.9813 218.104 12.896C219.48 12.256 220.776 11.424 221.992 10.4C223.197 9.38667 224.184 8.272 224.952 7.056C225.005 6.98133 225.069 6.93333 225.144 6.912C225.219 6.89067 225.293 6.90133 225.368 6.944ZM245.624 8.496H236.792C236.579 8.496 236.472 8.60267 236.472 8.816V9.872C236.472 10.0853 236.579 10.192 236.792 10.192H245.624C245.837 10.192 245.944 10.0853 245.944 9.872V8.816C245.944 8.60267 245.837 8.496 245.624 8.496ZM246.664 11.104H236.792C236.579 11.104 236.472 11.2107 236.472 11.424V12.128C236.472 12.5653 236.461 13.024 236.44 13.504C236.429 13.9733 236.403 14.4747 236.36 15.008C236.285 16.0533 236.115 17.1093 235.848 18.176C235.603 19.1467 235.245 20.0267 234.776 20.816C234.691 20.9547 234.573 20.9813 234.424 20.896L234.216 20.752C234.173 20.7307 234.131 20.7093 234.088 20.688C234.056 20.6667 234.019 20.6453 233.976 20.624C233.827 20.528 233.795 20.416 233.88 20.288C234.317 19.4987 234.648 18.6667 234.872 17.792C235.117 16.8107 235.277 15.8293 235.352 14.848C235.416 13.8667 235.448 12.96 235.448 12.128V7.904C235.448 7.69067 235.555 7.584 235.768 7.584H246.664C246.877 7.584 246.984 7.69067 246.984 7.904V10.784C246.984 10.9973 246.877 11.104 246.664 11.104ZM240.408 13.984V15.072C240.408 15.2853 240.515 15.392 240.728 15.392H243.352C243.565 15.392 243.672 15.2853 243.672 15.072V13.984C243.672 13.7707 243.565 13.664 243.352 13.664H240.728C240.515 13.664 240.408 13.7707 240.408 13.984ZM246.472 16.592L246.696 16.752C246.813 16.8373 246.872 16.928 246.872 17.024C246.872 17.1093 246.819 17.1893 246.712 17.264C246.424 17.4773 246.131 17.68 245.832 17.872C245.544 18.0533 245.245 18.2293 244.936 18.4C244.797 18.4747 244.723 18.56 244.712 18.656C244.712 18.752 244.776 18.8427 244.904 18.928C245.747 19.4613 246.728 19.8667 247.848 20.144C247.997 20.1973 248.019 20.2827 247.912 20.4C247.891 20.432 247.864 20.464 247.832 20.496C247.8 20.528 247.773 20.5653 247.752 20.608C247.731 20.6507 247.704 20.688 247.672 20.72C247.651 20.752 247.629 20.7893 247.608 20.832C247.523 20.9707 247.395 21.024 247.224 20.992C244.589 20.256 242.739 18.7627 241.672 16.512C241.619 16.384 241.523 16.32 241.384 16.32H239.672C239.459 16.32 239.352 16.4267 239.352 16.64V19.232C239.352 19.3493 239.384 19.44 239.448 19.504C239.523 19.5573 239.619 19.568 239.736 19.536L242.6 18.896C242.76 18.864 242.829 18.9227 242.808 19.072L242.792 19.28V19.312V19.504C242.792 19.6427 242.723 19.728 242.584 19.76C242.136 19.8773 241.731 19.9787 241.368 20.064C241.005 20.16 240.685 20.2453 240.408 20.32C240.099 20.3947 239.827 20.4587 239.592 20.512C239.368 20.576 239.181 20.6347 239.032 20.688L238.344 20.896C238.259 20.9173 238.2 20.9387 238.168 20.96C238.083 20.992 238.024 20.9653 237.992 20.88C237.96 20.784 237.917 20.6827 237.864 20.576C237.843 20.5333 237.821 20.4907 237.8 20.448C237.779 20.416 237.757 20.384 237.736 20.352C237.661 20.2347 237.683 20.128 237.8 20.032C237.907 19.9573 238.003 19.872 238.088 19.776C238.259 19.6053 238.344 19.3493 238.344 19.008V16.64C238.344 16.4267 238.237 16.32 238.024 16.32H236.904C236.691 16.32 236.584 16.2133 236.584 16V15.712C236.584 15.4987 236.691 15.392 236.904 15.392H239.112C239.325 15.392 239.432 15.2853 239.432 15.072V13.984C239.432 13.7707 239.325 13.664 239.112 13.664H237.352C237.139 13.664 237.032 13.5573 237.032 13.344V13.088C237.032 12.8747 237.139 12.768 237.352 12.768H239.112C239.325 12.768 239.432 12.6613 239.432 12.448V11.632C239.432 11.4187 239.539 11.312 239.752 11.312H240.088C240.301 11.312 240.408 11.4187 240.408 11.632V12.448C240.408 12.6613 240.515 12.768 240.728 12.768H243.352C243.565 12.768 243.672 12.6613 243.672 12.448V11.632C243.672 11.4187 243.779 11.312 243.992 11.312H244.312C244.525 11.312 244.632 11.4187 244.632 11.632V12.448C244.632 12.6613 244.739 12.768 244.952 12.768H247.016C247.229 12.768 247.336 12.8747 247.336 13.088V13.344C247.336 13.5573 247.229 13.664 247.016 13.664H244.952C244.739 13.664 244.632 13.7707 244.632 13.984V15.072C244.632 15.2853 244.739 15.392 244.952 15.392H247.624C247.837 15.392 247.944 15.4987 247.944 15.712V16C247.944 16.2133 247.837 16.32 247.624 16.32H243.096C242.925 16.32 242.813 16.3627 242.76 16.448C242.717 16.5333 242.739 16.6453 242.824 16.784C242.952 16.9867 243.085 17.184 243.224 17.376C243.363 17.5573 243.512 17.7387 243.672 17.92C243.789 18.0373 243.923 18.0533 244.072 17.968C244.435 17.7547 244.792 17.5253 245.144 17.28C245.325 17.1627 245.491 17.0507 245.64 16.944C245.8 16.8267 245.949 16.7147 246.088 16.608C246.141 16.5653 246.205 16.544 246.28 16.544C246.355 16.5333 246.419 16.5493 246.472 16.592ZM253.192 12V11.648C253.192 11.4347 253.299 11.328 253.512 11.328H263.368C263.581 11.328 263.688 11.4347 263.688 11.648V12C263.688 12.2133 263.581 12.32 263.368 12.32H259.688C259.475 12.32 259.368 12.4267 259.368 12.64V19.648C259.368 20.0107 259.315 20.2773 259.208 20.448C259.08 20.64 258.893 20.7733 258.648 20.848C258.424 20.9013 258.088 20.9387 257.64 20.96C257.203 20.992 256.648 21.008 255.976 21.008C255.816 21.008 255.709 20.9227 255.656 20.752C255.635 20.7093 255.619 20.6667 255.608 20.624C255.608 20.5813 255.597 20.5387 255.576 20.496C255.555 20.4427 255.533 20.3947 255.512 20.352C255.501 20.3093 255.485 20.2667 255.464 20.224C255.379 20.0427 255.432 19.9627 255.624 19.984C255.869 19.9947 256.099 20 256.312 20C256.536 20 256.744 20 256.936 20C257.171 20 257.368 20 257.528 20C257.688 20 257.811 19.9947 257.896 19.984C258.035 19.984 258.141 19.9573 258.216 19.904C258.269 19.8507 258.296 19.76 258.296 19.632V12.64C258.296 12.4267 258.189 12.32 257.976 12.32H253.512C253.299 12.32 253.192 12.2133 253.192 12ZM264.008 8.16V8.496C264.008 8.70933 263.901 8.816 263.688 8.816H252.584C252.371 8.816 252.264 8.92267 252.264 9.136V12.992C252.264 13.7813 252.232 14.6507 252.168 15.6C252.125 16.08 252.067 16.5547 251.992 17.024C251.917 17.4933 251.821 17.9573 251.704 18.416C251.501 19.2373 251.197 20.0107 250.792 20.736C250.707 20.8747 250.6 20.8853 250.472 20.768C250.44 20.7467 250.408 20.72 250.376 20.688C250.344 20.6667 250.307 20.64 250.264 20.608C250.221 20.576 250.179 20.544 250.136 20.512C250.104 20.4907 250.072 20.4693 250.04 20.448C249.891 20.3627 249.853 20.24 249.928 20.08C250.291 19.44 250.568 18.736 250.76 17.968C250.963 17.1467 251.096 16.2933 251.16 15.408C251.181 14.9707 251.197 14.5547 251.208 14.16C251.229 13.7547 251.24 13.3653 251.24 12.992V8.16C251.24 7.94667 251.347 7.84 251.56 7.84H263.688C263.901 7.84 264.008 7.94667 264.008 8.16Z" fill="white"/>
<defs>
<filter id="filter0_bd_602_41264" x="117" y="-80" width="231" height="187" filterUnits="userSpaceOnUse" color-interpolation-filters="sRGB">
<feFlood flood-opacity="0" result="BackgroundImageFix"/>
<feGaussianBlur in="BackgroundImageFix" stdDeviation="40"/>
<feComposite in2="SourceAlpha" operator="in" result="effect1_backgroundBlur_602_41264"/>
<feColorMatrix in="SourceAlpha" type="matrix" values="0 0 0 0 0 0 0 0 0 0 0 0 0 0 0 0 0 0 127 0" result="hardAlpha"/>
<feOffset dy="4"/>
<feGaussianBlur stdDeviation="2"/>
<feComposite in2="hardAlpha" operator="out"/>
<feColorMatrix type="matrix" values="0 0 0 0 0.888333 0 0 0 0 0.873528 0 0 0 0 0.873528 0 0 0 0.25 0"/>
<feBlend mode="normal" in2="effect1_backgroundBlur_602_41264" result="effect2_dropShadow_602_41264"/>
<feBlend mode="normal" in="SourceGraphic" in2="effect2_dropShadow_602_41264" result="shape"/>
</filter>
<clipPath id="clip0_602_41264">
<rect width="53.5135" height="18" fill="white" transform="translate(280 5)"/>
</clipPath>
</defs>
</svg>
