<svg width="396" height="35" viewBox="0 0 396 35" fill="none" xmlns="http://www.w3.org/2000/svg">
<g clip-path="url(#clip0_602_40461)">
<path d="M282.943 11.0364C284.568 11.0364 285.886 9.69734 285.886 8.04554C285.886 6.39374 284.568 5.05469 282.943 5.05469C281.318 5.05469 280 6.39374 280 8.04554C280 9.69734 281.318 11.0364 282.943 11.0364Z" fill="#FFC28F"/>
<path d="M288.83 17.0169C290.455 17.0169 291.773 15.6778 291.773 14.026C291.773 12.3742 290.455 11.0352 288.83 11.0352C287.204 11.0352 285.887 12.3742 285.887 14.026C285.887 15.6778 287.204 17.0169 288.83 17.0169Z" fill="#FFC28F"/>
<path d="M282.943 23.0012C284.568 23.0012 285.886 21.6622 285.886 20.0104C285.886 18.3586 284.568 17.0195 282.943 17.0195C281.318 17.0195 280 18.3586 280 20.0104C280 21.6622 281.318 23.0012 282.943 23.0012Z" fill="#FFC28F"/>
<path d="M285.887 14.026C285.887 13.6332 285.962 13.2442 286.11 12.8812C286.258 12.5182 286.475 12.1884 286.748 11.9107C287.021 11.6329 287.346 11.4126 287.703 11.2624C288.06 11.1122 288.443 11.0349 288.829 11.0352H285.887V14.026Z" fill="#FFC28F"/>
<path d="M282.941 11.0352C283.328 11.0349 283.711 11.1122 284.068 11.2624C284.425 11.4126 284.749 11.6329 285.023 11.9107C285.296 12.1884 285.513 12.5182 285.661 12.8812C285.808 13.2442 285.884 13.6332 285.884 14.026V11.0352H282.941Z" fill="#FFC28F"/>
<path d="M285.884 8.04688C285.884 8.4397 285.808 8.82872 285.661 9.19168C285.513 9.55465 285.296 9.88444 285.023 10.1622C284.749 10.44 284.425 10.6603 284.068 10.8105C283.711 10.9607 283.328 11.0379 282.941 11.0377H285.884V8.04688Z" fill="#FFC28F"/>
<path d="M288.829 11.0377C288.443 11.0379 288.06 10.9607 287.703 10.8105C287.346 10.6603 287.021 10.44 286.748 10.1622C286.475 9.88444 286.258 9.55465 286.11 9.19168C285.962 8.82872 285.887 8.4397 285.887 8.04688V11.0377H288.829Z" fill="#FFC28F"/>
<path d="M285.887 20.0104C285.887 19.6176 285.962 19.2285 286.11 18.8656C286.258 18.5026 286.475 18.1728 286.748 17.895C287.021 17.6173 287.346 17.397 287.703 17.2468C288.06 17.0965 288.443 17.0193 288.829 17.0195H285.887V20.0104Z" fill="#FFC28F"/>
<path d="M282.941 17.0195C283.328 17.0193 283.711 17.0965 284.068 17.2468C284.425 17.397 284.749 17.6173 285.023 17.895C285.296 18.1728 285.513 18.5026 285.661 18.8656C285.808 19.2285 285.884 19.6176 285.884 20.0104V17.0195H282.941Z" fill="#FFC28F"/>
<path d="M285.884 14.0273C285.884 14.4202 285.808 14.8092 285.661 15.1722C285.513 15.5351 285.296 15.8649 285.023 16.1427C284.749 16.4204 284.425 16.6407 284.068 16.791C283.711 16.9412 283.328 17.0184 282.941 17.0182H285.884V14.0273Z" fill="#FFC28F"/>
<path d="M288.829 17.0182C288.443 17.0184 288.06 16.9412 287.703 16.791C287.346 16.6407 287.021 16.4204 286.748 16.1427C286.475 15.8649 286.258 15.5351 286.11 15.1722C285.962 14.8092 285.887 14.4202 285.887 14.0273V17.0182H288.829Z" fill="#FFC28F"/>
<path d="M296.822 10.9817C298.447 10.9817 299.765 9.64266 299.765 7.99085C299.765 6.33905 298.447 5 296.822 5C295.197 5 293.879 6.33905 293.879 7.99085C293.879 9.64266 295.197 10.9817 296.822 10.9817Z" fill="#F49853"/>
<path d="M302.709 16.9622C304.334 16.9622 305.652 15.6231 305.652 13.9713C305.652 12.3195 304.334 10.9805 302.709 10.9805C301.083 10.9805 299.766 12.3195 299.766 13.9713C299.766 15.6231 301.083 16.9622 302.709 16.9622Z" fill="#F49853"/>
<path d="M296.822 22.9466C298.447 22.9466 299.765 21.6075 299.765 19.9557C299.765 18.3039 298.447 16.9648 296.822 16.9648C295.197 16.9648 293.879 18.3039 293.879 19.9557C293.879 21.6075 295.197 22.9466 296.822 22.9466Z" fill="#F49853"/>
<path d="M299.766 13.9713C299.765 13.5785 299.841 13.1895 299.989 12.8265C300.137 12.4636 300.354 12.1338 300.627 11.856C300.9 11.5782 301.225 11.3579 301.582 11.2077C301.939 11.0575 302.322 10.9803 302.708 10.9805H299.766V13.9713Z" fill="#F49853"/>
<path d="M296.82 10.9805C297.207 10.9803 297.59 11.0575 297.947 11.2077C298.304 11.3579 298.628 11.5782 298.902 11.856C299.175 12.1338 299.392 12.4636 299.54 12.8265C299.687 13.1895 299.763 13.5785 299.763 13.9713V10.9805H296.82Z" fill="#F49853"/>
<path d="M299.763 7.99219C299.763 8.38501 299.687 8.77403 299.54 9.13699C299.392 9.49996 299.175 9.82975 298.902 10.1075C298.628 10.3853 298.304 10.6056 297.947 10.7558C297.59 10.906 297.207 10.9833 296.82 10.983H299.763V7.99219Z" fill="#F49853"/>
<path d="M302.708 10.983C302.322 10.9833 301.939 10.906 301.582 10.7558C301.225 10.6056 300.9 10.3853 300.627 10.1075C300.354 9.82975 300.137 9.49996 299.989 9.13699C299.841 8.77403 299.765 8.38501 299.766 7.99219V10.983H302.708Z" fill="#F49853"/>
<path d="M299.766 19.9557C299.765 19.5629 299.841 19.1739 299.989 18.8109C300.137 18.4479 300.354 18.1181 300.627 17.8404C300.9 17.5626 301.225 17.3423 301.582 17.1921C301.939 17.0418 302.322 16.9646 302.708 16.9648H299.766V19.9557Z" fill="#F49853"/>
<path d="M296.82 16.9648C297.207 16.9646 297.59 17.0418 297.947 17.1921C298.304 17.3423 298.628 17.5626 298.902 17.8404C299.175 18.1181 299.392 18.4479 299.54 18.8109C299.687 19.1739 299.763 19.5629 299.763 19.9557V16.9648H296.82Z" fill="#F49853"/>
<path d="M299.763 13.9727C299.763 14.3655 299.687 14.7545 299.54 15.1175C299.392 15.4804 299.175 15.8102 298.902 16.088C298.628 16.3658 298.304 16.5861 297.947 16.7363C297.59 16.8865 297.207 16.9637 296.82 16.9635H299.763V13.9727Z" fill="#F49853"/>
<path d="M302.708 16.9635C302.322 16.9637 301.939 16.8865 301.582 16.7363C301.225 16.5861 300.9 16.3658 300.627 16.088C300.354 15.8102 300.137 15.4804 299.989 15.1175C299.841 14.7545 299.765 14.3655 299.766 13.9727V16.9635H302.708Z" fill="#F49853"/>
<path d="M311.455 10.9817C313.08 10.9817 314.398 9.64266 314.398 7.99085C314.398 6.33905 313.08 5 311.455 5C309.829 5 308.512 6.33905 308.512 7.99085C308.512 9.64266 309.829 10.9817 311.455 10.9817Z" fill="#F2852C"/>
<path d="M317.341 16.9622C318.967 16.9622 320.284 15.6231 320.284 13.9713C320.284 12.3195 318.967 10.9805 317.341 10.9805C315.716 10.9805 314.398 12.3195 314.398 13.9713C314.398 15.6231 315.716 16.9622 317.341 16.9622Z" fill="#F2852C"/>
<path d="M311.455 22.9466C313.08 22.9466 314.398 21.6075 314.398 19.9557C314.398 18.3039 313.08 16.9648 311.455 16.9648C309.829 16.9648 308.512 18.3039 308.512 19.9557C308.512 21.6075 309.829 22.9466 311.455 22.9466Z" fill="#F2852C"/>
<path d="M314.398 13.9713C314.398 13.5785 314.474 13.1895 314.622 12.8265C314.77 12.4636 314.987 12.1338 315.26 11.856C315.533 11.5782 315.858 11.3579 316.215 11.2077C316.572 11.0575 316.955 10.9803 317.341 10.9805H314.398V13.9713Z" fill="#F2852C"/>
<path d="M311.453 10.9805C311.84 10.9803 312.222 11.0575 312.58 11.2077C312.937 11.3579 313.261 11.5782 313.534 11.856C313.808 12.1338 314.025 12.4636 314.172 12.8265C314.32 13.1895 314.396 13.5785 314.396 13.9713V10.9805H311.453Z" fill="#F2852C"/>
<path d="M314.396 7.99219C314.396 8.38501 314.32 8.77403 314.172 9.13699C314.025 9.49996 313.808 9.82975 313.534 10.1075C313.261 10.3853 312.937 10.6056 312.58 10.7558C312.222 10.906 311.84 10.9833 311.453 10.983H314.396V7.99219Z" fill="#F2852C"/>
<path d="M317.341 10.983C316.955 10.9833 316.572 10.906 316.215 10.7558C315.858 10.6056 315.533 10.3853 315.26 10.1075C314.987 9.82975 314.77 9.49996 314.622 9.13699C314.474 8.77403 314.398 8.38501 314.398 7.99219V10.983H317.341Z" fill="#F2852C"/>
<path d="M314.398 19.9557C314.398 19.5629 314.474 19.1739 314.622 18.8109C314.77 18.4479 314.987 18.1181 315.26 17.8404C315.533 17.5626 315.858 17.3423 316.215 17.1921C316.572 17.0418 316.955 16.9646 317.341 16.9648H314.398V19.9557Z" fill="#F2852C"/>
<path d="M311.453 16.9648C311.84 16.9646 312.222 17.0418 312.58 17.1921C312.937 17.3423 313.261 17.5626 313.534 17.8404C313.808 18.1181 314.025 18.4479 314.172 18.8109C314.32 19.1739 314.396 19.5629 314.396 19.9557V16.9648H311.453Z" fill="#F2852C"/>
<path d="M314.396 13.9727C314.396 14.3655 314.32 14.7545 314.172 15.1175C314.025 15.4804 313.808 15.8102 313.534 16.088C313.261 16.3658 312.937 16.5861 312.58 16.7363C312.222 16.8865 311.84 16.9637 311.453 16.9635H314.396V13.9727Z" fill="#F2852C"/>
<path d="M317.341 16.9635C316.955 16.9637 316.572 16.8865 316.215 16.7363C315.858 16.5861 315.533 16.3658 315.26 16.088C314.987 15.8102 314.77 15.4804 314.622 15.1175C314.474 14.7545 314.398 14.3655 314.398 13.9727V16.9635H317.341Z" fill="#F2852C"/>
<path d="M324.685 10.9817C326.311 10.9817 327.628 9.64266 327.628 7.99085C327.628 6.33905 326.311 5 324.685 5C323.06 5 321.742 6.33905 321.742 7.99085C321.742 9.64266 323.06 10.9817 324.685 10.9817Z" fill="#E2730E"/>
<path d="M330.572 16.9622C332.197 16.9622 333.515 15.6231 333.515 13.9713C333.515 12.3195 332.197 10.9805 330.572 10.9805C328.947 10.9805 327.629 12.3195 327.629 13.9713C327.629 15.6231 328.947 16.9622 330.572 16.9622Z" fill="#E2730E"/>
<path d="M324.685 22.9466C326.311 22.9466 327.628 21.6075 327.628 19.9557C327.628 18.3039 326.311 16.9648 324.685 16.9648C323.06 16.9648 321.742 18.3039 321.742 19.9557C321.742 21.6075 323.06 22.9466 324.685 22.9466Z" fill="#E2730E"/>
<path d="M327.629 13.9713C327.629 13.5785 327.705 13.1895 327.852 12.8265C328 12.4636 328.217 12.1338 328.49 11.856C328.764 11.5782 329.088 11.3579 329.445 11.2077C329.802 11.0575 330.185 10.9803 330.572 10.9805H327.629V13.9713Z" fill="#E2730E"/>
<path d="M324.684 10.9805C325.07 10.9803 325.453 11.0575 325.81 11.2077C326.167 11.3579 326.492 11.5782 326.765 11.856C327.038 12.1338 327.255 12.4636 327.403 12.8265C327.551 13.1895 327.627 13.5785 327.626 13.9713V10.9805H324.684Z" fill="#E2730E"/>
<path d="M327.626 7.99219C327.627 8.38501 327.551 8.77403 327.403 9.13699C327.255 9.49996 327.038 9.82975 326.765 10.1075C326.492 10.3853 326.167 10.6056 325.81 10.7558C325.453 10.906 325.07 10.9833 324.684 10.983H327.626V7.99219Z" fill="#E2730E"/>
<path d="M330.572 10.983C330.185 10.9833 329.802 10.906 329.445 10.7558C329.088 10.6056 328.764 10.3853 328.49 10.1075C328.217 9.82975 328 9.49996 327.852 9.13699C327.705 8.77403 327.629 8.38501 327.629 7.99219V10.983H330.572Z" fill="#E2730E"/>
<path d="M327.629 19.9557C327.629 19.5629 327.705 19.1739 327.852 18.8109C328 18.4479 328.217 18.1181 328.49 17.8404C328.764 17.5626 329.088 17.3423 329.445 17.1921C329.802 17.0418 330.185 16.9646 330.572 16.9648H327.629V19.9557Z" fill="#E2730E"/>
<path d="M324.684 16.9648C325.07 16.9646 325.453 17.0418 325.81 17.1921C326.167 17.3423 326.492 17.5626 326.765 17.8404C327.038 18.1181 327.255 18.4479 327.403 18.8109C327.551 19.1739 327.627 19.5629 327.626 19.9557V16.9648H324.684Z" fill="#E2730E"/>
<path d="M327.626 13.9727C327.627 14.3655 327.551 14.7545 327.403 15.1175C327.255 15.4804 327.038 15.8102 326.765 16.088C326.492 16.3658 326.167 16.5861 325.81 16.7363C325.453 16.8865 325.07 16.9637 324.684 16.9635H327.626V13.9727Z" fill="#E2730E"/>
<path d="M330.572 16.9635C330.185 16.9637 329.802 16.8865 329.445 16.7363C329.088 16.5861 328.764 16.3658 328.49 16.088C328.217 15.8102 328 15.4804 327.852 15.1175C327.705 14.7545 327.629 14.3655 327.629 13.9727V16.9635H330.572Z" fill="#E2730E"/>
</g>
<line x1="0.998821" y1="13.9336" x2="190.999" y2="13.4854" stroke="white"/>
<line x1="356.883" y1="13.5" x2="396.001" y2="13.5" stroke="white"/>
<g style="mix-blend-mode:darken" filter="url(#filter0_bd_602_40461)">
<path d="M197 13.5C197 6.04416 203.044 0 210.5 0H254.5C261.956 0 268 6.04416 268 13.5V13.5C268 20.9558 261.956 27 254.5 27H210.5C203.044 27 197 20.9558 197 13.5V13.5Z" fill="#E2730E"/>
</g>
<path d="M208.188 17.06H207.336C207.224 17.06 207.14 17.012 207.084 16.916L206.928 16.664C205.8 14.784 204.908 13.292 204.252 12.188C203.604 11.076 203.184 10.348 202.992 10.004C202.912 9.868 202.872 9.796 202.872 9.788C202.888 9.884 202.912 10.184 202.944 10.688C202.96 11 202.972 11.388 202.98 11.852C202.988 12.308 202.992 12.84 202.992 13.448V16.76C202.992 16.96 202.892 17.06 202.692 17.06H202.212C202.012 17.06 201.912 16.96 201.912 16.76V8.804C201.912 8.604 202.012 8.504 202.212 8.504H203.064C203.176 8.504 203.26 8.552 203.316 8.648C205.252 11.848 206.38 13.732 206.7 14.3C207.004 14.812 207.224 15.212 207.36 15.5C207.424 15.612 207.464 15.664 207.48 15.656C207.496 15.648 207.5 15.572 207.492 15.428L207.468 14.948C207.452 14.628 207.436 14.236 207.42 13.772C207.412 13.308 207.408 12.764 207.408 12.14V8.804C207.408 8.604 207.508 8.504 207.708 8.504H208.188C208.388 8.504 208.488 8.604 208.488 8.804V16.76C208.488 16.96 208.388 17.06 208.188 17.06ZM214.322 12.968C214.29 12.56 214.17 12.224 213.962 11.96C213.706 11.632 213.302 11.468 212.75 11.468C212.302 11.468 211.914 11.62 211.586 11.924C211.338 12.172 211.158 12.508 211.046 12.932C211.022 13.036 211.034 13.12 211.082 13.184C211.138 13.24 211.222 13.268 211.334 13.268H214.034C214.122 13.268 214.194 13.24 214.25 13.184C214.306 13.128 214.33 13.056 214.322 12.968ZM213.146 17.12C212.17 17.12 211.382 16.82 210.782 16.22C210.182 15.62 209.882 14.832 209.882 13.856C209.882 12.8 210.158 11.98 210.71 11.396C211.246 10.812 211.93 10.52 212.762 10.52C213.546 10.52 214.182 10.772 214.67 11.276C215.158 11.788 215.402 12.492 215.402 13.388C215.402 13.564 215.39 13.744 215.366 13.928C215.35 14.096 215.254 14.18 215.078 14.18H211.286C211.19 14.18 211.114 14.212 211.058 14.276C211.01 14.332 210.994 14.408 211.01 14.504C211.106 15 211.314 15.384 211.634 15.656C212.034 15.992 212.566 16.16 213.23 16.16C213.51 16.16 213.806 16.12 214.118 16.04C214.286 16 214.438 15.952 214.574 15.896C214.854 15.768 214.994 15.852 214.994 16.148V16.532C214.994 16.66 214.938 16.748 214.826 16.796C214.714 16.844 214.594 16.888 214.466 16.928C214.346 16.96 214.218 16.992 214.082 17.024C213.714 17.088 213.402 17.12 213.146 17.12ZM221.09 17.06H220.574C220.462 17.06 220.378 17.012 220.322 16.916L219.134 14.984C219.054 14.864 218.966 14.804 218.87 14.804C218.782 14.796 218.702 14.856 218.63 14.984L217.382 16.916C217.326 17.012 217.242 17.06 217.13 17.06H216.674C216.506 17.06 216.398 17.02 216.35 16.94C216.31 16.852 216.334 16.736 216.422 16.592L218.174 13.904C218.238 13.792 218.238 13.68 218.174 13.568L216.542 11.048C216.454 10.904 216.43 10.792 216.47 10.712C216.518 10.624 216.626 10.58 216.794 10.58H217.31C217.422 10.58 217.506 10.628 217.562 10.724L218.654 12.512C218.726 12.64 218.81 12.704 218.906 12.704C219.002 12.704 219.086 12.64 219.158 12.512L220.262 10.724C220.318 10.628 220.402 10.58 220.514 10.58H221.006C221.174 10.58 221.278 10.624 221.318 10.712C221.366 10.792 221.346 10.904 221.258 11.048L219.602 13.58C219.538 13.692 219.538 13.804 219.602 13.916L221.342 16.592C221.43 16.736 221.45 16.852 221.402 16.94C221.362 17.02 221.258 17.06 221.09 17.06ZM225.016 17.12C224.344 17.12 223.856 16.944 223.552 16.592C223.24 16.24 223.084 15.76 223.084 15.152V11.78C223.084 11.58 222.984 11.48 222.784 11.48H222.376C222.176 11.48 222.076 11.38 222.076 11.18V10.892C222.076 10.692 222.176 10.592 222.376 10.592H222.784C222.984 10.592 223.084 10.492 223.084 10.292V9.32C223.084 9.12 223.184 9.02 223.384 9.02H223.84C224.04 9.02 224.14 9.12 224.14 9.32V10.292C224.14 10.492 224.24 10.592 224.44 10.592H225.616C225.816 10.592 225.916 10.692 225.916 10.892V11.18C225.916 11.38 225.816 11.48 225.616 11.48H224.44C224.24 11.48 224.14 11.58 224.14 11.78V15.188C224.14 15.828 224.444 16.152 225.052 16.16C225.212 16.16 225.376 16.124 225.544 16.052C225.832 15.94 225.976 16.028 225.976 16.316V16.688C225.976 16.808 225.928 16.892 225.832 16.94C225.784 16.964 225.732 16.984 225.676 17C225.62 17.024 225.56 17.044 225.496 17.06C225.4 17.076 225.312 17.088 225.232 17.096C225.152 17.112 225.08 17.12 225.016 17.12ZM234.162 17.156C232.874 17.156 231.826 16.764 231.018 15.98C230.202 15.196 229.794 14.12 229.794 12.752C229.794 11.464 230.194 10.408 230.994 9.584C231.786 8.76 232.786 8.348 233.994 8.348C234.882 8.348 235.666 8.524 236.346 8.876C236.394 8.9 236.43 8.936 236.454 8.984C236.486 9.032 236.502 9.08 236.502 9.128V9.572C236.502 9.916 236.342 10.012 236.022 9.86C235.414 9.556 234.766 9.404 234.078 9.404C233.15 9.404 232.39 9.704 231.798 10.304C231.214 10.912 230.922 11.728 230.922 12.752C230.922 13.808 231.21 14.632 231.786 15.224C232.362 15.816 233.162 16.112 234.186 16.112C234.722 16.112 235.182 16.024 235.566 15.848C235.678 15.808 235.734 15.724 235.734 15.596V13.496C235.734 13.296 235.634 13.196 235.434 13.196H234.138C233.938 13.196 233.838 13.096 233.838 12.896V12.524C233.838 12.324 233.938 12.224 234.138 12.224H236.502C236.702 12.224 236.802 12.324 236.802 12.524V16.22C236.802 16.332 236.758 16.412 236.67 16.46C235.966 16.924 235.13 17.156 234.162 17.156ZM240.43 16.196C240.902 16.196 241.262 16.072 241.51 15.824C241.766 15.568 241.894 15.256 241.894 14.888V14.228C241.894 14.116 241.862 14.036 241.798 13.988C241.734 13.932 241.65 13.912 241.546 13.928L240.826 14.06C240.57 14.1 240.342 14.148 240.142 14.204C239.95 14.252 239.786 14.308 239.65 14.372C239.378 14.5 239.242 14.764 239.242 15.164C239.242 15.468 239.338 15.716 239.53 15.908C239.722 16.1 240.022 16.196 240.43 16.196ZM240.178 17.12C239.562 17.12 239.07 16.936 238.702 16.568C238.326 16.192 238.138 15.736 238.138 15.2C238.138 14.68 238.25 14.296 238.474 14.048C238.706 13.792 239.006 13.604 239.374 13.484C239.558 13.428 239.754 13.38 239.962 13.34C240.17 13.292 240.39 13.248 240.622 13.208L241.654 13.016C241.726 13 241.782 12.968 241.822 12.92C241.87 12.864 241.89 12.796 241.882 12.716C241.858 12.372 241.762 12.084 241.594 11.852C241.394 11.588 241.014 11.456 240.454 11.456C240.014 11.456 239.55 11.572 239.062 11.804C238.918 11.868 238.802 11.876 238.714 11.828C238.634 11.78 238.594 11.676 238.594 11.516V11.132C238.594 11.004 238.65 10.916 238.762 10.868C239.29 10.62 239.874 10.496 240.514 10.496C241.378 10.496 242.002 10.712 242.386 11.144C242.762 11.592 242.95 12.204 242.95 12.98V16.76C242.95 16.96 242.85 17.06 242.65 17.06H242.194C242.106 17.06 242.034 17.036 241.978 16.988C241.93 16.932 241.906 16.86 241.906 16.772V16.664C241.906 16.568 241.866 16.548 241.786 16.604C241.762 16.628 241.718 16.664 241.654 16.712C241.59 16.768 241.51 16.82 241.414 16.868C241.318 16.908 241.21 16.948 241.09 16.988C240.858 17.076 240.554 17.12 240.178 17.12ZM246.067 17.12C245.659 17.12 245.351 17.036 245.143 16.868C244.943 16.7 244.811 16.464 244.747 16.16C244.675 15.856 244.639 15.504 244.639 15.104V8.396C244.639 8.196 244.739 8.096 244.939 8.096H245.383C245.583 8.096 245.683 8.196 245.683 8.396V15.056C245.683 15.504 245.711 15.796 245.767 15.932C245.831 16.076 245.935 16.148 246.079 16.148C246.127 16.148 246.175 16.148 246.223 16.148C246.279 16.14 246.335 16.132 246.391 16.124C246.591 16.084 246.691 16.16 246.691 16.352V16.808C246.691 16.872 246.671 16.932 246.631 16.988C246.591 17.036 246.539 17.068 246.475 17.084C246.347 17.108 246.211 17.12 246.067 17.12ZM248.938 17.12C248.53 17.12 248.222 17.036 248.014 16.868C247.814 16.7 247.682 16.464 247.618 16.16C247.546 15.856 247.51 15.504 247.51 15.104V8.396C247.51 8.196 247.61 8.096 247.81 8.096H248.254C248.454 8.096 248.554 8.196 248.554 8.396V15.056C248.554 15.504 248.582 15.796 248.638 15.932C248.702 16.076 248.806 16.148 248.95 16.148C248.998 16.148 249.046 16.148 249.094 16.148C249.15 16.14 249.206 16.132 249.262 16.124C249.462 16.084 249.562 16.16 249.562 16.352V16.808C249.562 16.872 249.542 16.932 249.502 16.988C249.462 17.036 249.41 17.068 249.346 17.084C249.218 17.108 249.082 17.12 248.938 17.12ZM254.389 12.968C254.357 12.56 254.237 12.224 254.029 11.96C253.773 11.632 253.369 11.468 252.817 11.468C252.369 11.468 251.981 11.62 251.653 11.924C251.405 12.172 251.225 12.508 251.113 12.932C251.089 13.036 251.101 13.12 251.149 13.184C251.205 13.24 251.289 13.268 251.401 13.268H254.101C254.189 13.268 254.261 13.24 254.317 13.184C254.373 13.128 254.397 13.056 254.389 12.968ZM253.213 17.12C252.237 17.12 251.449 16.82 250.849 16.22C250.249 15.62 249.949 14.832 249.949 13.856C249.949 12.8 250.225 11.98 250.777 11.396C251.313 10.812 251.997 10.52 252.829 10.52C253.613 10.52 254.249 10.772 254.737 11.276C255.225 11.788 255.469 12.492 255.469 13.388C255.469 13.564 255.457 13.744 255.433 13.928C255.417 14.096 255.321 14.18 255.145 14.18H251.353C251.257 14.18 251.181 14.212 251.125 14.276C251.077 14.332 251.061 14.408 251.077 14.504C251.173 15 251.381 15.384 251.701 15.656C252.101 15.992 252.633 16.16 253.297 16.16C253.577 16.16 253.873 16.12 254.185 16.04C254.353 16 254.505 15.952 254.641 15.896C254.921 15.768 255.061 15.852 255.061 16.148V16.532C255.061 16.66 255.005 16.748 254.893 16.796C254.781 16.844 254.661 16.888 254.533 16.928C254.413 16.96 254.285 16.992 254.149 17.024C253.781 17.088 253.469 17.12 253.213 17.12ZM257.604 17.06H257.136C256.936 17.06 256.836 16.96 256.836 16.76V10.892C256.836 10.692 256.936 10.592 257.136 10.592H257.604C257.804 10.592 257.904 10.692 257.904 10.892V11.012C257.904 11.14 257.916 11.208 257.94 11.216C257.972 11.224 258.032 11.184 258.12 11.096C258.192 11 258.308 10.9 258.468 10.796C258.764 10.612 259.128 10.52 259.56 10.52H259.584L259.812 10.544L259.896 10.556C259.952 10.572 259.98 10.604 259.98 10.652V11.324C259.98 11.516 259.884 11.588 259.692 11.54C259.588 11.516 259.484 11.504 259.38 11.504C258.94 11.504 258.584 11.712 258.312 12.128C258.04 12.544 257.904 13.004 257.904 13.508V16.76C257.904 16.96 257.804 17.06 257.604 17.06ZM261.139 19.208C261.083 19.208 261.027 19.204 260.971 19.196C260.923 19.196 260.867 19.192 260.803 19.184C260.739 19.168 260.683 19.132 260.635 19.076C260.595 19.028 260.575 18.968 260.575 18.896V18.392C260.575 18.24 260.655 18.176 260.815 18.2C260.863 18.208 260.903 18.212 260.935 18.212C260.975 18.22 261.015 18.224 261.055 18.224C261.831 18.224 262.395 17.796 262.747 16.94C262.763 16.908 262.771 16.872 262.771 16.832C262.771 16.792 262.763 16.756 262.747 16.724L260.371 11.012C260.323 10.884 260.323 10.784 260.371 10.712C260.419 10.632 260.511 10.592 260.647 10.592H261.187C261.251 10.592 261.307 10.608 261.355 10.64C261.411 10.672 261.447 10.72 261.463 10.784L262.495 13.376C262.647 13.768 262.775 14.104 262.879 14.384C262.991 14.656 263.079 14.876 263.143 15.044C263.183 15.164 263.219 15.268 263.251 15.356C263.283 15.444 263.307 15.516 263.323 15.572C263.339 15.628 263.351 15.628 263.359 15.572L263.383 15.464C263.431 15.288 263.503 15.048 263.599 14.744C263.703 14.44 263.831 14.064 263.983 13.616L264.991 10.796C265.047 10.66 265.143 10.592 265.279 10.592H265.771C265.907 10.592 265.999 10.628 266.047 10.7C266.095 10.772 266.095 10.872 266.047 11L263.875 16.844C263.651 17.444 263.391 17.924 263.095 18.284C262.799 18.636 262.487 18.876 262.159 19.004C261.823 19.14 261.483 19.208 261.139 19.208Z" fill="white"/>
<defs>
<filter id="filter0_bd_602_40461" x="117" y="-80" width="231" height="187" filterUnits="userSpaceOnUse" color-interpolation-filters="sRGB">
<feFlood flood-opacity="0" result="BackgroundImageFix"/>
<feGaussianBlur in="BackgroundImageFix" stdDeviation="40"/>
<feComposite in2="SourceAlpha" operator="in" result="effect1_backgroundBlur_602_40461"/>
<feColorMatrix in="SourceAlpha" type="matrix" values="0 0 0 0 0 0 0 0 0 0 0 0 0 0 0 0 0 0 127 0" result="hardAlpha"/>
<feOffset dy="4"/>
<feGaussianBlur stdDeviation="2"/>
<feComposite in2="hardAlpha" operator="out"/>
<feColorMatrix type="matrix" values="0 0 0 0 0.888333 0 0 0 0 0.873528 0 0 0 0 0.873528 0 0 0 0.25 0"/>
<feBlend mode="normal" in2="effect1_backgroundBlur_602_40461" result="effect2_dropShadow_602_40461"/>
<feBlend mode="normal" in="SourceGraphic" in2="effect2_dropShadow_602_40461" result="shape"/>
</filter>
<clipPath id="clip0_602_40461">
<rect width="53.5135" height="18" fill="white" transform="translate(280 5)"/>
</clipPath>
</defs>
</svg>
