<svg width="396" height="35" viewBox="0 0 396 35" fill="none" xmlns="http://www.w3.org/2000/svg">
<g clip-path="url(#clip0_602_40921)">
<path d="M282.943 11.0364C284.568 11.0364 285.886 9.69734 285.886 8.04554C285.886 6.39374 284.568 5.05469 282.943 5.05469C281.318 5.05469 280 6.39374 280 8.04554C280 9.69734 281.318 11.0364 282.943 11.0364Z" fill="#F2B6E9"/>
<path d="M288.83 17.0169C290.455 17.0169 291.773 15.6778 291.773 14.026C291.773 12.3742 290.455 11.0352 288.83 11.0352C287.204 11.0352 285.887 12.3742 285.887 14.026C285.887 15.6778 287.204 17.0169 288.83 17.0169Z" fill="#F2B6E9"/>
<path d="M282.943 23.0012C284.568 23.0012 285.886 21.6622 285.886 20.0104C285.886 18.3586 284.568 17.0195 282.943 17.0195C281.318 17.0195 280 18.3586 280 20.0104C280 21.6622 281.318 23.0012 282.943 23.0012Z" fill="#F2B6E9"/>
<path d="M285.887 14.026C285.887 13.6332 285.962 13.2442 286.11 12.8812C286.258 12.5182 286.475 12.1884 286.748 11.9107C287.021 11.6329 287.346 11.4126 287.703 11.2624C288.06 11.1122 288.443 11.0349 288.829 11.0352H285.887V14.026Z" fill="#F2B6E9"/>
<path d="M282.941 11.0352C283.328 11.0349 283.711 11.1122 284.068 11.2624C284.425 11.4126 284.749 11.6329 285.023 11.9107C285.296 12.1884 285.513 12.5182 285.661 12.8812C285.808 13.2442 285.884 13.6332 285.884 14.026V11.0352H282.941Z" fill="#F2B6E9"/>
<path d="M285.884 8.04688C285.884 8.4397 285.808 8.82872 285.661 9.19168C285.513 9.55465 285.296 9.88444 285.023 10.1622C284.749 10.44 284.425 10.6603 284.068 10.8105C283.711 10.9607 283.328 11.0379 282.941 11.0377H285.884V8.04688Z" fill="#F2B6E9"/>
<path d="M288.829 11.0377C288.443 11.0379 288.06 10.9607 287.703 10.8105C287.346 10.6603 287.021 10.44 286.748 10.1622C286.475 9.88444 286.258 9.55465 286.11 9.19168C285.962 8.82872 285.887 8.4397 285.887 8.04688V11.0377H288.829Z" fill="#F2B6E9"/>
<path d="M285.887 20.0104C285.887 19.6176 285.962 19.2285 286.11 18.8656C286.258 18.5026 286.475 18.1728 286.748 17.895C287.021 17.6173 287.346 17.397 287.703 17.2468C288.06 17.0965 288.443 17.0193 288.829 17.0195H285.887V20.0104Z" fill="#F2B6E9"/>
<path d="M282.941 17.0195C283.328 17.0193 283.711 17.0965 284.068 17.2468C284.425 17.397 284.749 17.6173 285.023 17.895C285.296 18.1728 285.513 18.5026 285.661 18.8656C285.808 19.2285 285.884 19.6176 285.884 20.0104V17.0195H282.941Z" fill="#F2B6E9"/>
<path d="M285.884 14.0273C285.884 14.4202 285.808 14.8092 285.661 15.1722C285.513 15.5351 285.296 15.8649 285.023 16.1427C284.749 16.4204 284.425 16.6407 284.068 16.791C283.711 16.9412 283.328 17.0184 282.941 17.0182H285.884V14.0273Z" fill="#F2B6E9"/>
<path d="M288.829 17.0182C288.443 17.0184 288.06 16.9412 287.703 16.791C287.346 16.6407 287.021 16.4204 286.748 16.1427C286.475 15.8649 286.258 15.5351 286.11 15.1722C285.962 14.8092 285.887 14.4202 285.887 14.0273V17.0182H288.829Z" fill="#F2B6E9"/>
<path d="M296.822 10.9817C298.447 10.9817 299.765 9.64266 299.765 7.99085C299.765 6.33905 298.447 5 296.822 5C295.197 5 293.879 6.33905 293.879 7.99085C293.879 9.64266 295.197 10.9817 296.822 10.9817Z" fill="#E89CD9"/>
<path d="M302.709 16.9622C304.334 16.9622 305.652 15.6231 305.652 13.9713C305.652 12.3195 304.334 10.9805 302.709 10.9805C301.083 10.9805 299.766 12.3195 299.766 13.9713C299.766 15.6231 301.083 16.9622 302.709 16.9622Z" fill="#E89CD9"/>
<path d="M296.822 22.9466C298.447 22.9466 299.765 21.6075 299.765 19.9557C299.765 18.3039 298.447 16.9648 296.822 16.9648C295.197 16.9648 293.879 18.3039 293.879 19.9557C293.879 21.6075 295.197 22.9466 296.822 22.9466Z" fill="#E89CD9"/>
<path d="M299.766 13.9713C299.765 13.5785 299.841 13.1895 299.989 12.8265C300.137 12.4636 300.354 12.1338 300.627 11.856C300.9 11.5782 301.225 11.3579 301.582 11.2077C301.939 11.0575 302.322 10.9803 302.708 10.9805H299.766V13.9713Z" fill="#E89CD9"/>
<path d="M296.82 10.9805C297.207 10.9803 297.59 11.0575 297.947 11.2077C298.304 11.3579 298.628 11.5782 298.902 11.856C299.175 12.1338 299.392 12.4636 299.54 12.8265C299.687 13.1895 299.763 13.5785 299.763 13.9713V10.9805H296.82Z" fill="#E89CD9"/>
<path d="M299.763 7.99219C299.763 8.38501 299.687 8.77403 299.54 9.13699C299.392 9.49996 299.175 9.82975 298.902 10.1075C298.628 10.3853 298.304 10.6056 297.947 10.7558C297.59 10.906 297.207 10.9833 296.82 10.983H299.763V7.99219Z" fill="#E89CD9"/>
<path d="M302.708 10.983C302.322 10.9833 301.939 10.906 301.582 10.7558C301.225 10.6056 300.9 10.3853 300.627 10.1075C300.354 9.82975 300.137 9.49996 299.989 9.13699C299.841 8.77403 299.765 8.38501 299.766 7.99219V10.983H302.708Z" fill="#E89CD9"/>
<path d="M299.766 19.9557C299.765 19.5629 299.841 19.1739 299.989 18.8109C300.137 18.4479 300.354 18.1181 300.627 17.8404C300.9 17.5626 301.225 17.3423 301.582 17.1921C301.939 17.0418 302.322 16.9646 302.708 16.9648H299.766V19.9557Z" fill="#E89CD9"/>
<path d="M296.82 16.9648C297.207 16.9646 297.59 17.0418 297.947 17.1921C298.304 17.3423 298.628 17.5626 298.902 17.8404C299.175 18.1181 299.392 18.4479 299.54 18.8109C299.687 19.1739 299.763 19.5629 299.763 19.9557V16.9648H296.82Z" fill="#E89CD9"/>
<path d="M299.763 13.9727C299.763 14.3655 299.687 14.7545 299.54 15.1175C299.392 15.4804 299.175 15.8102 298.902 16.088C298.628 16.3658 298.304 16.5861 297.947 16.7363C297.59 16.8865 297.207 16.9637 296.82 16.9635H299.763V13.9727Z" fill="#E89CD9"/>
<path d="M302.708 16.9635C302.322 16.9637 301.939 16.8865 301.582 16.7363C301.225 16.5861 300.9 16.3658 300.627 16.088C300.354 15.8102 300.137 15.4804 299.989 15.1175C299.841 14.7545 299.765 14.3655 299.766 13.9727V16.9635H302.708Z" fill="#E89CD9"/>
<path d="M311.455 10.9817C313.08 10.9817 314.398 9.64266 314.398 7.99085C314.398 6.33905 313.08 5 311.455 5C309.829 5 308.512 6.33905 308.512 7.99085C308.512 9.64266 309.829 10.9817 311.455 10.9817Z" fill="#D17DBF"/>
<path d="M317.341 16.9622C318.967 16.9622 320.284 15.6231 320.284 13.9713C320.284 12.3195 318.967 10.9805 317.341 10.9805C315.716 10.9805 314.398 12.3195 314.398 13.9713C314.398 15.6231 315.716 16.9622 317.341 16.9622Z" fill="#D17DBF"/>
<path d="M311.455 22.9466C313.08 22.9466 314.398 21.6075 314.398 19.9557C314.398 18.3039 313.08 16.9648 311.455 16.9648C309.829 16.9648 308.512 18.3039 308.512 19.9557C308.512 21.6075 309.829 22.9466 311.455 22.9466Z" fill="#D17DBF"/>
<path d="M314.398 13.9713C314.398 13.5785 314.474 13.1895 314.622 12.8265C314.77 12.4636 314.987 12.1338 315.26 11.856C315.533 11.5782 315.858 11.3579 316.215 11.2077C316.572 11.0575 316.955 10.9803 317.341 10.9805H314.398V13.9713Z" fill="#D17DBF"/>
<path d="M311.453 10.9805C311.84 10.9803 312.222 11.0575 312.58 11.2077C312.937 11.3579 313.261 11.5782 313.534 11.856C313.808 12.1338 314.025 12.4636 314.172 12.8265C314.32 13.1895 314.396 13.5785 314.396 13.9713V10.9805H311.453Z" fill="#D17DBF"/>
<path d="M314.396 7.99219C314.396 8.38501 314.32 8.77403 314.172 9.13699C314.025 9.49996 313.808 9.82975 313.534 10.1075C313.261 10.3853 312.937 10.6056 312.58 10.7558C312.222 10.906 311.84 10.9833 311.453 10.983H314.396V7.99219Z" fill="#D17DBF"/>
<path d="M317.341 10.983C316.955 10.9833 316.572 10.906 316.215 10.7558C315.858 10.6056 315.533 10.3853 315.26 10.1075C314.987 9.82975 314.77 9.49996 314.622 9.13699C314.474 8.77403 314.398 8.38501 314.398 7.99219V10.983H317.341Z" fill="#D17DBF"/>
<path d="M314.398 19.9557C314.398 19.5629 314.474 19.1739 314.622 18.8109C314.77 18.4479 314.987 18.1181 315.26 17.8404C315.533 17.5626 315.858 17.3423 316.215 17.1921C316.572 17.0418 316.955 16.9646 317.341 16.9648H314.398V19.9557Z" fill="#D17DBF"/>
<path d="M311.453 16.9648C311.84 16.9646 312.222 17.0418 312.58 17.1921C312.937 17.3423 313.261 17.5626 313.534 17.8404C313.808 18.1181 314.025 18.4479 314.172 18.8109C314.32 19.1739 314.396 19.5629 314.396 19.9557V16.9648H311.453Z" fill="#D17DBF"/>
<path d="M314.396 13.9727C314.396 14.3655 314.32 14.7545 314.172 15.1175C314.025 15.4804 313.808 15.8102 313.534 16.088C313.261 16.3658 312.937 16.5861 312.58 16.7363C312.222 16.8865 311.84 16.9637 311.453 16.9635H314.396V13.9727Z" fill="#D17DBF"/>
<path d="M317.341 16.9635C316.955 16.9637 316.572 16.8865 316.215 16.7363C315.858 16.5861 315.533 16.3658 315.26 16.088C314.987 15.8102 314.77 15.4804 314.622 15.1175C314.474 14.7545 314.398 14.3655 314.398 13.9727V16.9635H317.341Z" fill="#D17DBF"/>
<path d="M324.685 10.9817C326.311 10.9817 327.628 9.64266 327.628 7.99085C327.628 6.33905 326.311 5 324.685 5C323.06 5 321.742 6.33905 321.742 7.99085C321.742 9.64266 323.06 10.9817 324.685 10.9817Z" fill="#B34C98"/>
<path d="M330.572 16.9622C332.197 16.9622 333.515 15.6231 333.515 13.9713C333.515 12.3195 332.197 10.9805 330.572 10.9805C328.947 10.9805 327.629 12.3195 327.629 13.9713C327.629 15.6231 328.947 16.9622 330.572 16.9622Z" fill="#B34C98"/>
<path d="M324.685 22.9466C326.311 22.9466 327.628 21.6075 327.628 19.9557C327.628 18.3039 326.311 16.9648 324.685 16.9648C323.06 16.9648 321.742 18.3039 321.742 19.9557C321.742 21.6075 323.06 22.9466 324.685 22.9466Z" fill="#B34C98"/>
<path d="M327.629 13.9713C327.629 13.5785 327.705 13.1895 327.852 12.8265C328 12.4636 328.217 12.1338 328.49 11.856C328.764 11.5782 329.088 11.3579 329.445 11.2077C329.802 11.0575 330.185 10.9803 330.572 10.9805H327.629V13.9713Z" fill="#B34C98"/>
<path d="M324.684 10.9805C325.07 10.9803 325.453 11.0575 325.81 11.2077C326.167 11.3579 326.492 11.5782 326.765 11.856C327.038 12.1338 327.255 12.4636 327.403 12.8265C327.551 13.1895 327.627 13.5785 327.626 13.9713V10.9805H324.684Z" fill="#B34C98"/>
<path d="M327.626 7.99219C327.627 8.38501 327.551 8.77403 327.403 9.13699C327.255 9.49996 327.038 9.82975 326.765 10.1075C326.492 10.3853 326.167 10.6056 325.81 10.7558C325.453 10.906 325.07 10.9833 324.684 10.983H327.626V7.99219Z" fill="#B34C98"/>
<path d="M330.572 10.983C330.185 10.9833 329.802 10.906 329.445 10.7558C329.088 10.6056 328.764 10.3853 328.49 10.1075C328.217 9.82975 328 9.49996 327.852 9.13699C327.705 8.77403 327.629 8.38501 327.629 7.99219V10.983H330.572Z" fill="#B34C98"/>
<path d="M327.629 19.9557C327.629 19.5629 327.705 19.1739 327.852 18.8109C328 18.4479 328.217 18.1181 328.49 17.8404C328.764 17.5626 329.088 17.3423 329.445 17.1921C329.802 17.0418 330.185 16.9646 330.572 16.9648H327.629V19.9557Z" fill="#B34C98"/>
<path d="M324.684 16.9648C325.07 16.9646 325.453 17.0418 325.81 17.1921C326.167 17.3423 326.492 17.5626 326.765 17.8404C327.038 18.1181 327.255 18.4479 327.403 18.8109C327.551 19.1739 327.627 19.5629 327.626 19.9557V16.9648H324.684Z" fill="#B34C98"/>
<path d="M327.626 13.9727C327.627 14.3655 327.551 14.7545 327.403 15.1175C327.255 15.4804 327.038 15.8102 326.765 16.088C326.492 16.3658 326.167 16.5861 325.81 16.7363C325.453 16.8865 325.07 16.9637 324.684 16.9635H327.626V13.9727Z" fill="#B34C98"/>
<path d="M330.572 16.9635C330.185 16.9637 329.802 16.8865 329.445 16.7363C329.088 16.5861 328.764 16.3658 328.49 16.088C328.217 15.8102 328 15.4804 327.852 15.1175C327.705 14.7545 327.629 14.3655 327.629 13.9727V16.9635H330.572Z" fill="#B34C98"/>
</g>
<line x1="0.998821" y1="13.9336" x2="190.999" y2="13.4854" stroke="white"/>
<line x1="356.883" y1="13.5" x2="396.001" y2="13.5" stroke="white"/>
<g style="mix-blend-mode:darken" filter="url(#filter0_bd_602_40921)">
<path d="M197 13.5C197 6.04416 203.044 0 210.5 0H254.5C261.956 0 268 6.04416 268 13.5V13.5C268 20.9558 261.956 27 254.5 27H210.5C203.044 27 197 20.9558 197 13.5V13.5Z" fill="#B34C98"/>
</g>
<path d="M208.188 19.06H207.336C207.224 19.06 207.14 19.012 207.084 18.916L206.928 18.664C205.8 16.784 204.908 15.292 204.252 14.188C203.604 13.076 203.184 12.348 202.992 12.004C202.912 11.868 202.872 11.796 202.872 11.788C202.888 11.884 202.912 12.184 202.944 12.688C202.96 13 202.972 13.388 202.98 13.852C202.988 14.308 202.992 14.84 202.992 15.448V18.76C202.992 18.96 202.892 19.06 202.692 19.06H202.212C202.012 19.06 201.912 18.96 201.912 18.76V10.804C201.912 10.604 202.012 10.504 202.212 10.504H203.064C203.176 10.504 203.26 10.552 203.316 10.648C205.252 13.848 206.38 15.732 206.7 16.3C207.004 16.812 207.224 17.212 207.36 17.5C207.424 17.612 207.464 17.664 207.48 17.656C207.496 17.648 207.5 17.572 207.492 17.428L207.468 16.948C207.452 16.628 207.436 16.236 207.42 15.772C207.412 15.308 207.408 14.764 207.408 14.14V10.804C207.408 10.604 207.508 10.504 207.708 10.504H208.188C208.388 10.504 208.488 10.604 208.488 10.804V18.76C208.488 18.96 208.388 19.06 208.188 19.06ZM214.322 14.968C214.29 14.56 214.17 14.224 213.962 13.96C213.706 13.632 213.302 13.468 212.75 13.468C212.302 13.468 211.914 13.62 211.586 13.924C211.338 14.172 211.158 14.508 211.046 14.932C211.022 15.036 211.034 15.12 211.082 15.184C211.138 15.24 211.222 15.268 211.334 15.268H214.034C214.122 15.268 214.194 15.24 214.25 15.184C214.306 15.128 214.33 15.056 214.322 14.968ZM213.146 19.12C212.17 19.12 211.382 18.82 210.782 18.22C210.182 17.62 209.882 16.832 209.882 15.856C209.882 14.8 210.158 13.98 210.71 13.396C211.246 12.812 211.93 12.52 212.762 12.52C213.546 12.52 214.182 12.772 214.67 13.276C215.158 13.788 215.402 14.492 215.402 15.388C215.402 15.564 215.39 15.744 215.366 15.928C215.35 16.096 215.254 16.18 215.078 16.18H211.286C211.19 16.18 211.114 16.212 211.058 16.276C211.01 16.332 210.994 16.408 211.01 16.504C211.106 17 211.314 17.384 211.634 17.656C212.034 17.992 212.566 18.16 213.23 18.16C213.51 18.16 213.806 18.12 214.118 18.04C214.286 18 214.438 17.952 214.574 17.896C214.854 17.768 214.994 17.852 214.994 18.148V18.532C214.994 18.66 214.938 18.748 214.826 18.796C214.714 18.844 214.594 18.888 214.466 18.928C214.346 18.96 214.218 18.992 214.082 19.024C213.714 19.088 213.402 19.12 213.146 19.12ZM221.09 19.06H220.574C220.462 19.06 220.378 19.012 220.322 18.916L219.134 16.984C219.054 16.864 218.966 16.804 218.87 16.804C218.782 16.796 218.702 16.856 218.63 16.984L217.382 18.916C217.326 19.012 217.242 19.06 217.13 19.06H216.674C216.506 19.06 216.398 19.02 216.35 18.94C216.31 18.852 216.334 18.736 216.422 18.592L218.174 15.904C218.238 15.792 218.238 15.68 218.174 15.568L216.542 13.048C216.454 12.904 216.43 12.792 216.47 12.712C216.518 12.624 216.626 12.58 216.794 12.58H217.31C217.422 12.58 217.506 12.628 217.562 12.724L218.654 14.512C218.726 14.64 218.81 14.704 218.906 14.704C219.002 14.704 219.086 14.64 219.158 14.512L220.262 12.724C220.318 12.628 220.402 12.58 220.514 12.58H221.006C221.174 12.58 221.278 12.624 221.318 12.712C221.366 12.792 221.346 12.904 221.258 13.048L219.602 15.58C219.538 15.692 219.538 15.804 219.602 15.916L221.342 18.592C221.43 18.736 221.45 18.852 221.402 18.94C221.362 19.02 221.258 19.06 221.09 19.06ZM225.016 19.12C224.344 19.12 223.856 18.944 223.552 18.592C223.24 18.24 223.084 17.76 223.084 17.152V13.78C223.084 13.58 222.984 13.48 222.784 13.48H222.376C222.176 13.48 222.076 13.38 222.076 13.18V12.892C222.076 12.692 222.176 12.592 222.376 12.592H222.784C222.984 12.592 223.084 12.492 223.084 12.292V11.32C223.084 11.12 223.184 11.02 223.384 11.02H223.84C224.04 11.02 224.14 11.12 224.14 11.32V12.292C224.14 12.492 224.24 12.592 224.44 12.592H225.616C225.816 12.592 225.916 12.692 225.916 12.892V13.18C225.916 13.38 225.816 13.48 225.616 13.48H224.44C224.24 13.48 224.14 13.58 224.14 13.78V17.188C224.14 17.828 224.444 18.152 225.052 18.16C225.212 18.16 225.376 18.124 225.544 18.052C225.832 17.94 225.976 18.028 225.976 18.316V18.688C225.976 18.808 225.928 18.892 225.832 18.94C225.784 18.964 225.732 18.984 225.676 19C225.62 19.024 225.56 19.044 225.496 19.06C225.4 19.076 225.312 19.088 225.232 19.096C225.152 19.112 225.08 19.12 225.016 19.12ZM234.162 19.156C232.874 19.156 231.826 18.764 231.018 17.98C230.202 17.196 229.794 16.12 229.794 14.752C229.794 13.464 230.194 12.408 230.994 11.584C231.786 10.76 232.786 10.348 233.994 10.348C234.882 10.348 235.666 10.524 236.346 10.876C236.394 10.9 236.43 10.936 236.454 10.984C236.486 11.032 236.502 11.08 236.502 11.128V11.572C236.502 11.916 236.342 12.012 236.022 11.86C235.414 11.556 234.766 11.404 234.078 11.404C233.15 11.404 232.39 11.704 231.798 12.304C231.214 12.912 230.922 13.728 230.922 14.752C230.922 15.808 231.21 16.632 231.786 17.224C232.362 17.816 233.162 18.112 234.186 18.112C234.722 18.112 235.182 18.024 235.566 17.848C235.678 17.808 235.734 17.724 235.734 17.596V15.496C235.734 15.296 235.634 15.196 235.434 15.196H234.138C233.938 15.196 233.838 15.096 233.838 14.896V14.524C233.838 14.324 233.938 14.224 234.138 14.224H236.502C236.702 14.224 236.802 14.324 236.802 14.524V18.22C236.802 18.332 236.758 18.412 236.67 18.46C235.966 18.924 235.13 19.156 234.162 19.156ZM240.43 18.196C240.902 18.196 241.262 18.072 241.51 17.824C241.766 17.568 241.894 17.256 241.894 16.888V16.228C241.894 16.116 241.862 16.036 241.798 15.988C241.734 15.932 241.65 15.912 241.546 15.928L240.826 16.06C240.57 16.1 240.342 16.148 240.142 16.204C239.95 16.252 239.786 16.308 239.65 16.372C239.378 16.5 239.242 16.764 239.242 17.164C239.242 17.468 239.338 17.716 239.53 17.908C239.722 18.1 240.022 18.196 240.43 18.196ZM240.178 19.12C239.562 19.12 239.07 18.936 238.702 18.568C238.326 18.192 238.138 17.736 238.138 17.2C238.138 16.68 238.25 16.296 238.474 16.048C238.706 15.792 239.006 15.604 239.374 15.484C239.558 15.428 239.754 15.38 239.962 15.34C240.17 15.292 240.39 15.248 240.622 15.208L241.654 15.016C241.726 15 241.782 14.968 241.822 14.92C241.87 14.864 241.89 14.796 241.882 14.716C241.858 14.372 241.762 14.084 241.594 13.852C241.394 13.588 241.014 13.456 240.454 13.456C240.014 13.456 239.55 13.572 239.062 13.804C238.918 13.868 238.802 13.876 238.714 13.828C238.634 13.78 238.594 13.676 238.594 13.516V13.132C238.594 13.004 238.65 12.916 238.762 12.868C239.29 12.62 239.874 12.496 240.514 12.496C241.378 12.496 242.002 12.712 242.386 13.144C242.762 13.592 242.95 14.204 242.95 14.98V18.76C242.95 18.96 242.85 19.06 242.65 19.06H242.194C242.106 19.06 242.034 19.036 241.978 18.988C241.93 18.932 241.906 18.86 241.906 18.772V18.664C241.906 18.568 241.866 18.548 241.786 18.604C241.762 18.628 241.718 18.664 241.654 18.712C241.59 18.768 241.51 18.82 241.414 18.868C241.318 18.908 241.21 18.948 241.09 18.988C240.858 19.076 240.554 19.12 240.178 19.12ZM246.067 19.12C245.659 19.12 245.351 19.036 245.143 18.868C244.943 18.7 244.811 18.464 244.747 18.16C244.675 17.856 244.639 17.504 244.639 17.104V10.396C244.639 10.196 244.739 10.096 244.939 10.096H245.383C245.583 10.096 245.683 10.196 245.683 10.396V17.056C245.683 17.504 245.711 17.796 245.767 17.932C245.831 18.076 245.935 18.148 246.079 18.148C246.127 18.148 246.175 18.148 246.223 18.148C246.279 18.14 246.335 18.132 246.391 18.124C246.591 18.084 246.691 18.16 246.691 18.352V18.808C246.691 18.872 246.671 18.932 246.631 18.988C246.591 19.036 246.539 19.068 246.475 19.084C246.347 19.108 246.211 19.12 246.067 19.12ZM248.938 19.12C248.53 19.12 248.222 19.036 248.014 18.868C247.814 18.7 247.682 18.464 247.618 18.16C247.546 17.856 247.51 17.504 247.51 17.104V10.396C247.51 10.196 247.61 10.096 247.81 10.096H248.254C248.454 10.096 248.554 10.196 248.554 10.396V17.056C248.554 17.504 248.582 17.796 248.638 17.932C248.702 18.076 248.806 18.148 248.95 18.148C248.998 18.148 249.046 18.148 249.094 18.148C249.15 18.14 249.206 18.132 249.262 18.124C249.462 18.084 249.562 18.16 249.562 18.352V18.808C249.562 18.872 249.542 18.932 249.502 18.988C249.462 19.036 249.41 19.068 249.346 19.084C249.218 19.108 249.082 19.12 248.938 19.12ZM254.389 14.968C254.357 14.56 254.237 14.224 254.029 13.96C253.773 13.632 253.369 13.468 252.817 13.468C252.369 13.468 251.981 13.62 251.653 13.924C251.405 14.172 251.225 14.508 251.113 14.932C251.089 15.036 251.101 15.12 251.149 15.184C251.205 15.24 251.289 15.268 251.401 15.268H254.101C254.189 15.268 254.261 15.24 254.317 15.184C254.373 15.128 254.397 15.056 254.389 14.968ZM253.213 19.12C252.237 19.12 251.449 18.82 250.849 18.22C250.249 17.62 249.949 16.832 249.949 15.856C249.949 14.8 250.225 13.98 250.777 13.396C251.313 12.812 251.997 12.52 252.829 12.52C253.613 12.52 254.249 12.772 254.737 13.276C255.225 13.788 255.469 14.492 255.469 15.388C255.469 15.564 255.457 15.744 255.433 15.928C255.417 16.096 255.321 16.18 255.145 16.18H251.353C251.257 16.18 251.181 16.212 251.125 16.276C251.077 16.332 251.061 16.408 251.077 16.504C251.173 17 251.381 17.384 251.701 17.656C252.101 17.992 252.633 18.16 253.297 18.16C253.577 18.16 253.873 18.12 254.185 18.04C254.353 18 254.505 17.952 254.641 17.896C254.921 17.768 255.061 17.852 255.061 18.148V18.532C255.061 18.66 255.005 18.748 254.893 18.796C254.781 18.844 254.661 18.888 254.533 18.928C254.413 18.96 254.285 18.992 254.149 19.024C253.781 19.088 253.469 19.12 253.213 19.12ZM257.604 19.06H257.136C256.936 19.06 256.836 18.96 256.836 18.76V12.892C256.836 12.692 256.936 12.592 257.136 12.592H257.604C257.804 12.592 257.904 12.692 257.904 12.892V13.012C257.904 13.14 257.916 13.208 257.94 13.216C257.972 13.224 258.032 13.184 258.12 13.096C258.192 13 258.308 12.9 258.468 12.796C258.764 12.612 259.128 12.52 259.56 12.52H259.584L259.812 12.544L259.896 12.556C259.952 12.572 259.98 12.604 259.98 12.652V13.324C259.98 13.516 259.884 13.588 259.692 13.54C259.588 13.516 259.484 13.504 259.38 13.504C258.94 13.504 258.584 13.712 258.312 14.128C258.04 14.544 257.904 15.004 257.904 15.508V18.76C257.904 18.96 257.804 19.06 257.604 19.06ZM261.139 21.208C261.083 21.208 261.027 21.204 260.971 21.196C260.923 21.196 260.867 21.192 260.803 21.184C260.739 21.168 260.683 21.132 260.635 21.076C260.595 21.028 260.575 20.968 260.575 20.896V20.392C260.575 20.24 260.655 20.176 260.815 20.2C260.863 20.208 260.903 20.212 260.935 20.212C260.975 20.22 261.015 20.224 261.055 20.224C261.831 20.224 262.395 19.796 262.747 18.94C262.763 18.908 262.771 18.872 262.771 18.832C262.771 18.792 262.763 18.756 262.747 18.724L260.371 13.012C260.323 12.884 260.323 12.784 260.371 12.712C260.419 12.632 260.511 12.592 260.647 12.592H261.187C261.251 12.592 261.307 12.608 261.355 12.64C261.411 12.672 261.447 12.72 261.463 12.784L262.495 15.376C262.647 15.768 262.775 16.104 262.879 16.384C262.991 16.656 263.079 16.876 263.143 17.044C263.183 17.164 263.219 17.268 263.251 17.356C263.283 17.444 263.307 17.516 263.323 17.572C263.339 17.628 263.351 17.628 263.359 17.572L263.383 17.464C263.431 17.288 263.503 17.048 263.599 16.744C263.703 16.44 263.831 16.064 263.983 15.616L264.991 12.796C265.047 12.66 265.143 12.592 265.279 12.592H265.771C265.907 12.592 265.999 12.628 266.047 12.7C266.095 12.772 266.095 12.872 266.047 13L263.875 18.844C263.651 19.444 263.391 19.924 263.095 20.284C262.799 20.636 262.487 20.876 262.159 21.004C261.823 21.14 261.483 21.208 261.139 21.208Z" fill="white"/>
<defs>
<filter id="filter0_bd_602_40921" x="117" y="-80" width="231" height="187" filterUnits="userSpaceOnUse" color-interpolation-filters="sRGB">
<feFlood flood-opacity="0" result="BackgroundImageFix"/>
<feGaussianBlur in="BackgroundImageFix" stdDeviation="40"/>
<feComposite in2="SourceAlpha" operator="in" result="effect1_backgroundBlur_602_40921"/>
<feColorMatrix in="SourceAlpha" type="matrix" values="0 0 0 0 0 0 0 0 0 0 0 0 0 0 0 0 0 0 127 0" result="hardAlpha"/>
<feOffset dy="4"/>
<feGaussianBlur stdDeviation="2"/>
<feComposite in2="hardAlpha" operator="out"/>
<feColorMatrix type="matrix" values="0 0 0 0 0.888333 0 0 0 0 0.873528 0 0 0 0 0.873528 0 0 0 0.25 0"/>
<feBlend mode="normal" in2="effect1_backgroundBlur_602_40921" result="effect2_dropShadow_602_40921"/>
<feBlend mode="normal" in="SourceGraphic" in2="effect2_dropShadow_602_40921" result="shape"/>
</filter>
<clipPath id="clip0_602_40921">
<rect width="53.5135" height="18" fill="white" transform="translate(280 5)"/>
</clipPath>
</defs>
</svg>
