<svg width="40" height="40" viewBox="0 0 40 40" fill="none" xmlns="http://www.w3.org/2000/svg">
<path d="M19.9624 2.5C10.3263 2.5 2.47461 10.3379 2.47461 19.9741C2.47461 29.6102 10.3125 37.4618 19.9624 37.4618C23.9431 37.4618 27.8414 36.0891 30.9437 33.5909C31.1496 33.4262 31.1907 33.1105 31.0123 32.9045C30.8476 32.6986 30.5318 32.6575 30.326 32.8359C27.4022 35.1969 23.7235 36.4872 19.9761 36.4872C10.8754 36.4872 3.47664 29.0886 3.47664 19.9877C3.47664 10.887 10.8616 3.47461 19.9623 3.47461C29.0631 3.47461 36.4618 10.887 36.4618 19.974C36.4618 23.8998 35.0617 27.7021 32.5086 30.6808C32.3301 30.8867 32.3575 31.2024 32.5634 31.3809C32.7694 31.5593 33.0851 31.5318 33.2635 31.3259C35.9677 28.1688 37.4502 24.1332 37.4502 19.974C37.4501 10.3379 29.5985 2.5 19.9624 2.5Z" fill="black" fill-opacity="0.45"/>
<path d="M27.5118 12.4938C27.3197 12.3016 27.004 12.3016 26.8117 12.4938L19.7425 19.563L12.6733 12.4938C12.4811 12.3016 12.1654 12.3016 11.9732 12.4938C11.7811 12.6859 11.7811 13.0016 11.9732 13.1938L19.0424 20.263L11.9733 27.3322C11.7811 27.5244 11.7811 27.8401 11.9733 28.0323C12.0693 28.1284 12.1929 28.1833 12.3164 28.1833C12.44 28.1833 12.5635 28.1284 12.6596 28.0323L19.7288 20.9631L26.798 28.0323C26.8941 28.1284 27.0177 28.1833 27.1412 28.1833C27.2647 28.1833 27.3883 28.1284 27.4843 28.0323C27.6765 27.8401 27.6765 27.5244 27.4843 27.3322L20.4151 20.263L27.4843 13.1938C27.704 12.9879 27.704 12.6859 27.5118 12.4938Z" fill="black" fill-opacity="0.45"/>
</svg>
