<svg width="224" height="359" viewBox="0 0 224 359" fill="none" xmlns="http://www.w3.org/2000/svg">
<path d="M19.6697 274.288C18.8217 274.288 17.9577 274.2 17.0777 274.024C16.7417 273.944 16.4217 273.856 16.1177 273.76C15.8137 273.648 15.5257 273.528 15.2537 273.4C15.1257 273.336 15.0217 273.24 14.9417 273.112C14.8617 272.984 14.8217 272.848 14.8217 272.704V271.552C14.8217 271.072 14.9417 270.768 15.1817 270.64C15.4217 270.512 15.7577 270.552 16.1897 270.76C17.2457 271.256 18.3977 271.504 19.6457 271.504C20.4297 271.504 21.0697 271.312 21.5657 270.928C22.0617 270.576 22.3097 270.048 22.3097 269.344C22.3097 268.704 22.0297 268.192 21.4697 267.808C21.1977 267.632 20.8777 267.448 20.5097 267.256C20.1577 267.064 19.7577 266.88 19.3097 266.704C18.8137 266.48 18.3737 266.264 17.9897 266.056C17.6057 265.848 17.2617 265.656 16.9577 265.48C16.3017 265.064 15.7737 264.552 15.3737 263.944C14.9417 263.32 14.7257 262.52 14.7257 261.544C14.7257 260.072 15.2697 258.888 16.3577 257.992C17.4297 257.112 18.8617 256.672 20.6537 256.672C22.0137 256.672 23.2457 256.888 24.3497 257.32C24.4937 257.384 24.6057 257.488 24.6857 257.632C24.7817 257.76 24.8297 257.904 24.8297 258.064V259.144C24.8297 259.576 24.7177 259.864 24.4937 260.008C24.2697 260.136 23.9497 260.128 23.5337 259.984C22.6217 259.648 21.6937 259.48 20.7497 259.48C19.9017 259.48 19.2537 259.656 18.8057 260.008C18.3577 260.36 18.1337 260.824 18.1337 261.4C18.1337 262.04 18.4217 262.552 18.9977 262.936C19.5257 263.32 20.2217 263.688 21.0857 264.04C21.4537 264.2 21.8137 264.376 22.1657 264.568C22.5337 264.744 22.8937 264.936 23.2457 265.144C23.9497 265.544 24.5257 266.072 24.9737 266.728C25.4377 267.384 25.6697 268.224 25.6697 269.248C25.6697 270.816 25.1097 272.04 23.9897 272.92C22.8697 273.832 21.4297 274.288 19.6697 274.288ZM38.7673 274.12H37.4233C37.1673 274.12 36.9593 274.048 36.7993 273.904C36.6553 273.744 36.5833 273.536 36.5833 273.28V266.2C36.5833 265.288 36.3673 264.608 35.9353 264.16C35.5033 263.696 34.9593 263.464 34.3033 263.464C33.9033 263.464 33.4873 263.568 33.0553 263.776C32.5753 264 32.1833 264.368 31.8793 264.88C31.5593 265.424 31.3993 266.168 31.3993 267.112V273.28C31.3993 273.536 31.3193 273.744 31.1593 273.904C31.0153 274.048 30.8153 274.12 30.5593 274.12H29.2153C28.9593 274.12 28.7513 274.048 28.5913 273.904C28.4473 273.744 28.3753 273.536 28.3753 273.28V256.792C28.3753 256.536 28.4473 256.336 28.5913 256.192C28.7513 256.032 28.9593 255.952 29.2153 255.952H30.5593C30.8153 255.952 31.0153 256.032 31.1593 256.192C31.3193 256.336 31.3993 256.536 31.3993 256.792V260.728C31.3993 261.448 31.4873 261.848 31.6633 261.928C31.8553 262.008 32.2233 261.88 32.7673 261.544C33.4553 261.128 34.3273 260.92 35.3833 260.92C36.6153 260.92 37.6233 261.312 38.4073 262.096C39.2073 262.896 39.6073 264.072 39.6073 265.624V273.28C39.6073 273.536 39.5273 273.744 39.3673 273.904C39.2233 274.048 39.0233 274.12 38.7673 274.12ZM47.2528 271.936C47.9408 271.936 48.4928 271.728 48.9088 271.312C49.2928 270.896 49.4848 270.368 49.4848 269.728V268.888C49.4848 268.632 49.4048 268.448 49.2448 268.336C49.1008 268.208 48.9088 268.168 48.6688 268.216L47.8528 268.384C47.6288 268.416 47.4128 268.464 47.2048 268.528C46.9968 268.576 46.8048 268.632 46.6288 268.696C46.2768 268.808 45.9648 268.984 45.6928 269.224C45.4528 269.464 45.3328 269.816 45.3328 270.28C45.3328 270.76 45.4928 271.16 45.8128 271.48C46.1168 271.784 46.5968 271.936 47.2528 271.936ZM46.2208 274.192C44.9248 274.192 43.9328 273.824 43.2448 273.088C42.5248 272.336 42.1648 271.44 42.1648 270.4C42.1648 269.456 42.3728 268.728 42.7888 268.216C43.2048 267.736 43.7808 267.376 44.5168 267.136C44.8848 267.008 45.2688 266.896 45.6688 266.8C46.0848 266.688 46.5248 266.592 46.9888 266.512L49.3168 266.008C49.4288 266.008 49.4848 265.944 49.4848 265.816V265.648C49.4848 264.96 49.3088 264.416 48.9568 264.016C48.6048 263.616 47.9408 263.416 46.9648 263.416C46.0528 263.416 45.1888 263.576 44.3728 263.896C43.9888 264.072 43.6848 264.096 43.4608 263.968C43.2528 263.84 43.1488 263.568 43.1488 263.152V262.216C43.1488 262.072 43.1888 261.936 43.2688 261.808C43.3488 261.68 43.4528 261.584 43.5808 261.52C43.7568 261.44 43.9488 261.368 44.1568 261.304C44.3808 261.24 44.6208 261.176 44.8768 261.112C45.5808 260.952 46.3968 260.872 47.3248 260.872C49.1488 260.872 50.4768 261.28 51.3088 262.096C52.1568 262.912 52.5808 264.144 52.5808 265.792V273.28C52.5808 273.536 52.5008 273.744 52.3408 273.904C52.1968 274.048 51.9968 274.12 51.7408 274.12H50.3248C50.1008 274.12 49.9248 274.056 49.7968 273.928C49.6688 273.8 49.6048 273.624 49.6048 273.4C49.6048 273.176 49.5728 273.056 49.5088 273.04C49.4448 273.024 49.3328 273.088 49.1728 273.232C48.5328 273.872 47.5488 274.192 46.2208 274.192ZM57.9338 274.12H56.5898C56.3338 274.12 56.1258 274.048 55.9658 273.904C55.8218 273.744 55.7498 273.536 55.7498 273.28L55.7738 261.928C55.7738 261.672 55.8458 261.472 55.9898 261.328C56.1498 261.168 56.3578 261.088 56.6138 261.088H57.9338C58.1898 261.088 58.3898 261.168 58.5338 261.328C58.6938 261.472 58.7738 261.672 58.7738 261.928V262.192C58.7738 262.528 58.8138 262.704 58.8938 262.72C58.9738 262.736 59.1018 262.608 59.2778 262.336C59.9338 261.424 60.8698 260.968 62.0858 260.968C62.1658 260.968 62.2458 260.976 62.3258 260.992C62.4218 260.992 62.5098 261 62.5898 261.016C62.7498 261.048 62.8698 261.12 62.9498 261.232C63.0458 261.344 63.0938 261.472 63.0938 261.616V263.272C63.0938 263.72 62.8618 263.904 62.3978 263.824C62.1578 263.76 61.9098 263.728 61.6538 263.728C60.8058 263.728 60.1178 264.08 59.5898 264.784C59.0458 265.472 58.7738 266.328 58.7738 267.352V273.28C58.7738 273.536 58.6938 273.744 58.5338 273.904C58.3898 274.048 58.1898 274.12 57.9338 274.12ZM72.6898 265.48C72.5938 264.952 72.4098 264.504 72.1378 264.136C71.7378 263.608 71.1058 263.344 70.2418 263.344C69.5378 263.344 68.9138 263.6 68.3698 264.112C68.1938 264.288 68.0338 264.48 67.8898 264.688C67.7618 264.88 67.6498 265.096 67.5538 265.336C67.4258 265.624 67.4338 265.864 67.5778 266.056C67.7378 266.232 67.9778 266.32 68.2978 266.32H71.9218C72.1778 266.32 72.3778 266.248 72.5218 266.104C72.6818 265.944 72.7378 265.736 72.6898 265.48ZM70.9378 274.24C68.8418 274.24 67.2018 273.616 66.0178 272.368C64.8338 271.104 64.2418 269.52 64.2418 267.616C64.2418 266.16 64.5058 264.944 65.0338 263.968C65.5618 262.976 66.2738 262.216 67.1698 261.688C68.0658 261.176 69.0578 260.92 70.1458 260.92C71.7778 260.92 73.1138 261.416 74.1538 262.408C75.1618 263.416 75.6658 264.872 75.6658 266.776C75.6658 266.968 75.6578 267.16 75.6418 267.352C75.6418 267.544 75.6338 267.728 75.6178 267.904C75.5858 268.112 75.4978 268.28 75.3538 268.408C75.2098 268.536 75.0258 268.6 74.8018 268.6H68.2498C67.9458 268.6 67.7138 268.696 67.5538 268.888C67.4098 269.064 67.4018 269.288 67.5298 269.56C67.7698 270.104 68.1298 270.56 68.6098 270.928C69.3138 271.488 70.2418 271.768 71.3938 271.768C72.2418 271.768 73.0258 271.632 73.7458 271.36C74.4978 271.088 74.8738 271.328 74.8738 272.08V272.92C74.8738 273.064 74.8338 273.2 74.7538 273.328C74.6738 273.456 74.5698 273.552 74.4418 273.616C74.2178 273.712 73.9858 273.792 73.7458 273.856C73.5218 273.92 73.2738 273.984 73.0018 274.048C72.6338 274.112 72.2738 274.16 71.9218 274.192C71.5858 274.224 71.2578 274.24 70.9378 274.24ZM97.8383 274.12H95.8463C95.6543 274.12 95.4783 274.064 95.3183 273.952C95.1743 273.84 95.0783 273.688 95.0303 273.496L94.0223 269.824C93.4943 267.92 93.1343 266.528 92.9423 265.648L92.7983 264.976C92.7023 264.56 92.6143 264.552 92.5343 264.952C92.3903 265.56 92.1343 266.576 91.7663 268C91.3983 269.424 90.9103 271.256 90.3023 273.496C90.2543 273.688 90.1503 273.84 89.9903 273.952C89.8463 274.064 89.6783 274.12 89.4863 274.12H87.4703C87.2783 274.12 87.1103 274.072 86.9663 273.976C86.8223 273.864 86.7183 273.72 86.6543 273.544L83.0783 262.192C82.9823 261.856 83.0063 261.592 83.1503 261.4C83.2943 261.192 83.5423 261.088 83.8943 261.088H85.2623C85.4543 261.088 85.6223 261.144 85.7663 261.256C85.9263 261.368 86.0303 261.52 86.0783 261.712L87.0863 265.384C87.3743 266.44 87.6143 267.344 87.8063 268.096C87.9983 268.832 88.1343 269.424 88.2143 269.872L88.3583 270.544C88.4543 270.944 88.5503 270.944 88.6463 270.544L88.7903 269.872C88.8863 269.424 89.0303 268.824 89.2223 268.072C89.4303 267.32 89.6863 266.416 89.9903 265.36L91.0943 261.688C91.2063 261.288 91.4703 261.088 91.8863 261.088H93.4223C93.8383 261.088 94.1023 261.288 94.2143 261.688L95.2943 265.36C95.9183 267.488 96.3263 269 96.5182 269.896L96.6623 270.568C96.7583 270.968 96.8543 270.968 96.9503 270.568L97.0943 269.896C97.1903 269.448 97.3423 268.848 97.5503 268.096C97.7583 267.344 98.0223 266.432 98.3423 265.36L99.3983 261.688C99.4463 261.512 99.5423 261.368 99.6863 261.256C99.8463 261.144 100.014 261.088 100.19 261.088H101.462C101.814 261.088 102.062 261.192 102.206 261.4C102.35 261.592 102.366 261.856 102.254 262.192L98.6543 273.544C98.5903 273.72 98.4863 273.864 98.3423 273.976C98.1983 274.072 98.0303 274.12 97.8383 274.12ZM106.922 274.12H105.578C105.322 274.12 105.114 274.048 104.954 273.904C104.81 273.744 104.738 273.536 104.738 273.28V261.928C104.738 261.672 104.81 261.472 104.954 261.328C105.114 261.168 105.322 261.088 105.578 261.088H106.922C107.178 261.088 107.378 261.168 107.522 261.328C107.682 261.472 107.762 261.672 107.762 261.928V273.28C107.762 273.536 107.682 273.744 107.522 273.904C107.378 274.048 107.178 274.12 106.922 274.12ZM106.25 259C105.738 259 105.306 258.824 104.954 258.472C104.602 258.12 104.426 257.696 104.426 257.2C104.426 256.672 104.602 256.232 104.954 255.88C105.306 255.528 105.738 255.352 106.25 255.352C106.778 255.352 107.218 255.528 107.57 255.88C107.922 256.232 108.098 256.672 108.098 257.2C108.098 257.696 107.922 258.12 107.57 258.472C107.218 258.824 106.778 259 106.25 259ZM116.122 274.24C113.306 274.24 111.898 272.824 111.898 269.992V264.208C111.898 263.952 111.818 263.752 111.658 263.608C111.514 263.448 111.314 263.368 111.058 263.368H110.77C110.514 263.368 110.306 263.296 110.146 263.152C110.002 262.992 109.93 262.784 109.93 262.528V261.928C109.93 261.672 110.002 261.472 110.146 261.328C110.306 261.168 110.514 261.088 110.77 261.088H111.058C111.314 261.088 111.514 261.016 111.658 260.872C111.818 260.712 111.898 260.504 111.898 260.248V258.784C111.898 258.528 111.97 258.328 112.114 258.184C112.274 258.024 112.482 257.944 112.738 257.944H114.13C114.386 257.944 114.586 258.024 114.73 258.184C114.89 258.328 114.97 258.528 114.97 258.784V260.248C114.97 260.504 115.042 260.712 115.186 260.872C115.346 261.016 115.554 261.088 115.81 261.088H117.37C117.626 261.088 117.826 261.168 117.97 261.328C118.13 261.472 118.21 261.672 118.21 261.928V262.528C118.21 262.784 118.13 262.992 117.97 263.152C117.826 263.296 117.626 263.368 117.37 263.368H115.81C115.554 263.368 115.346 263.448 115.186 263.608C115.042 263.752 114.97 263.952 114.97 264.208V270.04C114.97 270.616 115.122 271.032 115.426 271.288C115.714 271.576 116.114 271.72 116.626 271.72C116.946 271.72 117.258 271.672 117.562 271.576C118.122 271.4 118.402 271.584 118.402 272.128V273.232C118.402 273.408 118.354 273.568 118.258 273.712C118.178 273.84 118.058 273.928 117.898 273.976C117.802 274.008 117.698 274.032 117.586 274.048C117.49 274.064 117.386 274.088 117.274 274.12C117.05 274.152 116.842 274.176 116.65 274.192C116.458 274.224 116.282 274.24 116.122 274.24ZM131.345 274.12H130.001C129.745 274.12 129.537 274.048 129.377 273.904C129.233 273.744 129.161 273.536 129.161 273.28V266.2C129.161 265.288 128.945 264.608 128.513 264.16C128.081 263.696 127.537 263.464 126.881 263.464C126.481 263.464 126.065 263.568 125.633 263.776C125.153 264 124.761 264.368 124.457 264.88C124.137 265.424 123.977 266.168 123.977 267.112V273.28C123.977 273.536 123.897 273.744 123.737 273.904C123.593 274.048 123.393 274.12 123.137 274.12H121.793C121.537 274.12 121.329 274.048 121.169 273.904C121.025 273.744 120.953 273.536 120.953 273.28V256.792C120.953 256.536 121.025 256.336 121.169 256.192C121.329 256.032 121.537 255.952 121.793 255.952H123.137C123.393 255.952 123.593 256.032 123.737 256.192C123.897 256.336 123.977 256.536 123.977 256.792V260.728C123.977 261.448 124.065 261.848 124.241 261.928C124.433 262.008 124.801 261.88 125.345 261.544C126.033 261.128 126.905 260.92 127.961 260.92C129.193 260.92 130.201 261.312 130.985 262.096C131.785 262.896 132.185 264.072 132.185 265.624V273.28C132.185 273.536 132.105 273.744 131.945 273.904C131.801 274.048 131.601 274.12 131.345 274.12ZM146.561 274.312C145.201 274.312 144.057 274.016 143.129 273.424C142.201 272.832 141.497 272.04 141.017 271.048C140.537 270.056 140.297 268.944 140.297 267.712C140.297 266.448 140.553 265.288 141.065 264.232C141.561 263.208 142.289 262.392 143.249 261.784C144.177 261.192 145.281 260.896 146.561 260.896C147.953 260.896 149.113 261.192 150.041 261.784C150.969 262.376 151.673 263.176 152.153 264.184C152.617 265.24 152.849 266.368 152.849 267.568C152.849 268.8 152.609 269.936 152.129 270.976C151.633 272 150.921 272.808 149.993 273.4C149.081 274.008 147.937 274.312 146.561 274.312ZM146.585 271.864C147.305 271.864 147.889 271.672 148.337 271.288C148.801 270.904 149.137 270.392 149.345 269.752C149.553 269.128 149.657 268.424 149.657 267.64C149.657 266.872 149.561 266.168 149.369 265.528C149.145 264.856 148.817 264.328 148.385 263.944C147.937 263.544 147.321 263.344 146.537 263.344C145.865 263.344 145.297 263.536 144.833 263.92C144.353 264.352 144.009 264.872 143.801 265.48C143.577 266.152 143.465 266.872 143.465 267.64C143.465 268.76 143.729 269.744 144.257 270.592C144.785 271.44 145.561 271.864 146.585 271.864ZM160.325 274.24C157.509 274.24 156.101 272.824 156.101 269.992V264.208C156.101 263.952 156.021 263.752 155.861 263.608C155.717 263.448 155.517 263.368 155.261 263.368H154.973C154.717 263.368 154.509 263.296 154.349 263.152C154.205 262.992 154.133 262.784 154.133 262.528V261.928C154.133 261.672 154.205 261.472 154.349 261.328C154.509 261.168 154.717 261.088 154.973 261.088H155.261C155.517 261.088 155.717 261.016 155.861 260.872C156.021 260.712 156.101 260.504 156.101 260.248V258.784C156.101 258.528 156.173 258.328 156.317 258.184C156.477 258.024 156.685 257.944 156.941 257.944H158.333C158.589 257.944 158.789 258.024 158.933 258.184C159.093 258.328 159.173 258.528 159.173 258.784V260.248C159.173 260.504 159.245 260.712 159.389 260.872C159.549 261.016 159.757 261.088 160.013 261.088H161.573C161.829 261.088 162.029 261.168 162.173 261.328C162.333 261.472 162.413 261.672 162.413 261.928V262.528C162.413 262.784 162.333 262.992 162.173 263.152C162.029 263.296 161.829 263.368 161.573 263.368H160.013C159.757 263.368 159.549 263.448 159.389 263.608C159.245 263.752 159.173 263.952 159.173 264.208V270.04C159.173 270.616 159.325 271.032 159.629 271.288C159.917 271.576 160.317 271.72 160.829 271.72C161.149 271.72 161.461 271.672 161.765 271.576C162.325 271.4 162.605 271.584 162.605 272.128V273.232C162.605 273.408 162.557 273.568 162.461 273.712C162.381 273.84 162.261 273.928 162.101 273.976C162.005 274.008 161.901 274.032 161.789 274.048C161.693 274.064 161.589 274.088 161.477 274.12C161.253 274.152 161.045 274.176 160.853 274.192C160.661 274.224 160.485 274.24 160.325 274.24ZM175.549 274.12H174.205C173.949 274.12 173.741 274.048 173.581 273.904C173.437 273.744 173.365 273.536 173.365 273.28V266.2C173.365 265.288 173.149 264.608 172.717 264.16C172.285 263.696 171.741 263.464 171.085 263.464C170.685 263.464 170.269 263.568 169.837 263.776C169.357 264 168.965 264.368 168.661 264.88C168.341 265.424 168.181 266.168 168.181 267.112V273.28C168.181 273.536 168.101 273.744 167.941 273.904C167.797 274.048 167.597 274.12 167.341 274.12H165.997C165.741 274.12 165.533 274.048 165.373 273.904C165.229 273.744 165.157 273.536 165.157 273.28V256.792C165.157 256.536 165.229 256.336 165.373 256.192C165.533 256.032 165.741 255.952 165.997 255.952H167.341C167.597 255.952 167.797 256.032 167.941 256.192C168.101 256.336 168.181 256.536 168.181 256.792V260.728C168.181 261.448 168.269 261.848 168.445 261.928C168.637 262.008 169.005 261.88 169.549 261.544C170.237 261.128 171.109 260.92 172.165 260.92C173.397 260.92 174.405 261.312 175.189 262.096C175.989 262.896 176.389 264.072 176.389 265.624V273.28C176.389 273.536 176.309 273.744 176.149 273.904C176.005 274.048 175.805 274.12 175.549 274.12ZM187.346 265.48C187.25 264.952 187.066 264.504 186.794 264.136C186.394 263.608 185.762 263.344 184.898 263.344C184.194 263.344 183.57 263.6 183.026 264.112C182.85 264.288 182.69 264.48 182.546 264.688C182.418 264.88 182.306 265.096 182.21 265.336C182.082 265.624 182.09 265.864 182.234 266.056C182.394 266.232 182.634 266.32 182.954 266.32H186.578C186.834 266.32 187.034 266.248 187.178 266.104C187.338 265.944 187.394 265.736 187.346 265.48ZM185.594 274.24C183.498 274.24 181.858 273.616 180.674 272.368C179.49 271.104 178.898 269.52 178.898 267.616C178.898 266.16 179.162 264.944 179.69 263.968C180.218 262.976 180.93 262.216 181.826 261.688C182.722 261.176 183.714 260.92 184.802 260.92C186.434 260.92 187.77 261.416 188.81 262.408C189.818 263.416 190.322 264.872 190.322 266.776C190.322 266.968 190.314 267.16 190.298 267.352C190.298 267.544 190.29 267.728 190.274 267.904C190.242 268.112 190.154 268.28 190.01 268.408C189.866 268.536 189.682 268.6 189.458 268.6H182.906C182.602 268.6 182.37 268.696 182.21 268.888C182.066 269.064 182.058 269.288 182.186 269.56C182.426 270.104 182.786 270.56 183.266 270.928C183.97 271.488 184.898 271.768 186.05 271.768C186.898 271.768 187.682 271.632 188.402 271.36C189.154 271.088 189.53 271.328 189.53 272.08V272.92C189.53 273.064 189.49 273.2 189.41 273.328C189.33 273.456 189.226 273.552 189.098 273.616C188.874 273.712 188.642 273.792 188.402 273.856C188.178 273.92 187.93 273.984 187.658 274.048C187.29 274.112 186.93 274.16 186.578 274.192C186.242 274.224 185.914 274.24 185.594 274.24ZM195.301 274.12H193.957C193.701 274.12 193.493 274.048 193.333 273.904C193.189 273.744 193.117 273.536 193.117 273.28L193.141 261.928C193.141 261.672 193.213 261.472 193.357 261.328C193.517 261.168 193.725 261.088 193.981 261.088H195.301C195.557 261.088 195.757 261.168 195.901 261.328C196.061 261.472 196.141 261.672 196.141 261.928V262.192C196.141 262.528 196.181 262.704 196.261 262.72C196.341 262.736 196.469 262.608 196.645 262.336C197.301 261.424 198.237 260.968 199.453 260.968C199.533 260.968 199.613 260.976 199.693 260.992C199.789 260.992 199.877 261 199.957 261.016C200.117 261.048 200.237 261.12 200.317 261.232C200.413 261.344 200.461 261.472 200.461 261.616V263.272C200.461 263.72 200.229 263.904 199.765 263.824C199.525 263.76 199.277 263.728 199.021 263.728C198.173 263.728 197.485 264.08 196.957 264.784C196.413 265.472 196.141 266.328 196.141 267.352V273.28C196.141 273.536 196.061 273.744 195.901 273.904C195.757 274.048 195.557 274.12 195.301 274.12ZM206.001 274.216C205.169 274.216 204.425 274.136 203.769 273.976C203.545 273.928 203.329 273.88 203.121 273.832C202.913 273.768 202.721 273.704 202.545 273.64C202.401 273.576 202.289 273.48 202.209 273.352C202.129 273.208 202.089 273.064 202.089 272.92V271.6C202.089 271.024 202.361 270.864 202.905 271.12C203.033 271.184 203.169 271.248 203.313 271.312C203.457 271.36 203.617 271.408 203.793 271.456C204.465 271.68 205.129 271.792 205.785 271.792C207.001 271.792 207.617 271.376 207.633 270.544C207.633 270.08 207.417 269.72 206.985 269.464C206.537 269.192 206.001 268.928 205.377 268.672L204.873 268.456C204.393 268.232 203.937 267.968 203.505 267.664C203.057 267.344 202.705 266.96 202.449 266.512C202.161 266.048 202.017 265.464 202.017 264.76C202.017 263.528 202.481 262.576 203.409 261.904C204.353 261.248 205.465 260.92 206.745 260.92C207.833 260.92 208.761 261.048 209.529 261.304C209.705 261.352 209.833 261.448 209.913 261.592C210.009 261.72 210.057 261.872 210.057 262.048V262.84C210.057 263.256 209.945 263.528 209.721 263.656C209.513 263.784 209.217 263.792 208.833 263.68C208.209 263.504 207.545 263.416 206.841 263.416C206.297 263.416 205.873 263.528 205.569 263.752C205.265 263.992 205.113 264.296 205.113 264.664C205.113 265.096 205.321 265.448 205.737 265.72C205.945 265.848 206.169 265.976 206.409 266.104C206.649 266.232 206.913 266.36 207.201 266.488C208.049 266.872 208.713 267.224 209.193 267.544C210.233 268.264 210.753 269.2 210.753 270.352C210.753 271.616 210.313 272.568 209.433 273.208C208.553 273.88 207.409 274.216 206.001 274.216ZM30.1237 313.928H26.4277C26.1877 313.928 26.0677 313.808 26.0677 313.568V313.112C26.0677 312.872 26.1877 312.752 26.4277 312.752H27.2917C27.5317 312.752 27.6517 312.632 27.6517 312.392V298.856C27.6517 298.616 27.5317 298.496 27.2917 298.496H26.4277C26.1877 298.496 26.0677 298.376 26.0677 298.136V297.68C26.0677 297.44 26.1877 297.32 26.4277 297.32H30.1237C30.3637 297.32 30.4837 297.44 30.4837 297.68V298.136C30.4837 298.376 30.3637 298.496 30.1237 298.496H29.2117C28.9717 298.496 28.8517 298.616 28.8517 298.856V312.392C28.8517 312.632 28.9717 312.752 29.2117 312.752H30.1237C30.3637 312.752 30.4837 312.872 30.4837 313.112V313.568C30.4837 313.808 30.3637 313.928 30.1237 313.928ZM42.3916 313.928H41.9356C41.6956 313.928 41.5756 313.808 41.5756 313.568V305.552C41.5756 304.528 41.2636 303.752 40.6396 303.224C39.9996 302.712 39.2876 302.456 38.5036 302.456C37.8636 302.456 37.2156 302.624 36.5596 302.96C35.9036 303.328 35.3756 303.84 34.9756 304.496C34.5436 305.168 34.3276 305.992 34.3276 306.968V313.568C34.3276 313.808 34.2076 313.928 33.9676 313.928H33.4636C33.2236 313.928 33.1036 313.808 33.1036 313.568V301.784C33.1036 301.544 33.2236 301.424 33.4636 301.424H33.9676C34.2076 301.424 34.3276 301.544 34.3276 301.784V302.504C34.3276 302.84 34.3676 303.024 34.4476 303.056C34.5436 303.072 34.6956 302.96 34.9036 302.72C35.2236 302.352 35.5996 302.048 36.0316 301.808C36.7676 301.408 37.5516 301.208 38.3836 301.208C39.6476 301.208 40.6956 301.568 41.5276 302.288C42.3436 303.024 42.7516 303.96 42.7516 305.096V313.568C42.7516 313.808 42.6316 313.928 42.3916 313.928ZM50.735 314.072C49.471 314.072 48.591 313.752 48.095 313.112C47.567 312.456 47.303 311.584 47.303 310.496V302.864C47.303 302.624 47.183 302.504 46.943 302.504H45.551C45.311 302.504 45.191 302.384 45.191 302.144V301.784C45.191 301.544 45.311 301.424 45.551 301.424H46.943C47.183 301.424 47.303 301.304 47.303 301.064V298.64C47.303 298.4 47.423 298.28 47.663 298.28H48.143C48.383 298.28 48.503 298.4 48.503 298.64V301.064C48.503 301.304 48.623 301.424 48.863 301.424H51.815C52.055 301.424 52.175 301.544 52.175 301.784V302.144C52.175 302.384 52.055 302.504 51.815 302.504H48.863C48.623 302.504 48.503 302.624 48.503 302.864V310.568C48.503 311.304 48.671 311.864 49.007 312.248C49.311 312.648 49.847 312.848 50.615 312.848C50.935 312.848 51.239 312.792 51.527 312.68C51.607 312.648 51.671 312.624 51.719 312.608C51.783 312.576 51.847 312.544 51.911 312.512C52.151 312.384 52.271 312.448 52.271 312.704V313.376C52.271 313.504 52.215 313.6 52.103 313.664C51.895 313.776 51.703 313.864 51.527 313.928C51.239 314.024 50.975 314.072 50.735 314.072ZM63.6738 306.512V306.2C63.6738 305.096 63.3378 304.2 62.6658 303.512C61.9778 302.824 61.0738 302.48 59.9538 302.48C58.8978 302.48 58.0018 302.848 57.2658 303.584C56.5778 304.272 56.1378 305.216 55.9458 306.416C55.9138 306.688 56.0338 306.824 56.3058 306.824H63.3618C63.5698 306.824 63.6738 306.72 63.6738 306.512ZM60.7938 314.072C59.0018 314.072 57.5138 313.496 56.3298 312.344C55.1458 311.208 54.5538 309.68 54.5538 307.76C54.5538 305.712 55.0658 304.12 56.0898 302.984C57.1298 301.848 58.4418 301.28 60.0258 301.28C61.5138 301.28 62.7138 301.768 63.6258 302.744C64.5218 303.736 64.9698 305.08 64.9698 306.776C64.9698 306.968 64.9698 307.144 64.9698 307.304C64.9698 307.464 64.9618 307.608 64.9458 307.736C64.9138 307.944 64.7938 308.048 64.5858 308.048H56.2338C55.9618 308.048 55.8418 308.176 55.8738 308.432C56.0178 309.856 56.4898 310.92 57.2898 311.624C58.1698 312.424 59.3378 312.824 60.7938 312.824C61.2418 312.824 61.8098 312.76 62.4978 312.632C62.8658 312.568 63.2338 312.456 63.6018 312.296C63.9858 312.136 64.1778 312.256 64.1778 312.656V313.112C64.1778 313.288 64.1058 313.4 63.9618 313.448C63.5298 313.608 63.0498 313.752 62.5218 313.88C61.8338 314.008 61.2578 314.072 60.7938 314.072ZM72.3683 312.416C72.8643 312.416 73.4243 312.28 74.0483 312.008C74.6563 311.736 75.1843 311.256 75.6323 310.568C76.0803 309.912 76.3043 308.976 76.3043 307.76C76.3043 306.448 76.0963 305.392 75.6803 304.592C75.2803 303.84 74.7843 303.28 74.1923 302.912C73.6003 302.576 73.0403 302.408 72.5123 302.408C71.2643 302.408 70.2883 302.904 69.5843 303.896C68.8803 304.888 68.5283 306.136 68.5283 307.64C68.5283 308.776 68.7443 309.696 69.1763 310.4C69.5923 311.12 70.0963 311.632 70.6883 311.936C71.2963 312.256 71.8563 312.416 72.3683 312.416ZM72.1523 318.632C70.8563 318.632 69.7603 318.44 68.8643 318.056C68.7203 318.008 68.6483 317.904 68.6483 317.744V317.336C68.6483 316.968 68.8243 316.848 69.1763 316.976C70.0403 317.312 70.9923 317.48 72.0323 317.48C72.8483 317.48 73.5683 317.328 74.1923 317.024C74.8483 316.704 75.3603 316.232 75.7283 315.608C76.1123 314.968 76.3043 314.104 76.3043 313.016V312.128C76.3043 311.616 76.1443 311.568 75.8243 311.984C75.5363 312.384 75.1843 312.72 74.7683 312.992C74.1283 313.44 73.3763 313.664 72.5123 313.664C71.5843 313.664 70.7203 313.424 69.9203 312.944C69.1363 312.496 68.4963 311.816 68.0003 310.904C67.5043 310.024 67.2563 308.96 67.2563 307.712C67.2563 305.84 67.7203 304.288 68.6483 303.056C69.5603 301.824 70.7843 301.208 72.3203 301.208C73.7763 301.208 74.9043 301.728 75.7043 302.768C75.9283 303.04 76.0803 303.168 76.1603 303.152C76.2563 303.12 76.3043 302.928 76.3043 302.576V301.784C76.3043 301.544 76.4243 301.424 76.6643 301.424H77.1443C77.3843 301.424 77.5043 301.544 77.5043 301.784V313.016C77.5043 314.328 77.2643 315.4 76.7843 316.232C76.3203 317.032 75.6803 317.64 74.8643 318.056C74.0483 318.44 73.1443 318.632 72.1523 318.632ZM82.0613 313.928H81.5573C81.3173 313.928 81.1973 313.808 81.1973 313.568V301.784C81.1973 301.544 81.3173 301.424 81.5573 301.424H82.0613C82.3013 301.424 82.4213 301.544 82.4213 301.784V302.48C82.4213 302.8 82.4613 302.976 82.5413 303.008C82.6213 303.024 82.7573 302.904 82.9493 302.648C83.6373 301.72 84.6533 301.256 85.9973 301.256L86.2613 301.28H86.3093L86.4053 301.304C86.4853 301.336 86.5253 301.384 86.5253 301.448V302.12C86.5253 302.392 86.3813 302.504 86.0933 302.456C86.0133 302.44 85.9333 302.432 85.8533 302.432C85.7733 302.432 85.6933 302.432 85.6133 302.432C84.9573 302.432 84.3973 302.656 83.9333 303.104C83.4693 303.536 83.1013 304.104 82.8293 304.808C82.5573 305.528 82.4213 306.208 82.4213 306.848V313.568C82.4213 313.808 82.3013 313.928 82.0613 313.928ZM92.7404 312.848C93.8284 312.848 94.6764 312.552 95.2844 311.96C95.9084 311.384 96.2204 310.664 96.2204 309.8V307.76C96.2204 307.472 96.0764 307.352 95.7884 307.4L93.6044 307.784C92.3724 307.96 91.4444 308.2 90.8204 308.504C90.1964 308.808 89.8844 309.432 89.8844 310.376C89.8844 311.064 90.1244 311.648 90.6044 312.128C91.0684 312.608 91.7804 312.848 92.7404 312.848ZM92.5244 314.072C91.3884 314.072 90.4524 313.728 89.7164 313.04C88.9804 312.352 88.6124 311.472 88.6124 310.4C88.6124 309.376 88.8444 308.608 89.3084 308.096C89.7564 307.6 90.3724 307.24 91.1564 307.016C91.5244 306.904 91.9084 306.808 92.3084 306.728C92.7244 306.648 93.1564 306.568 93.6044 306.488L95.9084 306.128C96.1164 306.096 96.2204 305.976 96.2204 305.768C96.1724 304.744 95.9404 303.952 95.5244 303.392C95.0764 302.752 94.2284 302.432 92.9804 302.432C92.4524 302.432 91.8604 302.528 91.2044 302.72C91.0124 302.784 90.8204 302.856 90.6284 302.936C90.4524 303 90.2764 303.072 90.1004 303.152C89.7164 303.36 89.5244 303.248 89.5244 302.816V302.312C89.5244 302.168 89.5804 302.072 89.6924 302.024C90.1084 301.784 90.5964 301.592 91.1564 301.448C91.7804 301.304 92.3724 301.232 92.9324 301.232C94.5804 301.232 95.7404 301.664 96.4124 302.528C97.0684 303.408 97.3964 304.584 97.3964 306.056V313.568C97.3964 313.808 97.2764 313.928 97.0364 313.928H96.5564C96.3164 313.928 96.1964 313.808 96.1964 313.568V312.92C96.1964 312.632 96.1004 312.6 95.9084 312.824C95.8604 312.872 95.8044 312.928 95.7404 312.992C95.6924 313.04 95.6284 313.088 95.5484 313.136C95.2284 313.408 94.8284 313.624 94.3484 313.784C93.8524 313.976 93.2444 314.072 92.5244 314.072ZM105.391 314.072C104.127 314.072 103.247 313.752 102.751 313.112C102.223 312.456 101.959 311.584 101.959 310.496V302.864C101.959 302.624 101.839 302.504 101.599 302.504H100.207C99.9672 302.504 99.8472 302.384 99.8472 302.144V301.784C99.8472 301.544 99.9672 301.424 100.207 301.424H101.599C101.839 301.424 101.959 301.304 101.959 301.064V298.64C101.959 298.4 102.079 298.28 102.319 298.28H102.799C103.039 298.28 103.159 298.4 103.159 298.64V301.064C103.159 301.304 103.279 301.424 103.519 301.424H106.471C106.711 301.424 106.831 301.544 106.831 301.784V302.144C106.831 302.384 106.711 302.504 106.471 302.504H103.519C103.279 302.504 103.159 302.624 103.159 302.864V310.568C103.159 311.304 103.327 311.864 103.663 312.248C103.967 312.648 104.503 312.848 105.271 312.848C105.591 312.848 105.895 312.792 106.183 312.68C106.263 312.648 106.327 312.624 106.375 312.608C106.439 312.576 106.503 312.544 106.567 312.512C106.807 312.384 106.927 312.448 106.927 312.704V313.376C106.927 313.504 106.871 313.6 106.759 313.664C106.551 313.776 106.359 313.864 106.183 313.928C105.895 314.024 105.631 314.072 105.391 314.072ZM110.938 313.928H110.482C110.242 313.928 110.122 313.808 110.122 313.568V301.784C110.122 301.544 110.242 301.424 110.482 301.424H110.938C111.178 301.424 111.298 301.544 111.298 301.784V313.568C111.298 313.808 111.178 313.928 110.938 313.928ZM110.698 298.28C110.458 298.28 110.25 298.192 110.074 298.016C109.898 297.84 109.81 297.632 109.81 297.392C109.81 297.136 109.898 296.92 110.074 296.744C110.25 296.568 110.458 296.48 110.698 296.48C110.954 296.48 111.17 296.568 111.346 296.744C111.506 296.904 111.586 297.12 111.586 297.392C111.586 297.648 111.506 297.856 111.346 298.016C111.17 298.192 110.954 298.28 110.698 298.28ZM124.517 313.928H124.061C123.821 313.928 123.701 313.808 123.701 313.568V305.552C123.701 304.528 123.389 303.752 122.765 303.224C122.125 302.712 121.413 302.456 120.629 302.456C119.989 302.456 119.341 302.624 118.685 302.96C118.029 303.328 117.501 303.84 117.101 304.496C116.669 305.168 116.453 305.992 116.453 306.968V313.568C116.453 313.808 116.333 313.928 116.093 313.928H115.589C115.349 313.928 115.229 313.808 115.229 313.568V301.784C115.229 301.544 115.349 301.424 115.589 301.424H116.093C116.333 301.424 116.453 301.544 116.453 301.784V302.504C116.453 302.84 116.493 303.024 116.573 303.056C116.669 303.072 116.821 302.96 117.029 302.72C117.349 302.352 117.725 302.048 118.157 301.808C118.893 301.408 119.677 301.208 120.509 301.208C121.773 301.208 122.821 301.568 123.653 302.288C124.469 303.024 124.877 303.96 124.877 305.096V313.568C124.877 313.808 124.757 313.928 124.517 313.928ZM132.884 312.416C133.38 312.416 133.94 312.28 134.564 312.008C135.172 311.736 135.7 311.256 136.148 310.568C136.596 309.912 136.82 308.976 136.82 307.76C136.82 306.448 136.612 305.392 136.196 304.592C135.796 303.84 135.3 303.28 134.708 302.912C134.116 302.576 133.556 302.408 133.028 302.408C131.78 302.408 130.804 302.904 130.1 303.896C129.396 304.888 129.044 306.136 129.044 307.64C129.044 308.776 129.26 309.696 129.692 310.4C130.108 311.12 130.612 311.632 131.204 311.936C131.812 312.256 132.372 312.416 132.884 312.416ZM132.668 318.632C131.372 318.632 130.276 318.44 129.38 318.056C129.236 318.008 129.164 317.904 129.164 317.744V317.336C129.164 316.968 129.34 316.848 129.692 316.976C130.556 317.312 131.508 317.48 132.548 317.48C133.364 317.48 134.084 317.328 134.708 317.024C135.364 316.704 135.876 316.232 136.244 315.608C136.628 314.968 136.82 314.104 136.82 313.016V312.128C136.82 311.616 136.66 311.568 136.34 311.984C136.052 312.384 135.7 312.72 135.284 312.992C134.644 313.44 133.892 313.664 133.028 313.664C132.1 313.664 131.236 313.424 130.436 312.944C129.652 312.496 129.012 311.816 128.516 310.904C128.02 310.024 127.772 308.96 127.772 307.712C127.772 305.84 128.236 304.288 129.164 303.056C130.076 301.824 131.3 301.208 132.836 301.208C134.292 301.208 135.42 301.728 136.22 302.768C136.444 303.04 136.596 303.168 136.676 303.152C136.772 303.12 136.82 302.928 136.82 302.576V301.784C136.82 301.544 136.94 301.424 137.18 301.424H137.66C137.9 301.424 138.02 301.544 138.02 301.784V313.016C138.02 314.328 137.78 315.4 137.3 316.232C136.836 317.032 136.196 317.64 135.38 318.056C134.564 318.44 133.66 318.632 132.668 318.632ZM162.963 313.928H162.483C162.243 313.928 162.123 313.808 162.123 313.568V305.552C162.123 303.488 161.211 302.456 159.387 302.456C158.811 302.456 158.267 302.632 157.755 302.984C157.243 303.336 156.803 303.856 156.435 304.544C156.083 305.2 155.907 306.008 155.907 306.968V313.568C155.907 313.808 155.787 313.928 155.547 313.928H155.091C154.851 313.928 154.731 313.808 154.731 313.568V305.552C154.731 303.488 153.811 302.456 151.971 302.456C151.395 302.456 150.851 302.632 150.339 302.984C149.811 303.336 149.379 303.856 149.043 304.544C148.707 305.216 148.539 306.024 148.539 306.968V313.568C148.539 313.808 148.419 313.928 148.179 313.928H147.675C147.435 313.928 147.315 313.808 147.315 313.568V301.784C147.315 301.544 147.435 301.424 147.675 301.424H148.179C148.419 301.424 148.539 301.544 148.539 301.784V302.48C148.539 302.8 148.579 302.968 148.659 302.984C148.739 303 148.875 302.888 149.067 302.648C149.787 301.688 150.771 301.208 152.019 301.208C153.699 301.208 154.835 301.744 155.427 302.816C155.667 303.312 155.947 303.336 156.267 302.888C156.587 302.44 156.947 302.088 157.347 301.832C158.003 301.416 158.699 301.208 159.435 301.208C160.411 301.208 161.179 301.384 161.739 301.736C162.283 302.088 162.691 302.56 162.963 303.152C163.203 303.744 163.323 304.392 163.323 305.096V313.568C163.323 313.808 163.203 313.928 162.963 313.928ZM171.945 314.144C170.761 314.144 169.745 313.856 168.897 313.28C168.033 312.72 167.377 311.952 166.929 310.976C166.465 310 166.233 308.92 166.233 307.736C166.233 306.552 166.473 305.472 166.953 304.496C167.417 303.536 168.089 302.752 168.969 302.144C169.801 301.552 170.793 301.256 171.945 301.256C173.241 301.256 174.313 301.552 175.161 302.144C176.041 302.752 176.689 303.536 177.105 304.496C177.537 305.472 177.753 306.568 177.753 307.784C177.753 308.984 177.529 310.056 177.081 311C176.617 311.96 175.953 312.72 175.089 313.28C174.225 313.856 173.177 314.144 171.945 314.144ZM171.945 312.92C172.953 312.92 173.793 312.68 174.465 312.2C175.137 311.72 175.649 311.088 176.001 310.304C176.337 309.504 176.505 308.656 176.505 307.76C176.505 306.832 176.353 305.968 176.049 305.168C175.745 304.4 175.257 303.752 174.585 303.224C173.929 302.728 173.049 302.48 171.945 302.48C170.969 302.48 170.161 302.728 169.521 303.224C168.865 303.736 168.369 304.392 168.033 305.192C167.681 305.96 167.505 306.816 167.505 307.76C167.505 308.64 167.689 309.488 168.057 310.304C168.409 311.088 168.921 311.72 169.593 312.2C170.249 312.68 171.033 312.92 171.945 312.92ZM181.671 313.928H181.167C180.927 313.928 180.807 313.808 180.807 313.568V301.784C180.807 301.544 180.927 301.424 181.167 301.424H181.671C181.911 301.424 182.031 301.544 182.031 301.784V302.48C182.031 302.8 182.071 302.976 182.151 303.008C182.231 303.024 182.367 302.904 182.559 302.648C183.247 301.72 184.263 301.256 185.607 301.256L185.871 301.28H185.919L186.015 301.304C186.095 301.336 186.135 301.384 186.135 301.448V302.12C186.135 302.392 185.991 302.504 185.703 302.456C185.623 302.44 185.543 302.432 185.463 302.432C185.383 302.432 185.303 302.432 185.223 302.432C184.567 302.432 184.007 302.656 183.543 303.104C183.079 303.536 182.711 304.104 182.439 304.808C182.167 305.528 182.031 306.208 182.031 306.848V313.568C182.031 313.808 181.911 313.928 181.671 313.928ZM197.174 306.512V306.2C197.174 305.096 196.838 304.2 196.166 303.512C195.478 302.824 194.574 302.48 193.454 302.48C192.398 302.48 191.502 302.848 190.766 303.584C190.078 304.272 189.638 305.216 189.446 306.416C189.414 306.688 189.534 306.824 189.806 306.824H196.862C197.07 306.824 197.174 306.72 197.174 306.512ZM194.294 314.072C192.502 314.072 191.014 313.496 189.83 312.344C188.646 311.208 188.054 309.68 188.054 307.76C188.054 305.712 188.566 304.12 189.59 302.984C190.63 301.848 191.942 301.28 193.526 301.28C195.014 301.28 196.214 301.768 197.126 302.744C198.022 303.736 198.47 305.08 198.47 306.776C198.47 306.968 198.47 307.144 198.47 307.304C198.47 307.464 198.462 307.608 198.446 307.736C198.414 307.944 198.294 308.048 198.086 308.048H189.734C189.462 308.048 189.342 308.176 189.374 308.432C189.518 309.856 189.99 310.92 190.79 311.624C191.67 312.424 192.838 312.824 194.294 312.824C194.742 312.824 195.31 312.76 195.998 312.632C196.366 312.568 196.734 312.456 197.102 312.296C197.486 312.136 197.678 312.256 197.678 312.656V313.112C197.678 313.288 197.606 313.4 197.462 313.448C197.03 313.608 196.55 313.752 196.022 313.88C195.334 314.008 194.758 314.072 194.294 314.072ZM17.0218 352.92C17.6298 352.92 18.2538 352.776 18.8938 352.488C19.5178 352.2 20.0458 351.672 20.4778 350.904C20.9098 350.136 21.1258 349.048 21.1258 347.64C21.1258 346.232 20.9018 345.16 20.4538 344.424C19.9898 343.672 19.4538 343.152 18.8458 342.864C18.2538 342.576 17.7098 342.432 17.2138 342.432C16.1258 342.432 15.1818 342.88 14.3818 343.776C13.5818 344.704 13.1818 346.072 13.1818 347.88C13.1818 349.368 13.5498 350.576 14.2858 351.504C15.0058 352.448 15.9178 352.92 17.0218 352.92ZM17.2138 354.12C16.0458 354.12 15.0698 353.824 14.2858 353.232C13.5018 352.656 12.9018 351.888 12.4858 350.928C12.0858 350.016 11.8858 348.992 11.8858 347.856C11.8858 345.936 12.3818 344.344 13.3738 343.08C14.3658 341.832 15.6618 341.208 17.2618 341.208C18.5098 341.208 19.5498 341.616 20.3818 342.432C20.8778 342.912 21.1258 342.816 21.1258 342.144V336.864C21.1258 336.624 21.2458 336.504 21.4858 336.504H21.9418C22.1818 336.504 22.3018 336.624 22.3018 336.864V353.568C22.3018 353.808 22.1818 353.928 21.9418 353.928H21.4858C21.2458 353.928 21.1258 353.808 21.1258 353.568V353.016C21.1258 352.472 20.9418 352.4 20.5738 352.8C20.3018 353.072 19.9818 353.32 19.6138 353.544C18.9738 353.928 18.1738 354.12 17.2138 354.12ZM27.0669 353.928H26.6109C26.3709 353.928 26.2509 353.808 26.2509 353.568V341.784C26.2509 341.544 26.3709 341.424 26.6109 341.424H27.0669C27.3069 341.424 27.4269 341.544 27.4269 341.784V353.568C27.4269 353.808 27.3069 353.928 27.0669 353.928ZM26.8269 338.28C26.5869 338.28 26.3789 338.192 26.2029 338.016C26.0269 337.84 25.9389 337.632 25.9389 337.392C25.9389 337.136 26.0269 336.92 26.2029 336.744C26.3789 336.568 26.5869 336.48 26.8269 336.48C27.0829 336.48 27.2989 336.568 27.4749 336.744C27.6349 336.904 27.7149 337.12 27.7149 337.392C27.7149 337.648 27.6349 337.856 27.4749 338.016C27.2989 338.192 27.0829 338.28 26.8269 338.28ZM36.0615 353.928H34.7895C34.6135 353.928 34.5015 353.848 34.4535 353.688L30.4455 341.904C30.3335 341.584 30.4455 341.424 30.7815 341.424H31.2615C31.4375 341.424 31.5495 341.504 31.5975 341.664L34.5255 350.328L35.0775 351.936C35.1895 352.24 35.3015 352.392 35.4135 352.392C35.5415 352.392 35.6615 352.24 35.7735 351.936L37.5975 346.68L39.3495 341.664C39.4295 341.504 39.5495 341.424 39.7095 341.424H40.2135C40.5495 341.424 40.6615 341.584 40.5495 341.904L36.4215 353.688C36.3415 353.848 36.2215 353.928 36.0615 353.928ZM51.7793 346.512V346.2C51.7793 345.096 51.4433 344.2 50.7713 343.512C50.0833 342.824 49.1793 342.48 48.0593 342.48C47.0033 342.48 46.1073 342.848 45.3713 343.584C44.6833 344.272 44.2433 345.216 44.0513 346.416C44.0193 346.688 44.1393 346.824 44.4113 346.824H51.4673C51.6753 346.824 51.7793 346.72 51.7793 346.512ZM48.8993 354.072C47.1073 354.072 45.6193 353.496 44.4353 352.344C43.2513 351.208 42.6593 349.68 42.6593 347.76C42.6593 345.712 43.1713 344.12 44.1953 342.984C45.2353 341.848 46.5473 341.28 48.1313 341.28C49.6193 341.28 50.8193 341.768 51.7313 342.744C52.6273 343.736 53.0753 345.08 53.0753 346.776C53.0753 346.968 53.0753 347.144 53.0753 347.304C53.0753 347.464 53.0673 347.608 53.0513 347.736C53.0193 347.944 52.8993 348.048 52.6913 348.048H44.3393C44.0673 348.048 43.9473 348.176 43.9793 348.432C44.1233 349.856 44.5953 350.92 45.3953 351.624C46.2753 352.424 47.4433 352.824 48.8993 352.824C49.3473 352.824 49.9153 352.76 50.6033 352.632C50.9713 352.568 51.3393 352.456 51.7073 352.296C52.0913 352.136 52.2833 352.256 52.2833 352.656V353.112C52.2833 353.288 52.2113 353.4 52.0673 353.448C51.6353 353.608 51.1553 353.752 50.6273 353.88C49.9393 354.008 49.3633 354.072 48.8993 354.072ZM57.0418 353.928H56.5378C56.2978 353.928 56.1778 353.808 56.1778 353.568V341.784C56.1778 341.544 56.2978 341.424 56.5378 341.424H57.0418C57.2818 341.424 57.4018 341.544 57.4018 341.784V342.48C57.4018 342.8 57.4418 342.976 57.5218 343.008C57.6018 343.024 57.7378 342.904 57.9298 342.648C58.6178 341.72 59.6338 341.256 60.9778 341.256L61.2418 341.28H61.2898L61.3858 341.304C61.4658 341.336 61.5058 341.384 61.5058 341.448V342.12C61.5058 342.392 61.3618 342.504 61.0738 342.456C60.9938 342.44 60.9138 342.432 60.8338 342.432C60.7538 342.432 60.6738 342.432 60.5938 342.432C59.9378 342.432 59.3778 342.656 58.9138 343.104C58.4498 343.536 58.0818 344.104 57.8098 344.808C57.5378 345.528 57.4018 346.208 57.4018 346.848V353.568C57.4018 353.808 57.2818 353.928 57.0418 353.928ZM67.4329 354.096C66.0409 354.096 64.8889 353.88 63.9769 353.448C63.8489 353.4 63.7849 353.296 63.7849 353.136V352.608C63.7849 352.224 63.9609 352.112 64.3129 352.272C65.3689 352.704 66.3769 352.92 67.3369 352.92C68.2809 352.92 68.9769 352.728 69.4249 352.344C69.8729 351.96 70.0969 351.488 70.0969 350.928C70.0969 350.192 69.8409 349.616 69.3289 349.2C68.8169 348.8 68.0729 348.432 67.0969 348.096C66.8249 347.984 66.5529 347.872 66.2809 347.76C66.0249 347.632 65.7689 347.496 65.5129 347.352C65.0009 347.064 64.5769 346.688 64.2409 346.224C63.8889 345.776 63.7129 345.208 63.7129 344.52C63.7129 343.528 64.0809 342.744 64.8169 342.168C65.5369 341.592 66.4249 341.304 67.4809 341.304C68.2009 341.304 68.8409 341.368 69.4009 341.496C69.7689 341.576 70.0969 341.672 70.3849 341.784C70.5129 341.832 70.5769 341.936 70.5769 342.096V342.552C70.5769 342.92 70.4009 343.04 70.0489 342.912C69.2809 342.64 68.4089 342.504 67.4329 342.504C66.6809 342.504 66.0729 342.688 65.6089 343.056C65.1449 343.424 64.9129 343.896 64.9129 344.472C64.9129 344.968 65.0409 345.368 65.2969 345.672C65.5369 345.976 65.8569 346.224 66.2569 346.416C66.6729 346.64 67.1129 346.832 67.5769 346.992C68.2809 347.264 68.8969 347.552 69.4249 347.856C69.9529 348.16 70.4089 348.552 70.7929 349.032C71.1289 349.48 71.2969 350.064 71.2969 350.784C71.2969 351.776 70.9609 352.576 70.2889 353.184C69.6009 353.792 68.6489 354.096 67.4329 354.096ZM75.0201 353.928H74.5641C74.3241 353.928 74.2041 353.808 74.2041 353.568V341.784C74.2041 341.544 74.3241 341.424 74.5641 341.424H75.0201C75.2601 341.424 75.3801 341.544 75.3801 341.784V353.568C75.3801 353.808 75.2601 353.928 75.0201 353.928ZM74.7801 338.28C74.5401 338.28 74.3321 338.192 74.1561 338.016C73.9801 337.84 73.8921 337.632 73.8921 337.392C73.8921 337.136 73.9801 336.92 74.1561 336.744C74.3321 336.568 74.5401 336.48 74.7801 336.48C75.0361 336.48 75.2521 336.568 75.4281 336.744C75.5881 336.904 75.6681 337.12 75.6681 337.392C75.6681 337.648 75.5881 337.856 75.4281 338.016C75.2521 338.192 75.0361 338.28 74.7801 338.28ZM83.5826 354.072C82.3186 354.072 81.4386 353.752 80.9426 353.112C80.4146 352.456 80.1506 351.584 80.1506 350.496V342.864C80.1506 342.624 80.0306 342.504 79.7906 342.504H78.3986C78.1586 342.504 78.0386 342.384 78.0386 342.144V341.784C78.0386 341.544 78.1586 341.424 78.3986 341.424H79.7906C80.0306 341.424 80.1506 341.304 80.1506 341.064V338.64C80.1506 338.4 80.2706 338.28 80.5106 338.28H80.9906C81.2306 338.28 81.3506 338.4 81.3506 338.64V341.064C81.3506 341.304 81.4706 341.424 81.7106 341.424H84.6626C84.9026 341.424 85.0226 341.544 85.0226 341.784V342.144C85.0226 342.384 84.9026 342.504 84.6626 342.504H81.7106C81.4706 342.504 81.3506 342.624 81.3506 342.864V350.568C81.3506 351.304 81.5186 351.864 81.8546 352.248C82.1586 352.648 82.6946 352.848 83.4626 352.848C83.7826 352.848 84.0866 352.792 84.3746 352.68C84.4546 352.648 84.5186 352.624 84.5666 352.608C84.6306 352.576 84.6946 352.544 84.7586 352.512C84.9986 352.384 85.1186 352.448 85.1186 352.704V353.376C85.1186 353.504 85.0626 353.6 84.9506 353.664C84.7426 353.776 84.5506 353.864 84.3746 353.928C84.0866 354.024 83.8226 354.072 83.5826 354.072ZM87.9054 357.96C87.8254 357.96 87.7374 357.952 87.6414 357.936C87.5614 357.936 87.4654 357.928 87.3534 357.912C87.1614 357.88 87.0654 357.768 87.0654 357.576V356.952C87.0654 356.696 87.1934 356.592 87.4494 356.64C87.5294 356.656 87.6014 356.664 87.6654 356.664C87.7294 356.68 87.7934 356.688 87.8574 356.688C88.7214 356.688 89.4814 356.432 90.1374 355.92C90.7774 355.408 91.2734 354.664 91.6254 353.688C91.6574 353.608 91.6574 353.528 91.6254 353.448L86.7294 341.928C86.6014 341.592 86.7134 341.424 87.0654 341.424H87.6654C87.8254 341.424 87.9374 341.496 88.0014 341.64L91.1934 349.44L91.8894 351.072C92.0014 351.328 92.1134 351.456 92.2254 351.456C92.3534 351.456 92.4654 351.32 92.5614 351.048L93.4494 348.528L95.9934 341.664C96.0734 341.504 96.1854 341.424 96.3294 341.424H96.9294C97.2814 341.424 97.3934 341.584 97.2654 341.904L92.9214 353.616C92.4734 354.816 91.9694 355.728 91.4094 356.352C90.8334 356.992 90.2654 357.416 89.7054 357.624C89.0814 357.848 88.4814 357.96 87.9054 357.96ZM110.387 354.144C109.203 354.144 108.187 353.856 107.339 353.28C106.475 352.72 105.819 351.952 105.371 350.976C104.907 350 104.675 348.92 104.675 347.736C104.675 346.552 104.915 345.472 105.395 344.496C105.859 343.536 106.531 342.752 107.411 342.144C108.243 341.552 109.235 341.256 110.387 341.256C111.683 341.256 112.755 341.552 113.603 342.144C114.483 342.752 115.131 343.536 115.547 344.496C115.979 345.472 116.195 346.568 116.195 347.784C116.195 348.984 115.971 350.056 115.523 351C115.059 351.96 114.395 352.72 113.531 353.28C112.667 353.856 111.619 354.144 110.387 354.144ZM110.387 352.92C111.395 352.92 112.235 352.68 112.907 352.2C113.579 351.72 114.091 351.088 114.443 350.304C114.779 349.504 114.947 348.656 114.947 347.76C114.947 346.832 114.795 345.968 114.491 345.168C114.187 344.4 113.699 343.752 113.027 343.224C112.371 342.728 111.491 342.48 110.387 342.48C109.411 342.48 108.603 342.728 107.963 343.224C107.307 343.736 106.811 344.392 106.475 345.192C106.123 345.96 105.947 346.816 105.947 347.76C105.947 348.64 106.131 349.488 106.499 350.304C106.851 351.088 107.363 351.72 108.035 352.2C108.691 352.68 109.475 352.92 110.387 352.92ZM120.928 353.928H120.448C120.208 353.928 120.088 353.808 120.088 353.568V342.864C120.088 342.624 119.968 342.504 119.728 342.504H118.432C118.192 342.504 118.072 342.384 118.072 342.144V341.784C118.072 341.544 118.192 341.424 118.432 341.424H119.728C119.968 341.424 120.088 341.304 120.088 341.064V339.96C120.088 338.936 120.4 338.088 121.024 337.416C121.648 336.744 122.52 336.408 123.64 336.408C123.96 336.408 124.264 336.448 124.552 336.528C124.696 336.56 124.768 336.664 124.768 336.84V337.248C124.768 337.6 124.584 337.736 124.216 337.656C123.976 337.608 123.688 337.584 123.352 337.584C122.84 337.584 122.376 337.784 121.96 338.184C121.512 338.584 121.288 339.192 121.288 340.008V341.064C121.288 341.304 121.408 341.424 121.648 341.424H124.24C124.48 341.424 124.6 341.544 124.6 341.784V342.144C124.6 342.384 124.48 342.504 124.24 342.504H121.648C121.408 342.504 121.288 342.624 121.288 342.864V353.568C121.288 353.808 121.168 353.928 120.928 353.928ZM136.692 354.072C135.428 354.072 134.548 353.752 134.052 353.112C133.524 352.456 133.26 351.584 133.26 350.496V342.864C133.26 342.624 133.14 342.504 132.9 342.504H131.508C131.268 342.504 131.148 342.384 131.148 342.144V341.784C131.148 341.544 131.268 341.424 131.508 341.424H132.9C133.14 341.424 133.26 341.304 133.26 341.064V338.64C133.26 338.4 133.38 338.28 133.62 338.28H134.1C134.34 338.28 134.46 338.4 134.46 338.64V341.064C134.46 341.304 134.58 341.424 134.82 341.424H137.772C138.012 341.424 138.132 341.544 138.132 341.784V342.144C138.132 342.384 138.012 342.504 137.772 342.504H134.82C134.58 342.504 134.46 342.624 134.46 342.864V350.568C134.46 351.304 134.628 351.864 134.964 352.248C135.268 352.648 135.804 352.848 136.572 352.848C136.892 352.848 137.196 352.792 137.484 352.68C137.564 352.648 137.628 352.624 137.676 352.608C137.74 352.576 137.804 352.544 137.868 352.512C138.108 352.384 138.228 352.448 138.228 352.704V353.376C138.228 353.504 138.172 353.6 138.06 353.664C137.852 353.776 137.66 353.864 137.484 353.928C137.196 354.024 136.932 354.072 136.692 354.072ZM150.087 353.928H149.631C149.391 353.928 149.271 353.808 149.271 353.568V345.792C149.271 344.64 149.007 343.792 148.479 343.248C147.935 342.72 147.263 342.456 146.463 342.456C145.439 342.456 144.527 342.856 143.727 343.656C142.927 344.456 142.527 345.56 142.527 346.968V353.568C142.527 353.808 142.407 353.928 142.167 353.928H141.663C141.423 353.928 141.303 353.808 141.303 353.568V336.864C141.303 336.624 141.423 336.504 141.663 336.504H142.167C142.407 336.504 142.527 336.624 142.527 336.864V342.384C142.527 342.752 142.575 342.952 142.671 342.984C142.783 343 142.951 342.872 143.175 342.6C143.479 342.264 143.807 342 144.159 341.808C144.847 341.408 145.631 341.208 146.511 341.208C147.743 341.208 148.711 341.608 149.415 342.408C150.103 343.192 150.447 344.168 150.447 345.336V353.568C150.447 353.808 150.327 353.928 150.087 353.928ZM159.09 354.144C157.906 354.144 156.89 353.856 156.042 353.28C155.178 352.72 154.522 351.952 154.074 350.976C153.61 350 153.378 348.92 153.378 347.736C153.378 346.552 153.618 345.472 154.098 344.496C154.562 343.536 155.234 342.752 156.114 342.144C156.946 341.552 157.938 341.256 159.09 341.256C160.386 341.256 161.458 341.552 162.306 342.144C163.186 342.752 163.834 343.536 164.25 344.496C164.682 345.472 164.898 346.568 164.898 347.784C164.898 348.984 164.674 350.056 164.226 351C163.762 351.96 163.098 352.72 162.234 353.28C161.37 353.856 160.322 354.144 159.09 354.144ZM159.09 352.92C160.098 352.92 160.938 352.68 161.61 352.2C162.282 351.72 162.794 351.088 163.146 350.304C163.482 349.504 163.65 348.656 163.65 347.76C163.65 346.832 163.498 345.968 163.194 345.168C162.89 344.4 162.402 343.752 161.73 343.224C161.074 342.728 160.194 342.48 159.09 342.48C158.114 342.48 157.306 342.728 156.666 343.224C156.01 343.736 155.514 344.392 155.178 345.192C154.826 345.96 154.65 346.816 154.65 347.76C154.65 348.64 154.834 349.488 155.202 350.304C155.554 351.088 156.066 351.72 156.738 352.2C157.394 352.68 158.178 352.92 159.09 352.92ZM172.103 354.12C170.855 354.12 169.831 353.744 169.031 352.992C168.231 352.24 167.831 351.296 167.831 350.16V341.784C167.831 341.544 167.951 341.424 168.191 341.424H168.647C168.887 341.424 169.007 341.544 169.007 341.784V349.8C169.007 350.824 169.319 351.592 169.943 352.104C170.551 352.616 171.271 352.872 172.103 352.872C173.271 352.872 174.255 352.448 175.055 351.6C175.855 350.752 176.255 349.696 176.255 348.432V341.784C176.255 341.544 176.375 341.424 176.615 341.424H177.095C177.335 341.424 177.455 341.544 177.455 341.784V353.568C177.455 353.808 177.335 353.928 177.095 353.928H176.615C176.375 353.928 176.255 353.808 176.255 353.568V352.776C176.255 352.424 176.215 352.24 176.135 352.224C176.055 352.192 175.903 352.312 175.679 352.584C175.407 352.952 175.039 353.264 174.575 353.52C173.839 353.92 173.015 354.12 172.103 354.12ZM185.583 352.416C186.079 352.416 186.639 352.28 187.263 352.008C187.871 351.736 188.399 351.256 188.847 350.568C189.295 349.912 189.519 348.976 189.519 347.76C189.519 346.448 189.311 345.392 188.895 344.592C188.495 343.84 187.999 343.28 187.407 342.912C186.815 342.576 186.255 342.408 185.727 342.408C184.479 342.408 183.503 342.904 182.799 343.896C182.095 344.888 181.743 346.136 181.743 347.64C181.743 348.776 181.959 349.696 182.391 350.4C182.807 351.12 183.311 351.632 183.903 351.936C184.511 352.256 185.071 352.416 185.583 352.416ZM185.367 358.632C184.071 358.632 182.975 358.44 182.079 358.056C181.935 358.008 181.863 357.904 181.863 357.744V357.336C181.863 356.968 182.039 356.848 182.391 356.976C183.255 357.312 184.207 357.48 185.247 357.48C186.063 357.48 186.783 357.328 187.407 357.024C188.063 356.704 188.575 356.232 188.943 355.608C189.327 354.968 189.519 354.104 189.519 353.016V352.128C189.519 351.616 189.359 351.568 189.039 351.984C188.751 352.384 188.399 352.72 187.983 352.992C187.343 353.44 186.591 353.664 185.727 353.664C184.799 353.664 183.935 353.424 183.135 352.944C182.351 352.496 181.711 351.816 181.215 350.904C180.719 350.024 180.471 348.96 180.471 347.712C180.471 345.84 180.935 344.288 181.863 343.056C182.775 341.824 183.999 341.208 185.535 341.208C186.991 341.208 188.119 341.728 188.919 342.768C189.143 343.04 189.295 343.168 189.375 343.152C189.471 343.12 189.519 342.928 189.519 342.576V341.784C189.519 341.544 189.639 341.424 189.879 341.424H190.359C190.599 341.424 190.719 341.544 190.719 341.784V353.016C190.719 354.328 190.479 355.4 189.999 356.232C189.535 357.032 188.895 357.64 188.079 358.056C187.263 358.44 186.359 358.632 185.367 358.632ZM203.196 353.928H202.74C202.5 353.928 202.38 353.808 202.38 353.568V345.792C202.38 344.64 202.116 343.792 201.588 343.248C201.044 342.72 200.372 342.456 199.572 342.456C198.548 342.456 197.636 342.856 196.836 343.656C196.036 344.456 195.636 345.56 195.636 346.968V353.568C195.636 353.808 195.516 353.928 195.276 353.928H194.772C194.532 353.928 194.412 353.808 194.412 353.568V336.864C194.412 336.624 194.532 336.504 194.772 336.504H195.276C195.516 336.504 195.636 336.624 195.636 336.864V342.384C195.636 342.752 195.684 342.952 195.78 342.984C195.892 343 196.06 342.872 196.284 342.6C196.588 342.264 196.916 342 197.268 341.808C197.956 341.408 198.74 341.208 199.62 341.208C200.852 341.208 201.82 341.608 202.524 342.408C203.212 343.192 203.556 344.168 203.556 345.336V353.568C203.556 353.808 203.436 353.928 203.196 353.928ZM211.551 354.072C210.287 354.072 209.407 353.752 208.911 353.112C208.383 352.456 208.119 351.584 208.119 350.496V342.864C208.119 342.624 207.999 342.504 207.759 342.504H206.367C206.127 342.504 206.007 342.384 206.007 342.144V341.784C206.007 341.544 206.127 341.424 206.367 341.424H207.759C207.999 341.424 208.119 341.304 208.119 341.064V338.64C208.119 338.4 208.239 338.28 208.479 338.28H208.959C209.199 338.28 209.319 338.4 209.319 338.64V341.064C209.319 341.304 209.439 341.424 209.679 341.424H212.631C212.871 341.424 212.991 341.544 212.991 341.784V342.144C212.991 342.384 212.871 342.504 212.631 342.504H209.679C209.439 342.504 209.319 342.624 209.319 342.864V350.568C209.319 351.304 209.487 351.864 209.823 352.248C210.127 352.648 210.663 352.848 211.431 352.848C211.751 352.848 212.055 352.792 212.343 352.68C212.423 352.648 212.487 352.624 212.535 352.608C212.599 352.576 212.663 352.544 212.727 352.512C212.967 352.384 213.087 352.448 213.087 352.704V353.376C213.087 353.504 213.031 353.6 212.919 353.664C212.711 353.776 212.519 353.864 212.343 353.928C212.055 354.024 211.791 354.072 211.551 354.072Z" fill="#262626"/>
<path d="M134.4 22.4004C125.489 22.4004 116.942 25.9404 110.641 32.2416C104.34 38.5428 100.8 47.0891 100.8 56.0004C100.8 64.9117 104.34 73.458 110.641 79.7592C116.942 86.0604 125.489 89.6004 134.4 89.6004C143.311 89.6004 151.857 86.0604 158.159 79.7592C164.46 73.458 168 64.9117 168 56.0004C168 47.0891 164.46 38.5428 158.159 32.2416C151.857 25.9404 143.311 22.4004 134.4 22.4004ZM134.4 37.3337C136.851 37.3337 139.278 37.8165 141.543 38.7546C143.808 39.6927 145.866 41.0677 147.599 42.8011C149.333 44.5344 150.707 46.5922 151.646 48.857C152.584 51.1217 153.066 53.549 153.066 56.0004C153.066 58.4517 152.584 60.8791 151.646 63.1438C150.707 65.4086 149.333 67.4664 147.599 69.1997C145.866 70.9331 143.808 72.308 141.543 73.2461C139.278 74.1842 136.851 74.6671 134.4 74.6671C129.449 74.6671 124.701 72.7004 121.2 69.1997C117.7 65.699 115.733 60.9511 115.733 56.0004C115.733 51.0497 117.7 46.3017 121.2 42.8011C124.701 39.3004 129.449 37.3337 134.4 37.3337ZM179.2 134.4C170.289 134.4 161.742 137.94 155.441 144.242C149.14 150.543 145.6 159.089 145.6 168C145.6 176.912 149.14 185.458 155.441 191.759C161.742 198.06 170.289 201.6 179.2 201.6C188.111 201.6 196.657 198.06 202.959 191.759C209.26 185.458 212.8 176.912 212.8 168C212.8 159.089 209.26 150.543 202.959 144.242C196.657 137.94 188.111 134.4 179.2 134.4ZM179.2 149.334C184.151 149.334 188.898 151.3 192.399 154.801C195.9 158.302 197.866 163.05 197.866 168C197.866 172.951 195.9 177.699 192.399 181.2C188.898 184.7 184.151 186.667 179.2 186.667C174.249 186.667 169.501 184.7 166 181.2C162.5 177.699 160.533 172.951 160.533 168C160.533 163.05 162.5 158.302 166 154.801C169.501 151.3 174.249 149.334 179.2 149.334Z" fill="#262626"/>
<path d="M110.667 69.179C112.08 67.8694 113.945 67.1569 115.872 67.1906C117.799 67.2243 119.638 68.0014 121.005 69.3596C122.371 70.7178 123.16 72.5518 123.206 74.4781C123.252 76.4045 122.552 78.274 121.251 79.6958L120.799 80.155L72.2659 124.955C70.8525 126.265 68.9875 126.977 67.0609 126.943C65.1342 126.91 63.2952 126.133 61.9284 124.774C60.5615 123.416 59.7727 121.582 59.7267 119.656C59.6808 117.729 60.3814 115.86 61.6819 114.438L62.1337 113.979L110.667 69.179ZM71.1571 147.523C71.614 145.696 72.7447 144.108 74.3226 143.08C75.9005 142.051 77.809 141.656 79.6654 141.975L80.2105 142.087L154.877 160.754C156.759 161.215 158.388 162.391 159.42 164.031C160.451 165.671 160.805 167.649 160.405 169.545C160.006 171.441 158.885 173.108 157.279 174.192C155.674 175.277 153.709 175.696 151.801 175.359L151.256 175.247L76.5891 156.58C75.6377 156.342 74.7424 155.919 73.9545 155.335C73.1666 154.751 72.5014 154.018 71.997 153.177C71.4925 152.336 71.1587 151.404 71.0146 150.433C70.8705 149.463 70.919 148.474 71.1571 147.523Z" fill="#262626"/>
<path d="M52.267 108.268C43.3557 108.268 34.8094 111.808 28.5082 118.109C22.207 124.41 18.667 132.956 18.667 141.868C18.667 150.779 22.207 159.325 28.5082 165.626C34.8094 171.928 43.3557 175.468 52.267 175.468C61.1783 175.468 69.7246 171.928 76.0258 165.626C82.327 159.325 85.867 150.779 85.867 141.868C85.867 132.956 82.327 124.41 76.0258 118.109C69.7246 111.808 61.1783 108.268 52.267 108.268ZM52.267 123.201C57.2177 123.201 61.9656 125.168 65.4663 128.668C68.967 132.169 70.9337 136.917 70.9337 141.868C70.9337 146.818 68.967 151.566 65.4663 155.067C61.9656 158.568 57.2177 160.534 52.267 160.534C47.3163 160.534 42.5683 158.568 39.0677 155.067C35.567 151.566 33.6003 146.818 33.6003 141.868C33.6003 136.917 35.567 132.169 39.0677 128.668C42.5683 125.168 47.3163 123.201 52.267 123.201Z" fill="#2EA398"/>
</svg>
