<svg width="224" height="325" viewBox="0 0 224 325" fill="none" xmlns="http://www.w3.org/2000/svg">
<path d="M67.092 254.896L68.124 254.512C68.348 254.432 68.548 254.432 68.724 254.512C68.916 254.576 69.076 254.712 69.204 254.92C69.54 255.576 69.924 256.224 70.356 256.864C70.788 257.488 71.26 258.128 71.772 258.784C72.764 260.048 73.796 261.16 74.868 262.12C75.044 262.28 75.124 262.456 75.108 262.648C75.108 262.824 75.02 263 74.844 263.176L74.292 263.728C74.18 263.84 74.076 263.952 73.98 264.064C73.9 264.16 73.82 264.256 73.74 264.352C73.58 264.544 73.404 264.648 73.212 264.664C73.02 264.68 72.836 264.6 72.66 264.424C72.628 264.408 72.596 264.384 72.564 264.352C72.372 264.16 72.212 264.088 72.084 264.136C71.972 264.184 71.908 264.344 71.892 264.616C71.828 266.12 71.764 267.424 71.7 268.528C71.636 269.616 71.564 270.528 71.484 271.264C71.292 272.912 70.996 273.944 70.596 274.36C70.052 275.048 69.348 275.416 68.484 275.464C68.116 275.512 67.692 275.544 67.212 275.56C66.732 275.576 66.212 275.576 65.652 275.56C65.428 275.56 65.244 275.488 65.1 275.344C64.956 275.216 64.868 275.04 64.836 274.816C64.804 274.704 64.772 274.592 64.74 274.48C64.708 274.368 64.676 274.248 64.644 274.12C64.58 273.896 64.492 273.656 64.38 273.4C64.3 273.192 64.292 273.032 64.356 272.92C64.42 272.808 64.564 272.768 64.788 272.8C64.964 272.816 65.14 272.824 65.316 272.824C65.492 272.824 65.668 272.824 65.844 272.824L67.092 272.848C67.492 272.848 67.78 272.768 67.956 272.608L68.1 272.464C68.5 272 68.78 269.888 68.94 266.128C68.956 265.872 68.884 265.664 68.724 265.504C68.564 265.344 68.356 265.264 68.1 265.264H64.836C64.612 265.264 64.42 265.336 64.26 265.48C64.1 265.608 64.004 265.784 63.972 266.008C63.684 267.928 63.036 269.72 62.028 271.384C60.972 273.096 59.164 274.496 56.604 275.584C56.396 275.68 56.196 275.688 56.004 275.608C55.828 275.544 55.684 275.416 55.572 275.224C55.508 275.128 55.444 275.024 55.38 274.912C55.316 274.816 55.244 274.712 55.164 274.6C55.084 274.488 55.004 274.376 54.924 274.264C54.844 274.168 54.764 274.072 54.684 273.976C54.348 273.592 54.42 273.312 54.9 273.136C57.028 272.304 58.532 271.24 59.412 269.944C59.812 269.368 60.14 268.768 60.396 268.144C60.652 267.504 60.844 266.848 60.972 266.176C61.036 265.904 60.988 265.688 60.828 265.528C60.668 265.352 60.452 265.264 60.18 265.264H58.044C57.836 265.264 57.668 265.2 57.54 265.072C57.412 264.944 57.348 264.776 57.348 264.568C57.348 264.12 57.188 264.056 56.868 264.376C56.804 264.424 56.748 264.48 56.7 264.544C56.652 264.592 56.596 264.64 56.532 264.688C56.356 264.864 56.164 264.944 55.956 264.928C55.748 264.912 55.556 264.816 55.38 264.64C55.3 264.544 55.212 264.456 55.116 264.376C55.02 264.28 54.924 264.176 54.828 264.064C54.716 263.968 54.604 263.88 54.492 263.8C54.396 263.704 54.3 263.616 54.204 263.536C53.82 263.168 53.828 262.824 54.228 262.504C56.58 260.552 58.404 258.048 59.7 254.992C59.796 254.784 59.932 254.632 60.108 254.536C60.284 254.44 60.484 254.424 60.708 254.488L62.076 254.872C62.348 254.952 62.532 255.096 62.628 255.304C62.74 255.496 62.74 255.72 62.628 255.976C61.828 257.8 60.852 259.504 59.7 261.088C59.38 261.52 59.276 261.864 59.388 262.12C59.516 262.376 59.852 262.504 60.396 262.504H69.18C69.708 262.504 70.028 262.376 70.14 262.12C70.268 261.864 70.172 261.528 69.852 261.112C69.244 260.296 68.676 259.472 68.148 258.64C67.62 257.808 67.124 256.952 66.66 256.072C66.532 255.816 66.508 255.584 66.588 255.376C66.668 255.168 66.836 255.008 67.092 254.896ZM98.652 256.528V257.176C98.652 257.432 98.572 257.64 98.412 257.8C98.268 257.944 98.068 258.016 97.812 258.016H79.164C78.908 258.016 78.7 257.944 78.54 257.8C78.396 257.64 78.324 257.432 78.324 257.176V256.528C78.324 256.272 78.396 256.072 78.54 255.928C78.7 255.768 78.908 255.688 79.164 255.688H86.196C86.42 255.688 86.58 255.624 86.676 255.496C86.788 255.368 86.804 255.192 86.724 254.968C86.548 254.504 86.7 254.232 87.18 254.152L88.716 253.888C88.892 253.856 89.06 253.88 89.22 253.96C89.38 254.04 89.5 254.168 89.58 254.344C89.628 254.472 89.676 254.6 89.724 254.728C89.772 254.84 89.82 254.96 89.868 255.088C89.932 255.264 90.036 255.408 90.18 255.52C90.34 255.632 90.516 255.688 90.708 255.688H97.812C98.068 255.688 98.268 255.768 98.412 255.928C98.572 256.072 98.652 256.272 98.652 256.528ZM83.796 261.64C83.796 262.088 84.02 262.312 84.468 262.312H92.556C92.748 262.312 92.9 262.256 93.012 262.144C93.14 262.016 93.204 261.848 93.204 261.64C93.204 261.448 93.14 261.296 93.012 261.184C92.9 261.056 92.748 260.992 92.556 260.992H84.468C84.26 260.992 84.092 261.056 83.964 261.184C83.852 261.296 83.796 261.448 83.796 261.64ZM95.316 264.232H81.852C81.596 264.232 81.388 264.16 81.228 264.016C81.084 263.856 81.012 263.648 81.012 263.392V259.936C81.012 259.68 81.084 259.48 81.228 259.336C81.388 259.176 81.596 259.096 81.852 259.096H95.316C95.572 259.096 95.772 259.176 95.916 259.336C96.076 259.48 96.156 259.68 96.156 259.936V263.392C96.156 263.648 96.076 263.856 95.916 264.016C95.772 264.16 95.572 264.232 95.316 264.232ZM99.036 270.04V270.736C99.036 270.992 98.956 271.2 98.796 271.36C98.652 271.504 98.452 271.576 98.196 271.576H90.78C90.524 271.576 90.316 271.656 90.156 271.816C90.012 271.96 89.94 272.152 89.94 272.392V273.232C89.94 273.904 89.828 274.424 89.604 274.792C89.364 275.128 88.972 275.376 88.428 275.536C87.388 275.76 85.964 275.848 84.156 275.8H83.964C83.82 275.8 83.732 275.736 83.7 275.608C83.62 275.32 83.5 275 83.34 274.648C83.292 274.552 83.244 274.456 83.196 274.36C83.164 274.264 83.124 274.176 83.076 274.096C82.9 273.728 83.012 273.544 83.412 273.544L84.972 273.568L86.364 273.592C86.636 273.56 86.804 273.52 86.868 273.472C86.948 273.392 86.988 273.272 86.988 273.112V272.344C86.988 272.12 86.916 271.936 86.772 271.792C86.628 271.648 86.444 271.576 86.22 271.576H78.804C78.548 271.576 78.34 271.504 78.18 271.36C78.036 271.2 77.964 270.992 77.964 270.736V270.04C77.964 269.784 78.036 269.584 78.18 269.44C78.34 269.28 78.548 269.2 78.804 269.2H86.484C86.82 269.2 86.988 269.032 86.988 268.696C86.988 268.376 87.148 268.176 87.468 268.096C87.644 268.048 87.812 268.008 87.972 267.976C88.132 267.928 88.3 267.88 88.476 267.832C88.908 267.704 89.116 267.592 89.1 267.496C89.084 267.384 88.844 267.328 88.38 267.328H81.108C80.852 267.328 80.644 267.256 80.484 267.112C80.34 266.952 80.268 266.744 80.268 266.488V266.008C80.268 265.752 80.34 265.552 80.484 265.408C80.644 265.248 80.852 265.168 81.108 265.168H94.308C94.388 265.168 94.452 265.16 94.5 265.144L94.692 265.096C94.9 265.064 95.068 265.112 95.196 265.24L95.868 265.816C96.14 266.04 96.26 266.272 96.228 266.512C96.196 266.752 96.02 266.952 95.7 267.112C95.028 267.448 94.308 267.76 93.54 268.048C92.564 268.448 92.092 268.744 92.124 268.936C92.156 269.112 92.7 269.2 93.756 269.2H98.196C98.452 269.2 98.652 269.28 98.796 269.44C98.956 269.584 99.036 269.784 99.036 270.04ZM101.94 274L101.748 272.944C101.716 272.704 101.756 272.496 101.868 272.32C101.996 272.128 102.18 272.016 102.42 271.984C103.348 271.808 104.34 271.608 105.396 271.384C106.468 271.16 107.62 270.912 108.852 270.64C109.124 270.576 109.348 270.616 109.524 270.76C109.716 270.904 109.828 271.112 109.86 271.384L109.932 272.104C109.964 272.328 109.916 272.52 109.788 272.68C109.676 272.84 109.516 272.952 109.308 273.016C108.556 273.208 107.812 273.4 107.076 273.592C106.34 273.784 105.612 273.968 104.892 274.144C104.556 274.24 104.228 274.328 103.908 274.408C103.588 274.488 103.276 274.568 102.972 274.648C102.7 274.728 102.468 274.704 102.276 274.576C102.1 274.448 101.988 274.256 101.94 274ZM117.492 268.36H114.66C114.404 268.36 114.196 268.44 114.036 268.6C113.892 268.744 113.82 268.944 113.82 269.2V271.432C113.82 271.688 113.892 271.896 114.036 272.056C114.196 272.2 114.404 272.272 114.66 272.272H117.492C117.748 272.272 117.948 272.2 118.092 272.056C118.252 271.896 118.332 271.688 118.332 271.432V269.2C118.332 268.944 118.252 268.744 118.092 268.6C117.948 268.44 117.748 268.36 117.492 268.36ZM111.108 275.008V266.752C111.108 266.496 111.18 266.296 111.324 266.152C111.484 265.992 111.692 265.912 111.948 265.912H120.348C120.604 265.912 120.804 265.992 120.948 266.152C121.108 266.296 121.188 266.496 121.188 266.752V274.984C121.188 275.24 121.108 275.44 120.948 275.584C120.804 275.744 120.604 275.824 120.348 275.824H118.884C118.516 275.824 118.332 275.64 118.332 275.272C118.332 274.904 118.148 274.72 117.78 274.72H114.396C114.012 274.72 113.82 274.912 113.82 275.296C113.82 275.664 113.636 275.848 113.268 275.848H111.948C111.692 275.848 111.484 275.768 111.324 275.608C111.18 275.464 111.108 275.264 111.108 275.008ZM115.836 261.496H116.892C117.436 261.496 117.764 261.368 117.876 261.112C118.004 260.856 117.908 260.512 117.588 260.08C117.508 259.952 117.428 259.84 117.348 259.744C117.268 259.632 117.188 259.512 117.108 259.384C116.852 259 116.588 258.808 116.316 258.808C116.044 258.808 115.788 259.008 115.548 259.408C115.468 259.52 115.396 259.632 115.332 259.744C115.268 259.84 115.196 259.952 115.116 260.08C114.812 260.512 114.716 260.856 114.828 261.112C114.956 261.368 115.292 261.496 115.836 261.496ZM115.98 254.128L117.372 254.512C117.66 254.592 117.764 254.768 117.684 255.04L117.636 255.136C117.588 255.36 117.612 255.576 117.708 255.784C119.036 258.136 120.78 260.024 122.94 261.448C123.34 261.72 123.372 262.024 123.036 262.36C122.956 262.44 122.868 262.528 122.772 262.624C122.692 262.72 122.612 262.816 122.532 262.912C122.452 263.024 122.372 263.128 122.292 263.224C122.212 263.32 122.132 263.416 122.052 263.512C121.924 263.688 121.764 263.8 121.572 263.848C121.38 263.88 121.196 263.824 121.02 263.68C120.844 263.568 120.668 263.424 120.492 263.248C120.204 263.008 120.06 263.072 120.06 263.44C120.06 263.824 119.876 264.016 119.508 264.016H112.932C112.628 264.016 112.476 263.864 112.476 263.56C112.476 263.272 112.364 263.224 112.14 263.416C112.028 263.512 111.916 263.608 111.804 263.704C111.708 263.784 111.604 263.864 111.492 263.944C111.316 264.088 111.132 264.152 110.94 264.136C110.764 264.104 110.604 264 110.46 263.824C110.38 263.744 110.3 263.656 110.22 263.56C110.156 263.464 110.084 263.368 110.004 263.272C109.812 263.096 109.644 262.928 109.5 262.768C109.34 262.624 109.172 262.568 108.996 262.6C108.82 262.632 108.668 262.736 108.54 262.912C108.332 263.232 108.116 263.544 107.892 263.848C107.684 264.152 107.468 264.456 107.244 264.76C106.876 265.24 106.756 265.592 106.884 265.816C107.028 266.04 107.396 266.096 107.988 265.984L109.332 265.768C109.732 265.72 109.908 265.896 109.86 266.296C109.86 266.392 109.852 266.496 109.836 266.608C109.836 266.704 109.836 266.8 109.836 266.896V267.472C109.804 267.872 109.62 268.096 109.284 268.144C108.452 268.32 107.716 268.472 107.076 268.6C106.452 268.712 105.908 268.816 105.444 268.912C104.436 269.12 103.716 269.288 103.284 269.416C103.188 269.448 103.1 269.48 103.02 269.512C102.956 269.528 102.884 269.552 102.804 269.584C102.532 269.68 102.348 269.6 102.252 269.344C102.22 269.232 102.18 269.12 102.132 269.008C102.1 268.88 102.06 268.744 102.012 268.6C101.98 268.488 101.94 268.376 101.892 268.264C101.844 268.152 101.804 268.048 101.772 267.952C101.692 267.744 101.684 267.568 101.748 267.424C101.828 267.264 101.956 267.12 102.132 266.992C102.5 266.752 102.9 266.352 103.332 265.792C103.332 265.792 103.348 265.776 103.38 265.744C103.508 265.6 103.66 265.416 103.836 265.192C104.028 264.952 104.244 264.672 104.484 264.352C104.66 264.096 104.708 263.904 104.628 263.776C104.564 263.648 104.372 263.6 104.052 263.632C103.828 263.664 103.636 263.696 103.476 263.728C103.316 263.76 103.172 263.792 103.044 263.824C102.964 263.856 102.884 263.88 102.804 263.896C102.74 263.896 102.676 263.912 102.612 263.944C102.324 264.024 102.148 263.936 102.084 263.68C102.052 263.552 102.012 263.424 101.964 263.296C101.916 263.168 101.868 263.016 101.82 262.84C101.788 262.712 101.748 262.6 101.7 262.504C101.652 262.392 101.604 262.272 101.556 262.144C101.476 261.936 101.468 261.744 101.532 261.568C101.596 261.392 101.708 261.24 101.868 261.112C101.996 260.984 102.132 260.84 102.276 260.68C102.42 260.52 102.556 260.328 102.684 260.104C102.828 259.896 103.012 259.6 103.236 259.216C103.46 258.816 103.724 258.32 104.028 257.728C104.268 257.264 104.492 256.792 104.7 256.312C104.908 255.816 105.108 255.312 105.3 254.8C105.396 254.528 105.548 254.344 105.756 254.248C105.964 254.152 106.204 254.168 106.476 254.296L107.556 254.824C107.78 254.92 107.924 255.072 107.988 255.28C108.068 255.472 108.052 255.68 107.94 255.904C107.22 257.472 106.364 259 105.372 260.488C105.228 260.712 105.188 260.888 105.252 261.016C105.316 261.128 105.484 261.168 105.756 261.136L106.212 261.088C106.34 261.088 106.46 261.056 106.572 260.992C106.7 260.912 106.796 260.816 106.86 260.704C106.988 260.48 107.108 260.264 107.22 260.056C107.332 259.848 107.452 259.632 107.58 259.408C107.708 259.152 107.876 258.992 108.084 258.928C108.308 258.848 108.548 258.888 108.804 259.048L109.644 259.576C109.852 259.704 109.98 259.872 110.028 260.08C110.092 260.288 110.06 260.496 109.932 260.704C109.884 260.784 109.836 260.864 109.788 260.944C109.74 261.008 109.692 261.08 109.644 261.16C109.436 261.512 109.364 261.728 109.428 261.808C109.508 261.872 109.708 261.776 110.028 261.52C110.54 261.104 111.02 260.656 111.468 260.176C111.916 259.696 112.348 259.176 112.764 258.616C113.228 257.992 113.636 257.352 113.988 256.696C114.356 256.04 114.676 255.36 114.948 254.656C115.028 254.432 115.164 254.272 115.356 254.176C115.548 254.08 115.756 254.064 115.98 254.128ZM131.244 254.272L132.228 254.608C132.484 254.688 132.66 254.832 132.756 255.04C132.852 255.232 132.844 255.448 132.732 255.688C132.46 256.312 132.18 256.936 131.892 257.56C131.604 258.168 131.3 258.776 130.98 259.384C130.916 259.544 130.884 259.68 130.884 259.792V274.912C130.884 275.168 130.804 275.368 130.644 275.512C130.5 275.672 130.3 275.752 130.044 275.752H128.964C128.708 275.752 128.5 275.672 128.34 275.512C128.196 275.368 128.124 275.168 128.124 274.912V265C128.124 264.28 127.884 264.2 127.404 264.76C127.372 264.808 127.332 264.856 127.284 264.904C127.236 264.952 127.196 265 127.164 265.048C127.004 265.224 126.852 265.296 126.708 265.264C126.564 265.232 126.436 265.112 126.324 264.904C126.276 264.792 126.228 264.68 126.18 264.568C126.132 264.456 126.068 264.336 125.988 264.208C125.908 264.048 125.828 263.904 125.748 263.776C125.684 263.632 125.612 263.496 125.532 263.368C125.42 263.192 125.372 263.008 125.388 262.816C125.404 262.624 125.484 262.448 125.628 262.288C127.5 260.224 129.02 257.72 130.188 254.776C130.268 254.552 130.404 254.392 130.596 254.296C130.804 254.2 131.02 254.192 131.244 254.272ZM138.444 272.944H143.196C143.884 272.944 144.34 272.736 144.564 272.32C144.74 272.016 144.876 271.384 144.972 270.424C145.004 269.992 145.22 269.88 145.62 270.088C145.764 270.168 145.972 270.264 146.244 270.376C146.356 270.424 146.46 270.472 146.556 270.52C146.668 270.568 146.772 270.608 146.868 270.64C147.076 270.704 147.236 270.816 147.348 270.976C147.46 271.136 147.5 271.32 147.468 271.528C147.276 272.872 146.94 273.84 146.46 274.432C145.916 275.12 144.892 275.464 143.388 275.464H138.228C136.596 275.464 135.476 275.184 134.868 274.624C134.26 274.048 133.956 272.952 133.956 271.336V265.912C133.956 265.624 133.876 265.424 133.716 265.312C133.556 265.2 133.34 265.192 133.068 265.288L132.924 265.336C132.7 265.416 132.492 265.416 132.3 265.336C132.108 265.256 131.964 265.104 131.868 264.88L131.46 263.968C131.364 263.728 131.356 263.512 131.436 263.32C131.532 263.112 131.7 262.96 131.94 262.864L133.428 262.288C133.78 262.128 133.956 261.864 133.956 261.496V257.392C133.956 257.136 134.028 256.936 134.172 256.792C134.332 256.632 134.54 256.552 134.796 256.552H135.876C136.132 256.552 136.332 256.632 136.476 256.792C136.636 256.936 136.716 257.136 136.716 257.392V259.768C136.716 260.136 136.82 260.392 137.028 260.536C137.236 260.664 137.508 260.664 137.844 260.536L138.444 260.32C138.796 260.16 138.972 259.896 138.972 259.528V254.896C138.972 254.64 139.044 254.44 139.188 254.296C139.348 254.136 139.556 254.056 139.812 254.056H140.724C140.98 254.056 141.18 254.136 141.324 254.296C141.484 254.44 141.564 254.64 141.564 254.896V257.872C141.564 258.24 141.668 258.496 141.876 258.64C142.084 258.768 142.356 258.768 142.692 258.64L143.82 258.232C143.916 258.2 143.988 258.16 144.036 258.112L144.3 257.896L144.564 257.728C144.724 257.616 144.9 257.592 145.092 257.656L146.484 258.208C146.628 258.256 146.684 258.352 146.652 258.496L146.628 258.616C146.612 258.664 146.604 258.728 146.604 258.808C146.572 262.904 146.5 265.504 146.388 266.608C146.276 267.728 145.844 268.432 145.092 268.72C144.708 268.88 144.276 268.976 143.796 269.008C143.668 269.024 143.548 269.04 143.436 269.056C143.34 269.056 143.228 269.056 143.1 269.056C142.892 269.072 142.724 269.016 142.596 268.888C142.468 268.76 142.388 268.592 142.356 268.384C142.34 268.272 142.324 268.168 142.308 268.072C142.308 267.96 142.292 267.84 142.26 267.712C142.196 267.424 142.108 267.144 141.996 266.872C141.884 266.6 141.964 266.48 142.236 266.512H142.668L143.268 266.536C143.412 266.536 143.54 266.496 143.652 266.416C143.732 266.336 143.796 266.2 143.844 266.008C143.876 265.848 143.908 265.456 143.94 264.832C143.972 264.192 143.996 263.32 144.012 262.216C144.012 261.848 143.908 261.592 143.7 261.448C143.492 261.304 143.212 261.296 142.86 261.424L142.092 261.712C141.74 261.872 141.564 262.136 141.564 262.504V269.416C141.564 269.672 141.484 269.88 141.324 270.04C141.18 270.184 140.98 270.256 140.724 270.256H139.812C139.556 270.256 139.348 270.184 139.188 270.04C139.044 269.88 138.972 269.672 138.972 269.416V264.184C138.972 263.816 138.868 263.56 138.66 263.416C138.452 263.272 138.18 263.264 137.844 263.392L137.244 263.632C136.892 263.792 136.716 264.056 136.716 264.424V271.336C136.716 272.056 136.82 272.496 137.028 272.656C137.22 272.848 137.692 272.944 138.444 272.944ZM159.036 253.984H161.004C161.276 253.984 161.484 254.064 161.628 254.224C161.788 254.368 161.86 254.576 161.844 254.848C161.828 255.632 161.78 256.544 161.7 257.584V257.68C161.748 258.24 161.844 258.904 161.988 259.672C162.132 260.44 162.34 261.304 162.612 262.264C163.108 264.248 164.068 266.248 165.492 268.264C166.66 269.976 168.308 271.424 170.436 272.608C171.124 272.992 171.196 273.496 170.652 274.12C170.396 274.408 170.18 274.68 170.004 274.936C169.86 275.144 169.684 275.28 169.476 275.344C169.268 275.408 169.052 275.376 168.828 275.248C167.724 274.624 166.732 273.936 165.852 273.184C164.972 272.416 164.212 271.576 163.572 270.664C163.14 270.056 162.748 269.456 162.396 268.864C162.044 268.272 161.724 267.672 161.436 267.064C161.084 266.328 160.748 265.96 160.428 265.96C160.124 265.96 159.804 266.336 159.468 267.088C159.196 267.696 158.892 268.296 158.556 268.888C158.22 269.464 157.852 270.04 157.452 270.616C156.204 272.424 154.548 273.992 152.484 275.32C152.276 275.448 152.068 275.488 151.86 275.44C151.668 275.408 151.492 275.304 151.332 275.128C151.124 274.872 150.86 274.6 150.54 274.312C150.236 274.04 150.092 273.776 150.108 273.52C150.124 273.264 150.3 273.032 150.636 272.824C152.988 271.288 154.724 269.504 155.844 267.472C156.484 266.304 157.004 265.144 157.404 263.992C157.804 262.824 158.084 261.656 158.244 260.488C158.404 259.336 158.516 258.288 158.58 257.344C158.644 256.384 158.66 255.52 158.628 254.752L158.652 254.368C158.652 254.112 158.78 253.984 159.036 253.984ZM22.0496 311.072C21.7936 311.072 21.5856 311.152 21.4256 311.312C21.2816 311.456 21.2096 311.656 21.2096 311.912V314.144C21.2096 314.4 21.1296 314.6 20.9696 314.744C20.8256 314.904 20.6256 314.984 20.3696 314.984H20.1056C19.8496 314.984 19.6416 314.904 19.4816 314.744C19.3376 314.6 19.2656 314.4 19.2656 314.144V311.912C19.2656 311.656 19.1856 311.456 19.0256 311.312C18.8816 311.152 18.6816 311.072 18.4256 311.072H18.4016C18.1456 311.072 17.9376 311 17.7776 310.856C17.6336 310.696 17.5616 310.488 17.5616 310.232V310.208C17.5616 309.952 17.6336 309.752 17.7776 309.608C17.9376 309.448 18.1456 309.368 18.4016 309.368H19.6496C19.8256 309.368 19.9776 309.328 20.1056 309.248C20.2496 309.152 20.3536 309.024 20.4176 308.864C20.4976 308.688 20.5776 308.512 20.6576 308.336C20.7376 308.16 20.8176 307.976 20.8976 307.784C20.9456 307.656 20.9936 307.528 21.0416 307.4C21.0896 307.272 21.1376 307.144 21.1856 307.016C21.2656 306.776 21.4016 306.616 21.5936 306.536C21.7856 306.44 21.9936 306.44 22.2176 306.536L22.4096 306.608C22.6336 306.688 22.7776 306.816 22.8416 306.992C22.9056 307.168 22.8896 307.36 22.7936 307.568L22.4336 308.264L22.0976 308.912C21.9376 309.216 22.0336 309.368 22.3856 309.368C22.5296 309.368 22.6496 309.416 22.7456 309.512C22.8416 309.608 22.8896 309.728 22.8896 309.872V310.232C22.8896 310.488 22.8096 310.696 22.6496 310.856C22.5056 311 22.3056 311.072 22.0496 311.072ZM19.5296 308.984L19.1936 309.128C18.7936 309.256 18.5296 309.128 18.4016 308.744C18.3696 308.648 18.3296 308.552 18.2816 308.456C18.2496 308.36 18.2096 308.256 18.1616 308.144C18.1136 308.032 18.0656 307.928 18.0176 307.832C17.9696 307.72 17.9136 307.608 17.8496 307.496C17.6416 307.08 17.7536 306.792 18.1856 306.632L18.3296 306.584C18.5056 306.52 18.6816 306.52 18.8576 306.584C19.0496 306.648 19.1936 306.768 19.2896 306.944L19.6496 307.592C19.6976 307.704 19.7456 307.808 19.7936 307.904C19.8416 308 19.8816 308.088 19.9136 308.168C19.9936 308.344 19.9936 308.512 19.9136 308.672C19.8336 308.816 19.7056 308.92 19.5296 308.984ZM25.6976 304.76V313.112C25.6976 313.624 25.6496 314.04 25.5536 314.36C25.4416 314.648 25.2256 314.88 24.9056 315.056C24.5696 315.232 24.2096 315.344 23.8256 315.392C23.6816 315.408 23.5216 315.416 23.3456 315.416C23.1856 315.416 23.0176 315.424 22.8416 315.44C22.4896 315.44 22.2896 315.264 22.2416 314.912C22.2096 314.832 22.1856 314.744 22.1696 314.648C22.1696 314.568 22.1536 314.488 22.1216 314.408C22.0576 314.168 21.9856 313.952 21.9056 313.76C21.7936 313.488 21.8816 313.352 22.1696 313.352L22.6256 313.376H23.1776C23.3696 313.376 23.4656 313.304 23.4656 313.16V313.016V306.8C23.4656 306.544 23.3856 306.344 23.2256 306.2C23.0816 306.04 22.8816 305.96 22.6256 305.96H17.8736C17.6176 305.96 17.4096 306.04 17.2496 306.2C17.1056 306.344 17.0336 306.544 17.0336 306.8V314.96C17.0336 315.216 16.9536 315.416 16.7936 315.56C16.6496 315.72 16.4496 315.8 16.1936 315.8H15.7616C15.5056 315.8 15.2976 315.72 15.1376 315.56C14.9936 315.416 14.9216 315.216 14.9216 314.96V304.76C14.9216 304.504 14.9936 304.304 15.1376 304.16C15.2976 304 15.5056 303.92 15.7616 303.92H24.8576C25.1136 303.92 25.3136 304 25.4576 304.16C25.6176 304.304 25.6976 304.504 25.6976 304.76ZM22.5776 300.56C22.5776 300.112 22.3536 299.888 21.9056 299.888H18.6896C18.2416 299.888 18.0176 300.112 18.0176 300.56C18.0176 301.008 18.2416 301.232 18.6896 301.232H21.9056C22.3536 301.232 22.5776 301.008 22.5776 300.56ZM25.0496 298.856V302.264C25.0496 302.52 24.9696 302.728 24.8096 302.888C24.6656 303.032 24.4656 303.104 24.2096 303.104H16.5296C16.2736 303.104 16.0656 303.032 15.9056 302.888C15.7616 302.728 15.6896 302.52 15.6896 302.264V298.856C15.6896 298.6 15.7616 298.4 15.9056 298.256C16.0656 298.096 16.2736 298.016 16.5296 298.016H24.2096C24.4656 298.016 24.6656 298.096 24.8096 298.256C24.9696 298.4 25.0496 298.6 25.0496 298.856ZM14.5376 296.312V295.664C14.5376 295.408 14.6096 295.208 14.7536 295.064C14.9136 294.904 15.1216 294.824 15.3776 294.824H25.3136C25.5696 294.824 25.7696 294.904 25.9136 295.064C26.0736 295.208 26.1536 295.408 26.1536 295.664V296.312C26.1536 296.568 26.0736 296.776 25.9136 296.936C25.7696 297.08 25.5696 297.152 25.3136 297.152H15.3776C15.1216 297.152 14.9136 297.08 14.7536 296.936C14.6096 296.776 14.5376 296.568 14.5376 296.312ZM28.5056 301.448V304.88C28.5056 305.104 28.5696 305.28 28.6976 305.408C28.8256 305.536 29.0016 305.6 29.2256 305.6C29.4336 305.6 29.6016 305.536 29.7296 305.408C29.8576 305.28 29.9216 305.104 29.9216 304.88V301.448C29.9216 301.24 29.8576 301.072 29.7296 300.944C29.6016 300.816 29.4336 300.752 29.2256 300.752C29.0016 300.752 28.8256 300.816 28.6976 300.944C28.5696 301.072 28.5056 301.24 28.5056 301.448ZM33.2336 304.904V301.424C33.2336 300.976 33.0096 300.752 32.5616 300.752C32.0976 300.752 31.8656 300.976 31.8656 301.424V304.904C31.8656 305.368 32.0976 305.6 32.5616 305.6C33.0096 305.6 33.2336 305.368 33.2336 304.904ZM35.4896 315.464L35.1296 315.56C34.8576 315.64 34.6256 315.608 34.4336 315.464C34.2416 315.336 34.1216 315.136 34.0736 314.864C34.0576 314.752 34.0336 314.608 34.0016 314.432C33.9696 314.288 33.8976 314.176 33.7856 314.096C33.6896 314.032 33.5696 314.016 33.4256 314.048L32.9216 314.144C31.9456 314.32 31.0176 314.488 30.1376 314.648C29.2576 314.824 28.4096 314.992 27.5936 315.152C27.3536 315.184 27.1456 315.144 26.9696 315.032C26.7936 314.92 26.6736 314.744 26.6096 314.504L26.4416 313.688C26.3616 313.416 26.3856 313.184 26.5136 312.992C26.6576 312.8 26.8656 312.688 27.1376 312.656C27.4256 312.624 27.7216 312.584 28.0256 312.536C28.3296 312.488 28.6416 312.44 28.9616 312.392C29.1856 312.36 29.3616 312.272 29.4896 312.128C29.6176 311.968 29.6816 311.776 29.6816 311.552V308.84C29.6816 308.584 29.6016 308.384 29.4416 308.24C29.2976 308.08 29.0976 308 28.8416 308H27.4016C27.1456 308 26.9376 307.928 26.7776 307.784C26.6336 307.624 26.5616 307.416 26.5616 307.16V299.216C26.5616 298.96 26.6336 298.76 26.7776 298.616C26.9376 298.456 27.1456 298.376 27.4016 298.376H28.8416C29.0976 298.376 29.2976 298.304 29.4416 298.16C29.6016 298 29.6816 297.792 29.6816 297.536V295.136C29.6816 294.88 29.7536 294.68 29.8976 294.536C30.0576 294.376 30.2656 294.296 30.5216 294.296H31.2656C31.5216 294.296 31.7216 294.376 31.8656 294.536C32.0256 294.68 32.1056 294.88 32.1056 295.136V297.536C32.1056 297.792 32.1776 298 32.3216 298.16C32.4816 298.304 32.6896 298.376 32.9456 298.376H34.4336C34.6896 298.376 34.8896 298.456 35.0336 298.616C35.1936 298.76 35.2736 298.96 35.2736 299.216V307.16C35.2736 307.416 35.1936 307.624 35.0336 307.784C34.8896 307.928 34.6896 308 34.4336 308H32.9456C32.6896 308 32.4816 308.08 32.3216 308.24C32.1776 308.384 32.1056 308.584 32.1056 308.84V311.264C32.1056 311.456 32.1616 311.6 32.2736 311.696C32.4016 311.792 32.5616 311.824 32.7536 311.792L33.1136 311.744C33.2896 311.712 33.3616 311.608 33.3296 311.432L33.2576 311.192C33.2256 311.016 33.1856 310.848 33.1376 310.688C33.0896 310.528 33.0416 310.368 32.9936 310.208C32.9136 309.936 32.9296 309.704 33.0416 309.512C33.1696 309.304 33.3776 309.176 33.6656 309.128L33.8816 309.08C34.1056 309.032 34.2976 309.064 34.4576 309.176C34.6336 309.272 34.7536 309.424 34.8176 309.632C34.9616 310.048 35.0896 310.48 35.2016 310.928C35.3296 311.36 35.4576 311.808 35.5856 312.272C35.7936 313.088 35.9616 313.848 36.0896 314.552C36.1216 314.776 36.0816 314.968 35.9696 315.128C35.8736 315.288 35.7136 315.4 35.4896 315.464ZM40.5056 308.888C39.9616 308.888 39.5056 308.696 39.1376 308.312C38.7536 307.928 38.5616 307.464 38.5616 306.92C38.5616 306.344 38.7536 305.88 39.1376 305.528C39.5056 305.16 39.9616 304.976 40.5056 304.976C41.0496 304.976 41.5216 305.16 41.9216 305.528C42.2896 305.896 42.4736 306.36 42.4736 306.92C42.4736 307.448 42.2896 307.912 41.9216 308.312C41.5376 308.696 41.0656 308.888 40.5056 308.888ZM48.4624 299.192V300.008C48.4624 300.264 48.3824 300.472 48.2224 300.632C48.0784 300.776 47.8784 300.848 47.6224 300.848H46.5904C46.3344 300.848 46.1264 300.776 45.9664 300.632C45.8224 300.472 45.7504 300.264 45.7504 300.008V296.672C45.7504 296.416 45.8224 296.216 45.9664 296.072C46.1264 295.912 46.3344 295.832 46.5904 295.832H53.5264C53.7664 295.832 53.9344 295.76 54.0304 295.616C54.1264 295.472 54.1264 295.288 54.0304 295.064C53.9184 294.84 53.9024 294.648 53.9824 294.488C54.0624 294.312 54.2304 294.2 54.4864 294.152L55.9984 293.816C56.1904 293.784 56.3664 293.808 56.5264 293.888C56.7024 293.952 56.8304 294.072 56.9104 294.248C56.9904 294.424 57.0704 294.6 57.1504 294.776C57.2304 294.952 57.3104 295.128 57.3904 295.304C57.5504 295.656 57.8144 295.832 58.1824 295.832H64.8544C65.1104 295.832 65.3104 295.912 65.4544 296.072C65.6144 296.216 65.6944 296.416 65.6944 296.672V300.008C65.6944 300.264 65.6144 300.472 65.4544 300.632C65.3104 300.776 65.1104 300.848 64.8544 300.848H63.6784C63.4224 300.848 63.2144 300.776 63.0544 300.632C62.9104 300.472 62.8384 300.264 62.8384 300.008V299.192C62.8384 298.936 62.7584 298.736 62.5984 298.592C62.4544 298.432 62.2544 298.352 61.9984 298.352H49.3024C49.0464 298.352 48.8384 298.432 48.6784 298.592C48.5344 298.736 48.4624 298.936 48.4624 299.192ZM58.0384 299.696L58.5904 299.216C58.8944 298.992 59.2144 298.968 59.5504 299.144C59.9984 299.416 60.4464 299.704 60.8944 300.008C61.3424 300.296 61.7984 300.6 62.2624 300.92C62.6464 301.192 62.9984 301.464 63.3184 301.736C63.6544 301.992 63.9664 302.24 64.2544 302.48C64.4624 302.656 64.5584 302.864 64.5424 303.104C64.5424 303.328 64.4384 303.528 64.2304 303.704L63.4624 304.352C63.2864 304.512 63.0864 304.592 62.8624 304.592C62.6544 304.576 62.4624 304.488 62.2864 304.328C61.7424 303.832 61.0864 303.272 60.3184 302.648C59.9504 302.376 59.5824 302.112 59.2144 301.856C58.8464 301.584 58.4784 301.32 58.1104 301.064C57.8224 300.872 57.6704 300.656 57.6544 300.416C57.6384 300.16 57.7664 299.92 58.0384 299.696ZM52.0384 299L52.9984 299.312C53.3184 299.424 53.5184 299.6 53.5984 299.84C53.6784 300.064 53.6064 300.312 53.3824 300.584C52.6944 301.4 51.9584 302.144 51.1744 302.816C50.3904 303.472 49.5584 304.072 48.6784 304.616C48.5024 304.728 48.3184 304.768 48.1264 304.736C47.9344 304.704 47.7744 304.6 47.6464 304.424C47.5664 304.344 47.4864 304.256 47.4064 304.16C47.3424 304.064 47.2704 303.968 47.1904 303.872C47.1104 303.776 47.0304 303.688 46.9504 303.608C46.8704 303.512 46.7904 303.424 46.7104 303.344C46.5664 303.184 46.5024 303.032 46.5184 302.888C46.5504 302.728 46.6624 302.6 46.8544 302.504C48.5664 301.64 49.9824 300.56 51.1024 299.264C51.2304 299.136 51.3744 299.048 51.5344 299C51.6944 298.936 51.8624 298.936 52.0384 299ZM54.6304 307.784H57.1744C57.9424 307.784 58.3664 307.656 58.4464 307.4C58.5424 307.128 58.2944 306.736 57.7024 306.224C57.4784 306.048 57.2624 305.872 57.0544 305.696C56.8624 305.504 56.6624 305.312 56.4544 305.12C56.2624 304.928 56.0464 304.84 55.8064 304.856C55.5824 304.856 55.3744 304.952 55.1824 305.144C54.8304 305.528 54.4624 305.896 54.0784 306.248C53.5184 306.744 53.2784 307.128 53.3584 307.4C53.4544 307.656 53.8784 307.784 54.6304 307.784ZM52.5184 312.704H58.8544C59.1104 312.704 59.3104 312.632 59.4544 312.488C59.6144 312.328 59.6944 312.12 59.6944 311.864V311.072C59.6944 310.816 59.6144 310.616 59.4544 310.472C59.3104 310.312 59.1104 310.232 58.8544 310.232H52.5184C52.2624 310.232 52.0544 310.312 51.8944 310.472C51.7504 310.616 51.6784 310.816 51.6784 311.072V311.864C51.6784 312.12 51.7504 312.328 51.8944 312.488C52.0544 312.632 52.2624 312.704 52.5184 312.704ZM55.9024 301.256L57.5344 301.952C57.5984 301.968 57.6144 302.008 57.5824 302.072L57.5584 302.144C57.5424 302.144 57.5344 302.152 57.5344 302.168C57.5344 302.184 57.5264 302.192 57.5104 302.192L57.3904 302.36C57.2944 302.504 57.3024 302.632 57.4144 302.744C58.6624 303.992 60.0544 305.056 61.5904 305.936C62.2784 306.336 62.9824 306.704 63.7024 307.04C64.4384 307.376 65.1984 307.696 65.9824 308C66.3984 308.176 66.4544 308.44 66.1504 308.792C66.0704 308.872 65.9904 308.96 65.9104 309.056C65.8464 309.152 65.7744 309.248 65.6944 309.344C65.6144 309.44 65.5424 309.544 65.4784 309.656C65.4144 309.752 65.3424 309.848 65.2624 309.944C65.1504 310.136 65.0064 310.264 64.8304 310.328C64.6544 310.392 64.4624 310.376 64.2544 310.28C64.1744 310.248 64.0864 310.208 63.9904 310.16C63.9104 310.112 63.8224 310.064 63.7264 310.016C63.3744 309.84 63.0864 309.824 62.8624 309.968C62.6544 310.096 62.5504 310.36 62.5504 310.76V314.96C62.5504 315.216 62.4704 315.416 62.3104 315.56C62.1664 315.72 61.9664 315.8 61.7104 315.8H60.0064C59.7984 315.8 59.6944 315.696 59.6944 315.488C59.6944 315.28 59.5904 315.176 59.3824 315.176H52.0144C51.7904 315.176 51.6784 315.288 51.6784 315.512C51.6784 315.72 51.5744 315.824 51.3664 315.824H49.8064C49.5504 315.824 49.3424 315.744 49.1824 315.584C49.0384 315.44 48.9664 315.24 48.9664 314.984V311.096C48.9664 310.68 48.8544 310.408 48.6304 310.28C48.4064 310.136 48.1104 310.152 47.7424 310.328C47.6304 310.376 47.5184 310.424 47.4064 310.472C47.3104 310.504 47.2144 310.544 47.1184 310.592C46.9264 310.672 46.7344 310.688 46.5424 310.64C46.3664 310.576 46.2144 310.456 46.0864 310.28C46.0224 310.184 45.9584 310.088 45.8944 309.992C45.8464 309.896 45.7824 309.8 45.7024 309.704C45.6224 309.608 45.5424 309.512 45.4624 309.416C45.3984 309.32 45.3264 309.232 45.2464 309.152C44.9424 308.784 44.9984 308.528 45.4144 308.384C47.3344 307.68 49.1344 306.736 50.8144 305.552C52.4784 304.4 53.8144 303.072 54.8224 301.568C55.1104 301.184 55.4704 301.08 55.9024 301.256ZM76.8064 308.504H75.8944C75.4304 308.504 75.1504 308.608 75.0544 308.816C74.9584 309.024 75.0784 309.288 75.4144 309.608C75.5264 309.704 75.6304 309.8 75.7264 309.896C75.8384 309.992 75.9584 310.08 76.0864 310.16C76.2624 310.288 76.4384 310.344 76.6144 310.328C76.8064 310.296 76.9664 310.208 77.0944 310.064C77.1744 309.984 77.2384 309.896 77.2864 309.8C77.3504 309.704 77.4144 309.616 77.4784 309.536C77.6544 309.248 77.6704 309.008 77.5264 308.816C77.3984 308.608 77.1584 308.504 76.8064 308.504ZM74.1184 305.456C74.1184 305.68 74.1904 305.864 74.3344 306.008C74.4784 306.152 74.6624 306.224 74.8864 306.224H78.0304C78.2704 306.224 78.4064 306.096 78.4384 305.84V305.456V305.072C78.4384 304.832 78.3184 304.712 78.0784 304.712H74.8864C74.6624 304.712 74.4784 304.784 74.3344 304.928C74.1904 305.056 74.1184 305.232 74.1184 305.456ZM74.1184 301.88C74.1184 302.376 74.3664 302.624 74.8624 302.624H77.6944C78.1904 302.624 78.4384 302.376 78.4384 301.88C78.4384 301.384 78.1904 301.136 77.6944 301.136H74.8624C74.3664 301.136 74.1184 301.384 74.1184 301.88ZM85.0144 301.136H82.0864C81.5904 301.136 81.3424 301.384 81.3424 301.88C81.3424 302.376 81.5904 302.624 82.0864 302.624H85.0144C85.5104 302.624 85.7584 302.376 85.7584 301.88C85.7584 301.384 85.5104 301.136 85.0144 301.136ZM85.7584 305.456C85.7584 305.232 85.6864 305.056 85.5424 304.928C85.4144 304.784 85.2384 304.712 85.0144 304.712H81.7264C81.4704 304.712 81.3424 304.84 81.3424 305.096V305.48V305.84C81.3424 306.096 81.4704 306.224 81.7264 306.224H85.0144C85.2384 306.224 85.4144 306.152 85.5424 306.008C85.6864 305.864 85.7584 305.68 85.7584 305.456ZM87.6784 308.504H81.6784C81.4704 308.504 81.2944 308.568 81.1504 308.696C81.0064 308.808 80.8944 308.952 80.8144 309.128C80.7184 309.4 80.6064 309.672 80.4784 309.944C80.3664 310.216 80.2304 310.48 80.0704 310.736C79.8624 311.056 79.7904 311.344 79.8544 311.6C79.9344 311.84 80.1584 312 80.5264 312.08C81.7264 312.368 83.0384 312.56 84.4624 312.656C85.3264 312.736 86.2304 312.792 87.1744 312.824C88.1344 312.84 89.1424 312.84 90.1984 312.824C90.6304 312.824 90.7424 313.024 90.5344 313.424C90.4704 313.536 90.4064 313.648 90.3424 313.76C90.2944 313.856 90.2464 313.968 90.1984 314.096C90.0864 314.368 89.9904 314.632 89.9104 314.888C89.8464 315.096 89.7344 315.264 89.5744 315.392C89.4304 315.52 89.2464 315.576 89.0224 315.56C87.8704 315.528 86.7744 315.472 85.7344 315.392C84.6944 315.328 83.6944 315.24 82.7344 315.128C80.7184 314.856 78.9344 314.416 77.3824 313.808C77.2704 313.76 77.1424 313.744 76.9984 313.76C76.8704 313.76 76.7504 313.792 76.6384 313.856C75.2144 314.624 73.4304 315.24 71.2864 315.704C71.1104 315.752 70.9344 315.736 70.7584 315.656C70.5824 315.576 70.4464 315.448 70.3504 315.272C70.2864 315.176 70.2144 315.072 70.1344 314.96C70.0704 314.848 69.9984 314.728 69.9184 314.6C69.8384 314.488 69.7584 314.376 69.6784 314.264C69.6144 314.168 69.5424 314.072 69.4624 313.976C69.1904 313.576 69.2864 313.328 69.7504 313.232C70.3584 313.12 70.9264 313 71.4544 312.872C71.9824 312.744 72.4784 312.608 72.9424 312.464C73.3584 312.336 73.5824 312.144 73.6144 311.888C73.6464 311.632 73.5184 311.352 73.2304 311.048C73.1024 310.92 72.9744 310.784 72.8464 310.64C72.7344 310.496 72.6144 310.352 72.4864 310.208C72.2944 309.968 72.2304 309.736 72.2944 309.512C72.3584 309.272 72.5344 309.096 72.8224 308.984L72.9184 308.936C73.2384 308.808 73.3904 308.704 73.3744 308.624C73.3584 308.544 73.1744 308.504 72.8224 308.504H72.3424C72.0864 308.504 71.8784 308.432 71.7184 308.288C71.5744 308.128 71.5024 307.92 71.5024 307.664V299.72C71.5024 299.464 71.5744 299.264 71.7184 299.12C71.8784 298.96 72.0864 298.88 72.3424 298.88H77.7424C77.9504 298.88 78.1184 298.816 78.2464 298.688C78.3744 298.56 78.4384 298.392 78.4384 298.184C78.4384 297.976 78.3744 297.808 78.2464 297.68C78.1184 297.552 77.9504 297.488 77.7424 297.488H70.3024C70.0464 297.488 69.8384 297.416 69.6784 297.272C69.5344 297.112 69.4624 296.904 69.4624 296.648V295.856C69.4624 295.6 69.5344 295.4 69.6784 295.256C69.8384 295.096 70.0464 295.016 70.3024 295.016H89.1184C89.3744 295.016 89.5744 295.096 89.7184 295.256C89.8784 295.4 89.9584 295.6 89.9584 295.856V296.648C89.9584 296.904 89.8784 297.112 89.7184 297.272C89.5744 297.416 89.3744 297.488 89.1184 297.488H82.0384C81.8304 297.488 81.6624 297.552 81.5344 297.68C81.4064 297.808 81.3424 297.976 81.3424 298.184C81.3424 298.392 81.4064 298.56 81.5344 298.688C81.6624 298.816 81.8304 298.88 82.0384 298.88H87.6784C87.9344 298.88 88.1344 298.96 88.2784 299.12C88.4384 299.264 88.5184 299.464 88.5184 299.72V307.664C88.5184 307.92 88.4384 308.128 88.2784 308.288C88.1344 308.432 87.9344 308.504 87.6784 308.504ZM109.638 295.856L110.526 296.408C110.75 296.536 110.886 296.704 110.934 296.912C110.982 297.12 110.942 297.328 110.814 297.536C109.246 299.888 107.126 301.752 104.454 303.128C101.718 304.584 98.7424 305.624 95.5264 306.248C95.3184 306.28 95.1264 306.248 94.9504 306.152C94.7904 306.056 94.6704 305.92 94.5904 305.744C94.5424 305.632 94.4944 305.528 94.4464 305.432C94.3984 305.336 94.3504 305.224 94.3024 305.096C94.2384 304.984 94.1744 304.88 94.1104 304.784C94.0624 304.688 94.0064 304.592 93.9424 304.496C93.8304 304.32 93.7984 304.176 93.8464 304.064C93.9104 303.936 94.0464 303.856 94.2544 303.824C95.1344 303.68 95.9984 303.504 96.8464 303.296C97.6944 303.088 98.5264 302.84 99.3424 302.552C99.6944 302.44 99.8864 302.272 99.9184 302.048C99.9664 301.808 99.8464 301.576 99.5584 301.352V301.328C99.2704 301.104 99.1264 300.872 99.1264 300.632C99.1264 300.376 99.2864 300.152 99.6064 299.96L100.182 299.6C100.486 299.424 100.782 299.424 101.07 299.6C101.326 299.776 101.574 299.952 101.814 300.128C102.054 300.304 102.302 300.488 102.558 300.68C102.846 300.92 103.158 300.952 103.494 300.776C103.814 300.6 104.11 300.416 104.382 300.224C104.67 300.032 104.95 299.84 105.222 299.648C105.734 299.28 105.934 298.968 105.822 298.712C105.726 298.44 105.366 298.304 104.742 298.304H101.262C101.182 298.304 101.094 298.32 100.998 298.352C100.918 298.384 100.846 298.416 100.782 298.448C100.174 298.864 99.5264 299.272 98.8384 299.672C98.1504 300.056 97.4224 300.432 96.6544 300.8C96.4624 300.88 96.2704 300.896 96.0784 300.848C95.9024 300.8 95.7504 300.696 95.6224 300.536C95.5424 300.456 95.4624 300.376 95.3824 300.296C95.3184 300.2 95.2464 300.104 95.1664 300.008C95.0864 299.928 94.9984 299.848 94.9024 299.768C94.8224 299.688 94.7424 299.608 94.6624 299.528C94.3584 299.224 94.3984 298.992 94.7824 298.832C96.3664 298.192 97.7824 297.456 99.0304 296.624C100.182 295.84 101.15 295.048 101.934 294.248C102.174 294.008 102.446 293.928 102.75 294.008L104.382 294.392C104.654 294.456 104.806 294.568 104.838 294.728C104.886 294.872 104.814 295.04 104.622 295.232C104.238 295.648 104.326 295.856 104.886 295.856H108.846C108.878 295.856 108.91 295.856 108.942 295.856C108.974 295.856 109.006 295.848 109.038 295.832L109.182 295.784C109.358 295.752 109.51 295.776 109.638 295.856ZM112.662 304.496L113.67 305.048C113.878 305.176 114.014 305.336 114.078 305.528C114.142 305.72 114.11 305.92 113.982 306.128C113.438 307.152 112.814 308.08 112.11 308.912C111.406 309.744 110.606 310.48 109.71 311.12C107.71 312.544 105.422 313.624 102.846 314.36C101.646 314.696 100.406 314.984 99.1264 315.224C97.8464 315.464 96.5184 315.648 95.1424 315.776C94.6944 315.824 94.3904 315.624 94.2304 315.176C94.1984 315.064 94.1584 314.952 94.1104 314.84C94.0784 314.744 94.0384 314.632 93.9904 314.504C93.9424 314.376 93.8864 314.256 93.8224 314.144C93.7744 314.032 93.7264 313.92 93.6784 313.808C93.4704 313.376 93.5984 313.144 94.0624 313.112C97.0704 312.888 99.8224 312.408 102.318 311.672C102.702 311.56 102.918 311.392 102.966 311.168C103.014 310.928 102.886 310.688 102.582 310.448C102.278 310.192 102.134 309.936 102.15 309.68C102.166 309.424 102.342 309.2 102.678 309.008L103.398 308.576C103.526 308.496 103.67 308.464 103.83 308.48C104.006 308.48 104.158 308.528 104.286 308.624C104.542 308.8 104.79 308.984 105.03 309.176C105.27 309.352 105.51 309.544 105.75 309.752C106.038 309.992 106.35 310.024 106.686 309.848C107.47 309.384 108.214 308.84 108.918 308.216C109.286 307.848 109.406 307.544 109.278 307.304C109.166 307.064 108.854 306.944 108.342 306.944H105.03C104.854 306.944 104.694 307 104.55 307.112C102.886 308.264 100.91 309.288 98.6224 310.184C98.4464 310.264 98.2704 310.272 98.0944 310.208C97.9184 310.144 97.7744 310.024 97.6624 309.848C97.5984 309.768 97.5344 309.68 97.4704 309.584C97.4064 309.488 97.3344 309.392 97.2544 309.296C97.1744 309.2 97.0944 309.104 97.0144 309.008C96.9504 308.912 96.8784 308.824 96.7984 308.744C96.5104 308.424 96.5664 308.192 96.9664 308.048C98.0224 307.68 98.9904 307.296 99.8704 306.896C100.766 306.48 101.59 306.024 102.342 305.528C103.062 305.064 103.71 304.592 104.286 304.112C104.862 303.632 105.366 303.144 105.798 302.648C106.038 302.36 106.326 302.256 106.662 302.336L108.102 302.696C108.406 302.776 108.59 302.912 108.654 303.104C108.718 303.296 108.646 303.504 108.438 303.728C108.214 303.952 108.126 304.136 108.174 304.28C108.238 304.408 108.43 304.472 108.75 304.472H111.798C111.83 304.472 111.862 304.472 111.894 304.472C111.926 304.472 111.958 304.464 111.99 304.448L112.158 304.4C112.35 304.368 112.518 304.4 112.662 304.496ZM136.014 296.456V297.464C136.014 297.72 135.934 297.928 135.774 298.088C135.63 298.232 135.43 298.304 135.174 298.304H120.246C119.99 298.304 119.782 298.232 119.622 298.088C119.478 297.928 119.406 297.72 119.406 297.464V296.456C119.406 296.2 119.478 296 119.622 295.856C119.782 295.696 119.99 295.616 120.246 295.616H135.174C135.43 295.616 135.63 295.696 135.774 295.856C135.934 296 136.014 296.2 136.014 296.456ZM132.894 312.824H135.006C135.294 312.824 135.494 312.728 135.606 312.536C135.734 312.344 135.83 311.96 135.894 311.384C135.926 311.16 135.95 310.896 135.966 310.592C135.982 310.288 135.998 309.952 136.014 309.584C136.046 309.12 136.254 309.008 136.638 309.248C136.734 309.296 136.83 309.352 136.926 309.416C137.038 309.464 137.158 309.512 137.286 309.56C137.398 309.608 137.502 309.656 137.598 309.704C137.71 309.752 137.822 309.792 137.934 309.824C138.126 309.904 138.286 310.024 138.414 310.184C138.542 310.328 138.59 310.504 138.558 310.712C138.446 312.392 138.182 313.584 137.766 314.288C137.286 315.056 136.446 315.44 135.246 315.44H132.438C131.126 315.44 130.238 315.176 129.774 314.648C129.326 314.136 129.102 313.184 129.102 311.792V305.48C129.102 305.224 129.022 305.024 128.862 304.88C128.718 304.72 128.518 304.64 128.262 304.64H126.39C126.15 304.64 125.95 304.712 125.79 304.856C125.646 305 125.558 305.192 125.526 305.432C125.414 306.744 125.182 307.992 124.83 309.176C124.414 310.6 123.726 311.856 122.766 312.944C121.87 313.936 120.67 314.784 119.166 315.488C118.974 315.584 118.79 315.592 118.614 315.512C118.438 315.448 118.294 315.328 118.182 315.152C118.118 315.072 118.054 314.976 117.99 314.864C117.926 314.768 117.854 314.672 117.774 314.576C117.694 314.48 117.614 314.384 117.534 314.288C117.454 314.192 117.374 314.104 117.294 314.024C116.99 313.688 117.046 313.424 117.462 313.232C119.43 312.336 120.75 311.208 121.422 309.848C121.726 309.192 121.966 308.512 122.142 307.808C122.334 307.088 122.462 306.32 122.526 305.504C122.558 305.232 122.494 305.024 122.334 304.88C122.19 304.72 121.982 304.64 121.71 304.64H118.134C117.878 304.64 117.67 304.568 117.51 304.424C117.366 304.264 117.294 304.056 117.294 303.8V302.768C117.294 302.512 117.366 302.312 117.51 302.168C117.67 302.008 117.878 301.928 118.134 301.928H137.334C137.59 301.928 137.79 302.008 137.934 302.168C138.094 302.312 138.174 302.512 138.174 302.768V303.8C138.174 304.056 138.094 304.264 137.934 304.424C137.79 304.568 137.59 304.64 137.334 304.64H132.822C132.566 304.64 132.358 304.72 132.198 304.88C132.054 305.024 131.982 305.224 131.982 305.48V311.792C131.982 312.24 132.038 312.52 132.15 312.632C132.278 312.76 132.526 312.824 132.894 312.824ZM145.158 310.928H147.198C147.454 310.928 147.654 310.856 147.798 310.712C147.958 310.552 148.038 310.344 148.038 310.088V307.184C148.038 306.928 147.958 306.728 147.798 306.584C147.654 306.424 147.454 306.344 147.198 306.344H145.158C144.902 306.344 144.694 306.424 144.534 306.584C144.39 306.728 144.318 306.928 144.318 307.184V310.088C144.318 310.344 144.39 310.552 144.534 310.712C144.694 310.856 144.902 310.928 145.158 310.928ZM148.038 303.104V300.992C148.038 300.736 147.958 300.536 147.798 300.392C147.654 300.232 147.454 300.152 147.198 300.152H145.158C144.902 300.152 144.694 300.232 144.534 300.392C144.39 300.536 144.318 300.736 144.318 300.992V303.104C144.318 303.36 144.39 303.568 144.534 303.728C144.694 303.872 144.902 303.944 145.158 303.944H147.198C147.454 303.944 147.654 303.872 147.798 303.728C147.958 303.568 148.038 303.36 148.038 303.104ZM156.654 297.56H161.982C162.03 297.56 162.054 297.584 162.054 297.632V297.704V298.064V298.472L162.03 298.808C161.886 303.96 161.718 307.688 161.526 309.992C161.318 312.296 160.982 313.712 160.518 314.24C160.166 314.672 159.822 314.976 159.486 315.152C159.31 315.232 159.126 315.304 158.934 315.368C158.742 315.432 158.534 315.488 158.31 315.536H158.214C157.814 315.568 157.366 315.584 156.87 315.584C156.39 315.6 155.862 315.6 155.286 315.584C155.062 315.584 154.878 315.52 154.734 315.392C154.606 315.264 154.526 315.096 154.494 314.888C154.462 314.776 154.43 314.664 154.398 314.552C154.366 314.456 154.334 314.344 154.302 314.216C154.238 314.008 154.15 313.776 154.038 313.52C153.83 313.072 153.958 312.864 154.422 312.896C154.902 312.944 155.358 312.968 155.79 312.968L157.158 312.992C157.414 312.992 157.614 312.96 157.758 312.896C157.886 312.864 158.006 312.792 158.118 312.68L158.262 312.536C158.806 311.896 159.19 308.032 159.414 300.944C159.43 300.672 159.358 300.464 159.198 300.32C159.054 300.16 158.846 300.08 158.574 300.08H154.974C154.798 300.08 154.638 300.128 154.494 300.224C154.366 300.304 154.27 300.424 154.206 300.584C153.966 301.096 153.718 301.584 153.462 302.048C153.206 302.512 152.942 302.944 152.67 303.344C152.494 303.616 152.27 303.648 151.998 303.44C151.918 303.392 151.846 303.344 151.782 303.296C151.718 303.248 151.646 303.192 151.566 303.128L151.062 302.792C150.726 302.584 150.558 302.672 150.558 303.056V312.56C150.558 312.816 150.478 313.024 150.318 313.184C150.174 313.328 149.974 313.4 149.718 313.4H145.158C144.902 313.4 144.694 313.48 144.534 313.64C144.39 313.784 144.318 313.984 144.318 314.24V314.264C144.318 314.52 144.238 314.72 144.078 314.864C143.934 315.024 143.734 315.104 143.478 315.104H142.638C142.382 315.104 142.174 315.024 142.014 314.864C141.87 314.72 141.798 314.52 141.798 314.264V298.568C141.798 298.312 141.87 298.112 142.014 297.968C142.174 297.808 142.382 297.728 142.638 297.728H143.79C143.982 297.728 144.15 297.672 144.294 297.56C144.454 297.432 144.55 297.272 144.582 297.08C144.678 296.696 144.758 296.32 144.822 295.952C144.886 295.568 144.95 295.192 145.014 294.824C145.046 294.552 145.142 294.352 145.302 294.224C145.478 294.096 145.702 294.048 145.974 294.08L147.15 294.224C147.454 294.272 147.67 294.4 147.798 294.608C147.926 294.8 147.934 295.04 147.822 295.328C147.742 295.552 147.67 295.768 147.606 295.976C147.542 296.168 147.47 296.368 147.39 296.576C147.262 296.928 147.27 297.208 147.414 297.416C147.558 297.624 147.814 297.728 148.182 297.728H149.718C149.974 297.728 150.174 297.808 150.318 297.968C150.478 298.112 150.558 298.312 150.558 298.568V299.6C150.558 300.176 150.646 300.496 150.822 300.56C151.014 300.608 151.246 300.384 151.518 299.888C152.35 298.32 153.014 296.616 153.51 294.776C153.59 294.536 153.718 294.36 153.894 294.248C154.07 294.136 154.278 294.112 154.518 294.176L155.526 294.392C155.782 294.456 155.966 294.584 156.078 294.776C156.206 294.952 156.23 295.16 156.15 295.4C156.102 295.576 156.054 295.744 156.006 295.904C155.958 296.064 155.902 296.232 155.838 296.408C155.726 296.76 155.742 297.04 155.886 297.248C156.03 297.456 156.286 297.56 156.654 297.56ZM157.494 308.624L156.606 309.176C156.366 309.336 156.134 309.384 155.91 309.32C155.686 309.256 155.51 309.096 155.382 308.84C155.238 308.568 155.078 308.288 154.902 308C154.742 307.712 154.566 307.408 154.374 307.088C154.15 306.72 153.926 306.368 153.702 306.032C153.494 305.696 153.278 305.36 153.054 305.024C152.894 304.8 152.838 304.584 152.886 304.376C152.95 304.152 153.102 303.968 153.342 303.824L154.086 303.416C154.278 303.288 154.47 303.248 154.662 303.296C154.87 303.344 155.038 303.464 155.166 303.656C155.406 303.976 155.646 304.312 155.886 304.664C156.126 305 156.374 305.352 156.63 305.72C157.062 306.392 157.446 306.992 157.782 307.52C157.91 307.728 157.942 307.936 157.878 308.144C157.83 308.336 157.702 308.496 157.494 308.624ZM169.878 302.408V302.792C169.878 303.048 169.95 303.256 170.094 303.416C170.254 303.56 170.462 303.632 170.718 303.632H173.454C173.71 303.632 173.91 303.56 174.054 303.416C174.214 303.256 174.294 303.048 174.294 302.792V302.408C174.294 302.152 174.214 301.952 174.054 301.808C173.91 301.648 173.71 301.568 173.454 301.568H170.718C170.462 301.568 170.254 301.648 170.094 301.808C169.95 301.952 169.878 302.152 169.878 302.408ZM169.878 298.184V298.472C169.878 298.728 169.95 298.936 170.094 299.096C170.254 299.24 170.462 299.312 170.718 299.312H173.454C173.71 299.312 173.91 299.24 174.054 299.096C174.214 298.936 174.294 298.728 174.294 298.472V298.184C174.294 297.928 174.214 297.728 174.054 297.584C173.91 297.424 173.71 297.344 173.454 297.344H170.718C170.462 297.344 170.254 297.424 170.094 297.584C169.95 297.728 169.878 297.928 169.878 298.184ZM181.254 298.472V298.184C181.254 297.928 181.174 297.728 181.014 297.584C180.87 297.424 180.67 297.344 180.414 297.344H177.822C177.566 297.344 177.358 297.424 177.198 297.584C177.054 297.728 176.982 297.928 176.982 298.184V298.472C176.982 298.728 177.054 298.936 177.198 299.096C177.358 299.24 177.566 299.312 177.822 299.312H180.414C180.67 299.312 180.87 299.24 181.014 299.096C181.174 298.936 181.254 298.728 181.254 298.472ZM181.254 302.792V302.408C181.254 302.152 181.174 301.952 181.014 301.808C180.87 301.648 180.67 301.568 180.414 301.568H177.822C177.566 301.568 177.358 301.648 177.198 301.808C177.054 301.952 176.982 302.152 176.982 302.408V302.792C176.982 303.048 177.054 303.256 177.198 303.416C177.358 303.56 177.566 303.632 177.822 303.632H180.414C180.67 303.632 180.87 303.56 181.014 303.416C181.174 303.256 181.254 303.048 181.254 302.792ZM173.766 306.776C174.006 306.552 174.094 306.376 174.03 306.248C173.982 306.104 173.798 306.032 173.478 306.032H168.102C167.846 306.032 167.638 305.96 167.478 305.816C167.334 305.656 167.262 305.448 167.262 305.192V295.784C167.262 295.528 167.334 295.328 167.478 295.184C167.638 295.024 167.846 294.944 168.102 294.944H183.174C183.43 294.944 183.63 295.024 183.774 295.184C183.934 295.328 184.014 295.528 184.014 295.784V305.192C184.014 305.448 183.934 305.656 183.774 305.816C183.63 305.96 183.43 306.032 183.174 306.032H176.574C175.71 306.032 175.654 306.256 176.406 306.704C176.598 306.816 176.79 306.936 176.982 307.064C177.174 307.192 177.374 307.32 177.582 307.448C177.822 307.624 178.046 307.792 178.254 307.952C178.478 308.112 178.686 308.272 178.878 308.432C179.07 308.608 179.166 308.808 179.166 309.032C179.166 309.24 179.07 309.432 178.878 309.608L178.134 310.304C177.734 310.672 177.326 310.672 176.91 310.304C176.718 310.128 176.51 309.952 176.286 309.776C176.062 309.584 175.814 309.384 175.542 309.176C175.27 308.984 174.998 308.8 174.726 308.624C174.454 308.448 174.182 308.272 173.91 308.096C173.622 307.92 173.462 307.712 173.43 307.472C173.414 307.232 173.526 307 173.766 306.776ZM166.758 314.12L165.75 313.568C165.51 313.44 165.358 313.264 165.294 313.04C165.246 312.8 165.294 312.56 165.438 312.32C165.806 311.76 166.126 311.168 166.398 310.544C166.67 309.904 166.918 309.24 167.142 308.552C167.222 308.28 167.358 308.096 167.55 308C167.758 307.888 167.99 307.88 168.246 307.976L169.182 308.312C169.406 308.392 169.566 308.528 169.662 308.72C169.758 308.896 169.766 309.096 169.686 309.32C169.574 309.72 169.446 310.12 169.302 310.52C169.174 310.904 169.038 311.296 168.894 311.696C168.59 312.448 168.238 313.168 167.838 313.856C167.71 314.048 167.55 314.168 167.358 314.216C167.166 314.264 166.966 314.232 166.758 314.12ZM174.822 312.872H178.134C178.63 312.872 178.958 312.704 179.118 312.368C179.23 312.112 179.318 311.616 179.382 310.88C179.414 310.448 179.622 310.336 180.006 310.544C180.102 310.592 180.198 310.64 180.294 310.688C180.39 310.72 180.502 310.76 180.63 310.808C180.742 310.856 180.846 310.904 180.942 310.952C181.054 310.984 181.166 311.016 181.278 311.048C181.47 311.112 181.622 311.224 181.734 311.384C181.846 311.528 181.886 311.712 181.854 311.936C181.71 313.184 181.422 314.048 180.99 314.528C180.462 315.104 179.59 315.392 178.374 315.392H174.486C172.95 315.392 171.926 315.152 171.414 314.672C170.886 314.192 170.622 313.336 170.622 312.104V309.104C170.622 308.848 170.694 308.648 170.838 308.504C170.998 308.344 171.206 308.264 171.462 308.264H172.59C172.846 308.264 173.046 308.344 173.19 308.504C173.35 308.648 173.43 308.848 173.43 309.104V312.08C173.43 312.416 173.518 312.632 173.694 312.728C173.87 312.824 174.246 312.872 174.822 312.872ZM181.974 308.168L182.91 307.76C183.086 307.68 183.262 307.672 183.438 307.736C183.63 307.784 183.782 307.888 183.894 308.048C184.166 308.432 184.422 308.816 184.662 309.2C184.902 309.584 185.142 309.984 185.382 310.4C185.59 310.768 185.766 311.128 185.91 311.48C186.07 311.832 186.214 312.168 186.342 312.488C186.422 312.696 186.422 312.896 186.342 313.088C186.262 313.264 186.11 313.392 185.886 313.472L184.758 313.952C184.486 314.08 184.246 314.088 184.038 313.976C183.83 313.864 183.678 313.672 183.582 313.4C183.47 313.128 183.35 312.84 183.222 312.536C183.094 312.216 182.942 311.888 182.766 311.552C182.59 311.184 182.398 310.824 182.19 310.472C181.998 310.12 181.79 309.768 181.566 309.416C181.406 309.144 181.358 308.896 181.422 308.672C181.502 308.448 181.686 308.28 181.974 308.168ZM202.422 304.832C202.422 305.04 202.486 305.208 202.614 305.336C202.742 305.464 202.91 305.528 203.118 305.528H206.022C206.23 305.528 206.398 305.464 206.526 305.336C206.654 305.208 206.718 305.04 206.718 304.832C206.718 304.624 206.654 304.456 206.526 304.328C206.398 304.2 206.23 304.136 206.022 304.136H203.118C202.91 304.136 202.742 304.2 202.614 304.328C202.486 304.456 202.422 304.624 202.422 304.832ZM202.422 301.4C202.422 301.864 202.654 302.096 203.118 302.096H206.046C206.494 302.096 206.718 301.864 206.718 301.4C206.718 300.952 206.494 300.728 206.046 300.728H203.118C202.654 300.728 202.422 300.952 202.422 301.4ZM202.422 297.992C202.422 298.44 202.646 298.664 203.094 298.664H206.046C206.494 298.664 206.718 298.44 206.718 297.992C206.718 297.544 206.494 297.32 206.046 297.32H203.094C202.646 297.32 202.422 297.544 202.422 297.992ZM198.246 308.024L199.182 307.256C199.326 307.128 199.486 307.136 199.662 307.28C199.822 307.408 199.902 307.376 199.902 307.184V295.952C199.902 295.696 199.974 295.496 200.118 295.352C200.278 295.192 200.486 295.112 200.742 295.112H208.566C208.822 295.112 209.022 295.192 209.166 295.352C209.326 295.496 209.406 295.696 209.406 295.952V306.872C209.406 307.128 209.326 307.336 209.166 307.496C209.022 307.64 208.822 307.712 208.566 307.712H201.078C200.806 307.712 200.646 307.776 200.598 307.904C200.55 308.016 200.622 308.168 200.814 308.36C200.942 308.472 201.054 308.584 201.15 308.696C201.262 308.792 201.382 308.896 201.51 309.008C201.606 309.12 201.702 309.224 201.798 309.32C201.894 309.416 201.982 309.504 202.062 309.584C202.238 309.76 202.318 309.952 202.302 310.16C202.286 310.368 202.182 310.552 201.99 310.712L201.27 311.312C201.062 311.488 200.846 311.568 200.622 311.552C200.414 311.52 200.222 311.4 200.046 311.192C199.918 311.064 199.782 310.928 199.638 310.784C199.51 310.624 199.366 310.464 199.206 310.304C198.87 309.936 198.534 309.6 198.198 309.296C197.99 309.088 197.886 308.872 197.886 308.648C197.902 308.408 198.022 308.2 198.246 308.024ZM193.038 307.136V305.528C193.038 304.232 192.646 304.112 191.862 305.168C191.702 305.376 191.542 305.576 191.382 305.768C191.222 305.96 191.054 306.144 190.878 306.32C190.734 306.464 190.582 306.528 190.422 306.512C190.262 306.496 190.118 306.408 189.99 306.248C189.878 306.072 189.734 305.904 189.558 305.744C189.414 305.568 189.262 305.416 189.102 305.288C188.814 304.984 188.822 304.704 189.126 304.448C190.214 303.472 191.174 302.256 192.006 300.8C192.198 300.448 192.222 300.168 192.078 299.96C191.95 299.736 191.686 299.624 191.286 299.624H190.038C189.782 299.624 189.574 299.552 189.414 299.408C189.27 299.248 189.198 299.04 189.198 298.784V298.112C189.198 297.856 189.27 297.656 189.414 297.512C189.574 297.352 189.782 297.272 190.038 297.272H192.198C192.454 297.272 192.654 297.2 192.798 297.056C192.958 296.896 193.038 296.688 193.038 296.432V294.8C193.038 294.544 193.11 294.344 193.254 294.2C193.414 294.04 193.622 293.96 193.878 293.96H194.838C195.094 293.96 195.294 294.04 195.438 294.2C195.598 294.344 195.678 294.544 195.678 294.8V296.432C195.678 296.688 195.75 296.896 195.894 297.056C196.054 297.2 196.262 297.272 196.518 297.272H198.15C198.406 297.272 198.606 297.352 198.75 297.512C198.91 297.656 198.99 297.856 198.99 298.112V298.784C198.99 299.04 198.91 299.248 198.75 299.408C198.606 299.552 198.406 299.624 198.15 299.624H196.11C195.822 299.624 195.678 299.768 195.678 300.056C195.678 300.36 195.798 300.576 196.038 300.704C196.166 300.784 196.302 300.872 196.446 300.968C196.606 301.064 196.774 301.176 196.95 301.304L198.39 302.336C198.582 302.48 198.75 302.6 198.894 302.696C199.038 302.808 199.118 302.952 199.134 303.128C199.166 303.288 199.134 303.448 199.038 303.608L198.534 304.376C198.358 304.648 198.142 304.8 197.886 304.832C197.646 304.848 197.414 304.744 197.19 304.52L196.83 304.16C196.494 303.84 196.214 303.728 195.99 303.824C195.782 303.92 195.678 304.2 195.678 304.664V307.136C195.678 307.392 195.598 307.6 195.438 307.76C195.294 307.904 195.094 307.976 194.838 307.976H193.878C193.622 307.976 193.414 307.904 193.254 307.76C193.11 307.6 193.038 307.392 193.038 307.136ZM190.638 314.168L189.63 313.664C189.374 313.536 189.214 313.368 189.15 313.16C189.102 312.936 189.142 312.696 189.27 312.44C189.542 311.976 189.774 311.488 189.966 310.976C190.174 310.464 190.366 309.928 190.542 309.368C190.622 309.096 190.766 308.904 190.974 308.792C191.182 308.68 191.422 308.68 191.694 308.792L192.606 309.128C192.814 309.208 192.966 309.344 193.062 309.536C193.158 309.712 193.166 309.912 193.086 310.136C192.894 310.776 192.678 311.424 192.438 312.08C192.31 312.4 192.182 312.704 192.054 312.992C191.942 313.28 191.822 313.552 191.694 313.808C191.598 314.032 191.446 314.168 191.238 314.216C191.046 314.28 190.846 314.264 190.638 314.168ZM198.39 312.872H202.134C202.71 312.872 203.078 312.704 203.238 312.368C203.366 312.112 203.454 311.6 203.502 310.832C203.55 310.448 203.75 310.352 204.102 310.544C204.182 310.592 204.27 310.64 204.366 310.688C204.478 310.72 204.598 310.752 204.726 310.784C204.95 310.88 205.166 310.952 205.374 311C205.822 311.128 206.022 311.416 205.974 311.864C205.798 313.128 205.494 314 205.062 314.48C204.566 315.056 203.662 315.344 202.35 315.344H198.15C196.566 315.344 195.502 315.112 194.958 314.648C194.43 314.184 194.166 313.344 194.166 312.128V309.752C194.166 309.496 194.238 309.296 194.382 309.152C194.542 308.992 194.75 308.912 195.006 308.912H196.062C196.318 308.912 196.518 308.992 196.662 309.152C196.822 309.296 196.902 309.496 196.902 309.752V312.08C196.902 312.432 196.998 312.648 197.19 312.728C197.366 312.824 197.766 312.872 198.39 312.872ZM206.07 308.936L207.222 308.408C207.398 308.328 207.574 308.312 207.75 308.36C207.926 308.392 208.07 308.496 208.182 308.672C208.246 308.768 208.31 308.864 208.374 308.96C208.438 309.04 208.502 309.128 208.566 309.224C208.918 309.736 209.238 310.232 209.526 310.712C209.814 311.176 210.078 311.616 210.318 312.032C210.446 312.256 210.478 312.472 210.414 312.68C210.35 312.888 210.206 313.048 209.982 313.16L208.926 313.736C208.702 313.848 208.486 313.872 208.278 313.808C208.07 313.728 207.902 313.576 207.774 313.352C207.55 312.936 207.302 312.496 207.03 312.032C206.758 311.552 206.462 311.056 206.142 310.544L205.782 309.896C205.654 309.704 205.614 309.52 205.662 309.344C205.726 309.168 205.862 309.032 206.07 308.936Z" fill="#262626"/>
<path d="M134.4 22.4004C125.489 22.4004 116.942 25.9404 110.641 32.2416C104.34 38.5428 100.8 47.0891 100.8 56.0004C100.8 64.9117 104.34 73.458 110.641 79.7592C116.942 86.0604 125.489 89.6004 134.4 89.6004C143.311 89.6004 151.857 86.0604 158.159 79.7592C164.46 73.458 168 64.9117 168 56.0004C168 47.0891 164.46 38.5428 158.159 32.2416C151.857 25.9404 143.311 22.4004 134.4 22.4004ZM134.4 37.3337C136.851 37.3337 139.278 37.8165 141.543 38.7546C143.808 39.6927 145.866 41.0677 147.599 42.8011C149.333 44.5344 150.707 46.5922 151.646 48.857C152.584 51.1217 153.066 53.549 153.066 56.0004C153.066 58.4517 152.584 60.8791 151.646 63.1438C150.707 65.4086 149.333 67.4664 147.599 69.1997C145.866 70.9331 143.808 72.308 141.543 73.2461C139.278 74.1842 136.851 74.6671 134.4 74.6671C129.449 74.6671 124.701 72.7004 121.2 69.1997C117.7 65.699 115.733 60.9511 115.733 56.0004C115.733 51.0497 117.7 46.3017 121.2 42.8011C124.701 39.3004 129.449 37.3337 134.4 37.3337ZM179.2 134.4C170.289 134.4 161.742 137.94 155.441 144.242C149.14 150.543 145.6 159.089 145.6 168C145.6 176.912 149.14 185.458 155.441 191.759C161.742 198.06 170.289 201.6 179.2 201.6C188.111 201.6 196.657 198.06 202.959 191.759C209.26 185.458 212.8 176.912 212.8 168C212.8 159.089 209.26 150.543 202.959 144.242C196.657 137.94 188.111 134.4 179.2 134.4ZM179.2 149.334C184.151 149.334 188.898 151.3 192.399 154.801C195.9 158.302 197.866 163.05 197.866 168C197.866 172.951 195.9 177.699 192.399 181.2C188.898 184.7 184.151 186.667 179.2 186.667C174.249 186.667 169.501 184.7 166 181.2C162.5 177.699 160.533 172.951 160.533 168C160.533 163.05 162.5 158.302 166 154.801C169.501 151.3 174.249 149.334 179.2 149.334Z" fill="#262626"/>
<path d="M110.667 69.179C112.08 67.8694 113.945 67.1569 115.872 67.1906C117.799 67.2243 119.638 68.0014 121.005 69.3596C122.371 70.7178 123.16 72.5518 123.206 74.4781C123.252 76.4045 122.552 78.274 121.251 79.6958L120.799 80.155L72.2659 124.955C70.8525 126.265 68.9875 126.977 67.0609 126.943C65.1342 126.91 63.2952 126.133 61.9284 124.774C60.5615 123.416 59.7727 121.582 59.7267 119.656C59.6808 117.729 60.3814 115.86 61.6819 114.438L62.1337 113.979L110.667 69.179ZM71.1571 147.523C71.614 145.696 72.7447 144.108 74.3226 143.08C75.9005 142.051 77.809 141.656 79.6654 141.975L80.2105 142.087L154.877 160.754C156.759 161.215 158.388 162.391 159.42 164.031C160.451 165.671 160.805 167.649 160.405 169.545C160.006 171.441 158.885 173.108 157.279 174.192C155.674 175.277 153.709 175.696 151.801 175.359L151.256 175.247L76.5891 156.58C75.6377 156.342 74.7424 155.919 73.9545 155.335C73.1666 154.751 72.5014 154.018 71.997 153.177C71.4925 152.336 71.1587 151.404 71.0146 150.433C70.8705 149.463 70.919 148.474 71.1571 147.523Z" fill="#262626"/>
<path d="M52.267 108.268C43.3557 108.268 34.8094 111.808 28.5082 118.109C22.207 124.41 18.667 132.956 18.667 141.868C18.667 150.779 22.207 159.325 28.5082 165.626C34.8094 171.928 43.3557 175.468 52.267 175.468C61.1783 175.468 69.7246 171.928 76.0258 165.626C82.327 159.325 85.867 150.779 85.867 141.868C85.867 132.956 82.327 124.41 76.0258 118.109C69.7246 111.808 61.1783 108.268 52.267 108.268ZM52.267 123.201C57.2177 123.201 61.9656 125.168 65.4663 128.668C68.967 132.169 70.9337 136.917 70.9337 141.868C70.9337 146.818 68.967 151.566 65.4663 155.067C61.9656 158.568 57.2177 160.534 52.267 160.534C47.3163 160.534 42.5683 158.568 39.0677 155.067C35.567 151.566 33.6003 146.818 33.6003 141.868C33.6003 136.917 35.567 132.169 39.0677 128.668C42.5683 125.168 47.3163 123.201 52.267 123.201Z" fill="#2EA398"/>
</svg>
