<svg width="27" height="31" viewBox="0 0 27 31" fill="none" xmlns="http://www.w3.org/2000/svg">
<path d="M10.352 11.352C10.208 10.904 10.076 10.504 9.956 10.152C9.844 9.8 9.748 9.488 9.668 9.216C9.564 8.912 9.48 8.652 9.416 8.436C9.352 8.212 9.304 8.036 9.272 7.908L9.212 7.704C9.196 7.64 9.176 7.608 9.152 7.608C9.136 7.608 9.12 7.64 9.104 7.704L8.972 8.172C8.908 8.396 8.828 8.656 8.732 8.952C8.644 9.24 8.54 9.576 8.42 9.96C8.332 10.24 8.248 10.496 8.168 10.728C8.096 10.952 8.032 11.152 7.976 11.328C7.92 11.48 7.924 11.6 7.988 11.688C8.052 11.776 8.164 11.82 8.324 11.82H10.004C10.156 11.82 10.264 11.776 10.328 11.688C10.392 11.6 10.4 11.488 10.352 11.352ZM12.452 15.06H11.816C11.736 15.06 11.664 15.04 11.6 15C11.536 14.952 11.492 14.888 11.468 14.808L10.952 13.188C10.928 13.108 10.884 13.048 10.82 13.008C10.756 12.96 10.684 12.936 10.604 12.936H7.7C7.62 12.936 7.548 12.96 7.484 13.008C7.42 13.048 7.376 13.108 7.352 13.188L6.824 14.808C6.8 14.888 6.756 14.952 6.692 15C6.628 15.04 6.556 15.06 6.476 15.06H5.852C5.7 15.06 5.592 15.016 5.528 14.928C5.472 14.84 5.468 14.724 5.516 14.58L8.252 6.696C8.276 6.624 8.32 6.568 8.384 6.528C8.448 6.48 8.516 6.456 8.588 6.456H9.776C9.848 6.456 9.916 6.48 9.98 6.528C10.044 6.568 10.088 6.624 10.112 6.696L12.8 14.58C12.848 14.724 12.84 14.84 12.776 14.928C12.712 15.016 12.604 15.06 12.452 15.06Z" fill="white"/>
<mask id="path-2-inside-1_1205_32933" fill="white">
<path fill-rule="evenodd" clip-rule="evenodd" d="M9 19V28C9 29.6569 10.3431 31 12 31H24C25.6569 31 27 29.6569 27 28V16C27 14.3431 25.6569 13 24 13H18V16C18 16.3701 17.933 16.7246 17.8104 17.052H18.216C18.328 17.052 18.416 17.084 18.48 17.148C18.544 17.212 18.576 17.3 18.576 17.412V18.72C18.576 18.832 18.608 18.92 18.672 18.984C18.736 19.048 18.824 19.08 18.936 19.08H22.392C22.504 19.08 22.592 19.112 22.656 19.176C22.72 19.24 22.752 19.328 22.752 19.44V24.384C22.752 24.496 22.72 24.584 22.656 24.648C22.592 24.712 22.504 24.744 22.392 24.744H21.864C21.768 24.744 21.688 24.716 21.624 24.66C21.568 24.596 21.54 24.516 21.54 24.42C21.54 24.332 21.508 24.26 21.444 24.204C21.388 24.14 21.316 24.108 21.228 24.108H18.936C18.824 24.108 18.736 24.14 18.672 24.204C18.608 24.268 18.576 24.356 18.576 24.468V27.468C18.576 27.58 18.544 27.668 18.48 27.732C18.416 27.796 18.328 27.828 18.216 27.828H17.724C17.612 27.828 17.524 27.796 17.46 27.732C17.396 27.668 17.364 27.58 17.364 27.468V24.468C17.364 24.356 17.332 24.268 17.268 24.204C17.204 24.14 17.116 24.108 17.004 24.108H14.76C14.656 24.108 14.572 24.14 14.508 24.204C14.444 24.268 14.412 24.352 14.412 24.456C14.412 24.56 14.38 24.644 14.316 24.708C14.252 24.772 14.168 24.804 14.064 24.804H13.608C13.496 24.804 13.408 24.772 13.344 24.708C13.28 24.644 13.248 24.556 13.248 24.444V19.44C13.248 19.328 13.28 19.24 13.344 19.176C13.408 19.112 13.496 19.08 13.608 19.08H17.004C17.116 19.08 17.204 19.048 17.268 18.984C17.332 18.92 17.364 18.832 17.364 18.72V17.8472C16.8149 18.549 15.9601 19 15 19H9ZM17.364 22.62V20.58C17.364 20.468 17.332 20.38 17.268 20.316C17.204 20.252 17.116 20.22 17.004 20.22H14.772C14.66 20.22 14.572 20.252 14.508 20.316C14.444 20.38 14.412 20.468 14.412 20.58V22.62C14.412 22.732 14.444 22.82 14.508 22.884C14.572 22.948 14.66 22.98 14.772 22.98H17.004C17.116 22.98 17.204 22.948 17.268 22.884C17.332 22.82 17.364 22.732 17.364 22.62ZM21.54 22.62V20.58C21.54 20.468 21.508 20.38 21.444 20.316C21.38 20.252 21.292 20.22 21.18 20.22H18.936C18.824 20.22 18.736 20.252 18.672 20.316C18.608 20.38 18.576 20.468 18.576 20.58V22.62C18.576 22.732 18.608 22.82 18.672 22.884C18.736 22.948 18.824 22.98 18.936 22.98H21.18C21.292 22.98 21.38 22.948 21.444 22.884C21.508 22.82 21.54 22.732 21.54 22.62Z"/>
</mask>
<path fill-rule="evenodd" clip-rule="evenodd" d="M9 19V28C9 29.6569 10.3431 31 12 31H24C25.6569 31 27 29.6569 27 28V16C27 14.3431 25.6569 13 24 13H18V16C18 16.3701 17.933 16.7246 17.8104 17.052H18.216C18.328 17.052 18.416 17.084 18.48 17.148C18.544 17.212 18.576 17.3 18.576 17.412V18.72C18.576 18.832 18.608 18.92 18.672 18.984C18.736 19.048 18.824 19.08 18.936 19.08H22.392C22.504 19.08 22.592 19.112 22.656 19.176C22.72 19.24 22.752 19.328 22.752 19.44V24.384C22.752 24.496 22.72 24.584 22.656 24.648C22.592 24.712 22.504 24.744 22.392 24.744H21.864C21.768 24.744 21.688 24.716 21.624 24.66C21.568 24.596 21.54 24.516 21.54 24.42C21.54 24.332 21.508 24.26 21.444 24.204C21.388 24.14 21.316 24.108 21.228 24.108H18.936C18.824 24.108 18.736 24.14 18.672 24.204C18.608 24.268 18.576 24.356 18.576 24.468V27.468C18.576 27.58 18.544 27.668 18.48 27.732C18.416 27.796 18.328 27.828 18.216 27.828H17.724C17.612 27.828 17.524 27.796 17.46 27.732C17.396 27.668 17.364 27.58 17.364 27.468V24.468C17.364 24.356 17.332 24.268 17.268 24.204C17.204 24.14 17.116 24.108 17.004 24.108H14.76C14.656 24.108 14.572 24.14 14.508 24.204C14.444 24.268 14.412 24.352 14.412 24.456C14.412 24.56 14.38 24.644 14.316 24.708C14.252 24.772 14.168 24.804 14.064 24.804H13.608C13.496 24.804 13.408 24.772 13.344 24.708C13.28 24.644 13.248 24.556 13.248 24.444V19.44C13.248 19.328 13.28 19.24 13.344 19.176C13.408 19.112 13.496 19.08 13.608 19.08H17.004C17.116 19.08 17.204 19.048 17.268 18.984C17.332 18.92 17.364 18.832 17.364 18.72V17.8472C16.8149 18.549 15.9601 19 15 19H9ZM17.364 22.62V20.58C17.364 20.468 17.332 20.38 17.268 20.316C17.204 20.252 17.116 20.22 17.004 20.22H14.772C14.66 20.22 14.572 20.252 14.508 20.316C14.444 20.38 14.412 20.468 14.412 20.58V22.62C14.412 22.732 14.444 22.82 14.508 22.884C14.572 22.948 14.66 22.98 14.772 22.98H17.004C17.116 22.98 17.204 22.948 17.268 22.884C17.332 22.82 17.364 22.732 17.364 22.62ZM21.54 22.62V20.58C21.54 20.468 21.508 20.38 21.444 20.316C21.38 20.252 21.292 20.22 21.18 20.22H18.936C18.824 20.22 18.736 20.252 18.672 20.316C18.608 20.38 18.576 20.468 18.576 20.58V22.62C18.576 22.732 18.608 22.82 18.672 22.884C18.736 22.948 18.824 22.98 18.936 22.98H21.18C21.292 22.98 21.38 22.948 21.444 22.884C21.508 22.82 21.54 22.732 21.54 22.62Z" fill="white"/>
<path d="M9 19V17.5H7.5V19H9ZM18 13V11.5H16.5V13H18ZM17.8104 17.052L16.4056 16.5259L15.6469 18.552H17.8104V17.052ZM18.672 18.984L19.7327 17.9233L19.7327 17.9233L18.672 18.984ZM22.656 19.176L23.7167 18.1153L23.7167 18.1153L22.656 19.176ZM22.656 24.648L23.7167 25.7087L23.7167 25.7087L22.656 24.648ZM21.624 24.66L20.4951 25.6478L20.561 25.723L20.6362 25.7889L21.624 24.66ZM21.444 24.204L20.3151 25.1918L20.381 25.267L20.4562 25.3329L21.444 24.204ZM18.672 24.204L19.7327 25.2647L19.7327 25.2647L18.672 24.204ZM17.268 24.204L16.2073 25.2647L16.2073 25.2647L17.268 24.204ZM14.508 24.204L13.4473 23.1433L13.4473 23.1433L14.508 24.204ZM14.316 24.708L15.3767 25.7687L15.3767 25.7687L14.316 24.708ZM13.344 24.708L12.2833 25.7687L12.2833 25.7687L13.344 24.708ZM13.344 19.176L12.2833 18.1153L12.2833 18.1153L13.344 19.176ZM17.268 18.984L16.2073 17.9233L16.2073 17.9233L17.268 18.984ZM17.364 17.8472H18.864V13.4963L16.1827 16.9229L17.364 17.8472ZM17.268 20.316L16.2073 21.3767L16.2073 21.3767L17.268 20.316ZM14.508 20.316L13.4473 19.2553L13.4473 19.2553L14.508 20.316ZM14.508 22.884L13.4473 23.9447L13.4473 23.9447L14.508 22.884ZM17.268 22.884L16.2073 21.8233L16.2073 21.8233L17.268 22.884ZM21.444 20.316L20.3833 21.3767L20.3833 21.3767L21.444 20.316ZM18.672 20.316L19.7327 21.3767L19.7327 21.3767L18.672 20.316ZM18.672 22.884L19.7327 21.8233L19.7327 21.8233L18.672 22.884ZM21.444 22.884L20.3833 21.8233L20.3833 21.8233L21.444 22.884ZM7.5 19V28H10.5V19H7.5ZM7.5 28C7.5 30.4853 9.51472 32.5 12 32.5V29.5C11.1716 29.5 10.5 28.8284 10.5 28H7.5ZM12 32.5H24V29.5H12V32.5ZM24 32.5C26.4853 32.5 28.5 30.4853 28.5 28H25.5C25.5 28.8284 24.8284 29.5 24 29.5V32.5ZM28.5 28V16H25.5V28H28.5ZM28.5 16C28.5 13.5147 26.4853 11.5 24 11.5V14.5C24.8284 14.5 25.5 15.1716 25.5 16H28.5ZM24 11.5H18V14.5H24V11.5ZM16.5 13V16H19.5V13H16.5ZM16.5 16C16.5 16.1878 16.4662 16.3643 16.4056 16.5259L19.2151 17.5781C19.3997 17.085 19.5 16.5525 19.5 16H16.5ZM18.216 15.552H17.8104V18.552H18.216V15.552ZM19.5407 16.0873C19.1317 15.6784 18.6257 15.552 18.216 15.552V18.552C18.0303 18.552 17.7003 18.4896 17.4193 18.2087L19.5407 16.0873ZM20.076 17.412C20.076 17.0023 19.9496 16.4963 19.5407 16.0873L17.4193 18.2087C17.1384 17.9277 17.076 17.5977 17.076 17.412H20.076ZM20.076 18.72V17.412H17.076V18.72H20.076ZM19.7327 17.9233C20.0136 18.2043 20.076 18.5343 20.076 18.72H17.076C17.076 19.1297 17.2024 19.6357 17.6113 20.0447L19.7327 17.9233ZM18.936 17.58C19.1217 17.58 19.4517 17.6424 19.7327 17.9233L17.6113 20.0447C18.0203 20.4536 18.5263 20.58 18.936 20.58V17.58ZM22.392 17.58H18.936V20.58H22.392V17.58ZM23.7167 18.1153C23.3077 17.7064 22.8017 17.58 22.392 17.58V20.58C22.2063 20.58 21.8763 20.5176 21.5953 20.2367L23.7167 18.1153ZM24.252 19.44C24.252 19.0303 24.1256 18.5243 23.7167 18.1153L21.5953 20.2367C21.3144 19.9557 21.252 19.6257 21.252 19.44H24.252ZM24.252 24.384V19.44H21.252V24.384H24.252ZM23.7167 25.7087C24.1256 25.2997 24.252 24.7937 24.252 24.384H21.252C21.252 24.1983 21.3144 23.8683 21.5953 23.5873L23.7167 25.7087ZM22.392 26.244C22.8017 26.244 23.3077 26.1176 23.7167 25.7087L21.5953 23.5873C21.8763 23.3064 22.2063 23.244 22.392 23.244V26.244ZM21.864 26.244H22.392V23.244H21.864V26.244ZM20.6362 25.7889C21.0091 26.1151 21.4547 26.244 21.864 26.244V23.244C21.9626 23.244 22.0887 23.2586 22.2275 23.3072C22.369 23.3567 22.5 23.4334 22.6118 23.5311L20.6362 25.7889ZM20.04 24.42C20.04 24.8293 20.1689 25.2749 20.4951 25.6478L22.7529 23.6722C22.8506 23.784 22.9273 23.915 22.9768 24.0565C23.0254 24.1953 23.04 24.3214 23.04 24.42H20.04ZM20.4562 25.3329C20.3376 25.229 20.2246 25.0876 20.1453 24.9092C20.0666 24.7321 20.04 24.5613 20.04 24.42H23.04C23.04 23.9166 22.834 23.4271 22.4318 23.0751L20.4562 25.3329ZM21.228 25.608C21.0867 25.608 20.9159 25.5814 20.7388 25.5027C20.5604 25.4234 20.419 25.3104 20.3151 25.1918L22.5729 23.2162C22.2209 22.814 21.7314 22.608 21.228 22.608V25.608ZM18.936 25.608H21.228V22.608H18.936V25.608ZM19.7327 25.2647C19.4517 25.5456 19.1217 25.608 18.936 25.608V22.608C18.5263 22.608 18.0203 22.7344 17.6113 23.1433L19.7327 25.2647ZM20.076 24.468C20.076 24.6537 20.0136 24.9837 19.7327 25.2647L17.6113 23.1433C17.2024 23.5523 17.076 24.0583 17.076 24.468H20.076ZM20.076 27.468V24.468H17.076V27.468H20.076ZM19.5407 28.7927C19.9496 28.3837 20.076 27.8777 20.076 27.468H17.076C17.076 27.2823 17.1384 26.9523 17.4193 26.6713L19.5407 28.7927ZM18.216 29.328C18.6257 29.328 19.1317 29.2016 19.5407 28.7927L17.4193 26.6713C17.7003 26.3904 18.0303 26.328 18.216 26.328V29.328ZM17.724 29.328H18.216V26.328H17.724V29.328ZM16.3993 28.7927C16.8083 29.2016 17.3143 29.328 17.724 29.328V26.328C17.9097 26.328 18.2397 26.3904 18.5207 26.6713L16.3993 28.7927ZM15.864 27.468C15.864 27.8777 15.9904 28.3837 16.3993 28.7927L18.5207 26.6713C18.8016 26.9523 18.864 27.2823 18.864 27.468H15.864ZM15.864 24.468V27.468H18.864V24.468H15.864ZM16.2073 25.2647C15.9264 24.9837 15.864 24.6537 15.864 24.468H18.864C18.864 24.0583 18.7376 23.5523 18.3287 23.1433L16.2073 25.2647ZM17.004 25.608C16.8183 25.608 16.4883 25.5456 16.2073 25.2647L18.3287 23.1433C17.9197 22.7344 17.4137 22.608 17.004 22.608V25.608ZM14.76 25.608H17.004V22.608H14.76V25.608ZM15.5687 25.2647C15.4522 25.3811 15.31 25.4739 15.153 25.5337C14.9999 25.592 14.8623 25.608 14.76 25.608V22.608C14.3225 22.608 13.8351 22.7556 13.4473 23.1433L15.5687 25.2647ZM15.912 24.456C15.912 24.5583 15.896 24.6959 15.8377 24.849C15.7779 25.006 15.6851 25.1482 15.5687 25.2647L13.4473 23.1433C13.0596 23.5311 12.912 24.0185 12.912 24.456H15.912ZM15.3767 25.7687C15.7644 25.3809 15.912 24.8935 15.912 24.456H12.912C12.912 24.3537 12.928 24.2161 12.9863 24.063C13.0461 23.906 13.1389 23.7638 13.2553 23.6473L15.3767 25.7687ZM14.064 26.304C14.5015 26.304 14.9889 26.1564 15.3767 25.7687L13.2553 23.6473C13.3718 23.5309 13.514 23.4381 13.671 23.3783C13.8241 23.32 13.9617 23.304 14.064 23.304V26.304ZM13.608 26.304H14.064V23.304H13.608V26.304ZM12.2833 25.7687C12.6923 26.1776 13.1983 26.304 13.608 26.304V23.304C13.7937 23.304 14.1237 23.3664 14.4047 23.6473L12.2833 25.7687ZM11.748 24.444C11.748 24.8537 11.8744 25.3597 12.2833 25.7687L14.4047 23.6473C14.6856 23.9283 14.748 24.2583 14.748 24.444H11.748ZM11.748 19.44V24.444H14.748V19.44H11.748ZM12.2833 18.1153C11.8744 18.5243 11.748 19.0303 11.748 19.44H14.748C14.748 19.6257 14.6856 19.9557 14.4047 20.2367L12.2833 18.1153ZM13.608 17.58C13.1983 17.58 12.6923 17.7064 12.2833 18.1153L14.4047 20.2367C14.1237 20.5176 13.7937 20.58 13.608 20.58V17.58ZM17.004 17.58H13.608V20.58H17.004V17.58ZM16.2073 17.9233C16.4883 17.6424 16.8183 17.58 17.004 17.58V20.58C17.4137 20.58 17.9197 20.4536 18.3287 20.0447L16.2073 17.9233ZM15.864 18.72C15.864 18.5343 15.9264 18.2043 16.2073 17.9233L18.3287 20.0447C18.7376 19.6357 18.864 19.1297 18.864 18.72H15.864ZM15.864 17.8472V18.72H18.864V17.8472H15.864ZM16.1827 16.9229C15.9056 17.2769 15.4793 17.5 15 17.5V20.5C16.441 20.5 17.7241 19.821 18.5453 18.7716L16.1827 16.9229ZM15 17.5H9V20.5H15V17.5ZM15.864 20.58V22.62H18.864V20.58H15.864ZM16.2073 21.3767C15.9264 21.0957 15.864 20.7657 15.864 20.58H18.864C18.864 20.1703 18.7376 19.6643 18.3287 19.2553L16.2073 21.3767ZM17.004 21.72C16.8183 21.72 16.4883 21.6576 16.2073 21.3767L18.3287 19.2553C17.9197 18.8464 17.4137 18.72 17.004 18.72V21.72ZM14.772 21.72H17.004V18.72H14.772V21.72ZM15.5687 21.3767C15.2877 21.6576 14.9577 21.72 14.772 21.72V18.72C14.3623 18.72 13.8563 18.8464 13.4473 19.2553L15.5687 21.3767ZM15.912 20.58C15.912 20.7657 15.8496 21.0957 15.5687 21.3767L13.4473 19.2553C13.0384 19.6643 12.912 20.1703 12.912 20.58H15.912ZM15.912 22.62V20.58H12.912V22.62H15.912ZM15.5687 21.8233C15.8496 22.1043 15.912 22.4343 15.912 22.62H12.912C12.912 23.0297 13.0384 23.5357 13.4473 23.9447L15.5687 21.8233ZM14.772 21.48C14.9577 21.48 15.2877 21.5424 15.5687 21.8233L13.4473 23.9447C13.8563 24.3536 14.3623 24.48 14.772 24.48V21.48ZM17.004 21.48H14.772V24.48H17.004V21.48ZM16.2073 21.8233C16.4883 21.5424 16.8183 21.48 17.004 21.48V24.48C17.4137 24.48 17.9197 24.3536 18.3287 23.9447L16.2073 21.8233ZM15.864 22.62C15.864 22.4343 15.9264 22.1043 16.2073 21.8233L18.3287 23.9447C18.7376 23.5357 18.864 23.0297 18.864 22.62H15.864ZM20.04 20.58V22.62H23.04V20.58H20.04ZM20.3833 21.3767C20.1024 21.0957 20.04 20.7657 20.04 20.58H23.04C23.04 20.1703 22.9136 19.6643 22.5047 19.2553L20.3833 21.3767ZM21.18 21.72C20.9943 21.72 20.6643 21.6576 20.3833 21.3767L22.5047 19.2553C22.0957 18.8464 21.5897 18.72 21.18 18.72V21.72ZM18.936 21.72H21.18V18.72H18.936V21.72ZM19.7327 21.3767C19.4517 21.6576 19.1217 21.72 18.936 21.72V18.72C18.5263 18.72 18.0203 18.8464 17.6113 19.2553L19.7327 21.3767ZM20.076 20.58C20.076 20.7657 20.0136 21.0957 19.7327 21.3767L17.6113 19.2553C17.2024 19.6643 17.076 20.1703 17.076 20.58H20.076ZM20.076 22.62V20.58H17.076V22.62H20.076ZM19.7327 21.8233C20.0136 22.1043 20.076 22.4343 20.076 22.62H17.076C17.076 23.0297 17.2024 23.5357 17.6113 23.9447L19.7327 21.8233ZM18.936 21.48C19.1217 21.48 19.4517 21.5424 19.7327 21.8233L17.6113 23.9447C18.0203 24.3536 18.5263 24.48 18.936 24.48V21.48ZM21.18 21.48H18.936V24.48H21.18V21.48ZM20.3833 21.8233C20.6643 21.5424 20.9943 21.48 21.18 21.48V24.48C21.5897 24.48 22.0957 24.3536 22.5047 23.9447L20.3833 21.8233ZM20.04 22.62C20.04 22.4343 20.1024 22.1043 20.3833 21.8233L22.5047 23.9447C22.9136 23.5357 23.04 23.0297 23.04 22.62H20.04Z" fill="white" mask="url(#path-2-inside-1_1205_32933)"/>
<rect x="0.75" y="1.75" width="16.5" height="16.5" rx="2.25" stroke="white" stroke-width="1.5"/>
</svg>
