<svg width="144" height="32" viewBox="0 0 144 32" fill="none" xmlns="http://www.w3.org/2000/svg">
<path d="M2.016 25.696L1.416 24.88C1.208 24.56 1.232 24.256 1.488 23.968C2.4 23.056 3.24 22.384 4.008 21.952C4.28 21.792 4.416 21.568 4.416 21.28V16.336C4.416 16.112 4.352 15.936 4.224 15.808C4.096 15.68 3.92 15.616 3.696 15.616H2.16C1.936 15.616 1.76 15.552 1.632 15.424C1.504 15.296 1.44 15.12 1.44 14.896V14.2C1.44 13.976 1.504 13.8 1.632 13.672C1.76 13.544 1.936 13.48 2.16 13.48H5.976C6.2 13.48 6.376 13.544 6.504 13.672C6.632 13.8 6.696 13.976 6.696 14.2V21.616C6.696 21.84 6.784 22 6.96 22.096L7.2 22.288L8.208 22.936C8.976 23.384 9.864 23.664 10.872 23.776C11.912 23.92 13.072 23.992 14.352 23.992C15.68 23.992 16.952 23.96 18.168 23.896C19.384 23.832 20.56 23.736 21.696 23.608C22.064 23.576 22.32 23.648 22.464 23.824C22.608 24 22.624 24.272 22.512 24.64C22.48 24.752 22.448 24.864 22.416 24.976C22.4 25.088 22.376 25.192 22.344 25.288C22.264 25.688 22.032 25.904 21.648 25.936C19.328 26.08 16.864 26.152 14.256 26.152C12.816 26.152 11.576 26.056 10.536 25.864C9.112 25.64 7.856 25.096 6.768 24.232C6.128 23.784 5.696 23.56 5.472 23.56C5.008 23.56 4.256 24.272 3.216 25.696C3.04 25.952 2.84 26.08 2.616 26.08C2.392 26.08 2.192 25.952 2.016 25.696ZM5.136 10.192C4.8 9.76 4.416 9.312 3.984 8.848C3.568 8.384 3.104 7.904 2.592 7.408C2.416 7.232 2.328 7.048 2.328 6.856C2.328 6.648 2.432 6.464 2.64 6.304L3.168 5.872C3.312 5.76 3.472 5.712 3.648 5.728C3.824 5.728 3.976 5.792 4.104 5.92C4.664 6.432 5.184 6.928 5.664 7.408C6.144 7.888 6.568 8.36 6.936 8.824C7.064 8.984 7.12 9.152 7.104 9.328C7.088 9.504 7 9.664 6.84 9.808L6.216 10.336C5.832 10.64 5.472 10.592 5.136 10.192ZM9.528 22.528C9.448 22.448 9.368 22.368 9.288 22.288C9.208 22.208 9.128 22.128 9.048 22.048C8.584 21.664 8.568 21.256 9 20.824C9.864 19.96 10.448 19.048 10.752 18.088C10.832 17.848 10.808 17.656 10.68 17.512C10.568 17.352 10.376 17.272 10.104 17.272H8.76C8.536 17.272 8.36 17.208 8.232 17.08C8.104 16.952 8.04 16.776 8.04 16.552V15.76C8.04 15.536 8.104 15.36 8.232 15.232C8.36 15.104 8.536 15.04 8.76 15.04H10.608C10.816 15.04 10.984 14.984 11.112 14.872C11.24 14.744 11.304 14.576 11.304 14.368C11.32 14.096 11.328 13.776 11.328 13.408C11.328 13.04 11.328 12.616 11.328 12.136C11.328 11.912 11.264 11.736 11.136 11.608C11.008 11.48 10.832 11.416 10.608 11.416H8.928C8.704 11.416 8.528 11.352 8.4 11.224C8.272 11.096 8.208 10.92 8.208 10.696V9.904C8.208 9.68 8.272 9.504 8.4 9.376C8.528 9.248 8.704 9.184 8.928 9.184H10.608C10.832 9.184 11.008 9.12 11.136 8.992C11.264 8.864 11.328 8.688 11.328 8.464V6.352C11.328 6.128 11.392 5.952 11.52 5.824C11.648 5.696 11.824 5.632 12.048 5.632H12.888C13.112 5.632 13.288 5.696 13.416 5.824C13.544 5.952 13.608 6.128 13.608 6.352V8.464C13.608 8.688 13.672 8.864 13.8 8.992C13.928 9.12 14.104 9.184 14.328 9.184H16.08C16.304 9.184 16.48 9.12 16.608 8.992C16.736 8.864 16.8 8.688 16.8 8.464V6.352C16.8 6.128 16.864 5.952 16.992 5.824C17.12 5.696 17.296 5.632 17.52 5.632H18.36C18.584 5.632 18.76 5.696 18.888 5.824C19.016 5.952 19.08 6.128 19.08 6.352V8.464C19.08 8.688 19.144 8.864 19.272 8.992C19.4 9.12 19.576 9.184 19.8 9.184H21.216C21.44 9.184 21.616 9.248 21.744 9.376C21.872 9.504 21.936 9.68 21.936 9.904V10.696C21.936 10.92 21.872 11.096 21.744 11.224C21.616 11.352 21.44 11.416 21.216 11.416H19.8C19.576 11.416 19.4 11.48 19.272 11.608C19.144 11.736 19.08 11.912 19.08 12.136V14.32C19.08 14.544 19.144 14.72 19.272 14.848C19.4 14.976 19.576 15.04 19.8 15.04H21.672C21.896 15.04 22.072 15.104 22.2 15.232C22.328 15.36 22.392 15.536 22.392 15.76V16.552C22.392 16.776 22.328 16.952 22.2 17.08C22.072 17.208 21.896 17.272 21.672 17.272H19.8C19.576 17.272 19.4 17.336 19.272 17.464C19.144 17.592 19.08 17.768 19.08 17.992V22.168C19.08 22.392 19.016 22.568 18.888 22.696C18.76 22.824 18.584 22.888 18.36 22.888H17.52C17.296 22.888 17.12 22.824 16.992 22.696C16.864 22.568 16.8 22.392 16.8 22.168V17.992C16.8 17.768 16.736 17.592 16.608 17.464C16.48 17.336 16.304 17.272 16.08 17.272H13.92C13.52 17.272 13.28 17.472 13.2 17.872C12.8 19.744 11.928 21.328 10.584 22.624C10.408 22.784 10.224 22.856 10.032 22.84C9.856 22.808 9.688 22.704 9.528 22.528ZM16.8 14.32V12.136C16.8 11.912 16.736 11.736 16.608 11.608C16.48 11.48 16.304 11.416 16.08 11.416H14.328C14.104 11.416 13.928 11.48 13.8 11.608C13.672 11.736 13.608 11.912 13.608 12.136V13.576C13.608 13.704 13.608 13.832 13.608 13.96C13.608 14.072 13.6 14.192 13.584 14.32C13.584 14.544 13.648 14.72 13.776 14.848C13.904 14.976 14.08 15.04 14.304 15.04H16.08C16.304 15.04 16.48 14.976 16.608 14.848C16.736 14.72 16.8 14.544 16.8 14.32ZM44.976 26.008C43.28 24.872 41.904 23.528 40.848 21.976C40.24 21.08 39.664 20.176 39.12 19.264C38.592 18.336 38.096 17.384 37.632 16.408L37.056 15.28C36.88 14.944 36.704 14.784 36.528 14.8C36.368 14.8 36.224 14.984 36.096 15.352C34.416 20.136 31.624 23.76 27.72 26.224C27.576 26.32 27.416 26.352 27.24 26.32C27.08 26.288 26.936 26.208 26.808 26.08C26.68 25.952 26.552 25.832 26.424 25.72C26.312 25.624 26.192 25.512 26.064 25.384C25.792 25.16 25.664 24.936 25.68 24.712C25.696 24.472 25.864 24.264 26.184 24.088C28.28 22.84 29.984 21.232 31.296 19.264C32.032 18.16 32.672 16.96 33.216 15.664C33.76 14.352 34.208 12.928 34.56 11.392C34.608 11.2 34.576 11.008 34.464 10.816C33.632 9.68 32.64 8.672 31.488 7.792C31.312 7.664 31.208 7.504 31.176 7.312C31.144 7.12 31.192 6.936 31.32 6.76L31.896 5.968C32.024 5.792 32.176 5.696 32.352 5.68C32.544 5.648 32.728 5.704 32.904 5.848C33.672 6.456 34.36 7.088 34.968 7.744C35.592 8.384 36.144 9.056 36.624 9.76C37.696 11.36 38.624 12.984 39.408 14.632C39.84 15.512 40.296 16.368 40.776 17.2C41.272 18.016 41.8 18.832 42.36 19.648C42.84 20.368 43.408 21.056 44.064 21.712C44.736 22.352 45.488 22.96 46.32 23.536C46.704 23.792 46.784 24.128 46.56 24.544C46.48 24.72 46.4 24.888 46.32 25.048C46.24 25.224 46.168 25.4 46.104 25.576C46.008 25.848 45.856 26.032 45.648 26.128C45.456 26.224 45.232 26.184 44.976 26.008ZM55.776 26.992C55.632 26.512 55.448 26.04 55.224 25.576C55.112 25.352 55.08 25.152 55.128 24.976C55.176 24.784 55.288 24.6 55.464 24.424C55.848 24.04 56.04 23.552 56.04 22.96V20.56C56.04 20.336 55.976 20.16 55.848 20.032C55.72 19.904 55.544 19.84 55.32 19.84H54.456C54.232 19.84 54.056 19.776 53.928 19.648C53.8 19.52 53.736 19.344 53.736 19.12V18.592C53.736 18.368 53.8 18.192 53.928 18.064C54.056 17.936 54.232 17.872 54.456 17.872H56.832C57.056 17.872 57.232 17.808 57.36 17.68C57.488 17.552 57.552 17.376 57.552 17.152V16.648C57.552 16.424 57.488 16.248 57.36 16.12C57.232 15.992 57.056 15.928 56.832 15.928H55.032C54.808 15.928 54.632 15.864 54.504 15.736C54.376 15.608 54.312 15.432 54.312 15.208V14.656C54.312 14.432 54.376 14.256 54.504 14.128C54.632 14 54.808 13.936 55.032 13.936H56.832C57.056 13.936 57.232 13.872 57.36 13.744C57.488 13.616 57.552 13.44 57.552 13.216V12.736C57.552 12.512 57.488 12.336 57.36 12.208C57.232 12.08 57.056 12.016 56.832 12.016H54.528C54.304 12.016 54.128 12.08 54 12.208C53.872 12.336 53.808 12.512 53.808 12.736C53.792 13.6 53.768 14.432 53.736 15.232C53.72 16.016 53.68 16.768 53.616 17.488C53.36 20.896 52.624 23.752 51.408 26.056C51.28 26.28 51.12 26.4 50.928 26.416C50.752 26.448 50.56 26.4 50.352 26.272C50.24 26.208 50.136 26.144 50.04 26.08C49.944 26.032 49.84 25.984 49.728 25.936C49.488 25.808 49.336 25.64 49.272 25.432C49.208 25.24 49.24 25.032 49.368 24.808C49.928 23.752 50.352 22.656 50.64 21.52C50.816 20.784 50.96 20.056 51.072 19.336C51.184 18.6 51.272 17.856 51.336 17.104C51.432 15.632 51.48 14.28 51.48 13.048V6.88C51.48 6.656 51.544 6.48 51.672 6.352C51.8 6.224 51.976 6.16 52.2 6.16H68.472C68.696 6.16 68.872 6.224 69 6.352C69.128 6.48 69.192 6.656 69.192 6.88V11.296C69.192 11.52 69.128 11.696 69 11.824C68.872 11.952 68.696 12.016 68.472 12.016H66.624C66.4 12.016 66.224 12.08 66.096 12.208C65.968 12.336 65.904 12.512 65.904 12.736V13.216C65.904 13.44 65.968 13.616 66.096 13.744C66.224 13.872 66.4 13.936 66.624 13.936H68.856C69.08 13.936 69.256 14 69.384 14.128C69.512 14.256 69.576 14.432 69.576 14.656V15.208C69.576 15.432 69.512 15.608 69.384 15.736C69.256 15.864 69.08 15.928 68.856 15.928H66.624C66.4 15.928 66.224 15.992 66.096 16.12C65.968 16.248 65.904 16.424 65.904 16.648V17.152C65.904 17.376 65.968 17.552 66.096 17.68C66.224 17.808 66.4 17.872 66.624 17.872H69.816C70.04 17.872 70.216 17.936 70.344 18.064C70.472 18.192 70.536 18.368 70.536 18.592V19.12C70.536 19.344 70.472 19.52 70.344 19.648C70.216 19.776 70.04 19.84 69.816 19.84H68.952C68.68 19.84 68.528 19.888 68.496 19.984C68.48 20.064 68.584 20.184 68.808 20.344C69.032 20.504 69.144 20.68 69.144 20.872C69.144 21.048 69.032 21.216 68.808 21.376C68.536 21.552 68.272 21.728 68.016 21.904C67.76 22.064 67.496 22.216 67.224 22.36C66.904 22.536 66.736 22.736 66.72 22.96C66.72 23.184 66.88 23.384 67.2 23.56C67.568 23.752 67.96 23.928 68.376 24.088C68.792 24.248 69.232 24.392 69.696 24.52C70.384 24.68 70.52 25.072 70.104 25.696C70.04 25.776 69.976 25.856 69.912 25.936C69.864 26.032 69.816 26.128 69.768 26.224C69.672 26.368 69.552 26.472 69.408 26.536C69.264 26.616 69.104 26.632 68.928 26.584C65.232 25.496 62.624 23.392 61.104 20.272C60.976 19.984 60.752 19.84 60.432 19.84H58.92C58.696 19.84 58.52 19.904 58.392 20.032C58.264 20.16 58.2 20.336 58.2 20.56V23.056C58.2 23.328 58.272 23.528 58.416 23.656C58.576 23.784 58.792 23.816 59.064 23.752L61.944 23.152C62.456 23.056 62.688 23.28 62.64 23.824C62.624 23.984 62.608 24.136 62.592 24.28C62.592 24.408 62.592 24.536 62.592 24.664V24.808C62.592 24.92 62.544 24.976 62.448 24.976L57.288 26.224C57 26.304 56.752 26.376 56.544 26.44C56.352 26.504 56.192 26.56 56.064 26.608C55.92 26.688 55.848 26.816 55.848 26.992C55.848 27.136 55.824 27.136 55.776 26.992ZM63.72 17.152V16.648C63.72 16.424 63.656 16.248 63.528 16.12C63.4 15.992 63.224 15.928 63 15.928H60.408C60.184 15.928 60.008 15.992 59.88 16.12C59.752 16.248 59.688 16.424 59.688 16.648V17.152C59.688 17.376 59.752 17.552 59.88 17.68C60.008 17.808 60.184 17.872 60.408 17.872H63C63.224 17.872 63.4 17.808 63.528 17.68C63.656 17.552 63.72 17.376 63.72 17.152ZM65.088 21.496C65.264 21.384 65.44 21.28 65.616 21.184C65.792 21.072 65.96 20.96 66.12 20.848C66.568 20.56 66.752 20.32 66.672 20.128C66.608 19.936 66.312 19.84 65.784 19.84H64.368C64 19.84 63.76 19.936 63.648 20.128C63.536 20.32 63.584 20.552 63.792 20.824C63.872 20.92 63.944 21.016 64.008 21.112C64.088 21.208 64.168 21.296 64.248 21.376C64.36 21.504 64.496 21.576 64.656 21.592C64.816 21.608 64.96 21.576 65.088 21.496ZM66.888 9.304V8.896C66.888 8.672 66.824 8.496 66.696 8.368C66.568 8.24 66.392 8.176 66.168 8.176H54.528C54.304 8.176 54.128 8.24 54 8.368C53.872 8.496 53.808 8.672 53.808 8.896V9.304C53.808 9.528 53.872 9.704 54 9.832C54.128 9.96 54.304 10.024 54.528 10.024H66.168C66.392 10.024 66.568 9.96 66.696 9.832C66.824 9.704 66.888 9.528 66.888 9.304ZM59.688 12.736V13.216C59.688 13.44 59.752 13.616 59.88 13.744C60.008 13.872 60.184 13.936 60.408 13.936H63C63.224 13.936 63.4 13.872 63.528 13.744C63.656 13.616 63.72 13.44 63.72 13.216V12.736C63.72 12.512 63.656 12.336 63.528 12.208C63.4 12.08 63.224 12.016 63 12.016H60.408C60.184 12.016 60.008 12.08 59.88 12.208C59.752 12.336 59.688 12.512 59.688 12.736ZM74.256 26.08C74.16 26 74.064 25.928 73.968 25.864C73.888 25.8 73.792 25.736 73.68 25.672C73.504 25.544 73.384 25.384 73.32 25.192C73.272 25 73.304 24.8 73.416 24.592C73.656 24.176 73.864 23.752 74.04 23.32C74.216 22.872 74.368 22.408 74.496 21.928C74.8 20.76 74.992 19.544 75.072 18.28C75.104 17.656 75.128 17.056 75.144 16.48C75.176 15.904 75.192 15.344 75.192 14.8V7.168C75.192 6.944 75.256 6.768 75.384 6.64C75.512 6.512 75.688 6.448 75.912 6.448H93.84C94.064 6.448 94.24 6.512 94.368 6.64C94.496 6.768 94.56 6.944 94.56 7.168V7.936C94.56 8.16 94.496 8.336 94.368 8.464C94.24 8.592 94.064 8.656 93.84 8.656H78.24C78.016 8.656 77.84 8.72 77.712 8.848C77.584 8.976 77.52 9.152 77.52 9.376V14.8C77.52 15.392 77.504 16.016 77.472 16.672C77.456 17.328 77.416 18.016 77.352 18.736C77.288 19.456 77.192 20.168 77.064 20.872C76.936 21.576 76.784 22.272 76.608 22.96C76.304 24.048 75.896 25.04 75.384 25.936C75.256 26.176 75.088 26.304 74.88 26.32C74.672 26.336 74.464 26.256 74.256 26.08ZM82.008 26.008C81.976 25.896 81.944 25.792 81.912 25.696C81.88 25.6 81.84 25.496 81.792 25.384C81.52 24.648 81.76 24.28 82.512 24.28L85.176 24.304C85.528 24.304 85.704 24.192 85.704 23.968V14.728C85.704 14.504 85.64 14.328 85.512 14.2C85.384 14.072 85.208 14.008 84.984 14.008H79.248C79.024 14.008 78.848 13.944 78.72 13.816C78.592 13.688 78.528 13.512 78.528 13.288V12.544C78.528 12.32 78.592 12.144 78.72 12.016C78.848 11.888 79.024 11.824 79.248 11.824H93.408C93.632 11.824 93.808 11.888 93.936 12.016C94.064 12.144 94.128 12.32 94.128 12.544V13.288C94.128 13.512 94.064 13.688 93.936 13.816C93.808 13.944 93.632 14.008 93.408 14.008H88.8C88.576 14.008 88.4 14.072 88.272 14.2C88.144 14.328 88.08 14.504 88.08 14.728V23.896C88.08 25.256 87.648 26.04 86.784 26.248C86.352 26.408 85.744 26.512 84.96 26.56C84.64 26.576 84.296 26.584 83.928 26.584C83.56 26.6 83.168 26.608 82.752 26.608C82.368 26.608 82.12 26.408 82.008 26.008Z" fill="#262626"/>
<g clip-path="url(#clip0_1314_32859)">
<path d="M125.848 19.454C125.688 19.6103 125.579 19.8108 125.534 20.0296C125.49 20.2484 125.511 20.4756 125.597 20.6821C125.682 20.8885 125.827 21.0646 126.013 21.1879C126.2 21.3112 126.418 21.376 126.642 21.374C126.93 21.374 127.22 21.264 127.438 21.044L131.684 16.802C131.895 16.5895 132.014 16.3018 132.014 16.002C132.014 15.7021 131.895 15.4145 131.684 15.202L127.436 10.96C127.333 10.851 127.209 10.7637 127.071 10.7034C126.934 10.643 126.785 10.6108 126.635 10.6087C126.485 10.6066 126.336 10.6346 126.197 10.691C126.058 10.7475 125.931 10.8312 125.825 10.9373C125.719 11.0434 125.635 11.1698 125.578 11.3088C125.522 11.4479 125.494 11.5969 125.495 11.747C125.497 11.8972 125.529 12.0454 125.59 12.183C125.65 12.3206 125.737 12.4447 125.846 12.548L128.166 14.87L113.134 14.876C112.835 14.876 112.549 14.9946 112.338 15.2058C112.126 15.417 112.008 15.7034 112.008 16.002C112.008 16.3006 112.126 16.587 112.338 16.7982C112.549 17.0094 112.835 17.128 113.134 17.128L128.168 17.13L125.846 19.45H125.848V19.454ZM142.748 9.77603C141.945 7.87422 140.781 6.14628 139.32 4.68803C137.836 3.19988 136.073 2.01964 134.132 1.21512C132.19 0.410594 130.109 -0.00233636 128.008 5.69124e-05C125.498 -0.00666894 123.022 0.582838 120.784 1.72006C118.624 2.81893 116.741 4.39139 115.274 6.32006C115.112 6.55794 115.047 6.84892 115.093 7.13302C115.139 7.41711 115.293 7.67269 115.522 7.84706C115.751 8.02143 116.038 8.10131 116.324 8.07024C116.61 8.03917 116.874 7.89951 117.06 7.68006C118.323 6.02327 119.943 4.67245 121.8 3.72803C123.722 2.74961 125.85 2.24297 128.008 2.25003C129.813 2.24557 131.602 2.59888 133.27 3.28954C134.939 3.98021 136.454 4.99456 137.728 6.27399C139.007 7.55055 140.021 9.06696 140.712 10.7363C141.404 12.4056 141.759 14.1951 141.758 16.002C141.762 17.8076 141.409 19.5962 140.718 21.2645C140.027 22.9328 139.013 24.4478 137.734 25.722C136.458 27.001 134.942 28.0155 133.273 28.7074C131.604 29.3993 129.815 29.7549 128.008 29.7539C125.848 29.7611 123.718 29.2538 121.794 28.2739C119.937 27.3281 118.317 25.9768 117.054 24.3199C116.967 24.1957 116.856 24.0903 116.727 24.0101C116.599 23.9299 116.455 23.8765 116.306 23.8531C116.156 23.8298 116.003 23.8369 115.856 23.8742C115.709 23.9114 115.571 23.978 115.451 24.0699C115.33 24.1618 115.23 24.2771 115.155 24.409C115.08 24.5408 115.033 24.6863 115.016 24.8369C114.999 24.9875 115.012 25.14 115.055 25.2852C115.099 25.4304 115.171 25.5654 115.268 25.6819C116.738 27.6102 118.623 29.1825 120.784 30.2819C123.036 31.4199 125.468 31.9999 128.008 31.9999C130.109 32.0044 132.191 31.5928 134.132 30.7889C136.074 29.9849 137.837 28.8046 139.32 27.3159C140.808 25.8319 141.988 24.0685 142.793 22.1268C143.597 20.1852 144.01 18.1037 144.008 16.002C144.008 13.842 143.588 11.742 142.748 9.77599V9.77603Z" fill="#262626"/>
</g>
<defs>
<clipPath id="clip0_1314_32859">
<rect width="32" height="32" fill="white" transform="translate(112)"/>
</clipPath>
</defs>
</svg>
