<svg width="32" height="32" viewBox="0 0 32 32" fill="none" xmlns="http://www.w3.org/2000/svg">
<g clip-path="url(#clip0_1054_27615)">
<path d="M13.8478 19.454C13.6882 19.6103 13.5791 19.8108 13.5343 20.0296C13.4895 20.2484 13.5112 20.4756 13.5966 20.6821C13.6819 20.8885 13.8271 21.0646 14.0133 21.1879C14.1996 21.3112 14.4184 21.376 14.6418 21.374C14.9298 21.374 15.2197 21.264 15.4377 21.044L19.6838 16.802C19.8953 16.5895 20.014 16.3018 20.014 16.002C20.014 15.7021 19.8953 15.4145 19.6838 15.202L15.4358 10.96C15.3325 10.851 15.2085 10.7637 15.071 10.7034C14.9335 10.643 14.7853 10.6108 14.6352 10.6087C14.4851 10.6066 14.336 10.6346 14.1969 10.691C14.0577 10.7475 13.9313 10.8312 13.8251 10.9373C13.7188 11.0434 13.6349 11.1698 13.5783 11.3088C13.5217 11.4479 13.4935 11.5969 13.4955 11.747C13.4974 11.8972 13.5294 12.0454 13.5895 12.183C13.6497 12.3206 13.7368 12.4447 13.8457 12.548L16.1658 14.87L1.13381 14.876C0.835179 14.876 0.548776 14.9946 0.33761 15.2058C0.126444 15.417 0.0078125 15.7034 0.0078125 16.002C0.0078125 16.3006 0.126444 16.587 0.33761 16.7982C0.548776 17.0094 0.835179 17.128 1.13381 17.128L16.1678 17.13L13.8458 19.45H13.8478V19.454ZM30.7477 9.77603C29.945 7.87422 28.7808 6.14628 27.3197 4.68803C25.836 3.19988 24.0729 2.01964 22.1316 1.21512C20.1903 0.410594 18.1091 -0.00233636 16.0078 5.69124e-05C13.4975 -0.00666894 11.0216 0.582838 8.78378 1.72006C6.62417 2.81893 4.74064 4.39139 3.27378 6.32006C3.11175 6.55794 3.04715 6.84892 3.0933 7.13302C3.13945 7.41711 3.29282 7.67269 3.52181 7.84706C3.7508 8.02143 4.03796 8.10131 4.3241 8.07024C4.61024 8.03917 4.87356 7.89951 5.05978 7.68006C6.32275 6.02327 7.94291 4.67245 9.79981 3.72803C11.7225 2.74961 13.8505 2.24297 16.0078 2.25003C17.8134 2.24557 19.602 2.59888 21.2704 3.28954C22.9387 3.98021 24.4537 4.99456 25.7278 6.27399C27.0066 7.55055 28.0208 9.06696 28.7124 10.7363C29.4039 12.4056 29.7592 14.1951 29.7578 16.002C29.7621 17.8076 29.4087 19.5962 28.7181 21.2645C28.0274 22.9328 27.0131 24.4478 25.7338 25.722C24.4577 27.001 22.9417 28.0155 21.2727 28.7074C19.6037 29.3993 17.8145 29.7549 16.0078 29.7539C13.8483 29.7611 11.7182 29.2538 9.79381 28.2739C7.93725 27.3281 6.31725 25.9768 5.05381 24.3199C4.96701 24.1957 4.85599 24.0903 4.72742 24.0101C4.59884 23.9299 4.45537 23.8765 4.30563 23.8531C4.15589 23.8298 4.00298 23.8369 3.85608 23.8742C3.70918 23.9114 3.57134 23.978 3.45083 24.0699C3.33033 24.1618 3.22965 24.2771 3.15485 24.409C3.08006 24.5408 3.03269 24.6863 3.0156 24.8369C2.9985 24.9875 3.01204 25.14 3.05539 25.2852C3.09874 25.4304 3.171 25.5654 3.26784 25.6819C4.73756 27.6102 6.62292 29.1825 8.78381 30.2819C11.0358 31.4199 13.4678 31.9999 16.0078 31.9999C18.1091 32.0044 20.1906 31.5928 22.132 30.7889C24.0735 29.9849 25.8366 28.8046 27.3197 27.3159C28.808 25.8319 29.9883 24.0685 30.7929 22.1268C31.5974 20.1852 32.0103 18.1037 32.0077 16.002C32.0077 13.842 31.5877 11.742 30.7477 9.77599V9.77603Z" fill="#262626"/>
</g>
<defs>
<clipPath id="clip0_1054_27615">
<rect width="32" height="32" fill="white"/>
</clipPath>
</defs>
</svg>
