<svg width="696" height="1658" viewBox="0 0 696 1658" fill="none" xmlns="http://www.w3.org/2000/svg">
<g clip-path="url(#clip0_1333_37956)">
<g opacity="0.5">
<path d="M69.1689 726.37L69.1689 645.843H69.2556C70.0354 627.936 77.4873 611.241 90.3693 598.706C103.54 585.853 119.484 579.383 137.882 579.383C154.548 579.383 174.535 586.373 187.706 599.226C200.559 611.761 208.675 628.195 209.859 643.706L209.859 646.363L209.888 785.985M209.888 785.985C209.888 785.754 209.888 786.216 209.888 785.985ZM209.888 785.985C209.888 802.824 218.524 820.962 230.8 833.209C243.075 845.484 260.087 852.647 278.775 852.647C317.449 852.647 347.084 886.036 347.372 924.711C347.69 964.483 314.099 993.193 280.623 993.164L139.355 993.164C100.681 993.164 69.1978 963.386 69.1978 924.711L69.1978 873.79" stroke="#D77117" stroke-width="5.40117" stroke-miterlimit="10"/>
<path d="M65.5753 834.999L65.5753 836.379C65.5753 836.628 65.5083 836.829 65.3742 836.982C65.2209 837.135 65.0293 837.222 64.7994 837.241L62.529 837.442C58.9079 837.787 56.0149 838.055 53.8499 838.247C51.6657 838.419 50.1809 838.505 49.3954 838.505C49.3187 838.505 49.2613 838.496 49.2229 838.477C49.2038 838.477 49.2038 838.486 49.2229 838.505L51.6083 839.339C52.4321 839.626 53.3326 839.942 54.3097 840.287C55.2677 840.632 56.3214 841.015 57.471 841.437L64.5982 844.109C64.9622 844.243 65.1443 844.512 65.1443 844.914L65.1443 846.236C65.1443 846.638 64.9527 846.907 64.5695 847.041L57.471 849.598C57.0303 849.752 56.4268 849.963 55.6604 850.231C54.8749 850.499 53.9361 850.825 52.844 851.208C51.9627 851.514 51.2442 851.754 50.6886 851.926C50.133 852.099 49.7402 852.223 49.5103 852.3C49.4337 852.319 49.4049 852.338 49.4241 852.357C49.4241 852.357 49.4624 852.348 49.5391 852.329H49.7977C50.1043 852.329 50.5066 852.338 51.0047 852.357C51.5029 852.377 52.1064 852.405 52.8153 852.444C53.5433 852.482 54.9036 852.578 56.8962 852.731C58.8696 852.865 61.4944 853.057 64.7706 853.306C65.3071 853.344 65.5753 853.632 65.5753 854.168L65.5753 855.576C65.5753 855.844 65.4891 856.065 65.3167 856.237C65.1443 856.39 64.9239 856.457 64.6557 856.438L45.7743 855.001C45.2378 854.963 44.9696 854.676 44.9696 854.139L44.9696 851.869C44.9696 851.467 45.1612 851.198 45.5444 851.064C49.2804 849.666 52.3555 848.535 54.7695 847.673C57.1644 846.811 58.9175 846.217 60.0287 845.891C60.8143 845.661 60.8047 845.403 60 845.115L58.6493 844.684C57.7296 844.378 56.7621 844.042 55.7467 843.678C54.7312 843.314 53.6391 842.912 52.4704 842.471L45.5156 839.856C45.1516 839.722 44.9696 839.454 44.9696 839.051L44.9696 836.723C44.9696 836.494 45.0462 836.302 45.1995 836.149C45.3336 835.995 45.5156 835.9 45.7455 835.861L64.627 834.137C64.9143 834.099 65.1443 834.166 65.3167 834.338C65.4891 834.491 65.5753 834.712 65.5753 834.999ZM65.5753 827.898L65.5753 829.162C65.5753 829.43 65.4987 829.641 65.3454 829.794C65.1922 829.948 64.9814 830.024 64.7132 830.024L50.8898 830.024C50.6216 830.024 50.4108 829.948 50.2575 829.794C50.1043 829.641 50.0276 829.43 50.0276 829.162L50.0276 827.898C50.0276 827.629 50.1043 827.419 50.2575 827.265C50.4108 827.112 50.6216 827.035 50.8898 827.035L64.7132 827.035C64.9814 827.035 65.1922 827.112 65.3454 827.265C65.4987 827.419 65.5753 827.629 65.5753 827.898ZM47.2687 828.53C47.2687 829.047 47.0867 829.488 46.7227 829.852C46.3586 830.216 45.918 830.398 45.4007 830.398C44.8642 830.398 44.414 830.216 44.0499 829.852C43.6859 829.488 43.5039 829.047 43.5039 828.53C43.5039 827.993 43.6859 827.543 44.0499 827.179C44.414 826.815 44.8642 826.633 45.4007 826.633C45.918 826.633 46.3586 826.815 46.7227 827.179C47.0867 827.543 47.2687 827.993 47.2687 828.53ZM65.5753 812.209L65.5753 813.56C65.5753 813.867 65.4316 814.116 65.1443 814.307L61.1208 816.721C60.7568 816.932 60.5748 817.172 60.5748 817.44C60.5748 817.708 60.7472 817.957 61.0921 818.187L65.173 820.745C65.4412 820.917 65.5753 821.166 65.5753 821.492L65.5753 822.699C65.5753 823.197 65.4508 823.513 65.2017 823.648C64.9527 823.763 64.627 823.686 64.2246 823.418L58.1032 819.337C57.9691 819.241 57.8158 819.193 57.6434 819.193C57.471 819.193 57.3081 819.241 57.1549 819.337L51.3209 823.159C50.9377 823.427 50.6216 823.494 50.3725 823.36C50.1234 823.226 49.9989 822.919 49.9989 822.441L49.9989 821.061C49.9989 820.755 50.1426 820.505 50.43 820.314L54.166 818.072C54.5492 817.861 54.7408 817.622 54.7408 817.354C54.7408 817.086 54.5588 816.836 54.1948 816.607L50.4012 814.307C50.133 814.135 49.9989 813.886 49.9989 813.56L49.9989 812.238C49.9989 811.759 50.1234 811.462 50.3725 811.347C50.6216 811.213 50.9473 811.28 51.3496 811.548L57.1836 815.486C57.5093 815.716 57.835 815.716 58.1607 815.486L64.2533 811.491C64.6365 811.223 64.9527 811.156 65.2017 811.29C65.4508 811.405 65.5753 811.711 65.5753 812.209ZM65.719 802.419C65.719 804.048 65.2879 805.255 64.4258 806.04C63.6019 806.806 62.4141 807.19 60.8622 807.19L53.2751 807.19C53.0069 807.19 52.7961 807.266 52.6429 807.42C52.4896 807.573 52.4129 807.784 52.4129 808.052L52.4129 808.742C52.4129 809.01 52.3363 809.22 52.183 809.374C52.0298 809.527 51.819 809.604 51.5508 809.604H50.8898C50.6216 809.604 50.4108 809.527 50.2575 809.374C50.1043 809.22 50.0276 809.01 50.0276 808.742L50.0276 808.052C50.0276 807.784 49.951 807.573 49.7977 807.42C49.6444 807.266 49.4337 807.19 49.1655 807.19L47.125 807.19C46.8568 807.19 46.646 807.113 46.4927 806.96C46.3395 806.806 46.2628 806.596 46.2628 806.327L46.2628 805.034C46.2628 804.766 46.3395 804.555 46.4927 804.402C46.646 804.249 46.8568 804.172 47.125 804.172L49.1655 804.172C49.4337 804.172 49.6444 804.095 49.7977 803.942C49.951 803.789 50.0276 803.578 50.0276 803.31L50.0276 800.953C50.0276 800.685 50.1043 800.474 50.2575 800.321C50.4108 800.168 50.6216 800.091 50.8898 800.091L51.5508 800.091C51.819 800.091 52.0298 800.168 52.183 800.321C52.3363 800.474 52.4129 800.685 52.4129 800.953L52.4129 803.31C52.4129 803.578 52.4896 803.789 52.6429 803.942C52.7961 804.095 53.0069 804.172 53.2751 804.172L60.9196 804.172C62.3757 804.172 63.1038 803.473 63.1038 802.074C63.1038 801.672 63.0367 801.279 62.9026 800.896C62.6344 800.225 62.8451 799.89 63.5349 799.89H64.5695C64.9335 799.89 65.1826 800.053 65.3167 800.379C65.3742 800.513 65.4221 800.647 65.4604 800.781C65.4987 800.896 65.537 801.03 65.5753 801.183C65.6137 801.432 65.6424 801.662 65.6616 801.873C65.6999 802.065 65.719 802.247 65.719 802.419Z" fill="#D77117"/>
<path d="M65.8141 790.32C65.8125 791.891 65.4566 793.213 64.7466 794.285C64.0174 795.395 63.0682 796.218 61.8989 796.754C60.7104 797.327 59.3881 797.613 57.932 797.612C56.4568 797.61 55.0872 797.302 53.8233 796.688C52.5786 796.073 51.6024 795.229 50.8946 794.155C50.1677 793.043 49.8051 791.759 49.8066 790.303C49.8083 788.694 50.1737 787.324 50.903 786.195C51.6322 785.104 52.6006 784.281 53.8082 783.726C55.0733 783.172 56.4147 782.896 57.8325 782.897C59.3269 782.899 60.6773 783.187 61.8838 783.764C63.071 784.34 64.0281 785.174 64.755 786.267C65.4627 787.379 65.8158 788.73 65.8141 790.32ZM63.2564 790.317C63.2574 789.359 63.0091 788.555 62.5117 787.903C62.0334 787.27 61.3824 786.8 60.5589 786.492C59.7737 786.185 58.883 786.031 57.8867 786.03C56.9287 786.029 56.0185 786.162 55.1561 786.429C54.3128 786.716 53.6513 787.175 53.1716 787.807C52.6728 788.457 52.4229 789.291 52.4218 790.306C52.4208 791.245 52.6691 792.021 53.1666 792.635C53.6449 793.229 54.3055 793.69 55.1481 794.016C56.0099 794.343 56.9103 794.507 57.8491 794.508C59.3052 794.509 60.5701 794.137 61.6438 793.391C62.7174 792.664 63.255 791.639 63.2564 790.317Z" fill="#D77117"/>
<path d="M63.1165 772.621C63.1182 771.453 62.6597 770.484 61.7411 769.717C60.8417 768.93 59.4916 768.535 57.6906 768.533C56.0621 768.53 54.7875 768.902 53.8668 769.648C52.9461 770.413 52.4849 771.361 52.4833 772.491C52.4824 773.143 52.6444 773.794 52.9692 774.446C53.294 775.079 53.8489 775.616 54.6338 776.058C55.3995 776.481 56.453 776.693 57.7942 776.695C59.097 776.697 60.1319 776.487 60.8988 776.067C61.7041 775.627 62.2701 775.101 62.5966 774.489C62.9424 773.857 63.1157 773.234 63.1165 772.621ZM71.4726 777.576L71.4708 778.869C71.4704 779.137 71.3935 779.348 71.24 779.501C71.0865 779.654 70.8757 779.731 70.6075 779.73L50.8926 779.703C50.6244 779.702 50.4138 779.625 50.2607 779.472C50.1076 779.318 50.0313 779.108 50.0317 778.839L50.0335 777.546C50.0338 777.278 50.1108 777.067 50.2643 776.914C50.4178 776.761 50.6286 776.685 50.8968 776.685L51.0405 776.685C51.6153 776.686 51.6922 776.475 51.2713 776.053C50.9269 775.708 50.6401 775.305 50.4108 774.845C50.0096 774.059 49.8097 773.139 49.8112 772.085C49.8132 770.668 50.1597 769.461 50.8508 768.466C51.5611 767.509 52.5105 766.753 53.6992 766.199C54.8686 765.684 56.2005 765.427 57.6949 765.429C60.0132 765.432 61.9379 766.038 63.4689 767.248C65.0191 768.476 65.7928 770.106 65.7899 772.136C65.7884 773.209 65.586 774.138 65.1825 774.923C64.8559 775.574 64.7499 776.034 64.8645 776.302C64.9599 776.571 65.4099 776.705 66.2146 776.706L70.6117 776.713C70.8799 776.713 71.0905 776.79 71.2436 776.943C71.3967 777.097 71.473 777.308 71.4726 777.576Z" fill="#D77117"/>
<path d="M65.5798 760.031L65.5785 761.296C65.5782 761.564 65.5013 761.775 65.3479 761.928C65.1945 762.081 64.9836 762.157 64.7154 762.157L50.892 762.143C50.6238 762.142 50.4131 762.066 50.26 761.912C50.1069 761.759 50.0305 761.548 50.0308 761.28L50.0321 760.015C50.0324 759.747 50.1092 759.536 50.2627 759.383C50.4161 759.23 50.6269 759.154 50.8952 759.154L64.7185 759.168C64.9868 759.169 65.1974 759.245 65.3506 759.399C65.5037 759.552 65.5801 759.763 65.5798 760.031ZM47.2725 760.644C47.272 761.162 47.0895 761.602 46.7251 761.966C46.3607 762.329 45.9198 762.511 45.4025 762.511C44.8661 762.51 44.416 762.327 44.0524 761.963C43.6887 761.599 43.5072 761.158 43.5077 760.64C43.5083 760.104 43.6908 759.654 44.0552 759.29C44.4196 758.927 44.87 758.745 45.4065 758.746C45.9238 758.746 46.3642 758.929 46.7279 759.293C47.0915 759.658 47.2731 760.108 47.2725 760.644Z" fill="#D77117"/>
<path d="M63.2762 749.943C63.2762 748.966 62.9984 748.2 62.4428 747.644C61.9063 747.108 61.2166 746.84 60.3736 746.84L59.1378 746.84C58.8121 746.84 58.5822 746.935 58.4481 747.127C58.2948 747.299 58.2469 747.548 58.3044 747.874L58.5343 749.139C58.6876 749.867 58.8313 750.461 58.9654 750.92C59.0995 751.438 59.3294 751.84 59.6551 752.128C59.9617 752.415 60.4119 752.559 61.0059 752.559C61.6764 752.559 62.2225 752.348 62.644 751.926C63.0655 751.505 63.2762 750.844 63.2762 749.943ZM65.6903 750.834C65.6903 752.329 65.2496 753.517 64.3683 754.398C63.5061 755.298 62.4236 755.749 61.1208 755.749C59.9138 755.749 59.0133 755.49 58.4194 754.973C57.8254 754.455 57.3848 753.756 57.0974 752.875C56.8291 752.013 56.5992 751.035 56.4076 749.943L55.9478 747.529C55.9095 747.319 55.8137 747.156 55.6604 747.041C55.488 746.907 55.2964 746.849 55.0857 746.868C54.3576 746.964 53.7637 747.165 53.3038 747.472C52.7291 747.893 52.4417 748.765 52.4417 750.087C52.4417 751.16 52.6716 752.233 53.1314 753.306C53.323 753.708 53.3517 754.024 53.2176 754.254C53.0835 754.484 52.7961 754.599 52.3555 754.599H51.3783C51.2251 754.599 51.0814 754.561 50.9473 754.484C50.794 754.407 50.6886 754.293 50.6311 754.139C50.0564 752.894 49.769 751.457 49.769 749.828C49.769 747.721 50.2767 746.188 51.2921 745.23C52.3459 744.272 53.8211 743.793 55.7179 743.793L64.7132 743.793C64.9814 743.793 65.1922 743.87 65.3454 744.023C65.4987 744.176 65.5753 744.387 65.5753 744.655L65.5753 745.977C65.5753 746.207 65.5083 746.399 65.3742 746.552C65.2209 746.686 65.0293 746.753 64.7994 746.753C64.3779 746.753 64.3108 746.907 64.5982 747.213C64.7706 747.405 64.9431 747.663 65.1155 747.989C65.4987 748.66 65.6903 749.608 65.6903 750.834Z" fill="#D77117"/>
</g>
<g opacity="0.5">
<path d="M74.8581 1507.48L75.6275 1508.62C75.7664 1508.83 75.823 1509.03 75.7972 1509.24C75.7554 1509.45 75.6445 1509.63 75.4644 1509.77L73.6921 1511.2C70.8789 1513.51 68.6273 1515.35 66.9371 1516.71C65.2204 1518.07 64.0361 1518.97 63.3841 1519.41C63.3205 1519.45 63.2674 1519.48 63.2249 1519.48C63.209 1519.49 63.2144 1519.5 63.241 1519.51L65.6857 1518.87C66.5298 1518.65 67.4535 1518.41 68.4569 1518.15C69.4443 1517.9 70.5327 1517.63 71.7219 1517.34L79.1283 1515.58C79.5052 1515.49 79.8059 1515.61 80.0303 1515.95L80.7677 1517.04C80.9921 1517.38 80.9826 1517.71 80.7394 1518.03L76.2741 1524.12C75.9939 1524.49 75.6105 1525 75.124 1525.65C74.6216 1526.31 74.024 1527.1 73.3313 1528.03C72.7708 1528.78 72.308 1529.38 71.943 1529.83C71.578 1530.28 71.3215 1530.61 71.1734 1530.8C71.1205 1530.86 71.1073 1530.89 71.1339 1530.89C71.1339 1530.89 71.1604 1530.86 71.2133 1530.81L71.428 1530.66C71.6824 1530.49 72.0217 1530.27 72.4459 1530.01C72.87 1529.75 73.387 1529.44 73.9967 1529.07C74.6224 1528.7 75.8049 1528.02 77.5442 1527.04C79.257 1526.05 81.5425 1524.74 84.4007 1523.12C84.8673 1522.85 85.2502 1522.94 85.5495 1523.39L86.3349 1524.56C86.4845 1524.78 86.5358 1525.01 86.4889 1525.25C86.4312 1525.47 86.2857 1525.65 86.0524 1525.79L69.5792 1535.12C69.1125 1535.39 68.7296 1535.3 68.4304 1534.86L67.1641 1532.97C66.9397 1532.64 66.9491 1532.31 67.1924 1531.98C69.5133 1528.74 71.4351 1526.09 72.958 1524.02C74.4649 1521.97 75.5887 1520.5 76.3294 1519.61C76.8531 1518.98 76.7009 1518.77 75.8727 1518.98L74.5112 1519.38C73.5769 1519.64 72.5868 1519.9 71.541 1520.16C70.4951 1520.43 69.3643 1520.7 68.1484 1520.99L60.9172 1522.7C60.5403 1522.79 60.2396 1522.67 60.0152 1522.33L58.7168 1520.4C58.5886 1520.21 58.5454 1520.01 58.5871 1519.8C58.6129 1519.59 58.7106 1519.41 58.88 1519.25L73.5901 1507.29C73.8073 1507.1 74.0355 1507.03 74.2748 1507.07C74.5034 1507.1 74.6979 1507.24 74.8581 1507.48Z" fill="#A7498D"/>
<path d="M72.8094 1500.86L73.2605 1502.04C73.3562 1502.29 73.3598 1502.51 73.2713 1502.71C73.1828 1502.91 73.0132 1503.05 72.7626 1503.15L59.8488 1508.08C59.5982 1508.18 59.374 1508.18 59.1761 1508.09C58.9782 1508 58.8315 1507.83 58.7358 1507.58L58.2847 1506.4C58.189 1506.15 58.1854 1505.93 58.2739 1505.73C58.3624 1505.53 58.532 1505.39 58.7826 1505.29L71.6964 1500.36C71.947 1500.26 72.1712 1500.26 72.3691 1500.35C72.567 1500.44 72.7137 1500.61 72.8094 1500.86ZM55.9328 1507.98C56.1174 1508.46 56.1045 1508.94 55.8943 1509.41C55.6841 1509.88 55.3374 1510.2 54.8541 1510.39C54.3529 1510.58 53.8674 1510.57 53.3975 1510.36C52.9275 1510.15 52.6003 1509.8 52.4157 1509.32C52.2244 1508.82 52.2338 1508.33 52.444 1507.86C52.6542 1507.39 53.0099 1507.06 53.5111 1506.87C53.9943 1506.69 54.4709 1506.7 54.9409 1506.91C55.4108 1507.12 55.7415 1507.48 55.9328 1507.98Z" fill="#A7498D"/>
<path d="M68.8871 1485.95L69.1753 1487.27C69.2407 1487.57 69.1534 1487.84 68.9136 1488.09L65.4979 1491.31C65.1872 1491.59 65.0605 1491.86 65.1177 1492.13C65.1749 1492.39 65.3965 1492.59 65.7825 1492.75L70.3152 1494.37C70.6141 1494.49 70.7982 1494.7 70.8677 1495.02L71.1253 1496.2C71.2316 1496.68 71.1773 1497.02 70.9626 1497.2C70.7438 1497.37 70.4093 1497.36 69.9589 1497.19L63.1078 1494.51C62.9563 1494.44 62.7964 1494.43 62.6279 1494.46C62.4594 1494.5 62.3106 1494.58 62.1813 1494.71L57.2972 1499.69C56.9801 1500.03 56.6855 1500.16 56.4136 1500.09C56.1416 1500.01 55.9545 1499.74 55.8523 1499.27L55.558 1497.92C55.4926 1497.62 55.5798 1497.35 55.8197 1497.1L58.9914 1494.11C59.3208 1493.82 59.4569 1493.55 59.3997 1493.29C59.3424 1493.02 59.1115 1492.82 58.7068 1492.67L54.51 1491.24C54.2112 1491.13 54.027 1490.91 53.9575 1490.59L53.6755 1489.3C53.5733 1488.83 53.6316 1488.52 53.8504 1488.35C54.0651 1488.17 54.3976 1488.16 54.8479 1488.34L61.3876 1490.94C61.7549 1491.1 62.0731 1491.03 62.3423 1490.73L67.4422 1485.53C67.7594 1485.19 68.0539 1485.05 68.3258 1485.13C68.5937 1485.19 68.7808 1485.46 68.8871 1485.95Z" fill="#A7498D"/>
<path d="M68.3744 1476.4C68.4747 1478.03 68.1187 1479.26 67.3065 1480.1C66.5314 1480.91 65.3694 1481.37 63.8205 1481.46L56.2478 1481.93C55.9801 1481.95 55.7745 1482.04 55.6309 1482.2C55.4874 1482.36 55.4238 1482.58 55.4404 1482.84L55.4828 1483.53C55.4993 1483.8 55.4358 1484.01 55.2923 1484.18C55.1487 1484.34 54.9431 1484.43 54.6754 1484.44L54.0156 1484.49C53.7479 1484.5 53.5329 1484.44 53.3704 1484.3C53.208 1484.15 53.1185 1483.95 53.102 1483.68L53.0596 1482.99C53.043 1482.72 52.9536 1482.52 52.7912 1482.37C52.6287 1482.23 52.4137 1482.17 52.1459 1482.18L50.1094 1482.31C49.8416 1482.32 49.6266 1482.26 49.4642 1482.12C49.3017 1481.97 49.2123 1481.77 49.1957 1481.5L49.1161 1480.21C49.0996 1479.94 49.1631 1479.73 49.3067 1479.56C49.4502 1479.4 49.6558 1479.31 49.9236 1479.3L51.9602 1479.17C52.2279 1479.15 52.4335 1479.06 52.5771 1478.9C52.7206 1478.74 52.7841 1478.52 52.7676 1478.26L52.6225 1475.9C52.606 1475.64 52.6695 1475.42 52.813 1475.26C52.9566 1475.1 53.1622 1475.01 53.4299 1474.99L54.0897 1474.95C54.3574 1474.93 54.5725 1475 54.7349 1475.14C54.8973 1475.28 54.9868 1475.49 55.0033 1475.76L55.1484 1478.11C55.1649 1478.38 55.2544 1478.58 55.4168 1478.73C55.5792 1478.87 55.7943 1478.93 56.062 1478.92L63.692 1478.45C65.1454 1478.36 65.829 1477.61 65.7429 1476.22C65.7181 1475.82 65.627 1475.43 65.4695 1475.05C65.1605 1474.4 65.3502 1474.05 66.0387 1474.01L67.0713 1473.95C67.4346 1473.93 67.6933 1474.07 67.8472 1474.39C67.9128 1474.52 67.9689 1474.65 68.0154 1474.78C68.0607 1474.89 68.1072 1475.03 68.1549 1475.18C68.2085 1475.42 68.2513 1475.65 68.2834 1475.86C68.3334 1476.05 68.3638 1476.23 68.3744 1476.4Z" fill="#A7498D"/>
<path d="M68.4937 1464.48C68.4937 1466.05 68.1393 1467.37 67.4304 1468.45C66.7023 1469.56 65.754 1470.38 64.5852 1470.92C63.3974 1471.49 62.0754 1471.78 60.6193 1471.78C59.144 1471.78 57.7741 1471.47 56.5096 1470.86C55.2643 1470.25 54.2872 1469.4 53.5783 1468.33C52.8502 1467.22 52.4862 1465.94 52.4862 1464.48C52.4862 1462.87 52.8502 1461.5 53.5783 1460.37C54.3063 1459.28 55.2739 1458.45 56.4809 1457.9C57.7454 1457.34 59.0865 1457.06 60.5043 1457.06C61.9987 1457.06 63.3495 1457.35 64.5565 1457.93C65.7444 1458.5 66.7023 1459.33 67.4304 1460.43C68.1393 1461.54 68.4937 1462.89 68.4937 1464.48ZM65.936 1464.48C65.936 1463.52 65.6869 1462.72 65.1888 1462.07C64.7098 1461.43 64.0584 1460.96 63.2345 1460.66C62.449 1460.35 61.5581 1460.2 60.5618 1460.2C59.6038 1460.2 58.6938 1460.33 57.8316 1460.6C56.9886 1460.89 56.3276 1461.35 55.8486 1461.98C55.3505 1462.63 55.1014 1463.46 55.1014 1464.48C55.1014 1465.42 55.3505 1466.19 55.8486 1466.81C56.3276 1467.4 56.9886 1467.86 57.8316 1468.19C58.6938 1468.51 59.5943 1468.67 60.5331 1468.67C61.9892 1468.67 63.2537 1468.3 64.3266 1467.55C65.3995 1466.83 65.936 1465.8 65.936 1464.48ZM65.7923 1446.78C65.7923 1445.61 65.3324 1444.65 64.4128 1443.88C63.5123 1443.09 62.1616 1442.7 60.3606 1442.7C58.7321 1442.7 57.458 1443.08 56.5384 1443.82C55.6187 1444.59 55.1589 1445.54 55.1589 1446.67C55.1589 1447.32 55.3218 1447.97 55.6475 1448.62C55.9732 1449.25 56.5288 1449.79 57.3143 1450.23C58.0807 1450.65 59.1344 1450.86 60.4756 1450.86C61.7784 1450.86 62.813 1450.65 63.5794 1450.23C64.3841 1449.79 64.9493 1449.26 65.275 1448.65C65.6198 1448.02 65.7923 1447.4 65.7923 1446.78ZM74.1553 1451.73L74.1553 1453.02C74.1553 1453.29 74.0786 1453.5 73.9254 1453.65C73.7721 1453.8 73.5613 1453.88 73.2931 1453.88L53.5783 1453.88C53.31 1453.88 53.0993 1453.8 52.946 1453.65C52.7927 1453.5 52.7161 1453.29 52.7161 1453.02L52.7161 1451.73C52.7161 1451.46 52.7927 1451.25 52.946 1451.09C53.0993 1450.94 53.31 1450.86 53.5783 1450.86H53.722C54.2967 1450.86 54.3734 1450.65 53.9519 1450.23C53.607 1449.89 53.3196 1449.48 53.0897 1449.02C52.6874 1448.24 52.4862 1447.32 52.4862 1446.27C52.4862 1444.85 52.8311 1443.64 53.5208 1442.64C54.2297 1441.69 55.1781 1440.93 56.3659 1440.37C57.5346 1439.86 58.8662 1439.6 60.3606 1439.6C62.6789 1439.6 64.6044 1440.2 66.1371 1441.41C67.689 1442.63 68.465 1444.26 68.465 1446.29C68.465 1447.37 68.2638 1448.3 67.8615 1449.08C67.5358 1449.73 67.4304 1450.19 67.5453 1450.46C67.6411 1450.73 68.0914 1450.86 68.8961 1450.86L73.2931 1450.86C73.5613 1450.86 73.7721 1450.94 73.9254 1451.09C74.0786 1451.25 74.1553 1451.46 74.1553 1451.73ZM68.2638 1434.18L68.2638 1435.45C68.2638 1435.72 68.1872 1435.93 68.0339 1436.08C67.8806 1436.23 67.6699 1436.31 67.4016 1436.31L53.5783 1436.31C53.31 1436.31 53.0993 1436.23 52.946 1436.08C52.7927 1435.93 52.7161 1435.72 52.7161 1435.45L52.7161 1434.18C52.7161 1433.91 52.7927 1433.7 52.946 1433.55C53.0993 1433.4 53.31 1433.32 53.5783 1433.32L67.4016 1433.32C67.6699 1433.32 67.8806 1433.4 68.0339 1433.55C68.1872 1433.7 68.2638 1433.91 68.2638 1434.18ZM49.9572 1434.81C49.9572 1435.33 49.7752 1435.77 49.4111 1436.14C49.0471 1436.5 48.6064 1436.68 48.0891 1436.68C47.5527 1436.68 47.1024 1436.5 46.7384 1436.14C46.3744 1435.77 46.1924 1435.33 46.1924 1434.81C46.1924 1434.28 46.3744 1433.83 46.7384 1433.46C47.1024 1433.1 47.5527 1432.92 48.0891 1432.92C48.6064 1432.92 49.0471 1433.1 49.4111 1433.46C49.7752 1433.83 49.9572 1434.28 49.9572 1434.81ZM65.9647 1424.1C65.9647 1423.12 65.6869 1422.36 65.1313 1421.8C64.5948 1421.26 63.9051 1420.99 63.0621 1420.99H61.8263C61.5006 1420.99 61.2707 1421.09 61.1366 1421.28C60.9833 1421.45 60.9354 1421.7 60.9929 1422.03L61.2228 1423.29C61.3761 1424.02 61.5198 1424.62 61.6539 1425.08C61.788 1425.59 62.0179 1426 62.3436 1426.28C62.6502 1426.57 63.1004 1426.71 63.6943 1426.71C64.3649 1426.71 64.9109 1426.5 65.3324 1426.08C65.754 1425.66 65.9647 1425 65.9647 1424.1ZM68.3788 1424.99C68.3788 1426.48 67.9381 1427.67 67.0568 1428.55C66.1946 1429.45 65.1121 1429.9 63.8093 1429.9C62.6023 1429.9 61.7018 1429.65 61.1078 1429.13C60.5139 1428.61 60.0732 1427.91 59.7859 1427.03C59.5176 1426.17 59.2877 1425.19 59.0961 1424.1L58.6363 1421.68C58.598 1421.47 58.5022 1421.31 58.3489 1421.2C58.1765 1421.06 57.9849 1421 57.7741 1421.02C57.0461 1421.12 56.4521 1421.32 55.9923 1421.63C55.4175 1422.05 55.1302 1422.92 55.1302 1424.24C55.1302 1425.32 55.3601 1426.39 55.8199 1427.46C56.0115 1427.86 56.0402 1428.18 55.9061 1428.41C55.772 1428.64 55.4846 1428.75 55.0439 1428.75L54.0668 1428.75C53.9135 1428.75 53.7699 1428.72 53.6357 1428.64C53.4825 1428.56 53.3771 1428.45 53.3196 1428.29C52.7448 1427.05 52.4574 1425.61 52.4574 1423.98C52.4574 1421.88 52.9652 1420.34 53.9806 1419.39C55.0344 1418.43 56.5096 1417.95 58.4064 1417.95L67.4016 1417.95C67.6699 1417.95 67.8806 1418.03 68.0339 1418.18C68.1872 1418.33 68.2638 1418.54 68.2638 1418.81L68.2638 1420.13C68.2638 1420.36 68.1968 1420.55 68.0626 1420.71C67.9094 1420.84 67.7178 1420.91 67.4879 1420.91C67.0664 1420.91 66.9993 1421.06 67.2867 1421.37C67.4591 1421.56 67.6316 1421.82 67.804 1422.14C68.1872 1422.82 68.3788 1423.76 68.3788 1424.99Z" fill="#A7498D"/>
<path d="M163.069 1544.5L140.8 1544.5C125.116 1544.5 110.646 1539.27 99.0635 1530.43" stroke="#A7498D" stroke-width="5.40117" stroke-miterlimit="10"/>
<path d="M71.8887 1407.31L71.8887 1339.55H71.9464C71.9464 1338.91 71.8887 1338.28 71.8887 1337.64C71.8887 1299.57 102.765 1268.7 140.833 1268.7C178.901 1268.7 209.777 1237.85 209.777 1199.75C209.777 1161.65 240.654 1130.81 278.722 1130.81C316.79 1130.81 347.666 1161.68 347.666 1199.75L347.666 1337.64C347.666 1376.78 378.513 1406.58 416.61 1406.58C454.707 1406.58 485.555 1375.74 485.555 1337.64C485.555 1299.54 516.431 1268.7 554.499 1268.7C592.567 1268.7 623.443 1299.57 623.443 1337.64C623.443 1338.28 623.443 1338.91 623.386 1339.55H623.443L623.443 1477.43H623.386C622.375 1514.64 591.932 1544.5 554.47 1544.5L192.621 1544.5" stroke="#A7498D" stroke-width="5.40117" stroke-miterlimit="10"/>
<path d="M192.65 1544.5L163.073 1544.5" stroke="#A7498D" stroke-width="5.40117" stroke-miterlimit="10"/>
</g>
<g opacity="0.5">
<path d="M623.408 562.965L623.408 783.72C623.408 821.788 592.532 852.664 554.464 852.664L416.546 852.664C378.478 852.664 347.226 821.788 347.602 783.72C347.977 744.699 378.478 714.776 416.546 714.776L418.51 714.776C455.683 713.736 485.52 683.293 485.52 645.86L485.52 507.943C485.52 469.875 454.643 438.998 416.575 438.998C378.507 438.998 347.631 408.122 347.631 370.054L347.631 232.136C347.631 194.068 378.94 172.781 417.008 172.781C458.225 172.781 476.739 199.007 476.739 230.952C476.739 274.133 516.425 301.11 554.493 301.11C592.561 301.11 623.437 331.986 623.437 370.054L623.437 413.725" stroke="#329A90" stroke-width="5.40117" stroke-miterlimit="10"/>
<path d="M620.681 449.831L620.681 448.451C620.681 448.202 620.748 448.001 620.882 447.848C621.035 447.695 621.227 447.608 621.456 447.589L623.727 447.388C627.348 447.043 630.241 446.775 632.406 446.583C634.59 446.411 636.075 446.325 636.86 446.325C636.937 446.325 636.995 446.334 637.033 446.354C637.052 446.354 637.052 446.344 637.033 446.325L634.648 445.491C633.824 445.204 632.923 444.888 631.946 444.543C630.988 444.198 629.934 443.815 628.785 443.393L621.658 440.721C621.294 440.587 621.112 440.318 621.112 439.916V438.594C621.112 438.192 621.303 437.923 621.686 437.789L628.785 435.232C629.226 435.078 629.829 434.868 630.595 434.599C631.381 434.331 632.32 434.005 633.412 433.622C634.293 433.316 635.012 433.076 635.567 432.904C636.123 432.731 636.516 432.607 636.746 432.53C636.822 432.511 636.851 432.492 636.832 432.473C636.832 432.473 636.793 432.482 636.717 432.501H636.458C636.152 432.501 635.749 432.492 635.251 432.473C634.753 432.453 634.149 432.425 633.441 432.386C632.713 432.348 631.352 432.252 629.36 432.099C627.386 431.965 624.761 431.773 621.485 431.524C620.949 431.486 620.681 431.199 620.681 430.662L620.681 429.254C620.681 428.986 620.767 428.765 620.939 428.593C621.112 428.44 621.332 428.373 621.6 428.392L640.482 429.829C641.018 429.867 641.286 430.154 641.286 430.691L641.286 432.961C641.286 433.364 641.095 433.632 640.711 433.766C636.975 435.165 633.9 436.295 631.486 437.157C629.091 438.019 627.338 438.613 626.227 438.939C625.442 439.169 625.451 439.427 626.256 439.715L627.607 440.146C628.526 440.452 629.494 440.788 630.509 441.152C631.525 441.516 632.617 441.918 633.785 442.359L640.74 444.974C641.104 445.108 641.286 445.376 641.286 445.779L641.286 448.107C641.286 448.336 641.21 448.528 641.056 448.681C640.922 448.835 640.74 448.93 640.51 448.969L621.629 450.693C621.342 450.731 621.112 450.664 620.939 450.492C620.767 450.339 620.681 450.118 620.681 449.831ZM620.681 456.933L620.681 455.668C620.681 455.4 620.757 455.189 620.91 455.036C621.064 454.883 621.274 454.806 621.543 454.806L635.366 454.806C635.634 454.806 635.845 454.883 635.998 455.036C636.152 455.189 636.228 455.4 636.228 455.668L636.228 456.933C636.228 457.201 636.152 457.412 635.998 457.565C635.845 457.718 635.634 457.795 635.366 457.795L621.543 457.795C621.274 457.795 621.064 457.718 620.91 457.565C620.757 457.412 620.681 457.201 620.681 456.933ZM638.987 456.3C638.987 455.783 639.169 455.342 639.533 454.978C639.897 454.614 640.338 454.432 640.855 454.432C641.392 454.432 641.842 454.614 642.206 454.978C642.57 455.342 642.752 455.783 642.752 456.3C642.752 456.837 642.57 457.287 642.206 457.651C641.842 458.015 641.392 458.197 640.855 458.197C640.338 458.197 639.897 458.015 639.533 457.651C639.169 457.287 638.987 456.837 638.987 456.3ZM620.681 472.621L620.681 471.27C620.681 470.963 620.824 470.714 621.112 470.523L625.135 468.109C625.499 467.898 625.681 467.658 625.681 467.39C625.681 467.122 625.509 466.873 625.164 466.643L621.083 464.085C620.815 463.913 620.681 463.664 620.681 463.338L620.681 462.131C620.681 461.633 620.805 461.317 621.054 461.183C621.303 461.068 621.629 461.144 622.031 461.412L628.153 465.493C628.287 465.589 628.44 465.637 628.612 465.637C628.785 465.637 628.948 465.589 629.101 465.493L634.935 461.671C635.318 461.403 635.634 461.336 635.883 461.47C636.132 461.604 636.257 461.911 636.257 462.39L636.257 463.769C636.257 464.076 636.113 464.325 635.826 464.516L632.09 466.758C631.707 466.969 631.515 467.208 631.515 467.476C631.515 467.745 631.697 467.994 632.061 468.224L635.855 470.523C636.123 470.695 636.257 470.944 636.257 471.27V472.592C636.257 473.071 636.132 473.368 635.883 473.483C635.634 473.617 635.309 473.55 634.906 473.282L629.072 469.344C628.747 469.114 628.421 469.114 628.095 469.344L622.003 473.339C621.619 473.607 621.303 473.674 621.054 473.54C620.805 473.425 620.681 473.119 620.681 472.621ZM620.537 482.411C620.537 480.783 620.968 479.576 621.83 478.79C622.654 478.024 623.842 477.64 625.394 477.64L632.981 477.64C633.249 477.64 633.46 477.564 633.613 477.411C633.766 477.257 633.843 477.047 633.843 476.778L633.843 476.089C633.843 475.82 633.92 475.61 634.073 475.456C634.226 475.303 634.437 475.226 634.705 475.226L635.366 475.226C635.634 475.226 635.845 475.303 635.998 475.456C636.152 475.61 636.228 475.82 636.228 476.089L636.228 476.778C636.228 477.047 636.305 477.257 636.458 477.411C636.611 477.564 636.822 477.64 637.09 477.64L639.131 477.64C639.399 477.64 639.61 477.717 639.763 477.87C639.916 478.024 639.993 478.234 639.993 478.503L639.993 479.796C639.993 480.064 639.916 480.275 639.763 480.428C639.61 480.581 639.399 480.658 639.131 480.658L637.09 480.658C636.822 480.658 636.611 480.735 636.458 480.888C636.305 481.041 636.228 481.252 636.228 481.52L636.228 483.877C636.228 484.145 636.152 484.356 635.998 484.509C635.845 484.662 635.634 484.739 635.366 484.739L634.705 484.739C634.437 484.739 634.226 484.662 634.073 484.509C633.92 484.356 633.843 484.145 633.843 483.877L633.843 481.52C633.843 481.252 633.766 481.041 633.613 480.888C633.46 480.735 633.249 480.658 632.981 480.658L625.336 480.658C623.88 480.658 623.152 481.357 623.152 482.756C623.152 483.158 623.219 483.551 623.353 483.934C623.621 484.605 623.411 484.94 622.721 484.94L621.686 484.94C621.322 484.94 621.073 484.777 620.939 484.452C620.882 484.317 620.834 484.183 620.795 484.049C620.757 483.934 620.719 483.8 620.681 483.647C620.642 483.398 620.613 483.168 620.594 482.957C620.556 482.766 620.537 482.584 620.537 482.411ZM620.451 494.47C620.451 492.899 620.805 491.577 621.514 490.504C622.242 489.393 623.19 488.569 624.359 488.032C625.547 487.458 626.869 487.17 628.325 487.17C629.8 487.17 631.17 487.477 632.435 488.09C633.68 488.703 634.657 489.546 635.366 490.619C636.094 491.73 636.458 493.014 636.458 494.47C636.458 496.079 636.094 497.449 635.366 498.58C634.638 499.672 633.67 500.496 632.463 501.051C631.199 501.607 629.858 501.885 628.44 501.885C626.946 501.885 625.595 501.597 624.388 501.022C623.2 500.448 622.242 499.614 621.514 498.522C620.805 497.411 620.451 496.06 620.451 494.47ZM623.008 494.47C623.008 495.428 623.257 496.233 623.756 496.884C624.235 497.516 624.886 497.986 625.71 498.292C626.495 498.599 627.386 498.752 628.383 498.752C629.34 498.752 630.251 498.618 631.113 498.35C631.956 498.062 632.617 497.603 633.096 496.97C633.594 496.319 633.843 495.485 633.843 494.47C633.843 493.531 633.594 492.755 633.096 492.142C632.617 491.548 631.956 491.088 631.113 490.763C630.251 490.437 629.35 490.274 628.411 490.274C626.955 490.274 625.691 490.648 624.618 491.395C623.545 492.123 623.008 493.148 623.008 494.47ZM623.152 512.167C623.152 513.335 623.612 514.303 624.532 515.069C625.432 515.855 626.783 516.248 628.584 516.248C630.212 516.248 631.486 515.874 632.406 515.127C633.326 514.36 633.785 513.412 633.785 512.282C633.785 511.63 633.623 510.979 633.297 510.327C632.971 509.695 632.416 509.159 631.63 508.718C630.864 508.296 629.81 508.086 628.469 508.086C627.166 508.086 626.131 508.296 625.365 508.718C624.56 509.159 623.995 509.685 623.669 510.299C623.324 510.931 623.152 511.553 623.152 512.167ZM614.789 507.224L614.789 505.93C614.789 505.662 614.866 505.451 615.019 505.298C615.172 505.145 615.383 505.068 615.651 505.068L635.366 505.068C635.634 505.068 635.845 505.145 635.998 505.298C636.152 505.451 636.228 505.662 636.228 505.93L636.228 507.224C636.228 507.492 636.152 507.702 635.998 507.856C635.845 508.009 635.634 508.086 635.366 508.086H635.222C634.648 508.086 634.571 508.296 634.992 508.718C635.337 509.063 635.625 509.465 635.855 509.925C636.257 510.71 636.458 511.63 636.458 512.684C636.458 514.102 636.113 515.309 635.424 516.305C634.715 517.263 633.766 518.02 632.578 518.575C631.41 519.093 630.078 519.351 628.584 519.351C626.265 519.351 624.34 518.748 622.807 517.541C621.255 516.315 620.479 514.686 620.479 512.655C620.479 511.582 620.681 510.653 621.083 509.867C621.409 509.216 621.514 508.756 621.399 508.488C621.303 508.22 620.853 508.086 620.048 508.086L615.651 508.086C615.383 508.086 615.172 508.009 615.019 507.856C614.866 507.702 614.789 507.492 614.789 507.224ZM620.681 524.766L620.681 523.502C620.681 523.234 620.757 523.023 620.91 522.87C621.064 522.716 621.274 522.64 621.543 522.64L635.366 522.64C635.634 522.64 635.845 522.716 635.998 522.87C636.152 523.023 636.228 523.234 636.228 523.502V524.766C636.228 525.035 636.152 525.245 635.998 525.399C635.845 525.552 635.634 525.628 635.366 525.628L621.543 525.628C621.274 525.628 621.064 525.552 620.91 525.399C620.757 525.245 620.681 525.035 620.681 524.766ZM638.987 524.134C638.987 523.617 639.169 523.176 639.533 522.812C639.897 522.448 640.338 522.266 640.855 522.266C641.392 522.266 641.842 522.448 642.206 522.812C642.57 523.176 642.752 523.617 642.752 524.134C642.752 524.671 642.57 525.121 642.206 525.485C641.842 525.849 641.392 526.031 640.855 526.031C640.338 526.031 639.897 525.849 639.533 525.485C639.169 525.121 638.987 524.671 638.987 524.134ZM622.98 534.85C622.98 535.827 623.257 536.594 623.813 537.149C624.35 537.686 625.039 537.954 625.882 537.954L627.118 537.954C627.444 537.954 627.674 537.858 627.808 537.667C627.961 537.494 628.009 537.245 627.951 536.919L627.722 535.655C627.568 534.927 627.425 534.333 627.29 533.873C627.156 533.356 626.926 532.954 626.601 532.666C626.294 532.379 625.844 532.235 625.25 532.235C624.579 532.235 624.033 532.446 623.612 532.867C623.19 533.289 622.98 533.95 622.98 534.85ZM620.566 533.959C620.566 532.465 621.006 531.277 621.888 530.396C622.75 529.495 623.832 529.045 625.135 529.045C626.342 529.045 627.243 529.304 627.836 529.821C628.43 530.338 628.871 531.038 629.158 531.919C629.427 532.781 629.657 533.758 629.848 534.85L630.308 537.264C630.346 537.475 630.442 537.638 630.595 537.753C630.768 537.887 630.959 537.945 631.17 537.925C631.898 537.83 632.492 537.628 632.952 537.322C633.527 536.9 633.814 536.029 633.814 534.707C633.814 533.634 633.584 532.561 633.124 531.488C632.933 531.086 632.904 530.769 633.038 530.539C633.172 530.31 633.46 530.195 633.9 530.195L634.878 530.195C635.031 530.195 635.174 530.233 635.309 530.31C635.462 530.386 635.567 530.501 635.625 530.654C636.199 531.9 636.487 533.337 636.487 534.965C636.487 537.073 635.979 538.605 634.964 539.563C633.91 540.521 632.435 541 630.538 541L621.543 541C621.274 541 621.064 540.924 620.91 540.77C620.757 540.617 620.681 540.406 620.681 540.138L620.681 538.816C620.681 538.586 620.748 538.395 620.882 538.241C621.035 538.107 621.227 538.04 621.456 538.04C621.878 538.04 621.945 537.887 621.658 537.58C621.485 537.389 621.313 537.13 621.14 536.805C620.757 536.134 620.566 535.186 620.566 533.959Z" fill="#329A90"/>
</g>
<g opacity="0.5">
<path d="M624.046 233.035C622.862 270.15 590.339 299.871 550.394 299.871C509.697 299.871 476.684 268.995 476.684 230.927L476.684 93.0381C476.684 54.9411 509.668 24.0938 550.394 24.0938" stroke="#DEC129" stroke-width="5.40117" stroke-miterlimit="10"/>
<path d="M624.042 140.578L624.042 231.127C624.042 231.82 624.042 232.542 624.013 233.236" stroke="#DEC129" stroke-width="5.40117" stroke-miterlimit="10"/>
<path d="M588.787 33.7548L587.512 33.2291C587.281 33.1342 587.121 32.9956 587.03 32.8131C586.947 32.613 586.94 32.403 587.01 32.1832L587.689 30.0075C588.75 26.5282 589.605 23.7512 590.253 21.6766C590.926 19.5915 591.412 18.1858 591.711 17.4596C591.74 17.3887 591.771 17.3392 591.803 17.3111C591.811 17.2934 591.802 17.2898 591.777 17.3002L590.097 19.1879C589.518 19.8401 588.882 20.5522 588.191 21.3241C587.507 22.0784 586.751 22.9066 585.924 23.8088L580.737 29.3798C580.474 29.6652 580.156 29.7313 579.784 29.578L578.562 29.0742C578.19 28.9209 578.015 28.6415 578.037 28.2361L578.378 20.6986C578.404 20.2328 578.439 19.5945 578.483 18.7837C578.534 17.9552 578.591 16.9632 578.653 15.8075C578.705 14.8758 578.758 14.1203 578.81 13.5409C578.862 12.9615 578.897 12.5509 578.914 12.3091C578.925 12.231 578.918 12.1971 578.893 12.2075C578.893 12.2075 578.888 12.2466 578.876 12.3248L578.777 12.5639C578.661 12.8473 578.498 13.2156 578.291 13.6689C578.083 14.1221 577.827 14.6692 577.521 15.31C577.208 15.9685 576.601 17.1896 575.7 18.9734C574.824 20.7468 573.647 23.1006 572.168 26.0347C571.928 26.5161 571.561 26.6546 571.065 26.4501L569.763 25.9135C569.515 25.8113 569.344 25.6476 569.25 25.4225C569.174 25.2047 569.196 24.9754 569.316 24.7347L577.84 7.82554C578.079 7.34416 578.447 7.20569 578.943 7.41012L581.042 8.27529C581.414 8.42861 581.589 8.70796 581.567 9.11334C581.437 13.1005 581.31 16.3743 581.187 18.9347C581.072 21.4775 580.953 23.3246 580.83 24.4761C580.744 25.29 580.986 25.3797 581.559 24.7452L582.472 23.6607C583.106 22.9272 583.785 22.1605 584.508 21.3604C585.232 20.5603 586.02 19.7039 586.873 18.7913L591.941 13.3579C592.203 13.0724 592.521 13.0063 592.893 13.1597L595.045 14.0467C595.258 14.1344 595.406 14.2782 595.489 14.4783C595.579 14.6607 595.599 14.8655 595.546 15.0927L589.946 33.2065C589.871 33.4868 589.722 33.6738 589.497 33.7675C589.289 33.8686 589.053 33.8643 588.787 33.7548Z" fill="#DEC129"/>
<path d="M594.592 38.478L593.567 37.7374C593.349 37.5803 593.223 37.3948 593.189 37.1808C593.155 36.9668 593.216 36.7511 593.373 36.5337L601.469 25.3291C601.626 25.1117 601.811 24.9857 602.025 24.9513C602.239 24.9168 602.455 24.9781 602.673 25.1352L603.698 25.8758C603.915 26.0329 604.041 26.2184 604.075 26.4324C604.11 26.6464 604.048 26.8621 603.891 27.0795L595.796 38.2841C595.638 38.5015 595.453 38.6275 595.239 38.6619C595.025 38.6964 594.809 38.6351 594.592 38.478ZM604.801 23.2692C604.382 22.9663 604.131 22.5606 604.049 22.0524C603.967 21.5441 604.078 21.0803 604.381 20.661C604.695 20.2262 605.106 19.9679 605.614 19.886C606.123 19.8041 606.586 19.9147 607.006 20.2177C607.441 20.5318 607.699 20.9431 607.781 21.4513C607.863 21.9596 607.746 22.4311 607.432 22.866C607.129 23.2853 606.724 23.5358 606.215 23.6177C605.707 23.6996 605.236 23.5834 604.801 23.2692Z" fill="#DEC129"/>
<path d="M606.469 49.1689L605.511 48.2173C605.293 48.0014 605.217 47.7239 605.284 47.385L606.405 42.8288C606.512 42.422 606.47 42.1241 606.28 41.9352C606.09 41.7462 605.791 41.6931 605.385 41.7759L600.695 42.8701C600.384 42.939 600.112 42.8587 599.881 42.6292L599.025 41.7789C598.671 41.4279 598.535 41.1168 598.615 40.8456C598.709 40.5878 598.993 40.4106 599.466 40.3141L606.675 38.8448C606.838 38.8171 606.98 38.7421 607.101 38.6197C607.223 38.4974 607.303 38.348 607.343 38.1718L608.741 31.3386C608.82 30.8777 608.995 30.6061 609.266 30.5238C609.537 30.4415 609.842 30.5691 610.182 30.9066L611.161 31.8784C611.379 32.0944 611.454 32.3718 611.388 32.7108L610.346 36.9415C610.226 37.3619 610.261 37.6666 610.451 37.8555C610.642 38.0445 610.947 38.0908 611.366 37.9944L615.671 36.9219C615.982 36.8531 616.253 36.9334 616.484 37.1628L617.423 38.0942C617.762 38.4316 617.885 38.7292 617.792 38.987C617.711 39.2582 617.434 39.4421 616.96 39.5387L610.056 40.9052C609.663 40.9744 609.434 41.2056 609.368 41.5987L607.91 48.7369C607.831 49.1978 607.656 49.4694 607.385 49.5517C607.128 49.6475 606.823 49.5199 606.469 49.1689Z" fill="#DEC129"/>
<path d="M612.337 57.4354C611.409 56.097 611.076 54.8594 611.337 53.7226C611.578 52.6234 612.336 51.6318 613.611 50.7476L619.846 46.4252C620.067 46.2724 620.196 46.0894 620.235 45.8761C620.274 45.6628 620.217 45.4459 620.064 45.2255L619.671 44.6586C619.518 44.4382 619.461 44.2213 619.5 44.008C619.538 43.7947 619.668 43.6117 619.888 43.4589L620.431 43.0823C620.652 42.9295 620.869 42.8724 621.082 42.911C621.295 42.9497 621.478 43.0792 621.631 43.2997L622.024 43.8665C622.177 44.087 622.36 44.2165 622.573 44.2552C622.787 44.2938 623.003 44.2367 623.224 44.0839L624.901 42.9214C625.121 42.7686 625.338 42.7115 625.551 42.7502C625.765 42.7888 625.948 42.9184 626.101 43.1388L626.837 44.2017C626.99 44.4221 627.047 44.639 627.009 44.8523C626.97 45.0656 626.84 45.2486 626.62 45.4014L624.943 46.5639C624.723 46.7167 624.593 46.8998 624.554 47.113C624.516 47.3263 624.573 47.5432 624.726 47.7636L626.068 49.7004C626.221 49.9208 626.278 50.1377 626.239 50.351C626.201 50.5643 626.071 50.7473 625.851 50.9001L625.308 51.2767C625.087 51.4295 624.87 51.4866 624.657 51.448C624.444 51.4093 624.261 51.2798 624.108 51.0593L622.765 49.1226C622.612 48.9021 622.429 48.7726 622.216 48.734C622.003 48.6953 621.786 48.7524 621.565 48.9052L615.283 53.2604C614.086 54.0899 613.886 55.0794 614.683 56.2289C614.912 56.5595 615.191 56.8441 615.52 57.0826C616.122 57.4809 616.14 57.8766 615.573 58.2695L614.723 58.8589C614.424 59.0663 614.126 59.0744 613.83 58.8831C613.707 58.8056 613.591 58.7227 613.483 58.6343C613.386 58.5617 613.278 58.4733 613.159 58.3691C612.986 58.1863 612.831 58.0137 612.696 57.8514C612.555 57.7158 612.435 57.5771 612.337 57.4354Z" fill="#DEC129"/>
<path d="M618.021 68.2677C617.398 66.8254 617.199 65.4712 617.425 64.2052C617.652 62.8964 618.196 61.764 619.057 60.8081C619.919 59.8094 621.019 59.0214 622.356 58.4441C623.71 57.8591 625.089 57.5974 626.493 57.6588C627.879 57.7279 629.111 58.1144 630.187 58.8182C631.296 59.5497 632.139 60.5838 632.716 61.9206C633.354 63.398 633.563 64.8 633.343 66.1264C633.108 67.4176 632.546 68.5576 631.659 69.5462C630.718 70.5577 629.597 71.3445 628.295 71.9067C626.923 72.4992 625.57 72.771 624.234 72.7219C622.915 72.6652 621.705 72.28 620.604 71.5661C619.512 70.827 618.651 69.7275 618.021 68.2677ZM620.369 67.2535C620.749 68.1329 621.297 68.7729 622.012 69.1734C622.703 69.5639 623.487 69.7366 624.365 69.6913C625.207 69.6613 626.086 69.4487 627.001 69.0537C627.88 68.6739 628.662 68.1899 629.347 67.6018C630.007 67.0037 630.432 66.3195 630.621 65.5491C630.82 64.7536 630.718 63.8897 630.315 62.9575C629.943 62.0957 629.407 61.4821 628.707 61.1168C628.031 60.7614 627.242 60.6014 626.339 60.6366C625.418 60.6795 624.527 60.887 623.665 61.2593C622.329 61.8366 621.316 62.681 620.627 63.7924C619.931 64.8862 619.845 66.0399 620.369 67.2535Z" fill="#DEC129"/>
<path d="M625.679 84.904C625.872 86.0567 626.485 86.9351 627.519 87.5392C628.537 88.1653 629.934 88.3298 631.71 88.0325C633.316 87.7637 634.511 87.185 635.295 86.2962C636.075 85.3886 636.372 84.3773 636.186 83.2624C636.078 82.6199 635.81 82.0043 635.381 81.4156C634.956 80.8458 634.319 80.4084 633.472 80.1034C632.646 79.8142 631.572 79.7802 630.25 80.0016C628.965 80.2166 627.979 80.5952 627.293 81.1374C626.572 81.7049 626.101 82.3178 625.881 82.9763C625.645 83.6568 625.578 84.2994 625.679 84.904ZM616.615 81.409L616.402 80.1335C616.357 79.869 616.398 79.6485 616.524 79.472C616.65 79.2955 616.845 79.1852 617.11 79.1409L636.554 75.887C636.819 75.8427 637.039 75.8835 637.216 76.0094C637.392 76.1353 637.503 76.3305 637.547 76.595L637.76 77.8706C637.805 78.1351 637.764 78.3556 637.638 78.5321C637.512 78.7086 637.317 78.8189 637.052 78.8632L636.911 78.8869C636.344 78.9818 636.303 79.2023 636.788 79.5484C637.185 79.8317 637.535 80.1811 637.838 80.5966C638.364 81.305 638.714 82.1788 638.888 83.2181C639.122 84.6164 638.981 85.8638 638.466 86.9603C637.925 88.0221 637.114 88.9251 636.034 89.6691C634.967 90.3722 633.696 90.8471 632.222 91.0937C629.936 91.4764 627.937 91.1989 626.226 90.2614C624.493 89.3082 623.459 87.8301 623.124 85.827C622.947 84.7688 622.992 83.8191 623.259 82.978C623.473 82.2817 623.501 81.8108 623.343 81.5653C623.204 81.3165 622.738 81.2586 621.945 81.3914L617.608 82.1171C617.343 82.1614 617.123 82.1206 616.946 81.9947C616.77 81.8688 616.659 81.6736 616.615 81.409Z" fill="#DEC129"/>
<path d="M624.182 98.1893L624.163 96.9249C624.159 96.6567 624.233 96.4449 624.384 96.2894C624.535 96.1339 624.744 96.0541 625.012 96.0502L638.834 95.8476C639.103 95.8436 639.314 95.9172 639.47 96.0682C639.625 96.2192 639.705 96.4288 639.709 96.697L639.728 97.9614C639.732 98.2296 639.658 98.4414 639.507 98.5969C639.356 98.7524 639.146 98.8321 638.878 98.8361L625.056 99.0387C624.788 99.0427 624.576 98.9691 624.421 98.8181C624.265 98.6671 624.185 98.4575 624.182 98.1893ZM642.477 97.2887C642.469 96.7715 642.645 96.3282 643.004 95.9589C643.362 95.5896 643.8 95.4011 644.317 95.3935C644.854 95.3857 645.307 95.5611 645.676 95.9197C646.045 96.2784 646.234 96.7163 646.241 97.2335C646.249 97.7699 646.074 98.2228 645.715 98.5921C645.357 98.9615 644.909 99.15 644.373 99.1579C643.855 99.1655 643.412 98.99 643.043 98.6313C642.673 98.2727 642.485 97.8251 642.477 97.2887Z" fill="#DEC129"/>
<path d="M626.469 108.799C626.469 109.776 626.747 110.542 627.302 111.098C627.839 111.634 628.529 111.903 629.372 111.903L630.607 111.903C630.933 111.903 631.163 111.807 631.297 111.615C631.45 111.443 631.498 111.194 631.441 110.868L631.211 109.604C631.058 108.875 630.914 108.282 630.78 107.822C630.646 107.304 630.416 106.902 630.09 106.615C629.783 106.327 629.333 106.184 628.739 106.184C628.069 106.184 627.523 106.394 627.101 106.816C626.68 107.237 626.469 107.898 626.469 108.799ZM624.055 107.908C624.055 106.414 624.495 105.226 625.377 104.344C626.239 103.444 627.321 102.994 628.624 102.994C629.831 102.994 630.732 103.252 631.326 103.77C631.92 104.287 632.36 104.986 632.648 105.867C632.916 106.73 633.146 107.707 633.337 108.799L633.797 111.213C633.836 111.424 633.931 111.586 634.085 111.701C634.257 111.836 634.449 111.893 634.659 111.874C635.388 111.778 635.981 111.577 636.441 111.27C637.016 110.849 637.303 109.977 637.303 108.655C637.303 107.582 637.074 106.509 636.614 105.436C636.422 105.034 636.393 104.718 636.527 104.488C636.662 104.258 636.949 104.143 637.39 104.143L638.367 104.143C638.52 104.143 638.664 104.181 638.798 104.258C638.951 104.335 639.057 104.45 639.114 104.603C639.689 105.848 639.976 107.285 639.976 108.914C639.976 111.021 639.468 112.554 638.453 113.512C637.399 114.47 635.924 114.949 634.027 114.949L625.032 114.949C624.764 114.949 624.553 114.872 624.4 114.719C624.246 114.566 624.17 114.355 624.17 114.087L624.17 112.765C624.17 112.535 624.237 112.343 624.371 112.19C624.524 112.056 624.716 111.989 624.946 111.989C625.367 111.989 625.434 111.836 625.147 111.529C624.974 111.337 624.802 111.079 624.63 110.753C624.246 110.082 624.055 109.134 624.055 107.908Z" fill="#DEC129"/>
</g>
<g opacity="0.5">
<path d="M71.7257 472.38L71.7257 473.759C71.7257 474.009 71.6587 474.21 71.5246 474.363C71.3713 474.516 71.1797 474.602 70.9498 474.622L68.6794 474.823C65.0583 475.168 62.1653 475.436 60.0003 475.628C57.8161 475.8 56.3313 475.886 55.5458 475.886C55.4691 475.886 55.4116 475.877 55.3733 475.857C55.3542 475.857 55.3542 475.867 55.3733 475.886L57.7586 476.72C58.5825 477.007 59.483 477.323 60.4601 477.668C61.4181 478.013 62.4718 478.396 63.6214 478.818L70.7486 481.49C71.1126 481.624 71.2946 481.893 71.2946 482.295L71.2946 483.617C71.2946 484.019 71.1031 484.287 70.7199 484.422L63.6214 486.979C63.1807 487.133 62.5772 487.343 61.8108 487.612C61.0253 487.88 60.0865 488.206 58.9944 488.589C58.1131 488.895 57.3946 489.135 56.839 489.307C56.2834 489.48 55.8906 489.604 55.6607 489.681C55.5841 489.7 55.5553 489.719 55.5745 489.738C55.5745 489.738 55.6128 489.729 55.6895 489.71H55.9481C56.2546 489.71 56.657 489.719 57.1551 489.738C57.6533 489.757 58.2568 489.786 58.9657 489.824C59.6937 489.863 61.054 489.959 63.0466 490.112C65.02 490.246 67.6448 490.438 70.921 490.687C71.4575 490.725 71.7257 491.012 71.7257 491.549L71.7257 492.957C71.7257 493.225 71.6395 493.446 71.4671 493.618C71.2946 493.771 71.0743 493.838 70.8061 493.819L51.9247 492.382C51.3882 492.344 51.12 492.057 51.12 491.52L51.12 489.25C51.12 488.847 51.3116 488.579 51.6948 488.445C55.4308 487.046 58.5059 485.916 60.9199 485.054C63.3148 484.192 65.0679 483.598 66.1791 483.272C66.9647 483.042 66.9551 482.783 66.1504 482.496L64.7997 482.065C63.88 481.758 62.9125 481.423 61.897 481.059C60.8816 480.695 59.7895 480.293 58.6208 479.852L51.666 477.237C51.302 477.103 51.12 476.835 51.12 476.432L51.12 474.104C51.12 473.874 51.1966 473.683 51.3499 473.53C51.484 473.376 51.666 473.281 51.8959 473.242L70.7773 471.518C71.0647 471.48 71.2946 471.547 71.4671 471.719C71.6395 471.872 71.7257 472.093 71.7257 472.38ZM71.7257 465.278L71.7257 466.543C71.7257 466.811 71.6491 467.022 71.4958 467.175C71.3425 467.328 71.1318 467.405 70.8636 467.405L57.0402 467.405C56.7719 467.405 56.5612 467.328 56.4079 467.175C56.2546 467.022 56.178 466.811 56.178 466.543L56.178 465.278C56.178 465.01 56.2546 464.799 56.4079 464.646C56.5612 464.493 56.7719 464.416 57.0402 464.416L70.8636 464.416C71.1318 464.416 71.3425 464.493 71.4958 464.646C71.6491 464.799 71.7257 465.01 71.7257 465.278ZM53.4191 465.911C53.4191 466.428 53.2371 466.869 52.873 467.233C52.509 467.597 52.0684 467.779 51.5511 467.779C51.0146 467.779 50.5644 467.597 50.2003 467.233C49.8363 466.869 49.6543 466.428 49.6543 465.911C49.6543 465.374 49.8363 464.924 50.2003 464.56C50.5644 464.196 51.0146 464.014 51.5511 464.014C52.0684 464.014 52.509 464.196 52.873 464.56C53.2371 464.924 53.4191 465.374 53.4191 465.911ZM71.7257 449.59L71.7257 450.941C71.7257 451.248 71.582 451.497 71.2946 451.688L67.2712 454.102C66.9072 454.313 66.7252 454.553 66.7252 454.821C66.7252 455.089 66.8976 455.338 67.2425 455.568L71.3234 458.126C71.5916 458.298 71.7257 458.547 71.7257 458.873L71.7257 460.08C71.7257 460.578 71.6012 460.894 71.3521 461.028C71.1031 461.143 70.7773 461.067 70.375 460.798L64.2536 456.718C64.1195 456.622 63.9662 456.574 63.7938 456.574C63.6214 456.574 63.4585 456.622 63.3052 456.718L57.4713 460.54C57.0881 460.808 56.7719 460.875 56.5229 460.741C56.2738 460.607 56.1493 460.3 56.1493 459.821L56.1493 458.442C56.1493 458.135 56.293 457.886 56.5804 457.695L60.3164 455.453C60.6996 455.242 60.8912 455.003 60.8912 454.735C60.8912 454.466 60.7092 454.217 60.3451 453.987L56.5516 451.688C56.2834 451.516 56.1493 451.267 56.1493 450.941L56.1493 449.619C56.1493 449.14 56.2738 448.843 56.5229 448.728C56.7719 448.594 57.0977 448.661 57.5 448.929L63.334 452.867C63.6597 453.096 63.9854 453.096 64.3111 452.867L70.4037 448.872C70.7869 448.604 71.1031 448.537 71.3521 448.671C71.6012 448.786 71.7257 449.092 71.7257 449.59ZM71.8694 439.8C71.8694 441.428 71.4383 442.635 70.5762 443.421C69.7523 444.187 68.5645 444.57 67.0126 444.57L59.4255 444.57C59.1573 444.57 58.9465 444.647 58.7932 444.8C58.64 444.954 58.5633 445.164 58.5633 445.433L58.5633 446.122C58.5633 446.391 58.4867 446.601 58.3334 446.755C58.1802 446.908 57.9694 446.985 57.7012 446.985L57.0402 446.985C56.7719 446.985 56.5612 446.908 56.4079 446.755C56.2546 446.601 56.178 446.391 56.178 446.122L56.178 445.433C56.178 445.164 56.1014 444.954 55.9481 444.8C55.7948 444.647 55.5841 444.57 55.3158 444.57L53.2754 444.57C53.0072 444.57 52.7964 444.494 52.6431 444.341C52.4899 444.187 52.4132 443.977 52.4132 443.708L52.4132 442.415C52.4132 442.147 52.4899 441.936 52.6431 441.783C52.7964 441.63 53.0072 441.553 53.2754 441.553L55.3158 441.553C55.5841 441.553 55.7948 441.476 55.9481 441.323C56.1014 441.17 56.178 440.959 56.178 440.691L56.178 438.334C56.178 438.066 56.2546 437.855 56.4079 437.702C56.5612 437.549 56.7719 437.472 57.0402 437.472L57.7012 437.472C57.9694 437.472 58.1802 437.549 58.3334 437.702C58.4867 437.855 58.5633 438.066 58.5633 438.334L58.5633 440.691C58.5633 440.959 58.64 441.17 58.7932 441.323C58.9465 441.476 59.1573 441.553 59.4255 441.553L67.07 441.553C68.5261 441.553 69.2542 440.854 69.2542 439.455C69.2542 439.053 69.1871 438.66 69.053 438.277C68.7848 437.606 68.9955 437.271 69.6853 437.271L70.7199 437.271C71.0839 437.271 71.333 437.434 71.4671 437.759C71.5246 437.893 71.5725 438.028 71.6108 438.162C71.6491 438.277 71.6874 438.411 71.7257 438.564C71.764 438.813 71.7928 439.043 71.8119 439.254C71.8503 439.445 71.8694 439.627 71.8694 439.8ZM71.9556 427.741C71.9556 429.312 71.6012 430.634 70.8923 431.707C70.1642 432.818 69.2159 433.642 68.0472 434.178C66.8593 434.753 65.5373 435.041 64.0812 435.041C62.6059 435.041 61.236 434.734 59.9715 434.121C58.7262 433.508 57.7491 432.665 57.0402 431.592C56.3121 430.481 55.9481 429.197 55.9481 427.741C55.9481 426.132 56.3121 424.762 57.0402 423.631C57.7682 422.539 58.7358 421.715 59.9428 421.16C61.2073 420.604 62.5485 420.326 63.9662 420.326C65.4607 420.326 66.8114 420.614 68.0184 421.189C69.2063 421.763 70.1642 422.597 70.8923 423.689C71.6012 424.8 71.9556 426.151 71.9556 427.741ZM69.3979 427.741C69.3979 426.783 69.1488 425.978 68.6507 425.327C68.1717 424.695 67.5203 424.225 66.6964 423.919C65.9109 423.612 65.02 423.459 64.0237 423.459C63.0658 423.459 62.1557 423.593 61.2935 423.861C60.4505 424.149 59.7895 424.608 59.3105 425.241C58.8124 425.892 58.5633 426.726 58.5633 427.741C58.5633 428.68 58.8124 429.456 59.3105 430.069C59.7895 430.663 60.4505 431.123 61.2935 431.448C62.1557 431.774 63.0562 431.937 63.995 431.937C65.4511 431.937 66.7156 431.563 67.7885 430.816C68.8614 430.088 69.3979 429.063 69.3979 427.741ZM69.2542 410.044C69.2542 408.876 68.7944 407.908 67.8747 407.142C66.9742 406.356 65.6235 405.963 63.8225 405.963C62.194 405.963 60.9199 406.337 60.0003 407.084C59.0806 407.851 58.6208 408.799 58.6208 409.929C58.6208 410.581 58.7837 411.232 59.1094 411.884C59.4351 412.516 59.9907 413.052 60.7762 413.493C61.5426 413.915 62.5964 414.125 63.9375 414.125C65.2403 414.125 66.2749 413.915 67.0413 413.493C67.846 413.052 68.4112 412.525 68.7369 411.912C69.0818 411.28 69.2542 410.657 69.2542 410.044ZM77.6172 414.987L77.6172 416.281C77.6172 416.549 77.5406 416.76 77.3873 416.913C77.234 417.066 77.0233 417.143 76.755 417.143L57.0402 417.143C56.7719 417.143 56.5612 417.066 56.4079 416.913C56.2546 416.76 56.178 416.549 56.178 416.281L56.178 414.987C56.178 414.719 56.2546 414.508 56.4079 414.355C56.5612 414.202 56.7719 414.125 57.0402 414.125H57.1839C57.7586 414.125 57.8353 413.915 57.4138 413.493C57.0689 413.148 56.7815 412.746 56.5516 412.286C56.1493 411.5 55.9481 410.581 55.9481 409.527C55.9481 408.109 56.293 406.902 56.9827 405.906C57.6916 404.948 58.64 404.191 59.8278 403.636C60.9966 403.118 62.3281 402.86 63.8225 402.86C66.1408 402.86 68.0663 403.463 69.5991 404.67C71.1509 405.896 71.9269 407.525 71.9269 409.556C71.9269 410.629 71.7257 411.558 71.3234 412.343C70.9977 412.995 70.8923 413.455 71.0073 413.723C71.1031 413.991 71.5533 414.125 72.358 414.125L76.755 414.125C77.0233 414.125 77.234 414.202 77.3873 414.355C77.5406 414.508 77.6172 414.719 77.6172 414.987ZM71.7257 397.445L71.7257 398.709C71.7257 398.977 71.6491 399.188 71.4958 399.341C71.3425 399.495 71.1318 399.571 70.8636 399.571L57.0402 399.571C56.7719 399.571 56.5612 399.495 56.4079 399.341C56.2546 399.188 56.178 398.977 56.178 398.709L56.178 397.445C56.178 397.176 56.2546 396.966 56.4079 396.812C56.5612 396.659 56.7719 396.582 57.0402 396.582L70.8636 396.582C71.1318 396.582 71.3425 396.659 71.4958 396.812C71.6491 396.966 71.7257 397.176 71.7257 397.445ZM53.4191 398.077C53.4191 398.594 53.2371 399.035 52.873 399.399C52.509 399.763 52.0684 399.945 51.5511 399.945C51.0146 399.945 50.5644 399.763 50.2003 399.399C49.8363 399.035 49.6543 398.594 49.6543 398.077C49.6543 397.54 49.8363 397.09 50.2003 396.726C50.5644 396.362 51.0146 396.18 51.5511 396.18C52.0684 396.18 52.509 396.362 52.873 396.726C53.2371 397.09 53.4191 397.54 53.4191 398.077ZM69.4266 387.361C69.4266 386.384 69.1488 385.617 68.5932 385.062C68.0567 384.525 67.367 384.257 66.524 384.257L65.2882 384.257C64.9625 384.257 64.7326 384.353 64.5985 384.544C64.4452 384.717 64.3973 384.966 64.4548 385.291L64.6847 386.556C64.838 387.284 64.9817 387.878 65.1158 388.338C65.2499 388.855 65.4798 389.257 65.8055 389.545C66.1121 389.832 66.5623 389.976 67.1562 389.976C67.8268 389.976 68.3729 389.765 68.7944 389.344C69.2159 388.922 69.4266 388.261 69.4266 387.361ZM71.8407 388.252C71.8407 389.746 71.4 390.934 70.5187 391.815C69.6565 392.716 68.574 393.166 67.2712 393.166C66.0642 393.166 65.1637 392.907 64.5698 392.39C63.9758 391.873 63.5352 391.173 63.2478 390.292C62.9795 389.43 62.7496 388.453 62.558 387.361L62.0982 384.947C62.0599 384.736 61.9641 384.573 61.8108 384.458C61.6384 384.324 61.4468 384.266 61.236 384.286C60.508 384.381 59.9141 384.583 59.4542 384.889C58.8795 385.311 58.5921 386.182 58.5921 387.504C58.5921 388.577 58.822 389.65 59.2818 390.723C59.4734 391.125 59.5021 391.442 59.368 391.671C59.2339 391.901 58.9465 392.016 58.5059 392.016L57.5287 392.016C57.3755 392.016 57.2318 391.978 57.0977 391.901C56.9444 391.825 56.839 391.71 56.7815 391.557C56.2068 390.311 55.9194 388.874 55.9194 387.246C55.9194 385.138 56.4271 383.605 57.4425 382.647C58.4963 381.69 59.9715 381.211 61.8683 381.211L70.8636 381.211C71.1318 381.211 71.3425 381.287 71.4958 381.44C71.6491 381.594 71.7257 381.804 71.7257 382.073L71.7257 383.395C71.7257 383.625 71.6587 383.816 71.5246 383.969C71.3713 384.104 71.1797 384.171 70.9498 384.171C70.5283 384.171 70.4612 384.324 70.7486 384.63C70.921 384.822 71.0935 385.081 71.2659 385.406C71.6491 386.077 71.8407 387.025 71.8407 388.252Z" fill="#EDD4E2"/>
<path d="M71.8027 367.534L71.8027 368.863C72.7848 331.979 103.026 301.045 140.141 301.045C141.296 301.045 142.451 301.045 143.578 301.132L278.751 301.132C316.819 301.132 347.667 332.008 347.667 370.076C347.667 408.144 378.514 439.02 416.582 439.02C454.65 439.02 485.498 469.897 485.498 507.965L485.498 645.853C485.498 683.921 454.65 714.798 416.582 714.798L415.109 714.798C381.951 714.798 347.378 742.526 347.696 783.742C347.696 821.81 316.848 852.686 278.78 852.686C240.712 852.686 209.865 821.81 209.865 783.742L209.865 643.716C205.821 607.496 175.176 579.393 137.888 579.393L142.018 579.393C113.308 579.393 88.7283 561.428 78.6192 535.952C74.2578 526.941 71.8027 516.832 71.8027 506.174M71.8027 506.174C71.8027 505.538 71.8027 504.932 71.8605 504.296L71.8027 506.174Z" stroke="#EDD4E2" stroke-width="5.77665" stroke-miterlimit="10"/>
</g>
<g opacity="0.5">
<path d="M626.721 1027.52L626.721 1026.14C626.721 1025.89 626.788 1025.69 626.922 1025.54C627.075 1025.38 627.267 1025.3 627.497 1025.28L629.767 1025.08C633.388 1024.73 636.281 1024.46 638.446 1024.27C640.63 1024.1 642.115 1024.01 642.901 1024.01C642.977 1024.01 643.035 1024.02 643.073 1024.04C643.092 1024.04 643.092 1024.03 643.073 1024.01L640.688 1023.18C639.864 1022.89 638.963 1022.58 637.986 1022.23C637.028 1021.89 635.974 1021.5 634.825 1021.08L627.698 1018.41C627.334 1018.28 627.152 1018.01 627.152 1017.61V1016.28C627.152 1015.88 627.343 1015.61 627.726 1015.48L634.825 1012.92C635.266 1012.77 635.869 1012.56 636.635 1012.29C637.421 1012.02 638.36 1011.69 639.452 1011.31C640.333 1011.01 641.052 1010.77 641.607 1010.59C642.163 1010.42 642.556 1010.3 642.786 1010.22C642.862 1010.2 642.891 1010.18 642.872 1010.16C642.872 1010.16 642.833 1010.17 642.757 1010.19H642.498C642.192 1010.19 641.789 1010.18 641.291 1010.16C640.793 1010.14 640.19 1010.11 639.481 1010.08C638.753 1010.04 637.392 1009.94 635.4 1009.79C633.426 1009.65 630.801 1009.46 627.525 1009.21C626.989 1009.18 626.721 1008.89 626.721 1008.35L626.721 1006.94C626.721 1006.68 626.807 1006.45 626.979 1006.28C627.152 1006.13 627.372 1006.06 627.64 1006.08L646.522 1007.52C647.058 1007.56 647.326 1007.84 647.326 1008.38L647.326 1010.65C647.326 1011.05 647.135 1011.32 646.752 1011.46C643.015 1012.85 639.94 1013.98 637.526 1014.85C635.131 1015.71 633.378 1016.3 632.267 1016.63C631.482 1016.86 631.491 1017.12 632.296 1017.4L633.647 1017.84C634.566 1018.14 635.534 1018.48 636.549 1018.84C637.565 1019.21 638.657 1019.61 639.825 1020.05L646.78 1022.66C647.144 1022.8 647.326 1023.07 647.326 1023.47L647.326 1025.8C647.326 1026.03 647.25 1026.22 647.096 1026.37C646.962 1026.52 646.78 1026.62 646.55 1026.66L627.669 1028.38C627.382 1028.42 627.152 1028.35 626.979 1028.18C626.807 1028.03 626.721 1027.81 626.721 1027.52ZM626.721 1034.62L626.721 1033.36C626.721 1033.09 626.797 1032.88 626.95 1032.73C627.104 1032.57 627.314 1032.5 627.583 1032.5L641.406 1032.5C641.674 1032.5 641.885 1032.57 642.038 1032.73C642.192 1032.88 642.268 1033.09 642.268 1033.36L642.268 1034.62C642.268 1034.89 642.192 1035.1 642.038 1035.25C641.885 1035.41 641.674 1035.48 641.406 1035.48L627.583 1035.48C627.314 1035.48 627.104 1035.41 626.95 1035.25C626.797 1035.1 626.721 1034.89 626.721 1034.62ZM645.027 1033.99C645.027 1033.47 645.209 1033.03 645.573 1032.67C645.937 1032.3 646.378 1032.12 646.895 1032.12C647.432 1032.12 647.882 1032.3 648.246 1032.67C648.61 1033.03 648.792 1033.47 648.792 1033.99C648.792 1034.53 648.61 1034.98 648.246 1035.34C647.882 1035.7 647.432 1035.89 646.895 1035.89C646.378 1035.89 645.937 1035.7 645.573 1035.34C645.209 1034.98 645.027 1034.53 645.027 1033.99ZM626.721 1050.31L626.721 1048.96C626.721 1048.65 626.864 1048.4 627.152 1048.21L631.175 1045.8C631.539 1045.59 631.721 1045.35 631.721 1045.08C631.721 1044.81 631.549 1044.56 631.204 1044.33L627.123 1041.77C626.855 1041.6 626.721 1041.35 626.721 1041.03L626.721 1039.82C626.721 1039.32 626.845 1039.01 627.094 1038.87C627.343 1038.76 627.669 1038.83 628.071 1039.1L634.193 1043.18C634.327 1043.28 634.48 1043.33 634.652 1043.33C634.825 1043.33 634.988 1043.28 635.141 1043.18L640.975 1039.36C641.358 1039.09 641.674 1039.03 641.923 1039.16C642.172 1039.29 642.297 1039.6 642.297 1040.08L642.297 1041.46C642.297 1041.77 642.153 1042.01 641.866 1042.21L638.13 1044.45C637.747 1044.66 637.555 1044.9 637.555 1045.17C637.555 1045.43 637.737 1045.68 638.101 1045.91L641.895 1048.21C642.163 1048.38 642.297 1048.63 642.297 1048.96V1050.28C642.297 1050.76 642.172 1051.06 641.923 1051.17C641.674 1051.31 641.349 1051.24 640.946 1050.97L635.112 1047.03C634.787 1046.8 634.461 1046.8 634.135 1047.03L628.043 1051.03C627.659 1051.3 627.343 1051.36 627.094 1051.23C626.845 1051.11 626.721 1050.81 626.721 1050.31ZM626.577 1060.1C626.577 1058.47 627.008 1057.26 627.87 1056.48C628.694 1055.71 629.882 1055.33 631.434 1055.33L639.021 1055.33C639.289 1055.33 639.5 1055.25 639.653 1055.1C639.806 1054.95 639.883 1054.74 639.883 1054.47L639.883 1053.78C639.883 1053.51 639.96 1053.3 640.113 1053.15C640.266 1052.99 640.477 1052.92 640.745 1052.92H641.406C641.674 1052.92 641.885 1052.99 642.038 1053.15C642.192 1053.3 642.268 1053.51 642.268 1053.78L642.268 1054.47C642.268 1054.74 642.345 1054.95 642.498 1055.1C642.651 1055.25 642.862 1055.33 643.13 1055.33L645.171 1055.33C645.439 1055.33 645.65 1055.41 645.803 1055.56C645.956 1055.71 646.033 1055.92 646.033 1056.19L646.033 1057.49C646.033 1057.75 645.956 1057.96 645.803 1058.12C645.65 1058.27 645.439 1058.35 645.171 1058.35H643.13C642.862 1058.35 642.651 1058.42 642.498 1058.58C642.345 1058.73 642.268 1058.94 642.268 1059.21L642.268 1061.57C642.268 1061.83 642.192 1062.05 642.038 1062.2C641.885 1062.35 641.674 1062.43 641.406 1062.43H640.745C640.477 1062.43 640.266 1062.35 640.113 1062.2C639.96 1062.05 639.883 1061.83 639.883 1061.57L639.883 1059.21C639.883 1058.94 639.806 1058.73 639.653 1058.58C639.5 1058.42 639.289 1058.35 639.021 1058.35L631.376 1058.35C629.92 1058.35 629.192 1059.05 629.192 1060.45C629.192 1060.85 629.259 1061.24 629.393 1061.62C629.662 1062.29 629.451 1062.63 628.761 1062.63H627.726C627.362 1062.63 627.113 1062.47 626.979 1062.14C626.922 1062.01 626.874 1061.87 626.836 1061.74C626.797 1061.62 626.759 1061.49 626.721 1061.34C626.682 1061.09 626.654 1060.86 626.634 1060.65C626.596 1060.46 626.577 1060.27 626.577 1060.1ZM626.491 1072.16C626.491 1070.59 626.845 1069.27 627.554 1068.19C628.282 1067.08 629.23 1066.26 630.399 1065.72C631.587 1065.15 632.909 1064.86 634.365 1064.86C635.84 1064.86 637.21 1065.17 638.475 1065.78C639.72 1066.39 640.697 1067.24 641.406 1068.31C642.134 1069.42 642.498 1070.7 642.498 1072.16C642.498 1073.77 642.134 1075.14 641.406 1076.27C640.678 1077.36 639.711 1078.19 638.503 1078.74C637.239 1079.3 635.898 1079.57 634.48 1079.57C632.986 1079.57 631.635 1079.29 630.428 1078.71C629.24 1078.14 628.282 1077.3 627.554 1076.21C626.845 1075.1 626.491 1073.75 626.491 1072.16ZM629.048 1072.16C629.048 1073.12 629.297 1073.92 629.796 1074.57C630.275 1075.21 630.926 1075.68 631.75 1075.98C632.535 1076.29 633.426 1076.44 634.423 1076.44C635.381 1076.44 636.291 1076.31 637.153 1076.04C637.996 1075.75 638.657 1075.29 639.136 1074.66C639.634 1074.01 639.883 1073.17 639.883 1072.16C639.883 1071.22 639.634 1070.44 639.136 1069.83C638.657 1069.24 637.996 1068.78 637.153 1068.45C636.291 1068.13 635.39 1067.96 634.451 1067.96C632.995 1067.96 631.731 1068.34 630.658 1069.08C629.585 1069.81 629.048 1070.84 629.048 1072.16Z" fill="#62BA6E"/>
<path d="M629.221 1089.89C629.221 1091.06 629.681 1092.03 630.601 1092.79C631.501 1093.58 632.852 1093.97 634.653 1093.97C636.282 1093.97 637.556 1093.6 638.475 1092.85C639.395 1092.08 639.855 1091.13 639.855 1090C639.855 1089.35 639.692 1088.7 639.366 1088.05C639.041 1087.42 638.485 1086.88 637.699 1086.44C636.933 1086.02 635.879 1085.81 634.538 1085.81C633.235 1085.81 632.201 1086.02 631.434 1086.44C630.63 1086.88 630.064 1087.41 629.739 1088.02C629.394 1088.65 629.221 1089.28 629.221 1089.89ZM620.858 1084.95L620.858 1083.65C620.858 1083.38 620.935 1083.17 621.088 1083.02C621.242 1082.87 621.452 1082.79 621.721 1082.79L641.435 1082.79C641.704 1082.79 641.914 1082.87 642.068 1083.02C642.221 1083.17 642.298 1083.38 642.298 1083.65V1084.95C642.298 1085.21 642.221 1085.42 642.068 1085.58C641.914 1085.73 641.704 1085.81 641.435 1085.81H641.292C640.717 1085.81 640.64 1086.02 641.062 1086.44C641.407 1086.79 641.694 1087.19 641.924 1087.65C642.326 1088.43 642.527 1089.35 642.527 1090.41C642.527 1091.82 642.183 1093.03 641.493 1094.03C640.784 1094.99 639.836 1095.74 638.648 1096.3C637.479 1096.82 636.147 1097.07 634.653 1097.07C632.335 1097.07 630.409 1096.47 628.877 1095.26C627.325 1094.04 626.549 1092.41 626.549 1090.38C626.549 1089.3 626.75 1088.38 627.152 1087.59C627.478 1086.94 627.583 1086.48 627.468 1086.21C627.373 1085.94 626.922 1085.81 626.118 1085.81L621.721 1085.81C621.452 1085.81 621.242 1085.73 621.088 1085.58C620.935 1085.42 620.858 1085.21 620.858 1084.95ZM626.75 1102.49L626.75 1101.22C626.75 1100.96 626.826 1100.75 626.98 1100.59C627.133 1100.44 627.344 1100.36 627.612 1100.36L641.435 1100.36C641.704 1100.36 641.914 1100.44 642.068 1100.59C642.221 1100.75 642.298 1100.96 642.298 1101.22L642.298 1102.49C642.298 1102.76 642.221 1102.97 642.068 1103.12C641.914 1103.27 641.704 1103.35 641.435 1103.35L627.612 1103.35C627.344 1103.35 627.133 1103.27 626.98 1103.12C626.826 1102.97 626.75 1102.76 626.75 1102.49ZM645.057 1101.86C645.057 1101.34 645.239 1100.9 645.603 1100.53C645.967 1100.17 646.407 1099.99 646.925 1099.99C647.461 1099.99 647.911 1100.17 648.275 1100.53C648.639 1100.9 648.821 1101.34 648.821 1101.86C648.821 1102.39 648.639 1102.84 648.275 1103.21C647.911 1103.57 647.461 1103.75 646.925 1103.75C646.407 1103.75 645.967 1103.57 645.603 1103.21C645.239 1102.84 645.057 1102.39 645.057 1101.86ZM629.049 1112.57C629.049 1113.55 629.327 1114.32 629.882 1114.87C630.419 1115.41 631.109 1115.68 631.952 1115.68H633.187C633.513 1115.68 633.743 1115.58 633.877 1115.39C634.03 1115.22 634.078 1114.97 634.021 1114.64L633.791 1113.38C633.638 1112.65 633.494 1112.06 633.36 1111.6C633.226 1111.08 632.996 1110.68 632.67 1110.39C632.364 1110.1 631.913 1109.96 631.319 1109.96C630.649 1109.96 630.103 1110.17 629.681 1110.59C629.26 1111.01 629.049 1111.67 629.049 1112.57ZM626.635 1111.68C626.635 1110.19 627.076 1109 627.957 1108.12C628.819 1107.22 629.902 1106.77 631.204 1106.77C632.411 1106.77 633.312 1107.03 633.906 1107.54C634.5 1108.06 634.94 1108.76 635.228 1109.64C635.496 1110.5 635.726 1111.48 635.918 1112.57L636.377 1114.99C636.416 1115.2 636.511 1115.36 636.665 1115.48C636.837 1115.61 637.029 1115.67 637.24 1115.65C637.968 1115.55 638.562 1115.35 639.021 1115.04C639.596 1114.62 639.884 1113.75 639.884 1112.43C639.884 1111.36 639.654 1110.28 639.194 1109.21C639.002 1108.81 638.973 1108.49 639.108 1108.26C639.242 1108.03 639.529 1107.92 639.97 1107.92L640.947 1107.92C641.1 1107.92 641.244 1107.96 641.378 1108.03C641.531 1108.11 641.637 1108.22 641.694 1108.38C642.269 1109.62 642.556 1111.06 642.556 1112.69C642.556 1114.8 642.049 1116.33 641.033 1117.29C639.979 1118.24 638.504 1118.72 636.607 1118.72L627.612 1118.72C627.344 1118.72 627.133 1118.65 626.98 1118.49C626.826 1118.34 626.75 1118.13 626.75 1117.86L626.75 1116.54C626.75 1116.31 626.817 1116.12 626.951 1115.96C627.104 1115.83 627.296 1115.76 627.526 1115.76C627.947 1115.76 628.014 1115.61 627.727 1115.3C627.555 1115.11 627.382 1114.85 627.21 1114.53C626.826 1113.86 626.635 1112.91 626.635 1111.68Z" fill="#62BA6E"/>
<path d="M623.441 994.862L623.441 925.6C623.441 925.138 623.441 924.676 623.441 924.214C623.441 886.781 593.605 856.309 556.403 855.327V855.27L418.514 855.27V855.327C417.879 855.327 417.244 855.27 416.608 855.27C378.54 855.27 347.664 886.146 347.664 924.214C347.664 924.445 347.664 924.705 347.664 924.936C347.317 962.109 317.625 992.205 280.597 993.187L140.831 993.187C122.114 993.187 105.131 1000.64 92.7111 1012.77C80.2913 1024.87 72.4351 1041.65 71.9152 1060.25H71.8574L71.8574 1198.14H71.9152C71.9152 1198.78 71.8574 1199.41 71.8574 1200.05C71.8574 1238.12 102.734 1268.99 140.802 1268.99C178.87 1268.99 209.746 1238.12 209.746 1200.05C209.746 1180.99 217.458 1163.77 229.936 1151.29C242.413 1138.82 259.656 1131.1 278.69 1131.1C316.788 1131.1 347.635 1161.95 347.635 1200.05C347.635 1219.08 355.347 1236.33 367.824 1248.8C380.302 1261.28 397.545 1268.99 416.579 1268.99C416.955 1268.99 417.33 1268.99 417.677 1268.99L553.341 1268.99C553.717 1268.99 554.092 1268.99 554.468 1268.99C592.536 1268.99 623.412 1238.12 623.412 1200.05C623.412 1199.41 623.412 1198.78 623.355 1198.14H623.412L623.412 1133.99" stroke="#62BA6E" stroke-width="5.40117" stroke-miterlimit="10"/>
</g>
<g opacity="0.5">
<path d="M163.278 25.2754L407.746 25.2754C445.814 25.2754 476.69 56.1516 476.69 94.2198C476.69 144.303 445.15 173.707 407.082 173.707C375.917 172.753 347.987 196.986 347.611 232.108C347.611 270.206 307.926 301.053 269.857 301.053L131.969 301.053C93.9006 301.053 63.0244 270.177 63.0244 232.108L63.0244 163.164L63.0244 118.828" stroke="#193070" stroke-width="5.40117" stroke-miterlimit="10"/>
<path d="M72.6821 75.6162L72.482 76.9811C72.4459 77.2275 72.3503 77.4169 72.1954 77.5491C72.0215 77.6785 71.8194 77.736 71.5892 77.7216L69.3136 77.5913C65.6808 77.4073 62.7795 77.2531 60.6096 77.1286C58.4235 76.9824 56.9419 76.8524 56.1647 76.7384C56.0888 76.7273 56.0333 76.7095 55.9982 76.685C55.9793 76.6822 55.9779 76.6917 55.994 76.7134L58.2333 77.884C59.0067 78.2879 59.8518 78.7313 60.7686 79.2142C61.6664 79.6944 62.6534 80.2264 63.7297 80.8101L70.3939 84.4884C70.7346 84.6739 70.8758 84.9657 70.8174 85.3637L70.6257 86.6718C70.5673 87.0698 70.3388 87.3074 69.9403 87.3846L62.5458 88.8857C62.0876 88.9734 61.4599 89.0944 60.6627 89.2486C59.8466 89.4001 58.8705 89.5862 57.7344 89.8069C56.8179 89.9824 56.0723 90.1151 55.4975 90.2051C54.9228 90.2951 54.5161 90.3614 54.2775 90.4039C54.1989 90.4117 54.1677 90.4265 54.1839 90.4482C54.1839 90.4482 54.2232 90.4443 54.3018 90.4365L54.5577 90.474C54.861 90.5185 55.2577 90.5863 55.7478 90.6775C56.2379 90.7687 56.8309 90.8847 57.5267 91.0254C58.2415 91.1689 59.5735 91.461 61.5228 91.9017C63.4558 92.3206 66.0251 92.8909 69.2306 93.6126C69.7558 93.7283 69.9795 94.0515 69.9017 94.5823L69.6974 95.9756C69.6585 96.241 69.5413 96.4465 69.3456 96.5921C69.1528 96.7188 68.9251 96.7531 68.6625 96.6953L50.1891 92.5348C49.6639 92.4191 49.4402 92.0959 49.518 91.5651L49.8473 89.3187C49.9057 88.9206 50.1342 88.683 50.5328 88.6059C54.4322 87.764 57.6387 87.0916 60.1522 86.5887C62.6469 86.083 64.4676 85.7496 65.6143 85.5885C66.4248 85.475 66.4529 85.2177 65.6984 84.8166L64.4245 84.1942C63.559 83.7575 62.6503 83.2854 61.6984 82.778C60.7465 82.2705 59.7244 81.714 58.6319 81.1085L52.13 77.5121C51.7893 77.3266 51.6481 77.0348 51.7065 76.6367L52.0441 74.3335C52.0775 74.106 52.1811 73.9276 52.355 73.7982C52.5099 73.666 52.7039 73.5976 52.9369 73.593L71.8688 74.6256C72.1587 74.6294 72.3764 74.7291 72.522 74.9247C72.6704 75.1014 72.7238 75.3319 72.6821 75.6162Z" fill="#193070"/>
<path d="M75.8334 68.8669L75.3632 70.0408C75.2634 70.2898 75.1139 70.4569 74.9146 70.5422C74.7154 70.6275 74.4912 70.6203 74.2422 70.5205L61.4101 65.3802C61.1611 65.2805 60.994 65.131 60.9087 64.9317C60.8234 64.7324 60.8306 64.5083 60.9304 64.2593L61.4006 63.0855C61.5003 62.8365 61.6498 62.6693 61.8491 62.584C62.0484 62.4988 62.2725 62.506 62.5215 62.6057L75.3536 67.746C75.6026 67.8457 75.7698 67.9953 75.8551 68.1945C75.9403 68.3938 75.9331 68.618 75.8334 68.8669ZM58.6044 62.6465C58.412 63.1267 58.0792 63.4681 57.6059 63.6706C57.1326 63.8732 56.6559 63.8783 56.1757 63.6859C55.6777 63.4864 55.3274 63.15 55.1248 62.6767C54.9223 62.2035 54.9172 61.7267 55.1096 61.2465C55.309 60.7485 55.6454 60.3983 56.1187 60.1957C56.592 59.9931 57.0776 59.9916 57.5756 60.1911C58.0558 60.3834 58.3972 60.7163 58.5998 61.1896C58.8023 61.6628 58.8039 62.1485 58.6044 62.6465Z" fill="#193070"/>
<path d="M83.3439 54.7153L82.6513 55.8749C82.4941 56.138 82.243 56.2782 81.898 56.2953L77.2059 56.3046C76.7853 56.2989 76.5063 56.4112 76.3687 56.6414C76.2312 56.8717 76.2515 57.174 76.4297 57.5482L78.6216 61.8367C78.7635 62.1223 78.7509 62.4049 78.5839 62.6845L77.9649 63.7208C77.7095 64.1484 77.4404 64.356 77.1578 64.3434C76.8851 64.3144 76.6447 64.0815 76.4369 63.645L73.2742 57.0024C73.2082 56.8514 73.1012 56.7317 72.9532 56.6433C72.8051 56.5549 72.6408 56.5125 72.46 56.5161L65.4915 56.806C65.025 56.8397 64.7192 56.7352 64.5741 56.4923C64.4291 56.2495 64.4793 55.9225 64.725 55.5112L65.4323 54.327C65.5895 54.0638 65.8406 53.9236 66.1856 53.9065L70.5425 53.8979C70.9796 53.9134 71.2669 53.8061 71.4044 53.5758C71.5419 53.3455 71.5134 53.0384 71.3188 52.6543L69.241 48.7352C69.0991 48.4496 69.1117 48.167 69.2787 47.8874L69.9566 46.7524C70.2022 46.3412 70.4614 46.1501 70.7342 46.1792C71.0168 46.1918 71.262 46.4163 71.4699 46.8529L74.4595 53.2247C74.6212 53.5891 74.9008 53.7561 75.2984 53.7258L82.5774 53.4205C83.0439 53.3868 83.3497 53.4913 83.4948 53.7342C83.6496 53.9606 83.5994 54.2876 83.3439 54.7153Z" fill="#193070"/>
<path d="M89.9331 47.0763C88.8576 48.2992 87.7368 48.9209 86.5706 48.9414C85.4459 48.9728 84.3008 48.4761 83.1355 47.4513L77.4382 42.4408C77.2368 42.2637 77.0279 42.182 76.8116 42.1959C76.5953 42.2098 76.3986 42.3174 76.2214 42.5189L75.7659 43.0368C75.5888 43.2382 75.3921 43.3458 75.1758 43.3597C74.9595 43.3736 74.7506 43.292 74.5492 43.1148L74.0528 42.6783C73.8514 42.5012 73.7437 42.3044 73.7299 42.0881C73.716 41.8718 73.7976 41.6629 73.9748 41.4615L74.4303 40.9436C74.6074 40.7422 74.689 40.5333 74.6752 40.317C74.6613 40.1007 74.5536 39.9039 74.3522 39.7268L72.82 38.3793C72.6186 38.2022 72.5109 38.0054 72.4971 37.7891C72.4832 37.5728 72.5648 37.3639 72.742 37.1625L73.596 36.1914C73.7731 35.99 73.9699 35.8823 74.1862 35.8685C74.4025 35.8546 74.6114 35.9362 74.8128 36.1133L76.345 37.4609C76.5464 37.638 76.7553 37.7196 76.9716 37.7057C77.1879 37.6919 77.3847 37.5842 77.5618 37.3828L79.1181 35.6132C79.2952 35.4118 79.4919 35.3041 79.7083 35.2903C79.9246 35.2764 80.1334 35.358 80.3349 35.5352L80.8312 35.9717C81.0326 36.1488 81.1403 36.3455 81.1541 36.5619C81.168 36.7782 81.0864 36.987 80.9093 37.1885L79.353 38.9581C79.1758 39.1595 79.0942 39.3683 79.1081 39.5847C79.122 39.801 79.2296 39.9977 79.431 40.1748L85.1714 45.2233C86.2649 46.1849 87.2734 46.1405 88.197 45.0903C88.4627 44.7882 88.6718 44.4489 88.8241 44.0726C89.0655 43.3919 89.4452 43.2794 89.9631 43.7348L90.74 44.4181C91.0134 44.6585 91.0929 44.9453 90.9785 45.2784C90.9331 45.4171 90.8805 45.5494 90.8207 45.6754C90.7735 45.7871 90.7137 45.9131 90.6413 46.0535C90.5056 46.2658 90.3753 46.4574 90.2505 46.6283C90.1528 46.7975 90.047 46.9469 89.9331 47.0763Z" fill="#193070"/>
<path d="M99.0539 38.9473C97.8056 39.9013 96.54 40.4224 95.2571 40.5107C93.9321 40.607 92.7017 40.3538 91.5658 39.751C90.3878 39.1562 89.3567 38.2804 88.4725 37.1235C87.5766 35.9514 86.9884 34.6768 86.7076 33.2998C86.4385 31.9381 86.5149 30.6498 86.9369 29.4351C87.3777 28.1819 88.1766 27.1131 89.3335 26.2289C90.6122 25.2517 91.9216 24.7091 93.2618 24.6011C94.5716 24.5164 95.8137 24.7848 96.9881 25.4065C98.1974 26.0738 99.2325 26.9706 100.093 28.0971C101.001 29.2844 101.593 30.5321 101.869 31.8402C102.134 33.133 102.053 34.4002 101.628 35.6418C101.175 36.8798 100.317 37.9816 99.0539 38.9473ZM97.5007 36.9151C98.2618 36.3334 98.7499 35.6468 98.965 34.8555C99.1765 34.091 99.1539 33.2884 98.8971 32.4477C98.6637 31.6374 98.2445 30.8365 97.6395 30.0449C97.0578 29.2838 96.3986 28.6422 95.662 28.1201C94.9217 27.6248 94.155 27.3788 93.3618 27.3822C92.5418 27.382 91.7283 27.6902 90.9216 28.3068C90.1757 28.8769 89.7104 29.546 89.5258 30.314C89.3447 31.0553 89.3808 31.8596 89.6339 32.7272C89.8987 33.61 90.3161 34.4243 90.8861 35.1702C91.7703 36.3271 92.835 37.105 94.0802 37.5037C95.3102 37.914 96.4504 37.7178 97.5007 36.9151Z" fill="#193070"/>
<path d="M113.297 27.4674C114.368 26.9989 115.07 26.1898 115.404 25.0401C115.762 23.9003 115.581 22.5054 114.859 20.8554C114.206 19.3634 113.353 18.3459 112.3 17.8029C111.229 17.2675 110.176 17.2264 109.14 17.6795C108.544 17.9406 108.012 18.3509 107.546 18.9104C107.097 19.4622 106.828 20.1863 106.74 21.0826C106.661 21.9537 106.89 23.0035 107.427 24.2322C107.95 25.4258 108.557 26.2892 109.251 26.8224C109.977 27.3829 110.686 27.6896 111.378 27.7422C112.096 27.8047 112.736 27.7131 113.297 27.4674ZM112.121 37.1105L110.936 37.6289C110.69 37.7364 110.466 37.7507 110.265 37.6717C110.063 37.5927 109.908 37.4303 109.8 37.1846L101.898 19.1228C101.791 18.877 101.776 18.6532 101.855 18.4514C101.934 18.2495 102.097 18.0948 102.343 17.9873L103.527 17.4689C103.773 17.3614 103.997 17.3472 104.199 17.4261C104.401 17.5051 104.555 17.6675 104.663 17.9132L104.72 18.0449C104.951 18.5715 105.175 18.5572 105.392 18.0021C105.569 17.5479 105.823 17.1233 106.152 16.7284C106.71 16.0449 107.472 15.492 108.438 15.0696C109.737 14.5013 110.981 14.3335 112.17 14.566C113.332 14.8315 114.405 15.397 115.39 16.2626C116.333 17.126 117.103 18.2422 117.702 19.6113C118.632 21.7352 118.85 23.7412 118.359 25.6292C117.858 27.5425 116.677 28.9061 114.816 29.7202C113.833 30.1502 112.901 30.3384 112.02 30.2846C111.293 30.2473 110.829 30.3351 110.63 30.5479C110.422 30.7432 110.48 31.2095 110.803 31.9467L112.565 35.975C112.673 36.2208 112.687 36.4446 112.608 36.6464C112.529 36.8483 112.366 37.003 112.121 37.1105Z" fill="#193070"/>
<path d="M126.534 25.7214L125.305 26.0173C125.044 26.08 124.821 26.0548 124.636 25.9417C124.451 25.8285 124.327 25.6415 124.265 25.3807L121.031 11.941C120.968 11.6802 120.993 11.4574 121.106 11.2725C121.219 11.0876 121.406 10.9638 121.667 10.901L122.897 10.6052C123.157 10.5424 123.38 10.5676 123.565 10.6808C123.75 10.794 123.874 10.9809 123.936 11.2417L127.171 24.6815C127.233 24.9423 127.208 25.1651 127.095 25.35C126.982 25.5349 126.795 25.6587 126.534 25.7214ZM121.636 8.07076C121.133 8.19178 120.662 8.11791 120.223 7.84916C119.784 7.5804 119.504 7.19455 119.383 6.69161C119.258 6.17004 119.329 5.68971 119.598 5.25062C119.867 4.81153 120.253 4.53147 120.756 4.41045C121.277 4.28494 121.757 4.35657 122.197 4.62532C122.636 4.89408 122.918 5.28925 123.043 5.81082C123.164 6.31376 123.091 6.78477 122.822 7.22386C122.553 7.66295 122.158 7.94525 121.636 8.07076Z" fill="#193070"/>
<path d="M136.625 21.8071C137.6 21.7315 138.342 21.3952 138.853 20.7982C139.346 20.2218 139.56 19.5134 139.495 18.6729L139.399 17.4409C139.374 17.1161 139.261 16.8943 139.06 16.7755C138.876 16.636 138.624 16.6075 138.303 16.69L137.06 17.0171C136.346 17.2263 135.765 17.4156 135.317 17.5849C134.812 17.7586 134.429 18.019 134.167 18.366C133.905 18.6939 133.796 19.1539 133.842 19.746C133.894 20.4146 134.146 20.9427 134.599 21.3303C135.052 21.7179 135.728 21.8768 136.625 21.8071ZM135.924 24.2829C134.434 24.3986 133.216 24.0512 132.269 23.2408C131.304 22.4509 130.771 21.4065 130.671 20.1076C130.577 18.9042 130.765 17.9864 131.235 17.3542C131.705 16.722 132.368 16.2285 133.224 15.8737C134.063 15.5396 135.02 15.2347 136.094 14.9591L138.465 14.3138C138.672 14.2593 138.827 14.1512 138.93 13.9895C139.05 13.8072 139.092 13.6117 139.057 13.4031C138.905 12.6846 138.659 12.108 138.317 11.6733C137.853 11.1329 136.961 10.9139 135.643 11.0162C134.574 11.0993 133.522 11.4116 132.488 11.9531C132.101 12.1752 131.788 12.2283 131.549 12.1124C131.309 11.9965 131.172 11.7189 131.138 11.2796L131.063 10.3054C131.051 10.1526 131.078 10.0063 131.144 9.86668C131.208 9.70793 131.315 9.59397 131.463 9.5248C132.66 8.85534 134.071 8.45757 135.694 8.3315C137.795 8.16835 139.363 8.55589 140.397 9.49412C141.433 10.4706 142.025 11.9043 142.172 13.7954L142.868 22.7636C142.889 23.0311 142.829 23.2471 142.688 23.4118C142.547 23.5765 142.343 23.6692 142.075 23.69L140.757 23.7923C140.528 23.8101 140.332 23.7581 140.169 23.6362C140.023 23.4938 139.941 23.308 139.924 23.0788C139.891 22.6585 139.733 22.6035 139.45 22.9138C139.272 23.1005 139.027 23.2925 138.716 23.4896C138.077 23.9235 137.146 24.188 135.924 24.2829Z" fill="#193070"/>
</g>
<g opacity="0.5">
<path d="M409.219 1275.44L408 1275.75C407.78 1275.8 407.587 1275.79 407.422 1275.7C407.252 1275.6 407.133 1275.45 407.065 1275.25L406.383 1273.29C405.274 1270.16 404.395 1267.67 403.744 1265.8C403.107 1263.9 402.701 1262.61 402.527 1261.91C402.51 1261.85 402.505 1261.79 402.514 1261.76C402.509 1261.74 402.501 1261.74 402.488 1261.76L402.281 1264.06C402.21 1264.85 402.131 1265.71 402.043 1266.65C401.95 1267.58 401.846 1268.59 401.728 1269.7L400.948 1276.6C400.91 1276.95 400.714 1277.17 400.358 1277.26L399.189 1277.55C398.833 1277.64 398.554 1277.53 398.35 1277.23L394.512 1271.52C394.279 1271.16 393.959 1270.68 393.551 1270.06C393.14 1269.42 392.643 1268.66 392.062 1267.78C391.595 1267.07 391.224 1266.49 390.948 1266.04C390.672 1265.59 390.475 1265.27 390.356 1265.08C390.322 1265.02 390.299 1264.99 390.286 1265.02C390.286 1265.02 390.303 1265.05 390.337 1265.11L390.395 1265.34C390.463 1265.61 390.544 1265.97 390.637 1266.41C390.731 1266.86 390.84 1267.4 390.963 1268.03C391.091 1268.69 391.308 1269.91 391.615 1271.7C391.935 1273.48 392.349 1275.84 392.856 1278.79C392.941 1279.28 392.747 1279.58 392.272 1279.7L391.027 1280.01C390.79 1280.07 390.576 1280.04 390.386 1279.93C390.212 1279.81 390.104 1279.63 390.061 1279.39L387.138 1262.38C387.053 1261.89 387.248 1261.59 387.722 1261.47L389.729 1260.97C390.085 1260.88 390.364 1260.99 390.568 1261.3C392.634 1264.29 394.317 1266.76 395.615 1268.7C396.909 1270.63 397.823 1272.05 398.358 1272.96C398.736 1273.6 398.962 1273.53 399.038 1272.76L399.119 1271.47C399.186 1270.59 399.267 1269.66 399.364 1268.68C399.46 1267.7 399.573 1266.64 399.703 1265.51L400.471 1258.78C400.509 1258.43 400.705 1258.21 401.061 1258.12L403.119 1257.61C403.322 1257.55 403.509 1257.58 403.678 1257.68C403.844 1257.77 403.969 1257.91 404.054 1258.1L409.771 1274.41C409.869 1274.66 409.86 1274.87 409.746 1275.06C409.649 1275.25 409.473 1275.38 409.219 1275.44Z" fill="#040000"/>
<path d="M415.448 1275.54L414.296 1275.58C414.052 1275.58 413.858 1275.52 413.714 1275.38C413.57 1275.25 413.494 1275.06 413.486 1274.82L413.09 1262.22C413.083 1261.98 413.146 1261.78 413.282 1261.64C413.417 1261.49 413.607 1261.42 413.851 1261.41L415.003 1261.37C415.248 1261.37 415.442 1261.43 415.586 1261.57C415.73 1261.7 415.806 1261.89 415.813 1262.14L416.209 1274.73C416.217 1274.97 416.153 1275.17 416.018 1275.31C415.883 1275.46 415.693 1275.53 415.448 1275.54ZM414.348 1258.88C413.877 1258.89 413.47 1258.74 413.128 1258.42C412.786 1258.1 412.607 1257.7 412.593 1257.23C412.577 1256.74 412.73 1256.33 413.051 1255.98C413.373 1255.64 413.769 1255.46 414.24 1255.45C414.729 1255.43 415.145 1255.59 415.487 1255.91C415.829 1256.23 416.007 1256.63 416.023 1257.12C416.038 1257.59 415.884 1258 415.563 1258.34C415.242 1258.68 414.837 1258.86 414.348 1258.88Z" fill="#040000"/>
<path d="M429.476 1276.69L428.255 1276.53C427.978 1276.5 427.769 1276.34 427.63 1276.06L425.916 1272.14C425.768 1271.79 425.572 1271.59 425.33 1271.56C425.087 1271.53 424.842 1271.66 424.594 1271.94L421.806 1275.33C421.619 1275.56 421.378 1275.65 421.084 1275.61L419.993 1275.47C419.542 1275.41 419.271 1275.26 419.179 1275.02C419.104 1274.78 419.211 1274.5 419.5 1274.16L423.903 1269.11C424.005 1269 424.066 1268.86 424.086 1268.71C424.106 1268.55 424.082 1268.4 424.013 1268.25L421.237 1262.53C421.039 1262.15 421.015 1261.86 421.165 1261.65C421.316 1261.44 421.607 1261.36 422.04 1261.42L423.288 1261.58C423.565 1261.61 423.773 1261.77 423.913 1262.05L425.504 1265.69C425.65 1266.06 425.845 1266.27 426.087 1266.3C426.33 1266.33 426.576 1266.19 426.826 1265.89L429.347 1262.73C429.534 1262.51 429.775 1262.41 430.069 1262.45L431.264 1262.61C431.697 1262.66 431.951 1262.81 432.026 1263.05C432.118 1263.29 432.02 1263.57 431.73 1263.91L427.491 1268.72C427.246 1268.99 427.208 1269.29 427.378 1269.61L430.28 1275.58C430.478 1275.96 430.501 1276.25 430.351 1276.46C430.218 1276.67 429.927 1276.75 429.476 1276.69Z" fill="#040000"/>
<path d="M437.76 1279.15C436.337 1278.72 435.393 1278.04 434.93 1277.08C434.473 1276.16 434.446 1275.02 434.848 1273.67L436.812 1267.03C436.881 1266.8 436.869 1266.6 436.775 1266.42C436.68 1266.25 436.516 1266.13 436.282 1266.06L435.679 1265.88C435.444 1265.81 435.28 1265.69 435.186 1265.51C435.091 1265.34 435.079 1265.14 435.149 1264.9L435.32 1264.32C435.389 1264.09 435.511 1263.93 435.684 1263.83C435.858 1263.74 436.062 1263.73 436.296 1263.79L436.899 1263.97C437.134 1264.04 437.338 1264.03 437.511 1263.94C437.685 1263.84 437.807 1263.68 437.876 1263.44L438.404 1261.66C438.474 1261.42 438.595 1261.26 438.769 1261.17C438.943 1261.07 439.147 1261.06 439.381 1261.13L440.511 1261.46C440.746 1261.53 440.91 1261.65 441.004 1261.83C441.099 1262 441.111 1262.21 441.042 1262.44L440.513 1264.22C440.444 1264.46 440.456 1264.66 440.551 1264.84C440.645 1265.01 440.809 1265.13 441.044 1265.2L443.103 1265.81C443.338 1265.88 443.502 1266 443.597 1266.18C443.691 1266.35 443.703 1266.55 443.634 1266.79L443.463 1267.37C443.393 1267.6 443.272 1267.76 443.098 1267.86C442.924 1267.95 442.72 1267.97 442.486 1267.9L440.426 1267.29C440.192 1267.22 439.988 1267.23 439.814 1267.32C439.64 1267.42 439.519 1267.58 439.449 1267.82L437.47 1274.5C437.093 1275.77 437.516 1276.59 438.738 1276.95C439.09 1277.05 439.451 1277.1 439.82 1277.08C440.476 1277.02 440.714 1277.29 440.536 1277.89L440.268 1278.8C440.174 1279.11 439.967 1279.29 439.648 1279.32C439.515 1279.34 439.386 1279.35 439.259 1279.34C439.148 1279.35 439.021 1279.35 438.877 1279.34C438.65 1279.31 438.441 1279.28 438.252 1279.24C438.075 1279.22 437.911 1279.19 437.76 1279.15Z" fill="#040000"/>
<path d="M447.657 1283.22C446.368 1282.6 445.424 1281.78 444.825 1280.77C444.202 1279.73 443.903 1278.63 443.926 1277.46C443.926 1276.25 444.215 1275.06 444.794 1273.86C445.379 1272.65 446.175 1271.65 447.18 1270.85C448.177 1270.08 449.257 1269.61 450.419 1269.45C451.62 1269.3 452.818 1269.51 454.012 1270.09C455.333 1270.72 456.312 1271.57 456.951 1272.61C457.558 1273.64 457.85 1274.76 457.827 1275.98C457.78 1277.23 457.476 1278.44 456.913 1279.61C456.32 1280.83 455.548 1281.83 454.597 1282.59C453.654 1283.34 452.589 1283.79 451.404 1283.96C450.211 1284.1 448.962 1283.85 447.657 1283.22ZM448.672 1281.12C449.459 1281.5 450.218 1281.62 450.95 1281.47C451.659 1281.32 452.303 1280.98 452.881 1280.42C453.445 1279.9 453.924 1279.23 454.32 1278.41C454.7 1277.63 454.951 1276.83 455.074 1276.01C455.172 1275.21 455.058 1274.48 454.729 1273.84C454.392 1273.17 453.807 1272.63 452.974 1272.23C452.204 1271.86 451.468 1271.75 450.767 1271.92C450.09 1272.08 449.45 1272.44 448.848 1273C448.238 1273.58 447.747 1274.25 447.375 1275.02C446.796 1276.22 446.601 1277.4 446.788 1278.58C446.96 1279.75 447.588 1280.6 448.672 1281.12Z" fill="#040000"/>
<path d="M462.567 1289.51C463.414 1290.15 464.37 1290.35 465.434 1290.11C466.501 1289.89 467.532 1289.13 468.527 1287.83C469.427 1286.64 469.86 1285.51 469.827 1284.44C469.78 1283.34 469.346 1282.49 468.527 1281.86C468.055 1281.5 467.492 1281.26 466.84 1281.14C466.202 1281.02 465.506 1281.13 464.752 1281.46C464.023 1281.78 463.288 1282.43 462.547 1283.4C461.827 1284.34 461.408 1285.21 461.29 1286C461.165 1286.82 461.234 1287.53 461.499 1288.1C461.766 1288.7 462.123 1289.17 462.567 1289.51ZM454.362 1292.84L453.424 1292.12C453.23 1291.98 453.12 1291.8 453.093 1291.61C453.067 1291.41 453.128 1291.22 453.276 1291.02L464.171 1276.73C464.319 1276.54 464.491 1276.43 464.687 1276.4C464.883 1276.37 465.078 1276.43 465.273 1276.58L466.21 1277.3C466.405 1277.44 466.515 1277.62 466.541 1277.81C466.568 1278.01 466.507 1278.2 466.359 1278.4L466.279 1278.5C465.962 1278.92 466.072 1279.09 466.611 1279.02C467.051 1278.96 467.502 1278.97 467.962 1279.06C468.754 1279.2 469.532 1279.57 470.296 1280.15C471.323 1280.93 472.008 1281.85 472.349 1282.9C472.652 1283.94 472.676 1285.05 472.422 1286.22C472.151 1287.35 471.603 1288.46 470.777 1289.54C469.496 1291.22 467.994 1292.28 466.272 1292.73C464.526 1293.18 462.916 1292.84 461.444 1291.72C460.666 1291.12 460.104 1290.46 459.757 1289.74C459.465 1289.14 459.189 1288.81 458.932 1288.75C458.684 1288.67 458.338 1288.92 457.893 1289.5L455.463 1292.69C455.315 1292.88 455.143 1292.99 454.947 1293.02C454.751 1293.05 454.556 1292.99 454.362 1292.84Z" fill="#040000"/>
<path d="M469.531 1298.85L468.736 1298.02C468.568 1297.84 468.486 1297.65 468.491 1297.45C468.496 1297.26 468.587 1297.07 468.764 1296.9L477.894 1288.22C478.071 1288.05 478.258 1287.97 478.456 1287.97C478.653 1287.98 478.836 1288.07 479.005 1288.25L479.799 1289.08C479.968 1289.26 480.05 1289.45 480.045 1289.64C480.04 1289.84 479.949 1290.03 479.772 1290.19L470.642 1298.88C470.465 1299.05 470.277 1299.13 470.08 1299.12C469.882 1299.12 469.699 1299.03 469.531 1298.85ZM481.224 1286.93C480.899 1286.59 480.743 1286.18 480.754 1285.72C480.766 1285.25 480.943 1284.85 481.284 1284.52C481.639 1284.19 482.05 1284.02 482.52 1284.04C482.989 1284.05 483.386 1284.22 483.711 1284.57C484.048 1284.92 484.21 1285.33 484.199 1285.8C484.187 1286.27 484.004 1286.67 483.65 1287.01C483.308 1287.34 482.903 1287.49 482.434 1287.48C481.964 1287.47 481.561 1287.29 481.224 1286.93Z" fill="#040000"/>
<path d="M476.883 1304.64C477.384 1305.38 477.987 1305.81 478.69 1305.94C479.37 1306.07 480.027 1305.92 480.662 1305.49L481.594 1304.86C481.839 1304.69 481.963 1304.5 481.966 1304.29C481.993 1304.08 481.901 1303.86 481.691 1303.65L480.869 1302.81C480.38 1302.34 479.967 1301.97 479.63 1301.69C479.263 1301.37 478.884 1301.19 478.491 1301.14C478.112 1301.08 477.699 1301.2 477.252 1301.5C476.747 1301.85 476.443 1302.29 476.342 1302.82C476.241 1303.36 476.421 1303.96 476.883 1304.64ZM474.607 1305.21C473.84 1304.08 473.563 1302.96 473.775 1301.84C473.962 1300.72 474.547 1299.83 475.529 1299.16C476.438 1298.54 477.249 1298.27 477.962 1298.36C478.675 1298.44 479.366 1298.74 480.035 1299.26C480.679 1299.77 481.354 1300.39 482.058 1301.12L483.643 1302.7C483.78 1302.84 483.936 1302.91 484.11 1302.92C484.309 1302.93 484.483 1302.88 484.632 1302.76C485.131 1302.31 485.476 1301.85 485.665 1301.39C485.882 1300.77 485.651 1299.97 484.973 1298.97C484.422 1298.16 483.699 1297.47 482.802 1296.9C482.451 1296.7 482.267 1296.47 482.25 1296.23C482.233 1295.99 482.391 1295.76 482.723 1295.53L483.459 1295.03C483.575 1294.95 483.703 1294.9 483.843 1294.89C483.998 1294.87 484.136 1294.91 484.258 1294.99C485.33 1295.63 486.284 1296.57 487.119 1297.8C488.201 1299.39 488.604 1300.8 488.331 1302.04C488.028 1303.31 487.162 1304.42 485.733 1305.4L478.955 1310.01C478.753 1310.15 478.555 1310.2 478.361 1310.16C478.167 1310.13 478.001 1310.01 477.863 1309.8L477.185 1308.81C477.067 1308.63 477.02 1308.46 477.042 1308.27C477.089 1308.09 477.199 1307.94 477.372 1307.83C477.689 1307.61 477.661 1307.46 477.288 1307.38C477.059 1307.32 476.797 1307.21 476.5 1307.06C475.867 1306.75 475.236 1306.13 474.607 1305.21Z" fill="#040000"/>
<path d="M482.522 1317.95C484.63 1324.04 485.584 1330.89 485.584 1337.67C485.584 1380.45 450.259 1406.62 417.592 1406.62C378.658 1406.62 347.666 1378.23 347.666 1337.67C347.666 1322.62 354.569 1296.4 380.449 1282.1" stroke="#231815" stroke-width="5.40117" stroke-miterlimit="10"/>
</g>
</g>
<defs>
<clipPath id="clip0_1333_37956">
<rect width="696" height="1658" fill="white"/>
</clipPath>
</defs>
</svg>
