<svg width="148" height="40" viewBox="0 0 148 40" fill="none" xmlns="http://www.w3.org/2000/svg">
<g clip-path="url(#clip0_1356_33805)">
<path d="M26.2741 25.4624H12.8092C12.2086 25.4624 11.6327 25.2238 11.2081 24.7992C10.7834 24.3745 10.5448 23.7986 10.5448 23.198C10.5371 23.1262 10.5371 23.0538 10.5448 22.982L11.4091 18.8163C11.4587 18.5854 11.5863 18.3786 11.7705 18.2306C11.9546 18.0827 12.1841 18.0026 12.4203 18.0039H26.6025C26.8387 18.0026 27.0682 18.0827 27.2523 18.2306C27.4365 18.3786 27.5641 18.5854 27.6137 18.8163L28.4779 22.982C28.4857 23.0538 28.4857 23.1262 28.4779 23.198C28.4781 23.7882 28.2479 24.3552 27.8363 24.7781C27.4246 25.2011 26.8641 25.4466 26.2741 25.4624ZM12.619 23.2499C12.6319 23.2902 12.6573 23.3253 12.6915 23.3502C12.7257 23.375 12.7669 23.3883 12.8092 23.3882H26.2741C26.3164 23.3883 26.3576 23.375 26.3918 23.3502C26.426 23.3253 26.4514 23.2902 26.4642 23.2499L25.7728 20.0522H13.3104L12.619 23.2499Z" fill="#8C8C8C"/>
<path d="M17.5718 16.5357C17.3189 16.5351 17.0751 16.4414 16.887 16.2724C16.6988 16.1034 16.5796 15.871 16.5519 15.6196C16.4412 14.539 15.933 13.538 15.1259 12.8108C14.0196 11.8292 13.2361 10.5357 12.8785 9.10052C12.5209 7.6653 12.606 6.15547 13.1225 4.76949C13.639 3.38351 14.5628 2.18625 15.7725 1.33509C16.9821 0.48393 18.421 0.0186989 19.9 0.000551863C21.379 -0.0175952 22.8289 0.412191 24.059 1.23342C25.2892 2.05464 26.2421 3.22887 26.7925 4.60176C27.3428 5.97465 27.4649 7.48193 27.1427 8.9255C26.8204 10.3691 26.0689 11.6813 24.987 12.6898C24.5312 13.029 24.1523 13.4608 23.8753 13.9568C23.5982 14.4528 23.4293 15.0018 23.3795 15.5678C23.3258 15.803 23.1911 16.0118 22.999 16.1578C22.8068 16.3037 22.5695 16.3775 22.3285 16.3661C22.0876 16.3548 21.8582 16.2591 21.6806 16.0958C21.5031 15.9325 21.3886 15.7119 21.3571 15.4727C21.4097 14.6374 21.6349 13.822 22.0188 13.0782C22.4026 12.3344 22.9365 11.6783 23.5869 11.1515C24.1937 10.5853 24.658 9.88356 24.9418 9.10368C25.2257 8.32379 25.3211 7.48783 25.2203 6.66403C25.1195 5.84024 24.8253 5.05196 24.3617 4.36356C23.8981 3.67516 23.2783 3.10614 22.5529 2.70296C21.8274 2.29978 21.0169 2.07387 20.1875 2.04368C19.3581 2.01348 18.5334 2.17985 17.7805 2.5292C17.0277 2.87855 16.3682 3.40099 15.8557 4.05385C15.3433 4.70672 14.9926 5.47151 14.8321 6.28579C14.6452 7.18725 14.6977 8.12192 14.9843 8.99681C15.2709 9.87169 15.7815 10.6563 16.4655 11.2725C17.6553 12.3376 18.4069 13.8068 18.5743 15.3949C18.5899 15.5295 18.5788 15.6658 18.5416 15.796C18.5044 15.9263 18.4419 16.0479 18.3576 16.1539C18.2732 16.2599 18.1688 16.3482 18.0503 16.4137C17.9317 16.4792 17.8014 16.5207 17.6668 16.5357H17.5718Z" fill="#8C8C8C"/>
<path d="M36.1785 40.0003H3.80384C3.53108 40.0003 3.26949 39.8919 3.07662 39.699C2.88375 39.5062 2.77539 39.2446 2.77539 38.9718C2.77539 38.699 2.88375 38.4375 3.07662 38.2446C3.26949 38.0517 3.53108 37.9434 3.80384 37.9434H36.1785C36.4512 37.9434 36.7128 38.0517 36.9057 38.2446C37.0986 38.4375 37.2069 38.699 37.2069 38.9718C37.2069 39.2446 37.0986 39.5062 36.9057 39.699C36.7128 39.8919 36.4512 40.0003 36.1785 40.0003Z" fill="#E2730E"/>
<path d="M22.031 9.51788C21.8331 9.51266 21.641 9.45046 21.4776 9.33873C21.3142 9.22701 21.1866 9.07052 21.1099 8.88804C21.0333 8.70555 21.0109 8.50483 21.0455 8.30995C21.0801 8.11508 21.1702 7.93432 21.305 7.78939C21.419 7.67614 21.5094 7.54148 21.5711 7.39316C21.6328 7.24484 21.6645 7.08579 21.6645 6.92515C21.6645 6.7645 21.6328 6.60545 21.5711 6.45713C21.5094 6.30881 21.419 6.17415 21.305 6.0609C21.073 5.837 20.7632 5.71187 20.4408 5.71187C20.1184 5.71187 19.8085 5.837 19.5765 6.0609C19.3829 6.25458 19.1202 6.3634 18.8463 6.3634C18.5723 6.3634 18.3097 6.25458 18.116 6.0609C17.9223 5.86722 17.8135 5.60452 17.8135 5.33061C17.8135 5.0567 17.9223 4.79401 18.116 4.60033C18.7398 4.00441 19.5694 3.67188 20.4321 3.67188C21.2949 3.67188 22.1245 4.00441 22.7483 4.60033C23.3605 5.21572 23.7042 6.04846 23.7042 6.9165C23.7042 7.78455 23.3605 8.61728 22.7483 9.23268C22.5553 9.41728 22.2981 9.51956 22.031 9.51788Z" fill="#2EA398"/>
<path d="M36.0232 35.4626H3.88197C3.60921 35.4626 3.34761 35.3542 3.15474 35.1613C2.96187 34.9685 2.85352 34.7069 2.85352 34.4341V30.1129C2.8558 28.367 3.55037 26.6933 4.7849 25.4587C6.01944 24.2242 7.69317 23.5296 9.43906 23.5273H30.4748C32.2207 23.5296 33.8944 24.2242 35.1289 25.4587C36.3635 26.6933 37.0581 28.367 37.0603 30.1129V34.4341C37.0603 34.5699 37.0335 34.7044 36.9812 34.8297C36.929 34.955 36.8525 35.0688 36.7561 35.1644C36.6596 35.26 36.5452 35.3356 36.4195 35.3868C36.2937 35.438 36.159 35.4637 36.0232 35.4626ZM4.91042 33.4057H34.9948V30.0956C34.9925 28.8975 34.5156 27.7492 33.6684 26.902C32.8212 26.0548 31.6729 25.5779 30.4748 25.5756H9.43042C8.23234 25.5779 7.08399 26.0548 6.23682 26.902C5.38965 27.7492 4.9127 28.8975 4.91042 30.0956V33.4057Z" fill="#8C8C8C"/>
</g>
<path d="M68.16 29.864C67.648 28.776 66.928 27.584 66 26.288C65.84 26.064 65.784 25.848 65.832 25.64C65.896 25.432 66.064 25.28 66.336 25.184L67.032 24.92C67.368 24.792 67.64 24.872 67.848 25.16C68.904 26.552 69.728 27.824 70.32 28.976C70.432 29.184 70.448 29.376 70.368 29.552C70.304 29.728 70.168 29.856 69.96 29.936L69.12 30.272C68.688 30.448 68.368 30.312 68.16 29.864ZM62.232 29.696C62.104 29.232 61.944 28.736 61.752 28.208C61.576 27.68 61.36 27.112 61.104 26.504C60.992 26.248 60.976 26.032 61.056 25.856C61.152 25.68 61.336 25.56 61.608 25.496L62.304 25.328C62.672 25.248 62.936 25.376 63.096 25.712C63.4 26.32 63.664 26.912 63.888 27.488C64.112 28.064 64.312 28.616 64.488 29.144C64.552 29.352 64.536 29.536 64.44 29.696C64.344 29.856 64.192 29.968 63.984 30.032L63.144 30.248C62.92 30.312 62.728 30.288 62.568 30.176C62.408 30.08 62.296 29.92 62.232 29.696ZM56.472 29.672C56.424 28.712 56.304 27.632 56.112 26.432C56.064 26.192 56.096 26 56.208 25.856C56.336 25.696 56.52 25.6 56.76 25.568L57.576 25.496C57.992 25.464 58.24 25.656 58.32 26.072C58.448 26.68 58.552 27.272 58.632 27.848C58.712 28.424 58.768 28.992 58.8 29.552C58.816 29.744 58.76 29.904 58.632 30.032C58.52 30.16 58.368 30.24 58.176 30.272L57.312 30.392C57.056 30.424 56.856 30.368 56.712 30.224C56.568 30.096 56.488 29.912 56.472 29.672ZM50.808 30.416L50.064 30.056C49.792 29.928 49.632 29.752 49.584 29.528C49.552 29.32 49.64 29.104 49.848 28.88C50.696 27.888 51.416 26.752 52.008 25.472C52.088 25.296 52.2 25.176 52.344 25.112C52.504 25.032 52.672 25.016 52.848 25.064L53.688 25.28C53.912 25.344 54.064 25.464 54.144 25.64C54.24 25.8 54.248 25.992 54.168 26.216C53.496 27.8 52.648 29.144 51.624 30.248C51.512 30.376 51.376 30.448 51.216 30.464C51.072 30.496 50.936 30.48 50.808 30.416ZM67.224 23.864H52.752C52.528 23.864 52.352 23.8 52.224 23.672C52.096 23.544 52.032 23.368 52.032 23.144V16.736C52.032 16.512 52.096 16.336 52.224 16.208C52.352 16.08 52.528 16.016 52.752 16.016H57.912C58.136 16.016 58.312 15.952 58.44 15.824C58.568 15.696 58.632 15.52 58.632 15.296V9.8C58.632 9.576 58.696 9.4 58.824 9.272C58.952 9.144 59.128 9.08 59.352 9.08H60.288C60.512 9.08 60.688 9.144 60.816 9.272C60.944 9.4 61.008 9.576 61.008 9.8V10.64C61.008 10.864 61.072 11.04 61.2 11.168C61.328 11.296 61.504 11.36 61.728 11.36H68.88C69.104 11.36 69.28 11.424 69.408 11.552C69.536 11.68 69.6 11.856 69.6 12.08V12.8C69.6 13.024 69.536 13.2 69.408 13.328C69.28 13.456 69.104 13.52 68.88 13.52H61.728C61.504 13.52 61.328 13.584 61.2 13.712C61.072 13.84 61.008 14.016 61.008 14.24V15.296C61.008 15.52 61.072 15.696 61.2 15.824C61.328 15.952 61.504 16.016 61.728 16.016H67.224C67.448 16.016 67.624 16.08 67.752 16.208C67.88 16.336 67.944 16.512 67.944 16.736V23.144C67.944 23.368 67.88 23.544 67.752 23.672C67.624 23.8 67.448 23.864 67.224 23.864ZM65.592 20.984V18.896C65.592 18.672 65.528 18.496 65.4 18.368C65.272 18.24 65.096 18.176 64.872 18.176H54.984C54.76 18.176 54.584 18.24 54.456 18.368C54.328 18.496 54.264 18.672 54.264 18.896V20.984C54.264 21.208 54.328 21.384 54.456 21.512C54.584 21.64 54.76 21.704 54.984 21.704H64.872C65.096 21.704 65.272 21.64 65.4 21.512C65.528 21.384 65.592 21.208 65.592 20.984ZM74.544 30.128C74.496 30.048 74.448 29.96 74.4 29.864C74.352 29.784 74.296 29.704 74.232 29.624C73.832 29.032 73.968 28.664 74.64 28.52C76.352 28.136 77.504 27.592 78.096 26.888C78.688 26.152 79.032 25.112 79.128 23.768C79.144 23.544 79.216 23.368 79.344 23.24C79.472 23.112 79.648 23.048 79.872 23.048H88.104C88.328 23.048 88.504 23.112 88.632 23.24C88.76 23.368 88.824 23.544 88.824 23.768V27.632C88.824 27.92 88.864 28.104 88.944 28.184C89.008 28.248 89.2 28.28 89.52 28.28H91.536C91.728 28.28 91.872 28.224 91.968 28.112C92.048 28 92.112 27.776 92.16 27.44C92.192 27.2 92.216 26.92 92.232 26.6C92.248 26.104 92.496 25.968 92.976 26.192C93.104 26.256 93.232 26.32 93.36 26.384C93.488 26.432 93.624 26.48 93.768 26.528C94.168 26.64 94.352 26.896 94.32 27.296C94.208 28.352 94 29.104 93.696 29.552C93.344 30.048 92.712 30.296 91.8 30.296H89.16C88.072 30.296 87.328 30.112 86.928 29.744C86.544 29.36 86.352 28.664 86.352 27.656V25.688C86.352 25.464 86.288 25.288 86.16 25.16C86.032 25.032 85.856 24.968 85.632 24.968H82.032C81.84 24.968 81.672 25.032 81.528 25.16C81.4 25.272 81.32 25.416 81.288 25.592C81.048 26.84 80.512 27.856 79.68 28.64C78.784 29.488 77.352 30.128 75.384 30.56C75 30.64 74.72 30.496 74.544 30.128ZM90.504 18.896H77.616C77.392 18.896 77.216 18.832 77.088 18.704C76.96 18.576 76.896 18.4 76.896 18.176V14.792C76.896 14.568 76.96 14.392 77.088 14.264C77.216 14.136 77.392 14.072 77.616 14.072H90.504C90.728 14.072 90.904 14.136 91.032 14.264C91.16 14.392 91.224 14.568 91.224 14.792V18.176C91.224 18.4 91.16 18.576 91.032 18.704C90.904 18.832 90.728 18.896 90.504 18.896ZM88.8 16.544V16.4C88.8 16.176 88.736 16 88.608 15.872C88.48 15.744 88.304 15.68 88.08 15.68H79.92C79.696 15.68 79.52 15.744 79.392 15.872C79.264 16 79.2 16.176 79.2 16.4V16.544C79.2 16.768 79.264 16.944 79.392 17.072C79.52 17.2 79.696 17.264 79.92 17.264H88.08C88.304 17.264 88.48 17.2 88.608 17.072C88.736 16.944 88.8 16.768 88.8 16.544ZM75.456 24.248H74.712C74.488 24.248 74.312 24.184 74.184 24.056C74.056 23.928 73.992 23.752 73.992 23.528V20.72C73.992 20.496 74.056 20.32 74.184 20.192C74.312 20.064 74.488 20 74.712 20H93.264C93.488 20 93.664 20.064 93.792 20.192C93.92 20.32 93.984 20.496 93.984 20.72V23.504C93.984 23.728 93.92 23.904 93.792 24.032C93.664 24.16 93.488 24.224 93.264 24.224H92.424C92.2 24.224 92.024 24.16 91.896 24.032C91.768 23.904 91.704 23.728 91.704 23.504V22.568C91.704 22.344 91.64 22.168 91.512 22.04C91.384 21.912 91.208 21.848 90.984 21.848H76.896C76.672 21.848 76.496 21.912 76.368 22.04C76.24 22.168 76.176 22.344 76.176 22.568V23.528C76.176 23.752 76.112 23.928 75.984 24.056C75.856 24.184 75.68 24.248 75.456 24.248ZM93.624 13.04H74.352C74.128 13.04 73.952 12.976 73.824 12.848C73.696 12.72 73.632 12.544 73.632 12.32V11.816C73.632 11.592 73.696 11.416 73.824 11.288C73.952 11.16 74.128 11.096 74.352 11.096H82.08C82.368 11.096 82.56 11.016 82.656 10.856C82.768 10.696 82.76 10.488 82.632 10.232C82.488 9.976 82.456 9.76 82.536 9.584C82.632 9.392 82.816 9.264 83.088 9.2L84 9.008C84.144 8.976 84.28 8.992 84.408 9.056C84.552 9.104 84.664 9.192 84.744 9.32C84.872 9.544 84.992 9.768 85.104 9.992C85.232 10.216 85.352 10.44 85.464 10.664C85.592 10.952 85.816 11.096 86.136 11.096H93.624C93.848 11.096 94.024 11.16 94.152 11.288C94.28 11.416 94.344 11.592 94.344 11.816V12.32C94.344 12.544 94.28 12.72 94.152 12.848C94.024 12.976 93.848 13.04 93.624 13.04ZM110.136 30.68H109.224C109 30.68 108.824 30.616 108.696 30.488C108.568 30.36 108.504 30.184 108.504 29.96V11.408C108.504 11.184 108.568 11.008 108.696 10.88C108.824 10.752 109 10.688 109.224 10.688H117C117.224 10.688 117.4 10.752 117.528 10.88C117.656 11.008 117.72 11.184 117.72 11.408V24.488C117.72 25.08 117.648 25.568 117.504 25.952C117.36 26.336 117.088 26.624 116.688 26.816C116.304 27.024 115.8 27.152 115.176 27.2C114.952 27.232 114.704 27.248 114.432 27.248C114.16 27.248 113.864 27.256 113.544 27.272C113.368 27.272 113.216 27.224 113.088 27.128C112.96 27.016 112.872 26.872 112.824 26.696C112.792 26.568 112.752 26.448 112.704 26.336C112.672 26.208 112.632 26.08 112.584 25.952C112.456 25.6 112.448 25.328 112.56 25.136C112.688 24.928 112.936 24.824 113.304 24.824L115.008 24.848C115.28 24.848 115.416 24.744 115.416 24.536V13.712C115.416 13.488 115.352 13.312 115.224 13.184C115.096 13.056 114.92 12.992 114.696 12.992H111.576C111.352 12.992 111.176 13.056 111.048 13.184C110.92 13.312 110.856 13.488 110.856 13.712V29.96C110.856 30.184 110.792 30.36 110.664 30.488C110.536 30.616 110.36 30.68 110.136 30.68ZM98.304 27.536C98.176 27.088 98.032 26.696 97.872 26.36C97.776 26.136 97.752 25.936 97.8 25.76C97.864 25.584 97.984 25.408 98.16 25.232C98.464 24.944 98.616 24.576 98.616 24.128V12.416C98.616 12.048 98.8 11.808 99.168 11.696C101.552 11.104 103.488 10.464 104.976 9.776C105.12 9.712 105.264 9.696 105.408 9.728C105.568 9.744 105.704 9.816 105.816 9.944L106.512 10.64C106.736 10.864 106.824 11.088 106.776 11.312C106.728 11.52 106.552 11.68 106.248 11.792C105.496 12.064 104.728 12.32 103.944 12.56C103.176 12.784 102.376 12.992 101.544 13.184C101.368 13.216 101.224 13.296 101.112 13.424C101.016 13.552 100.968 13.704 100.968 13.88V16.376C100.968 16.6 101.032 16.776 101.16 16.904C101.288 17.032 101.464 17.096 101.688 17.096H106.344C106.568 17.096 106.744 17.16 106.872 17.288C107 17.416 107.064 17.592 107.064 17.816V18.632C107.064 18.856 107 19.032 106.872 19.16C106.744 19.288 106.568 19.352 106.344 19.352H101.688C101.464 19.352 101.288 19.416 101.16 19.544C101.032 19.672 100.968 19.848 100.968 20.072V23.912C100.968 24.184 101.048 24.392 101.208 24.536C101.368 24.664 101.584 24.696 101.856 24.632L106.824 23.504C106.952 23.472 107.016 23.52 107.016 23.648V23.864C107.016 24.024 107.016 24.2 107.016 24.392C107.032 24.584 107.048 24.792 107.064 25.016C107.096 25.208 107.056 25.376 106.944 25.52C106.848 25.664 106.712 25.752 106.536 25.784C105.528 26.04 104.64 26.264 103.872 26.456C103.12 26.648 102.48 26.816 101.952 26.96C101.376 27.12 100.88 27.256 100.464 27.368C100.064 27.48 99.752 27.576 99.528 27.656C99.416 27.688 99.312 27.72 99.216 27.752C99.136 27.784 99.056 27.816 98.976 27.848C98.64 27.976 98.416 27.872 98.304 27.536ZM132.456 30.68H131.448C131.224 30.68 131.048 30.616 130.92 30.488C130.792 30.36 130.728 30.184 130.728 29.96V28.784C130.728 28.56 130.664 28.384 130.536 28.256C130.408 28.128 130.232 28.064 130.008 28.064H122.136C121.912 28.064 121.736 28 121.608 27.872C121.48 27.744 121.416 27.568 121.416 27.344V26.864C121.416 26.64 121.48 26.464 121.608 26.336C121.736 26.208 121.912 26.144 122.136 26.144H130.104C130.52 26.144 130.728 25.936 130.728 25.52C130.728 25.104 130.52 24.896 130.104 24.896H124.752C124.528 24.896 124.352 24.832 124.224 24.704C124.096 24.576 124.032 24.4 124.032 24.176V18.2C124.032 17.976 124.096 17.8 124.224 17.672C124.352 17.544 124.528 17.48 124.752 17.48H139.272C139.496 17.48 139.672 17.544 139.8 17.672C139.928 17.8 139.992 17.976 139.992 18.2V24.176C139.992 24.4 139.928 24.576 139.8 24.704C139.672 24.832 139.496 24.896 139.272 24.896H133.8C133.384 24.896 133.176 25.104 133.176 25.52C133.176 25.936 133.384 26.144 133.8 26.144H141.84C142.064 26.144 142.24 26.208 142.368 26.336C142.496 26.464 142.56 26.64 142.56 26.864V27.344C142.56 27.568 142.496 27.744 142.368 27.872C142.24 28 142.064 28.064 141.84 28.064H133.896C133.672 28.064 133.496 28.128 133.368 28.256C133.24 28.384 133.176 28.56 133.176 28.784V29.96C133.176 30.184 133.112 30.36 132.984 30.488C132.856 30.616 132.68 30.68 132.456 30.68ZM137.64 19.76C137.64 19.344 137.432 19.136 137.016 19.136H126.912C126.496 19.136 126.288 19.344 126.288 19.76C126.288 20.176 126.496 20.384 126.912 20.384H137.016C137.432 20.384 137.64 20.176 137.64 19.76ZM137.64 22.592C137.64 22.416 137.576 22.272 137.448 22.16C137.336 22.032 137.192 21.968 137.016 21.968H126.936C126.744 21.968 126.584 22.032 126.456 22.16C126.344 22.272 126.288 22.416 126.288 22.592C126.288 22.784 126.344 22.944 126.456 23.072C126.584 23.184 126.744 23.24 126.936 23.24H137.016C137.192 23.24 137.336 23.184 137.448 23.072C137.576 22.944 137.64 22.784 137.64 22.592ZM141.816 16.544H122.184C121.96 16.544 121.784 16.48 121.656 16.352C121.528 16.224 121.464 16.048 121.464 15.824V15.392C121.464 15.168 121.528 14.992 121.656 14.864C121.784 14.736 121.96 14.672 122.184 14.672H126.12C126.392 14.672 126.584 14.592 126.696 14.432C126.808 14.272 126.8 14.064 126.672 13.808C126.656 13.776 126.64 13.744 126.624 13.712C126.608 13.664 126.592 13.624 126.576 13.592C126.368 13.192 126.48 12.944 126.912 12.848C127.328 12.752 127.32 12.704 126.888 12.704H123.72C123.496 12.704 123.32 12.64 123.192 12.512C123.064 12.384 123 12.208 123 11.984V11.552C123 11.328 123.064 11.152 123.192 11.024C123.32 10.896 123.496 10.832 123.72 10.832H130.032C130.304 10.832 130.488 10.76 130.584 10.616C130.68 10.472 130.672 10.28 130.56 10.04C130.432 9.8 130.408 9.592 130.488 9.416C130.568 9.24 130.744 9.128 131.016 9.08L131.976 8.864C132.312 8.816 132.568 8.936 132.744 9.224C132.84 9.416 132.936 9.608 133.032 9.8C133.144 9.992 133.24 10.192 133.32 10.4C133.448 10.688 133.672 10.832 133.992 10.832H140.376C140.6 10.832 140.776 10.896 140.904 11.024C141.032 11.152 141.096 11.328 141.096 11.552V11.984C141.096 12.208 141.032 12.384 140.904 12.512C140.776 12.64 140.6 12.704 140.376 12.704H137.328C137.136 12.704 137.04 12.712 137.04 12.728C137.04 12.744 137.136 12.768 137.328 12.8C137.728 12.88 137.832 13.104 137.64 13.472L137.448 13.784C137.304 14.056 137.28 14.272 137.376 14.432C137.472 14.592 137.672 14.672 137.976 14.672H141.816C142.04 14.672 142.216 14.736 142.344 14.864C142.472 14.992 142.536 15.168 142.536 15.392V15.824C142.536 16.048 142.472 16.224 142.344 16.352C142.216 16.48 142.04 16.544 141.816 16.544ZM134.616 14.312C134.68 14.2 134.736 14.096 134.784 14C134.848 13.888 134.904 13.776 134.952 13.664C135.08 13.376 135.08 13.144 134.952 12.968C134.84 12.792 134.624 12.704 134.304 12.704H129.696C129.36 12.704 129.144 12.792 129.048 12.968C128.952 13.128 128.984 13.36 129.144 13.664C129.176 13.744 129.216 13.832 129.264 13.928C129.312 14.024 129.352 14.12 129.384 14.216C129.448 14.344 129.536 14.456 129.648 14.552C129.776 14.632 129.92 14.672 130.08 14.672H133.992C134.28 14.672 134.488 14.552 134.616 14.312Z" fill="black" fill-opacity="0.45"/>
<defs>
<clipPath id="clip0_1356_33805">
<rect width="40" height="40" fill="white"/>
</clipPath>
</defs>
</svg>
