<svg width="210" height="40" viewBox="0 0 210 40" fill="none" xmlns="http://www.w3.org/2000/svg">
<g clip-path="url(#clip0_1397_34800)">
<path d="M26.2741 25.4624H12.8092C12.2086 25.4624 11.6327 25.2238 11.2081 24.7992C10.7834 24.3745 10.5448 23.7986 10.5448 23.198C10.5371 23.1262 10.5371 23.0538 10.5448 22.982L11.4091 18.8163C11.4587 18.5854 11.5863 18.3786 11.7705 18.2306C11.9546 18.0827 12.1841 18.0026 12.4203 18.0039H26.6025C26.8387 18.0026 27.0682 18.0827 27.2523 18.2306C27.4365 18.3786 27.5641 18.5854 27.6137 18.8163L28.4779 22.982C28.4857 23.0538 28.4857 23.1262 28.4779 23.198C28.4781 23.7882 28.2479 24.3552 27.8363 24.7781C27.4246 25.2011 26.8641 25.4466 26.2741 25.4624ZM12.619 23.2499C12.6319 23.2902 12.6573 23.3253 12.6915 23.3502C12.7257 23.375 12.7669 23.3883 12.8092 23.3882H26.2741C26.3164 23.3883 26.3576 23.375 26.3918 23.3502C26.426 23.3253 26.4514 23.2902 26.4642 23.2499L25.7728 20.0522H13.3104L12.619 23.2499Z" fill="#8C8C8C"/>
<path d="M17.5718 16.5357C17.3189 16.5351 17.0751 16.4414 16.887 16.2724C16.6988 16.1034 16.5796 15.871 16.5519 15.6196C16.4412 14.539 15.933 13.538 15.1259 12.8108C14.0196 11.8292 13.2361 10.5357 12.8785 9.10052C12.5209 7.6653 12.606 6.15547 13.1225 4.76949C13.639 3.38351 14.5628 2.18625 15.7725 1.33509C16.9821 0.48393 18.421 0.0186989 19.9 0.000551863C21.379 -0.0175952 22.8289 0.412191 24.059 1.23342C25.2892 2.05464 26.2421 3.22887 26.7925 4.60176C27.3428 5.97465 27.4649 7.48193 27.1427 8.9255C26.8204 10.3691 26.0689 11.6813 24.987 12.6898C24.5312 13.029 24.1523 13.4608 23.8753 13.9568C23.5982 14.4528 23.4293 15.0018 23.3795 15.5678C23.3258 15.803 23.1911 16.0118 22.999 16.1578C22.8068 16.3037 22.5695 16.3775 22.3285 16.3661C22.0876 16.3548 21.8582 16.2591 21.6806 16.0958C21.5031 15.9325 21.3886 15.7119 21.3571 15.4727C21.4097 14.6374 21.6349 13.822 22.0188 13.0782C22.4026 12.3344 22.9365 11.6783 23.5869 11.1515C24.1937 10.5853 24.658 9.88356 24.9418 9.10368C25.2257 8.32379 25.3211 7.48783 25.2203 6.66403C25.1195 5.84024 24.8253 5.05196 24.3617 4.36356C23.8981 3.67516 23.2783 3.10614 22.5529 2.70296C21.8274 2.29978 21.0169 2.07387 20.1875 2.04368C19.3581 2.01348 18.5334 2.17985 17.7805 2.5292C17.0277 2.87855 16.3682 3.40099 15.8557 4.05385C15.3433 4.70672 14.9926 5.47151 14.8321 6.28579C14.6452 7.18725 14.6977 8.12192 14.9843 8.99681C15.2709 9.87169 15.7815 10.6563 16.4655 11.2725C17.6553 12.3376 18.4069 13.8068 18.5743 15.3949C18.5899 15.5295 18.5788 15.6658 18.5416 15.796C18.5044 15.9263 18.4419 16.0479 18.3576 16.1539C18.2732 16.2599 18.1688 16.3482 18.0503 16.4137C17.9317 16.4792 17.8014 16.5207 17.6668 16.5357H17.5718Z" fill="#8C8C8C"/>
<path d="M36.1785 40.0003H3.80384C3.53108 40.0003 3.26949 39.8919 3.07662 39.699C2.88375 39.5062 2.77539 39.2446 2.77539 38.9718C2.77539 38.699 2.88375 38.4375 3.07662 38.2446C3.26949 38.0517 3.53108 37.9434 3.80384 37.9434H36.1785C36.4512 37.9434 36.7128 38.0517 36.9057 38.2446C37.0986 38.4375 37.2069 38.699 37.2069 38.9718C37.2069 39.2446 37.0986 39.5062 36.9057 39.699C36.7128 39.8919 36.4512 40.0003 36.1785 40.0003Z" fill="#E2730E"/>
<path d="M22.031 9.51788C21.8331 9.51266 21.641 9.45046 21.4776 9.33873C21.3142 9.22701 21.1866 9.07052 21.1099 8.88804C21.0333 8.70555 21.0109 8.50483 21.0455 8.30995C21.0801 8.11508 21.1702 7.93432 21.305 7.78939C21.419 7.67614 21.5094 7.54148 21.5711 7.39316C21.6328 7.24484 21.6645 7.08579 21.6645 6.92515C21.6645 6.7645 21.6328 6.60545 21.5711 6.45713C21.5094 6.30881 21.419 6.17415 21.305 6.0609C21.073 5.837 20.7632 5.71187 20.4408 5.71187C20.1184 5.71187 19.8085 5.837 19.5765 6.0609C19.3829 6.25458 19.1202 6.3634 18.8463 6.3634C18.5723 6.3634 18.3097 6.25458 18.116 6.0609C17.9223 5.86722 17.8135 5.60452 17.8135 5.33061C17.8135 5.0567 17.9223 4.79401 18.116 4.60033C18.7398 4.00441 19.5694 3.67188 20.4321 3.67188C21.2949 3.67188 22.1245 4.00441 22.7483 4.60033C23.3605 5.21572 23.7042 6.04846 23.7042 6.9165C23.7042 7.78455 23.3605 8.61728 22.7483 9.23268C22.5553 9.41728 22.2981 9.51956 22.031 9.51788Z" fill="#2EA398"/>
<path d="M36.0232 35.4626H3.88197C3.60921 35.4626 3.34761 35.3542 3.15474 35.1613C2.96187 34.9685 2.85352 34.7069 2.85352 34.4341V30.1129C2.8558 28.367 3.55037 26.6933 4.7849 25.4587C6.01944 24.2242 7.69317 23.5296 9.43906 23.5273H30.4748C32.2207 23.5296 33.8944 24.2242 35.1289 25.4587C36.3635 26.6933 37.0581 28.367 37.0603 30.1129V34.4341C37.0603 34.5699 37.0335 34.7044 36.9812 34.8297C36.929 34.955 36.8525 35.0688 36.7561 35.1644C36.6596 35.26 36.5452 35.3356 36.4195 35.3868C36.2937 35.438 36.159 35.4637 36.0232 35.4626ZM4.91042 33.4057H34.9948V30.0956C34.9925 28.8975 34.5156 27.7492 33.6684 26.902C32.8212 26.0548 31.6729 25.5779 30.4748 25.5756H9.43042C8.23234 25.5779 7.08399 26.0548 6.23682 26.902C5.38965 27.7492 4.9127 28.8975 4.91042 30.0956V33.4057Z" fill="#8C8C8C"/>
</g>
<path d="M54.672 20.816C55.936 20.816 56.888 20.496 57.528 19.856C58.152 19.232 58.464 18.456 58.464 17.528C58.464 16.488 58.144 15.656 57.504 15.032C56.848 14.424 55.88 14.12 54.6 14.12H53.136C52.912 14.12 52.736 14.184 52.608 14.312C52.48 14.44 52.416 14.616 52.416 14.84V20.096C52.416 20.32 52.48 20.496 52.608 20.624C52.736 20.752 52.912 20.816 53.136 20.816H54.672ZM51.696 29.12H50.52C50.296 29.12 50.12 29.056 49.992 28.928C49.864 28.8 49.8 28.624 49.8 28.4V12.632C49.8 12.408 49.864 12.232 49.992 12.104C50.12 11.976 50.296 11.912 50.52 11.912H54.648C56.664 11.912 58.248 12.44 59.4 13.496C60.536 14.584 61.104 15.928 61.104 17.528C61.104 19.112 60.528 20.424 59.376 21.464C58.208 22.488 56.696 23 54.84 23H53.136C52.912 23 52.736 23.064 52.608 23.192C52.48 23.32 52.416 23.496 52.416 23.72V28.4C52.416 28.624 52.352 28.8 52.224 28.928C52.096 29.056 51.92 29.12 51.696 29.12ZM67.779 29.24C66.499 29.24 65.459 28.864 64.659 28.112C63.843 27.36 63.435 26.32 63.435 24.992V16.856C63.435 16.632 63.499 16.456 63.627 16.328C63.755 16.2 63.931 16.136 64.155 16.136H65.211C65.435 16.136 65.611 16.2 65.739 16.328C65.867 16.456 65.931 16.632 65.931 16.856V24.392C65.931 25.288 66.179 25.96 66.675 26.408C67.139 26.856 67.739 27.08 68.475 27.08C69.435 27.08 70.235 26.744 70.875 26.072C71.499 25.416 71.811 24.464 71.811 23.216V16.856C71.811 16.632 71.875 16.456 72.003 16.328C72.131 16.2 72.307 16.136 72.531 16.136H73.611C73.835 16.136 74.011 16.2 74.139 16.328C74.267 16.456 74.331 16.632 74.331 16.856V28.4C74.331 28.624 74.267 28.8 74.139 28.928C74.011 29.056 73.835 29.12 73.611 29.12H72.531C72.307 29.12 72.131 29.056 72.003 28.928C71.875 28.8 71.811 28.624 71.811 28.4V28.184C71.811 27.912 71.771 27.768 71.691 27.752C71.611 27.72 71.483 27.8 71.307 27.992C71.051 28.296 70.715 28.544 70.299 28.736C69.579 29.072 68.739 29.24 67.779 29.24ZM82.4158 29.24C81.0558 29.24 80.0478 28.88 79.3918 28.16C78.7518 27.472 78.4318 26.48 78.4318 25.184V18.848C78.4318 18.624 78.3678 18.448 78.2398 18.32C78.1118 18.192 77.9358 18.128 77.7118 18.128H77.1358C76.9118 18.128 76.7358 18.064 76.6078 17.936C76.4798 17.808 76.4158 17.632 76.4158 17.408V16.856C76.4158 16.632 76.4798 16.456 76.6078 16.328C76.7358 16.2 76.9118 16.136 77.1358 16.136H77.7118C77.9358 16.136 78.1118 16.072 78.2398 15.944C78.3678 15.816 78.4318 15.64 78.4318 15.416V13.712C78.4318 13.488 78.4958 13.312 78.6238 13.184C78.7518 13.056 78.9278 12.992 79.1518 12.992H80.2318C80.4558 12.992 80.6318 13.056 80.7598 13.184C80.8878 13.312 80.9518 13.488 80.9518 13.712V15.416C80.9518 15.64 81.0158 15.816 81.1438 15.944C81.2718 16.072 81.4478 16.136 81.6718 16.136H83.6398C83.8638 16.136 84.0398 16.2 84.1678 16.328C84.2958 16.456 84.3598 16.632 84.3598 16.856V17.408C84.3598 17.632 84.2958 17.808 84.1678 17.936C84.0398 18.064 83.8638 18.128 83.6398 18.128H81.6718C81.4478 18.128 81.2718 18.192 81.1438 18.32C81.0158 18.448 80.9518 18.624 80.9518 18.848V25.232C80.9518 26.448 81.5358 27.056 82.7038 27.056C83.0398 27.056 83.3678 27 83.6878 26.888C84.2478 26.664 84.5278 26.84 84.5278 27.416V28.28C84.5278 28.584 84.3918 28.792 84.1198 28.904C84.0078 28.952 83.8958 28.992 83.7838 29.024C83.6878 29.056 83.5758 29.088 83.4478 29.12C83.2398 29.152 83.0478 29.176 82.8718 29.192C82.7118 29.224 82.5598 29.24 82.4158 29.24ZM97.4158 29.24C96.0558 29.24 95.0478 28.88 94.3918 28.16C93.7518 27.472 93.4318 26.48 93.4318 25.184V18.848C93.4318 18.624 93.3678 18.448 93.2398 18.32C93.1118 18.192 92.9358 18.128 92.7118 18.128H92.1358C91.9118 18.128 91.7358 18.064 91.6078 17.936C91.4798 17.808 91.4158 17.632 91.4158 17.408V16.856C91.4158 16.632 91.4798 16.456 91.6078 16.328C91.7358 16.2 91.9118 16.136 92.1358 16.136H92.7118C92.9358 16.136 93.1118 16.072 93.2398 15.944C93.3678 15.816 93.4318 15.64 93.4318 15.416V13.712C93.4318 13.488 93.4958 13.312 93.6238 13.184C93.7518 13.056 93.9278 12.992 94.1518 12.992H95.2318C95.4558 12.992 95.6318 13.056 95.7598 13.184C95.8878 13.312 95.9518 13.488 95.9518 13.712V15.416C95.9518 15.64 96.0158 15.816 96.1438 15.944C96.2718 16.072 96.4478 16.136 96.6718 16.136H98.6398C98.8638 16.136 99.0398 16.2 99.1678 16.328C99.2958 16.456 99.3598 16.632 99.3598 16.856V17.408C99.3598 17.632 99.2958 17.808 99.1678 17.936C99.0398 18.064 98.8638 18.128 98.6398 18.128H96.6718C96.4478 18.128 96.2718 18.192 96.1438 18.32C96.0158 18.448 95.9518 18.624 95.9518 18.848V25.232C95.9518 26.448 96.5358 27.056 97.7038 27.056C98.0398 27.056 98.3678 27 98.6878 26.888C99.2478 26.664 99.5278 26.84 99.5278 27.416V28.28C99.5278 28.584 99.3918 28.792 99.1198 28.904C99.0078 28.952 98.8958 28.992 98.7838 29.024C98.6878 29.056 98.5758 29.088 98.4478 29.12C98.2398 29.152 98.0478 29.176 97.8718 29.192C97.7118 29.224 97.5598 29.24 97.4158 29.24ZM112.022 29.12H110.942C110.718 29.12 110.542 29.056 110.414 28.928C110.286 28.8 110.222 28.624 110.222 28.4V21.032C110.222 20.04 109.998 19.312 109.55 18.848C109.086 18.384 108.51 18.152 107.822 18.152C107.31 18.152 106.822 18.28 106.358 18.536C105.846 18.808 105.438 19.224 105.134 19.784C104.798 20.36 104.63 21.12 104.63 22.064V28.4C104.63 28.624 104.566 28.8 104.438 28.928C104.31 29.056 104.134 29.12 103.91 29.12H102.83C102.606 29.12 102.43 29.056 102.302 28.928C102.174 28.8 102.11 28.624 102.11 28.4V11.792C102.11 11.568 102.174 11.392 102.302 11.264C102.43 11.136 102.606 11.072 102.83 11.072H103.91C104.134 11.072 104.31 11.136 104.438 11.264C104.566 11.392 104.63 11.568 104.63 11.792V15.68C104.63 16.368 104.726 16.76 104.918 16.856C105.11 16.936 105.47 16.824 105.998 16.52C106.686 16.152 107.526 15.968 108.518 15.968C109.75 15.968 110.766 16.368 111.566 17.168C112.35 17.952 112.742 19.064 112.742 20.504V28.4C112.742 28.624 112.678 28.8 112.55 28.928C112.422 29.056 112.246 29.12 112.022 29.12ZM123.906 20.72C123.826 20.064 123.618 19.504 123.282 19.04C122.834 18.416 122.106 18.104 121.098 18.104C120.266 18.104 119.546 18.392 118.938 18.968C118.522 19.384 118.202 19.936 117.978 20.624C117.898 20.864 117.922 21.064 118.05 21.224C118.178 21.368 118.37 21.44 118.626 21.44H123.234C123.458 21.44 123.634 21.376 123.762 21.248C123.89 21.12 123.938 20.944 123.906 20.72ZM121.818 29.24C119.802 29.24 118.202 28.624 117.018 27.392C115.834 26.16 115.242 24.584 115.242 22.664C115.242 21.272 115.498 20.064 116.01 19.04C116.522 18.048 117.218 17.288 118.098 16.76C118.978 16.248 119.962 15.992 121.05 15.992C122.666 15.992 123.962 16.496 124.938 17.504C125.93 18.528 126.426 19.952 126.426 21.776C126.426 21.952 126.418 22.128 126.402 22.304C126.402 22.48 126.394 22.656 126.378 22.832C126.362 23.024 126.29 23.176 126.162 23.288C126.034 23.4 125.874 23.456 125.682 23.456H118.578C118.322 23.456 118.13 23.536 118.002 23.696C117.874 23.84 117.85 24.032 117.93 24.272C118.474 26.16 119.866 27.104 122.106 27.104C122.682 27.104 123.298 27.016 123.954 26.84C124.114 26.792 124.266 26.744 124.41 26.696C124.554 26.648 124.698 26.592 124.842 26.528C125.37 26.272 125.634 26.432 125.634 27.008V27.968C125.634 28.096 125.602 28.224 125.538 28.352C125.474 28.464 125.378 28.544 125.25 28.592C124.85 28.768 124.362 28.92 123.786 29.048C123.418 29.112 123.074 29.16 122.754 29.192C122.434 29.224 122.122 29.24 121.818 29.24ZM138.382 29.24C137.054 29.24 135.886 29.032 134.878 28.616C134.622 28.488 134.494 28.28 134.494 27.992V27.224C134.494 26.856 134.59 26.624 134.782 26.528C134.974 26.416 135.23 26.432 135.55 26.576C136.462 26.944 137.358 27.128 138.238 27.128C138.926 27.128 139.454 26.992 139.822 26.72C140.158 26.448 140.326 26.104 140.326 25.688C140.326 25.096 140.078 24.648 139.582 24.344C139.326 24.184 139.03 24.032 138.694 23.888C138.374 23.744 138.006 23.592 137.59 23.432C137.318 23.32 137.054 23.2 136.798 23.072C136.558 22.928 136.31 22.776 136.054 22.616C134.966 21.896 134.422 20.92 134.422 19.688C134.422 18.504 134.862 17.592 135.742 16.952C136.622 16.312 137.67 15.992 138.886 15.992C140.07 15.992 141.03 16.136 141.766 16.424C142.038 16.52 142.174 16.72 142.174 17.024V17.768C142.174 18.12 142.078 18.36 141.886 18.488C141.694 18.6 141.438 18.6 141.118 18.488C140.414 18.264 139.686 18.152 138.934 18.152C138.326 18.152 137.846 18.288 137.494 18.56C137.158 18.816 136.99 19.16 136.99 19.592C136.99 20.12 137.222 20.528 137.686 20.816C138.134 21.104 138.678 21.376 139.318 21.632C139.686 21.792 140.022 21.952 140.326 22.112C140.646 22.272 140.942 22.44 141.214 22.616C142.334 23.352 142.894 24.32 142.894 25.52C142.894 26.672 142.486 27.576 141.67 28.232C140.838 28.904 139.742 29.24 138.382 29.24ZM153.32 20.72C153.24 20.064 153.032 19.504 152.696 19.04C152.248 18.416 151.52 18.104 150.512 18.104C149.68 18.104 148.96 18.392 148.352 18.968C147.936 19.384 147.616 19.936 147.392 20.624C147.312 20.864 147.336 21.064 147.464 21.224C147.592 21.368 147.784 21.44 148.04 21.44H152.648C152.872 21.44 153.048 21.376 153.176 21.248C153.304 21.12 153.352 20.944 153.32 20.72ZM151.232 29.24C149.216 29.24 147.616 28.624 146.432 27.392C145.248 26.16 144.656 24.584 144.656 22.664C144.656 21.272 144.912 20.064 145.424 19.04C145.936 18.048 146.632 17.288 147.512 16.76C148.392 16.248 149.376 15.992 150.464 15.992C152.08 15.992 153.376 16.496 154.352 17.504C155.344 18.528 155.84 19.952 155.84 21.776C155.84 21.952 155.832 22.128 155.816 22.304C155.816 22.48 155.808 22.656 155.792 22.832C155.776 23.024 155.704 23.176 155.576 23.288C155.448 23.4 155.288 23.456 155.096 23.456H147.992C147.736 23.456 147.544 23.536 147.416 23.696C147.288 23.84 147.264 24.032 147.344 24.272C147.888 26.16 149.28 27.104 151.52 27.104C152.096 27.104 152.712 27.016 153.368 26.84C153.528 26.792 153.68 26.744 153.824 26.696C153.968 26.648 154.112 26.592 154.256 26.528C154.784 26.272 155.048 26.432 155.048 27.008V27.968C155.048 28.096 155.016 28.224 154.952 28.352C154.888 28.464 154.792 28.544 154.664 28.592C154.264 28.768 153.776 28.92 153.2 29.048C152.832 29.112 152.488 29.16 152.168 29.192C151.848 29.224 151.536 29.24 151.232 29.24ZM162.794 27.2C163.61 27.2 164.25 26.968 164.714 26.504C165.162 26.056 165.386 25.48 165.386 24.776V23.744C165.386 23.472 165.306 23.28 165.146 23.168C165.002 23.04 164.794 23 164.522 23.048L163.466 23.24C162.858 23.368 162.362 23.488 161.978 23.6C161.546 23.712 161.21 23.904 160.97 24.176C160.73 24.432 160.61 24.808 160.61 25.304C160.61 25.864 160.786 26.32 161.138 26.672C161.49 27.024 162.042 27.2 162.794 27.2ZM162.05 29.216C160.802 29.216 159.81 28.848 159.074 28.112C158.322 27.392 157.946 26.488 157.946 25.4C157.946 24.392 158.162 23.64 158.594 23.144C159.026 22.648 159.61 22.28 160.346 22.04C161.066 21.816 161.882 21.624 162.794 21.464L164.81 21.08C164.986 21.048 165.122 20.968 165.218 20.84C165.33 20.696 165.378 20.536 165.362 20.36C165.282 19.752 165.114 19.256 164.858 18.872C164.506 18.392 163.778 18.152 162.674 18.152C161.778 18.152 160.882 18.344 159.986 18.728C159.65 18.888 159.386 18.912 159.194 18.8C159.002 18.688 158.906 18.448 158.906 18.08V17.264C158.906 17.136 158.938 17.016 159.002 16.904C159.066 16.776 159.162 16.688 159.29 16.64C160.33 16.16 161.53 15.92 162.89 15.92C164.65 15.92 165.93 16.344 166.73 17.192C167.53 18.072 167.93 19.304 167.93 20.888V28.4C167.93 28.624 167.866 28.8 167.738 28.928C167.61 29.056 167.434 29.12 167.21 29.12H166.106C165.914 29.12 165.754 29.064 165.626 28.952C165.514 28.824 165.458 28.664 165.458 28.472C165.458 28.12 165.33 28.064 165.074 28.304C164.914 28.448 164.698 28.592 164.426 28.736C163.866 29.056 163.074 29.216 162.05 29.216ZM174.445 29.24C173.581 29.24 172.925 29.064 172.477 28.712C172.029 28.344 171.717 27.84 171.541 27.2C171.365 26.528 171.277 25.776 171.277 24.944V11.792C171.277 11.568 171.341 11.392 171.469 11.264C171.597 11.136 171.773 11.072 171.997 11.072H173.053C173.277 11.072 173.453 11.136 173.581 11.264C173.709 11.392 173.773 11.568 173.773 11.792V24.824C173.773 25.64 173.837 26.216 173.965 26.552C174.077 26.856 174.301 27.008 174.637 27.008C174.749 27.008 174.853 27.008 174.949 27.008C175.045 26.992 175.149 26.976 175.261 26.96C175.645 26.88 175.837 27.032 175.837 27.416V28.472C175.837 28.648 175.789 28.8 175.693 28.928C175.597 29.04 175.469 29.112 175.309 29.144C175.037 29.208 174.749 29.24 174.445 29.24ZM188.275 29.312C186.963 29.312 185.859 29.016 184.963 28.424C184.035 27.816 183.347 27.024 182.899 26.048C182.419 25.056 182.179 23.952 182.179 22.736C182.179 21.504 182.435 20.36 182.947 19.304C183.459 18.264 184.163 17.448 185.059 16.856C185.987 16.248 187.059 15.944 188.275 15.944C189.619 15.944 190.763 16.248 191.707 16.856C192.619 17.464 193.307 18.272 193.771 19.28C194.235 20.336 194.467 21.456 194.467 22.64C194.467 23.888 194.227 25.016 193.747 26.024C193.267 27.016 192.571 27.816 191.659 28.424C190.731 29.016 189.603 29.312 188.275 29.312ZM188.275 27.176C189.075 27.176 189.747 26.968 190.291 26.552C190.819 26.152 191.211 25.608 191.467 24.92C191.723 24.264 191.851 23.52 191.851 22.688C191.851 21.888 191.739 21.128 191.515 20.408C191.275 19.704 190.891 19.152 190.363 18.752C189.819 18.336 189.123 18.128 188.275 18.128C187.491 18.128 186.843 18.336 186.331 18.752C185.835 19.152 185.451 19.704 185.179 20.408C184.907 21.128 184.771 21.88 184.771 22.664C184.771 23.88 185.083 24.936 185.707 25.832C186.315 26.728 187.171 27.176 188.275 27.176ZM207.302 29.12H206.246C206.022 29.12 205.846 29.056 205.718 28.928C205.59 28.8 205.526 28.624 205.526 28.4V20.888C205.526 19.96 205.278 19.272 204.782 18.824C204.286 18.376 203.686 18.152 202.982 18.152C202.422 18.152 201.886 18.296 201.374 18.584C200.846 18.888 200.43 19.32 200.126 19.88C199.806 20.488 199.646 21.216 199.646 22.064V28.4C199.646 28.624 199.582 28.8 199.454 28.928C199.326 29.056 199.15 29.12 198.926 29.12H197.846C197.622 29.12 197.446 29.056 197.318 28.928C197.19 28.8 197.126 28.624 197.126 28.4V16.856C197.126 16.632 197.19 16.456 197.318 16.328C197.446 16.2 197.622 16.136 197.846 16.136H198.926C199.15 16.136 199.326 16.2 199.454 16.328C199.582 16.456 199.646 16.632 199.646 16.856V17.072C199.646 17.584 199.83 17.648 200.198 17.264C200.998 16.4 202.134 15.968 203.606 15.968C204.902 15.968 205.966 16.352 206.798 17.12C207.614 17.888 208.022 18.952 208.022 20.312V28.4C208.022 28.624 207.958 28.8 207.83 28.928C207.702 29.056 207.526 29.12 207.302 29.12Z" fill="black" fill-opacity="0.45"/>
<defs>
<clipPath id="clip0_1397_34800">
<rect width="40" height="40" fill="white"/>
</clipPath>
</defs>
</svg>
