<svg width="417" height="624" viewBox="0 0 417 624" fill="none" xmlns="http://www.w3.org/2000/svg">
<g opacity="0.67">
<path d="M312.126 52.8373C312.126 66.585 306.664 79.7697 296.941 89.4919C287.218 99.214 274.031 104.677 260.279 104.68C253.469 104.68 246.727 106.02 240.436 108.624C234.144 111.229 228.428 115.046 223.613 119.859C218.798 124.673 214.978 130.387 212.372 136.676C209.766 142.964 208.425 149.705 208.425 156.512C208.426 163.32 207.085 170.061 204.48 176.351C201.874 182.641 198.055 188.356 193.24 193.17C188.425 197.984 182.708 201.803 176.416 204.409C170.125 207.014 163.382 208.355 156.572 208.355H52.8534C46.0435 208.355 39.3002 207.014 33.0087 204.409C26.7172 201.803 21.0006 197.984 16.1855 193.17C11.3704 188.356 7.55102 182.641 4.94547 176.351C2.33993 170.061 0.999253 163.32 1 156.512V52.8373C1 39.0892 6.46312 25.9042 16.1875 16.1828C25.9119 6.46142 39.1011 1 52.8534 1H260.273C274.025 1 287.214 6.46142 296.939 16.1828C306.663 25.9042 312.126 39.0892 312.126 52.8373Z" fill="#155C96" stroke="white" stroke-width="0.5" stroke-miterlimit="10"/>
<path d="M415.84 52.8389V156.514C415.912 163.367 414.624 170.167 412.05 176.519C409.476 182.872 405.668 188.651 400.846 193.523C396.023 198.394 390.282 202.262 383.955 204.901C377.628 207.541 370.84 208.9 363.984 208.9C357.128 208.9 350.34 207.541 344.013 204.901C337.686 202.262 331.945 198.394 327.123 193.523C322.3 188.651 318.492 182.872 315.918 176.519C313.344 170.167 312.056 163.367 312.128 156.514V52.8389C312.271 39.1841 317.797 26.1372 327.507 16.532C337.216 6.92679 350.324 1.53906 363.984 1.53906C377.644 1.53906 390.752 6.92679 400.461 16.532C410.171 26.1372 415.697 39.1841 415.84 52.8389Z" fill="#ECB72E" stroke="white" stroke-width="0.5" stroke-miterlimit="10"/>
</g>
<g opacity="0.83">
<path d="M415.841 260.518V571.542C415.842 578.35 414.501 585.091 411.896 591.381C409.29 597.671 405.471 603.386 400.656 608.2C395.841 613.014 390.124 616.833 383.833 619.438C377.541 622.044 370.798 623.385 363.988 623.385H260.275C253.466 623.385 246.723 622.044 240.432 619.439C234.141 616.834 228.424 613.015 223.609 608.202C218.794 603.388 214.975 597.674 212.369 591.385C209.763 585.095 208.422 578.355 208.422 571.547C208.422 564.74 209.763 557.999 212.369 551.71C214.975 545.421 218.794 539.706 223.609 534.893C228.424 530.079 234.141 526.261 240.432 523.656C246.723 521.051 253.466 519.71 260.275 519.71H261.744C275.237 519.326 288.048 513.699 297.457 504.022C306.865 494.346 312.128 481.384 312.129 467.89V364.192C312.129 350.444 306.666 337.258 296.942 327.536C287.217 317.814 274.028 312.351 260.275 312.349C253.466 312.35 246.723 311.01 240.432 308.406C234.141 305.801 228.425 301.983 223.61 297.17C218.795 292.357 214.975 286.643 212.369 280.354C209.763 274.065 208.422 267.325 208.422 260.518V156.837C208.422 143.089 213.885 129.904 223.609 120.183C233.334 110.461 246.523 105 260.275 105C274.028 105 287.217 110.461 296.941 120.183C306.666 129.904 312.129 143.089 312.129 156.837C312.129 163.645 313.47 170.386 316.076 176.676C318.683 182.965 322.503 188.68 327.318 193.494C332.134 198.307 337.851 202.126 344.143 204.73C350.434 207.335 357.178 208.675 363.988 208.675C377.741 208.676 390.93 214.139 400.654 223.861C410.378 233.583 415.841 246.769 415.841 260.518Z" fill="#3AAE91" stroke="white" stroke-width="0.5" stroke-miterlimit="10"/>
<path d="M312.126 364.193V467.862C312.126 481.61 306.663 494.796 296.939 504.518C287.215 514.241 274.026 519.703 260.273 519.705H259.134C247.254 519.706 235.733 523.784 226.499 531.258C217.265 538.731 210.877 549.146 208.402 560.763V571.536C208.402 585.285 202.939 598.47 193.215 608.191C183.49 617.912 170.301 623.374 156.549 623.374C142.797 623.374 129.607 617.912 119.883 608.191C110.159 598.47 104.696 585.285 104.696 571.536V363.14C104.693 351.178 100.554 339.585 92.9797 330.324C85.4055 321.064 74.862 314.706 63.1353 312.327H52.8534C39.1011 312.327 25.9119 306.866 16.1875 297.144C6.46311 287.423 1 274.238 1 260.49C1 246.742 6.46311 233.557 16.1875 223.835C25.9119 214.114 39.1011 208.652 52.8534 208.652H156.566C170.319 208.654 183.508 214.117 193.232 223.839C202.957 233.561 208.419 246.747 208.419 260.495C208.419 267.302 209.761 274.043 212.367 280.332C214.973 286.621 218.792 292.335 223.607 297.148C228.422 301.961 234.139 305.779 240.43 308.383C246.721 310.988 253.464 312.328 260.273 312.327C267.085 312.328 273.829 313.67 280.122 316.277C286.415 318.884 292.132 322.705 296.947 327.522C301.763 332.338 305.581 338.056 308.186 344.348C310.79 350.64 312.129 357.383 312.126 364.193Z" fill="#EFC2D2" stroke="white" stroke-width="0.5" stroke-miterlimit="10"/>
<path d="M104.713 363.14V570.495C104.569 584.15 99.043 597.196 89.3336 606.802C79.6242 616.407 66.5161 621.795 52.8563 621.795C39.1965 621.795 26.0883 616.407 16.379 606.802C6.66956 597.196 1.14312 584.15 1 570.495V363.14C1.14312 349.485 6.66956 336.438 16.379 326.833C26.0883 317.228 39.1965 311.84 52.8563 311.84C66.5161 311.84 79.6242 317.228 89.3336 326.833C99.043 336.438 104.569 349.485 104.713 363.14Z" fill="#E38C1A" stroke="white" stroke-width="0.5" stroke-miterlimit="10"/>
</g>
</svg>
