<svg width="417" height="624" viewBox="0 0 417 624" fill="none" xmlns="http://www.w3.org/2000/svg">
<path d="M312.126 52.8373C312.126 66.5845 306.664 79.7686 296.941 89.4899C287.218 99.2111 274.03 104.673 260.279 104.675C246.526 104.675 233.337 110.136 223.613 119.857C213.888 129.579 208.425 142.764 208.425 156.512C208.425 170.26 202.962 183.445 193.238 193.167C183.513 202.888 170.324 208.349 156.572 208.349H52.8534C39.1011 208.349 25.9119 202.888 16.1875 193.167C6.46311 183.445 1 170.26 1 156.512V52.8373C1 39.0892 6.46311 25.9042 16.1875 16.1828C25.9119 6.46142 39.1011 1 52.8534 1H260.273C274.025 1 287.214 6.46142 296.939 16.1828C306.663 25.9042 312.126 39.0892 312.126 52.8373Z" fill="#182E7A" stroke="white" stroke-width="0.5" stroke-miterlimit="10"/>
<path d="M415.838 52.8389V156.514C415.694 170.168 410.168 183.215 400.459 192.82C390.749 202.426 377.641 207.813 363.981 207.813C350.322 207.813 337.213 202.426 327.504 192.82C317.795 183.215 312.268 170.168 312.125 156.514V52.8389C312.268 39.1841 317.795 26.1372 327.504 16.532C337.213 6.92678 350.322 1.53906 363.981 1.53906C377.641 1.53906 390.749 6.92678 400.459 16.532C410.168 26.1372 415.694 39.1841 415.838 52.8389Z" fill="#E9C91C" stroke="white" stroke-width="0.5" stroke-miterlimit="10"/>
<path d="M415.839 260.193V571.223C415.839 578.03 414.498 584.771 411.892 591.06C409.286 597.35 405.467 603.064 400.652 607.878C395.837 612.691 390.121 616.509 383.829 619.115C377.538 621.72 370.795 623.06 363.986 623.06H260.273C246.521 623.06 233.332 617.599 223.607 607.878C213.883 598.156 208.42 584.971 208.42 571.223C208.42 557.475 213.883 544.29 223.607 534.569C233.332 524.847 246.521 519.386 260.273 519.386H261.742C275.237 519.002 288.05 513.373 297.459 503.694C306.867 494.015 312.129 481.05 312.127 467.554V363.868C312.127 350.12 306.664 336.935 296.939 327.214C287.215 317.492 274.026 312.031 260.273 312.031C246.521 312.031 233.332 306.569 223.607 296.848C213.883 287.127 208.42 273.942 208.42 260.193V156.513C208.42 142.765 213.883 129.58 223.607 119.859C233.332 110.137 246.521 104.676 260.273 104.676C274.026 104.676 287.215 110.137 296.939 119.859C306.664 129.58 312.127 142.765 312.127 156.513C312.127 163.321 313.468 170.062 316.074 176.352C318.681 182.641 322.501 188.356 327.316 193.17C332.132 197.983 337.849 201.801 344.141 204.406C350.433 207.011 357.176 208.351 363.986 208.35C377.739 208.352 390.928 213.815 400.652 223.537C410.376 233.259 415.839 246.445 415.839 260.193Z" fill="#2BAB9F" stroke="white" stroke-width="0.5" stroke-miterlimit="10"/>
<path d="M312.126 363.867V467.553C312.127 474.361 310.786 481.102 308.18 487.392C305.575 493.682 301.755 499.397 296.94 504.211C292.125 509.026 286.409 512.844 280.117 515.45C273.826 518.055 267.082 519.396 260.272 519.396H259.134C247.253 519.398 235.733 523.476 226.499 530.949C217.265 538.422 210.877 548.838 208.402 560.454V571.234C208.402 584.982 202.939 598.167 193.214 607.888C183.49 617.609 170.301 623.071 156.548 623.071C142.796 623.071 129.607 617.609 119.882 607.888C110.158 598.167 104.695 584.982 104.695 571.234V362.831C104.692 350.87 100.553 339.278 92.9786 330.018C85.4044 320.759 74.861 314.402 63.1348 312.024H52.8529C39.1939 311.881 26.1429 306.356 16.5347 296.65C6.92651 286.944 1.53711 273.839 1.53711 260.184C1.53711 246.528 6.92651 233.424 16.5347 223.718C26.1429 214.012 39.1939 208.487 52.8529 208.344H156.565C170.318 208.345 183.508 213.808 193.232 223.53C202.956 233.253 208.419 246.438 208.419 260.187C208.419 273.935 213.882 287.12 223.606 296.841C233.331 306.563 246.52 312.024 260.272 312.024C267.082 312.024 273.826 313.365 280.117 315.971C286.409 318.576 292.125 322.395 296.94 327.209C301.755 332.023 305.575 337.738 308.18 344.028C310.786 350.318 312.127 357.059 312.126 363.867Z" fill="#F4D9E7" stroke="white" stroke-width="0.5" stroke-miterlimit="10"/>
<path d="M104.713 362.831V570.186C104.569 583.841 99.043 596.888 89.3336 606.493C79.6242 616.098 66.5161 621.486 52.8563 621.486C39.1965 621.486 26.0883 616.098 16.379 606.493C6.66956 596.888 1.14312 583.841 1 570.186V362.831C1.14312 349.176 6.66956 336.129 16.379 326.524C26.0883 316.919 39.1965 311.531 52.8563 311.531C66.5161 311.531 79.6242 316.919 89.3336 326.524C99.043 336.129 104.569 349.176 104.713 362.831Z" fill="#E2730E" stroke="white" stroke-width="0.5" stroke-miterlimit="10"/>
</svg>
