<svg width="417" height="624" viewBox="0 0 417 624" fill="none" xmlns="http://www.w3.org/2000/svg">
<g opacity="0.83">
<path d="M312.126 52.8544C312.126 66.6015 306.664 79.7857 296.941 89.5069C287.218 99.2282 274.03 104.69 260.279 104.692C246.526 104.692 233.337 110.153 223.613 119.875C213.888 129.596 208.425 142.781 208.425 156.529C208.426 163.337 207.085 170.078 204.48 176.368C201.874 182.658 198.055 188.373 193.24 193.187C188.425 198.001 182.708 201.82 176.416 204.426C170.125 207.031 163.382 208.372 156.572 208.372H52.8535C46.042 208.372 39.2974 207.031 33.0047 204.424C26.7121 201.818 20.9948 197.997 16.1795 193.181C11.3641 188.365 7.54512 182.648 4.94058 176.356C2.33604 170.064 0.997014 163.321 1.00001 156.512V52.8544C0.997762 46.0456 2.33734 39.303 4.94221 33.0119C7.54709 26.7207 11.3662 21.0042 16.1815 16.1888C20.9967 11.3735 26.7138 7.55365 33.006 4.94751C39.2983 2.34138 46.0425 1 52.8535 1H260.273C267.084 1 273.828 2.34138 280.12 4.94751C286.413 7.55365 292.13 11.3735 296.945 16.1888C301.76 21.0042 305.579 26.7207 308.184 33.0119C310.789 39.303 312.129 46.0456 312.126 52.8544Z" fill="#154587" stroke="white" stroke-width="0.5" stroke-miterlimit="10"/>
<path d="M415.84 52.8545V156.512C415.912 163.366 414.624 170.165 412.05 176.518C409.476 182.87 405.668 188.65 400.846 193.521C396.023 198.393 390.282 202.26 383.955 204.9C377.628 207.539 370.84 208.898 363.984 208.898C357.128 208.898 350.34 207.539 344.013 204.9C337.686 202.26 331.945 198.393 327.123 193.521C322.3 188.65 318.492 182.87 315.918 176.518C313.344 170.165 312.056 163.366 312.128 156.512V52.8545C312.271 39.1997 317.797 26.1528 327.507 16.5476C337.216 6.94241 350.324 1.55469 363.984 1.55469C377.644 1.55469 390.752 6.94241 400.461 16.5476C410.171 26.1528 415.697 39.1997 415.84 52.8545Z" fill="#EBC027" stroke="white" stroke-width="0.5" stroke-miterlimit="10"/>
</g>
<g opacity="0.91">
<path d="M415.843 260.518V571.547C415.843 578.355 414.502 585.095 411.896 591.385C409.29 597.674 405.471 603.388 400.656 608.202C395.841 613.015 390.124 616.834 383.833 619.439C377.542 622.044 370.799 623.385 363.99 623.385H260.277C246.525 623.385 233.336 617.923 223.611 608.202C213.887 598.48 208.424 585.296 208.424 571.547C208.424 557.799 213.887 544.614 223.611 534.893C233.336 525.171 246.525 519.71 260.277 519.71H261.746C275.243 519.329 288.058 513.7 297.468 504.019C306.877 494.339 312.138 481.371 312.131 467.873V364.198C312.131 357.39 310.791 350.649 308.185 344.359C305.58 338.069 301.76 332.354 296.945 327.54C292.13 322.726 286.414 318.907 280.122 316.301C273.831 313.696 267.087 312.355 260.277 312.355C246.525 312.355 233.336 306.894 223.611 297.172C213.887 287.451 208.424 274.266 208.424 260.518V156.837C208.424 143.089 213.887 129.904 223.611 120.183C233.336 110.461 246.525 105 260.277 105C274.03 105 287.219 110.461 296.943 120.183C306.668 129.904 312.131 143.089 312.131 156.837C312.131 163.645 313.472 170.387 316.078 176.677C318.684 182.967 322.504 188.682 327.32 193.496C332.135 198.31 337.852 202.129 344.144 204.734C350.436 207.339 357.18 208.68 363.99 208.68C377.742 208.68 390.931 214.142 400.656 223.863C410.38 233.585 415.843 246.77 415.843 260.518Z" fill="#33AC98" stroke="white" stroke-width="0.5" stroke-miterlimit="10"/>
<path d="M312.128 364.199V467.874C312.128 481.622 306.665 494.807 296.941 504.528C287.216 514.249 274.027 519.711 260.275 519.711H259.136C247.255 519.713 235.734 523.792 226.5 531.266C217.266 538.74 210.878 549.157 208.404 560.774V571.548C208.404 585.296 202.941 598.481 193.217 608.203C183.492 617.924 170.303 623.386 156.551 623.386C142.799 623.386 129.609 617.924 119.885 608.203C110.161 598.481 104.697 585.296 104.697 571.548V363.152C104.696 351.189 100.557 339.596 92.9829 330.335C85.4086 321.074 74.8644 314.716 63.1373 312.339H52.8554C39.103 312.339 25.9139 306.877 16.1895 297.156C6.46507 287.435 1.00195 274.25 1.00195 260.501C1.00195 246.753 6.46507 233.568 16.1895 223.847C25.9139 214.125 39.103 208.664 52.8554 208.664H156.568C170.32 208.664 183.509 214.125 193.234 223.847C202.958 233.568 208.421 246.753 208.421 260.501C208.421 274.25 213.885 287.435 223.609 297.156C233.333 306.877 246.522 312.339 260.275 312.339C267.086 312.339 273.831 313.68 280.124 316.287C286.416 318.893 292.134 322.714 296.949 327.53C301.764 332.346 305.583 338.063 308.188 344.355C310.792 350.646 312.131 357.39 312.128 364.199Z" fill="#F1CEDD" stroke="white" stroke-width="0.5" stroke-miterlimit="10"/>
<path d="M104.715 363.152V570.501C104.787 577.355 103.499 584.154 100.925 590.507C98.3514 596.859 94.5431 602.639 89.7207 607.51C84.8983 612.382 79.1574 616.249 72.8302 618.889C66.503 621.528 59.7151 622.887 52.8591 622.887C46.0032 622.887 39.2153 621.528 32.8881 618.889C26.5609 616.249 20.82 612.382 15.9976 607.51C11.1752 602.639 7.36688 596.859 4.79307 590.507C2.21926 584.154 0.931013 577.355 1.00285 570.501V363.152C0.931013 356.298 2.21926 349.499 4.79307 343.146C7.36688 336.794 11.1752 331.014 15.9976 326.143C20.82 321.271 26.5609 317.403 32.8881 314.764C39.2153 312.125 46.0032 310.766 52.8591 310.766C59.7151 310.766 66.503 312.125 72.8302 314.764C79.1574 317.403 84.8983 321.271 89.7207 326.143C94.5431 331.014 98.3514 336.794 100.925 343.146C103.499 349.499 104.787 356.298 104.715 363.152Z" fill="#E38014" stroke="white" stroke-width="0.5" stroke-miterlimit="10"/>
</g>
</svg>
