<svg width="415" height="621" viewBox="0 0 415 621" fill="none" xmlns="http://www.w3.org/2000/svg">
<g clip-path="url(#clip0_581_35618)">
<g opacity="0.05">
<path d="M414.839 258.518V569.542C414.84 576.35 413.499 583.091 410.894 589.381C408.288 595.671 404.469 601.386 399.654 606.2C394.839 611.014 389.122 614.833 382.831 617.438C376.539 620.044 369.796 621.385 362.986 621.385H259.273C245.521 621.385 232.332 615.923 222.607 606.202C212.883 596.48 207.42 583.296 207.42 569.547C207.42 555.799 212.883 542.614 222.607 532.893C232.332 523.171 245.521 517.71 259.273 517.71H260.742C274.23 517.326 287.037 511.703 296.445 502.032C305.852 492.362 311.119 479.407 311.127 465.918V362.204C311.127 348.455 305.664 335.269 295.94 325.547C286.215 315.825 273.026 310.362 259.273 310.361C252.464 310.361 245.721 309.021 239.43 306.417C233.139 303.812 227.423 299.995 222.608 295.182C217.793 290.368 213.973 284.654 211.367 278.365C208.761 272.077 207.42 265.336 207.42 258.529V154.837C207.42 141.089 212.883 127.904 222.607 118.183C232.332 108.461 245.521 103 259.273 103C273.026 103 286.215 108.461 295.939 118.183C305.664 127.904 311.127 141.089 311.127 154.837C311.127 161.645 312.468 168.386 315.074 174.676C317.681 180.966 321.501 186.68 326.316 191.494C331.132 196.307 336.849 200.126 343.141 202.73C349.433 205.335 356.176 206.675 362.986 206.675C376.739 206.676 389.928 212.139 399.652 221.861C409.376 231.583 414.839 244.769 414.839 258.518Z" fill="#65B84A" stroke="white" stroke-width="0.5" stroke-miterlimit="10"/>
<path d="M311.126 362.205V465.88C311.126 479.628 305.663 492.814 295.939 502.536C286.215 512.258 273.026 517.721 259.273 517.723H258.134C246.254 517.724 234.733 521.802 225.499 529.275C216.265 536.749 209.877 547.164 207.402 558.78V569.554C207.402 583.302 201.939 596.487 192.215 606.209C182.49 615.93 169.301 621.392 155.549 621.392C141.797 621.392 128.607 615.93 118.883 606.209C109.159 596.487 103.696 583.302 103.696 569.554V361.163C103.693 349.201 99.5538 337.608 91.9797 328.348C84.4055 319.087 73.862 312.729 62.1353 310.35H51.8534C38.1011 310.35 24.9119 304.889 15.1875 295.168C5.46311 285.446 0 272.261 0 258.513C0 244.765 5.46311 231.58 15.1875 221.859C24.9119 212.137 38.1011 206.676 51.8534 206.676H155.566C169.319 206.677 182.508 212.14 192.232 221.862C201.957 231.585 207.419 244.77 207.419 258.519C207.419 265.326 208.761 272.066 211.367 278.355C213.973 284.644 217.792 290.358 222.607 295.171C227.422 299.984 233.139 303.802 239.43 306.407C245.721 309.011 252.464 310.351 259.273 310.35C266.084 310.351 272.828 311.693 279.119 314.3C285.411 316.906 291.128 320.726 295.943 325.541C300.758 330.356 304.578 336.072 307.183 342.363C309.788 348.654 311.128 355.396 311.126 362.205Z" fill="#D94F7A" stroke="white" stroke-width="0.5" stroke-miterlimit="10"/>
<path d="M103.713 361.163V568.518C103.569 582.173 98.043 595.22 88.3336 604.825C78.6242 614.43 65.5161 619.818 51.8563 619.818C38.1965 619.818 25.0883 614.43 15.379 604.825C5.66956 595.22 0.143121 582.173 0 568.518V361.163C0.143121 347.508 5.66956 334.461 15.379 324.856C25.0883 315.251 38.1965 309.863 51.8563 309.863C65.5161 309.863 78.6242 315.251 88.3336 324.856C98.043 334.461 103.569 347.508 103.713 361.163Z" fill="#E4E756" stroke="white" stroke-width="0.5" stroke-miterlimit="10"/>
</g>
</g>
<defs>
<clipPath id="clip0_581_35618">
<rect width="415" height="621" fill="white"/>
</clipPath>
</defs>
</svg>
