<svg width="415" height="621" viewBox="0 0 415 621" fill="none" xmlns="http://www.w3.org/2000/svg">
<g clip-path="url(#clip0_581_35618)">
<g opacity="0.31">
<path d="M414.843 258.518V569.547C414.843 583.296 409.38 596.482 399.656 606.204C389.932 615.926 376.743 621.389 362.99 621.39H259.277C245.618 621.247 232.567 615.723 222.959 606.016C213.351 596.31 207.961 583.206 207.961 569.55C207.961 555.895 213.351 542.791 222.959 533.084C232.567 523.378 245.618 517.853 259.277 517.71H260.746C274.235 517.329 287.044 511.706 296.452 502.036C305.86 492.365 311.126 479.408 311.131 465.918V362.198C311.131 355.39 309.791 348.649 307.185 342.359C304.58 336.069 300.76 330.354 295.945 325.54C291.13 320.726 285.414 316.907 279.122 314.301C272.831 311.696 266.087 310.355 259.277 310.355C245.525 310.355 232.336 304.894 222.611 295.172C212.887 285.451 207.424 272.266 207.424 258.518V154.837C207.424 141.089 212.887 127.904 222.611 118.183C232.336 108.461 245.525 103 259.277 103C273.03 103 286.219 108.461 295.943 118.183C305.668 127.904 311.131 141.089 311.131 154.837C311.131 168.587 316.594 181.773 326.32 191.496C336.045 201.218 349.236 206.68 362.99 206.68C369.799 206.68 376.542 208.021 382.833 210.626C389.124 213.231 394.841 217.05 399.656 221.863C404.471 226.677 408.29 232.391 410.896 238.68C413.502 244.97 414.843 251.71 414.843 258.518Z" fill="#59B563" stroke="white" stroke-width="0.5" stroke-miterlimit="10"/>
<path d="M311.128 362.197V465.872C311.128 479.62 305.665 492.805 295.941 502.527C286.216 512.248 273.027 517.709 259.275 517.709H258.136C246.255 517.711 234.734 521.79 225.5 529.264C216.266 536.739 209.878 547.155 207.404 558.773V569.547C207.404 583.295 201.941 596.48 192.217 606.201C182.492 615.923 169.303 621.384 155.551 621.384C141.799 621.384 128.609 615.923 118.885 606.201C109.161 596.48 103.697 583.295 103.697 569.547V361.167C103.696 349.205 99.5573 337.611 91.9829 328.351C84.4086 319.09 73.8644 312.732 62.1373 310.354H51.8554C38.103 310.354 24.9139 304.893 15.1895 295.172C5.46507 285.45 0.00195313 272.265 0.00195312 258.517C0.00195312 244.769 5.46507 231.584 15.1895 221.862C24.9139 212.141 38.103 206.68 51.8554 206.68H155.568C169.32 206.68 182.509 212.141 192.234 221.862C201.958 231.584 207.421 244.769 207.421 258.517C207.421 265.324 208.763 272.065 211.369 278.354C213.974 284.644 217.794 290.358 222.609 295.172C227.424 299.985 233.14 303.803 239.431 306.408C245.723 309.014 252.465 310.354 259.275 310.354C266.085 310.354 272.828 311.695 279.12 314.301C285.411 316.906 291.128 320.725 295.943 325.539C300.758 330.353 304.577 336.068 307.183 342.358C309.788 348.648 311.129 355.39 311.128 362.197Z" fill="#DF7894" stroke="white" stroke-width="0.5" stroke-miterlimit="10"/>
<path d="M103.715 361.167V568.517C103.787 575.37 102.499 582.17 99.9252 588.522C97.3514 594.875 93.5431 600.654 88.7207 605.526C83.8983 610.398 78.1574 614.265 71.8302 616.905C65.503 619.544 58.7151 620.903 51.8591 620.903C45.0032 620.903 38.2153 619.544 31.8881 616.905C25.5609 614.265 19.82 610.398 14.9976 605.526C10.1752 600.654 6.36688 594.875 3.79307 588.522C1.21926 582.17 -0.0689867 575.37 0.00284682 568.517V361.167C-0.0689867 354.314 1.21926 347.514 3.79307 341.162C6.36688 334.809 10.1752 329.03 14.9976 324.158C19.82 319.287 25.5609 315.419 31.8881 312.78C38.2153 310.14 45.0032 308.781 51.8591 308.781C58.7151 308.781 65.503 310.14 71.8302 312.78C78.1574 315.419 83.8983 319.287 88.7207 324.158C93.5431 329.03 97.3514 334.809 99.9252 341.162C102.499 347.514 103.787 354.314 103.715 361.167Z" fill="#E5CC41" stroke="white" stroke-width="0.5" stroke-miterlimit="10"/>
</g>
</g>
<defs>
<clipPath id="clip0_581_35618">
<rect width="415" height="621" fill="white"/>
</clipPath>
</defs>
</svg>
