<svg width="417" height="624" viewBox="0 0 417 624" fill="none" xmlns="http://www.w3.org/2000/svg">
<g opacity="0.5">
<path d="M312.126 52.8316C312.126 66.5793 306.664 79.7641 296.941 89.4862C287.218 99.2083 274.031 104.672 260.279 104.675C253.469 104.674 246.727 106.014 240.436 108.618C234.144 111.223 228.428 115.041 223.613 119.854C218.798 124.667 214.978 130.381 212.372 136.67C209.766 142.959 208.425 149.699 208.425 156.506C208.426 163.314 207.085 170.056 204.48 176.345C201.874 182.635 198.055 188.35 193.24 193.165C188.425 197.979 182.708 201.797 176.416 204.403C170.125 207.008 163.382 208.349 156.572 208.349H52.8534C46.0435 208.349 39.3002 207.008 33.0087 204.403C26.7172 201.797 21.0006 197.979 16.1855 193.165C11.3704 188.35 7.55102 182.635 4.94547 176.345C2.33993 170.056 0.999253 163.314 1 156.506V52.8316C1 46.0245 2.34127 39.2841 4.94722 32.9952C7.55317 26.7063 11.3728 20.9922 16.1879 16.1791C21.003 11.366 26.7193 7.54827 33.0104 4.94382C39.3015 2.33937 46.0442 0.999253 52.8534 1H260.273C267.082 0.999253 273.825 2.33937 280.116 4.94382C286.407 7.54827 292.123 11.366 296.938 16.1791C301.754 20.9922 305.573 26.7063 308.179 32.9952C310.785 39.2841 312.126 46.0245 312.126 52.8316Z" fill="#1674A6" stroke="white" stroke-width="0.5" stroke-miterlimit="10"/>
<path d="M415.84 52.8311V156.506C415.912 163.359 414.624 170.159 412.05 176.511C409.476 182.864 405.668 188.643 400.846 193.515C396.023 198.387 390.282 202.254 383.955 204.894C377.628 207.533 370.84 208.892 363.984 208.892C357.128 208.892 350.34 207.533 344.013 204.894C337.686 202.254 331.945 198.387 327.123 193.515C322.3 188.643 318.492 182.864 315.918 176.511C313.344 170.159 312.056 163.359 312.128 156.506V52.8311C312.271 39.1763 317.797 26.1294 327.507 16.5242C337.216 6.91897 350.324 1.53125 363.984 1.53125C377.644 1.53125 390.752 6.91897 400.461 16.5242C410.171 26.1294 415.697 39.1763 415.84 52.8311Z" fill="#EEAD34" stroke="white" stroke-width="0.5" stroke-miterlimit="10"/>
</g>
<g opacity="0.74">
<path d="M415.841 260.518V571.547C415.841 578.355 414.5 585.095 411.894 591.385C409.288 597.674 405.469 603.388 400.654 608.202C395.839 613.015 390.123 616.834 383.831 619.439C377.54 622.044 370.797 623.385 363.988 623.385H260.275C246.523 623.385 233.334 617.923 223.609 608.202C213.885 598.48 208.422 585.295 208.422 571.547C208.422 557.799 213.885 544.614 223.609 534.893C233.334 525.171 246.523 519.71 260.275 519.71H261.744C275.233 519.328 288.041 513.705 297.448 504.034C306.856 494.364 312.122 481.408 312.129 467.918V364.192C312.129 350.444 306.666 337.259 296.941 327.538C287.217 317.816 274.028 312.355 260.275 312.355C246.523 312.355 233.334 306.894 223.609 297.172C213.885 287.451 208.422 274.266 208.422 260.518V156.837C208.422 143.089 213.885 129.904 223.609 120.183C233.334 110.461 246.523 105 260.275 105C274.028 105 287.217 110.461 296.941 120.183C306.666 129.904 312.129 143.089 312.129 156.837C312.129 170.587 317.592 183.773 327.318 193.496C337.043 203.218 350.234 208.68 363.988 208.68C370.797 208.68 377.54 210.021 383.831 212.626C390.123 215.231 395.839 219.05 400.654 223.863C405.469 228.677 409.288 234.391 411.894 240.68C414.5 246.97 415.841 253.71 415.841 260.518Z" fill="#40AF8A" stroke="white" stroke-width="0.5" stroke-miterlimit="10"/>
<path d="M312.13 364.192V467.855C312.13 481.603 306.667 494.788 296.943 504.51C287.218 514.231 274.029 519.692 260.277 519.692H259.138C247.257 519.694 235.736 523.773 226.502 531.247C217.268 538.722 210.88 549.138 208.406 560.756V571.53C208.406 585.278 202.943 598.463 193.219 608.184C183.494 617.906 170.305 623.367 156.553 623.367C142.8 623.367 129.611 617.906 119.887 608.184C110.163 598.463 104.699 585.278 104.699 571.53V363.167C104.698 351.205 100.559 339.611 92.9849 330.351C85.4105 321.09 74.8664 314.732 63.1392 312.354H52.8574C39.105 312.354 25.9158 306.893 16.1914 297.172C6.46702 287.45 1.00391 274.265 1.00391 260.517C1.00391 246.769 6.46702 233.584 16.1914 223.863C25.9158 214.141 39.105 208.68 52.8574 208.68H156.57C170.322 208.68 183.511 214.141 193.236 223.863C202.96 233.584 208.423 246.769 208.423 260.517C208.423 267.324 209.765 274.065 212.37 280.354C214.976 286.644 218.796 292.358 223.611 297.172C228.426 301.985 234.142 305.803 240.433 308.408C246.725 311.014 253.467 312.354 260.277 312.354C274.029 312.354 287.218 317.816 296.943 327.537C306.667 337.259 312.13 350.444 312.13 364.192Z" fill="#ECB6C7" stroke="white" stroke-width="0.5" stroke-miterlimit="10"/>
<path d="M104.715 363.167V570.517C104.787 577.37 103.499 584.17 100.925 590.522C98.3514 596.875 94.5431 602.654 89.7207 607.526C84.8983 612.398 79.1574 616.265 72.8302 618.905C66.503 621.544 59.7151 622.903 52.8591 622.903C46.0032 622.903 39.2153 621.544 32.8881 618.905C26.5609 616.265 20.82 612.398 15.9976 607.526C11.1752 602.654 7.36688 596.875 4.79307 590.522C2.21926 584.17 0.931013 577.37 1.00285 570.517V363.167C0.931013 356.314 2.21926 349.514 4.79307 343.162C7.36688 336.809 11.1752 331.03 15.9976 326.158C20.82 321.287 26.5609 317.419 32.8881 314.78C39.2153 312.14 46.0032 310.781 52.8591 310.781C59.7151 310.781 66.503 312.14 72.8302 314.78C79.1574 317.419 84.8983 321.287 89.7207 326.158C94.5431 331.03 98.3514 336.809 100.925 343.162C103.499 349.514 104.787 356.314 104.715 363.167Z" fill="#E49720" stroke="white" stroke-width="0.5" stroke-miterlimit="10"/>
</g>
</svg>
