<svg width="415" height="621" viewBox="0 0 415 621" fill="none" xmlns="http://www.w3.org/2000/svg">
<g clip-path="url(#clip0_581_35618)">
<g opacity="0.22">
<path d="M414.839 258.518V569.542C414.84 576.35 413.499 583.091 410.894 589.381C408.288 595.671 404.469 601.386 399.654 606.2C394.839 611.014 389.122 614.833 382.831 617.438C376.539 620.044 369.796 621.385 362.986 621.385H259.273C245.521 621.385 232.332 615.923 222.607 606.202C212.883 596.48 207.42 583.296 207.42 569.547C207.42 555.799 212.883 542.614 222.607 532.893C232.332 523.171 245.521 517.71 259.273 517.71H260.742C274.23 517.326 287.037 511.703 296.445 502.032C305.852 492.362 311.119 479.407 311.127 465.918V362.221C311.127 348.473 305.664 335.288 295.939 325.566C286.215 315.845 273.026 310.383 259.273 310.383C245.521 310.383 232.332 304.922 222.607 295.201C212.883 285.479 207.42 272.294 207.42 258.546V154.837C207.42 141.089 212.883 127.904 222.607 118.183C232.332 108.461 245.521 103 259.273 103C273.026 103 286.215 108.461 295.939 118.183C305.664 127.904 311.127 141.089 311.127 154.837C311.127 161.645 312.468 168.386 315.074 174.676C317.681 180.966 321.501 186.68 326.316 191.494C331.132 196.307 336.849 200.126 343.141 202.73C349.433 205.335 356.176 206.675 362.986 206.675C376.739 206.676 389.928 212.139 399.652 221.861C409.376 231.583 414.839 244.769 414.839 258.518Z" fill="#5DB65B" stroke="white" stroke-width="0.5" stroke-miterlimit="10"/>
<path d="M311.126 362.222V465.897C311.127 472.704 309.786 479.446 307.18 485.736C304.575 492.025 300.755 497.741 295.94 502.555C291.125 507.369 285.409 511.188 279.117 513.793C272.826 516.399 266.082 517.74 259.272 517.74H258.134C246.253 517.741 234.733 521.819 225.499 529.292C216.265 536.766 209.877 547.181 207.402 558.797V569.571C207.402 583.319 201.939 596.504 192.214 606.226C182.49 615.947 169.301 621.409 155.548 621.409C141.796 621.409 128.607 615.947 118.882 606.226C109.158 596.504 103.695 583.319 103.695 569.571V361.163C103.693 349.202 99.5543 337.609 91.9799 328.349C84.4055 319.089 73.8615 312.733 62.1348 310.356H51.8529C38.1939 310.213 25.1429 304.688 15.5347 294.982C5.92651 285.276 0.537109 272.171 0.537109 258.516C0.537109 244.86 5.92651 231.756 15.5347 222.05C25.1429 212.344 38.1939 206.819 51.8529 206.676H155.565C169.318 206.677 182.508 212.14 192.232 221.862C201.956 231.585 207.419 244.77 207.419 258.519C207.419 272.267 212.882 285.452 222.606 295.173C232.331 304.895 245.52 310.356 259.272 310.356C266.084 310.356 272.829 311.698 279.122 314.305C285.415 316.912 291.133 320.732 295.948 325.549C300.764 330.366 304.583 336.083 307.187 342.376C309.791 348.668 311.13 355.412 311.126 362.222Z" fill="#DD6B8B" stroke="white" stroke-width="0.5" stroke-miterlimit="10"/>
<path d="M103.713 361.163V568.518C103.569 582.173 98.043 595.22 88.3336 604.825C78.6242 614.43 65.5161 619.818 51.8563 619.818C38.1965 619.818 25.0883 614.43 15.379 604.825C5.66956 595.22 0.143121 582.173 0 568.518V361.163C0.143121 347.508 5.66956 334.461 15.379 324.856C25.0883 315.251 38.1965 309.863 51.8563 309.863C65.5161 309.863 78.6242 315.251 88.3336 324.856C98.043 334.461 103.569 347.508 103.713 361.163Z" fill="#E5D648" stroke="white" stroke-width="0.5" stroke-miterlimit="10"/>
</g>
</g>
<defs>
<clipPath id="clip0_581_35618">
<rect width="415" height="621" fill="white"/>
</clipPath>
</defs>
</svg>
