<svg width="415" height="621" viewBox="0 0 415 621" fill="none" xmlns="http://www.w3.org/2000/svg">
<g clip-path="url(#clip0_581_35618)">
<g opacity="0.4">
<path d="M414.839 258.518V569.547C414.839 576.355 413.498 583.095 410.892 589.385C408.286 595.674 404.467 601.388 399.652 606.202C394.837 611.015 389.121 614.834 382.829 617.439C376.538 620.044 369.795 621.385 362.986 621.385H259.273C245.521 621.385 232.332 615.923 222.607 606.202C212.883 596.48 207.42 583.295 207.42 569.547C207.42 555.799 212.883 542.614 222.607 532.893C232.332 523.171 245.521 517.71 259.273 517.71H260.742C274.235 517.326 287.046 511.698 296.455 502.022C305.863 492.346 311.126 479.384 311.127 465.89V362.192C311.127 348.444 305.664 335.259 295.939 325.538C286.215 315.816 273.026 310.355 259.273 310.355C245.521 310.355 232.332 304.894 222.607 295.172C212.883 285.451 207.42 272.266 207.42 258.518V154.837C207.42 141.089 212.883 127.904 222.607 118.183C232.332 108.461 245.521 103 259.273 103C273.026 103 286.215 108.461 295.939 118.183C305.664 127.904 311.127 141.089 311.127 154.837C311.127 161.645 312.468 168.386 315.074 174.676C317.681 180.966 321.501 186.68 326.316 191.494C331.132 196.307 336.849 200.126 343.141 202.73C349.433 205.335 356.176 206.675 362.986 206.675C376.739 206.676 389.928 212.139 399.652 221.861C409.376 231.583 414.839 244.769 414.839 258.518Z" fill="#55B46B" stroke="white" stroke-width="0.5" stroke-miterlimit="10"/>
<path d="M311.126 362.193V465.868C311.127 472.676 309.786 479.417 307.18 485.707C304.575 491.997 300.755 497.712 295.94 502.526C291.125 507.341 285.409 511.159 279.117 513.765C272.826 516.37 266.082 517.711 259.272 517.711H258.134C246.253 517.714 234.734 521.792 225.5 529.265C216.266 536.738 209.878 547.153 207.402 558.769V569.549C207.402 583.297 201.939 596.482 192.214 606.203C182.49 615.924 169.301 621.386 155.548 621.386C141.796 621.386 128.607 615.924 118.882 606.203C109.158 596.482 103.695 583.297 103.695 569.549V361.163C103.692 349.202 99.5528 337.61 91.9786 328.35C84.4044 319.091 73.861 312.734 62.1348 310.356H51.8529C38.1939 310.213 25.1429 304.688 15.5347 294.982C5.92651 285.276 0.537109 272.172 0.537109 258.516C0.537109 244.86 5.92651 231.756 15.5347 222.05C25.1429 212.344 38.1939 206.819 51.8529 206.676H155.565C169.318 206.677 182.508 212.14 192.232 221.862C201.956 231.585 207.419 244.77 207.419 258.519C207.419 265.326 208.76 272.067 211.366 278.356C213.972 284.645 217.791 290.36 222.606 295.173C227.422 299.987 233.138 303.805 239.429 306.41C245.72 309.015 252.463 310.356 259.272 310.356C273.025 310.356 286.214 315.818 295.938 325.539C305.663 335.26 311.126 348.445 311.126 362.193Z" fill="#E2859E" stroke="white" stroke-width="0.5" stroke-miterlimit="10"/>
<path d="M103.713 361.163V568.518C103.569 582.173 98.043 595.22 88.3336 604.825C78.6242 614.43 65.5161 619.818 51.8563 619.818C38.1965 619.818 25.0883 614.43 15.379 604.825C5.66956 595.22 0.143121 582.173 0 568.518V361.163C0.143121 347.508 5.66956 334.461 15.379 324.856C25.0883 315.251 38.1965 309.863 51.8563 309.863C65.5161 309.863 78.6242 315.251 88.3336 324.856C98.043 334.461 103.569 347.508 103.713 361.163Z" fill="#E5C23A" stroke="white" stroke-width="0.5" stroke-miterlimit="10"/>
</g>
</g>
<defs>
<clipPath id="clip0_581_35618">
<rect width="415" height="621" fill="white"/>
</clipPath>
</defs>
</svg>
