<svg width="417" height="622" viewBox="0 0 417 622" fill="none" xmlns="http://www.w3.org/2000/svg">
<g opacity="0.57">
<path d="M415.841 258.518V569.547C415.841 576.355 414.5 583.095 411.894 589.385C409.288 595.674 405.469 601.388 400.654 606.202C395.839 611.015 390.123 614.834 383.831 617.439C377.54 620.044 370.797 621.385 363.988 621.385H260.275C246.523 621.385 233.334 615.923 223.609 606.202C213.885 596.481 208.422 583.295 208.422 569.547C208.422 555.799 213.885 542.614 223.609 532.893C233.334 523.172 246.523 517.71 260.275 517.71H261.744C275.237 517.328 288.05 511.7 297.458 502.024C306.867 492.347 312.13 479.384 312.129 465.89V362.192C312.129 348.444 306.666 335.259 296.941 325.538C287.217 315.816 274.028 310.355 260.275 310.355C253.466 310.355 246.723 309.014 240.432 306.409C234.141 303.804 228.424 299.986 223.609 295.172C218.794 290.359 214.975 284.644 212.369 278.355C209.763 272.066 208.422 265.325 208.422 258.518V154.837C208.422 141.089 213.885 127.904 223.609 118.183C233.334 108.461 246.523 103 260.275 103C274.028 103 287.217 108.461 296.941 118.183C306.666 127.904 312.129 141.089 312.129 154.837C312.129 168.587 317.592 181.773 327.318 191.496C337.043 201.218 350.234 206.68 363.988 206.68C370.797 206.68 377.54 208.021 383.831 210.626C390.123 213.231 395.839 217.05 400.654 221.863C405.469 226.677 409.288 232.391 411.894 238.68C414.5 244.97 415.841 251.71 415.841 258.518Z" fill="#4BB17B" stroke="white" stroke-width="0.5" stroke-miterlimit="10"/>
<path d="M312.126 362.192V465.872C312.126 479.62 306.663 492.805 296.939 502.527C287.214 512.248 274.025 517.709 260.273 517.709H259.134C247.254 517.712 235.734 521.79 226.5 529.263C217.267 536.736 210.878 547.151 208.402 558.767V569.547C208.402 583.295 202.939 596.48 193.215 606.201C183.49 615.923 170.301 621.384 156.549 621.384C142.797 621.384 129.607 615.923 119.883 606.201C110.159 596.48 104.696 583.295 104.696 569.547V361.162C104.693 349.2 100.553 337.608 92.9792 328.348C85.4049 319.089 74.8615 312.732 63.1353 310.354H52.8534C39.1011 310.354 25.9119 304.893 16.1875 295.172C6.46312 285.45 1 272.265 1 258.517C1 244.769 6.46312 231.584 16.1875 221.862C25.9119 212.141 39.1011 206.68 52.8534 206.68H156.566C170.318 206.68 183.508 212.141 193.232 221.862C202.956 231.584 208.419 244.769 208.419 258.517C208.419 272.265 213.883 285.45 223.607 295.172C233.331 304.893 246.521 310.354 260.273 310.354C274.025 310.354 287.214 315.816 296.939 325.537C306.663 335.259 312.126 348.444 312.126 362.192Z" fill="#E79EB3" stroke="white" stroke-width="0.5" stroke-miterlimit="10"/>
<path d="M104.713 361.163V568.518C104.569 582.173 99.043 595.22 89.3336 604.825C79.6242 614.43 66.5161 619.818 52.8563 619.818C39.1965 619.818 26.0883 614.43 16.379 604.825C6.66956 595.22 1.14312 582.173 1 568.518V361.163C1.14312 347.508 6.66956 334.461 16.379 324.856C26.0883 315.251 39.1965 309.863 52.8563 309.863C66.5161 309.863 79.6242 315.251 89.3336 324.856C99.043 334.461 104.569 347.508 104.713 361.163Z" fill="#E5AE2D" stroke="white" stroke-width="0.5" stroke-miterlimit="10"/>
</g>
</svg>
