<svg width="415" height="621" viewBox="0 0 415 621" fill="none" xmlns="http://www.w3.org/2000/svg">
<g clip-path="url(#clip0_581_35618)">
<g opacity="0.14">
<path d="M415.843 258.518V569.547C415.843 583.296 410.38 596.48 400.656 606.202C390.931 615.923 377.742 621.385 363.99 621.385H260.277C246.525 621.385 233.336 615.923 223.611 606.202C213.887 596.48 208.424 583.296 208.424 569.547C208.424 555.799 213.887 542.614 223.611 532.893C233.336 523.171 246.525 517.71 260.277 517.71H261.746C275.235 517.329 288.044 511.706 297.452 502.036C306.86 492.365 312.126 479.408 312.131 465.918V362.215C312.131 355.407 310.791 348.666 308.185 342.376C305.58 336.086 301.76 330.371 296.945 325.557C292.13 320.743 286.414 316.924 280.122 314.319C273.831 311.713 267.087 310.372 260.277 310.372C246.525 310.372 233.336 304.911 223.611 295.189C213.887 285.468 208.424 272.283 208.424 258.535V154.837C208.424 141.089 213.887 127.904 223.611 118.183C233.336 108.461 246.525 103 260.277 103C274.03 103 287.219 108.461 296.943 118.183C306.668 127.904 312.131 141.089 312.131 154.837C312.131 168.587 317.594 181.773 327.32 191.496C337.045 201.218 350.236 206.68 363.99 206.68C370.799 206.68 377.542 208.021 383.833 210.626C390.124 213.231 395.841 217.05 400.656 221.863C405.471 226.677 409.29 232.391 411.896 238.68C414.502 244.97 415.843 251.71 415.843 258.518Z" fill="#61B753" stroke="white" stroke-width="0.5" stroke-miterlimit="10"/>
<path d="M312.128 362.214V465.889C312.128 479.637 306.665 492.822 296.941 502.544C287.216 512.265 274.027 517.726 260.275 517.726H259.136C247.255 517.728 235.734 521.807 226.5 529.282C217.266 536.756 210.878 547.172 208.404 558.79V569.564C208.404 583.312 202.941 596.497 193.217 606.218C183.492 615.94 170.303 621.401 156.551 621.401C142.799 621.401 129.609 615.94 119.885 606.218C110.161 596.497 104.697 583.312 104.697 569.564V361.167C104.696 349.205 100.557 337.611 92.9829 328.351C85.4086 319.09 74.8644 312.732 63.1373 310.354H52.8554C39.103 310.354 25.9139 304.893 16.1895 295.172C6.46507 285.45 1.00195 272.265 1.00195 258.517C1.00195 244.769 6.46507 231.584 16.1895 221.863C25.9139 212.141 39.103 206.68 52.8554 206.68H156.568C170.32 206.68 183.509 212.141 193.234 221.863C202.958 231.584 208.421 244.769 208.421 258.517C208.421 272.265 213.885 285.45 223.609 295.172C233.333 304.893 246.522 310.354 260.275 310.354C267.086 310.354 273.831 311.696 280.124 314.302C286.416 316.909 292.134 320.729 296.949 325.545C301.764 330.361 305.583 336.078 308.188 342.37C310.792 348.662 312.131 355.405 312.128 362.214Z" fill="#DB5D82" stroke="white" stroke-width="0.5" stroke-miterlimit="10"/>
<path d="M104.715 361.167V568.517C104.787 575.37 103.499 582.17 100.925 588.522C98.3514 594.875 94.5431 600.654 89.7207 605.526C84.8983 610.398 79.1574 614.265 72.8302 616.905C66.503 619.544 59.7151 620.903 52.8591 620.903C46.0032 620.903 39.2153 619.544 32.8881 616.905C26.5609 614.265 20.82 610.398 15.9976 605.526C11.1752 600.654 7.36688 594.875 4.79307 588.522C2.21926 582.17 0.931013 575.37 1.00285 568.517V361.167C0.931013 354.314 2.21926 347.514 4.79307 341.162C7.36688 334.809 11.1752 329.03 15.9976 324.158C20.82 319.287 26.5609 315.419 32.8881 312.78C39.2153 310.14 46.0032 308.781 52.8591 308.781C59.7151 308.781 66.503 310.14 72.8302 312.78C79.1574 315.419 84.8983 319.287 89.7207 324.158C94.5431 329.03 98.3514 334.809 100.925 341.162C103.499 347.514 104.787 354.314 104.715 361.167Z" fill="#E5DF4F" stroke="white" stroke-width="0.5" stroke-miterlimit="10"/>
</g>
</g>
<defs>
<clipPath id="clip0_581_35618">
<rect width="415" height="621" fill="white"/>
</clipPath>
</defs>
</svg>
