<svg width="418" height="623" viewBox="0 0 418 623" fill="none" xmlns="http://www.w3.org/2000/svg">
<g opacity="0.33">
<path d="M313.126 52.8316C313.129 59.64 311.789 66.3821 309.185 72.6729C306.58 78.9636 302.762 84.6799 297.947 89.4952C293.132 94.3105 287.416 98.1304 281.124 100.737C274.833 103.343 268.089 104.685 261.279 104.686C247.526 104.686 234.337 110.147 224.613 119.869C214.888 129.59 209.425 142.775 209.425 156.523C209.425 170.271 203.962 183.457 194.238 193.178C184.513 202.899 171.324 208.361 157.572 208.361H53.8534C47.043 208.361 40.2993 207.02 34.0074 204.414C27.7155 201.808 21.9987 197.989 17.1835 193.174C12.3683 188.359 8.54905 182.643 5.94384 176.353C3.33863 170.062 1.99851 163.32 2 156.512V52.8316C2 46.0245 3.34127 39.2841 5.94722 32.9952C8.55317 26.7063 12.3728 20.9922 17.1879 16.1791C22.003 11.366 27.7193 7.54826 34.0104 4.94381C40.3015 2.33936 47.0442 0.999253 53.8534 1H261.273C268.082 0.999253 274.825 2.33936 281.116 4.94381C287.407 7.54826 293.123 11.366 297.938 16.1791C302.754 20.9922 306.573 26.7063 309.179 32.9952C311.785 39.2841 313.126 46.0245 313.126 52.8316Z" fill="#1B8CB7" stroke="white" stroke-width="0.5" stroke-miterlimit="10"/>
<path d="M416.838 52.8311V156.511C416.694 170.166 411.168 183.213 401.459 192.818C391.749 202.424 378.641 207.811 364.981 207.811C351.322 207.811 338.213 202.424 328.504 192.818C318.795 183.213 313.268 170.166 313.125 156.511V52.8311C313.268 39.1763 318.795 26.1294 328.504 16.5242C338.213 6.91897 351.322 1.53125 364.981 1.53125C378.641 1.53125 391.749 6.91897 401.459 16.5242C411.168 26.1294 416.694 39.1763 416.838 52.8311Z" fill="#EFA238" stroke="white" stroke-width="0.5" stroke-miterlimit="10"/>
</g>
<g opacity="0.65">
<path d="M415.841 259.518V570.542C415.842 577.35 414.501 584.091 411.896 590.381C409.29 596.671 405.471 602.386 400.656 607.2C395.841 612.014 390.124 615.833 383.833 618.438C377.541 621.044 370.798 622.385 363.988 622.385H260.275C246.523 622.385 233.334 616.923 223.609 607.202C213.885 597.481 208.422 584.295 208.422 570.547C208.422 556.799 213.885 543.614 223.609 533.893C233.334 524.172 246.523 518.71 260.275 518.71H261.744C275.237 518.326 288.048 512.699 297.457 503.022C306.865 493.346 312.128 480.384 312.129 466.89V363.192C312.129 349.444 306.666 336.258 296.942 326.536C287.217 316.814 274.028 311.351 260.275 311.349C253.466 311.35 246.723 310.01 240.432 307.406C234.141 304.801 228.425 300.983 223.61 296.17C218.795 291.357 214.975 285.643 212.369 279.354C209.763 273.065 208.422 266.325 208.422 259.518V155.837C208.422 142.089 213.885 128.904 223.609 119.183C233.334 109.461 246.523 104 260.275 104C274.028 104 287.217 109.461 296.941 119.183C306.666 128.904 312.129 142.089 312.129 155.837C312.129 162.645 313.47 169.386 316.076 175.676C318.683 181.965 322.503 187.68 327.318 192.494C332.134 197.307 337.851 201.126 344.143 203.73C350.434 206.335 357.178 207.675 363.988 207.675C370.798 207.675 377.541 209.016 383.833 211.621C390.124 214.227 395.841 218.045 400.656 222.859C405.471 227.674 409.29 233.389 411.896 239.679C414.501 245.969 415.842 252.71 415.841 259.518Z" fill="#46B082" stroke="white" stroke-width="0.5" stroke-miterlimit="10"/>
<path d="M312.13 363.193V466.845C312.13 480.594 306.667 493.78 296.943 503.502C287.219 513.224 274.03 518.687 260.277 518.688H259.138C247.258 518.69 235.737 522.768 226.503 530.241C217.269 537.714 210.881 548.13 208.406 559.746V570.52C208.406 584.268 202.943 597.453 193.219 607.175C183.494 616.896 170.305 622.357 156.553 622.357C142.8 622.357 129.611 616.896 119.887 607.175C110.163 597.453 104.699 584.268 104.699 570.52V362.163C104.697 350.201 100.558 338.608 92.9836 329.348C85.4094 320.087 74.8659 313.729 63.1392 311.35H52.8574C46.0479 311.35 39.305 310.01 33.0139 307.405C26.7227 304.799 21.0065 300.981 16.1914 296.168C11.3764 291.354 7.55689 285.64 4.95101 279.35C2.34514 273.061 1.00391 266.32 1.00391 259.513C1.00391 252.706 2.34514 245.965 4.95101 239.676C7.55689 233.387 11.3764 227.672 16.1914 222.859C21.0065 218.045 26.7227 214.227 33.0139 211.622C39.305 209.017 46.0479 207.676 52.8574 207.676H156.57C163.38 207.676 170.123 209.017 176.415 211.622C182.706 214.228 188.423 218.046 193.238 222.861C198.053 227.675 201.872 233.39 204.478 239.68C207.083 245.97 208.424 252.711 208.423 259.519C208.423 266.326 209.765 273.066 212.371 279.355C214.977 285.644 218.796 291.358 223.611 296.171C228.426 300.984 234.143 304.802 240.434 307.407C246.725 310.011 253.468 311.351 260.277 311.35C274.03 311.352 287.219 316.815 296.943 326.537C306.667 336.259 312.13 349.445 312.13 363.193Z" fill="#E9AABD" stroke="white" stroke-width="0.5" stroke-miterlimit="10"/>
<path d="M104.715 362.163V569.512C104.787 576.366 103.499 583.166 100.925 589.518C98.3514 595.871 94.5431 601.65 89.7207 606.522C84.8983 611.393 79.1574 615.261 72.8302 617.9C66.503 620.54 59.7151 621.899 52.8591 621.899C46.0032 621.899 39.2153 620.54 32.8881 617.9C26.5609 615.261 20.82 611.393 15.9976 606.522C11.1752 601.65 7.36688 595.871 4.79307 589.518C2.21926 583.166 0.931013 576.366 1.00285 569.512V362.163C1.14597 348.508 6.67241 335.461 16.3818 325.856C26.0912 316.251 39.1994 310.863 52.8591 310.863C66.5189 310.863 79.6271 316.251 89.3365 325.856C99.0459 335.461 104.572 348.508 104.715 362.163Z" fill="#E4A326" stroke="white" stroke-width="0.5" stroke-miterlimit="10"/>
</g>
</svg>
