<svg width="32" height="32" viewBox="0 0 32 32" fill="none" xmlns="http://www.w3.org/2000/svg">
<path d="M15.9998 5.05396C11.9262 3.52596 7.21742 4.41716 3.90862 7.72596C2.81928 8.81086 1.9549 10.1002 1.36509 11.52C0.775293 12.9398 0.47168 14.4621 0.47168 15.9996C0.47168 17.537 0.775293 19.0593 1.36509 20.4791C1.9549 21.8989 2.81928 23.1882 3.90862 24.2732C7.21582 27.582 11.9262 28.4732 15.9998 26.9436C20.0734 28.4716 24.7822 27.5804 28.091 24.2716C29.1804 23.1866 30.0448 21.8973 30.6346 20.4775C31.2244 19.0577 31.528 17.5354 31.528 15.998C31.528 14.4605 31.2244 12.9382 30.6346 11.5184C30.0448 10.0986 29.1804 8.80927 28.091 7.72436C24.7838 4.41716 20.0734 3.52596 15.9998 5.05556V5.05396ZM5.43502 22.7452C1.74383 19.054 1.74383 12.9452 5.43502 9.25396C7.47182 7.21716 10.1454 6.32596 12.9454 6.58196C12.4366 6.83476 11.9262 7.34516 11.5454 7.72596C10.4561 8.81086 9.5917 10.1002 9.00189 11.52C8.41209 12.9398 8.10848 14.4621 8.10848 15.9996C8.10848 17.537 8.41209 19.0593 9.00189 20.4791C9.5917 21.8989 10.4561 23.1882 11.5454 24.2732C11.9262 24.654 12.4366 25.1644 12.9454 25.4188C10.1454 25.6732 7.47342 24.782 5.43502 22.7468V22.7452ZM26.5646 22.7452C24.5278 24.782 21.8542 25.6732 19.0542 25.4172C19.563 25.1644 20.0734 24.654 20.4542 24.2732C21.5436 23.1882 22.408 21.8989 22.9978 20.4791C23.5876 19.0593 23.8912 17.537 23.8912 15.9996C23.8912 14.4621 23.5876 12.9398 22.9978 11.52C22.408 10.1002 21.5436 8.81086 20.4542 7.72596C20.0734 7.34516 19.563 6.83476 19.0542 6.58036C21.7262 6.45236 24.5262 7.21716 26.5646 9.25236C30.2558 12.9452 30.2558 19.054 26.5646 22.7452Z" fill="#56CF71"/>
</svg>
