<svg width="232" height="32" viewBox="0 0 232 32" fill="none" xmlns="http://www.w3.org/2000/svg">
<circle cx="10" cy="11" r="7" fill="#E2730E" fill-opacity="0.5"/>
<circle cx="10" cy="11" r="5" fill="#E2730E"/>
<path d="M19.3903 9.1542H16.7981V8.72004C16.7981 7.81342 16.3001 6.97064 15.5084 6.52371L14.755 6.10232C14.3719 5.88525 13.8867 6.02571 13.6696 6.40879C13.4525 6.79187 13.593 7.27711 13.9761 7.49418L14.7294 7.91557C15.0231 8.08157 15.2019 8.38804 15.2019 8.72004V9.1542H12.597C10.0559 9.1542 8 11.2228 8 13.7512V20.7488C8 25.001 11.4605 28.4742 15.7255 28.4742H16.2745C20.5267 28.4742 24 25.0137 24 20.7488V13.7512C23.9872 11.2228 21.9314 9.1542 19.3903 9.1542ZM22.3911 20.7615C22.3911 24.1327 19.6457 26.8908 16.2618 26.8908H15.7127C12.3416 26.8908 9.5834 24.1454 9.5834 20.7615V17.25H22.3783V20.7615H22.3911ZM22.3911 15.6538H16.1724V10.7504H19.3775C21.0375 10.7504 22.3783 12.1039 22.3783 13.7512V15.6538H22.3911Z" fill="#D9D9D9"/>
<path d="M45.544 26.056C45.448 25.8 45.352 25.56 45.256 25.336C45.144 25.08 45.112 24.856 45.16 24.664C45.208 24.456 45.32 24.256 45.496 24.064C45.736 23.776 45.856 23.416 45.856 22.984V17.032C45.856 16.808 45.792 16.632 45.664 16.504C45.536 16.376 45.36 16.312 45.136 16.312H42.328C42.104 16.312 41.928 16.248 41.8 16.12C41.672 15.992 41.608 15.816 41.608 15.592V14.728C41.608 14.504 41.672 14.328 41.8 14.2C41.928 14.072 42.104 14.008 42.328 14.008H45.136C45.36 14.008 45.536 13.944 45.664 13.816C45.792 13.688 45.856 13.512 45.856 13.288V5.896C45.856 5.672 45.92 5.496 46.048 5.368C46.176 5.24 46.352 5.176 46.576 5.176H47.536C47.76 5.176 47.936 5.24 48.064 5.368C48.192 5.496 48.256 5.672 48.256 5.896V13.288C48.256 13.512 48.32 13.688 48.448 13.816C48.576 13.944 48.752 14.008 48.976 14.008H61.696C61.92 14.008 62.096 14.072 62.224 14.2C62.352 14.328 62.416 14.504 62.416 14.728V15.592C62.416 15.816 62.352 15.992 62.224 16.12C62.096 16.248 61.92 16.312 61.696 16.312H54.976C54.64 16.312 54.408 16.408 54.28 16.6C54.168 16.776 54.192 17.008 54.352 17.296C55.92 20.16 58.416 22.216 61.84 23.464C62.544 23.736 62.664 24.168 62.2 24.76C61.992 24.984 61.832 25.216 61.72 25.456C61.608 25.616 61.472 25.728 61.312 25.792C61.152 25.872 60.984 25.872 60.808 25.792C56.52 24.24 53.48 21.232 51.688 16.768C51.624 16.64 51.528 16.536 51.4 16.456C51.288 16.36 51.152 16.312 50.992 16.312H48.976C48.752 16.312 48.576 16.376 48.448 16.504C48.32 16.632 48.256 16.808 48.256 17.032V22.288C48.256 22.56 48.336 22.768 48.496 22.912C48.656 23.04 48.872 23.072 49.144 23.008L52.696 22.168C52.968 22.104 53.184 22.144 53.344 22.288C53.504 22.416 53.592 22.616 53.608 22.888L53.68 23.464C53.712 23.688 53.68 23.88 53.584 24.04C53.488 24.184 53.336 24.28 53.128 24.328C52.216 24.552 51.416 24.76 50.728 24.952C50.056 25.144 49.48 25.304 49 25.432C48.456 25.576 47.992 25.704 47.608 25.816C47.24 25.928 46.944 26.024 46.72 26.104C46.624 26.136 46.528 26.168 46.432 26.2C46.352 26.248 46.272 26.288 46.192 26.32C45.888 26.48 45.672 26.392 45.544 26.056ZM50.968 12.64C50.872 12.528 50.776 12.424 50.68 12.328C50.584 12.232 50.488 12.128 50.392 12.016C50.12 11.744 50 11.496 50.032 11.272C50.064 11.048 50.256 10.864 50.608 10.72C53.584 9.392 55.936 7.792 57.664 5.92C57.904 5.664 58.184 5.6 58.504 5.728L59.44 6.16C59.712 6.288 59.872 6.456 59.92 6.664C59.968 6.856 59.888 7.064 59.68 7.288C57.52 9.448 54.904 11.296 51.832 12.832C51.688 12.912 51.536 12.936 51.376 12.904C51.216 12.856 51.08 12.768 50.968 12.64ZM84.52 26.344C83.512 25.576 82.288 24.76 80.848 23.896C80.72 23.816 80.576 23.784 80.416 23.8C80.272 23.816 80.136 23.864 80.008 23.944C78.536 25.08 76.624 25.96 74.272 26.584C73.84 26.68 73.536 26.52 73.36 26.104C73.328 26.024 73.296 25.952 73.264 25.888C73.232 25.824 73.2 25.752 73.168 25.672C72.816 25.032 72.968 24.632 73.624 24.472C75.144 24.088 76.424 23.6 77.464 23.008C77.752 22.832 77.888 22.64 77.872 22.432C77.856 22.224 77.704 22.04 77.416 21.88C76.92 21.608 76.432 21.344 75.952 21.088C75.472 20.832 74.984 20.576 74.488 20.32C74.28 20.224 74.144 20.088 74.08 19.912C74.032 19.72 74.064 19.52 74.176 19.312C74.352 18.992 74.528 18.664 74.704 18.328C74.88 17.976 75.056 17.616 75.232 17.248C75.376 16.944 75.384 16.704 75.256 16.528C75.144 16.336 74.92 16.24 74.584 16.24H73.768C73.528 16.24 73.344 16.312 73.216 16.456C73.104 16.6 73.064 16.784 73.096 17.008L73.12 17.2C73.168 17.6 73.008 17.864 72.64 17.992C72.352 18.088 72.064 18.184 71.776 18.28C71.504 18.36 71.232 18.44 70.96 18.52C70.8 18.568 70.672 18.656 70.576 18.784C70.496 18.912 70.456 19.056 70.456 19.216V24.232C70.456 25.352 70.144 26.04 69.52 26.296C68.976 26.536 68.072 26.656 66.808 26.656H66.496C66.272 26.656 66.144 26.552 66.112 26.344C66.08 26.2 66.04 26.056 65.992 25.912C65.96 25.784 65.92 25.648 65.872 25.504C65.776 25.216 65.776 24.992 65.872 24.832C65.984 24.656 66.2 24.568 66.52 24.568L67.528 24.592C67.864 24.592 68.064 24.568 68.128 24.52C68.192 24.456 68.224 23.056 68.224 20.32C68.224 20.032 68.136 19.832 67.96 19.72C67.8 19.592 67.576 19.568 67.288 19.648L66.184 19.984C65.96 20.048 65.76 20.032 65.584 19.936C65.424 19.84 65.32 19.68 65.272 19.456L65.08 18.64C65.048 18.432 65.072 18.256 65.152 18.112C65.248 17.952 65.4 17.848 65.608 17.8C65.928 17.704 66.264 17.616 66.616 17.536C66.968 17.44 67.328 17.336 67.696 17.224C68.048 17.112 68.224 16.88 68.224 16.528V12.496C68.224 12.272 68.16 12.096 68.032 11.968C67.904 11.84 67.728 11.776 67.504 11.776H65.968C65.744 11.776 65.568 11.712 65.44 11.584C65.312 11.456 65.248 11.28 65.248 11.056V10.36C65.248 10.136 65.312 9.96 65.44 9.832C65.568 9.704 65.744 9.64 65.968 9.64H67.504C67.728 9.64 67.904 9.576 68.032 9.448C68.16 9.32 68.224 9.144 68.224 8.92V5.8C68.224 5.576 68.288 5.4 68.416 5.272C68.544 5.144 68.72 5.08 68.944 5.08H69.736C69.96 5.08 70.136 5.144 70.264 5.272C70.392 5.4 70.456 5.576 70.456 5.8V8.92C70.456 9.144 70.52 9.32 70.648 9.448C70.776 9.576 70.952 9.64 71.176 9.64H72.088C72.312 9.64 72.488 9.704 72.616 9.832C72.744 9.96 72.808 10.136 72.808 10.36V11.056C72.808 11.28 72.744 11.456 72.616 11.584C72.488 11.712 72.312 11.776 72.088 11.776H71.176C70.952 11.776 70.776 11.84 70.648 11.968C70.52 12.096 70.456 12.272 70.456 12.496V15.472C70.456 15.76 70.536 15.968 70.696 16.096C70.872 16.224 71.096 16.248 71.368 16.168L71.968 16C72.32 15.888 72.496 15.656 72.496 15.304V14.848C72.496 14.624 72.56 14.448 72.688 14.32C72.816 14.192 72.992 14.128 73.216 14.128H76.072C76.392 14.128 76.608 13.976 76.72 13.672C76.88 13.272 77.024 12.88 77.152 12.496C77.28 12.096 77.408 11.696 77.536 11.296C77.584 11.104 77.68 10.96 77.824 10.864C77.984 10.768 78.152 10.736 78.328 10.768L79.264 10.888C79.504 10.92 79.68 11.024 79.792 11.2C79.904 11.36 79.92 11.552 79.84 11.776C79.728 12.224 79.584 12.68 79.408 13.144C79.312 13.448 79.32 13.688 79.432 13.864C79.56 14.04 79.784 14.128 80.104 14.128H86.032C86.256 14.128 86.432 14.192 86.56 14.32C86.688 14.448 86.752 14.624 86.752 14.848V15.52C86.752 15.744 86.688 15.92 86.56 16.048C86.432 16.176 86.256 16.24 86.032 16.24H85.048C84.872 16.24 84.712 16.296 84.568 16.408C84.44 16.504 84.36 16.64 84.328 16.816C83.912 18.592 83.304 20.08 82.504 21.28C82.376 21.488 82.328 21.688 82.36 21.88C82.392 22.072 82.52 22.232 82.744 22.36C83.384 22.728 83.976 23.096 84.52 23.464C85.08 23.816 85.6 24.16 86.08 24.496C86.272 24.64 86.376 24.808 86.392 25C86.408 25.192 86.336 25.376 86.176 25.552L85.504 26.272C85.376 26.416 85.216 26.496 85.024 26.512C84.848 26.528 84.68 26.472 84.52 26.344ZM80.368 20.368C80.992 19.488 81.464 18.392 81.784 17.08C81.848 16.824 81.816 16.624 81.688 16.48C81.56 16.32 81.36 16.24 81.088 16.24H78.688C78.368 16.24 78.144 16.384 78.016 16.672C77.872 16.992 77.728 17.312 77.584 17.632C77.456 17.936 77.32 18.24 77.176 18.544C77 18.96 77.104 19.28 77.488 19.504L79.48 20.56C79.64 20.64 79.8 20.672 79.96 20.656C80.12 20.624 80.256 20.528 80.368 20.368ZM74.656 12.76H73.936C73.712 12.76 73.536 12.696 73.408 12.568C73.28 12.44 73.216 12.264 73.216 12.04V8.632C73.216 8.408 73.28 8.232 73.408 8.104C73.536 7.976 73.712 7.912 73.936 7.912H77.704C77.976 7.912 78.176 7.832 78.304 7.672C78.448 7.512 78.48 7.296 78.4 7.024C78.368 6.88 78.328 6.736 78.28 6.592C78.232 6.432 78.184 6.28 78.136 6.136C78.056 5.88 78.072 5.672 78.184 5.512C78.296 5.336 78.48 5.232 78.736 5.2L79.624 5.056C79.8 5.024 79.96 5.048 80.104 5.128C80.248 5.208 80.352 5.328 80.416 5.488C80.528 5.808 80.624 6.12 80.704 6.424C80.8 6.728 80.888 7.032 80.968 7.336C81.016 7.512 81.104 7.656 81.232 7.768C81.36 7.864 81.512 7.912 81.688 7.912H85.72C85.944 7.912 86.12 7.976 86.248 8.104C86.376 8.232 86.44 8.408 86.44 8.632V12.016C86.44 12.24 86.376 12.416 86.248 12.544C86.12 12.672 85.944 12.736 85.72 12.736H84.904C84.68 12.736 84.504 12.672 84.376 12.544C84.248 12.416 84.184 12.24 84.184 12.016V10.696C84.184 10.472 84.12 10.296 83.992 10.168C83.864 10.04 83.688 9.976 83.464 9.976H76.096C75.872 9.976 75.696 10.04 75.568 10.168C75.44 10.296 75.376 10.472 75.376 10.696V12.04C75.376 12.264 75.312 12.44 75.184 12.568C75.056 12.696 74.88 12.76 74.656 12.76ZM109.792 26.08H94.528C94.304 26.08 94.128 26.016 94 25.888C93.872 25.76 93.808 25.584 93.808 25.36V24.544C93.808 24.32 93.872 24.144 94 24.016C94.128 23.888 94.304 23.824 94.528 23.824H100.48C100.704 23.824 100.88 23.76 101.008 23.632C101.136 23.504 101.2 23.328 101.2 23.104V18.256C101.2 18.032 101.136 17.856 101.008 17.728C100.88 17.6 100.704 17.536 100.48 17.536H96.88C96.48 17.536 96.28 17.336 96.28 16.936C96.28 16.584 96.208 16.576 96.064 16.912C94.832 20.08 93.136 22.728 90.976 24.856C90.8 25.032 90.616 25.104 90.424 25.072C90.232 25.056 90.064 24.952 89.92 24.76C89.824 24.648 89.728 24.544 89.632 24.448C89.552 24.336 89.464 24.224 89.368 24.112C89.048 23.744 89.064 23.392 89.416 23.056C92.024 20.48 93.96 16.88 95.224 12.256C95.304 11.984 95.28 11.768 95.152 11.608C95.024 11.448 94.824 11.368 94.552 11.368H90.544C90.32 11.368 90.144 11.304 90.016 11.176C89.888 11.048 89.824 10.872 89.824 10.648V9.856C89.824 9.632 89.888 9.456 90.016 9.328C90.144 9.2 90.32 9.136 90.544 9.136H95.416C95.592 9.136 95.744 9.088 95.872 8.992C96 8.88 96.08 8.736 96.112 8.56C96.208 8.096 96.296 7.632 96.376 7.168C96.456 6.704 96.536 6.24 96.616 5.776C96.648 5.568 96.736 5.408 96.88 5.296C97.024 5.168 97.2 5.12 97.408 5.152L98.392 5.272C98.616 5.304 98.784 5.4 98.896 5.56C99.008 5.704 99.048 5.888 99.016 6.112C98.936 6.48 98.864 6.848 98.8 7.216C98.736 7.568 98.672 7.92 98.608 8.272C98.544 8.544 98.576 8.76 98.704 8.92C98.832 9.064 99.032 9.136 99.304 9.136H109.408C109.632 9.136 109.808 9.2 109.936 9.328C110.064 9.456 110.128 9.632 110.128 9.856V10.648C110.128 10.872 110.064 11.048 109.936 11.176C109.808 11.304 109.632 11.368 109.408 11.368H98.416C98.064 11.368 97.832 11.544 97.72 11.896C97.608 12.312 97.488 12.728 97.36 13.144C97.248 13.544 97.128 13.944 97 14.344C96.904 14.632 96.912 14.864 97.024 15.04C97.152 15.216 97.368 15.304 97.672 15.304H108.856C109.08 15.304 109.256 15.368 109.384 15.496C109.512 15.624 109.576 15.8 109.576 16.024V16.816C109.576 17.04 109.512 17.216 109.384 17.344C109.256 17.472 109.08 17.536 108.856 17.536H104.296C104.072 17.536 103.896 17.6 103.768 17.728C103.64 17.856 103.576 18.032 103.576 18.256V23.104C103.576 23.328 103.64 23.504 103.768 23.632C103.896 23.76 104.072 23.824 104.296 23.824H109.792C110.016 23.824 110.192 23.888 110.32 24.016C110.448 24.144 110.512 24.32 110.512 24.544V25.36C110.512 25.584 110.448 25.76 110.32 25.888C110.192 26.016 110.016 26.08 109.792 26.08ZM120.328 26.176C120.232 26.08 120.152 26.008 120.088 25.96C119.608 25.56 119.6 25.144 120.064 24.712C120.768 24.056 121.36 23.256 121.84 22.312C121.952 22.088 121.944 21.864 121.816 21.64C121.576 21.192 121.344 20.704 121.12 20.176C120.912 19.648 120.72 19.072 120.544 18.448C120.48 18.256 120.488 18.08 120.568 17.92C120.648 17.76 120.784 17.648 120.976 17.584L121.36 17.44C121.584 17.36 121.776 17.368 121.936 17.464C122.112 17.56 122.232 17.72 122.296 17.944C122.328 18.024 122.352 18.104 122.368 18.184C122.384 18.264 122.408 18.344 122.44 18.424C122.568 18.792 122.712 18.976 122.872 18.976C123.032 18.96 123.152 18.76 123.232 18.376C123.312 18.024 123.384 17.664 123.448 17.296C123.512 16.912 123.568 16.512 123.616 16.096C123.648 15.856 123.6 15.664 123.472 15.52C123.344 15.376 123.16 15.304 122.92 15.304H121.6C121.28 15.304 121.056 15.216 120.928 15.04C120.816 14.864 120.816 14.624 120.928 14.32C121.216 13.568 121.504 12.8 121.792 12.016C122.08 11.232 122.368 10.408 122.656 9.544C122.752 9.272 122.736 9.048 122.608 8.872C122.48 8.696 122.264 8.608 121.96 8.608H121.384C121.16 8.608 120.984 8.544 120.856 8.416C120.728 8.288 120.664 8.112 120.664 7.888L120.64 7.384C120.64 7.16 120.704 6.984 120.832 6.856C120.96 6.728 121.136 6.664 121.36 6.664H124.6C124.904 6.664 125.112 6.752 125.224 6.928C125.352 7.104 125.368 7.328 125.272 7.6C124.984 8.512 124.688 9.4 124.384 10.264C124.08 11.112 123.768 11.96 123.448 12.808C123.368 13 123.368 13.16 123.448 13.288C123.528 13.4 123.68 13.456 123.904 13.456C124.016 13.44 124.112 13.432 124.192 13.432C124.288 13.432 124.368 13.432 124.432 13.432C124.48 13.416 124.528 13.416 124.576 13.432C124.624 13.432 124.672 13.432 124.72 13.432L125.152 13.528C125.328 13.576 125.464 13.672 125.56 13.816C125.656 13.944 125.696 14.096 125.68 14.272C125.408 17.088 124.952 19.432 124.312 21.304C124.2 21.544 124.24 21.776 124.432 22C125.296 22.912 126.248 23.528 127.288 23.848C128.488 24.232 129.76 24.424 131.104 24.424L133.936 24.4C134.576 24.4 134.784 24.72 134.56 25.36C134.528 25.44 134.504 25.512 134.488 25.576C134.488 25.64 134.472 25.712 134.44 25.792C134.328 26.192 134.08 26.392 133.696 26.392H130.96C127.984 26.392 125.664 25.712 124 24.352C123.776 24.176 123.552 24.104 123.328 24.136C123.12 24.152 122.936 24.288 122.776 24.544C122.328 25.184 121.848 25.752 121.336 26.248C121.176 26.376 121.008 26.432 120.832 26.416C120.656 26.4 120.488 26.32 120.328 26.176ZM116.008 26.656C115.992 26.624 115.984 26.624 115.984 26.656L116.008 26.68V26.656ZM113.872 12.304C113.68 11.856 113.472 11.464 113.248 11.128C113.088 10.824 113.096 10.544 113.272 10.288C113.688 9.648 114.056 8.96 114.376 8.224C114.696 7.488 114.968 6.688 115.192 5.824C115.256 5.6 115.368 5.44 115.528 5.344C115.688 5.248 115.88 5.232 116.104 5.296L116.56 5.416C116.768 5.48 116.92 5.592 117.016 5.752C117.112 5.912 117.128 6.096 117.064 6.304C117.048 6.352 117.032 6.4 117.016 6.448C117 6.496 116.984 6.544 116.968 6.592C116.888 6.88 116.904 7.112 117.016 7.288C117.144 7.464 117.36 7.552 117.664 7.552H119.536C119.76 7.552 119.936 7.616 120.064 7.744C120.192 7.872 120.256 8.048 120.256 8.272V8.872C120.256 9.096 120.192 9.272 120.064 9.4C119.936 9.528 119.76 9.592 119.536 9.592H116.32C116 9.592 115.776 9.736 115.648 10.024C115.584 10.152 115.528 10.272 115.48 10.384C115.432 10.48 115.376 10.584 115.312 10.696C115.136 11.016 115.096 11.272 115.192 11.464C115.288 11.656 115.52 11.752 115.888 11.752H118.984C119.208 11.752 119.384 11.816 119.512 11.944C119.64 12.072 119.704 12.248 119.704 12.472V13.024C119.704 13.248 119.64 13.424 119.512 13.552C119.384 13.68 119.208 13.744 118.984 13.744H118.6C118.376 13.744 118.2 13.808 118.072 13.936C117.944 14.064 117.88 14.24 117.88 14.464V15.784C117.88 16.008 117.944 16.184 118.072 16.312C118.2 16.44 118.376 16.504 118.6 16.504H119.536C119.76 16.504 119.936 16.568 120.064 16.696C120.192 16.824 120.256 17 120.256 17.224V17.776C120.256 18 120.192 18.176 120.064 18.304C119.936 18.432 119.76 18.496 119.536 18.496H118.6C118.376 18.496 118.2 18.56 118.072 18.688C117.944 18.816 117.88 18.992 117.88 19.216V21.256C117.88 21.64 117.976 21.888 118.168 22C118.36 22.096 118.616 22.032 118.936 21.808L119.176 21.64C119.416 21.464 119.632 21.416 119.824 21.496C120.016 21.56 120.168 21.728 120.28 22C120.296 22.08 120.336 22.184 120.4 22.312C120.56 22.712 120.472 23.024 120.136 23.248C119.656 23.6 119.224 23.912 118.84 24.184C118.472 24.456 118.152 24.688 117.88 24.88C117.56 25.104 117.288 25.304 117.064 25.48C116.856 25.656 116.688 25.8 116.56 25.912C116.48 25.96 116.416 26.008 116.368 26.056C116.32 26.12 116.272 26.176 116.224 26.224C116.048 26.432 115.888 26.424 115.744 26.2C115.68 26.104 115.616 26.008 115.552 25.912C115.504 25.832 115.448 25.752 115.384 25.672C115.064 25.288 115.072 24.888 115.408 24.472C115.776 24.008 115.96 23.448 115.96 22.792V19.216C115.96 18.992 115.896 18.816 115.768 18.688C115.64 18.56 115.464 18.496 115.24 18.496H114.208C113.984 18.496 113.808 18.432 113.68 18.304C113.552 18.176 113.488 18 113.488 17.776V17.224C113.488 17 113.552 16.824 113.68 16.696C113.808 16.568 113.984 16.504 114.208 16.504H115.24C115.464 16.504 115.64 16.44 115.768 16.312C115.896 16.184 115.96 16.008 115.96 15.784V14.464C115.96 14.24 115.896 14.064 115.768 13.936C115.64 13.808 115.464 13.744 115.24 13.744H115.192C114.968 13.744 114.792 13.68 114.664 13.552C114.536 13.424 114.472 13.248 114.472 13.024V12.424C114.472 12.296 114.448 12.232 114.4 12.232C114.368 12.216 114.32 12.248 114.256 12.328C114.112 12.52 113.984 12.512 113.872 12.304ZM129.832 23.824H129.4C129.176 23.824 129 23.76 128.872 23.632C128.744 23.504 128.68 23.328 128.68 23.104V22.024C128.68 21.8 128.616 21.624 128.488 21.496C128.36 21.368 128.184 21.304 127.96 21.304H126.112C125.888 21.304 125.712 21.24 125.584 21.112C125.456 20.984 125.392 20.808 125.392 20.584V20.176C125.392 19.952 125.456 19.776 125.584 19.648C125.712 19.52 125.888 19.456 126.112 19.456H127.984C128.192 19.456 128.36 19.392 128.488 19.264C128.616 19.136 128.68 18.968 128.68 18.76C128.68 18.552 128.616 18.384 128.488 18.256C128.36 18.128 128.192 18.064 127.984 18.064H126.688C126.464 18.064 126.288 18 126.16 17.872C126.032 17.744 125.968 17.568 125.968 17.344V16.936C125.968 16.712 126.032 16.536 126.16 16.408C126.288 16.28 126.464 16.216 126.688 16.216H128.032C128.224 16.216 128.376 16.16 128.488 16.048C128.616 15.92 128.68 15.752 128.68 15.544C128.68 15.352 128.616 15.2 128.488 15.088C128.376 14.96 128.224 14.896 128.032 14.896H126.904C126.68 14.896 126.504 14.832 126.376 14.704C126.248 14.576 126.184 14.4 126.184 14.176V13.864C126.184 13.64 126.248 13.464 126.376 13.336C126.504 13.208 126.68 13.144 126.904 13.144H128.008C128.456 13.144 128.68 12.912 128.68 12.448C128.68 12 128.456 11.776 128.008 11.776H125.968C125.744 11.776 125.568 11.712 125.44 11.584C125.312 11.456 125.248 11.28 125.248 11.056V10.72C125.248 10.496 125.312 10.32 125.44 10.192C125.568 10.064 125.744 10 125.968 10H128.032C128.224 10 128.376 9.944 128.488 9.832C128.616 9.704 128.68 9.536 128.68 9.328C128.68 9.136 128.616 8.984 128.488 8.872C128.376 8.744 128.224 8.68 128.032 8.68H126.904C126.68 8.68 126.504 8.616 126.376 8.488C126.248 8.36 126.184 8.184 126.184 7.96V7.624C126.184 7.4 126.248 7.224 126.376 7.096C126.504 6.968 126.68 6.904 126.904 6.904H127.96C128.184 6.904 128.36 6.84 128.488 6.712C128.616 6.584 128.68 6.408 128.68 6.184V5.8C128.68 5.576 128.744 5.4 128.872 5.272C129 5.144 129.176 5.08 129.4 5.08H129.832C130.056 5.08 130.232 5.144 130.36 5.272C130.488 5.4 130.552 5.576 130.552 5.8V6.184C130.552 6.408 130.616 6.584 130.744 6.712C130.872 6.84 131.048 6.904 131.272 6.904H133.12C133.344 6.904 133.52 6.968 133.648 7.096C133.776 7.224 133.84 7.4 133.84 7.624V9.544C133.84 9.848 133.992 10 134.296 10C134.6 10 134.752 10.152 134.752 10.456V11.32C134.752 11.624 134.6 11.776 134.296 11.776C133.992 11.776 133.84 11.928 133.84 12.232V14.176C133.84 14.4 133.776 14.576 133.648 14.704C133.52 14.832 133.344 14.896 133.12 14.896H131.224C131.016 14.896 130.848 14.96 130.72 15.088C130.608 15.2 130.552 15.352 130.552 15.544C130.552 15.992 130.776 16.216 131.224 16.216H133.072C133.296 16.216 133.472 16.28 133.6 16.408C133.728 16.536 133.792 16.712 133.792 16.936V17.344C133.792 17.568 133.728 17.744 133.6 17.872C133.472 18 133.296 18.064 133.072 18.064H131.248C131.04 18.064 130.872 18.128 130.744 18.256C130.616 18.384 130.552 18.552 130.552 18.76C130.552 18.968 130.616 19.136 130.744 19.264C130.872 19.392 131.04 19.456 131.248 19.456H133.456C133.68 19.456 133.856 19.52 133.984 19.648C134.112 19.776 134.176 19.952 134.176 20.176V20.584C134.176 20.808 134.112 20.984 133.984 21.112C133.856 21.24 133.68 21.304 133.456 21.304H131.272C131.048 21.304 130.872 21.368 130.744 21.496C130.616 21.624 130.552 21.8 130.552 22.024V23.104C130.552 23.328 130.488 23.504 130.36 23.632C130.232 23.76 130.056 23.824 129.832 23.824ZM132.04 12.448C132.04 12 131.816 11.776 131.368 11.776H131.248C130.784 11.776 130.552 12 130.552 12.448C130.552 12.912 130.784 13.144 131.248 13.144H131.368C131.816 13.144 132.04 12.912 132.04 12.448ZM132.04 9.328C132.04 9.136 131.976 8.984 131.848 8.872C131.736 8.744 131.584 8.68 131.392 8.68H131.224C131.016 8.68 130.848 8.744 130.72 8.872C130.608 8.984 130.552 9.136 130.552 9.328C130.552 9.776 130.776 10 131.224 10H131.392C131.584 10 131.736 9.944 131.848 9.832C131.976 9.704 132.04 9.536 132.04 9.328ZM138.016 25.696L137.416 24.88C137.208 24.56 137.232 24.256 137.488 23.968C138.4 23.056 139.24 22.384 140.008 21.952C140.28 21.792 140.416 21.568 140.416 21.28V16.336C140.416 16.112 140.352 15.936 140.224 15.808C140.096 15.68 139.92 15.616 139.696 15.616H138.16C137.936 15.616 137.76 15.552 137.632 15.424C137.504 15.296 137.44 15.12 137.44 14.896V14.2C137.44 13.976 137.504 13.8 137.632 13.672C137.76 13.544 137.936 13.48 138.16 13.48H141.976C142.2 13.48 142.376 13.544 142.504 13.672C142.632 13.8 142.696 13.976 142.696 14.2V21.616C142.696 21.84 142.784 22 142.96 22.096L143.2 22.288L144.208 22.936C144.976 23.384 145.864 23.664 146.872 23.776C147.912 23.92 149.072 23.992 150.352 23.992C151.68 23.992 152.952 23.96 154.168 23.896C155.384 23.832 156.56 23.736 157.696 23.608C158.064 23.576 158.32 23.648 158.464 23.824C158.608 24 158.624 24.272 158.512 24.64C158.48 24.752 158.448 24.864 158.416 24.976C158.4 25.088 158.376 25.192 158.344 25.288C158.264 25.688 158.032 25.904 157.648 25.936C155.328 26.08 152.864 26.152 150.256 26.152C148.816 26.152 147.576 26.056 146.536 25.864C145.112 25.64 143.856 25.096 142.768 24.232C142.128 23.784 141.696 23.56 141.472 23.56C141.008 23.56 140.256 24.272 139.216 25.696C139.04 25.952 138.84 26.08 138.616 26.08C138.392 26.08 138.192 25.952 138.016 25.696ZM141.136 10.192C140.8 9.76 140.416 9.312 139.984 8.848C139.568 8.384 139.104 7.904 138.592 7.408C138.416 7.232 138.328 7.048 138.328 6.856C138.328 6.648 138.432 6.464 138.64 6.304L139.168 5.872C139.312 5.76 139.472 5.712 139.648 5.728C139.824 5.728 139.976 5.792 140.104 5.92C140.664 6.432 141.184 6.928 141.664 7.408C142.144 7.888 142.568 8.36 142.936 8.824C143.064 8.984 143.12 9.152 143.104 9.328C143.088 9.504 143 9.664 142.84 9.808L142.216 10.336C141.832 10.64 141.472 10.592 141.136 10.192ZM145.528 22.528C145.448 22.448 145.368 22.368 145.288 22.288C145.208 22.208 145.128 22.128 145.048 22.048C144.584 21.664 144.568 21.256 145 20.824C145.864 19.96 146.448 19.048 146.752 18.088C146.832 17.848 146.808 17.656 146.68 17.512C146.568 17.352 146.376 17.272 146.104 17.272H144.76C144.536 17.272 144.36 17.208 144.232 17.08C144.104 16.952 144.04 16.776 144.04 16.552V15.76C144.04 15.536 144.104 15.36 144.232 15.232C144.36 15.104 144.536 15.04 144.76 15.04H146.608C146.816 15.04 146.984 14.984 147.112 14.872C147.24 14.744 147.304 14.576 147.304 14.368C147.32 14.096 147.328 13.776 147.328 13.408C147.328 13.04 147.328 12.616 147.328 12.136C147.328 11.912 147.264 11.736 147.136 11.608C147.008 11.48 146.832 11.416 146.608 11.416H144.928C144.704 11.416 144.528 11.352 144.4 11.224C144.272 11.096 144.208 10.92 144.208 10.696V9.904C144.208 9.68 144.272 9.504 144.4 9.376C144.528 9.248 144.704 9.184 144.928 9.184H146.608C146.832 9.184 147.008 9.12 147.136 8.992C147.264 8.864 147.328 8.688 147.328 8.464V6.352C147.328 6.128 147.392 5.952 147.52 5.824C147.648 5.696 147.824 5.632 148.048 5.632H148.888C149.112 5.632 149.288 5.696 149.416 5.824C149.544 5.952 149.608 6.128 149.608 6.352V8.464C149.608 8.688 149.672 8.864 149.8 8.992C149.928 9.12 150.104 9.184 150.328 9.184H152.08C152.304 9.184 152.48 9.12 152.608 8.992C152.736 8.864 152.8 8.688 152.8 8.464V6.352C152.8 6.128 152.864 5.952 152.992 5.824C153.12 5.696 153.296 5.632 153.52 5.632H154.36C154.584 5.632 154.76 5.696 154.888 5.824C155.016 5.952 155.08 6.128 155.08 6.352V8.464C155.08 8.688 155.144 8.864 155.272 8.992C155.4 9.12 155.576 9.184 155.8 9.184H157.216C157.44 9.184 157.616 9.248 157.744 9.376C157.872 9.504 157.936 9.68 157.936 9.904V10.696C157.936 10.92 157.872 11.096 157.744 11.224C157.616 11.352 157.44 11.416 157.216 11.416H155.8C155.576 11.416 155.4 11.48 155.272 11.608C155.144 11.736 155.08 11.912 155.08 12.136V14.32C155.08 14.544 155.144 14.72 155.272 14.848C155.4 14.976 155.576 15.04 155.8 15.04H157.672C157.896 15.04 158.072 15.104 158.2 15.232C158.328 15.36 158.392 15.536 158.392 15.76V16.552C158.392 16.776 158.328 16.952 158.2 17.08C158.072 17.208 157.896 17.272 157.672 17.272H155.8C155.576 17.272 155.4 17.336 155.272 17.464C155.144 17.592 155.08 17.768 155.08 17.992V22.168C155.08 22.392 155.016 22.568 154.888 22.696C154.76 22.824 154.584 22.888 154.36 22.888H153.52C153.296 22.888 153.12 22.824 152.992 22.696C152.864 22.568 152.8 22.392 152.8 22.168V17.992C152.8 17.768 152.736 17.592 152.608 17.464C152.48 17.336 152.304 17.272 152.08 17.272H149.92C149.52 17.272 149.28 17.472 149.2 17.872C148.8 19.744 147.928 21.328 146.584 22.624C146.408 22.784 146.224 22.856 146.032 22.84C145.856 22.808 145.688 22.704 145.528 22.528ZM152.8 14.32V12.136C152.8 11.912 152.736 11.736 152.608 11.608C152.48 11.48 152.304 11.416 152.08 11.416H150.328C150.104 11.416 149.928 11.48 149.8 11.608C149.672 11.736 149.608 11.912 149.608 12.136V13.576C149.608 13.704 149.608 13.832 149.608 13.96C149.608 14.072 149.6 14.192 149.584 14.32C149.584 14.544 149.648 14.72 149.776 14.848C149.904 14.976 150.08 15.04 150.304 15.04H152.08C152.304 15.04 152.48 14.976 152.608 14.848C152.736 14.72 152.8 14.544 152.8 14.32ZM180.976 26.008C179.28 24.872 177.904 23.528 176.848 21.976C176.24 21.08 175.664 20.176 175.12 19.264C174.592 18.336 174.096 17.384 173.632 16.408L173.056 15.28C172.88 14.944 172.704 14.784 172.528 14.8C172.368 14.8 172.224 14.984 172.096 15.352C170.416 20.136 167.624 23.76 163.72 26.224C163.576 26.32 163.416 26.352 163.24 26.32C163.08 26.288 162.936 26.208 162.808 26.08C162.68 25.952 162.552 25.832 162.424 25.72C162.312 25.624 162.192 25.512 162.064 25.384C161.792 25.16 161.664 24.936 161.68 24.712C161.696 24.472 161.864 24.264 162.184 24.088C164.28 22.84 165.984 21.232 167.296 19.264C168.032 18.16 168.672 16.96 169.216 15.664C169.76 14.352 170.208 12.928 170.56 11.392C170.608 11.2 170.576 11.008 170.464 10.816C169.632 9.68 168.64 8.672 167.488 7.792C167.312 7.664 167.208 7.504 167.176 7.312C167.144 7.12 167.192 6.936 167.32 6.76L167.896 5.968C168.024 5.792 168.176 5.696 168.352 5.68C168.544 5.648 168.728 5.704 168.904 5.848C169.672 6.456 170.36 7.088 170.968 7.744C171.592 8.384 172.144 9.056 172.624 9.76C173.696 11.36 174.624 12.984 175.408 14.632C175.84 15.512 176.296 16.368 176.776 17.2C177.272 18.016 177.8 18.832 178.36 19.648C178.84 20.368 179.408 21.056 180.064 21.712C180.736 22.352 181.488 22.96 182.32 23.536C182.704 23.792 182.784 24.128 182.56 24.544C182.48 24.72 182.4 24.888 182.32 25.048C182.24 25.224 182.168 25.4 182.104 25.576C182.008 25.848 181.856 26.032 181.648 26.128C181.456 26.224 181.232 26.184 180.976 26.008ZM199.192 26.68H198.256C198.032 26.68 197.856 26.616 197.728 26.488C197.6 26.36 197.536 26.184 197.536 25.96V11.704C197.536 11.528 197.48 11.392 197.368 11.296C197.272 11.184 197.136 11.128 196.96 11.128H196.792C196.52 11.128 196.304 11.256 196.144 11.512C195.392 12.872 194.56 14.12 193.648 15.256C193.488 15.432 193.312 15.528 193.12 15.544C192.928 15.544 192.744 15.456 192.568 15.28C192.472 15.2 192.376 15.12 192.28 15.04C192.184 14.96 192.08 14.88 191.968 14.8C191.552 14.464 191.52 14.088 191.872 13.672C192.768 12.6 193.576 11.424 194.296 10.144C195.016 8.864 195.656 7.464 196.216 5.944C196.28 5.752 196.392 5.616 196.552 5.536C196.712 5.44 196.888 5.424 197.08 5.488L197.92 5.704C198.416 5.864 198.576 6.176 198.4 6.64C198.24 7.072 198.072 7.48 197.896 7.864C197.768 8.184 197.768 8.44 197.896 8.632C198.024 8.808 198.248 8.896 198.568 8.896H206.104C206.328 8.896 206.504 8.96 206.632 9.088C206.76 9.216 206.824 9.392 206.824 9.616V10.408C206.824 10.632 206.76 10.808 206.632 10.936C206.504 11.064 206.328 11.128 206.104 11.128H200.632C200.408 11.128 200.232 11.192 200.104 11.32C199.976 11.448 199.912 11.624 199.912 11.848V13.24C199.912 13.464 199.976 13.64 200.104 13.768C200.232 13.896 200.408 13.96 200.632 13.96H205.552C205.776 13.96 205.952 14.024 206.08 14.152C206.208 14.28 206.272 14.456 206.272 14.68V15.376C206.272 15.6 206.208 15.776 206.08 15.904C205.952 16.032 205.776 16.096 205.552 16.096H200.632C200.408 16.096 200.232 16.16 200.104 16.288C199.976 16.416 199.912 16.592 199.912 16.816V18.352C199.912 18.576 199.976 18.752 200.104 18.88C200.232 19.008 200.408 19.072 200.632 19.072H205.888C206.112 19.072 206.288 19.136 206.416 19.264C206.544 19.392 206.608 19.568 206.608 19.792V20.512C206.608 20.736 206.544 20.912 206.416 21.04C206.288 21.168 206.112 21.232 205.888 21.232H200.632C200.408 21.232 200.232 21.296 200.104 21.424C199.976 21.552 199.912 21.728 199.912 21.952V25.96C199.912 26.184 199.848 26.36 199.72 26.488C199.592 26.616 199.416 26.68 199.192 26.68ZM189.808 26.656H188.896C188.672 26.656 188.496 26.592 188.368 26.464C188.24 26.336 188.176 26.16 188.176 25.936V15.88C188.176 15.448 188.096 15.208 187.936 15.16C187.776 15.112 187.56 15.248 187.288 15.568C187.176 15.68 187.096 15.768 187.048 15.832C186.824 16.072 186.6 16.176 186.376 16.144C186.168 16.096 185.992 15.928 185.848 15.64C185.768 15.48 185.688 15.328 185.608 15.184C185.528 15.04 185.448 14.904 185.368 14.776C185.16 14.44 185.184 14.128 185.44 13.84C186.464 12.736 187.384 11.52 188.2 10.192C189.016 8.848 189.752 7.376 190.408 5.776C190.488 5.584 190.608 5.448 190.768 5.368C190.928 5.288 191.104 5.28 191.296 5.344L192.136 5.608C192.36 5.688 192.512 5.816 192.592 5.992C192.672 6.152 192.664 6.336 192.568 6.544C192.296 7.264 191.992 7.96 191.656 8.632C191.336 9.288 190.992 9.952 190.624 10.624C190.56 10.752 190.528 10.872 190.528 10.984V25.936C190.528 26.16 190.464 26.336 190.336 26.464C190.208 26.592 190.032 26.656 189.808 26.656ZM222.544 26.704H221.632C221.408 26.704 221.232 26.64 221.104 26.512C220.976 26.384 220.912 26.208 220.912 25.984V17.032C220.912 16.808 220.976 16.632 221.104 16.504C221.232 16.376 221.408 16.312 221.632 16.312H229.216C229.44 16.312 229.616 16.376 229.744 16.504C229.872 16.632 229.936 16.808 229.936 17.032V25.864C229.936 26.088 229.872 26.264 229.744 26.392C229.616 26.52 229.44 26.584 229.216 26.584H228.184C227.816 26.584 227.632 26.4 227.632 26.032C227.632 25.664 227.448 25.48 227.08 25.48H223.768C223.352 25.48 223.144 25.688 223.144 26.104C223.144 26.504 222.944 26.704 222.544 26.704ZM227.632 22.552V19.264C227.632 19.04 227.568 18.864 227.44 18.736C227.312 18.608 227.136 18.544 226.912 18.544H223.864C223.64 18.544 223.464 18.608 223.336 18.736C223.208 18.864 223.144 19.04 223.144 19.264V22.552C223.144 22.776 223.208 22.952 223.336 23.08C223.464 23.208 223.64 23.272 223.864 23.272H226.912C227.136 23.272 227.312 23.208 227.44 23.08C227.568 22.952 227.632 22.776 227.632 22.552ZM211.744 26.704H210.88C210.656 26.704 210.48 26.64 210.352 26.512C210.224 26.384 210.16 26.208 210.16 25.984V17.032C210.16 16.808 210.224 16.632 210.352 16.504C210.48 16.376 210.656 16.312 210.88 16.312H218.032C218.256 16.312 218.432 16.376 218.56 16.504C218.688 16.632 218.752 16.808 218.752 17.032V25.816C218.752 26.04 218.688 26.216 218.56 26.344C218.432 26.472 218.256 26.536 218.032 26.536H217C216.648 26.536 216.472 26.36 216.472 26.008C216.472 25.656 216.296 25.48 215.944 25.48H212.968C212.552 25.48 212.344 25.688 212.344 26.104C212.344 26.504 212.144 26.704 211.744 26.704ZM216.472 22.552V19.264C216.472 19.04 216.408 18.864 216.28 18.736C216.152 18.608 215.976 18.544 215.752 18.544H213.064C212.84 18.544 212.664 18.608 212.536 18.736C212.408 18.864 212.344 19.04 212.344 19.264V22.552C212.344 22.776 212.408 22.952 212.536 23.08C212.664 23.208 212.84 23.272 213.064 23.272H215.752C215.976 23.272 216.152 23.208 216.28 23.08C216.408 22.952 216.472 22.776 216.472 22.552ZM225.952 14.176H214.168C213.944 14.176 213.768 14.112 213.64 13.984C213.512 13.856 213.448 13.68 213.448 13.456V6.784C213.448 6.56 213.512 6.384 213.64 6.256C213.768 6.128 213.944 6.064 214.168 6.064H225.952C226.176 6.064 226.352 6.128 226.48 6.256C226.608 6.384 226.672 6.56 226.672 6.784V13.456C226.672 13.68 226.608 13.856 226.48 13.984C226.352 14.112 226.176 14.176 225.952 14.176ZM224.296 11.248V9.016C224.296 8.792 224.232 8.616 224.104 8.488C223.976 8.36 223.8 8.296 223.576 8.296H216.4C216.176 8.296 216 8.36 215.872 8.488C215.744 8.616 215.68 8.792 215.68 9.016V11.248C215.68 11.472 215.744 11.648 215.872 11.776C216 11.904 216.176 11.968 216.4 11.968H223.576C223.8 11.968 223.976 11.904 224.104 11.776C224.232 11.648 224.296 11.472 224.296 11.248Z" fill="white" fill-opacity="0.85"/>
</svg>
