<svg width="184" height="32" viewBox="0 0 184 32" fill="none" xmlns="http://www.w3.org/2000/svg">
<path d="M19.6616 5.21042H16.0974V4.63088C16.0974 3.42066 15.4126 2.29567 14.324 1.69909L13.2881 1.13659C12.7614 0.846819 12.0942 1.03432 11.7957 1.54568C11.4972 2.05704 11.6903 2.70476 12.2171 2.99453L13.253 3.55703C13.6568 3.77861 13.9026 4.1877 13.9026 4.63088V5.21042H10.3208C6.82682 5.21042 4 7.97176 4 11.3467V20.6876C4 26.3637 8.75818 31 14.6225 31H15.3775C21.2243 31 26 26.3807 26 20.6876V11.3467C25.9824 7.97176 23.1556 5.21042 19.6616 5.21042ZM10.3208 7.34109H14.9912V14.9603H6.19473V11.3467C6.19473 9.14789 8.03831 7.34109 10.3208 7.34109ZM15.3775 28.8693H14.6225C9.98723 28.8693 6.19473 25.2046 6.19473 20.6876V17.091H23.7877V20.7046C23.7877 25.2046 20.0128 28.8693 15.3775 28.8693Z" fill="white" fill-opacity="0.85"/>
<path d="M16 7V14.8H24V11.7734C24 9.15312 22.2716 7 20.1317 7H16Z" fill="#E2730E"/>
<path d="M52.432 26.68H51.472C51.248 26.68 51.072 26.616 50.944 26.488C50.816 26.36 50.752 26.184 50.752 25.96V23.368C50.752 23.144 50.688 22.968 50.56 22.84C50.432 22.712 50.256 22.648 50.032 22.648H42.256C42.032 22.648 41.856 22.584 41.728 22.456C41.6 22.328 41.536 22.152 41.536 21.928V21.208C41.536 20.984 41.6 20.808 41.728 20.68C41.856 20.552 42.032 20.488 42.256 20.488H50.032C50.256 20.488 50.432 20.424 50.56 20.296C50.688 20.168 50.752 19.992 50.752 19.768V19.408C50.752 19.184 50.688 19.008 50.56 18.88C50.432 18.752 50.256 18.688 50.032 18.688H44.392C44.168 18.688 43.992 18.624 43.864 18.496C43.736 18.368 43.672 18.192 43.672 17.968V9.784C43.672 9.56 43.736 9.384 43.864 9.256C43.992 9.128 44.168 9.064 44.392 9.064H46.456C46.824 9.064 47.064 8.968 47.176 8.776C47.288 8.584 47.248 8.336 47.056 8.032C46.928 7.824 46.784 7.624 46.624 7.432C46.48 7.224 46.328 7.016 46.168 6.808C45.992 6.584 45.92 6.376 45.952 6.184C46 5.976 46.152 5.808 46.408 5.68L47.08 5.368C47.416 5.208 47.704 5.264 47.944 5.536C48.36 6.048 48.728 6.528 49.048 6.976C49.384 7.408 49.664 7.832 49.888 8.248C49.968 8.376 49.984 8.496 49.936 8.608C49.904 8.704 49.824 8.784 49.696 8.848C49.456 8.992 49.472 9.064 49.744 9.064H53.968C54.24 9.064 54.44 8.96 54.568 8.752C54.904 8.272 55.208 7.784 55.48 7.288C55.768 6.792 56.032 6.288 56.272 5.776C56.352 5.6 56.472 5.472 56.632 5.392C56.792 5.312 56.968 5.304 57.16 5.368L58.192 5.704C58.464 5.784 58.632 5.928 58.696 6.136C58.776 6.328 58.736 6.544 58.576 6.784C58.448 6.976 58.32 7.168 58.192 7.36C58.064 7.552 57.936 7.736 57.808 7.912C57.568 8.264 57.504 8.544 57.616 8.752C57.728 8.96 57.992 9.064 58.408 9.064H59.848C60.072 9.064 60.248 9.128 60.376 9.256C60.504 9.384 60.568 9.56 60.568 9.784V17.968C60.568 18.192 60.504 18.368 60.376 18.496C60.248 18.624 60.072 18.688 59.848 18.688H53.872C53.648 18.688 53.472 18.752 53.344 18.88C53.216 19.008 53.152 19.184 53.152 19.408V19.768C53.152 19.992 53.216 20.168 53.344 20.296C53.472 20.424 53.648 20.488 53.872 20.488H61.792C62.016 20.488 62.192 20.552 62.32 20.68C62.448 20.808 62.512 20.984 62.512 21.208V21.928C62.512 22.152 62.448 22.328 62.32 22.456C62.192 22.584 62.016 22.648 61.792 22.648H53.872C53.648 22.648 53.472 22.712 53.344 22.84C53.216 22.968 53.152 23.144 53.152 23.368V25.96C53.152 26.184 53.088 26.36 52.96 26.488C52.832 26.616 52.656 26.68 52.432 26.68ZM58.192 16.024V15.496C58.192 15.272 58.128 15.096 58 14.968C57.872 14.84 57.696 14.776 57.472 14.776H53.872C53.648 14.776 53.472 14.84 53.344 14.968C53.216 15.096 53.152 15.272 53.152 15.496V16.024C53.152 16.248 53.216 16.424 53.344 16.552C53.472 16.68 53.648 16.744 53.872 16.744H57.472C57.696 16.744 57.872 16.68 58 16.552C58.128 16.424 58.192 16.248 58.192 16.024ZM58.192 12.208V11.704C58.192 11.48 58.128 11.304 58 11.176C57.872 11.048 57.696 10.984 57.472 10.984H53.872C53.648 10.984 53.472 11.048 53.344 11.176C53.216 11.304 53.152 11.48 53.152 11.704V12.208C53.152 12.432 53.216 12.608 53.344 12.736C53.472 12.864 53.648 12.928 53.872 12.928H57.472C57.696 12.928 57.872 12.864 58 12.736C58.128 12.608 58.192 12.432 58.192 12.208ZM50.752 12.208V11.704C50.752 11.48 50.688 11.304 50.56 11.176C50.432 11.048 50.256 10.984 50.032 10.984H46.672C46.448 10.984 46.272 11.048 46.144 11.176C46.016 11.304 45.952 11.48 45.952 11.704V12.208C45.952 12.432 46.016 12.608 46.144 12.736C46.272 12.864 46.448 12.928 46.672 12.928H50.032C50.256 12.928 50.432 12.864 50.56 12.736C50.688 12.608 50.752 12.432 50.752 12.208ZM50.752 16.024V15.496C50.752 15.272 50.688 15.096 50.56 14.968C50.432 14.84 50.256 14.776 50.032 14.776H46.672C46.448 14.776 46.272 14.84 46.144 14.968C46.016 15.096 45.952 15.272 45.952 15.496V16.024C45.952 16.248 46.016 16.424 46.144 16.552C46.272 16.68 46.448 16.744 46.672 16.744H50.032C50.256 16.744 50.432 16.68 50.56 16.552C50.688 16.424 50.752 16.248 50.752 16.024ZM83.656 26.704H82.6C82.2 26.704 82 26.504 82 26.104C82 25.704 81.8 25.504 81.4 25.504H68.344C68.12 25.504 67.944 25.44 67.816 25.312C67.688 25.184 67.624 25.008 67.624 24.784V18.424C67.624 18.2 67.688 18.024 67.816 17.896C67.944 17.768 68.12 17.704 68.344 17.704H69.352C69.576 17.704 69.752 17.768 69.88 17.896C70.008 18.024 70.072 18.2 70.072 18.424V22.504C70.072 22.728 70.136 22.904 70.264 23.032C70.392 23.16 70.568 23.224 70.792 23.224H74.152C74.376 23.224 74.552 23.16 74.68 23.032C74.808 22.904 74.872 22.728 74.872 22.504V16.936C74.872 16.712 74.808 16.536 74.68 16.408C74.552 16.28 74.376 16.216 74.152 16.216H66.448C66.224 16.216 66.048 16.152 65.92 16.024C65.792 15.896 65.728 15.72 65.728 15.496V14.632C65.728 14.408 65.792 14.232 65.92 14.104C66.048 13.976 66.224 13.912 66.448 13.912H74.152C74.376 13.912 74.552 13.848 74.68 13.72C74.808 13.592 74.872 13.416 74.872 13.192V11.512C74.872 11.288 74.808 11.112 74.68 10.984C74.552 10.856 74.376 10.792 74.152 10.792H68.128C67.904 10.792 67.728 10.728 67.6 10.6C67.472 10.472 67.408 10.296 67.408 10.072V9.232C67.408 9.008 67.472 8.832 67.6 8.704C67.728 8.576 67.904 8.512 68.128 8.512H74.152C74.376 8.512 74.552 8.448 74.68 8.32C74.808 8.192 74.872 8.016 74.872 7.792V5.824C74.872 5.6 74.936 5.424 75.064 5.296C75.192 5.168 75.368 5.104 75.592 5.104H76.6C76.824 5.104 77 5.168 77.128 5.296C77.256 5.424 77.32 5.6 77.32 5.824V7.792C77.32 8.016 77.384 8.192 77.512 8.32C77.64 8.448 77.816 8.512 78.04 8.512H84.064C84.288 8.512 84.464 8.576 84.592 8.704C84.72 8.832 84.784 9.008 84.784 9.232V10.072C84.784 10.296 84.72 10.472 84.592 10.6C84.464 10.728 84.288 10.792 84.064 10.792H78.04C77.816 10.792 77.64 10.856 77.512 10.984C77.384 11.112 77.32 11.288 77.32 11.512V13.192C77.32 13.416 77.384 13.592 77.512 13.72C77.64 13.848 77.816 13.912 78.04 13.912H85.624C85.848 13.912 86.024 13.976 86.152 14.104C86.28 14.232 86.344 14.408 86.344 14.632V15.496C86.344 15.72 86.28 15.896 86.152 16.024C86.024 16.152 85.848 16.216 85.624 16.216H78.04C77.816 16.216 77.64 16.28 77.512 16.408C77.384 16.536 77.32 16.712 77.32 16.936V22.504C77.32 22.728 77.384 22.904 77.512 23.032C77.64 23.16 77.816 23.224 78.04 23.224H81.28C81.504 23.224 81.68 23.16 81.808 23.032C81.936 22.904 82 22.728 82 22.504V18.4C82 18.176 82.064 18 82.192 17.872C82.32 17.744 82.496 17.68 82.72 17.68H83.656C83.88 17.68 84.056 17.744 84.184 17.872C84.312 18 84.376 18.176 84.376 18.4V25.984C84.376 26.208 84.312 26.384 84.184 26.512C84.056 26.64 83.88 26.704 83.656 26.704ZM96.112 26.728H95.176C94.952 26.728 94.776 26.664 94.648 26.536C94.52 26.408 94.456 26.232 94.456 26.008V20.56C94.456 19.904 94.336 19.536 94.096 19.456C93.856 19.376 93.512 19.568 93.064 20.032C92.76 20.336 92.44 20.64 92.104 20.944C91.784 21.232 91.44 21.512 91.072 21.784C90.896 21.912 90.712 21.96 90.52 21.928C90.328 21.896 90.168 21.792 90.04 21.616C89.912 21.424 89.752 21.232 89.56 21.04C89.192 20.624 89.224 20.232 89.656 19.864C92.04 18.04 93.928 15.584 95.32 12.496C95.448 12.208 95.448 11.976 95.32 11.8C95.208 11.608 94.992 11.512 94.672 11.512H90.496C90.272 11.512 90.096 11.448 89.968 11.32C89.84 11.192 89.776 11.016 89.776 10.792V9.952C89.776 9.728 89.84 9.552 89.968 9.424C90.096 9.296 90.272 9.232 90.496 9.232H96.016C96.176 9.232 96.32 9.192 96.448 9.112C96.576 9.016 96.664 8.888 96.712 8.728C96.856 8.232 96.992 7.744 97.12 7.264C97.248 6.784 97.368 6.288 97.48 5.776C97.592 5.328 97.872 5.144 98.32 5.224L99.304 5.392C99.8 5.472 99.992 5.76 99.88 6.256C99.8 6.608 99.712 6.952 99.616 7.288C99.52 7.624 99.424 7.952 99.328 8.272C99.248 8.56 99.264 8.792 99.376 8.968C99.504 9.144 99.72 9.232 100.024 9.232H109.576C109.8 9.232 109.976 9.296 110.104 9.424C110.232 9.552 110.296 9.728 110.296 9.952V10.792C110.296 11.016 110.232 11.192 110.104 11.32C109.976 11.448 109.8 11.512 109.576 11.512H98.728C98.392 11.512 98.168 11.664 98.056 11.968C97.88 12.4 97.696 12.824 97.504 13.24C97.328 13.64 97.136 14.04 96.928 14.44C96.752 14.76 96.728 15.024 96.856 15.232C96.984 15.424 97.232 15.52 97.6 15.52H107.92C108.144 15.52 108.32 15.584 108.448 15.712C108.576 15.84 108.64 16.016 108.64 16.24V25.912C108.64 26.136 108.576 26.312 108.448 26.44C108.32 26.568 108.144 26.632 107.92 26.632H106.816C106.416 26.632 106.216 26.432 106.216 26.032C106.216 25.632 106.016 25.432 105.616 25.432H97.408C97.216 25.432 97.056 25.488 96.928 25.6C96.816 25.728 96.76 25.888 96.76 26.08C96.76 26.272 96.696 26.424 96.568 26.536C96.456 26.664 96.304 26.728 96.112 26.728ZM106.216 22.456V18.496C106.216 18.272 106.152 18.096 106.024 17.968C105.896 17.84 105.72 17.776 105.496 17.776H97.48C97.256 17.776 97.08 17.84 96.952 17.968C96.824 18.096 96.76 18.272 96.76 18.496V22.456C96.76 22.68 96.824 22.856 96.952 22.984C97.08 23.112 97.256 23.176 97.48 23.176H105.496C105.72 23.176 105.896 23.112 106.024 22.984C106.152 22.856 106.216 22.68 106.216 22.456ZM120.328 26.176C120.232 26.08 120.152 26.008 120.088 25.96C119.608 25.56 119.6 25.144 120.064 24.712C120.768 24.056 121.36 23.256 121.84 22.312C121.952 22.088 121.944 21.864 121.816 21.64C121.576 21.192 121.344 20.704 121.12 20.176C120.912 19.648 120.72 19.072 120.544 18.448C120.48 18.256 120.488 18.08 120.568 17.92C120.648 17.76 120.784 17.648 120.976 17.584L121.36 17.44C121.584 17.36 121.776 17.368 121.936 17.464C122.112 17.56 122.232 17.72 122.296 17.944C122.328 18.024 122.352 18.104 122.368 18.184C122.384 18.264 122.408 18.344 122.44 18.424C122.568 18.792 122.712 18.976 122.872 18.976C123.032 18.96 123.152 18.76 123.232 18.376C123.312 18.024 123.384 17.664 123.448 17.296C123.512 16.912 123.568 16.512 123.616 16.096C123.648 15.856 123.6 15.664 123.472 15.52C123.344 15.376 123.16 15.304 122.92 15.304H121.6C121.28 15.304 121.056 15.216 120.928 15.04C120.816 14.864 120.816 14.624 120.928 14.32C121.216 13.568 121.504 12.8 121.792 12.016C122.08 11.232 122.368 10.408 122.656 9.544C122.752 9.272 122.736 9.048 122.608 8.872C122.48 8.696 122.264 8.608 121.96 8.608H121.384C121.16 8.608 120.984 8.544 120.856 8.416C120.728 8.288 120.664 8.112 120.664 7.888L120.64 7.384C120.64 7.16 120.704 6.984 120.832 6.856C120.96 6.728 121.136 6.664 121.36 6.664H124.6C124.904 6.664 125.112 6.752 125.224 6.928C125.352 7.104 125.368 7.328 125.272 7.6C124.984 8.512 124.688 9.4 124.384 10.264C124.08 11.112 123.768 11.96 123.448 12.808C123.368 13 123.368 13.16 123.448 13.288C123.528 13.4 123.68 13.456 123.904 13.456C124.016 13.44 124.112 13.432 124.192 13.432C124.288 13.432 124.368 13.432 124.432 13.432C124.48 13.416 124.528 13.416 124.576 13.432C124.624 13.432 124.672 13.432 124.72 13.432L125.152 13.528C125.328 13.576 125.464 13.672 125.56 13.816C125.656 13.944 125.696 14.096 125.68 14.272C125.408 17.088 124.952 19.432 124.312 21.304C124.2 21.544 124.24 21.776 124.432 22C125.296 22.912 126.248 23.528 127.288 23.848C128.488 24.232 129.76 24.424 131.104 24.424L133.936 24.4C134.576 24.4 134.784 24.72 134.56 25.36C134.528 25.44 134.504 25.512 134.488 25.576C134.488 25.64 134.472 25.712 134.44 25.792C134.328 26.192 134.08 26.392 133.696 26.392H130.96C127.984 26.392 125.664 25.712 124 24.352C123.776 24.176 123.552 24.104 123.328 24.136C123.12 24.152 122.936 24.288 122.776 24.544C122.328 25.184 121.848 25.752 121.336 26.248C121.176 26.376 121.008 26.432 120.832 26.416C120.656 26.4 120.488 26.32 120.328 26.176ZM116.008 26.656C115.992 26.624 115.984 26.624 115.984 26.656L116.008 26.68V26.656ZM113.872 12.304C113.68 11.856 113.472 11.464 113.248 11.128C113.088 10.824 113.096 10.544 113.272 10.288C113.688 9.648 114.056 8.96 114.376 8.224C114.696 7.488 114.968 6.688 115.192 5.824C115.256 5.6 115.368 5.44 115.528 5.344C115.688 5.248 115.88 5.232 116.104 5.296L116.56 5.416C116.768 5.48 116.92 5.592 117.016 5.752C117.112 5.912 117.128 6.096 117.064 6.304C117.048 6.352 117.032 6.4 117.016 6.448C117 6.496 116.984 6.544 116.968 6.592C116.888 6.88 116.904 7.112 117.016 7.288C117.144 7.464 117.36 7.552 117.664 7.552H119.536C119.76 7.552 119.936 7.616 120.064 7.744C120.192 7.872 120.256 8.048 120.256 8.272V8.872C120.256 9.096 120.192 9.272 120.064 9.4C119.936 9.528 119.76 9.592 119.536 9.592H116.32C116 9.592 115.776 9.736 115.648 10.024C115.584 10.152 115.528 10.272 115.48 10.384C115.432 10.48 115.376 10.584 115.312 10.696C115.136 11.016 115.096 11.272 115.192 11.464C115.288 11.656 115.52 11.752 115.888 11.752H118.984C119.208 11.752 119.384 11.816 119.512 11.944C119.64 12.072 119.704 12.248 119.704 12.472V13.024C119.704 13.248 119.64 13.424 119.512 13.552C119.384 13.68 119.208 13.744 118.984 13.744H118.6C118.376 13.744 118.2 13.808 118.072 13.936C117.944 14.064 117.88 14.24 117.88 14.464V15.784C117.88 16.008 117.944 16.184 118.072 16.312C118.2 16.44 118.376 16.504 118.6 16.504H119.536C119.76 16.504 119.936 16.568 120.064 16.696C120.192 16.824 120.256 17 120.256 17.224V17.776C120.256 18 120.192 18.176 120.064 18.304C119.936 18.432 119.76 18.496 119.536 18.496H118.6C118.376 18.496 118.2 18.56 118.072 18.688C117.944 18.816 117.88 18.992 117.88 19.216V21.256C117.88 21.64 117.976 21.888 118.168 22C118.36 22.096 118.616 22.032 118.936 21.808L119.176 21.64C119.416 21.464 119.632 21.416 119.824 21.496C120.016 21.56 120.168 21.728 120.28 22C120.296 22.08 120.336 22.184 120.4 22.312C120.56 22.712 120.472 23.024 120.136 23.248C119.656 23.6 119.224 23.912 118.84 24.184C118.472 24.456 118.152 24.688 117.88 24.88C117.56 25.104 117.288 25.304 117.064 25.48C116.856 25.656 116.688 25.8 116.56 25.912C116.48 25.96 116.416 26.008 116.368 26.056C116.32 26.12 116.272 26.176 116.224 26.224C116.048 26.432 115.888 26.424 115.744 26.2C115.68 26.104 115.616 26.008 115.552 25.912C115.504 25.832 115.448 25.752 115.384 25.672C115.064 25.288 115.072 24.888 115.408 24.472C115.776 24.008 115.96 23.448 115.96 22.792V19.216C115.96 18.992 115.896 18.816 115.768 18.688C115.64 18.56 115.464 18.496 115.24 18.496H114.208C113.984 18.496 113.808 18.432 113.68 18.304C113.552 18.176 113.488 18 113.488 17.776V17.224C113.488 17 113.552 16.824 113.68 16.696C113.808 16.568 113.984 16.504 114.208 16.504H115.24C115.464 16.504 115.64 16.44 115.768 16.312C115.896 16.184 115.96 16.008 115.96 15.784V14.464C115.96 14.24 115.896 14.064 115.768 13.936C115.64 13.808 115.464 13.744 115.24 13.744H115.192C114.968 13.744 114.792 13.68 114.664 13.552C114.536 13.424 114.472 13.248 114.472 13.024V12.424C114.472 12.296 114.448 12.232 114.4 12.232C114.368 12.216 114.32 12.248 114.256 12.328C114.112 12.52 113.984 12.512 113.872 12.304ZM129.832 23.824H129.4C129.176 23.824 129 23.76 128.872 23.632C128.744 23.504 128.68 23.328 128.68 23.104V22.024C128.68 21.8 128.616 21.624 128.488 21.496C128.36 21.368 128.184 21.304 127.96 21.304H126.112C125.888 21.304 125.712 21.24 125.584 21.112C125.456 20.984 125.392 20.808 125.392 20.584V20.176C125.392 19.952 125.456 19.776 125.584 19.648C125.712 19.52 125.888 19.456 126.112 19.456H127.984C128.192 19.456 128.36 19.392 128.488 19.264C128.616 19.136 128.68 18.968 128.68 18.76C128.68 18.552 128.616 18.384 128.488 18.256C128.36 18.128 128.192 18.064 127.984 18.064H126.688C126.464 18.064 126.288 18 126.16 17.872C126.032 17.744 125.968 17.568 125.968 17.344V16.936C125.968 16.712 126.032 16.536 126.16 16.408C126.288 16.28 126.464 16.216 126.688 16.216H128.032C128.224 16.216 128.376 16.16 128.488 16.048C128.616 15.92 128.68 15.752 128.68 15.544C128.68 15.352 128.616 15.2 128.488 15.088C128.376 14.96 128.224 14.896 128.032 14.896H126.904C126.68 14.896 126.504 14.832 126.376 14.704C126.248 14.576 126.184 14.4 126.184 14.176V13.864C126.184 13.64 126.248 13.464 126.376 13.336C126.504 13.208 126.68 13.144 126.904 13.144H128.008C128.456 13.144 128.68 12.912 128.68 12.448C128.68 12 128.456 11.776 128.008 11.776H125.968C125.744 11.776 125.568 11.712 125.44 11.584C125.312 11.456 125.248 11.28 125.248 11.056V10.72C125.248 10.496 125.312 10.32 125.44 10.192C125.568 10.064 125.744 10 125.968 10H128.032C128.224 10 128.376 9.944 128.488 9.832C128.616 9.704 128.68 9.536 128.68 9.328C128.68 9.136 128.616 8.984 128.488 8.872C128.376 8.744 128.224 8.68 128.032 8.68H126.904C126.68 8.68 126.504 8.616 126.376 8.488C126.248 8.36 126.184 8.184 126.184 7.96V7.624C126.184 7.4 126.248 7.224 126.376 7.096C126.504 6.968 126.68 6.904 126.904 6.904H127.96C128.184 6.904 128.36 6.84 128.488 6.712C128.616 6.584 128.68 6.408 128.68 6.184V5.8C128.68 5.576 128.744 5.4 128.872 5.272C129 5.144 129.176 5.08 129.4 5.08H129.832C130.056 5.08 130.232 5.144 130.36 5.272C130.488 5.4 130.552 5.576 130.552 5.8V6.184C130.552 6.408 130.616 6.584 130.744 6.712C130.872 6.84 131.048 6.904 131.272 6.904H133.12C133.344 6.904 133.52 6.968 133.648 7.096C133.776 7.224 133.84 7.4 133.84 7.624V9.544C133.84 9.848 133.992 10 134.296 10C134.6 10 134.752 10.152 134.752 10.456V11.32C134.752 11.624 134.6 11.776 134.296 11.776C133.992 11.776 133.84 11.928 133.84 12.232V14.176C133.84 14.4 133.776 14.576 133.648 14.704C133.52 14.832 133.344 14.896 133.12 14.896H131.224C131.016 14.896 130.848 14.96 130.72 15.088C130.608 15.2 130.552 15.352 130.552 15.544C130.552 15.992 130.776 16.216 131.224 16.216H133.072C133.296 16.216 133.472 16.28 133.6 16.408C133.728 16.536 133.792 16.712 133.792 16.936V17.344C133.792 17.568 133.728 17.744 133.6 17.872C133.472 18 133.296 18.064 133.072 18.064H131.248C131.04 18.064 130.872 18.128 130.744 18.256C130.616 18.384 130.552 18.552 130.552 18.76C130.552 18.968 130.616 19.136 130.744 19.264C130.872 19.392 131.04 19.456 131.248 19.456H133.456C133.68 19.456 133.856 19.52 133.984 19.648C134.112 19.776 134.176 19.952 134.176 20.176V20.584C134.176 20.808 134.112 20.984 133.984 21.112C133.856 21.24 133.68 21.304 133.456 21.304H131.272C131.048 21.304 130.872 21.368 130.744 21.496C130.616 21.624 130.552 21.8 130.552 22.024V23.104C130.552 23.328 130.488 23.504 130.36 23.632C130.232 23.76 130.056 23.824 129.832 23.824ZM132.04 12.448C132.04 12 131.816 11.776 131.368 11.776H131.248C130.784 11.776 130.552 12 130.552 12.448C130.552 12.912 130.784 13.144 131.248 13.144H131.368C131.816 13.144 132.04 12.912 132.04 12.448ZM132.04 9.328C132.04 9.136 131.976 8.984 131.848 8.872C131.736 8.744 131.584 8.68 131.392 8.68H131.224C131.016 8.68 130.848 8.744 130.72 8.872C130.608 8.984 130.552 9.136 130.552 9.328C130.552 9.776 130.776 10 131.224 10H131.392C131.584 10 131.736 9.944 131.848 9.832C131.976 9.704 132.04 9.536 132.04 9.328ZM152.848 26.752H151.984C151.76 26.752 151.584 26.688 151.456 26.56C151.328 26.432 151.264 26.256 151.264 26.032V23.896C151.264 23.672 151.2 23.496 151.072 23.368C150.944 23.24 150.768 23.176 150.544 23.176H147.016C146.792 23.176 146.616 23.112 146.488 22.984C146.36 22.856 146.296 22.68 146.296 22.456V21.832C146.296 21.608 146.36 21.432 146.488 21.304C146.616 21.176 146.792 21.112 147.016 21.112H150.544C150.768 21.112 150.944 21.048 151.072 20.92C151.2 20.792 151.264 20.616 151.264 20.392V19.912C151.264 19.688 151.2 19.512 151.072 19.384C150.944 19.256 150.768 19.192 150.544 19.192H147.952C147.728 19.192 147.552 19.128 147.424 19C147.296 18.872 147.232 18.696 147.232 18.472V17.848C147.232 17.624 147.296 17.448 147.424 17.32C147.552 17.192 147.728 17.128 147.952 17.128H150.544C150.768 17.128 150.944 17.064 151.072 16.936C151.2 16.808 151.264 16.632 151.264 16.408V15.88C151.264 15.656 151.328 15.48 151.456 15.352C151.584 15.224 151.76 15.16 151.984 15.16H152.848C153.072 15.16 153.248 15.224 153.376 15.352C153.504 15.48 153.568 15.656 153.568 15.88V16.408C153.568 16.632 153.632 16.808 153.76 16.936C153.888 17.064 154.064 17.128 154.288 17.128H156.808C157.032 17.128 157.208 17.192 157.336 17.32C157.464 17.448 157.528 17.624 157.528 17.848V18.472C157.528 18.696 157.464 18.872 157.336 19C157.208 19.128 157.032 19.192 156.808 19.192H154.288C154.064 19.192 153.888 19.256 153.76 19.384C153.632 19.512 153.568 19.688 153.568 19.912V20.392C153.568 20.616 153.632 20.792 153.76 20.92C153.888 21.048 154.064 21.112 154.288 21.112H157.816C158.04 21.112 158.216 21.176 158.344 21.304C158.472 21.432 158.536 21.608 158.536 21.832V22.456C158.536 22.68 158.472 22.856 158.344 22.984C158.216 23.112 158.04 23.176 157.816 23.176H154.288C154.064 23.176 153.888 23.24 153.76 23.368C153.632 23.496 153.568 23.672 153.568 23.896V26.032C153.568 26.256 153.504 26.432 153.376 26.56C153.248 26.688 153.072 26.752 152.848 26.752ZM144.448 12.52L144.184 12.424C143.944 12.344 143.784 12.216 143.704 12.04C143.64 11.864 143.664 11.664 143.776 11.44C143.984 11.056 144.168 10.688 144.328 10.336C144.488 9.984 144.624 9.648 144.736 9.328C144.816 9.136 144.936 9 145.096 8.92C145.256 8.824 145.44 8.808 145.648 8.872L145.984 8.968C146.224 9.032 146.384 9.16 146.464 9.352C146.56 9.528 146.552 9.728 146.44 9.952C146.248 10.368 146.048 10.768 145.84 11.152C145.648 11.52 145.456 11.872 145.264 12.208C145.072 12.528 144.8 12.632 144.448 12.52ZM138.76 12.088C138.52 11.416 138.224 10.784 137.872 10.192C137.744 9.968 137.712 9.76 137.776 9.568C137.84 9.376 138 9.24 138.256 9.16L138.52 9.064C138.856 8.936 139.136 9.032 139.36 9.352C139.808 10.072 140.176 10.8 140.464 11.536C140.544 11.712 140.544 11.88 140.464 12.04C140.384 12.2 140.248 12.32 140.056 12.4L139.744 12.544C139.52 12.624 139.32 12.624 139.144 12.544C138.968 12.464 138.84 12.312 138.76 12.088ZM142.408 26.752H141.76C141.536 26.752 141.36 26.688 141.232 26.56C141.104 26.432 141.04 26.256 141.04 26.032V21.544C141.04 19.848 140.608 19.736 139.744 21.208C139.44 21.688 139.144 22.128 138.856 22.528C138.632 22.848 138.408 22.984 138.184 22.936C137.96 22.888 137.76 22.688 137.584 22.336C137.536 22.224 137.48 22.12 137.416 22.024C137.368 21.912 137.312 21.8 137.248 21.688C137.168 21.528 137.136 21.368 137.152 21.208C137.168 21.048 137.24 20.904 137.368 20.776C137.656 20.456 137.936 20.12 138.208 19.768C138.48 19.4 138.752 19 139.024 18.568C139.248 18.216 139.456 17.864 139.648 17.512C139.856 17.16 140.048 16.8 140.224 16.432C140.352 16.144 140.352 15.912 140.224 15.736C140.112 15.544 139.896 15.448 139.576 15.448H138.088C137.864 15.448 137.688 15.384 137.56 15.256C137.432 15.128 137.368 14.952 137.368 14.728V14.176C137.368 13.952 137.432 13.776 137.56 13.648C137.688 13.52 137.864 13.456 138.088 13.456H140.32C140.544 13.456 140.72 13.392 140.848 13.264C140.976 13.136 141.04 12.96 141.04 12.736V8.896C141.04 8.64 140.968 8.448 140.824 8.32C140.68 8.192 140.488 8.144 140.248 8.176C139.464 8.256 138.824 8.304 138.328 8.32C138.152 8.336 137.992 8.288 137.848 8.176C137.72 8.064 137.632 7.912 137.584 7.72C137.568 7.688 137.552 7.648 137.536 7.6C137.52 7.552 137.504 7.504 137.488 7.456C137.408 7.184 137.416 6.968 137.512 6.808C137.608 6.648 137.792 6.552 138.064 6.52C139.52 6.392 140.816 6.24 141.952 6.064C143.104 5.888 144.12 5.688 145 5.464C145.144 5.416 145.288 5.424 145.432 5.488C145.592 5.536 145.712 5.632 145.792 5.776L146.152 6.304C146.312 6.56 146.352 6.784 146.272 6.976C146.192 7.168 146.008 7.304 145.72 7.384C145.4 7.464 145.072 7.536 144.736 7.6C144.416 7.648 144.088 7.696 143.752 7.744C143.336 7.824 143.128 8.064 143.128 8.464V12.736C143.128 12.96 143.192 13.136 143.32 13.264C143.448 13.392 143.624 13.456 143.848 13.456H145.768C145.976 13.456 146.08 13.56 146.08 13.768C146.08 14.008 146.184 14.088 146.392 14.008C147.688 13.64 148.904 13.136 150.04 12.496C150.28 12.368 150.408 12.2 150.424 11.992C150.456 11.784 150.384 11.576 150.208 11.368C149.472 10.552 148.84 9.656 148.312 8.68C148.232 8.568 148.136 8.48 148.024 8.416C147.912 8.336 147.792 8.296 147.664 8.296H147.568C147.2 8.296 147.016 8.112 147.016 7.744V6.952C147.016 6.728 147.08 6.552 147.208 6.424C147.336 6.296 147.512 6.232 147.736 6.232C150.376 6.232 152.456 6.232 153.976 6.232C155.496 6.216 156.464 6.2 156.88 6.184C156.992 6.184 157.128 6.216 157.288 6.28L157.888 6.592C158.08 6.688 158.208 6.824 158.272 7C158.336 7.176 158.312 7.352 158.2 7.528C157.352 9.08 156.296 10.416 155.032 11.536C154.792 11.76 154.68 11.976 154.696 12.184C154.712 12.392 154.856 12.568 155.128 12.712C155.592 12.952 156.072 13.168 156.568 13.36C157.064 13.552 157.584 13.728 158.128 13.888C158.8 14.08 158.944 14.48 158.56 15.088L158.272 15.592C158.064 15.96 157.768 16.08 157.384 15.952C156.552 15.68 155.76 15.368 155.008 15.016C154.272 14.648 153.568 14.232 152.896 13.768C152.768 13.688 152.632 13.648 152.488 13.648C152.344 13.632 152.208 13.664 152.08 13.744C151.344 14.176 150.6 14.576 149.848 14.944C149.096 15.296 148.32 15.608 147.52 15.88C147.344 15.96 147.168 15.96 146.992 15.88C146.832 15.8 146.704 15.672 146.608 15.496C146.56 15.416 146.512 15.336 146.464 15.256C146.416 15.16 146.36 15.072 146.296 14.992C146.232 14.912 146.176 14.88 146.128 14.896C146.096 14.896 146.08 14.952 146.08 15.064C146.08 15.32 145.96 15.448 145.72 15.448H143.896C143.672 15.448 143.536 15.496 143.488 15.592C143.44 15.688 143.504 15.816 143.68 15.976C143.76 16.056 143.84 16.144 143.92 16.24C144.016 16.336 144.12 16.432 144.232 16.528L145.624 17.92L146.152 18.472C146.456 18.808 146.456 19.144 146.152 19.48L145.744 19.888C145.552 20.096 145.352 20.184 145.144 20.152C144.936 20.12 144.744 19.992 144.568 19.768C144.504 19.688 144.44 19.608 144.376 19.528C144.312 19.432 144.24 19.336 144.16 19.24C143.856 18.872 143.608 18.728 143.416 18.808C143.224 18.872 143.128 19.144 143.128 19.624V26.032C143.128 26.256 143.064 26.432 142.936 26.56C142.808 26.688 142.632 26.752 142.408 26.752ZM152.92 10.624C153.48 10.192 153.96 9.776 154.36 9.376C154.648 9.056 154.736 8.8 154.624 8.608C154.528 8.4 154.264 8.296 153.832 8.296H151.432C151.032 8.296 150.776 8.4 150.664 8.608C150.552 8.8 150.624 9.048 150.88 9.352C151.216 9.752 151.616 10.16 152.08 10.576C152.352 10.816 152.632 10.832 152.92 10.624ZM171.28 26.128C171.216 26.016 171.152 25.912 171.088 25.816C171.04 25.72 170.984 25.624 170.92 25.528C170.744 25.288 170.672 25.064 170.704 24.856C170.752 24.632 170.912 24.456 171.184 24.328C172.928 23.4 174.344 22.208 175.432 20.752C175.592 20.528 175.608 20.288 175.48 20.032C175.192 19.44 174.928 18.832 174.688 18.208C174.448 17.568 174.224 16.912 174.016 16.24C173.776 15.424 173.432 15.384 172.984 16.12L172.768 16.48C172.592 16.72 172.4 16.84 172.192 16.84C171.984 16.84 171.776 16.728 171.568 16.504C171.568 16.504 171.552 16.488 171.52 16.456C171.296 16.232 171.112 16.152 170.968 16.216C170.824 16.28 170.744 16.472 170.728 16.792C170.696 18.136 170.656 19.304 170.608 20.296C170.576 21.288 170.536 22.12 170.488 22.792C170.36 24.264 170.16 25.184 169.888 25.552C169.856 25.584 169.84 25.6 169.84 25.6C169.488 26.08 169 26.36 168.376 26.44C167.976 26.488 167.488 26.512 166.912 26.512H166.36C165.992 26.48 165.784 26.288 165.736 25.936C165.704 25.84 165.672 25.736 165.64 25.624C165.624 25.528 165.6 25.424 165.568 25.312C165.392 24.672 165.616 24.368 166.24 24.4C166.48 24.416 166.688 24.432 166.864 24.448C167.04 24.448 167.184 24.448 167.296 24.448C167.568 24.448 167.76 24.368 167.872 24.208C167.888 24.176 167.904 24.152 167.92 24.136C167.936 24.12 167.952 24.096 167.968 24.064C168.256 23.568 168.448 21 168.544 16.36C168.56 16.136 168.496 15.96 168.352 15.832C168.224 15.688 168.048 15.616 167.824 15.616H166.744C166.52 15.616 166.344 15.68 166.216 15.808C166.088 15.936 166.024 16.112 166.024 16.336C166.008 16.832 165.976 17.336 165.928 17.848C165.896 18.344 165.848 18.848 165.784 19.36C165.704 20.016 165.584 20.656 165.424 21.28C165.264 21.904 165.056 22.52 164.8 23.128C164.368 24.136 163.784 25.104 163.048 26.032C162.872 26.24 162.688 26.336 162.496 26.32C162.304 26.32 162.12 26.232 161.944 26.056C161.864 25.976 161.784 25.904 161.704 25.84C161.624 25.792 161.544 25.736 161.464 25.672C161.272 25.496 161.16 25.304 161.128 25.096C161.096 24.904 161.16 24.704 161.32 24.496C161.944 23.712 162.44 22.88 162.808 22C163.512 20.256 163.864 18.088 163.864 15.496V11.608C163.864 11.384 163.8 11.208 163.672 11.08C163.544 10.952 163.368 10.888 163.144 10.888H162.016C161.792 10.888 161.616 10.824 161.488 10.696C161.36 10.568 161.296 10.392 161.296 10.168V9.448C161.296 9.224 161.36 9.048 161.488 8.92C161.616 8.792 161.792 8.728 162.016 8.728H165.136C165.408 8.728 165.608 8.648 165.736 8.488C165.864 8.328 165.888 8.112 165.808 7.84C165.728 7.6 165.64 7.352 165.544 7.096C165.448 6.84 165.344 6.576 165.232 6.304C165.152 6.08 165.152 5.88 165.232 5.704C165.312 5.512 165.472 5.384 165.712 5.32L166.408 5.152C166.584 5.104 166.744 5.112 166.888 5.176C167.032 5.24 167.144 5.36 167.224 5.536C167.4 5.92 167.552 6.28 167.68 6.616C167.824 6.952 167.944 7.264 168.04 7.552C168.168 8 168.008 8.288 167.56 8.416L167.416 8.464C166.888 8.64 166.896 8.728 167.44 8.728H170.968C171.192 8.728 171.368 8.792 171.496 8.92C171.624 9.048 171.688 9.224 171.688 9.448V10.168C171.688 10.392 171.624 10.568 171.496 10.696C171.368 10.824 171.192 10.888 170.968 10.888H166.744C166.52 10.888 166.344 10.952 166.216 11.08C166.088 11.208 166.024 11.384 166.024 11.608V12.784C166.024 13.008 166.088 13.184 166.216 13.312C166.344 13.44 166.52 13.504 166.744 13.504H170.656C170.72 13.504 170.76 13.528 170.776 13.576C170.776 13.608 170.776 13.632 170.776 13.648C170.792 13.664 170.8 13.688 170.8 13.72L170.776 14.488V14.728C170.76 14.808 170.768 14.856 170.8 14.872C170.832 14.888 170.864 14.864 170.896 14.8C171.648 13.744 172.312 12.384 172.888 10.72C173.416 9.136 173.848 7.488 174.184 5.776C174.216 5.568 174.304 5.408 174.448 5.296C174.608 5.184 174.792 5.144 175 5.176L175.936 5.32C176.16 5.352 176.32 5.448 176.416 5.608C176.528 5.768 176.56 5.96 176.512 6.184C176.432 6.584 176.344 6.976 176.248 7.36C176.168 7.728 176.088 8.096 176.008 8.464C175.944 8.736 175.976 8.952 176.104 9.112C176.232 9.272 176.432 9.352 176.704 9.352H182.08C182.304 9.352 182.48 9.416 182.608 9.544C182.736 9.672 182.8 9.848 182.8 10.072V10.792C182.8 11.016 182.736 11.192 182.608 11.32C182.48 11.448 182.304 11.512 182.08 11.512H181.744C181.552 11.512 181.392 11.568 181.264 11.68C181.136 11.792 181.056 11.936 181.024 12.112C180.464 15.216 179.616 17.864 178.48 20.056C178.368 20.328 178.384 20.576 178.528 20.8C179.488 22.16 180.696 23.28 182.152 24.16C182.424 24.32 182.576 24.512 182.608 24.736C182.64 24.96 182.552 25.192 182.344 25.432C182.264 25.528 182.184 25.624 182.104 25.72C182.04 25.832 181.968 25.944 181.888 26.056C181.776 26.232 181.632 26.344 181.456 26.392C181.28 26.44 181.104 26.408 180.928 26.296C179.6 25.496 178.464 24.512 177.52 23.344C177.344 23.12 177.144 23 176.92 22.984C176.712 22.968 176.504 23.072 176.296 23.296C175.752 23.888 175.144 24.448 174.472 24.976C173.816 25.488 173.08 25.968 172.264 26.416C172.072 26.528 171.888 26.552 171.712 26.488C171.536 26.44 171.392 26.32 171.28 26.128ZM177.592 16.576C178.056 15.296 178.416 13.888 178.672 12.352C178.72 12.096 178.68 11.896 178.552 11.752C178.424 11.592 178.232 11.512 177.976 11.512L175.936 11.56C175.68 11.56 175.488 11.64 175.36 11.8C175.232 11.944 175.2 12.144 175.264 12.4C175.552 13.888 175.928 15.28 176.392 16.576C176.568 17.04 176.768 17.272 176.992 17.272C177.232 17.272 177.432 17.04 177.592 16.576Z" fill="white" fill-opacity="0.85"/>
</svg>
