<svg width="184" height="32" viewBox="0 0 184 32" fill="none" xmlns="http://www.w3.org/2000/svg">
<g clip-path="url(#clip0_473_10284)">
<path d="M20.533 4.12325H17.0738V3.54388C17.0738 2.33401 16.4092 1.20935 15.3527 0.612942L14.3473 0.0506119C13.8361 -0.239074 13.1886 -0.05163 12.8989 0.45958C12.6092 0.970789 12.7967 1.61832 13.3079 1.90801L14.3133 2.47034C14.7052 2.69186 14.9437 3.10083 14.9437 3.54388V4.12325H11.4675C8.0765 4.12325 5.33301 6.88378 5.33301 10.2578V19.5959C5.33301 25.2703 9.95093 29.9053 15.6424 29.9053H16.3751C22.0496 29.9053 26.6845 25.2873 26.6845 19.5959V10.2578C26.6675 6.88378 23.924 4.12325 20.533 4.12325ZM24.5374 19.6129C24.5374 24.1115 20.8738 27.7922 16.3581 27.7922H15.6254C11.1267 27.7922 7.44601 24.1286 7.44601 19.6129V14.9268H24.5204V19.6129H24.5374ZM24.5374 12.7968H16.2388V6.25329H20.5159C22.7312 6.25329 24.5204 8.05956 24.5204 10.2578V12.7968H24.5374Z" fill="white" fill-opacity="0.85"/>
<path d="M15.7002 6.2002V12.7437H7.4186V10.2047C7.4186 8.00647 9.20783 6.2002 11.4231 6.2002H15.7002Z" fill="#E2730E"/>
</g>
<path d="M52.432 26.68H51.472C51.248 26.68 51.072 26.616 50.944 26.488C50.816 26.36 50.752 26.184 50.752 25.96V23.368C50.752 23.144 50.688 22.968 50.56 22.84C50.432 22.712 50.256 22.648 50.032 22.648H42.256C42.032 22.648 41.856 22.584 41.728 22.456C41.6 22.328 41.536 22.152 41.536 21.928V21.208C41.536 20.984 41.6 20.808 41.728 20.68C41.856 20.552 42.032 20.488 42.256 20.488H50.032C50.256 20.488 50.432 20.424 50.56 20.296C50.688 20.168 50.752 19.992 50.752 19.768V19.408C50.752 19.184 50.688 19.008 50.56 18.88C50.432 18.752 50.256 18.688 50.032 18.688H44.392C44.168 18.688 43.992 18.624 43.864 18.496C43.736 18.368 43.672 18.192 43.672 17.968V9.784C43.672 9.56 43.736 9.384 43.864 9.256C43.992 9.128 44.168 9.064 44.392 9.064H46.456C46.824 9.064 47.064 8.968 47.176 8.776C47.288 8.584 47.248 8.336 47.056 8.032C46.928 7.824 46.784 7.624 46.624 7.432C46.48 7.224 46.328 7.016 46.168 6.808C45.992 6.584 45.92 6.376 45.952 6.184C46 5.976 46.152 5.808 46.408 5.68L47.08 5.368C47.416 5.208 47.704 5.264 47.944 5.536C48.36 6.048 48.728 6.528 49.048 6.976C49.384 7.408 49.664 7.832 49.888 8.248C49.968 8.376 49.984 8.496 49.936 8.608C49.904 8.704 49.824 8.784 49.696 8.848C49.456 8.992 49.472 9.064 49.744 9.064H53.968C54.24 9.064 54.44 8.96 54.568 8.752C54.904 8.272 55.208 7.784 55.48 7.288C55.768 6.792 56.032 6.288 56.272 5.776C56.352 5.6 56.472 5.472 56.632 5.392C56.792 5.312 56.968 5.304 57.16 5.368L58.192 5.704C58.464 5.784 58.632 5.928 58.696 6.136C58.776 6.328 58.736 6.544 58.576 6.784C58.448 6.976 58.32 7.168 58.192 7.36C58.064 7.552 57.936 7.736 57.808 7.912C57.568 8.264 57.504 8.544 57.616 8.752C57.728 8.96 57.992 9.064 58.408 9.064H59.848C60.072 9.064 60.248 9.128 60.376 9.256C60.504 9.384 60.568 9.56 60.568 9.784V17.968C60.568 18.192 60.504 18.368 60.376 18.496C60.248 18.624 60.072 18.688 59.848 18.688H53.872C53.648 18.688 53.472 18.752 53.344 18.88C53.216 19.008 53.152 19.184 53.152 19.408V19.768C53.152 19.992 53.216 20.168 53.344 20.296C53.472 20.424 53.648 20.488 53.872 20.488H61.792C62.016 20.488 62.192 20.552 62.32 20.68C62.448 20.808 62.512 20.984 62.512 21.208V21.928C62.512 22.152 62.448 22.328 62.32 22.456C62.192 22.584 62.016 22.648 61.792 22.648H53.872C53.648 22.648 53.472 22.712 53.344 22.84C53.216 22.968 53.152 23.144 53.152 23.368V25.96C53.152 26.184 53.088 26.36 52.96 26.488C52.832 26.616 52.656 26.68 52.432 26.68ZM58.192 16.024V15.496C58.192 15.272 58.128 15.096 58 14.968C57.872 14.84 57.696 14.776 57.472 14.776H53.872C53.648 14.776 53.472 14.84 53.344 14.968C53.216 15.096 53.152 15.272 53.152 15.496V16.024C53.152 16.248 53.216 16.424 53.344 16.552C53.472 16.68 53.648 16.744 53.872 16.744H57.472C57.696 16.744 57.872 16.68 58 16.552C58.128 16.424 58.192 16.248 58.192 16.024ZM58.192 12.208V11.704C58.192 11.48 58.128 11.304 58 11.176C57.872 11.048 57.696 10.984 57.472 10.984H53.872C53.648 10.984 53.472 11.048 53.344 11.176C53.216 11.304 53.152 11.48 53.152 11.704V12.208C53.152 12.432 53.216 12.608 53.344 12.736C53.472 12.864 53.648 12.928 53.872 12.928H57.472C57.696 12.928 57.872 12.864 58 12.736C58.128 12.608 58.192 12.432 58.192 12.208ZM50.752 12.208V11.704C50.752 11.48 50.688 11.304 50.56 11.176C50.432 11.048 50.256 10.984 50.032 10.984H46.672C46.448 10.984 46.272 11.048 46.144 11.176C46.016 11.304 45.952 11.48 45.952 11.704V12.208C45.952 12.432 46.016 12.608 46.144 12.736C46.272 12.864 46.448 12.928 46.672 12.928H50.032C50.256 12.928 50.432 12.864 50.56 12.736C50.688 12.608 50.752 12.432 50.752 12.208ZM50.752 16.024V15.496C50.752 15.272 50.688 15.096 50.56 14.968C50.432 14.84 50.256 14.776 50.032 14.776H46.672C46.448 14.776 46.272 14.84 46.144 14.968C46.016 15.096 45.952 15.272 45.952 15.496V16.024C45.952 16.248 46.016 16.424 46.144 16.552C46.272 16.68 46.448 16.744 46.672 16.744H50.032C50.256 16.744 50.432 16.68 50.56 16.552C50.688 16.424 50.752 16.248 50.752 16.024ZM83.656 26.704H82.6C82.2 26.704 82 26.504 82 26.104C82 25.704 81.8 25.504 81.4 25.504H68.344C68.12 25.504 67.944 25.44 67.816 25.312C67.688 25.184 67.624 25.008 67.624 24.784V18.424C67.624 18.2 67.688 18.024 67.816 17.896C67.944 17.768 68.12 17.704 68.344 17.704H69.352C69.576 17.704 69.752 17.768 69.88 17.896C70.008 18.024 70.072 18.2 70.072 18.424V22.504C70.072 22.728 70.136 22.904 70.264 23.032C70.392 23.16 70.568 23.224 70.792 23.224H74.152C74.376 23.224 74.552 23.16 74.68 23.032C74.808 22.904 74.872 22.728 74.872 22.504V16.936C74.872 16.712 74.808 16.536 74.68 16.408C74.552 16.28 74.376 16.216 74.152 16.216H66.448C66.224 16.216 66.048 16.152 65.92 16.024C65.792 15.896 65.728 15.72 65.728 15.496V14.632C65.728 14.408 65.792 14.232 65.92 14.104C66.048 13.976 66.224 13.912 66.448 13.912H74.152C74.376 13.912 74.552 13.848 74.68 13.72C74.808 13.592 74.872 13.416 74.872 13.192V11.512C74.872 11.288 74.808 11.112 74.68 10.984C74.552 10.856 74.376 10.792 74.152 10.792H68.128C67.904 10.792 67.728 10.728 67.6 10.6C67.472 10.472 67.408 10.296 67.408 10.072V9.232C67.408 9.008 67.472 8.832 67.6 8.704C67.728 8.576 67.904 8.512 68.128 8.512H74.152C74.376 8.512 74.552 8.448 74.68 8.32C74.808 8.192 74.872 8.016 74.872 7.792V5.824C74.872 5.6 74.936 5.424 75.064 5.296C75.192 5.168 75.368 5.104 75.592 5.104H76.6C76.824 5.104 77 5.168 77.128 5.296C77.256 5.424 77.32 5.6 77.32 5.824V7.792C77.32 8.016 77.384 8.192 77.512 8.32C77.64 8.448 77.816 8.512 78.04 8.512H84.064C84.288 8.512 84.464 8.576 84.592 8.704C84.72 8.832 84.784 9.008 84.784 9.232V10.072C84.784 10.296 84.72 10.472 84.592 10.6C84.464 10.728 84.288 10.792 84.064 10.792H78.04C77.816 10.792 77.64 10.856 77.512 10.984C77.384 11.112 77.32 11.288 77.32 11.512V13.192C77.32 13.416 77.384 13.592 77.512 13.72C77.64 13.848 77.816 13.912 78.04 13.912H85.624C85.848 13.912 86.024 13.976 86.152 14.104C86.28 14.232 86.344 14.408 86.344 14.632V15.496C86.344 15.72 86.28 15.896 86.152 16.024C86.024 16.152 85.848 16.216 85.624 16.216H78.04C77.816 16.216 77.64 16.28 77.512 16.408C77.384 16.536 77.32 16.712 77.32 16.936V22.504C77.32 22.728 77.384 22.904 77.512 23.032C77.64 23.16 77.816 23.224 78.04 23.224H81.28C81.504 23.224 81.68 23.16 81.808 23.032C81.936 22.904 82 22.728 82 22.504V18.4C82 18.176 82.064 18 82.192 17.872C82.32 17.744 82.496 17.68 82.72 17.68H83.656C83.88 17.68 84.056 17.744 84.184 17.872C84.312 18 84.376 18.176 84.376 18.4V25.984C84.376 26.208 84.312 26.384 84.184 26.512C84.056 26.64 83.88 26.704 83.656 26.704ZM109.792 26.08H94.528C94.304 26.08 94.128 26.016 94 25.888C93.872 25.76 93.808 25.584 93.808 25.36V24.544C93.808 24.32 93.872 24.144 94 24.016C94.128 23.888 94.304 23.824 94.528 23.824H100.48C100.704 23.824 100.88 23.76 101.008 23.632C101.136 23.504 101.2 23.328 101.2 23.104V18.256C101.2 18.032 101.136 17.856 101.008 17.728C100.88 17.6 100.704 17.536 100.48 17.536H96.88C96.48 17.536 96.28 17.336 96.28 16.936C96.28 16.584 96.208 16.576 96.064 16.912C94.832 20.08 93.136 22.728 90.976 24.856C90.8 25.032 90.616 25.104 90.424 25.072C90.232 25.056 90.064 24.952 89.92 24.76C89.824 24.648 89.728 24.544 89.632 24.448C89.552 24.336 89.464 24.224 89.368 24.112C89.048 23.744 89.064 23.392 89.416 23.056C92.024 20.48 93.96 16.88 95.224 12.256C95.304 11.984 95.28 11.768 95.152 11.608C95.024 11.448 94.824 11.368 94.552 11.368H90.544C90.32 11.368 90.144 11.304 90.016 11.176C89.888 11.048 89.824 10.872 89.824 10.648V9.856C89.824 9.632 89.888 9.456 90.016 9.328C90.144 9.2 90.32 9.136 90.544 9.136H95.416C95.592 9.136 95.744 9.088 95.872 8.992C96 8.88 96.08 8.736 96.112 8.56C96.208 8.096 96.296 7.632 96.376 7.168C96.456 6.704 96.536 6.24 96.616 5.776C96.648 5.568 96.736 5.408 96.88 5.296C97.024 5.168 97.2 5.12 97.408 5.152L98.392 5.272C98.616 5.304 98.784 5.4 98.896 5.56C99.008 5.704 99.048 5.888 99.016 6.112C98.936 6.48 98.864 6.848 98.8 7.216C98.736 7.568 98.672 7.92 98.608 8.272C98.544 8.544 98.576 8.76 98.704 8.92C98.832 9.064 99.032 9.136 99.304 9.136H109.408C109.632 9.136 109.808 9.2 109.936 9.328C110.064 9.456 110.128 9.632 110.128 9.856V10.648C110.128 10.872 110.064 11.048 109.936 11.176C109.808 11.304 109.632 11.368 109.408 11.368H98.416C98.064 11.368 97.832 11.544 97.72 11.896C97.608 12.312 97.488 12.728 97.36 13.144C97.248 13.544 97.128 13.944 97 14.344C96.904 14.632 96.912 14.864 97.024 15.04C97.152 15.216 97.368 15.304 97.672 15.304H108.856C109.08 15.304 109.256 15.368 109.384 15.496C109.512 15.624 109.576 15.8 109.576 16.024V16.816C109.576 17.04 109.512 17.216 109.384 17.344C109.256 17.472 109.08 17.536 108.856 17.536H104.296C104.072 17.536 103.896 17.6 103.768 17.728C103.64 17.856 103.576 18.032 103.576 18.256V23.104C103.576 23.328 103.64 23.504 103.768 23.632C103.896 23.76 104.072 23.824 104.296 23.824H109.792C110.016 23.824 110.192 23.888 110.32 24.016C110.448 24.144 110.512 24.32 110.512 24.544V25.36C110.512 25.584 110.448 25.76 110.32 25.888C110.192 26.016 110.016 26.08 109.792 26.08ZM120.328 26.176C120.232 26.08 120.152 26.008 120.088 25.96C119.608 25.56 119.6 25.144 120.064 24.712C120.768 24.056 121.36 23.256 121.84 22.312C121.952 22.088 121.944 21.864 121.816 21.64C121.576 21.192 121.344 20.704 121.12 20.176C120.912 19.648 120.72 19.072 120.544 18.448C120.48 18.256 120.488 18.08 120.568 17.92C120.648 17.76 120.784 17.648 120.976 17.584L121.36 17.44C121.584 17.36 121.776 17.368 121.936 17.464C122.112 17.56 122.232 17.72 122.296 17.944C122.328 18.024 122.352 18.104 122.368 18.184C122.384 18.264 122.408 18.344 122.44 18.424C122.568 18.792 122.712 18.976 122.872 18.976C123.032 18.96 123.152 18.76 123.232 18.376C123.312 18.024 123.384 17.664 123.448 17.296C123.512 16.912 123.568 16.512 123.616 16.096C123.648 15.856 123.6 15.664 123.472 15.52C123.344 15.376 123.16 15.304 122.92 15.304H121.6C121.28 15.304 121.056 15.216 120.928 15.04C120.816 14.864 120.816 14.624 120.928 14.32C121.216 13.568 121.504 12.8 121.792 12.016C122.08 11.232 122.368 10.408 122.656 9.544C122.752 9.272 122.736 9.048 122.608 8.872C122.48 8.696 122.264 8.608 121.96 8.608H121.384C121.16 8.608 120.984 8.544 120.856 8.416C120.728 8.288 120.664 8.112 120.664 7.888L120.64 7.384C120.64 7.16 120.704 6.984 120.832 6.856C120.96 6.728 121.136 6.664 121.36 6.664H124.6C124.904 6.664 125.112 6.752 125.224 6.928C125.352 7.104 125.368 7.328 125.272 7.6C124.984 8.512 124.688 9.4 124.384 10.264C124.08 11.112 123.768 11.96 123.448 12.808C123.368 13 123.368 13.16 123.448 13.288C123.528 13.4 123.68 13.456 123.904 13.456C124.016 13.44 124.112 13.432 124.192 13.432C124.288 13.432 124.368 13.432 124.432 13.432C124.48 13.416 124.528 13.416 124.576 13.432C124.624 13.432 124.672 13.432 124.72 13.432L125.152 13.528C125.328 13.576 125.464 13.672 125.56 13.816C125.656 13.944 125.696 14.096 125.68 14.272C125.408 17.088 124.952 19.432 124.312 21.304C124.2 21.544 124.24 21.776 124.432 22C125.296 22.912 126.248 23.528 127.288 23.848C128.488 24.232 129.76 24.424 131.104 24.424L133.936 24.4C134.576 24.4 134.784 24.72 134.56 25.36C134.528 25.44 134.504 25.512 134.488 25.576C134.488 25.64 134.472 25.712 134.44 25.792C134.328 26.192 134.08 26.392 133.696 26.392H130.96C127.984 26.392 125.664 25.712 124 24.352C123.776 24.176 123.552 24.104 123.328 24.136C123.12 24.152 122.936 24.288 122.776 24.544C122.328 25.184 121.848 25.752 121.336 26.248C121.176 26.376 121.008 26.432 120.832 26.416C120.656 26.4 120.488 26.32 120.328 26.176ZM116.008 26.656C115.992 26.624 115.984 26.624 115.984 26.656L116.008 26.68V26.656ZM113.872 12.304C113.68 11.856 113.472 11.464 113.248 11.128C113.088 10.824 113.096 10.544 113.272 10.288C113.688 9.648 114.056 8.96 114.376 8.224C114.696 7.488 114.968 6.688 115.192 5.824C115.256 5.6 115.368 5.44 115.528 5.344C115.688 5.248 115.88 5.232 116.104 5.296L116.56 5.416C116.768 5.48 116.92 5.592 117.016 5.752C117.112 5.912 117.128 6.096 117.064 6.304C117.048 6.352 117.032 6.4 117.016 6.448C117 6.496 116.984 6.544 116.968 6.592C116.888 6.88 116.904 7.112 117.016 7.288C117.144 7.464 117.36 7.552 117.664 7.552H119.536C119.76 7.552 119.936 7.616 120.064 7.744C120.192 7.872 120.256 8.048 120.256 8.272V8.872C120.256 9.096 120.192 9.272 120.064 9.4C119.936 9.528 119.76 9.592 119.536 9.592H116.32C116 9.592 115.776 9.736 115.648 10.024C115.584 10.152 115.528 10.272 115.48 10.384C115.432 10.48 115.376 10.584 115.312 10.696C115.136 11.016 115.096 11.272 115.192 11.464C115.288 11.656 115.52 11.752 115.888 11.752H118.984C119.208 11.752 119.384 11.816 119.512 11.944C119.64 12.072 119.704 12.248 119.704 12.472V13.024C119.704 13.248 119.64 13.424 119.512 13.552C119.384 13.68 119.208 13.744 118.984 13.744H118.6C118.376 13.744 118.2 13.808 118.072 13.936C117.944 14.064 117.88 14.24 117.88 14.464V15.784C117.88 16.008 117.944 16.184 118.072 16.312C118.2 16.44 118.376 16.504 118.6 16.504H119.536C119.76 16.504 119.936 16.568 120.064 16.696C120.192 16.824 120.256 17 120.256 17.224V17.776C120.256 18 120.192 18.176 120.064 18.304C119.936 18.432 119.76 18.496 119.536 18.496H118.6C118.376 18.496 118.2 18.56 118.072 18.688C117.944 18.816 117.88 18.992 117.88 19.216V21.256C117.88 21.64 117.976 21.888 118.168 22C118.36 22.096 118.616 22.032 118.936 21.808L119.176 21.64C119.416 21.464 119.632 21.416 119.824 21.496C120.016 21.56 120.168 21.728 120.28 22C120.296 22.08 120.336 22.184 120.4 22.312C120.56 22.712 120.472 23.024 120.136 23.248C119.656 23.6 119.224 23.912 118.84 24.184C118.472 24.456 118.152 24.688 117.88 24.88C117.56 25.104 117.288 25.304 117.064 25.48C116.856 25.656 116.688 25.8 116.56 25.912C116.48 25.96 116.416 26.008 116.368 26.056C116.32 26.12 116.272 26.176 116.224 26.224C116.048 26.432 115.888 26.424 115.744 26.2C115.68 26.104 115.616 26.008 115.552 25.912C115.504 25.832 115.448 25.752 115.384 25.672C115.064 25.288 115.072 24.888 115.408 24.472C115.776 24.008 115.96 23.448 115.96 22.792V19.216C115.96 18.992 115.896 18.816 115.768 18.688C115.64 18.56 115.464 18.496 115.24 18.496H114.208C113.984 18.496 113.808 18.432 113.68 18.304C113.552 18.176 113.488 18 113.488 17.776V17.224C113.488 17 113.552 16.824 113.68 16.696C113.808 16.568 113.984 16.504 114.208 16.504H115.24C115.464 16.504 115.64 16.44 115.768 16.312C115.896 16.184 115.96 16.008 115.96 15.784V14.464C115.96 14.24 115.896 14.064 115.768 13.936C115.64 13.808 115.464 13.744 115.24 13.744H115.192C114.968 13.744 114.792 13.68 114.664 13.552C114.536 13.424 114.472 13.248 114.472 13.024V12.424C114.472 12.296 114.448 12.232 114.4 12.232C114.368 12.216 114.32 12.248 114.256 12.328C114.112 12.52 113.984 12.512 113.872 12.304ZM129.832 23.824H129.4C129.176 23.824 129 23.76 128.872 23.632C128.744 23.504 128.68 23.328 128.68 23.104V22.024C128.68 21.8 128.616 21.624 128.488 21.496C128.36 21.368 128.184 21.304 127.96 21.304H126.112C125.888 21.304 125.712 21.24 125.584 21.112C125.456 20.984 125.392 20.808 125.392 20.584V20.176C125.392 19.952 125.456 19.776 125.584 19.648C125.712 19.52 125.888 19.456 126.112 19.456H127.984C128.192 19.456 128.36 19.392 128.488 19.264C128.616 19.136 128.68 18.968 128.68 18.76C128.68 18.552 128.616 18.384 128.488 18.256C128.36 18.128 128.192 18.064 127.984 18.064H126.688C126.464 18.064 126.288 18 126.16 17.872C126.032 17.744 125.968 17.568 125.968 17.344V16.936C125.968 16.712 126.032 16.536 126.16 16.408C126.288 16.28 126.464 16.216 126.688 16.216H128.032C128.224 16.216 128.376 16.16 128.488 16.048C128.616 15.92 128.68 15.752 128.68 15.544C128.68 15.352 128.616 15.2 128.488 15.088C128.376 14.96 128.224 14.896 128.032 14.896H126.904C126.68 14.896 126.504 14.832 126.376 14.704C126.248 14.576 126.184 14.4 126.184 14.176V13.864C126.184 13.64 126.248 13.464 126.376 13.336C126.504 13.208 126.68 13.144 126.904 13.144H128.008C128.456 13.144 128.68 12.912 128.68 12.448C128.68 12 128.456 11.776 128.008 11.776H125.968C125.744 11.776 125.568 11.712 125.44 11.584C125.312 11.456 125.248 11.28 125.248 11.056V10.72C125.248 10.496 125.312 10.32 125.44 10.192C125.568 10.064 125.744 10 125.968 10H128.032C128.224 10 128.376 9.944 128.488 9.832C128.616 9.704 128.68 9.536 128.68 9.328C128.68 9.136 128.616 8.984 128.488 8.872C128.376 8.744 128.224 8.68 128.032 8.68H126.904C126.68 8.68 126.504 8.616 126.376 8.488C126.248 8.36 126.184 8.184 126.184 7.96V7.624C126.184 7.4 126.248 7.224 126.376 7.096C126.504 6.968 126.68 6.904 126.904 6.904H127.96C128.184 6.904 128.36 6.84 128.488 6.712C128.616 6.584 128.68 6.408 128.68 6.184V5.8C128.68 5.576 128.744 5.4 128.872 5.272C129 5.144 129.176 5.08 129.4 5.08H129.832C130.056 5.08 130.232 5.144 130.36 5.272C130.488 5.4 130.552 5.576 130.552 5.8V6.184C130.552 6.408 130.616 6.584 130.744 6.712C130.872 6.84 131.048 6.904 131.272 6.904H133.12C133.344 6.904 133.52 6.968 133.648 7.096C133.776 7.224 133.84 7.4 133.84 7.624V9.544C133.84 9.848 133.992 10 134.296 10C134.6 10 134.752 10.152 134.752 10.456V11.32C134.752 11.624 134.6 11.776 134.296 11.776C133.992 11.776 133.84 11.928 133.84 12.232V14.176C133.84 14.4 133.776 14.576 133.648 14.704C133.52 14.832 133.344 14.896 133.12 14.896H131.224C131.016 14.896 130.848 14.96 130.72 15.088C130.608 15.2 130.552 15.352 130.552 15.544C130.552 15.992 130.776 16.216 131.224 16.216H133.072C133.296 16.216 133.472 16.28 133.6 16.408C133.728 16.536 133.792 16.712 133.792 16.936V17.344C133.792 17.568 133.728 17.744 133.6 17.872C133.472 18 133.296 18.064 133.072 18.064H131.248C131.04 18.064 130.872 18.128 130.744 18.256C130.616 18.384 130.552 18.552 130.552 18.76C130.552 18.968 130.616 19.136 130.744 19.264C130.872 19.392 131.04 19.456 131.248 19.456H133.456C133.68 19.456 133.856 19.52 133.984 19.648C134.112 19.776 134.176 19.952 134.176 20.176V20.584C134.176 20.808 134.112 20.984 133.984 21.112C133.856 21.24 133.68 21.304 133.456 21.304H131.272C131.048 21.304 130.872 21.368 130.744 21.496C130.616 21.624 130.552 21.8 130.552 22.024V23.104C130.552 23.328 130.488 23.504 130.36 23.632C130.232 23.76 130.056 23.824 129.832 23.824ZM132.04 12.448C132.04 12 131.816 11.776 131.368 11.776H131.248C130.784 11.776 130.552 12 130.552 12.448C130.552 12.912 130.784 13.144 131.248 13.144H131.368C131.816 13.144 132.04 12.912 132.04 12.448ZM132.04 9.328C132.04 9.136 131.976 8.984 131.848 8.872C131.736 8.744 131.584 8.68 131.392 8.68H131.224C131.016 8.68 130.848 8.744 130.72 8.872C130.608 8.984 130.552 9.136 130.552 9.328C130.552 9.776 130.776 10 131.224 10H131.392C131.584 10 131.736 9.944 131.848 9.832C131.976 9.704 132.04 9.536 132.04 9.328ZM143.752 26.344C143.56 26.184 143.368 26.048 143.176 25.936C142.952 25.776 142.824 25.592 142.792 25.384C142.76 25.176 142.84 24.968 143.032 24.76C144.488 23.096 145.528 21.016 146.152 18.52C146.472 17.208 146.728 15.8 146.92 14.296C147.112 12.776 147.248 11.16 147.328 9.448C147.344 9.224 147.28 9.048 147.136 8.92C147.008 8.776 146.832 8.704 146.608 8.704H145.624C145.4 8.704 145.224 8.64 145.096 8.512C144.968 8.384 144.904 8.208 144.904 7.984V7.288C144.904 7.064 144.968 6.888 145.096 6.76C145.224 6.632 145.4 6.568 145.624 6.568H154.888C155.16 6.568 155.36 6.648 155.488 6.808C155.616 6.968 155.648 7.184 155.584 7.456C155.408 8.208 155.224 8.944 155.032 9.664C154.84 10.384 154.648 11.104 154.456 11.824C154.376 12.096 154.4 12.32 154.528 12.496C154.672 12.656 154.88 12.736 155.152 12.736H156.184C156.216 12.736 156.248 12.736 156.28 12.736C156.312 12.736 156.344 12.728 156.376 12.712L156.472 12.688C156.6 12.656 156.712 12.664 156.808 12.712L157.504 13C157.68 13.064 157.8 13.168 157.864 13.312C157.944 13.456 157.968 13.616 157.936 13.792C157.248 16.816 156.2 19.36 154.792 21.424C154.68 21.584 154.632 21.752 154.648 21.928C154.664 22.104 154.752 22.256 154.912 22.384C155.376 22.752 155.864 23.096 156.376 23.416C156.888 23.736 157.424 24.032 157.984 24.304C158.304 24.448 158.48 24.632 158.512 24.856C158.56 25.08 158.472 25.328 158.248 25.6C158.168 25.68 158.096 25.768 158.032 25.864C157.968 25.96 157.896 26.056 157.816 26.152C157.704 26.312 157.568 26.416 157.408 26.464C157.248 26.512 157.08 26.496 156.904 26.416C156.264 26.112 155.648 25.776 155.056 25.408C154.48 25.04 153.936 24.632 153.424 24.184C153.264 24.04 153.088 23.976 152.896 23.992C152.72 23.992 152.552 24.064 152.392 24.208C151.928 24.64 151.448 25.04 150.952 25.408C150.456 25.776 149.944 26.12 149.416 26.44C149.24 26.536 149.064 26.56 148.888 26.512C148.728 26.48 148.584 26.384 148.456 26.224C148.392 26.144 148.328 26.072 148.264 26.008C148.216 25.944 148.152 25.872 148.072 25.792C147.576 25.264 147.632 24.824 148.24 24.472C148.736 24.184 149.2 23.88 149.632 23.56C150.064 23.24 150.48 22.896 150.88 22.528C151.024 22.4 151.104 22.248 151.12 22.072C151.136 21.896 151.08 21.728 150.952 21.568C150.456 20.928 150.016 20.288 149.632 19.648C148.928 18.496 148.4 18.568 148.048 19.864C147.36 22.296 146.264 24.424 144.76 26.248C144.632 26.408 144.472 26.496 144.28 26.512C144.104 26.528 143.928 26.472 143.752 26.344ZM153.352 19.6C154.104 18.432 154.72 17.12 155.2 15.664C155.28 15.392 155.256 15.176 155.128 15.016C155 14.84 154.8 14.752 154.528 14.752H152.392C152.088 14.752 151.872 14.664 151.744 14.488C151.632 14.312 151.616 14.088 151.696 13.816C151.904 13.144 152.104 12.464 152.296 11.776C152.488 11.088 152.672 10.36 152.848 9.592C152.928 9.32 152.896 9.104 152.752 8.944C152.624 8.784 152.424 8.704 152.152 8.704H150.208C149.76 8.704 149.52 8.928 149.488 9.376C149.456 10.08 149.408 10.768 149.344 11.44C149.296 12.096 149.24 12.744 149.176 13.384C149.16 13.416 149.152 13.464 149.152 13.528C149.168 13.576 149.184 13.624 149.2 13.672C149.952 15.944 150.968 17.928 152.248 19.624C152.424 19.848 152.608 19.96 152.8 19.96C153.008 19.944 153.192 19.824 153.352 19.6ZM139.36 22.744H138.784C138.56 22.744 138.384 22.68 138.256 22.552C138.128 22.424 138.064 22.248 138.064 22.024V7.936C138.064 7.712 138.128 7.536 138.256 7.408C138.384 7.28 138.56 7.216 138.784 7.216H143.56C143.784 7.216 143.96 7.28 144.088 7.408C144.216 7.536 144.28 7.712 144.28 7.936V19.888C144.28 20.112 144.216 20.288 144.088 20.416C143.96 20.544 143.784 20.608 143.56 20.608H140.8C140.576 20.608 140.4 20.672 140.272 20.8C140.144 20.928 140.08 21.104 140.08 21.328V22.024C140.08 22.248 140.016 22.424 139.888 22.552C139.76 22.68 139.584 22.744 139.36 22.744ZM142.264 17.728V10.096C142.264 9.872 142.2 9.696 142.072 9.568C141.944 9.44 141.768 9.376 141.544 9.376H140.8C140.576 9.376 140.4 9.44 140.272 9.568C140.144 9.696 140.08 9.872 140.08 10.096V17.728C140.08 17.952 140.144 18.128 140.272 18.256C140.4 18.384 140.576 18.448 140.8 18.448H141.544C141.768 18.448 141.944 18.384 142.072 18.256C142.2 18.128 142.264 17.952 142.264 17.728ZM175.624 19.696C175.224 18.544 174.68 17.248 173.992 15.808C173.784 15.36 173.896 15.032 174.328 14.824L174.832 14.584C175.248 14.408 175.56 14.512 175.768 14.896C176.168 15.664 176.52 16.392 176.824 17.08C177.128 17.752 177.392 18.392 177.616 19C177.696 19.176 177.696 19.344 177.616 19.504C177.536 19.664 177.408 19.784 177.232 19.864L176.632 20.152C176.408 20.248 176.2 20.256 176.008 20.176C175.832 20.096 175.704 19.936 175.624 19.696ZM177.04 26.656H176.752C176.56 26.656 176.448 26.56 176.416 26.368C176.384 26.224 176.344 26.072 176.296 25.912C176.248 25.752 176.192 25.584 176.128 25.408C176.016 25.088 176.016 24.832 176.128 24.64C176.256 24.448 176.496 24.352 176.848 24.352L177.976 24.376C178.376 24.376 178.608 24.344 178.672 24.28C178.736 24.232 178.768 24.128 178.768 23.968V13.168C178.768 12.944 178.704 12.768 178.576 12.64C178.448 12.512 178.272 12.448 178.048 12.448H174.112C173.888 12.448 173.712 12.384 173.584 12.256C173.456 12.128 173.392 11.952 173.392 11.728V11.032C173.392 10.808 173.456 10.632 173.584 10.504C173.712 10.376 173.888 10.312 174.112 10.312H178.048C178.272 10.312 178.448 10.248 178.576 10.12C178.704 9.992 178.768 9.816 178.768 9.592V6.184C178.768 5.96 178.832 5.784 178.96 5.656C179.088 5.528 179.264 5.464 179.488 5.464H180.28C180.504 5.464 180.68 5.528 180.808 5.656C180.936 5.784 181 5.96 181 6.184V9.592C181 9.816 181.064 9.992 181.192 10.12C181.32 10.248 181.496 10.312 181.72 10.312H182.176C182.4 10.312 182.576 10.376 182.704 10.504C182.832 10.632 182.896 10.808 182.896 11.032V11.728C182.896 11.952 182.832 12.128 182.704 12.256C182.576 12.384 182.4 12.448 182.176 12.448H181.72C181.496 12.448 181.32 12.512 181.192 12.64C181.064 12.768 181 12.944 181 13.168V23.968C181 25.168 180.672 25.912 180.016 26.2C179.456 26.504 178.464 26.656 177.04 26.656ZM171.856 26.608H171.208C170.984 26.608 170.808 26.544 170.68 26.416C170.552 26.288 170.488 26.112 170.488 25.888V15.16C170.488 14.84 170.432 14.664 170.32 14.632C170.208 14.584 170.056 14.688 169.864 14.944C169.848 14.96 169.84 14.968 169.84 14.968C169.648 15.208 169.44 15.32 169.216 15.304C169.008 15.288 168.816 15.152 168.64 14.896C168.56 14.8 168.48 14.704 168.4 14.608C168.336 14.496 168.264 14.384 168.184 14.272C168.056 14.128 167.992 13.968 167.992 13.792C168.008 13.616 168.072 13.464 168.184 13.336C169.016 12.296 169.76 11.152 170.416 9.904C171.072 8.656 171.632 7.28 172.096 5.776C172.256 5.328 172.552 5.168 172.984 5.296L173.728 5.488C173.952 5.552 174.104 5.664 174.184 5.824C174.28 5.984 174.288 6.176 174.208 6.4C173.984 7.072 173.736 7.728 173.464 8.368C173.208 9.008 172.936 9.64 172.648 10.264C172.6 10.36 172.576 10.464 172.576 10.576V25.888C172.576 26.112 172.512 26.288 172.384 26.416C172.256 26.544 172.08 26.608 171.856 26.608ZM163.552 26.704H162.928C162.704 26.704 162.528 26.64 162.4 26.512C162.272 26.384 162.208 26.208 162.208 25.984V6.808C162.208 6.584 162.272 6.408 162.4 6.28C162.528 6.152 162.704 6.088 162.928 6.088H167.152C167.216 6.088 167.296 6.072 167.392 6.04H167.416C167.528 6.008 167.624 6.016 167.704 6.064L168.592 6.544C168.736 6.624 168.84 6.744 168.904 6.904C168.968 7.048 168.976 7.208 168.928 7.384C168.64 8.328 168.352 9.248 168.064 10.144C167.776 11.04 167.472 11.928 167.152 12.808C167.072 13.032 167.104 13.256 167.248 13.48C168.256 14.968 168.76 16.568 168.76 18.28C168.76 19.784 168.448 20.768 167.824 21.232C167.328 21.6 166.624 21.784 165.712 21.784L165.4 21.76C165.176 21.76 165.064 21.656 165.064 21.448C165.032 21.24 165 21.04 164.968 20.848C164.936 20.64 164.88 20.44 164.8 20.248C164.672 19.912 164.792 19.744 165.16 19.744C165.256 19.76 165.344 19.768 165.424 19.768C165.52 19.768 165.608 19.768 165.688 19.768H165.784C166.008 19.72 166.192 19.648 166.336 19.552C166.464 19.424 166.56 19.232 166.624 18.976C166.688 18.736 166.72 18.424 166.72 18.04C166.72 16.616 166.224 15.176 165.232 13.72C165.088 13.528 165.056 13.312 165.136 13.072C165.36 12.368 165.568 11.664 165.76 10.96C165.968 10.24 166.16 9.512 166.336 8.776L166.408 8.464C166.456 8.256 166.376 8.152 166.168 8.152H164.992C164.768 8.152 164.592 8.216 164.464 8.344C164.336 8.472 164.272 8.648 164.272 8.872V25.984C164.272 26.208 164.208 26.384 164.08 26.512C163.952 26.64 163.776 26.704 163.552 26.704Z" fill="white" fill-opacity="0.85"/>
<defs>
<clipPath id="clip0_473_10284">
<rect width="32" height="32" fill="white"/>
</clipPath>
</defs>
</svg>
