<svg width="32" height="32" viewBox="0 0 32 32" fill="none" xmlns="http://www.w3.org/2000/svg">
<path d="M1.99933 15.9996C2.00098 12.7697 3.11915 9.63967 5.1644 7.13982C7.20966 4.63998 10.0562 2.92404 13.2218 2.28273C16.3874 1.64141 19.6774 2.11416 22.5343 3.62088C25.3913 5.1276 27.6395 7.57564 28.8981 10.5502C30.3433 13.9712 30.3704 17.8262 28.9734 21.2671C27.5764 24.708 24.8697 27.4531 21.4487 28.8984C18.0277 30.3436 14.1728 30.3707 10.7318 28.9737C7.29088 27.5767 4.54584 24.8699 3.10058 21.449C2.37059 19.7251 1.99603 17.8717 1.99933 15.9996ZM28.2493 15.9996C28.2477 13.1735 27.2691 10.4348 25.4794 8.2476C23.6897 6.06037 21.199 4.55904 18.4291 3.99796C15.6593 3.43687 12.7806 3.85053 10.2808 5.16886C7.78104 6.48718 5.81383 8.62912 4.71246 11.2318C3.44795 14.2253 3.42439 17.5984 4.64695 20.6093C5.86951 23.6201 8.23805 26.022 11.2315 27.2865C14.225 28.551 17.5982 28.5745 20.609 27.352C23.6198 26.1294 26.0217 23.7609 27.2862 20.7674C27.9249 19.2592 28.2524 17.6375 28.2493 15.9996Z" fill="#262626"/>
<path d="M15.9995 13.9492C15.7303 13.9492 15.4638 14.0022 15.2152 14.1052C14.9665 14.2082 14.7406 14.3592 14.5503 14.5495C14.36 14.7398 14.2091 14.9657 14.1061 15.2143C14.0031 15.463 13.9501 15.7295 13.9501 15.9986C13.9501 16.2677 14.0031 16.5342 14.1061 16.7829C14.2091 17.0315 14.36 17.2574 14.5503 17.4477C14.7406 17.638 14.9665 17.789 15.2152 17.892C15.4638 17.995 15.7303 18.048 15.9995 18.048C16.2686 18.048 16.5351 17.995 16.7837 17.892C17.0324 17.789 17.2583 17.638 17.4486 17.4477C17.6389 17.2574 17.7898 17.0315 17.8928 16.7829C17.9958 16.5342 18.0488 16.2677 18.0488 15.9986C18.0488 15.7295 17.9958 15.463 17.8928 15.2143C17.7898 14.9657 17.6389 14.7398 17.4486 14.5495C17.2583 14.3592 17.0324 14.2082 16.7837 14.1052C16.5351 14.0022 16.2686 13.9492 15.9995 13.9492Z" fill="#262626"/>
<path d="M23.6097 14.7284C23.6098 14.5074 23.6935 14.2947 23.844 14.133C23.9945 13.9712 24.2006 13.8723 24.4209 13.8562C24.6413 13.8401 24.8595 13.908 25.0319 14.0462C25.2043 14.1843 25.3181 14.3826 25.3503 14.6012C25.4187 15.0639 25.4531 15.531 25.4531 15.9987C25.4531 16.2307 25.3609 16.4533 25.1968 16.6174C25.0327 16.7815 24.8102 16.8737 24.5781 16.8737C24.3461 16.8737 24.1235 16.7815 23.9594 16.6174C23.7953 16.4533 23.7031 16.2307 23.7031 15.9987C23.7032 15.6169 23.6752 15.2357 23.6194 14.858C23.6129 14.8151 23.6097 14.7718 23.6097 14.7284ZM15.1244 7.41992C15.1244 7.18786 15.2166 6.9653 15.3807 6.8012C15.5448 6.63711 15.7673 6.54492 15.9994 6.54492C17.7819 6.54463 19.5283 7.04827 21.0369 7.99776C22.5456 8.94724 23.7551 10.3039 24.5259 11.9112C24.5767 12.0149 24.6065 12.1276 24.6135 12.2429C24.6206 12.3582 24.6047 12.4737 24.5669 12.5828C24.529 12.6919 24.47 12.7924 24.3931 12.8786C24.3162 12.9648 24.223 13.0349 24.1189 13.0849C24.0148 13.1349 23.9018 13.1637 23.7865 13.1699C23.6712 13.176 23.5558 13.1592 23.447 13.1205C23.3382 13.0818 23.2381 13.022 23.1525 12.9444C23.067 12.8669 22.9976 12.7732 22.9484 12.6687C22.3203 11.3586 21.3346 10.2529 20.1051 9.47898C18.8755 8.70509 17.4522 8.29462 15.9994 8.29492C15.7673 8.29492 15.5448 8.20273 15.3807 8.03864C15.2166 7.87455 15.1244 7.65199 15.1244 7.41992Z" fill="#E2730E"/>
<path d="M6.54555 15.9987C6.54555 15.7667 6.63774 15.5441 6.80183 15.38C6.96592 15.2159 7.18848 15.1237 7.42055 15.1237C7.65261 15.1237 7.87517 15.2159 8.03927 15.38C8.20336 15.5441 8.29555 15.7667 8.29555 15.9987C8.29571 18.0419 9.10741 20.0012 10.5521 21.4459C11.9968 22.8906 13.9562 23.7023 15.9993 23.7025C16.2314 23.7025 16.4539 23.7947 16.618 23.9588C16.7821 24.1229 16.8743 24.3454 16.8743 24.5775C16.8743 24.8096 16.7821 25.0321 16.618 25.1962C16.4539 25.3603 16.2314 25.4525 15.9993 25.4525C13.492 25.4524 11.0875 24.4564 9.31458 22.6835C7.54167 20.9106 6.54563 18.506 6.54555 15.9987ZM15.1243 11.1094C15.1243 10.8773 15.2165 10.6547 15.3806 10.4907C15.5447 10.3266 15.7672 10.2344 15.9993 10.2344C19.1777 10.2344 21.7637 12.8203 21.7637 15.9987C21.7637 16.2308 21.6715 16.4534 21.5074 16.6175C21.3433 16.7816 21.1207 16.8737 20.8887 16.8737C20.6566 16.8737 20.434 16.7816 20.27 16.6175C20.1059 16.4534 20.0137 16.2308 20.0137 15.9987C20.0125 14.9344 19.5892 13.914 18.8366 13.1614C18.084 12.4088 17.0636 11.9855 15.9993 11.9844C15.7672 11.9844 15.5447 11.8922 15.3806 11.7281C15.2165 11.564 15.1243 11.3414 15.1243 11.1094Z" fill="#262626"/>
<path d="M10.2353 16C10.2353 15.7679 10.3275 15.5454 10.4916 15.3813C10.6557 15.2172 10.8782 15.125 11.1103 15.125C11.3424 15.125 11.5649 15.2172 11.729 15.3813C11.8931 15.5454 11.9853 15.7679 11.9853 16C11.9866 17.0644 12.4099 18.0847 13.1626 18.8373C13.9152 19.5899 14.9356 20.0132 16 20.0144C16.2321 20.0144 16.4546 20.1066 16.6187 20.2707C16.7828 20.4348 16.875 20.6573 16.875 20.8894C16.875 21.1214 16.7828 21.344 16.6187 21.5081C16.4546 21.6722 16.2321 21.7644 16 21.7644C12.8216 21.7644 10.2353 19.1784 10.2353 16Z" fill="#262626"/>
</svg>
