<svg width="368" height="32" viewBox="0 0 368 32" fill="none" xmlns="http://www.w3.org/2000/svg">
<g clip-path="url(#clip0_1401_13409)">
<path d="M59.9997 15.9663C59.3011 15.9663 58.7217 15.404 58.7217 14.6883V10.7009C58.7217 10.0022 59.284 9.42285 59.9997 9.42285C60.6984 9.42285 61.2777 9.98518 61.2777 10.7009V14.6883C61.2777 15.404 60.6984 15.9663 59.9997 15.9663Z" fill="#E2730E"/>
<path d="M64.533 4.12325H61.0738V3.54388C61.0738 2.33401 60.4092 1.20935 59.3527 0.612942L58.3473 0.0506119C57.8361 -0.239074 57.1886 -0.05163 56.8989 0.45958C56.6092 0.970789 56.7967 1.61832 57.3079 1.90801L58.3133 2.47034C58.7052 2.69186 58.9437 3.10083 58.9437 3.54388V4.12325H55.4675C52.0765 4.12325 49.333 6.88378 49.333 10.2578V19.5959C49.333 25.2703 53.9509 29.9052 59.6424 29.9052H60.3751C66.0496 29.9052 70.6845 25.2873 70.6845 19.5959V10.2578C70.6675 6.88378 67.924 4.12325 64.533 4.12325ZM68.5374 19.6129C68.5374 24.1115 64.8738 27.7922 60.3581 27.7922H59.6254C55.1267 27.7922 51.463 24.1286 51.463 19.6129V10.2578C51.463 8.04252 53.2693 6.25329 55.4675 6.25329H64.533C66.7482 6.25329 68.5374 8.05956 68.5374 10.2578V19.6129Z" fill="white" fill-opacity="0.36"/>
</g>
<path d="M88.9 15.4L88.7 15.64C88.58 15.8267 88.44 15.8467 88.28 15.7C87.9467 15.46 87.52 15.1733 87 14.84C86.7467 14.6933 86.4933 14.5533 86.24 14.42C86 14.2733 85.76 14.1333 85.52 14C85.3067 13.8667 85.2733 13.7133 85.42 13.54L85.58 13.32C85.7 13.2 85.8267 13.18 85.96 13.26C86.2133 13.4067 86.4733 13.5533 86.74 13.7C87.0067 13.8333 87.2733 13.98 87.54 14.14C87.7933 14.2867 88.0267 14.4333 88.24 14.58C88.4533 14.7133 88.6533 14.8467 88.84 14.98C89 15.1 89.02 15.24 88.9 15.4ZM86.34 24.74L86.02 24.5C85.86 24.38 85.8333 24.2467 85.94 24.1C86.1667 23.7267 86.3933 23.3267 86.62 22.9C86.86 22.46 87.1133 21.9867 87.38 21.48C87.6333 20.9733 87.8733 20.4733 88.1 19.98C88.3267 19.4733 88.5533 18.9733 88.78 18.48C88.8867 18.24 89.04 18.2 89.24 18.36L89.48 18.56C89.6 18.6533 89.6267 18.7667 89.56 18.9C89.12 19.9133 88.6667 20.8933 88.2 21.84C87.7467 22.7867 87.2733 23.7133 86.78 24.62C86.6733 24.8067 86.5267 24.8467 86.34 24.74ZM86.4 8.18L86.56 8.02C86.6667 7.88667 86.7867 7.86667 86.92 7.96C87.2267 8.13333 87.52 8.31333 87.8 8.5C88.0933 8.68667 88.3933 8.87333 88.7 9.06C89.2333 9.42 89.7067 9.76667 90.12 10.1C90.28 10.2333 90.2867 10.3733 90.14 10.52L89.92 10.78C89.7867 10.94 89.64 10.9533 89.48 10.82C89.1333 10.5 88.68 10.14 88.12 9.74C87.84 9.54 87.56 9.35333 87.28 9.18C87 8.99333 86.7267 8.82 86.46 8.66C86.2467 8.52667 86.2267 8.36667 86.4 8.18ZM93.24 21.06H99.52C99.72 21.06 99.82 20.96 99.82 20.76V19.62C99.82 19.42 99.72 19.32 99.52 19.32H93.24C93.04 19.32 92.94 19.42 92.94 19.62V20.76C92.94 20.96 93.04 21.06 93.24 21.06ZM99.52 16.86H93.24C93.04 16.86 92.94 16.96 92.94 17.16V18.26C92.94 18.46 93.04 18.56 93.24 18.56H99.52C99.72 18.56 99.82 18.46 99.82 18.26V17.16C99.82 16.96 99.72 16.86 99.52 16.86ZM100.72 16.36V24.12C100.72 24.4267 100.68 24.6467 100.6 24.78C100.507 24.94 100.36 25.0467 100.16 25.1C99.7867 25.22 98.9667 25.28 97.7 25.28C97.54 25.28 97.44 25.2 97.4 25.04L97.34 24.86C97.2333 24.5933 97.3133 24.46 97.58 24.46L98.64 24.5C98.8267 24.5 98.9867 24.5 99.12 24.5C99.2667 24.5 99.3733 24.4933 99.44 24.48C99.48 24.48 99.5067 24.4733 99.52 24.46L99.62 24.44C99.7133 24.4 99.7667 24.34 99.78 24.26L99.8 24.18C99.8133 24.1667 99.82 24.14 99.82 24.1V22.14C99.82 21.94 99.72 21.84 99.52 21.84H93.24C93.04 21.84 92.94 21.94 92.94 22.14V24.96C92.94 25.16 92.84 25.26 92.64 25.26H92.34C92.14 25.26 92.04 25.16 92.04 24.96V16.36C92.04 16.16 92.14 16.06 92.34 16.06H100.42C100.62 16.06 100.72 16.16 100.72 16.36ZM93.1 11.76V13.32C93.1 13.52 93.2 13.62 93.4 13.62H95.94C96.14 13.62 96.24 13.52 96.24 13.32V11.76C96.24 11.56 96.14 11.46 95.94 11.46H93.4C93.2 11.46 93.1 11.56 93.1 11.76ZM99.44 9.14H93.4C93.2 9.14 93.1 9.24 93.1 9.44V10.4C93.1 10.6 93.2 10.7 93.4 10.7H96.78C96.98 10.7 97.08 10.8 97.08 11V13.32C97.08 13.52 97.18 13.62 97.38 13.62H99.44C99.64 13.62 99.74 13.52 99.74 13.32V9.44C99.74 9.24 99.64 9.14 99.44 9.14ZM100.92 13.62H102.42C102.62 13.62 102.72 13.72 102.72 13.92V16.38C102.72 16.58 102.62 16.68 102.42 16.68H102.12C101.92 16.68 101.82 16.58 101.82 16.38V14.72C101.82 14.52 101.72 14.42 101.52 14.42H91.26C91.06 14.42 90.96 14.52 90.96 14.72V16.38C90.96 16.58 90.86 16.68 90.66 16.68H90.36C90.16 16.68 90.06 16.58 90.06 16.38V13.92C90.06 13.72 90.16 13.62 90.36 13.62H91.92C92.12 13.62 92.22 13.52 92.22 13.32V8.64C92.22 8.44 92.32 8.34 92.52 8.34H100.32C100.52 8.34 100.62 8.44 100.62 8.64V13.32C100.62 13.52 100.72 13.62 100.92 13.62ZM113.56 9.52V9.8C113.56 10 113.46 10.1 113.26 10.1H106.42C106.22 10.1 106.12 10 106.12 9.8V9.52C106.12 9.32 106.22 9.22 106.42 9.22H113.26C113.46 9.22 113.56 9.32 113.56 9.52ZM113.78 22.42L113.5 22.52C113.287 22.5867 113.16 22.52 113.12 22.32C113.067 22.1733 113.02 22.0267 112.98 21.88C112.94 21.72 112.887 21.5533 112.82 21.38C112.78 21.2067 112.667 21.14 112.48 21.18C111.827 21.3133 111.233 21.4333 110.7 21.54C110.18 21.6467 109.72 21.74 109.32 21.82C108.893 21.9133 108.52 22 108.2 22.08C107.88 22.1467 107.607 22.2067 107.38 22.26C107.153 22.3133 106.96 22.3667 106.8 22.42C106.64 22.46 106.513 22.4933 106.42 22.52L106.22 22.6C106.087 22.6533 105.993 22.6133 105.94 22.48L105.88 22.24C105.88 22.2267 105.873 22.22 105.86 22.22C105.86 22.22 105.86 22.2133 105.86 22.2L105.78 21.98C105.753 21.9133 105.747 21.8533 105.76 21.8C105.787 21.7333 105.82 21.6733 105.86 21.62C105.953 21.5267 106.033 21.42 106.1 21.3C106.167 21.1667 106.24 21.0267 106.32 20.88C106.4 20.72 106.473 20.5467 106.54 20.36C106.62 20.1733 106.72 19.9067 106.84 19.56C106.973 19.2 107.133 18.7533 107.32 18.22C107.467 17.7533 107.613 17.2667 107.76 16.76C107.907 16.2533 108.047 15.72 108.18 15.16C108.22 14.92 108.12 14.8 107.88 14.8H105.7C105.5 14.8 105.4 14.7 105.4 14.5V14.22C105.4 14.02 105.5 13.92 105.7 13.92H113.62C113.82 13.92 113.92 14.02 113.92 14.22V14.5C113.92 14.7 113.82 14.8 113.62 14.8H109.48C109.333 14.8 109.233 14.8733 109.18 15.02C108.913 16.0867 108.62 17.1067 108.3 18.08C107.98 19.04 107.633 19.9733 107.26 20.88C107.193 21.0267 107.187 21.14 107.24 21.22C107.307 21.3 107.427 21.32 107.6 21.28L112.12 20.38C112.227 20.3533 112.3 20.3067 112.34 20.24C112.38 20.1733 112.38 20.0933 112.34 20C112.033 19.0933 111.693 18.1867 111.32 17.28C111.227 17.0533 111.293 16.92 111.52 16.88L111.74 16.82C111.9 16.78 112.013 16.84 112.08 17C112.44 17.8533 112.8 18.7533 113.16 19.7C113.32 20.1533 113.467 20.5733 113.6 20.96C113.733 21.3467 113.853 21.7067 113.96 22.04C114 22.2267 113.94 22.3533 113.78 22.42ZM122.54 12.5V12.78C122.473 14.78 122.4 16.4867 122.32 17.9C122.253 19.3133 122.173 20.4467 122.08 21.3C121.893 23.0067 121.647 24.0267 121.34 24.36C121.327 24.3733 121.32 24.3867 121.32 24.4C121.133 24.6 120.947 24.74 120.76 24.82C120.533 24.9133 120.287 24.9667 120.02 24.98C119.407 24.9933 118.58 24.9733 117.54 24.92C117.38 24.9067 117.28 24.8133 117.24 24.64C117.24 24.56 117.22 24.4867 117.18 24.42C117.1 24.14 117.193 24.0067 117.46 24.02C117.687 24.0333 117.9 24.04 118.1 24.04C118.3 24.0533 118.493 24.0667 118.68 24.08H119.7H119.74C120.073 24.12 120.32 24.04 120.48 23.84L120.52 23.8C120.787 23.5067 121 22.58 121.16 21.02C121.24 20.2333 121.313 19.2133 121.38 17.96C121.46 16.6933 121.533 15.1867 121.6 13.44C121.627 13.2267 121.527 13.12 121.3 13.12H118.44C118.267 13.12 118.167 13.2133 118.14 13.4C118.02 15.7067 117.687 17.8933 117.14 19.96C116.58 21.9867 115.633 23.68 114.3 25.04C114.193 25.16 114.08 25.16 113.96 25.04C113.933 24.9867 113.873 24.9333 113.78 24.88L113.58 24.74C113.447 24.66 113.433 24.5533 113.54 24.42C114.807 23.1933 115.713 21.6 116.26 19.64C116.793 17.7333 117.12 15.6667 117.24 13.44C117.267 13.2267 117.167 13.12 116.94 13.12H114.48C114.28 13.12 114.18 13.02 114.18 12.82V12.52C114.18 12.32 114.28 12.22 114.48 12.22H117.02C117.193 12.22 117.293 12.1267 117.32 11.94C117.36 10.66 117.38 9.42 117.38 8.22C117.38 8.02 117.48 7.92 117.68 7.92H117.98C118.18 7.92 118.28 8.02 118.28 8.22L118.26 8.78C118.26 9.3 118.253 9.82 118.24 10.34C118.24 10.86 118.233 11.38 118.22 11.9C118.193 12.1133 118.293 12.22 118.52 12.22H122.26C122.447 12.22 122.54 12.3133 122.54 12.5ZM140.84 8.92V14.86C140.84 15.06 140.74 15.16 140.54 15.16H127.56C127.36 15.16 127.26 15.06 127.26 14.86V9.04C127.26 8.86667 127.347 8.76667 127.52 8.74C127.933 8.67333 128.347 8.6 128.76 8.52C129.187 8.44 129.613 8.36 130.04 8.28C130.907 8.12 131.633 7.94 132.22 7.74C132.367 7.7 132.48 7.74 132.56 7.86L132.72 8.08C132.88 8.29333 132.827 8.44667 132.56 8.54C131.28 8.88667 129.907 9.16667 128.44 9.38C128.267 9.40667 128.18 9.50667 128.18 9.68V11.02C128.18 11.22 128.28 11.32 128.48 11.32H132.56C132.76 11.32 132.86 11.42 132.86 11.62V11.84C132.86 12.04 132.76 12.14 132.56 12.14H128.48C128.28 12.14 128.18 12.24 128.18 12.44V14.02C128.18 14.22 128.28 14.32 128.48 14.32H139.62C139.82 14.32 139.92 14.22 139.92 14.02V12.52C139.92 12.32 139.82 12.22 139.62 12.22H135.56C135.36 12.22 135.26 12.12 135.26 11.92V11.7C135.26 11.5 135.36 11.4 135.56 11.4H139.62C139.82 11.4 139.92 11.3 139.92 11.1V9.76C139.92 9.56 139.82 9.46 139.62 9.46H135.16C134.96 9.46 134.86 9.36 134.86 9.16V8.92C134.86 8.72 134.96 8.62 135.16 8.62H140.54C140.74 8.62 140.84 8.72 140.84 8.92ZM138.04 21.62L137.9 21.8C137.767 21.96 137.62 21.9733 137.46 21.84C137.327 21.7333 137.18 21.6267 137.02 21.52C136.873 21.4 136.713 21.2733 136.54 21.14C136.353 21.02 136.167 20.9 135.98 20.78C135.807 20.66 135.627 20.54 135.44 20.42C135.24 20.3133 135.22 20.1667 135.38 19.98L135.48 19.86C135.6 19.74 135.727 19.72 135.86 19.8C136.047 19.92 136.24 20.04 136.44 20.16C136.64 20.28 136.84 20.4067 137.04 20.54C137.227 20.66 137.393 20.7733 137.54 20.88C137.7 20.9867 137.847 21.0933 137.98 21.2C138.167 21.32 138.187 21.46 138.04 21.62ZM137.98 18.46L137.86 18.62C137.727 18.78 137.58 18.7933 137.42 18.66C137.3 18.5667 137.167 18.4667 137.02 18.36C136.887 18.2533 136.74 18.1467 136.58 18.04C136.407 17.92 136.233 17.8133 136.06 17.72C135.9 17.6133 135.733 17.5067 135.56 17.4C135.467 17.3333 135.413 17.26 135.4 17.18C135.387 17.0867 135.42 17 135.5 16.92L135.6 16.82C135.707 16.6867 135.827 16.6667 135.96 16.76C136.147 16.8667 136.333 16.98 136.52 17.1C136.707 17.2067 136.893 17.32 137.08 17.44C137.24 17.5467 137.387 17.6533 137.52 17.76C137.667 17.8533 137.807 17.9467 137.94 18.04C138.1 18.16 138.113 18.3 137.98 18.46ZM128.72 23.56L131.9 22.8C132.033 22.7733 132.1 22.8333 132.1 22.98V23.18V23.2V23.38C132.127 23.5 132.073 23.5733 131.94 23.6C131.473 23.72 131.053 23.8333 130.68 23.94C130.307 24.0333 129.973 24.12 129.68 24.2L128.24 24.58L127.54 24.8C127.527 24.8133 127.513 24.82 127.5 24.82L127.36 24.9C127.253 24.94 127.173 24.9133 127.12 24.82L127.02 24.56L127 24.54L126.88 24.34C126.813 24.2067 126.84 24.1 126.96 24.02C127.053 23.9533 127.14 23.8667 127.22 23.76C127.38 23.5733 127.46 23.3 127.46 22.94V16.2C127.46 16 127.56 15.9 127.76 15.9H128.06C128.26 15.9 128.36 16 128.36 16.2V23.26C128.36 23.5 128.48 23.6 128.72 23.56ZM129.52 19.94L129.62 19.84C129.727 19.7333 129.847 19.7133 129.98 19.78C130.167 19.8867 130.353 20 130.54 20.12C130.727 20.2267 130.92 20.34 131.12 20.46C131.28 20.58 131.427 20.6933 131.56 20.8C131.707 20.8933 131.84 20.9867 131.96 21.08C132.12 21.2 132.14 21.34 132.02 21.5L131.9 21.64C131.78 21.8 131.64 21.82 131.48 21.7C131.36 21.6067 131.227 21.5067 131.08 21.4C130.933 21.2933 130.773 21.18 130.6 21.06C130.413 20.9533 130.233 20.8467 130.06 20.74C129.9 20.62 129.74 20.5067 129.58 20.4C129.367 20.2667 129.347 20.1133 129.52 19.94ZM129.76 16.98L129.86 16.86C129.967 16.7533 130.087 16.74 130.22 16.82C130.393 16.9267 130.567 17.0333 130.74 17.14C130.927 17.2333 131.113 17.34 131.3 17.46C131.46 17.5667 131.607 17.6667 131.74 17.76C131.887 17.8533 132.02 17.9467 132.14 18.04C132.207 18.0933 132.24 18.16 132.24 18.24C132.253 18.3067 132.233 18.3733 132.18 18.44L132.02 18.62C131.9 18.78 131.76 18.8 131.6 18.68C131.48 18.5867 131.353 18.4933 131.22 18.4C131.087 18.2933 130.94 18.18 130.78 18.06C130.607 17.9533 130.44 17.8533 130.28 17.76C130.12 17.6533 129.967 17.5467 129.82 17.44C129.607 17.3067 129.587 17.1533 129.76 16.98ZM134.52 23.48L138.1 22.6C138.233 22.56 138.3 22.6067 138.3 22.74L138.32 22.96V23.14C138.32 23.26 138.26 23.3467 138.14 23.4C137.633 23.5467 137.173 23.6733 136.76 23.78C136.36 23.8867 136.007 23.9867 135.7 24.08L134.18 24.5L133.44 24.72C133.413 24.7333 133.4 24.74 133.4 24.74L133.24 24.82C133.133 24.86 133.047 24.8267 132.98 24.72L132.9 24.5C132.9 24.4867 132.893 24.48 132.88 24.48C132.88 24.48 132.88 24.4733 132.88 24.46L132.78 24.28C132.713 24.16 132.74 24.0533 132.86 23.96C132.927 23.92 132.993 23.86 133.06 23.78C133.193 23.6467 133.26 23.4 133.26 23.04V16.16C133.26 15.96 133.36 15.86 133.56 15.86H133.84C134.04 15.86 134.14 15.96 134.14 16.16V23.2C134.14 23.4533 134.267 23.5467 134.52 23.48ZM139.26 15.78H139.58C139.78 15.78 139.88 15.88 139.88 16.08C139.88 17.52 139.913 18.7533 139.98 19.78C140.06 20.7933 140.173 21.62 140.32 22.26C140.6 23.5667 141.013 24.22 141.56 24.22C141.747 24.22 141.88 24.1067 141.96 23.88C142.027 23.68 142.08 23.3667 142.12 22.94C142.133 22.7 142.253 22.64 142.48 22.76C142.507 22.7867 142.533 22.8067 142.56 22.82C142.587 22.82 142.613 22.8333 142.64 22.86C142.8 22.9267 142.867 23.0333 142.84 23.18C142.76 23.8867 142.627 24.3867 142.44 24.68C142.24 24.9733 141.933 25.12 141.52 25.12C140.587 25.12 139.933 24.3467 139.56 22.8C139.2 21.32 139 19.08 138.96 16.08C138.96 15.88 139.06 15.78 139.26 15.78ZM161.7 9.52V9.82C161.7 10.02 161.6 10.12 161.4 10.12H153.6C153.4 10.12 153.3 10.02 153.3 9.82V9.52C153.3 9.32 153.4 9.22 153.6 9.22H161.4C161.6 9.22 161.7 9.32 161.7 9.52ZM151.96 16.98L151.76 17.24C151.68 17.3333 151.593 17.38 151.5 17.38C151.407 17.3667 151.327 17.3067 151.26 17.2C151.167 17.0533 151.067 16.8933 150.96 16.72C150.853 16.5467 150.733 16.36 150.6 16.16C150.493 16.0133 150.393 15.8733 150.3 15.74C150.207 15.5933 150.107 15.4467 150 15.3C149.84 15.06 149.707 14.9533 149.6 14.98C149.507 15.0067 149.46 15.1667 149.46 15.46V24.92C149.46 25.12 149.36 25.22 149.16 25.22H148.82C148.62 25.22 148.52 25.12 148.52 24.92V16.38C148.52 15.86 148.467 15.5933 148.36 15.58C148.253 15.5533 148.1 15.7867 147.9 16.28C147.553 17.08 147.187 17.8267 146.8 18.52C146.413 19.2 146.007 19.82 145.58 20.38C145.46 20.5133 145.36 20.5067 145.28 20.36L145.14 20.16L145.12 20.14L144.98 19.96C144.86 19.84 144.86 19.72 144.98 19.6C145.593 18.8267 146.2 17.84 146.8 16.64C147.36 15.4667 147.82 14.3 148.18 13.14C148.22 13.0333 148.213 12.9467 148.16 12.88C148.107 12.8 148.02 12.76 147.9 12.76H145.7C145.5 12.76 145.4 12.66 145.4 12.46V12.18C145.4 11.98 145.5 11.88 145.7 11.88H148.22C148.42 11.88 148.52 11.78 148.52 11.58V7.88C148.52 7.68 148.62 7.58 148.82 7.58H149.16C149.36 7.58 149.46 7.68 149.46 7.88V11.58C149.46 11.78 149.56 11.88 149.76 11.88H151.86C152.06 11.88 152.16 11.98 152.16 12.18V12.46C152.16 12.66 152.06 12.76 151.86 12.76H149.76C149.56 12.76 149.46 12.8533 149.46 13.04V13.24C149.46 13.32 149.48 13.38 149.52 13.42C149.627 13.54 149.74 13.6867 149.86 13.86C149.993 14.02 150.147 14.2067 150.32 14.42L151.4 15.82L151.98 16.6C152.073 16.7467 152.067 16.8733 151.96 16.98ZM154.4 17.22L154.68 17.28C154.867 17.3467 154.94 17.4733 154.9 17.66C154.593 18.7267 154.233 19.7067 153.82 20.6C153.42 21.4933 152.967 22.32 152.46 23.08C152.367 23.2 152.26 23.2133 152.14 23.12L151.96 23L151.94 22.98L151.74 22.88C151.607 22.7867 151.587 22.6867 151.68 22.58C152.707 21.18 153.493 19.4667 154.04 17.44C154.107 17.2533 154.227 17.18 154.4 17.22ZM159.82 17.28L160.08 17.2C160.147 17.1733 160.213 17.1733 160.28 17.2C160.347 17.2267 160.4 17.2733 160.44 17.34C160.667 17.8067 160.887 18.2733 161.1 18.74C161.313 19.2067 161.52 19.68 161.72 20.16C162.107 21.12 162.4 21.9467 162.6 22.64C162.667 22.8267 162.6 22.9533 162.4 23.02L162.08 23.12C161.867 23.1867 161.74 23.1133 161.7 22.9C161.593 22.5533 161.473 22.18 161.34 21.78C161.22 21.3667 161.067 20.9267 160.88 20.46C160.693 19.98 160.493 19.5133 160.28 19.06C160.08 18.5933 159.867 18.14 159.64 17.7C159.533 17.4867 159.593 17.3467 159.82 17.28ZM152.78 13.88H162.44C162.64 13.88 162.74 13.98 162.74 14.18V14.46C162.74 14.66 162.64 14.76 162.44 14.76H158.08C157.88 14.76 157.78 14.86 157.78 15.06V23.86C157.78 24.1933 157.733 24.4467 157.64 24.62C157.547 24.78 157.38 24.9067 157.14 25C156.74 25.12 155.907 25.18 154.64 25.18C154.48 25.18 154.38 25.1067 154.34 24.96L154.28 24.7L154.26 24.68L154.18 24.46C154.113 24.3 154.167 24.22 154.34 24.22L155.6 24.24L156.46 24.22C156.593 24.22 156.687 24.1933 156.74 24.14C156.793 24.0867 156.82 23.9933 156.82 23.86V15.06C156.82 14.86 156.72 14.76 156.52 14.76H152.78C152.58 14.76 152.48 14.66 152.48 14.46V14.18C152.48 13.98 152.58 13.88 152.78 13.88ZM182.4 9.82V10.08C182.4 10.28 182.3 10.38 182.1 10.38H170.74C170.54 10.38 170.44 10.28 170.44 10.08V9.82C170.44 9.62 170.54 9.52 170.74 9.52H175.5C175.633 9.52 175.727 9.48667 175.78 9.42C175.833 9.34 175.827 9.23333 175.76 9.1C175.68 8.92667 175.593 8.76 175.5 8.6C175.42 8.42667 175.333 8.26 175.24 8.1C175.093 7.88667 175.147 7.73333 175.4 7.64L175.7 7.56C175.833 7.52 175.947 7.56667 176.04 7.7L176.52 8.54C176.587 8.68667 176.653 8.82667 176.72 8.96C176.787 9.09333 176.847 9.22 176.9 9.34C176.953 9.46 177.047 9.52 177.18 9.52H182.1C182.3 9.52 182.4 9.62 182.4 9.82ZM177.98 11.1L178.14 10.92C178.26 10.7867 178.393 10.7733 178.54 10.88C178.887 11.1333 179.24 11.4 179.6 11.68C179.96 11.9467 180.313 12.2267 180.66 12.52C181.367 13.12 181.927 13.6467 182.34 14.1C182.473 14.2067 182.48 14.3333 182.36 14.48L182.16 14.72C182 14.9067 181.847 14.9133 181.7 14.74C181.473 14.5133 181.227 14.2733 180.96 14.02C180.693 13.7533 180.4 13.48 180.08 13.2C179.733 12.9067 179.387 12.6267 179.04 12.36C178.707 12.08 178.367 11.8067 178.02 11.54C177.833 11.4067 177.82 11.26 177.98 11.1ZM170.12 14.76L169.92 14.5C169.787 14.3267 169.813 14.1733 170 14.04C171.347 13.2133 172.5 12.1933 173.46 10.98C173.553 10.8733 173.673 10.84 173.82 10.88L174.04 10.98C174.28 11.06 174.32 11.2133 174.16 11.44C173.92 11.7333 173.667 12.0267 173.4 12.32C173.133 12.6133 172.847 12.9067 172.54 13.2C171.9 13.8133 171.22 14.3533 170.5 14.82C170.353 14.9133 170.227 14.8933 170.12 14.76ZM169.6 10.52L169.4 10.72C169.267 10.88 169.12 10.88 168.96 10.72C168.813 10.56 168.64 10.3933 168.44 10.22C168.253 10.0467 168.047 9.86667 167.82 9.68C167.58 9.49333 167.34 9.31333 167.1 9.14C166.873 8.96667 166.647 8.80667 166.42 8.66C166.207 8.52667 166.187 8.36667 166.36 8.18L166.5 8.06C166.607 7.95333 166.727 7.93333 166.86 8C167.127 8.16 167.387 8.33333 167.64 8.52C167.893 8.69333 168.153 8.87333 168.42 9.06C168.66 9.24667 168.88 9.42667 169.08 9.6C169.28 9.77333 169.453 9.94667 169.6 10.12C169.733 10.2533 169.733 10.3867 169.6 10.52ZM168.68 15.6L168.48 15.82C168.333 15.9667 168.187 15.9667 168.04 15.82C167.893 15.6733 167.72 15.52 167.52 15.36C167.333 15.2 167.127 15.0267 166.9 14.84C166.66 14.6667 166.42 14.5 166.18 14.34C165.94 14.1667 165.7 14.0067 165.46 13.86C165.26 13.7267 165.247 13.5733 165.42 13.4L165.58 13.24C165.687 13.1333 165.807 13.12 165.94 13.2C166.207 13.3467 166.467 13.5067 166.72 13.68C166.973 13.84 167.233 14.0133 167.5 14.2C167.727 14.3867 167.94 14.56 168.14 14.72C168.34 14.88 168.52 15.04 168.68 15.2C168.813 15.3333 168.813 15.4667 168.68 15.6ZM169.06 18.34L169.28 18.5C169.413 18.5933 169.447 18.7133 169.38 18.86C169.18 19.3533 168.967 19.8533 168.74 20.36C168.527 20.8533 168.293 21.36 168.04 21.88C167.787 22.3867 167.547 22.8733 167.32 23.34C167.093 23.7933 166.867 24.2267 166.64 24.64C166.533 24.8133 166.387 24.8467 166.2 24.74L165.92 24.54C165.76 24.4333 165.727 24.3 165.82 24.14C166.047 23.7667 166.273 23.36 166.5 22.92C166.727 22.48 166.967 22.0067 167.22 21.5C167.713 20.5 168.18 19.4867 168.62 18.46C168.66 18.3533 168.72 18.2933 168.8 18.28C168.88 18.2533 168.967 18.2733 169.06 18.34ZM181.62 18.5L181.86 18.66C182.073 18.8067 182.08 18.9667 181.88 19.14C181.467 19.4867 181.04 19.8267 180.6 20.16C180.173 20.48 179.74 20.7933 179.3 21.1C179.1 21.2333 179.08 21.3867 179.24 21.56C180.2 22.5867 181.333 23.38 182.64 23.94C182.8 24.0067 182.82 24.1 182.7 24.22L182.54 24.38C182.54 24.38 182.527 24.3933 182.5 24.42L182.36 24.62C182.267 24.7667 182.147 24.8 182 24.72C179.267 23.36 177.267 21.12 176 18C175.867 17.6533 175.687 17.6267 175.46 17.92C174.887 18.64 174.207 19.2733 173.42 19.82C173.34 19.9 173.3 19.9867 173.3 20.08V23.46C173.3 23.7133 173.427 23.8067 173.68 23.74L176.88 22.92C176.987 22.9067 177.053 22.9533 177.08 23.06V23.24L177.1 23.44C177.127 23.56 177.067 23.6467 176.92 23.7C176.453 23.8467 176.033 23.9733 175.66 24.08C175.3 24.1867 174.973 24.2867 174.68 24.38C174.373 24.4733 174.1 24.5533 173.86 24.62C173.62 24.6867 173.42 24.7467 173.26 24.8L172.56 25.06H172.52L172.38 25.16C172.247 25.2 172.16 25.1667 172.12 25.06L172.04 24.86C172.027 24.8467 172.02 24.8333 172.02 24.82C172.02 24.82 172.013 24.8133 172 24.8L171.9 24.64C171.82 24.5067 171.84 24.4 171.96 24.32C172 24.2933 172.04 24.2533 172.08 24.2C172.12 24.16 172.16 24.1133 172.2 24.06C172.347 23.8733 172.42 23.5933 172.42 23.22V21.1C172.42 20.7267 172.267 20.64 171.96 20.84C171.307 21.2267 170.6 21.5933 169.84 21.94C169.693 21.9933 169.58 21.9667 169.5 21.86L169.32 21.68L169.14 21.52C169.02 21.4 169.033 21.32 169.18 21.28C171.447 20.3467 173.213 19.1467 174.48 17.68C174.627 17.52 174.673 17.4 174.62 17.32C174.58 17.2267 174.453 17.1933 174.24 17.22C173.893 17.26 173.587 17.3 173.32 17.34C173.067 17.3667 172.84 17.3933 172.64 17.42L171.56 17.6H171.52L171.18 17.7C171.1 17.7267 171.06 17.7 171.06 17.62L171.02 17.54L170.92 17.14L170.84 16.96C170.8 16.8667 170.84 16.7933 170.96 16.74C171.253 16.6467 171.58 16.4267 171.94 16.08L171.98 16.04C172.127 15.9333 172.313 15.7667 172.54 15.54C172.78 15.3133 173.067 15.0333 173.4 14.7C173.707 14.3933 174.007 14.0667 174.3 13.72C174.607 13.3733 174.907 13.0133 175.2 12.64C175.293 12.52 175.413 12.4933 175.56 12.56L175.88 12.72C176.12 12.8267 176.16 12.98 176 13.18C175.147 14.1933 174.267 15.1133 173.36 15.94C172.92 16.3667 173 16.5467 173.6 16.48L177.88 16.04C178.053 16.0133 178.153 15.96 178.18 15.88C178.22 15.7867 178.18 15.6733 178.06 15.54C177.927 15.3933 177.793 15.26 177.66 15.14C177.54 15.0067 177.42 14.8733 177.3 14.74C177.113 14.5533 177.133 14.3933 177.36 14.26L177.5 14.18C177.633 14.1 177.753 14.1133 177.86 14.22C178.127 14.4867 178.393 14.7533 178.66 15.02C178.927 15.2867 179.193 15.5667 179.46 15.86C179.7 16.1267 179.92 16.38 180.12 16.62C180.333 16.86 180.52 17.0933 180.68 17.32C180.787 17.4667 180.76 17.6 180.6 17.72L180.4 17.88C180.227 17.9867 180.08 17.96 179.96 17.8C179.853 17.6533 179.733 17.5067 179.6 17.36C179.48 17.2 179.347 17.0267 179.2 16.84L179.14 16.76C179.087 16.7067 179.033 16.6867 178.98 16.7L176.92 16.92C176.667 16.9467 176.587 17.0733 176.68 17.3C176.893 17.9 177.133 18.4667 177.4 19C177.68 19.52 178 20.0133 178.36 20.48C178.467 20.64 178.593 20.66 178.74 20.54C178.967 20.3933 179.187 20.24 179.4 20.08C179.627 19.92 179.853 19.7467 180.08 19.56C180.307 19.3733 180.513 19.2 180.7 19.04C180.887 18.8667 181.067 18.7 181.24 18.54C181.36 18.42 181.487 18.4067 181.62 18.5ZM192.3 19.72L192.32 19.98C192.32 20.1533 192.24 20.26 192.08 20.3L190.06 20.72C189.9 20.7467 189.82 20.84 189.82 21V24.84C189.82 25.04 189.72 25.14 189.52 25.14H189.26C189.06 25.14 188.96 25.04 188.96 24.84V21.3C188.96 21.0733 188.84 20.98 188.6 21.02L185.72 21.62C185.52 21.66 185.4 21.5933 185.36 21.42L185.28 21.08C185.213 20.8667 185.293 20.74 185.52 20.7C185.987 20.62 186.48 20.5333 187 20.44C187.533 20.3333 188.107 20.2133 188.72 20.08C188.88 20.0533 188.96 19.96 188.96 19.8V17.14C188.96 16.94 188.86 16.84 188.66 16.84H187.24C186.747 16.84 186.36 16.8933 186.08 17C185.96 17.0667 185.88 17.0333 185.84 16.9L185.78 16.7V16.66L185.7 16.46C185.66 16.3533 185.687 16.24 185.78 16.12C185.86 16.04 185.94 15.9067 186.02 15.72C186.087 15.5733 186.16 15.4133 186.24 15.24C186.32 15.0533 186.4 14.8467 186.48 14.62L186.94 13.22C187.033 12.9267 187.12 12.62 187.2 12.3C187.293 11.98 187.387 11.64 187.48 11.28C187.547 11.0267 187.453 10.9 187.2 10.9H185.6C185.4 10.9 185.3 10.8 185.3 10.6V10.3C185.3 10.1 185.4 10 185.6 10H187.56C187.72 10 187.82 9.92 187.86 9.76C187.927 9.45333 187.987 9.14667 188.04 8.84C188.093 8.53333 188.147 8.22667 188.2 7.92C188.227 7.70667 188.347 7.62 188.56 7.66L188.88 7.74C189.067 7.79333 189.14 7.90667 189.1 8.08C189.06 8.34667 189.013 8.60667 188.96 8.86C188.907 9.11333 188.847 9.36667 188.78 9.62C188.74 9.87333 188.84 10 189.08 10H191.68C191.88 10 191.98 10.1 191.98 10.3V10.6C191.98 10.8 191.88 10.9 191.68 10.9H188.72C188.56 10.9 188.46 10.9733 188.42 11.12C187.98 12.7467 187.5 14.22 186.98 15.54C186.873 15.82 186.967 15.96 187.26 15.96H188.66C188.86 15.96 188.96 15.86 188.96 15.66V13.14C188.96 12.94 189.06 12.84 189.26 12.84H189.52C189.72 12.84 189.82 12.94 189.82 13.14V15.66C189.82 15.86 189.92 15.96 190.12 15.96H191.64C191.84 15.96 191.94 16.06 191.94 16.26V16.54C191.94 16.74 191.84 16.84 191.64 16.84H190.12C189.92 16.84 189.82 16.94 189.82 17.14V19.52C189.82 19.7733 189.94 19.8667 190.18 19.8L191.94 19.46C192.033 19.4333 192.113 19.4467 192.18 19.5C192.247 19.5533 192.287 19.6267 192.3 19.72ZM196.5 23.86H200.12C200.533 23.86 200.813 23.6867 200.96 23.34C201.08 23.0467 201.16 22.4133 201.2 21.44C201.2 21.2667 201.267 21.2267 201.4 21.32L201.58 21.42C201.593 21.4333 201.6 21.44 201.6 21.44C201.613 21.44 201.627 21.4467 201.64 21.46L201.84 21.52C201.987 21.56 202.06 21.6533 202.06 21.8C202.007 22.8933 201.867 23.6533 201.64 24.08C201.387 24.52 200.893 24.74 200.16 24.74H196.46C195.62 24.74 195.067 24.6333 194.8 24.42C194.52 24.2067 194.38 23.7533 194.38 23.06V14.94C194.38 14.74 194.48 14.64 194.68 14.64H195C195.2 14.64 195.3 14.74 195.3 14.94V18.44C195.3 18.5867 195.34 18.6867 195.42 18.74C195.5 18.78 195.607 18.7667 195.74 18.7C196.113 18.5 196.487 18.2867 196.86 18.06C197.247 17.8333 197.633 17.5933 198.02 17.34C198.86 16.7933 199.587 16.2867 200.2 15.82C200.36 15.7 200.493 15.7133 200.6 15.86L200.86 16.16C201.02 16.32 201.007 16.4667 200.82 16.6C200.073 17.16 199.227 17.7133 198.28 18.26C197.773 18.5667 197.287 18.8467 196.82 19.1C196.367 19.3533 195.913 19.5933 195.46 19.82C195.353 19.86 195.3 19.9467 195.3 20.08V23.06C195.3 23.38 195.38 23.5933 195.54 23.7C195.687 23.8067 196.007 23.86 196.5 23.86ZM197.28 7.6L197.8 7.66C197.947 7.67333 197.993 7.75333 197.94 7.9L197.86 8.1L197.76 8.38C197.72 8.44667 197.72 8.52667 197.76 8.62C198.067 9.20667 198.407 9.77333 198.78 10.32C199.153 10.8667 199.567 11.4067 200.02 11.94C200.847 12.9533 201.7 13.7733 202.58 14.4C202.727 14.4933 202.74 14.6 202.62 14.72L202.44 14.88C202.44 14.8933 202.433 14.9 202.42 14.9C202.42 14.9 202.42 14.9067 202.42 14.92L202.28 15.08C202.16 15.2133 202.047 15.2267 201.94 15.12C201.127 14.44 200.353 13.6733 199.62 12.82C198.9 11.9533 198.2 10.98 197.52 9.9C197.44 9.75333 197.347 9.68667 197.24 9.7C197.147 9.7 197.06 9.77333 196.98 9.92C196.753 10.3733 196.493 10.82 196.2 11.26C195.92 11.7 195.607 12.14 195.26 12.58C194.487 13.5533 193.58 14.46 192.54 15.3C192.433 15.3933 192.32 15.38 192.2 15.26L192.06 15.1C192.06 15.1 192.047 15.0867 192.02 15.06L191.86 14.92C191.74 14.8267 191.74 14.7333 191.86 14.64C192.513 14.1333 193.107 13.6 193.64 13.04C194.187 12.48 194.673 11.88 195.1 11.24C195.513 10.64 195.873 10.0533 196.18 9.48C196.5 8.90667 196.76 8.34667 196.96 7.8C197 7.64 197.107 7.57333 197.28 7.6ZM205.86 24.24V23.98C205.86 23.78 205.96 23.68 206.16 23.68H221.94C222.14 23.68 222.24 23.78 222.24 23.98V24.24C222.24 24.44 222.14 24.54 221.94 24.54H206.16C205.96 24.54 205.86 24.44 205.86 24.24ZM218.32 18.54V17.16C218.32 16.96 218.22 16.86 218.02 16.86H210C209.8 16.86 209.7 16.96 209.7 17.16V18.54C209.7 18.74 209.8 18.84 210 18.84H218.02C218.22 18.84 218.32 18.74 218.32 18.54ZM218.32 21.3V19.88C218.32 19.68 218.22 19.58 218.02 19.58H210C209.8 19.58 209.7 19.68 209.7 19.88V21.3C209.7 21.5 209.8 21.6 210 21.6H218.02C218.22 21.6 218.32 21.5 218.32 21.3ZM209.08 16.1H218.96C219.16 16.1 219.26 16.2 219.26 16.4V22.06C219.26 22.26 219.16 22.36 218.96 22.36H209.08C208.88 22.36 208.78 22.26 208.78 22.06V16.4C208.78 16.2 208.88 16.1 209.08 16.1ZM222.28 11.08H216.32C216.107 11.08 215.98 11.1267 215.94 11.22C215.913 11.3133 215.973 11.4333 216.12 11.58C217.987 13.3533 220.167 14.6933 222.66 15.6C222.833 15.6533 222.853 15.7467 222.72 15.88L222.56 16.06L222.54 16.08L222.4 16.28C222.307 16.3867 222.187 16.42 222.04 16.38C221.387 16.1133 220.727 15.8067 220.06 15.46C219.407 15.1133 218.747 14.7067 218.08 14.24C216.707 13.3333 215.547 12.3 214.6 11.14C214.587 11.1 214.553 11.08 214.5 11.08C214.447 11.08 214.42 11.1 214.42 11.14V15.18C214.42 15.38 214.32 15.48 214.12 15.48H213.82C213.62 15.48 213.52 15.38 213.52 15.18V11.14C213.52 11.1 213.5 11.08 213.46 11.08C213.407 11.08 213.367 11.1 213.34 11.14C212.407 12.2867 211.253 13.3467 209.88 14.32C208.587 15.24 207.287 15.9867 205.98 16.56C205.833 16.6 205.713 16.5667 205.62 16.46L205.46 16.26V16.24L205.3 16.06C205.233 16.0067 205.207 15.96 205.22 15.92C205.247 15.8667 205.293 15.8267 205.36 15.8C206.547 15.3467 207.76 14.7133 209 13.9C210.08 13.18 211.02 12.4 211.82 11.56C211.967 11.4133 212.02 11.3 211.98 11.22C211.94 11.1267 211.82 11.08 211.62 11.08H205.76C205.56 11.08 205.46 10.98 205.46 10.78V10.52C205.46 10.32 205.56 10.22 205.76 10.22H213.22C213.42 10.22 213.52 10.12 213.52 9.92V7.88C213.52 7.68 213.62 7.58 213.82 7.58H214.12C214.32 7.58 214.42 7.68 214.42 7.88V9.92C214.42 10.12 214.52 10.22 214.72 10.22H222.28C222.48 10.22 222.58 10.32 222.58 10.52V10.78C222.58 10.98 222.48 11.08 222.28 11.08ZM239.64 18.4V17.36C239.64 17.16 239.54 17.06 239.34 17.06H230.6C230.4 17.06 230.3 17.16 230.3 17.36V18.4C230.3 18.6 230.4 18.7 230.6 18.7H239.34C239.54 18.7 239.64 18.6 239.64 18.4ZM230.6 23.64H239.34C239.54 23.64 239.64 23.54 239.64 23.34V22.18C239.64 21.98 239.54 21.88 239.34 21.88H230.6C230.4 21.88 230.3 21.98 230.3 22.18V23.34C230.3 23.54 230.4 23.64 230.6 23.64ZM230.3 19.74V20.82C230.3 21.02 230.4 21.12 230.6 21.12H239.34C239.54 21.12 239.64 21.02 239.64 20.82V19.74C239.64 19.54 239.54 19.44 239.34 19.44H230.6C230.4 19.44 230.3 19.54 230.3 19.74ZM242.22 14.58H231.54C231.487 14.58 231.433 14.6067 231.38 14.66L231.32 14.76C231.227 14.9333 231.127 15.1067 231.02 15.28C230.927 15.44 230.827 15.6 230.72 15.76C230.507 16.08 230.587 16.24 230.96 16.24H240.24C240.44 16.24 240.54 16.34 240.54 16.54V24.98C240.54 25.18 240.44 25.28 240.24 25.28H239.94C239.74 25.28 239.64 25.18 239.64 24.98V24.74C239.64 24.54 239.54 24.44 239.34 24.44H230.6C230.4 24.44 230.3 24.54 230.3 24.74V24.98C230.3 25.18 230.2 25.28 230 25.28H229.7C229.5 25.28 229.4 25.18 229.4 24.98V18.36C229.4 17.8533 229.22 17.78 228.86 18.14C227.993 19.0733 226.98 19.8933 225.82 20.6C225.767 20.64 225.707 20.6533 225.64 20.64C225.587 20.6267 225.547 20.5933 225.52 20.54L225.4 20.38L225.36 20.34L225.22 20.18C225.113 20.0733 225.127 19.98 225.26 19.9C227.3 18.5933 228.913 16.9667 230.1 15.02C230.18 14.8867 230.193 14.78 230.14 14.7C230.1 14.62 230 14.58 229.84 14.58H225.78C225.58 14.58 225.48 14.48 225.48 14.28V14.06C225.48 13.86 225.58 13.76 225.78 13.76H230.64C230.773 13.76 230.86 13.7067 230.9 13.6C231.007 13.3867 231.107 13.18 231.2 12.98C231.293 12.78 231.393 12.5733 231.5 12.36C231.607 12.08 231.513 11.94 231.22 11.94H227.24C227.04 11.94 226.94 11.84 226.94 11.64V11.42C226.94 11.22 227.04 11.12 227.24 11.12H231.76C231.88 11.12 231.973 11.0533 232.04 10.92C232.107 10.7333 232.167 10.5533 232.22 10.38C232.287 10.1933 232.347 10.0067 232.4 9.82C232.44 9.7 232.433 9.60667 232.38 9.54C232.327 9.46 232.233 9.42667 232.1 9.44C231.22 9.48 230.36 9.51333 229.52 9.54C228.68 9.56667 227.853 9.58667 227.04 9.6C226.907 9.6 226.827 9.54 226.8 9.42L226.76 9.24L226.74 9.22L226.68 9.04C226.627 8.92 226.673 8.86 226.82 8.86C228.02 8.83333 229.227 8.8 230.44 8.76C231.667 8.70667 232.913 8.63333 234.18 8.54C236.673 8.38 238.7 8.14 240.26 7.82C240.367 7.79333 240.46 7.82 240.54 7.9L240.76 8.12C240.96 8.34667 240.913 8.49333 240.62 8.56C238.74 8.93333 236.453 9.19333 233.76 9.34C233.613 9.36667 233.52 9.44667 233.48 9.58C233.387 9.95333 233.267 10.3333 233.12 10.72C233.027 10.9867 233.127 11.12 233.42 11.12H241.06C241.26 11.12 241.36 11.22 241.36 11.42V11.64C241.36 11.84 241.26 11.94 241.06 11.94H232.86C232.74 11.94 232.647 12.0067 232.58 12.14C232.513 12.34 232.433 12.54 232.34 12.74C232.26 12.9267 232.173 13.12 232.08 13.32C231.947 13.6133 232.04 13.76 232.36 13.76H242.22C242.42 13.76 242.52 13.86 242.52 14.06V14.28C242.52 14.48 242.42 14.58 242.22 14.58ZM258.9 9.34L259.18 9.54C259.327 9.64667 259.353 9.78 259.26 9.94C258.447 11.2467 257.36 12.4067 256 13.42C254.56 14.5 253.013 15.3867 251.36 16.08C250.56 16.4267 249.767 16.7267 248.98 16.98C248.207 17.2333 247.433 17.4533 246.66 17.64C246.513 17.6667 246.407 17.6133 246.34 17.48L246.22 17.24L246.1 17.04C246.02 16.8933 246.053 16.8067 246.2 16.78C248.333 16.34 250.447 15.5933 252.54 14.54C252.66 14.4733 252.727 14.4 252.74 14.32C252.753 14.2267 252.707 14.14 252.6 14.06C252.293 13.82 251.98 13.5867 251.66 13.36C251.34 13.1333 251.007 12.92 250.66 12.72C250.433 12.5733 250.42 12.4067 250.62 12.22L250.8 12.08C250.893 12 251.007 11.9933 251.14 12.06C251.367 12.18 251.587 12.3067 251.8 12.44C252.013 12.5733 252.233 12.7133 252.46 12.86C252.873 13.1267 253.26 13.4067 253.62 13.7C253.74 13.7933 253.853 13.8 253.96 13.72C255.427 12.84 256.64 11.8267 257.6 10.68C257.72 10.5333 257.76 10.42 257.72 10.34C257.68 10.2467 257.567 10.2 257.38 10.2H252.22C252.14 10.2 252.073 10.2267 252.02 10.28C250.753 11.36 249.267 12.3333 247.56 13.2C247.44 13.2667 247.32 13.24 247.2 13.12L247.06 12.96C247.06 12.9467 247.053 12.94 247.04 12.94C247.04 12.94 247.04 12.9333 247.04 12.92L246.88 12.78C246.76 12.6867 246.767 12.6067 246.9 12.54C248.38 11.8467 249.667 11.0667 250.76 10.2C251.787 9.37333 252.607 8.54 253.22 7.7C253.3 7.59333 253.407 7.55333 253.54 7.58L253.96 7.68C254.093 7.70667 254.173 7.76667 254.2 7.86C254.24 7.94 254.213 8.03333 254.12 8.14C254.027 8.24667 253.933 8.36 253.84 8.48C253.747 8.6 253.647 8.71333 253.54 8.82C253.22 9.16667 253.293 9.34 253.76 9.34H258.58C258.62 9.34 258.647 9.33333 258.66 9.32L258.72 9.3C258.813 9.3 258.873 9.31333 258.9 9.34ZM261.96 16L262.26 16.2C262.42 16.2933 262.453 16.42 262.36 16.58C261.427 18.3667 260.167 19.8333 258.58 20.98C256.927 22.18 255.033 23.1267 252.9 23.82C251.873 24.1533 250.84 24.4333 249.8 24.66C248.76 24.8867 247.707 25.0733 246.64 25.22C246.467 25.2467 246.36 25.1867 246.32 25.04L246.22 24.8V24.76L246.12 24.56C246.027 24.4 246.067 24.32 246.24 24.32C247.053 24.2133 247.86 24.0867 248.66 23.94C249.46 23.7933 250.26 23.6133 251.06 23.4C251.82 23.2133 252.56 22.9867 253.28 22.72C254 22.4533 254.7 22.1533 255.38 21.82C255.487 21.7667 255.547 21.7 255.56 21.62C255.573 21.5267 255.533 21.44 255.44 21.36C255.147 21.0667 254.833 20.78 254.5 20.5C254.18 20.22 253.84 19.9333 253.48 19.64C253.267 19.4667 253.28 19.3067 253.52 19.16L253.74 19.04C253.86 19 253.967 19.0067 254.06 19.06C254.26 19.2067 254.467 19.36 254.68 19.52C254.893 19.68 255.107 19.8533 255.32 20.04C255.52 20.2133 255.713 20.38 255.9 20.54C256.087 20.7 256.26 20.86 256.42 21.02C256.527 21.1267 256.647 21.14 256.78 21.06C258.447 20.0867 259.787 18.8333 260.8 17.3C260.893 17.1667 260.913 17.06 260.86 16.98C260.807 16.9 260.707 16.86 260.56 16.86H255.4C255.32 16.86 255.253 16.8867 255.2 16.94C254.4 17.6467 253.507 18.3 252.52 18.9C251.533 19.5 250.433 20.06 249.22 20.58C249.073 20.6467 248.953 20.62 248.86 20.5L248.72 20.32L248.7 20.3L248.54 20.14C248.42 20.02 248.44 19.94 248.6 19.9C250.467 19.14 252.067 18.26 253.4 17.26C254.053 16.78 254.627 16.3 255.12 15.82C255.613 15.3267 256.033 14.8467 256.38 14.38C256.46 14.2733 256.567 14.2333 256.7 14.26L257.5 14.42C257.54 14.4467 257.553 14.4733 257.54 14.5L257.48 14.56C257.36 14.7067 257.233 14.86 257.1 15.02C256.98 15.18 256.847 15.3333 256.7 15.48C256.38 15.8267 256.453 16 256.92 16H261.64C261.68 16 261.707 15.9933 261.72 15.98L261.78 15.96C261.873 15.96 261.933 15.9733 261.96 16ZM273.54 24.94V13.26C273.54 13.06 273.64 12.96 273.84 12.96H274.16C274.36 12.96 274.46 13.06 274.46 13.26V24.94C274.46 25.14 274.36 25.24 274.16 25.24H273.84C273.64 25.24 273.54 25.14 273.54 24.94ZM274.46 7.68L274.76 7.82C274.84 7.86 274.893 7.92 274.92 8C274.947 8.08 274.933 8.16 274.88 8.24C274.84 8.29333 274.8 8.34667 274.76 8.4C274.72 8.45333 274.68 8.51333 274.64 8.58C274.613 8.63333 274.6 8.69333 274.6 8.76C274.6 8.82667 274.62 8.88667 274.66 8.94C275.193 9.63333 275.76 10.2867 276.36 10.9C276.96 11.5133 277.6 12.0867 278.28 12.62C278.96 13.1533 279.667 13.66 280.4 14.14C281.133 14.6067 281.913 15.0533 282.74 15.48C282.887 15.56 282.9 15.6533 282.78 15.76C282.7 15.84 282.64 15.9067 282.6 15.96C282.56 16 282.527 16.04 282.5 16.08C282.473 16.1067 282.447 16.14 282.42 16.18C282.313 16.3133 282.187 16.3467 282.04 16.28C280.453 15.4 279.02 14.4267 277.74 13.36C276.473 12.3333 275.307 11.1467 274.24 9.8C274.08 9.57333 273.92 9.57333 273.76 9.8C271.627 12.52 269.053 14.6733 266.04 16.26C265.893 16.34 265.767 16.3133 265.66 16.18L265.5 15.96C265.46 15.9067 265.4 15.84 265.32 15.76C265.2 15.64 265.207 15.54 265.34 15.46C269.047 13.6067 271.96 11.0467 274.08 7.78C274.187 7.63333 274.313 7.6 274.46 7.68ZM290.48 7.72L290.82 7.82C291.033 7.88667 291.093 8.02 291 8.22C290.44 9.58 289.793 10.8667 289.06 12.08C289.033 12.16 289.02 12.2133 289.02 12.24V24.92C289.02 25.12 288.92 25.22 288.72 25.22H288.38C288.18 25.22 288.08 25.12 288.08 24.92V14.64C288.08 14.3467 288.027 14.1867 287.92 14.16C287.827 14.12 287.693 14.2133 287.52 14.44C287.253 14.7867 286.987 15.12 286.72 15.44C286.453 15.7467 286.187 16.0467 285.92 16.34C285.867 16.3933 285.807 16.42 285.74 16.42C285.687 16.4067 285.647 16.3667 285.62 16.3L285.48 16.1C285.48 16.0867 285.473 16.08 285.46 16.08L285.3 15.86C285.193 15.74 285.2 15.6067 285.32 15.46C286.32 14.46 287.213 13.3333 288 12.08C288.787 10.8133 289.493 9.42 290.12 7.9C290.187 7.74 290.307 7.68 290.48 7.72ZM302.54 11.78H296.82C296.62 11.78 296.52 11.88 296.52 12.08V14.76C296.52 14.96 296.62 15.06 296.82 15.06H302.14C302.34 15.06 302.44 15.16 302.44 15.36V15.64C302.44 15.84 302.34 15.94 302.14 15.94H296.82C296.62 15.94 296.52 16.04 296.52 16.24V19.04C296.52 19.24 296.62 19.34 296.82 19.34H302.42C302.62 19.34 302.72 19.44 302.72 19.64V19.94C302.72 20.14 302.62 20.24 302.42 20.24H296.82C296.62 20.24 296.52 20.34 296.52 20.54V24.94C296.52 25.14 296.42 25.24 296.22 25.24H295.88C295.68 25.24 295.58 25.14 295.58 24.94V12.08C295.58 11.88 295.48 11.78 295.28 11.78H294.06C293.927 11.78 293.84 11.8333 293.8 11.94C292.973 13.46 292.087 14.7667 291.14 15.86C291.02 15.98 290.907 15.9867 290.8 15.88L290.62 15.72L290.44 15.58C290.307 15.46 290.293 15.3467 290.4 15.24C291.267 14.28 292.04 13.2067 292.72 12.02C293.4 10.8333 294 9.52667 294.52 8.1C294.587 7.91333 294.707 7.85333 294.88 7.92L295.18 8C295.407 8.04 295.473 8.16667 295.38 8.38C295.247 8.72667 295.107 9.07333 294.96 9.42C294.827 9.76667 294.68 10.1067 294.52 10.44C294.453 10.5733 294.447 10.68 294.5 10.76C294.553 10.84 294.653 10.88 294.8 10.88H302.54C302.74 10.88 302.84 10.98 302.84 11.18V11.48C302.84 11.68 302.74 11.78 302.54 11.78ZM318.24 13.38V9.66C318.24 9.46 318.14 9.36 317.94 9.36H310.18C309.98 9.36 309.88 9.46 309.88 9.66V13.38C309.88 13.58 309.98 13.68 310.18 13.68H317.94C318.14 13.68 318.24 13.58 318.24 13.38ZM319.16 8.74V14.28C319.16 14.48 319.06 14.58 318.86 14.58H309.28C309.08 14.58 308.98 14.48 308.98 14.28V8.74C308.98 8.54 309.08 8.44 309.28 8.44H318.86C319.06 8.44 319.16 8.54 319.16 8.74ZM311.42 17.82H307.24C307.04 17.82 306.94 17.92 306.94 18.12V22.94C306.94 23.14 307.04 23.24 307.24 23.24H311.42C311.62 23.24 311.72 23.14 311.72 22.94V18.12C311.72 17.92 311.62 17.82 311.42 17.82ZM306.04 24.94V17.22C306.04 17.02 306.14 16.92 306.34 16.92H312.36C312.56 16.92 312.66 17.02 312.66 17.22V24.74C312.66 24.94 312.56 25.04 312.36 25.04H312.02C311.82 25.04 311.72 24.94 311.72 24.74V24.44C311.72 24.24 311.62 24.14 311.42 24.14H307.24C307.04 24.14 306.94 24.24 306.94 24.44V24.94C306.94 25.14 306.84 25.24 306.64 25.24H306.34C306.14 25.24 306.04 25.14 306.04 24.94ZM316.3 23.24H320.92C321.12 23.24 321.22 23.14 321.22 22.94V18.12C321.22 17.92 321.12 17.82 320.92 17.82H316.3C316.1 17.82 316 17.92 316 18.12V22.94C316 23.14 316.1 23.24 316.3 23.24ZM315.38 16.92H321.84C322.04 16.92 322.14 17.02 322.14 17.22V24.8C322.14 25 322.04 25.1 321.84 25.1H321.52C321.32 25.1 321.22 25 321.22 24.8V24.44C321.22 24.24 321.12 24.14 320.92 24.14H316.3C316.1 24.14 316 24.24 316 24.44V24.94C316 25.14 315.9 25.24 315.7 25.24H315.38C315.18 25.24 315.08 25.14 315.08 24.94V17.22C315.08 17.02 315.18 16.92 315.38 16.92Z" fill="white" fill-opacity="0.85"/>
<defs>
<clipPath id="clip0_1401_13409">
<rect width="32" height="32" fill="white" transform="translate(44)"/>
</clipPath>
</defs>
</svg>
