<svg width="48" height="48" viewBox="0 0 48 48" fill="none" xmlns="http://www.w3.org/2000/svg">
<g clip-path="url(#clip0_953_20826)">
<path d="M23.0158 37.344C14.7118 37.344 7.96777 30.6 7.96777 22.296C7.96777 13.992 14.7118 7.24805 23.0158 7.24805C31.3198 7.24805 38.0638 13.992 38.0638 22.296C38.0638 30.6 31.2958 37.344 23.0158 37.344ZM23.0158 9.55205C15.9838 9.55205 10.2718 15.264 10.2718 22.296C10.2718 29.328 15.9838 35.04 23.0158 35.04C30.0478 35.04 35.7598 29.328 35.7598 22.296C35.7598 15.264 30.0238 9.55205 23.0158 9.55205ZM35.1598 40.68C32.4958 40.68 30.3358 38.568 30.3358 35.952C30.3358 33.3361 32.4958 31.224 35.1598 31.224C37.8238 31.224 39.9838 33.3361 39.9838 35.952C39.9838 38.568 37.8238 40.68 35.1598 40.68ZM35.1598 33.528C33.7678 33.528 32.6398 34.608 32.6398 35.952C32.6398 37.296 33.7678 38.376 35.1598 38.376C36.5518 38.376 37.6798 37.296 37.6798 35.952C37.6798 34.632 36.5518 33.528 35.1598 33.528Z" fill="#262626"/>
<path d="M14.256 23.136C13.632 23.136 13.104 22.632 13.104 21.984C13.104 16.56 17.52 12.168 22.92 12.168C23.544 12.168 24.072 12.672 24.072 13.32C24.072 13.968 23.568 14.472 22.92 14.472C18.768 14.472 15.408 17.856 15.408 21.984C15.408 22.632 14.904 23.136 14.256 23.136Z" fill="#262626"/>
</g>
<defs>
<clipPath id="clip0_953_20826">
<rect width="48" height="48" fill="white"/>
</clipPath>
</defs>
</svg>
