<svg width="579" height="59" viewBox="0 0 579 59" fill="none" xmlns="http://www.w3.org/2000/svg">
<path d="M53.938 31.088H37.81C36.786 31.088 36.082 31.3867 35.698 31.984C35.3567 32.5387 35.4207 33.264 35.89 34.16C37.9807 37.872 40.6047 41.0933 43.762 43.824C47.346 46.896 51.7193 49.264 56.882 50.928C58.162 51.312 58.354 52.016 57.458 53.04C57.0313 53.552 56.5833 54.128 56.114 54.768C55.858 55.1093 55.6233 55.4507 55.41 55.792C55.1967 56.1333 54.9833 56.4747 54.77 56.816C54.4287 57.2853 54.0233 57.6267 53.554 57.84C53.0847 58.0533 52.5727 58.0533 52.018 57.84C47.0687 56.0053 42.7807 53.4667 39.154 50.224C36.4233 47.792 33.9487 44.8907 31.73 41.52C30.194 39.088 28.658 39.1093 27.122 41.584C25.5433 44.144 23.5167 46.64 21.042 49.072C17.458 52.4853 12.6366 55.4293 6.57798 57.904C6.02332 58.1173 5.48998 58.1387 4.97798 57.968C4.50865 57.7973 4.10332 57.4773 3.76198 57.008C3.54865 56.7093 3.33532 56.4107 3.12198 56.112C2.95132 55.856 2.75932 55.5787 2.54598 55.28C2.33265 54.9387 2.11932 54.64 1.90598 54.384C1.69265 54.128 1.47932 53.8933 1.26598 53.68C0.455316 52.6987 0.625983 51.9733 1.77798 51.504C8.00732 48.9867 12.722 46.0427 15.922 42.672C18.6527 39.8133 20.6793 36.8907 22.002 33.904C22.3433 33.0507 22.322 32.368 21.938 31.856C21.554 31.344 20.914 31.088 20.018 31.088H4.33798C3.65532 31.088 3.10065 30.896 2.67398 30.512C2.28998 30.0853 2.09798 29.5307 2.09798 28.848V25.712C2.09798 25.0293 2.28998 24.496 2.67398 24.112C3.10065 23.6853 3.65532 23.472 4.33798 23.472H22.514C23.1113 23.472 23.602 23.28 23.986 22.896C24.4127 22.512 24.6473 22.0213 24.69 21.424C24.7327 20.9547 24.754 20.5067 24.754 20.08C24.754 19.6107 24.754 19.1413 24.754 18.672V14.64C24.754 13.9573 24.5407 13.424 24.114 13.04C23.73 12.6133 23.1967 12.4 22.514 12.4H6.57798C5.89532 12.4 5.34065 12.208 4.91398 11.824C4.52998 11.3973 4.33798 10.8427 4.33798 10.16V7.024C4.33798 6.34133 4.52998 5.808 4.91398 5.424C5.34065 4.99733 5.89532 4.784 6.57798 4.784H51.506C52.1887 4.784 52.722 4.99733 53.106 5.424C53.5327 5.808 53.746 6.34133 53.746 7.024V10.16C53.746 10.8427 53.5327 11.3973 53.106 11.824C52.722 12.208 52.1887 12.4 51.506 12.4H34.802C34.1193 12.4 33.5647 12.6133 33.138 13.04C32.754 13.424 32.562 13.9573 32.562 14.64V18.8C32.562 19.184 32.562 19.568 32.562 19.952C32.562 20.336 32.5407 20.72 32.498 21.104C32.498 21.7867 32.69 22.3413 33.074 22.768C33.458 23.1947 34.0127 23.408 34.738 23.408L53.938 23.472C54.6207 23.472 55.154 23.6853 55.538 24.112C55.9647 24.496 56.178 25.0293 56.178 25.712V28.848C56.178 29.5307 55.9647 30.0853 55.538 30.512C55.154 30.896 54.6207 31.088 53.938 31.088ZM86.45 10.864L84.658 13.104C84.1887 13.7013 83.6553 14.0213 83.058 14.064C82.5033 14.1067 81.9273 13.8933 81.33 13.424C80.5193 12.7413 79.6447 12.0587 78.706 11.376L73.33 7.472L72.882 7.152C72.5833 6.896 72.562 6.64 72.818 6.384L75.57 3.12C75.9113 2.65066 76.338 2.37333 76.85 2.288C77.4047 2.20266 77.938 2.33066 78.45 2.672C79.73 3.48266 81.138 4.37866 82.674 5.36C83.314 5.82933 83.9113 6.256 84.466 6.64C85.0633 7.024 85.5967 7.408 86.066 7.792C86.6207 8.176 86.9193 8.66666 86.962 9.264C87.0473 9.81866 86.8767 10.352 86.45 10.864ZM82.674 26.48L81.138 28.592C80.6687 29.1893 80.1353 29.5307 79.538 29.616C78.9407 29.7013 78.3433 29.5093 77.746 29.04C77.4047 28.784 77.042 28.528 76.658 28.272C76.3167 27.9733 75.954 27.6747 75.57 27.376L70.45 23.792L69.618 23.216C69.0207 22.8747 68.9353 22.4053 69.362 21.808L71.666 18.928C72.0073 18.4587 72.4553 18.16 73.01 18.032C73.5647 17.904 74.0767 18.0107 74.546 18.352C75.186 18.7787 75.8473 19.2053 76.53 19.632C77.2553 20.0587 77.9807 20.5067 78.706 20.976C79.3033 21.4453 79.9007 21.872 80.498 22.256C81.0953 22.64 81.65 23.0027 82.162 23.344C82.7167 23.728 83.0367 24.1973 83.122 24.752C83.25 25.3067 83.1007 25.8827 82.674 26.48ZM82.674 35.184L84.914 36.912C85.298 37.2533 85.554 37.6587 85.682 38.128C85.81 38.5973 85.7673 39.0667 85.554 39.536C84.3593 42.2667 83.122 44.9547 81.842 47.6C80.6047 50.2027 79.3247 52.784 78.002 55.344C77.6607 56.0267 77.17 56.432 76.53 56.56C75.9327 56.7307 75.3353 56.5813 74.738 56.112L71.986 54.128C71.5167 53.7867 71.218 53.3387 71.09 52.784C70.962 52.2293 71.0687 51.6747 71.41 51.12C72.69 48.944 73.97 46.6187 75.25 44.144C76.5727 41.6267 77.8953 38.896 79.218 35.952C79.602 35.184 80.0927 34.7147 80.69 34.544C81.33 34.3733 81.9913 34.5867 82.674 35.184ZM109.17 23.92C109.17 24.5173 109.341 24.9867 109.682 25.328C110.023 25.6693 110.493 25.84 111.09 25.84H114.482C115.079 25.84 115.549 25.6693 115.89 25.328C116.231 24.9867 116.402 24.5173 116.402 23.92C116.402 23.3227 116.231 22.8533 115.89 22.512C115.549 22.1707 115.079 22 114.482 22H111.09C110.493 22 110.023 22.1707 109.682 22.512C109.341 22.8533 109.17 23.3227 109.17 23.92ZM109.17 13.936C109.17 15.1307 109.767 15.728 110.962 15.728H114.61C115.805 15.728 116.402 15.1307 116.402 13.936C116.402 12.7413 115.805 12.144 114.61 12.144H110.962C109.767 12.144 109.17 12.7413 109.17 13.936ZM121.074 31.408H110.834C109.725 31.408 109.17 31.9413 109.17 33.008C109.17 34.1173 109.725 34.672 110.834 34.672H121.906C122.589 34.672 123.122 34.8853 123.506 35.312C123.933 35.696 124.146 36.2293 124.146 36.912V38.256C124.146 38.9387 123.933 39.4933 123.506 39.92C123.122 40.304 122.589 40.496 121.906 40.496H111.026C109.789 40.496 109.17 41.0933 109.17 42.288C109.17 43.5253 109.789 44.144 111.026 44.144H124.21C124.893 44.144 125.426 44.3573 125.81 44.784C126.237 45.168 126.45 45.7013 126.45 46.384V48.112C126.45 48.7947 126.237 49.3493 125.81 49.776C125.426 50.16 124.893 50.352 124.21 50.352H111.41C110.727 50.352 110.173 50.5653 109.746 50.992C109.362 51.376 109.17 51.9093 109.17 52.592V56.56C109.17 57.2427 108.957 57.776 108.53 58.16C108.146 58.5867 107.613 58.8 106.93 58.8H103.794C103.111 58.8 102.557 58.5867 102.13 58.16C101.746 57.776 101.554 57.2427 101.554 56.56V52.592C101.554 51.9093 101.341 51.376 100.914 50.992C100.53 50.5653 99.9967 50.352 99.314 50.352H87.794C87.1113 50.352 86.5567 50.16 86.13 49.776C85.746 49.3493 85.554 48.7947 85.554 48.112V46.384C85.554 45.7013 85.746 45.168 86.13 44.784C86.5567 44.3573 87.1113 44.144 87.794 44.144H99.762C100.957 44.144 101.554 43.5253 101.554 42.288C101.554 41.0933 100.957 40.496 99.762 40.496H90.802C90.1193 40.496 89.5647 40.304 89.138 39.92C88.754 39.4933 88.562 38.9387 88.562 38.256V36.912C88.562 36.2293 88.754 35.696 89.138 35.312C89.5647 34.8853 90.1193 34.672 90.802 34.672H99.954C101.021 34.672 101.554 34.1173 101.554 33.008C101.554 31.9413 101.021 31.408 99.954 31.408H91.186C90.5033 31.408 89.9487 31.216 89.522 30.832C89.138 30.4053 88.946 29.8507 88.946 29.168V28.08C88.946 27.3973 89.138 26.864 89.522 26.48C89.9487 26.0533 90.5033 25.84 91.186 25.84H99.634C100.231 25.84 100.701 25.6693 101.042 25.328C101.383 24.9867 101.554 24.5173 101.554 23.92C101.554 23.3227 101.383 22.8533 101.042 22.512C100.701 22.1707 100.231 22 99.634 22H88.178C87.4953 22 86.9407 21.808 86.514 21.424C86.13 20.9973 85.938 20.4427 85.938 19.76V17.968C85.938 17.2853 86.13 16.752 86.514 16.368C86.9407 15.9413 87.4953 15.728 88.178 15.728H99.762C100.957 15.728 101.554 15.1307 101.554 13.936C101.554 12.7413 100.957 12.144 99.762 12.144H91.442C90.7593 12.144 90.2047 11.952 89.778 11.568C89.394 11.1413 89.202 10.5867 89.202 9.904V8.752C89.202 8.06933 89.394 7.536 89.778 7.152C90.2047 6.72533 90.7593 6.512 91.442 6.512H99.314C99.9967 6.512 100.53 6.32 100.914 5.936C101.341 5.50933 101.554 4.95466 101.554 4.272V2.8C101.554 2.11733 101.746 1.584 102.13 1.2C102.557 0.773331 103.111 0.559998 103.794 0.559998H106.93C107.613 0.559998 108.146 0.773331 108.53 1.2C108.957 1.584 109.17 2.11733 109.17 2.8V4.272C109.17 4.95466 109.362 5.50933 109.746 5.936C110.173 6.32 110.727 6.512 111.41 6.512H121.074C121.757 6.512 122.29 6.72533 122.674 7.152C123.101 7.536 123.314 8.06933 123.314 8.752V13.808C123.314 14.4053 123.485 14.8747 123.826 15.216C124.167 15.5573 124.637 15.728 125.234 15.728C125.831 15.728 126.301 15.8987 126.642 16.24C126.983 16.5813 127.154 17.0507 127.154 17.648V20.08C127.154 20.6773 126.983 21.1467 126.642 21.488C126.301 21.8293 125.831 22 125.234 22C124.637 22 124.167 22.1707 123.826 22.512C123.485 22.8533 123.314 23.3227 123.314 23.92V29.168C123.314 29.8507 123.101 30.4053 122.674 30.832C122.29 31.216 121.757 31.408 121.074 31.408ZM192.818 24.944H176.242C175.261 24.944 174.578 25.2213 174.194 25.776C173.853 26.3307 173.853 27.0347 174.194 27.888C175.175 30.3627 176.306 32.7093 177.586 34.928C178.866 37.104 180.317 39.152 181.938 41.072C185.266 45.1253 189.405 48.3467 194.354 50.736C195.634 51.3333 195.805 52.1653 194.866 53.232C194.653 53.488 194.418 53.744 194.162 54C193.906 54.2987 193.671 54.6187 193.458 54.96C193.202 55.3013 192.946 55.6 192.69 55.856C192.477 56.1547 192.263 56.4747 192.05 56.816C191.709 57.328 191.261 57.6693 190.706 57.84C190.194 58.0533 189.639 57.9893 189.042 57.648C184.306 55.1733 180.253 51.9307 176.882 47.92C174.279 44.8907 172.039 41.5413 170.162 37.872C169.309 36.208 168.477 35.3973 167.666 35.44C166.898 35.44 166.087 36.2933 165.234 38C163.783 41.1147 161.885 44.1013 159.538 46.96C156.125 51.1413 151.602 54.7253 145.97 57.712C145.458 58.0107 144.925 58.0747 144.37 57.904C143.858 57.776 143.431 57.456 143.09 56.944C142.877 56.688 142.663 56.432 142.45 56.176C142.237 55.92 142.023 55.6427 141.81 55.344C141.554 55.0453 141.298 54.768 141.042 54.512C140.829 54.256 140.594 54 140.338 53.744C139.869 53.3173 139.634 52.912 139.634 52.528C139.677 52.1013 139.997 51.7387 140.594 51.44C146.567 48.4107 151.175 44.6987 154.418 40.304C157.319 36.2933 159.41 32.0693 160.69 27.632C160.903 26.8213 160.818 26.1813 160.434 25.712C160.05 25.2 159.431 24.944 158.578 24.944H142.066C141.383 24.944 140.829 24.752 140.402 24.368C140.018 23.9413 139.826 23.3867 139.826 22.704V19.504C139.826 18.8213 140.018 18.288 140.402 17.904C140.829 17.4773 141.383 17.264 142.066 17.264H160.498C161.095 17.264 161.586 17.072 161.97 16.688C162.397 16.304 162.653 15.8133 162.738 15.216C162.909 13.0827 163.037 11.0133 163.122 9.008C163.207 7.00266 163.229 5.04 163.186 3.12V1.84C163.186 1.02933 163.591 0.623997 164.402 0.623997L169.074 0.687996C169.757 0.687996 170.29 0.90133 170.674 1.328C171.101 1.712 171.314 2.24533 171.314 2.928C171.271 6.68266 171.079 10.6507 170.738 14.832C170.653 15.5573 170.823 16.1547 171.25 16.624C171.677 17.0507 172.253 17.264 172.978 17.264H192.818C193.501 17.264 194.034 17.4773 194.418 17.904C194.845 18.288 195.058 18.8213 195.058 19.504V22.704C195.058 23.3867 194.845 23.9413 194.418 24.368C194.034 24.752 193.501 24.944 192.818 24.944ZM216.626 19.184V21.808C216.626 22.4907 216.413 23.0453 215.986 23.472C215.602 23.856 215.069 24.048 214.386 24.048H211.89C211.207 24.048 210.653 23.856 210.226 23.472C209.842 23.0453 209.65 22.4907 209.65 21.808V12.656C209.65 11.9733 209.842 11.44 210.226 11.056C210.653 10.6293 211.207 10.416 211.89 10.416H215.41C216.519 10.416 217.245 10.1173 217.586 9.52C217.97 8.92266 217.863 8.15466 217.266 7.216C217.138 7.00266 217.01 6.832 216.882 6.704C216.797 6.53333 216.69 6.36266 216.562 6.192C216.05 5.46666 215.858 4.80533 215.986 4.208C216.157 3.568 216.647 3.07733 217.458 2.736L219.634 1.712C220.103 1.49866 220.551 1.456 220.978 1.584C221.447 1.712 221.853 1.94666 222.194 2.288C222.578 2.75733 222.941 3.248 223.282 3.76C223.666 4.22933 224.05 4.72 224.434 5.232C224.775 5.744 225.095 6.23466 225.394 6.704C225.693 7.17333 225.97 7.64266 226.226 8.112C226.653 8.92267 226.482 9.49866 225.714 9.84C225.33 10.0107 225.138 10.16 225.138 10.288C225.181 10.3733 225.415 10.416 225.842 10.416H231.73C232.711 10.416 233.394 10.1387 233.778 9.584C234.162 9.02933 234.141 8.32533 233.714 7.472C233.33 6.576 232.882 5.68 232.37 4.784C231.943 4.05866 231.837 3.39733 232.05 2.8C232.263 2.20267 232.754 1.75467 233.522 1.456L235.954 0.559998C236.423 0.389331 236.871 0.367997 237.298 0.495998C237.767 0.623997 238.151 0.90133 238.45 1.328C239.175 2.352 239.837 3.41866 240.434 4.528L241.714 7.088C241.927 7.64266 241.927 8.15466 241.714 8.624C241.501 9.09333 241.117 9.43467 240.562 9.648C240.007 9.86133 239.73 10.0533 239.73 10.224C239.773 10.352 240.093 10.416 240.69 10.416H245.618C246.429 10.416 247.047 10.0747 247.474 9.392C248.199 8.28266 248.882 7.17333 249.522 6.064C250.205 4.912 250.823 3.78133 251.378 2.672C251.634 2.16 251.997 1.79733 252.466 1.584C252.978 1.328 253.511 1.30666 254.066 1.52L256.946 2.352C257.842 2.608 258.397 3.056 258.61 3.696C258.866 4.336 258.717 5.04 258.162 5.808C257.991 5.97867 257.842 6.14933 257.714 6.32C257.586 6.49066 257.458 6.66133 257.33 6.832C256.519 7.94133 256.263 8.816 256.562 9.456C256.903 10.096 257.757 10.416 259.122 10.416H261.49C262.173 10.416 262.706 10.6293 263.09 11.056C263.517 11.44 263.73 11.9733 263.73 12.656V21.808C263.73 22.4907 263.517 23.0453 263.09 23.472C262.706 23.856 262.173 24.048 261.49 24.048H258.674C257.991 24.048 257.437 23.856 257.01 23.472C256.626 23.0453 256.434 22.4907 256.434 21.808V19.184C256.434 18.5013 256.221 17.968 255.794 17.584C255.41 17.1573 254.877 16.944 254.194 16.944H218.866C218.183 16.944 217.629 17.1573 217.202 17.584C216.818 17.968 216.626 18.5013 216.626 19.184ZM264.434 37.872V40.304C264.434 40.9867 264.221 41.5413 263.794 41.968C263.41 42.352 262.877 42.544 262.194 42.544H242.482C241.799 42.544 241.245 42.7573 240.818 43.184C240.434 43.568 240.242 44.1013 240.242 44.784V50.48C240.242 54.3627 238.941 56.6453 236.338 57.328C234.887 57.84 233.159 58.16 231.154 58.288C229.618 58.416 227.869 58.48 225.906 58.48C225.394 58.48 224.925 58.3307 224.498 58.032C224.114 57.7333 223.837 57.328 223.666 56.816C223.538 56.4747 223.41 56.1333 223.282 55.792C223.154 55.4933 223.026 55.1733 222.898 54.832C222.727 54.4907 222.578 54.192 222.45 53.936C222.322 53.6373 222.194 53.3387 222.066 53.04C221.426 51.9307 221.767 51.376 223.09 51.376C223.773 51.4187 224.434 51.44 225.074 51.44C225.757 51.44 226.439 51.44 227.122 51.44C228.999 51.4827 230.279 51.4827 230.962 51.44C231.687 51.44 232.135 51.3547 232.306 51.184C232.519 50.9707 232.626 50.6933 232.626 50.352V44.784C232.626 44.1013 232.413 43.568 231.986 43.184C231.602 42.7573 231.069 42.544 230.386 42.544H211.058C210.375 42.544 209.821 42.352 209.394 41.968C209.01 41.5413 208.818 40.9867 208.818 40.304V37.872C208.818 37.1893 209.01 36.656 209.394 36.272C209.821 35.8453 210.375 35.632 211.058 35.632H230.706C231.303 35.632 231.773 35.4613 232.114 35.12C232.455 34.7787 232.626 34.3093 232.626 33.712V33.264C232.626 32.3253 233.095 31.6427 234.034 31.216C234.375 31.0027 234.738 30.832 235.122 30.704C235.506 30.5333 235.869 30.3413 236.21 30.128C237.277 29.5733 237.746 29.104 237.618 28.72C237.533 28.336 236.893 28.144 235.698 28.144H222.258C221.575 28.144 221.021 27.952 220.594 27.568C220.21 27.1413 220.018 26.5867 220.018 25.904V23.984C220.018 23.3013 220.21 22.768 220.594 22.384C221.021 21.9573 221.575 21.744 222.258 21.744H247.858C247.943 21.744 248.029 21.744 248.114 21.744C248.199 21.744 248.285 21.7227 248.37 21.68L248.882 21.552C249.394 21.424 249.863 21.5307 250.29 21.872L252.274 23.408C252.914 23.92 253.234 24.496 253.234 25.136C253.277 25.7333 252.978 26.288 252.338 26.8C249.01 29.5307 245.149 32.0053 240.754 34.224C240.413 34.352 240.242 34.6293 240.242 35.056C240.242 35.44 240.434 35.632 240.818 35.632H262.194C262.877 35.632 263.41 35.8453 263.794 36.272C264.221 36.656 264.434 37.1893 264.434 37.872ZM305.586 54.32H279.922C279.239 54.32 278.685 54.128 278.258 53.744C277.874 53.3173 277.682 52.7627 277.682 52.08V48.816C277.682 48.0907 278.002 47.472 278.642 46.96C280.093 45.8933 281.522 44.784 282.93 43.632C284.381 42.48 285.81 41.264 287.218 39.984C290.29 37.168 292.871 34.2667 294.962 31.28C297.01 28.336 298.034 25.5627 298.034 22.96C298.034 20.5707 297.351 18.6933 295.986 17.328C294.621 16.0053 292.615 15.344 289.97 15.344C288.007 15.344 286.066 15.7493 284.146 16.56C283.634 16.7733 283.143 17.008 282.674 17.264C282.205 17.4773 281.757 17.712 281.33 17.968C279.623 18.9067 278.77 18.4373 278.77 16.56V12.656C278.77 11.888 279.09 11.2907 279.73 10.864C283.271 8.688 287.154 7.6 291.378 7.6C294.279 7.6 296.882 8.112 299.186 9.136C301.575 10.2453 303.41 11.824 304.69 13.872C306.013 15.9627 306.674 18.5653 306.674 21.68C306.674 25.9467 305.159 30.2347 302.13 34.544C300.082 37.4027 297.543 40.1973 294.514 42.928C293.021 44.2933 292.402 45.3387 292.658 46.064C292.914 46.7893 294.045 47.152 296.05 47.152H305.586C306.269 47.152 306.802 47.3653 307.186 47.792C307.613 48.176 307.826 48.7093 307.826 49.392V52.08C307.826 52.7627 307.613 53.3173 307.186 53.744C306.802 54.128 306.269 54.32 305.586 54.32ZM336.407 54.896C332.823 54.896 329.815 53.872 327.383 51.824C324.909 49.8613 323.053 47.0667 321.815 43.44C320.535 39.856 319.895 35.7173 319.895 31.024C319.895 23.7707 321.325 18.0107 324.183 13.744C326.999 9.43467 331.074 7.28 336.407 7.28C341.783 7.28 345.922 9.43467 348.823 13.744C351.639 18.0107 353.047 23.7707 353.047 31.024C353.047 35.632 352.429 39.7493 351.191 43.376C349.997 46.9173 348.162 49.7333 345.687 51.824C343.213 53.872 340.119 54.896 336.407 54.896ZM336.407 47.28C338.967 47.28 340.951 45.8933 342.359 43.12C343.767 40.3467 344.471 36.3147 344.471 31.024C344.471 25.6053 343.746 21.5733 342.295 18.928C340.845 16.24 338.882 14.896 336.407 14.896C334.061 14.896 332.141 16.24 330.647 18.928C329.154 21.6587 328.407 25.6907 328.407 31.024C328.407 36.3573 329.133 40.3893 330.583 43.12C332.077 45.8933 334.018 47.28 336.407 47.28ZM392.701 54.32H367.037C366.354 54.32 365.8 54.128 365.373 53.744C364.989 53.3173 364.797 52.7627 364.797 52.08V48.816C364.797 48.0907 365.117 47.472 365.757 46.96C367.208 45.8933 368.637 44.784 370.045 43.632C371.496 42.48 372.925 41.264 374.333 39.984C377.405 37.168 379.986 34.2667 382.077 31.28C384.125 28.336 385.149 25.5627 385.149 22.96C385.149 20.5707 384.466 18.6933 383.101 17.328C381.736 16.0053 379.73 15.344 377.085 15.344C375.122 15.344 373.181 15.7493 371.261 16.56C370.749 16.7733 370.258 17.008 369.789 17.264C369.32 17.4773 368.872 17.712 368.445 17.968C366.738 18.9067 365.885 18.4373 365.885 16.56V12.656C365.885 11.888 366.205 11.2907 366.845 10.864C370.386 8.688 374.269 7.6 378.493 7.6C381.394 7.6 383.997 8.112 386.301 9.136C388.69 10.2453 390.525 11.824 391.805 13.872C393.128 15.9627 393.789 18.5653 393.789 21.68C393.789 25.9467 392.274 30.2347 389.245 34.544C387.197 37.4027 384.658 40.1973 381.629 42.928C380.136 44.2933 379.517 45.3387 379.773 46.064C380.029 46.7893 381.16 47.152 383.165 47.152H392.701C393.384 47.152 393.917 47.3653 394.301 47.792C394.728 48.176 394.941 48.7093 394.941 49.392V52.08C394.941 52.7627 394.728 53.3173 394.301 53.744C393.917 54.128 393.384 54.32 392.701 54.32ZM421.218 54.704C419.085 54.704 416.973 54.4907 414.882 54.064C413.133 53.7227 411.661 53.3173 410.466 52.848C410.04 52.72 409.698 52.4853 409.442 52.144C409.229 51.76 409.122 51.3333 409.122 50.864V47.984C409.122 46.832 409.421 46.0853 410.018 45.744C410.616 45.36 411.448 45.36 412.514 45.744C415.074 46.6827 417.784 47.152 420.642 47.152C423.288 47.152 425.336 46.5333 426.786 45.296C428.194 44.0587 428.898 42.5013 428.898 40.624C428.898 36.4853 425.528 34.416 418.786 34.416H417.506C416.61 34.416 416.162 33.968 416.162 33.072V28.72C416.162 27.8667 416.61 27.44 417.506 27.44H418.786C421.218 27.44 423.309 26.9067 425.058 25.84C426.85 24.7307 427.746 23.1307 427.746 21.04C427.746 18.992 427.064 17.4773 425.698 16.496C424.376 15.5573 422.626 15.088 420.45 15.088C418.786 15.088 417.058 15.3867 415.266 15.984C414.84 16.112 414.434 16.2613 414.05 16.432C413.666 16.56 413.304 16.7093 412.962 16.88C411.512 17.5627 410.786 17.1147 410.786 15.536V11.44C410.786 11.056 410.893 10.6933 411.106 10.352C411.32 10.0107 411.597 9.75466 411.938 9.584C412.792 9.15733 413.901 8.752 415.266 8.368C417.058 7.856 418.914 7.6 420.834 7.6C425.741 7.6 429.581 8.79467 432.354 11.184C435.042 13.5307 436.386 16.496 436.386 20.08C436.386 22.64 435.789 24.8373 434.594 26.672C434.253 27.184 433.869 27.6747 433.442 28.144C433.058 28.5707 432.632 28.976 432.162 29.36C431.309 30 430.904 30.5333 430.946 30.96C430.989 31.344 431.458 31.792 432.354 32.304C432.952 32.6027 433.485 32.9653 433.954 33.392C434.424 33.776 434.872 34.2027 435.298 34.672C436.749 36.4213 437.474 38.7253 437.474 41.584C437.474 45.296 436.088 48.4107 433.314 50.928C430.456 53.4453 426.424 54.704 421.218 54.704ZM470.856 38.384H477.192C477.875 38.384 478.408 38.192 478.792 37.808C479.219 37.3813 479.432 36.8267 479.432 36.144V31.152C479.432 30.4693 479.219 29.936 478.792 29.552C478.408 29.1253 477.875 28.912 477.192 28.912H470.856C470.173 28.912 469.619 29.1253 469.192 29.552C468.808 29.936 468.616 30.4693 468.616 31.152V36.144C468.616 36.8267 468.808 37.3813 469.192 37.808C469.619 38.192 470.173 38.384 470.856 38.384ZM508.488 40.624V43.312C508.488 43.9947 508.275 44.5493 507.848 44.976C507.464 45.36 506.931 45.552 506.248 45.552H489.352C488.669 45.552 488.115 45.7653 487.688 46.192C487.304 46.576 487.112 47.1093 487.112 47.792V56.624C487.112 57.3067 486.899 57.84 486.472 58.224C486.088 58.6507 485.555 58.864 484.872 58.864H481.672C480.989 58.864 480.435 58.6507 480.008 58.224C479.624 57.84 479.432 57.3067 479.432 56.624V47.792C479.432 47.1093 479.219 46.576 478.792 46.192C478.408 45.7653 477.875 45.552 477.192 45.552H453.576C452.893 45.552 452.339 45.36 451.912 44.976C451.528 44.5493 451.336 43.9947 451.336 43.312V40.624C451.336 39.9413 451.528 39.408 451.912 39.024C452.339 38.5973 452.893 38.384 453.576 38.384H458.952C459.635 38.384 460.168 38.192 460.552 37.808C460.979 37.3813 461.192 36.8267 461.192 36.144V24.304C461.192 23.6213 461.384 23.088 461.768 22.704C462.195 22.2773 462.749 22.064 463.432 22.064H477.192C477.875 22.064 478.408 21.872 478.792 21.488C479.219 21.0613 479.432 20.5067 479.432 19.824V16.816C479.432 16.1333 479.219 15.6 478.792 15.216C478.408 14.7893 477.875 14.576 477.192 14.576H467.336C466.483 14.576 465.843 14.9387 465.416 15.664C464.392 17.3707 463.347 18.9707 462.28 20.464C461.213 21.9147 460.104 23.2587 458.952 24.496C458.568 24.9227 458.099 25.1573 457.544 25.2C457.032 25.2 456.541 25.0293 456.072 24.688L454.536 23.472C454.195 23.2587 453.896 23.0667 453.64 22.896C453.384 22.6827 453.128 22.4693 452.872 22.256C451.805 21.5307 451.72 20.6773 452.616 19.696C457.267 15.088 460.915 9.28533 463.56 2.288C463.773 1.69066 464.115 1.264 464.584 1.008C465.096 0.751996 465.651 0.70933 466.248 0.879997L469.576 1.712C470.259 1.88266 470.728 2.224 470.984 2.736C471.283 3.248 471.304 3.824 471.048 4.464C471.048 4.592 471.005 4.74133 470.92 4.912C470.579 5.68 470.536 6.29867 470.792 6.768C471.091 7.19466 471.667 7.408 472.52 7.408H502.792C503.475 7.408 504.008 7.62133 504.392 8.048C504.819 8.432 505.032 8.96533 505.032 9.648V12.336C505.032 13.0187 504.819 13.5733 504.392 14C504.008 14.384 503.475 14.576 502.792 14.576H489.352C488.669 14.576 488.115 14.7893 487.688 15.216C487.304 15.6 487.112 16.1333 487.112 16.816V19.824C487.112 20.5067 487.304 21.0613 487.688 21.488C488.115 21.872 488.669 22.064 489.352 22.064H501.32C502.003 22.064 502.536 22.2773 502.92 22.704C503.347 23.088 503.56 23.6213 503.56 24.304V26.672C503.56 27.3547 503.347 27.9093 502.92 28.336C502.536 28.72 502.003 28.912 501.32 28.912H489.352C488.669 28.912 488.115 29.1253 487.688 29.552C487.304 29.936 487.112 30.4693 487.112 31.152V36.144C487.112 36.8267 487.304 37.3813 487.688 37.808C488.115 38.192 488.669 38.384 489.352 38.384H506.248C506.931 38.384 507.464 38.5973 507.848 39.024C508.275 39.408 508.488 39.9413 508.488 40.624ZM532.232 15.088V22.448C532.232 25.9467 532.104 29.8507 531.848 34.16C531.549 38.4693 530.973 42.7787 530.12 47.088C529.736 48.88 529.288 50.608 528.776 52.272C528.264 53.936 527.667 55.5147 526.984 57.008C526.515 58.032 525.725 58.2667 524.616 57.712C524.403 57.584 524.147 57.456 523.848 57.328C523.592 57.2 523.315 57.0507 523.016 56.88C522.333 56.5387 521.736 56.2827 521.224 56.112C520.712 55.8987 520.349 55.5787 520.136 55.152C519.965 54.768 520.008 54.32 520.264 53.808C520.861 52.4427 521.395 51.0133 521.864 49.52C522.333 47.984 522.739 46.4053 523.08 44.784C523.464 42.8213 523.784 40.88 524.04 38.96C524.296 36.9973 524.467 35.0347 524.552 33.072C524.637 31.1093 524.701 29.2533 524.744 27.504C524.829 25.7547 524.872 24.0907 524.872 22.512V8.112C524.872 7.42933 525.064 6.896 525.448 6.512C525.875 6.08533 526.429 5.872 527.112 5.872H545.928C546.568 5.872 547.037 5.68 547.336 5.296C547.635 4.912 547.677 4.42133 547.464 3.824V3.76C547.251 3.16267 547.251 2.65067 547.464 2.224C547.677 1.75466 548.104 1.456 548.744 1.328L552.456 0.495998C552.968 0.367997 553.459 0.431997 553.928 0.687996C554.397 0.901329 554.739 1.24266 554.952 1.712C555.165 2.13866 555.336 2.56533 555.464 2.992C555.635 3.41866 555.827 3.86666 556.04 4.336C556.211 4.80533 556.488 5.18933 556.872 5.488C557.256 5.744 557.683 5.872 558.152 5.872H574.92C575.603 5.872 576.136 6.08533 576.52 6.512C576.947 6.896 577.16 7.42933 577.16 8.112V10.608C577.16 11.2907 576.947 11.8453 576.52 12.272C576.136 12.656 575.603 12.848 574.92 12.848H534.472C533.789 12.848 533.235 13.0613 532.808 13.488C532.424 13.872 532.232 14.4053 532.232 15.088ZM558.152 24.176H550.92C550.323 24.176 549.832 24.368 549.448 24.752C549.064 25.136 548.872 25.6267 548.872 26.224C548.872 26.8213 549.064 27.312 549.448 27.696C549.832 28.08 550.323 28.272 550.92 28.272H558.152C558.749 28.272 559.24 28.08 559.624 27.696C560.008 27.312 560.2 26.8213 560.2 26.224C560.2 25.6267 560.008 25.136 559.624 24.752C559.24 24.368 558.749 24.176 558.152 24.176ZM565.32 33.904H544.136C543.453 33.904 542.899 33.712 542.472 33.328C542.088 32.9013 541.896 32.3467 541.896 31.664V26.416C541.896 25.7333 541.683 25.2 541.256 24.816C540.872 24.3893 540.339 24.176 539.656 24.176H535.688C535.005 24.176 534.451 23.984 534.024 23.6C533.64 23.1733 533.448 22.6187 533.448 21.936V20.592C533.448 19.9093 533.64 19.376 534.024 18.992C534.451 18.5653 535.005 18.352 535.688 18.352H539.848C540.445 18.352 540.936 18.16 541.32 17.776C541.704 17.392 541.896 16.9013 541.896 16.304C541.896 15.7067 542.088 15.216 542.472 14.832C542.856 14.448 543.347 14.256 543.944 14.256H546.824C547.421 14.256 547.912 14.448 548.296 14.832C548.68 15.216 548.872 15.7067 548.872 16.304C548.872 16.9013 549.064 17.392 549.448 17.776C549.832 18.16 550.323 18.352 550.92 18.352H558.152C558.749 18.352 559.24 18.16 559.624 17.776C560.008 17.392 560.2 16.9013 560.2 16.304C560.2 15.7067 560.392 15.216 560.776 14.832C561.16 14.448 561.651 14.256 562.248 14.256H565.512C566.109 14.256 566.6 14.448 566.984 14.832C567.368 15.216 567.56 15.7067 567.56 16.304C567.56 16.9013 567.752 17.392 568.136 17.776C568.52 18.16 569.011 18.352 569.608 18.352H574.344C575.027 18.352 575.56 18.5653 575.944 18.992C576.371 19.376 576.584 19.9093 576.584 20.592V21.936C576.584 22.6187 576.371 23.1733 575.944 23.6C575.56 23.984 575.027 24.176 574.344 24.176H569.8C569.117 24.176 568.563 24.3893 568.136 24.816C567.752 25.2 567.56 25.7333 567.56 26.416V31.664C567.56 32.3467 567.347 32.9013 566.92 33.328C566.536 33.712 566.003 33.904 565.32 33.904ZM557.448 42.224H550.664C549.171 42.224 548.317 42.5227 548.104 43.12C547.891 43.6747 548.403 44.3147 549.64 45.04C550.195 45.3813 550.771 45.7013 551.368 46C551.965 46.2987 552.584 46.5973 553.224 46.896C553.779 47.152 554.333 47.152 554.888 46.896C555.528 46.64 556.125 46.3627 556.68 46.064C557.277 45.7227 557.875 45.3813 558.472 45.04C559.709 44.3147 560.221 43.6747 560.008 43.12C559.795 42.5227 558.941 42.224 557.448 42.224ZM569.48 36.464L571.4 37.488C571.997 37.7867 572.381 38.2133 572.552 38.768C572.723 39.3227 572.637 39.8987 572.296 40.496C571.528 41.6907 570.675 42.8213 569.736 43.888C568.84 44.912 567.88 45.9147 566.856 46.896C565.619 47.9627 565.064 48.88 565.192 49.648C565.363 50.3733 566.259 50.864 567.88 51.12C569.203 51.3333 570.547 51.5253 571.912 51.696C573.32 51.8667 574.749 52.0373 576.2 52.208C577.437 52.2933 577.672 52.8267 576.904 53.808C576.733 54.064 576.563 54.32 576.392 54.576C576.221 54.832 576.051 55.1093 575.88 55.408C575.624 55.7493 575.389 56.0907 575.176 56.432C575.005 56.7733 574.813 57.0933 574.6 57.392C574.131 58.288 573.405 58.6933 572.424 58.608C569.096 58.2667 565.939 57.7333 562.952 57.008C559.965 56.3253 557.128 55.4933 554.44 54.512C553.971 54.2987 553.459 54.2773 552.904 54.448C547.699 56.1973 541.939 57.4347 535.624 58.16C534.557 58.288 533.811 57.8187 533.384 56.752C533.256 56.5387 533.128 56.304 533 56.048C532.915 55.792 532.808 55.536 532.68 55.28C532.509 54.9813 532.36 54.704 532.232 54.448C532.104 54.192 531.976 53.936 531.848 53.68C531.549 53.2107 531.464 52.848 531.592 52.592C531.763 52.2933 532.104 52.1227 532.616 52.08C534.024 51.952 535.389 51.8027 536.712 51.632C538.035 51.4613 539.336 51.2693 540.616 51.056C542.109 50.8 542.92 50.3093 543.048 49.584C543.219 48.816 542.749 47.92 541.64 46.896C540.701 46.0427 539.805 45.1467 538.952 44.208C538.355 43.5253 538.483 43.0133 539.336 42.672C540.147 42.3733 540.104 42.224 539.208 42.224H536.2C535.517 42.224 534.963 42.032 534.536 41.648C534.152 41.2213 533.96 40.6667 533.96 39.984V38.64C533.96 37.9573 534.152 37.424 534.536 37.04C534.963 36.6133 535.517 36.4 536.2 36.4H567.304C567.475 36.4 567.603 36.3787 567.688 36.336L568.2 36.272C568.669 36.1867 569.096 36.2507 569.48 36.464Z" fill="white"/>
</svg>
