<svg width="496" height="79" viewBox="0 0 496 79" fill="none" xmlns="http://www.w3.org/2000/svg">
<g clip-path="url(#clip0_616_42758)">
<path d="M47.066 32.84H51.034C52.1007 32.84 52.8047 32.5627 53.146 32.008C53.53 31.4107 53.4447 30.664 52.89 29.768C52.5487 29.256 52.2074 28.744 51.866 28.232C51.5247 27.6773 51.1407 27.1227 50.714 26.568C50.5007 26.2693 50.2447 26.056 49.946 25.928C49.6473 25.7573 49.3273 25.672 48.986 25.672H48.858C48.0047 25.672 47.3647 26.0347 46.938 26.76C46.682 27.2293 46.426 27.6773 46.17 28.104C45.914 28.5307 45.6367 28.9573 45.338 29.384C44.6127 30.4933 44.378 31.3467 44.634 31.944C44.9327 32.5413 45.7433 32.84 47.066 32.84ZM53.53 40.712C53.53 39.5173 52.9327 38.92 51.738 38.92H42.906C41.7113 38.92 41.114 39.5173 41.114 40.712C41.114 41.9067 41.7113 42.504 42.906 42.504H51.738C52.9327 42.504 53.53 41.9067 53.53 40.712ZM33.818 50.44C33.818 49.8853 33.6473 49.4373 33.306 49.096C32.9647 48.7547 32.5167 48.584 31.962 48.584H24.538C23.9407 48.584 23.5993 48.8827 23.514 49.48L23.386 50.376L23.258 51.336C23.1727 51.976 23.45 52.296 24.09 52.296H31.962C32.5167 52.296 32.9647 52.1253 33.306 51.784C33.6473 51.4427 33.818 50.9947 33.818 50.44ZM22.426 25.736C21.8287 25.736 21.338 25.992 20.954 26.504C20.6127 27.016 20.2713 27.528 19.93 28.04C19.5887 28.5093 19.2473 28.9787 18.906 29.448C18.0527 30.5147 17.754 31.3467 18.01 31.944C18.266 32.5413 19.0767 32.84 20.442 32.84H23.578C24.474 32.84 25.114 32.584 25.498 32.072C25.882 31.56 25.9033 30.8773 25.562 30.024C25.306 29.4693 25.0287 28.9147 24.73 28.36C24.4313 27.7627 24.1113 27.1653 23.77 26.568C23.642 26.312 23.45 26.12 23.194 25.992C22.938 25.8213 22.682 25.736 22.426 25.736ZM66.842 22.536V23.432C66.842 24.1147 66.6287 24.6693 66.202 25.096C65.818 25.48 65.2847 25.672 64.602 25.672H60.826C59.9727 25.672 59.4394 25.864 59.226 26.248C59.0553 26.632 59.2047 27.1653 59.674 27.848C59.7167 27.9333 59.7807 28.0187 59.866 28.104C60.25 28.7013 60.3354 29.2987 60.122 29.896C59.9513 30.4507 59.5247 30.856 58.842 31.112L57.562 31.688C56.7087 32.0293 56.282 32.3067 56.282 32.52C56.3247 32.7333 56.8367 32.84 57.818 32.84H58.65C59.3327 32.84 59.866 33.0533 60.25 33.48C60.6767 33.864 60.89 34.3973 60.89 35.08V46.344C60.89 47.0267 60.6767 47.5813 60.25 48.008C59.866 48.392 59.3327 48.584 58.65 48.584H42.97C42.4153 48.584 41.9673 48.7547 41.626 49.096C41.2847 49.4373 41.114 49.8853 41.114 50.44C41.114 50.9947 41.2847 51.4427 41.626 51.784C41.9673 52.1253 42.4153 52.296 42.97 52.296L63.514 52.424C63.8127 52.424 63.962 52.5733 63.962 52.872V53.256L63.898 54.152L63.77 54.984C63.258 62.792 62.2767 67.4213 60.826 68.872L60.698 69C59.5034 70.3227 57.946 71.0267 56.026 71.112C54.49 71.3253 52.442 71.3893 49.882 71.304C48.73 71.2187 48.0473 70.6 47.834 69.448L47.45 67.72C47.3647 67.4213 47.258 67.144 47.13 66.888C47.0447 66.5893 46.938 66.312 46.81 66.056C46.426 65.032 46.746 64.5627 47.77 64.648C48.1113 64.6907 48.4527 64.7333 48.794 64.776C49.1353 64.776 49.4767 64.776 49.818 64.776C50.97 64.8187 51.8234 64.8187 52.378 64.776C53.3594 64.776 54.0634 64.584 54.49 64.2C54.9593 63.816 55.3433 62.728 55.642 60.936C55.8127 60.2107 55.6847 59.6133 55.258 59.144C54.8313 58.6747 54.2553 58.44 53.53 58.44H43.354C42.6713 58.44 42.1167 58.6533 41.69 59.08C41.306 59.464 41.114 59.9973 41.114 60.68V71.624C41.114 72.3067 40.9007 72.84 40.474 73.224C40.09 73.6507 39.5567 73.864 38.874 73.864H36.058C35.3753 73.864 34.8207 73.6507 34.394 73.224C34.01 72.84 33.818 72.3067 33.818 71.624V66.888C33.818 65.352 33.4767 64.4347 32.794 64.136C32.1113 63.7947 31.1513 64.1147 29.914 65.096C25.7753 68.3387 21.3167 70.9413 16.538 72.904C16.026 73.1173 15.5353 73.1387 15.066 72.968C14.5967 72.7973 14.1913 72.4773 13.85 72.008C13.6793 71.7947 13.5087 71.56 13.338 71.304C13.1673 71.048 12.9753 70.792 12.762 70.536C12.5487 70.28 12.3353 70.024 12.122 69.768C11.9087 69.512 11.6953 69.2773 11.482 69.064C10.714 68.2107 10.8633 67.592 11.93 67.208C13.9353 66.5253 15.834 65.7573 17.626 64.904C19.4607 64.0507 21.2313 63.112 22.938 62.088C24.602 61.1067 25.306 60.2533 25.05 59.528C24.8367 58.8027 23.7487 58.44 21.786 58.44H17.626C16.7727 58.44 16.1327 58.2053 15.706 57.736C15.322 57.224 15.2153 56.5413 15.386 55.688C15.5567 54.9627 15.706 54.1947 15.834 53.384C15.962 52.5733 16.09 51.72 16.218 50.824C16.5593 48.6907 16.8153 46.6213 16.986 44.616C17.0287 43.976 17.242 43.464 17.626 43.08C18.0527 42.696 18.586 42.504 19.226 42.504H32.026C33.2207 42.504 33.818 41.9067 33.818 40.712C33.818 39.5173 33.2207 38.92 32.026 38.92H17.114C16.4313 38.92 15.8767 38.728 15.45 38.344C15.066 37.9173 14.874 37.3627 14.874 36.68V34.12C14.874 33.352 14.554 32.7547 13.914 32.328C13.6153 32.1573 13.3167 31.9867 13.018 31.816C12.7193 31.6453 12.3993 31.4533 12.058 31.24L10.714 30.536C9.81801 30.0667 9.73268 29.4693 10.458 28.744C13.786 25.544 16.4953 21.5973 18.586 16.904C18.842 16.3493 19.2047 15.944 19.674 15.688C20.1433 15.432 20.6767 15.3893 21.274 15.56L25.498 16.712C25.882 16.7973 26.01 17.0107 25.882 17.352L25.626 17.928L25.05 19.144C24.8793 19.4853 24.858 19.784 24.986 20.04C25.114 20.2533 25.3913 20.36 25.818 20.36H36.698C37.3807 20.36 37.914 20.5733 38.298 21C38.7247 21.384 38.938 21.9173 38.938 22.6V23.496C38.938 24.1787 38.7247 24.7333 38.298 25.16C37.914 25.544 37.3807 25.736 36.698 25.736H33.434C32.666 25.736 32.154 25.9493 31.898 26.376C31.642 26.8027 31.6847 27.3787 32.026 28.104L32.218 28.488C32.474 29.0853 32.474 29.6613 32.218 30.216C32.0047 30.728 31.5993 31.0907 31.002 31.304L29.978 31.688C29.0393 32.0293 28.5913 32.3067 28.634 32.52C28.6767 32.7333 29.1887 32.84 30.17 32.84H40.026C41.2207 32.84 41.3273 32.52 40.346 31.88C40.09 31.752 39.834 31.624 39.578 31.496C39.322 31.3253 39.066 31.1547 38.81 30.984L37.338 30.216C36.8687 30.0027 36.6127 29.7253 36.57 29.384C36.5273 29 36.6767 28.6373 37.018 28.296C39.962 25.096 42.1807 21.3413 43.674 17.032C43.8873 16.4347 44.2287 16.008 44.698 15.752C45.21 15.4533 45.7647 15.368 46.362 15.496L49.69 16.264C50.2447 16.392 50.65 16.6693 50.906 17.096C51.162 17.48 51.1833 17.9493 50.97 18.504C50.5434 19.6987 50.9487 20.296 52.186 20.296H64.602C65.2847 20.296 65.818 20.5093 66.202 20.936C66.6287 21.32 66.842 21.8533 66.842 22.536ZM202.432 25.096H174.272C173.589 25.096 173.035 25.3093 172.608 25.736C172.224 26.12 172.032 26.6533 172.032 27.336V28.232C172.032 28.9147 172.224 29.4693 172.608 29.896C173.035 30.28 173.589 30.472 174.272 30.472H202.432C203.115 30.472 203.648 30.28 204.032 29.896C204.459 29.4693 204.672 28.9147 204.672 28.232V27.336C204.672 26.6533 204.459 26.12 204.032 25.736C203.648 25.3093 203.115 25.096 202.432 25.096ZM209.984 37.192H174.272C173.589 37.192 173.035 37.4053 172.608 37.832C172.224 38.216 172.032 38.7493 172.032 39.432C171.989 40.9253 171.925 42.4827 171.84 44.104C171.755 45.6827 171.648 47.368 171.52 49.16C171.136 53.512 170.389 57.8853 169.28 62.28C168.299 65.992 166.997 69.32 165.376 72.264C165.077 72.7333 164.693 73.0107 164.224 73.096C163.797 73.1813 163.349 73.0747 162.88 72.776C162.667 72.6053 162.411 72.4347 162.112 72.264C161.856 72.0933 161.579 71.9227 161.28 71.752L159.552 70.792C158.443 70.2373 158.208 69.4053 158.848 68.296C159.616 66.9307 160.277 65.5013 160.832 64.008C161.429 62.5147 161.941 60.9573 162.368 59.336C163.307 55.5387 163.904 51.6133 164.16 47.56C164.245 45.5547 164.309 43.656 164.352 41.864C164.437 40.072 164.48 38.3653 164.48 36.744V20.68C164.48 19.9973 164.672 19.464 165.056 19.08C165.483 18.6533 166.037 18.44 166.72 18.44H209.984C210.667 18.44 211.2 18.6533 211.584 19.08C212.011 19.464 212.224 19.9973 212.224 20.68V34.952C212.224 35.6347 212.011 36.1893 211.584 36.616C211.2 37 210.667 37.192 209.984 37.192ZM199.168 65.416H203.584C204.267 65.416 204.8 65.224 205.184 64.84C205.611 64.4133 205.824 63.8587 205.824 63.176V62.536C205.824 61.8533 205.611 61.32 205.184 60.936C204.8 60.5093 204.267 60.296 203.584 60.296H199.168C198.485 60.296 197.931 60.5093 197.504 60.936C197.12 61.32 196.928 61.8533 196.928 62.536V63.176C196.928 63.8587 197.12 64.4133 197.504 64.84C197.931 65.224 198.485 65.416 199.168 65.416ZM181.184 62.536V63.176C181.184 63.8587 181.376 64.4133 181.76 64.84C182.187 65.224 182.741 65.416 183.424 65.416H187.52C188.203 65.416 188.736 65.224 189.12 64.84C189.547 64.4133 189.76 63.8587 189.76 63.176V62.536C189.76 61.8533 189.547 61.32 189.12 60.936C188.736 60.5093 188.203 60.296 187.52 60.296H183.424C182.741 60.296 182.187 60.5093 181.76 60.936C181.376 61.32 181.184 61.8533 181.184 62.536ZM187.52 49.8H183.424C182.741 49.8 182.187 50.0133 181.76 50.44C181.376 50.824 181.184 51.3573 181.184 52.04V52.168C181.184 52.8507 181.376 53.4053 181.76 53.832C182.187 54.216 182.741 54.408 183.424 54.408H187.52C188.203 54.408 188.736 54.216 189.12 53.832C189.547 53.4053 189.76 52.8507 189.76 52.168V52.04C189.76 51.3573 189.547 50.824 189.12 50.44C188.736 50.0133 188.203 49.8 187.52 49.8ZM203.584 49.8H199.168C198.485 49.8 197.931 50.0133 197.504 50.44C197.12 50.824 196.928 51.3573 196.928 52.04V52.168C196.928 52.8507 197.12 53.4053 197.504 53.832C197.931 54.216 198.485 54.408 199.168 54.408H203.584C204.267 54.408 204.8 54.216 205.184 53.832C205.611 53.4053 205.824 52.8507 205.824 52.168V52.04C205.824 51.3573 205.611 50.824 205.184 50.44C204.8 50.0133 204.267 49.8 203.584 49.8ZM199.168 43.272H210.88C211.563 43.272 212.096 43.4853 212.48 43.912C212.907 44.296 213.12 44.8293 213.12 45.512V71.624C213.12 72.3067 212.907 72.84 212.48 73.224C212.096 73.6507 211.563 73.864 210.88 73.864H206.784C206.144 73.864 205.824 73.544 205.824 72.904C205.824 72.264 205.504 71.944 204.864 71.944H182.144C181.504 71.944 181.184 72.264 181.184 72.904C181.184 73.544 180.864 73.864 180.224 73.864H176.448C175.765 73.864 175.211 73.6507 174.784 73.224C174.4 72.84 174.208 72.3067 174.208 71.624V45.512C174.208 44.8293 174.4 44.296 174.784 43.912C175.211 43.4853 175.765 43.272 176.448 43.272H187.52C188.203 43.272 188.736 43.08 189.12 42.696C189.547 42.2693 189.76 41.7147 189.76 41.032V40.328C189.76 39.6453 189.952 39.112 190.336 38.728C190.763 38.3013 191.317 38.088 192 38.088H194.688C195.371 38.088 195.904 38.3013 196.288 38.728C196.715 39.112 196.928 39.6453 196.928 40.328V41.032C196.928 41.7147 197.12 42.2693 197.504 42.696C197.931 43.08 198.485 43.272 199.168 43.272ZM261.44 26.696C261.355 27.3787 261.269 28.0613 261.184 28.744C261.099 29.384 260.949 30.0667 260.736 30.792C260.437 31.8587 260.032 32.904 259.52 33.928C259.008 34.9093 258.347 35.8693 257.536 36.808C256.299 38.344 254.571 39.7307 252.352 40.968C251.883 41.224 251.413 41.288 250.944 41.16C250.475 41.032 250.069 40.7547 249.728 40.328C249.515 40.1147 249.301 39.9013 249.088 39.688C248.917 39.4747 248.725 39.24 248.512 38.984C248.299 38.728 248.085 38.4933 247.872 38.28C247.659 38.0667 247.445 37.8533 247.232 37.64C246.379 36.872 246.464 36.2107 247.488 35.656C249.195 34.8027 250.581 33.8427 251.648 32.776C252.885 31.4107 253.696 30.0027 254.08 28.552C254.464 27.0587 254.656 25.6293 254.656 24.264V19.784C254.656 19.1013 254.848 18.568 255.232 18.184C255.659 17.7573 256.213 17.544 256.896 17.544H274.752C275.435 17.544 275.968 17.7573 276.352 18.184C276.779 18.568 276.992 19.1013 276.992 19.784V31.176C276.992 32.072 277.056 32.712 277.184 33.096C277.312 33.5227 277.589 33.736 278.016 33.736H281.216L282.88 33.608H283.072L284.288 33.352C284.501 33.2667 284.651 33.3733 284.736 33.672V34.12C284.821 35.6987 284.949 37.128 285.12 38.408C285.205 39.0907 284.949 39.496 284.352 39.624C284.011 39.7093 283.712 39.752 283.456 39.752L281.344 39.88H277.376C274.347 39.88 272.341 39.176 271.36 37.768C270.421 36.4453 269.952 34.2267 269.952 31.112V26.632C269.952 25.9493 269.739 25.416 269.312 25.032C268.928 24.6053 268.395 24.392 267.712 24.392H263.808C263.125 24.392 262.571 24.6053 262.144 25.032C261.76 25.4587 261.525 26.0133 261.44 26.696ZM245.12 27.208L243.328 29.064C242.773 29.6187 242.176 29.8747 241.536 29.832C240.896 29.7893 240.32 29.4693 239.808 28.872C239.424 28.4027 238.997 27.9333 238.528 27.464C238.101 26.9947 237.632 26.4827 237.12 25.928C236.523 25.3307 235.925 24.7547 235.328 24.2C234.773 23.6027 234.197 23.0267 233.6 22.472C233.045 22.0027 232.768 21.4693 232.768 20.872C232.768 20.2747 233.024 19.72 233.536 19.208L235.136 17.672C235.563 17.288 236.032 17.096 236.544 17.096C237.099 17.0533 237.611 17.224 238.08 17.608C238.72 18.12 239.36 18.6747 240 19.272C240.64 19.8267 241.323 20.424 242.048 21.064C243.285 22.216 244.352 23.2827 245.248 24.264C245.632 24.7333 245.803 25.2453 245.76 25.8C245.76 26.312 245.547 26.7813 245.12 27.208ZM244.992 56.072L246.336 54.984C247.189 54.2587 247.829 54.4293 248.256 55.496C248.341 55.752 248.448 56.008 248.576 56.264C248.704 56.52 248.832 56.7973 248.96 57.096C249.131 57.5653 249.365 58.056 249.664 58.568C249.877 58.9947 249.941 59.4213 249.856 59.848C249.813 60.2747 249.621 60.6373 249.28 60.936C247.659 62.3013 246.229 63.5173 244.992 64.584C243.755 65.6507 242.688 66.5467 241.792 67.272C240.768 68.168 239.893 68.9147 239.168 69.512C238.485 70.152 237.931 70.6853 237.504 71.112C237.291 71.2827 237.099 71.432 236.928 71.56C236.8 71.688 236.672 71.8373 236.544 72.008C236.032 72.6053 235.605 72.52 235.264 71.752C235.093 71.4107 234.923 71.0693 234.752 70.728C234.581 70.3867 234.389 70.0453 234.176 69.704C233.963 69.3627 233.749 69.0427 233.536 68.744C233.365 68.4453 233.173 68.1467 232.96 67.848C232.661 67.464 232.533 67.1013 232.576 66.76C232.661 66.376 232.853 66.0133 233.152 65.672C233.493 65.3307 233.835 64.8827 234.176 64.328C234.816 63.304 235.136 62.0453 235.136 60.552V44.04C235.136 43.3573 234.923 42.824 234.496 42.44C234.112 42.0133 233.579 41.8 232.896 41.8H229.952C229.269 41.8 228.715 41.608 228.288 41.224C227.904 40.7973 227.712 40.2427 227.712 39.56V36.936C227.712 36.2533 227.904 35.72 228.288 35.336C228.715 34.9093 229.269 34.696 229.952 34.696H240.064C240.747 34.696 241.28 34.9093 241.664 35.336C242.091 35.72 242.304 36.2533 242.304 36.936V54.856C242.304 55.9227 242.539 56.584 243.008 56.84C243.52 57.0533 244.181 56.7973 244.992 56.072ZM269.184 49.416H261.824C260.672 49.416 259.904 49.7147 259.52 50.312C259.179 50.9093 259.349 51.656 260.032 52.552C260.629 53.4053 261.269 54.216 261.952 54.984C262.677 55.752 263.445 56.4987 264.256 57.224C264.683 57.608 265.152 57.8 265.664 57.8C266.176 57.8 266.624 57.608 267.008 57.224C268.544 55.7733 269.867 54.2373 270.976 52.616C271.616 51.6773 271.744 50.9093 271.36 50.312C271.019 49.7147 270.293 49.416 269.184 49.416ZM278.464 42.44L280.576 43.4C281.131 43.6133 281.515 43.976 281.728 44.488C281.984 44.9573 282.005 45.4693 281.792 46.024C280.811 48.84 279.659 51.4213 278.336 53.768C277.013 56.072 275.52 58.184 273.856 60.104C273.216 60.8293 272.939 61.5333 273.024 62.216C273.109 62.856 273.579 63.368 274.432 63.752C275.925 64.392 277.461 64.9893 279.04 65.544C280.619 66.056 282.304 66.504 284.096 66.888C285.333 67.144 285.568 67.784 284.8 68.808C284.587 69.064 284.373 69.32 284.16 69.576C283.989 69.832 283.797 70.1307 283.584 70.472C283.371 70.7707 283.157 71.0693 282.944 71.368C282.773 71.6667 282.581 71.9653 282.368 72.264C282.112 72.7333 281.749 73.0747 281.28 73.288C280.811 73.5013 280.32 73.544 279.808 73.416C274.859 72.0507 270.485 70.1733 266.688 67.784C265.877 67.3147 265.067 67.2933 264.256 67.72C259.947 70.1093 255.232 71.9653 250.112 73.288C248.96 73.544 248.149 73.1173 247.68 72.008C247.552 71.752 247.424 71.4747 247.296 71.176C247.168 70.92 247.019 70.664 246.848 70.408C246.677 70.1093 246.528 69.8107 246.4 69.512C246.272 69.256 246.123 69.0213 245.952 68.808C245.397 67.784 245.675 67.1653 246.784 66.952C250.411 66.184 253.824 65.096 257.024 63.688C257.835 63.304 258.283 62.792 258.368 62.152C258.496 61.512 258.261 60.8507 257.664 60.168C255.36 57.5227 253.376 54.6427 251.712 51.528C251.285 50.7173 251.499 50.1627 252.352 49.864C252.736 49.736 252.928 49.6293 252.928 49.544C252.928 49.4587 252.715 49.416 252.288 49.416H251.392C250.709 49.416 250.155 49.224 249.728 48.84C249.344 48.4133 249.152 47.8587 249.152 47.176V44.744C249.152 44.0613 249.344 43.528 249.728 43.144C250.155 42.7173 250.709 42.504 251.392 42.504H276.352C276.437 42.504 276.523 42.504 276.608 42.504C276.693 42.504 276.779 42.4827 276.864 42.44L277.248 42.312C277.675 42.2267 278.08 42.2693 278.464 42.44ZM315.712 26.824L313.856 28.872C313.301 29.4693 312.704 29.768 312.064 29.768C311.467 29.7253 310.891 29.4053 310.336 28.808C309.909 28.3387 309.461 27.8693 308.992 27.4C308.523 26.9307 308.032 26.44 307.52 25.928C306.197 24.6907 304.939 23.56 303.744 22.536C303.189 22.0667 302.891 21.5333 302.848 20.936C302.848 20.296 303.083 19.72 303.552 19.208L305.152 17.608C305.579 17.1387 306.069 16.904 306.624 16.904C307.179 16.8613 307.691 17.032 308.16 17.416C308.8 17.928 309.461 18.4613 310.144 19.016C310.827 19.5707 311.531 20.1467 312.256 20.744C312.939 21.3413 313.557 21.896 314.112 22.408C314.667 22.92 315.2 23.4107 315.712 23.88C316.139 24.3067 316.352 24.7973 316.352 25.352C316.352 25.864 316.139 26.3547 315.712 26.824ZM316.864 56.52L318.4 55.432C319.381 54.7493 320.085 55.0053 320.512 56.2C320.64 56.84 320.832 57.4373 321.088 57.992C321.259 58.5467 321.451 59.08 321.664 59.592C322.091 60.6587 321.877 61.4907 321.024 62.088C317.568 64.648 314.88 66.632 312.96 68.04C311.851 68.8507 310.912 69.5547 310.144 70.152C309.376 70.7493 308.757 71.2613 308.288 71.688C308.075 71.8587 307.883 72.008 307.712 72.136C307.541 72.3067 307.392 72.456 307.264 72.584C306.667 73.1813 306.219 73.096 305.92 72.328C305.621 71.6453 305.237 70.8773 304.768 70.024C304.555 69.64 304.341 69.2773 304.128 68.936C303.957 68.5947 303.787 68.2533 303.616 67.912C303.36 67.528 303.253 67.1653 303.296 66.824C303.381 66.44 303.595 66.0773 303.936 65.736C304.277 65.3947 304.64 64.968 305.024 64.456C305.749 63.4747 306.112 62.28 306.112 60.872V44.296C306.112 43.6133 305.899 43.08 305.472 42.696C305.088 42.2693 304.555 42.056 303.872 42.056H299.264C298.581 42.056 298.027 41.864 297.6 41.48C297.216 41.0533 297.024 40.4987 297.024 39.816V36.936C297.024 36.2533 297.216 35.72 297.6 35.336C298.027 34.9093 298.581 34.696 299.264 34.696H311.424C312.107 34.696 312.64 34.9093 313.024 35.336C313.451 35.72 313.664 36.2533 313.664 36.936V54.856C313.664 56.008 313.941 56.7333 314.496 57.032C315.093 57.3307 315.883 57.16 316.864 56.52ZM354.688 37.32V40.584C354.688 41.2667 354.475 41.8213 354.048 42.248C353.664 42.632 353.131 42.824 352.448 42.824H342.592C341.909 42.824 341.355 43.0373 340.928 43.464C340.544 43.848 340.352 44.3813 340.352 45.064V71.56C340.352 72.2427 340.139 72.776 339.712 73.16C339.328 73.5867 338.795 73.8 338.112 73.8H334.592C333.909 73.8 333.355 73.5867 332.928 73.16C332.544 72.776 332.352 72.2427 332.352 71.56V45.064C332.352 44.3813 332.139 43.848 331.712 43.464C331.328 43.0373 330.795 42.824 330.112 42.824H319.616C318.933 42.824 318.379 42.632 317.952 42.248C317.568 41.8213 317.376 41.2667 317.376 40.584V37.32C317.376 36.6373 317.568 36.104 317.952 35.72C318.379 35.2933 318.933 35.08 319.616 35.08H330.112C330.795 35.08 331.328 34.888 331.712 34.504C332.139 34.0773 332.352 33.5227 332.352 32.84V18.056C332.352 17.3733 332.544 16.84 332.928 16.456C333.355 16.0293 333.909 15.816 334.592 15.816H338.112C338.795 15.816 339.328 16.0293 339.712 16.456C340.139 16.84 340.352 17.3733 340.352 18.056V32.84C340.352 33.5227 340.544 34.0773 340.928 34.504C341.355 34.888 341.909 35.08 342.592 35.08H352.448C353.131 35.08 353.664 35.2933 354.048 35.72C354.475 36.104 354.688 36.6373 354.688 37.32ZM385.856 53.384H392.192C392.875 53.384 393.408 53.192 393.792 52.808C394.219 52.3813 394.432 51.8267 394.432 51.144V46.152C394.432 45.4693 394.219 44.936 393.792 44.552C393.408 44.1253 392.875 43.912 392.192 43.912H385.856C385.173 43.912 384.619 44.1253 384.192 44.552C383.808 44.936 383.616 45.4693 383.616 46.152V51.144C383.616 51.8267 383.808 52.3813 384.192 52.808C384.619 53.192 385.173 53.384 385.856 53.384ZM423.488 55.624V58.312C423.488 58.9947 423.275 59.5493 422.848 59.976C422.464 60.36 421.931 60.552 421.248 60.552H404.352C403.669 60.552 403.115 60.7653 402.688 61.192C402.304 61.576 402.112 62.1093 402.112 62.792V71.624C402.112 72.3067 401.899 72.84 401.472 73.224C401.088 73.6507 400.555 73.864 399.872 73.864H396.672C395.989 73.864 395.435 73.6507 395.008 73.224C394.624 72.84 394.432 72.3067 394.432 71.624V62.792C394.432 62.1093 394.219 61.576 393.792 61.192C393.408 60.7653 392.875 60.552 392.192 60.552H368.576C367.893 60.552 367.339 60.36 366.912 59.976C366.528 59.5493 366.336 58.9947 366.336 58.312V55.624C366.336 54.9413 366.528 54.408 366.912 54.024C367.339 53.5973 367.893 53.384 368.576 53.384H373.952C374.635 53.384 375.168 53.192 375.552 52.808C375.979 52.3813 376.192 51.8267 376.192 51.144V39.304C376.192 38.6213 376.384 38.088 376.768 37.704C377.195 37.2773 377.749 37.064 378.432 37.064H392.192C392.875 37.064 393.408 36.872 393.792 36.488C394.219 36.0613 394.432 35.5067 394.432 34.824V31.816C394.432 31.1333 394.219 30.6 393.792 30.216C393.408 29.7893 392.875 29.576 392.192 29.576H382.336C381.483 29.576 380.843 29.9387 380.416 30.664C379.392 32.3707 378.347 33.9707 377.28 35.464C376.213 36.9147 375.104 38.2587 373.952 39.496C373.568 39.9227 373.099 40.1573 372.544 40.2C372.032 40.2 371.541 40.0293 371.072 39.688L369.536 38.472C369.195 38.2587 368.896 38.0667 368.64 37.896C368.384 37.6827 368.128 37.4693 367.872 37.256C366.805 36.5307 366.72 35.6773 367.616 34.696C372.267 30.088 375.915 24.2853 378.56 17.288C378.773 16.6907 379.115 16.264 379.584 16.008C380.096 15.752 380.651 15.7093 381.248 15.88L384.576 16.712C385.259 16.8827 385.728 17.224 385.984 17.736C386.283 18.248 386.304 18.824 386.048 19.464C386.048 19.592 386.005 19.7413 385.92 19.912C385.579 20.68 385.536 21.2987 385.792 21.768C386.091 22.1947 386.667 22.408 387.52 22.408H417.792C418.475 22.408 419.008 22.6213 419.392 23.048C419.819 23.432 420.032 23.9653 420.032 24.648V27.336C420.032 28.0187 419.819 28.5733 419.392 29C419.008 29.384 418.475 29.576 417.792 29.576H404.352C403.669 29.576 403.115 29.7893 402.688 30.216C402.304 30.6 402.112 31.1333 402.112 31.816V34.824C402.112 35.5067 402.304 36.0613 402.688 36.488C403.115 36.872 403.669 37.064 404.352 37.064H416.32C417.003 37.064 417.536 37.2773 417.92 37.704C418.347 38.088 418.56 38.6213 418.56 39.304V41.672C418.56 42.3547 418.347 42.9093 417.92 43.336C417.536 43.72 417.003 43.912 416.32 43.912H404.352C403.669 43.912 403.115 44.1253 402.688 44.552C402.304 44.936 402.112 45.4693 402.112 46.152V51.144C402.112 51.8267 402.304 52.3813 402.688 52.808C403.115 53.192 403.669 53.384 404.352 53.384H421.248C421.931 53.384 422.464 53.5973 422.848 54.024C423.275 54.408 423.488 54.9413 423.488 55.624ZM479.808 55.944H476.544C475.733 55.944 475.2 56.1573 474.944 56.584C474.731 57.0107 474.88 57.5227 475.392 58.12C475.52 58.2907 475.648 58.44 475.776 58.568C475.904 58.696 476.032 58.824 476.16 58.952C476.501 59.2933 476.907 59.5067 477.376 59.592C477.845 59.6347 478.293 59.5067 478.72 59.208C479.019 59.0373 479.317 58.8667 479.616 58.696C479.915 58.5253 480.192 58.3333 480.448 58.12C481.429 57.48 481.835 56.968 481.664 56.584C481.536 56.1573 480.917 55.944 479.808 55.944ZM464.384 47.56C464.384 48.2 464.576 48.7333 464.96 49.16C465.387 49.544 465.92 49.736 466.56 49.736H471.488C472.128 49.736 472.64 49.544 473.024 49.16C473.451 48.7333 473.664 48.2 473.664 47.56C473.664 46.92 473.451 46.408 473.024 46.024C472.64 45.5973 472.128 45.384 471.488 45.384H466.56C465.92 45.384 465.387 45.5973 464.96 46.024C464.576 46.408 464.384 46.92 464.384 47.56ZM464.384 37.064C464.384 38.5147 465.109 39.24 466.56 39.24H471.552C472.192 39.24 472.704 39.048 473.088 38.664C473.472 38.28 473.664 37.7467 473.664 37.064C473.664 36.424 473.472 35.912 473.088 35.528C472.704 35.144 472.192 34.952 471.552 34.952H466.56C465.877 34.952 465.344 35.144 464.96 35.528C464.576 35.912 464.384 36.424 464.384 37.064ZM448.448 26.568C448.448 27.1653 448.64 27.656 449.024 28.04C449.408 28.424 449.899 28.616 450.496 28.616H479.424C480.021 28.616 480.512 28.424 480.896 28.04C481.28 27.656 481.472 27.1653 481.472 26.568C481.472 25.9707 481.28 25.48 480.896 25.096C480.512 24.712 480.021 24.52 479.424 24.52H450.496C449.899 24.52 449.408 24.712 449.024 25.096C448.64 25.48 448.448 25.9707 448.448 26.568ZM487.872 57.48C488.555 57.9493 488.896 58.4613 488.896 59.016C488.896 59.5707 488.555 60.0613 487.872 60.488C487.531 60.7013 487.168 60.936 486.784 61.192C486.443 61.4053 486.08 61.6187 485.696 61.832C484.629 62.4293 484.096 63.0907 484.096 63.816C484.096 64.4987 484.672 65.0747 485.824 65.544C486.677 65.8853 487.531 66.2053 488.384 66.504C489.28 66.76 490.197 66.9947 491.136 67.208C492.331 67.5067 492.544 68.1253 491.776 69.064C491.605 69.2773 491.435 69.512 491.264 69.768C491.093 70.024 490.901 70.3013 490.688 70.6C490.475 70.8987 490.283 71.176 490.112 71.432C489.941 71.7307 489.771 72.008 489.6 72.264C488.96 73.2453 488.085 73.608 486.976 73.352C477.76 70.5787 471.275 65.224 467.52 57.288C467.307 56.904 467.008 56.584 466.624 56.328C466.283 56.072 465.877 55.944 465.408 55.944H462.72C462.037 55.944 461.483 56.1573 461.056 56.584C460.672 56.968 460.48 57.5013 460.48 58.184V62.984C460.48 63.7947 460.715 64.4133 461.184 64.84C461.696 65.224 462.357 65.3307 463.168 65.16L469.376 64.008C470.443 63.7947 470.869 64.2213 470.656 65.288C470.613 65.544 470.571 65.8 470.528 66.056C470.528 66.312 470.528 66.5893 470.528 66.888C470.485 67.144 470.443 67.4 470.4 67.656C470.4 67.912 470.4 68.1467 470.4 68.36C470.315 69.3413 469.803 69.9387 468.864 70.152L460.096 72.072C457.664 72.584 456.021 72.9893 455.168 73.288C454.656 73.416 454.293 73.544 454.08 73.672C453.483 73.928 453.056 73.7573 452.8 73.16C452.715 72.8187 452.587 72.4773 452.416 72.136C452.288 71.7947 452.139 71.4533 451.968 71.112C451.755 70.5573 451.499 70.024 451.2 69.512C450.773 68.744 450.901 68.0187 451.584 67.336C451.755 67.1653 451.904 66.9947 452.032 66.824C452.203 66.6107 452.395 66.3973 452.608 66.184C453.291 65.3307 453.632 64.0933 453.632 62.472V58.184C453.632 57.5013 453.419 56.968 452.992 56.584C452.608 56.1573 452.075 55.944 451.392 55.944H450.688C450.005 55.944 449.451 55.752 449.024 55.368C448.64 54.9413 448.448 54.3867 448.448 53.704V51.976C448.448 51.2933 448.64 50.76 449.024 50.376C449.451 49.9493 450.005 49.736 450.688 49.736H455.36C456 49.736 456.512 49.544 456.896 49.16C457.323 48.7333 457.536 48.2 457.536 47.56C457.536 46.92 457.323 46.408 456.896 46.024C456.512 45.5973 456 45.384 455.36 45.384H452.032C451.349 45.384 450.795 45.192 450.368 44.808C449.984 44.3813 449.792 43.8267 449.792 43.144V41.48C449.792 40.7973 449.984 40.264 450.368 39.88C450.795 39.4533 451.349 39.24 452.032 39.24H455.424C456.064 39.24 456.576 39.048 456.96 38.664C457.344 38.28 457.536 37.7467 457.536 37.064C457.536 36.424 457.344 35.912 456.96 35.528C456.576 35.144 456.064 34.952 455.424 34.952H449.344C448.747 34.952 448.448 35.2507 448.448 35.848V36.744C448.448 38.5787 448.405 40.4987 448.32 42.504C448.235 44.5093 448.107 46.6427 447.936 48.904C447.637 53.3413 446.933 57.7787 445.824 62.216C445.355 64.0933 444.779 65.8853 444.096 67.592C443.456 69.256 442.709 70.856 441.856 72.392C441.259 73.4587 440.427 73.6507 439.36 72.968C439.104 72.7973 438.848 72.6267 438.592 72.456C438.336 72.2853 438.059 72.1147 437.76 71.944C437.12 71.6453 436.544 71.3253 436.032 70.984C434.965 70.472 434.709 69.6613 435.264 68.552C436.075 67.1867 436.757 65.736 437.312 64.2C437.909 62.664 438.4 61.0853 438.784 59.464C439.723 55.6667 440.32 51.72 440.576 47.624C440.832 43.656 440.96 40.0293 440.96 36.744V20.488C440.96 19.8053 441.152 19.272 441.536 18.888C441.963 18.4613 442.517 18.248 443.2 18.248H486.72C487.403 18.248 487.936 18.4613 488.32 18.888C488.747 19.272 488.96 19.8053 488.96 20.488V32.712C488.96 33.3947 488.747 33.9493 488.32 34.376C487.936 34.76 487.403 34.952 486.72 34.952H482.688C482.005 34.952 481.472 35.144 481.088 35.528C480.704 35.912 480.512 36.424 480.512 37.064C480.512 38.5147 481.237 39.24 482.688 39.24H487.296C487.979 39.24 488.512 39.4533 488.896 39.88C489.323 40.264 489.536 40.7973 489.536 41.48V43.144C489.536 43.8267 489.323 44.3813 488.896 44.808C488.512 45.192 487.979 45.384 487.296 45.384H482.688C482.048 45.384 481.515 45.5973 481.088 46.024C480.704 46.408 480.512 46.92 480.512 47.56C480.512 48.2 480.704 48.7333 481.088 49.16C481.515 49.544 482.048 49.736 482.688 49.736H489.984C490.667 49.736 491.2 49.9493 491.584 50.376C492.011 50.76 492.224 51.2933 492.224 51.976V53.704C492.224 54.3867 492.011 54.9413 491.584 55.368C491.2 55.752 490.667 55.944 489.984 55.944H488.32C487.509 55.944 487.061 56.0933 486.976 56.392C486.891 56.648 487.189 57.0107 487.872 57.48Z" fill="#262626"/>
<g clip-path="url(#clip1_616_42758)">
<path d="M87.0488 39.2207C87.0488 38.0688 87.0488 36.9809 87.0488 35.8904C87.0488 34.7564 87.072 33.6199 87.0386 32.4884C87.0257 32.0251 87.1876 31.7768 87.586 31.549C93.0242 28.4388 98.4547 25.3108 103.885 22.1878C107.345 20.1989 110.809 18.215 114.258 16.2081C114.716 15.9419 115.057 15.924 115.53 16.1953C124.412 21.3226 133.305 26.4371 142.205 31.5362C142.647 31.7896 142.814 32.0584 142.814 32.5806C142.796 42.8121 142.796 53.0436 142.814 63.2751C142.814 63.7819 142.68 64.0712 142.22 64.3246C140.483 65.282 138.774 66.288 137.013 67.2991C135.284 66.3085 133.554 65.3178 131.729 64.2709V70.2889C131.56 70.4067 131.439 70.504 131.308 70.5782C129.686 71.5151 128.054 72.4366 126.443 73.3889C126.109 73.586 125.859 73.5808 125.53 73.3863C124.148 72.5697 122.752 71.7787 121.359 70.9801C121.171 70.8726 120.979 70.7804 120.693 70.6345C120.693 70.9391 120.693 71.1542 120.693 71.3666C120.693 72.969 120.688 74.5689 120.696 76.1714C120.696 76.476 120.665 76.714 120.354 76.8907C118.55 77.9095 116.756 78.9487 114.926 79.9982C114.713 79.8831 114.497 79.7755 114.289 79.6578C105.396 74.5459 96.5066 69.4288 87.6065 64.3297C87.1542 64.0712 87 63.7973 87 63.2853C87.018 57.2801 87.0206 51.2748 87 45.2695C87 44.755 87.1465 44.4708 87.604 44.2251C88.7631 43.6056 89.8913 42.9273 91.0324 42.2694C91.2226 42.1593 91.4051 42.039 91.6595 41.8829C90.0918 40.9767 88.5883 40.1115 87.0488 39.2233V39.2207ZM126.864 46.4726V72.3982C126.98 72.3905 127.031 72.3982 127.065 72.3803C128.363 71.6405 129.658 70.8956 130.958 70.1609C131.159 70.0483 131.246 69.9024 131.236 69.6771C131.228 69.4775 131.236 69.2778 131.236 69.0756C131.236 60.9124 131.241 52.7492 131.226 44.586C131.226 44.1074 131.359 43.8232 131.788 43.5852C133.408 42.6892 135.004 41.7498 136.61 40.8308C136.777 40.7361 136.954 40.6567 137.219 40.5236V60.7383C137.219 61.6957 137.216 62.6505 137.219 63.6079C137.222 64.5499 137.201 65.4919 137.237 66.544C138.99 65.538 140.624 64.596 142.231 63.6744C142.385 61.578 142.308 33.1258 142.141 32.6011C141.884 32.7444 141.632 32.8801 141.382 33.0234C132.858 37.9254 124.335 42.83 115.803 47.7192C115.335 47.988 115.168 48.2773 115.168 48.8123C115.186 56.6196 115.181 64.427 115.181 72.2344C115.181 74.3027 115.181 76.371 115.181 78.4393C115.181 78.6671 115.204 78.895 115.219 79.1868C115.512 79.0281 115.708 78.9257 115.898 78.8156C117.098 78.127 118.28 77.4103 119.501 76.7627C120.043 76.4734 120.236 76.133 120.233 75.5135C120.21 67.3273 120.223 59.1436 120.208 50.9574C120.208 50.4556 120.331 50.1613 120.796 49.9027C122.611 48.9019 124.397 47.8472 126.196 46.8131C126.366 46.7158 126.543 46.6339 126.864 46.4675V46.4726ZM87.5834 32.578C87.5706 32.8699 87.55 33.0849 87.55 33.2999C87.5474 34.5004 87.5783 35.7035 87.5346 36.9015C87.514 37.4288 87.7145 37.6874 88.154 37.9382C95.255 42.0058 102.346 46.0886 109.437 50.169C109.706 50.3225 109.966 50.4915 110.197 50.6323V71.5535C104.091 68.0414 98.0692 64.578 92.0759 61.1326V52.867C93.42 53.6375 94.6896 54.3645 95.9592 55.094C97.216 55.8159 98.4676 56.5454 99.7269 57.2621C100.991 57.9814 102.24 58.7289 103.567 59.4508C103.595 59.2537 103.618 59.1666 103.618 59.0796C103.621 57.6794 103.608 56.2766 103.631 54.8764C103.636 54.495 103.441 54.3337 103.15 54.1674C98.1206 51.2825 93.0962 48.3925 88.0717 45.505C87.9304 45.4231 87.7736 45.3719 87.5449 45.2721V46.0246C87.5449 51.6741 87.5526 57.3236 87.532 62.9705C87.532 63.485 87.6913 63.7589 88.1411 64.0123C91.7289 66.0499 95.2987 68.1157 98.8737 70.1712C103.898 73.0612 108.925 75.9512 113.95 78.8387C114.148 78.9513 114.356 79.046 114.636 79.1893V78.4649C114.636 68.5688 114.631 58.6726 114.649 48.7739C114.649 48.2542 114.482 47.988 114.037 47.7346C105.427 42.8019 96.8279 37.8538 88.2285 32.9082C88.0409 32.8007 87.8455 32.7111 87.5783 32.5729L87.5834 32.578ZM87.8944 32.0635C88.1437 32.2197 88.2876 32.3195 88.4418 32.4065C97.0978 37.3853 105.754 42.3616 114.405 47.3481C114.751 47.5477 115.016 47.5759 115.379 47.366C124.086 42.3437 132.801 37.3367 141.514 32.3221C141.637 32.2504 141.74 32.1454 141.884 32.0328C141.699 31.9202 141.57 31.8357 141.436 31.7563C132.798 26.7903 124.16 21.8269 115.533 16.8455C115.065 16.5742 114.728 16.5844 114.266 16.8507C105.695 21.7987 97.1132 26.7289 88.5369 31.6616C88.3493 31.7691 88.1694 31.892 87.8944 32.0635ZM136.754 66.5235C136.754 58.6828 136.754 51.0111 136.754 43.342C136.754 43.1884 136.738 43.0322 136.725 42.8787C136.725 42.8607 136.702 42.8454 136.684 42.8326C136.666 42.8198 136.646 42.8095 136.589 42.7763C134.973 43.708 133.336 44.65 131.74 45.5664V63.6463C133.384 64.5908 135.001 65.52 136.754 66.5235ZM125.109 49.4266C124.962 49.4855 124.88 49.5111 124.806 49.552C123.549 50.2713 122.3 51.0034 121.035 51.7048C120.722 51.8789 120.688 52.1118 120.688 52.419C120.693 58.1069 120.696 63.7947 120.683 69.4826C120.683 69.841 120.794 70.0458 121.107 70.2198C122.315 70.8905 123.505 71.5893 124.705 72.2753C124.816 72.3393 124.934 72.3854 125.109 72.4673V49.4292V49.4266ZM108.278 51.4335C102.86 48.3182 97.5424 45.2593 92.2275 42.2029C90.7677 43.045 89.3516 43.8616 87.8353 44.7371C93.2555 47.8549 98.5601 50.9062 103.88 53.9651C105.322 53.1358 106.743 52.3166 108.278 51.4335ZM108.473 68.6276C108.624 67.7701 108.586 59.4738 108.429 58.9746C106.903 59.8501 105.384 60.7179 103.885 61.5754C103.587 61.409 103.353 61.281 103.125 61.1505C101.482 60.2085 99.8349 59.2767 98.208 58.3091C97.8277 58.0813 97.5527 58.0864 97.1774 58.3193C96.2702 58.8825 95.3296 59.3919 94.4043 59.9294C94.2604 60.0139 94.1345 60.124 93.9314 60.2699C98.8171 63.0806 103.631 65.8477 108.47 68.6302L108.473 68.6276ZM108.496 56.9934C108.624 56.0795 108.583 52.483 108.432 51.9736C107.154 52.7083 105.892 53.4506 104.613 54.1597C104.273 54.3491 104.153 54.5718 104.158 54.9506C104.176 56.2817 104.163 57.6128 104.168 58.9439C104.168 59.0847 104.209 59.2229 104.243 59.4405C105.713 58.5958 107.116 57.7895 108.496 56.9959V56.9934ZM93.7181 55.7391C93.7284 57.1879 93.6642 58.4908 93.767 59.8962C94.998 59.1871 96.1211 58.542 97.3522 57.8355C96.1237 57.1265 94.998 56.4788 93.7207 55.7391H93.7181Z" fill="#666666"/>
<path d="M87.8932 32.0625C88.1656 31.891 88.3481 31.7707 88.5357 31.6606C97.112 26.7279 105.693 21.7977 114.265 16.8497C114.73 16.5809 115.064 16.5732 115.532 16.8445C124.159 21.8259 132.797 26.7893 141.433 31.7579C141.566 31.8347 141.697 31.9192 141.88 32.0344C141.738 32.147 141.633 32.2519 141.51 32.3236C132.797 37.3383 124.082 42.3452 115.375 47.3675C115.012 47.5774 114.748 47.5493 114.401 47.3496C105.75 42.3631 97.0914 37.3869 88.438 32.4081C88.2864 32.3211 88.1399 32.2212 87.8906 32.0651L87.8932 32.0625ZM133.383 32.1752C127.328 28.6938 121.355 25.2586 115.388 21.8259C109.235 25.3661 103.141 28.873 96.9681 32.426C97.2251 32.5924 97.4024 32.7178 97.59 32.8253C103.172 36.0379 108.757 39.2402 114.329 42.4681C114.802 42.742 115.136 42.7215 115.596 42.4579C121.304 39.1557 127.025 35.8715 132.741 32.5822C132.928 32.4747 133.106 32.3518 133.383 32.1752Z" fill="#262626"/>
<path d="M133.384 32.1774C133.106 32.354 132.929 32.4769 132.741 32.5844C127.026 35.8737 121.305 39.1554 115.597 42.4601C115.136 42.7263 114.802 42.7468 114.329 42.4703C108.758 39.2424 103.17 36.0375 97.5907 32.8276C97.4031 32.7201 97.2258 32.5946 96.9688 32.4282C103.142 28.8752 109.236 25.3683 115.388 21.8281C121.356 25.2608 127.331 28.6961 133.384 32.1774ZM99.2664 31.8574C104.396 34.8063 109.459 37.7168 114.597 40.6708C114.62 40.4404 114.64 40.3354 114.64 40.2305C114.64 34.7423 114.643 29.2541 114.64 23.7659C114.64 23.172 114.484 23.0901 113.965 23.3666C113.905 23.3973 113.849 23.4331 113.79 23.4664C109.135 26.1439 104.484 28.8189 99.8292 31.4965C99.6596 31.5937 99.5003 31.7064 99.2664 31.8548V31.8574ZM115.221 40.7245C120.202 37.8601 125.077 35.0571 130.053 32.1927C125.057 29.3206 120.179 26.5151 115.221 23.6635V40.722V40.7245Z" fill="#262626"/>
<path d="M141.404 32.4222C139.998 33.2311 138.589 34.04 137.184 34.8489V62.7609C137.184 62.9811 137.184 63.2038 137.184 63.4239C137.184 63.6825 137.184 63.941 137.184 64.2021V65.3975C137.184 65.7226 137.191 66.0554 137.204 66.3984C138.98 65.377 140.638 64.4248 142.265 63.4879C142.421 61.3607 142.344 32.5246 142.172 31.9922C141.913 32.1381 141.655 32.2763 141.404 32.4197V32.4222Z" fill="#262626"/>
<path d="M136.846 61.293C135.517 61.9252 122.677 69.2667 115.481 73.4597L115.398 79.1936L119.647 76.7695C120.521 76.2703 121.322 75.8121 122.122 75.3565C122.929 74.8957 123.736 74.435 124.543 73.9742C125.35 73.5134 126.157 73.0527 126.964 72.5919C127.771 72.1311 128.578 71.6704 129.385 71.2096C130.21 70.7386 131.037 70.2676 131.862 69.794C132.669 69.3333 133.476 68.8725 134.283 68.4118C135.09 67.951 135.897 67.4902 136.704 67.0295L138.573 65.962C138.758 65.8571 138.94 65.7521 139.125 65.6446C139.341 65.5218 139.557 65.3989 139.773 65.276L140.767 64.7077C141.037 64.5516 141.312 64.3878 141.592 64.2163C139.925 63.1923 138.364 62.235 136.838 61.2955L136.846 61.293Z" fill="#262626"/>
</g>
</g>
<defs>
<clipPath id="clip0_616_42758">
<rect width="496" height="79" fill="white"/>
</clipPath>
<clipPath id="clip1_616_42758">
<rect width="55.814" height="64" fill="white" transform="translate(87 16)"/>
</clipPath>
</defs>
</svg>
