<svg width="27" height="31" viewBox="0 0 27 31" fill="none" xmlns="http://www.w3.org/2000/svg">
<path d="M9.216 15.828H8.724C8.612 15.828 8.524 15.796 8.46 15.732C8.396 15.668 8.364 15.58 8.364 15.468V12.468C8.364 12.356 8.332 12.268 8.268 12.204C8.204 12.14 8.116 12.108 8.004 12.108H5.76C5.656 12.108 5.572 12.14 5.508 12.204C5.444 12.268 5.412 12.352 5.412 12.456C5.412 12.56 5.38 12.644 5.316 12.708C5.252 12.772 5.168 12.804 5.064 12.804H4.608C4.496 12.804 4.408 12.772 4.344 12.708C4.28 12.644 4.248 12.556 4.248 12.444L4.248 7.44C4.248 7.328 4.28 7.24 4.344 7.176C4.408 7.112 4.496 7.08 4.608 7.08L8.004 7.08C8.116 7.08 8.204 7.048 8.268 6.984C8.332 6.92 8.364 6.832 8.364 6.72L8.364 5.412C8.364 5.3 8.396 5.212 8.46 5.148C8.524 5.084 8.612 5.052 8.724 5.052H9.216C9.328 5.052 9.416 5.084 9.48 5.148C9.544 5.212 9.576 5.3 9.576 5.412L9.576 6.72C9.576 6.832 9.608 6.92 9.672 6.984C9.736 7.048 9.824 7.08 9.936 7.08H13.392C13.504 7.08 13.592 7.112 13.656 7.176C13.72 7.24 13.752 7.328 13.752 7.44L13.752 12.384C13.752 12.496 13.72 12.584 13.656 12.648C13.592 12.712 13.504 12.744 13.392 12.744H12.864C12.768 12.744 12.688 12.716 12.624 12.66C12.568 12.596 12.54 12.516 12.54 12.42C12.54 12.332 12.508 12.26 12.444 12.204C12.388 12.14 12.316 12.108 12.228 12.108L9.936 12.108C9.824 12.108 9.736 12.14 9.672 12.204C9.608 12.268 9.576 12.356 9.576 12.468V15.468C9.576 15.58 9.544 15.668 9.48 15.732C9.416 15.796 9.328 15.828 9.216 15.828ZM8.364 10.62L8.364 8.58C8.364 8.468 8.332 8.38 8.268 8.316C8.204 8.252 8.116 8.22 8.004 8.22H5.772C5.66 8.22 5.572 8.252 5.508 8.316C5.444 8.38 5.412 8.468 5.412 8.58L5.412 10.62C5.412 10.732 5.444 10.82 5.508 10.884C5.572 10.948 5.66 10.98 5.772 10.98H8.004C8.116 10.98 8.204 10.948 8.268 10.884C8.332 10.82 8.364 10.732 8.364 10.62ZM12.54 10.62V8.58C12.54 8.468 12.508 8.38 12.444 8.316C12.38 8.252 12.292 8.22 12.18 8.22L9.936 8.22C9.824 8.22 9.736 8.252 9.672 8.316C9.608 8.38 9.576 8.468 9.576 8.58L9.576 10.62C9.576 10.732 9.608 10.82 9.672 10.884C9.736 10.948 9.824 10.98 9.936 10.98L12.18 10.98C12.292 10.98 12.38 10.948 12.444 10.884C12.508 10.82 12.54 10.732 12.54 10.62Z" fill="white"/>
<mask id="path-2-inside-1_1182_29713" fill="white">
<path fill-rule="evenodd" clip-rule="evenodd" d="M9 19L9 28C9 29.6569 10.3431 31 12 31H24C25.6569 31 27 29.6569 27 28L27 16C27 14.3431 25.6569 13 24 13H18V16C18 17.6569 16.6569 19 15 19H9ZM19.352 23.352C19.208 22.904 19.076 22.504 18.956 22.152C18.844 21.8 18.748 21.488 18.668 21.216C18.564 20.912 18.48 20.652 18.416 20.436C18.352 20.212 18.304 20.036 18.272 19.908L18.212 19.704C18.196 19.64 18.176 19.608 18.152 19.608C18.136 19.608 18.12 19.64 18.104 19.704L17.972 20.172C17.908 20.396 17.828 20.656 17.732 20.952C17.644 21.24 17.54 21.576 17.42 21.96C17.332 22.24 17.248 22.496 17.168 22.728C17.096 22.952 17.032 23.152 16.976 23.328C16.92 23.48 16.924 23.6 16.988 23.688C17.052 23.776 17.164 23.82 17.324 23.82H19.004C19.156 23.82 19.264 23.776 19.328 23.688C19.392 23.6 19.4 23.488 19.352 23.352ZM21.452 27.06H20.816C20.736 27.06 20.664 27.04 20.6 27C20.536 26.952 20.492 26.888 20.468 26.808L19.952 25.188C19.928 25.108 19.884 25.048 19.82 25.008C19.756 24.96 19.684 24.936 19.604 24.936H16.7C16.62 24.936 16.548 24.96 16.484 25.008C16.42 25.048 16.376 25.108 16.352 25.188L15.824 26.808C15.8 26.888 15.756 26.952 15.692 27C15.628 27.04 15.556 27.06 15.476 27.06H14.852C14.7 27.06 14.592 27.016 14.528 26.928C14.472 26.84 14.468 26.724 14.516 26.58L17.252 18.696C17.276 18.624 17.32 18.568 17.384 18.528C17.448 18.48 17.516 18.456 17.588 18.456H18.776C18.848 18.456 18.916 18.48 18.98 18.528C19.044 18.568 19.088 18.624 19.112 18.696L21.8 26.58C21.848 26.724 21.84 26.84 21.776 26.928C21.712 27.016 21.604 27.06 21.452 27.06Z"/>
</mask>
<path fill-rule="evenodd" clip-rule="evenodd" d="M9 19L9 28C9 29.6569 10.3431 31 12 31H24C25.6569 31 27 29.6569 27 28L27 16C27 14.3431 25.6569 13 24 13H18V16C18 17.6569 16.6569 19 15 19H9ZM19.352 23.352C19.208 22.904 19.076 22.504 18.956 22.152C18.844 21.8 18.748 21.488 18.668 21.216C18.564 20.912 18.48 20.652 18.416 20.436C18.352 20.212 18.304 20.036 18.272 19.908L18.212 19.704C18.196 19.64 18.176 19.608 18.152 19.608C18.136 19.608 18.12 19.64 18.104 19.704L17.972 20.172C17.908 20.396 17.828 20.656 17.732 20.952C17.644 21.24 17.54 21.576 17.42 21.96C17.332 22.24 17.248 22.496 17.168 22.728C17.096 22.952 17.032 23.152 16.976 23.328C16.92 23.48 16.924 23.6 16.988 23.688C17.052 23.776 17.164 23.82 17.324 23.82H19.004C19.156 23.82 19.264 23.776 19.328 23.688C19.392 23.6 19.4 23.488 19.352 23.352ZM21.452 27.06H20.816C20.736 27.06 20.664 27.04 20.6 27C20.536 26.952 20.492 26.888 20.468 26.808L19.952 25.188C19.928 25.108 19.884 25.048 19.82 25.008C19.756 24.96 19.684 24.936 19.604 24.936H16.7C16.62 24.936 16.548 24.96 16.484 25.008C16.42 25.048 16.376 25.108 16.352 25.188L15.824 26.808C15.8 26.888 15.756 26.952 15.692 27C15.628 27.04 15.556 27.06 15.476 27.06H14.852C14.7 27.06 14.592 27.016 14.528 26.928C14.472 26.84 14.468 26.724 14.516 26.58L17.252 18.696C17.276 18.624 17.32 18.568 17.384 18.528C17.448 18.48 17.516 18.456 17.588 18.456H18.776C18.848 18.456 18.916 18.48 18.98 18.528C19.044 18.568 19.088 18.624 19.112 18.696L21.8 26.58C21.848 26.724 21.84 26.84 21.776 26.928C21.712 27.016 21.604 27.06 21.452 27.06Z" fill="white"/>
<path d="M9 19V17.5H7.5L7.5 19H9ZM18 13V11.5H16.5V13L18 13ZM18.956 22.152L17.5266 22.6068L17.5313 22.6215L17.5362 22.636L18.956 22.152ZM19.352 23.352L17.924 23.811L17.9305 23.8312L17.9375 23.8512L19.352 23.352ZM18.668 21.216L20.107 20.7928L20.0978 20.7614L20.0872 20.7305L18.668 21.216ZM18.416 20.436L16.9737 20.8481L16.9757 20.8551L16.9778 20.8621L18.416 20.436ZM18.272 19.908L19.7272 19.5442L19.7197 19.5143L19.711 19.4847L18.272 19.908ZM18.212 19.704L16.7568 20.0678L16.7643 20.0977L16.773 20.1273L18.212 19.704ZM18.104 19.704L19.5477 20.1112L19.5538 20.0896L19.5592 20.0678L18.104 19.704ZM17.972 20.172L19.4143 20.5841L19.4157 20.5792L17.972 20.172ZM17.732 20.952L16.3052 20.4892L16.3012 20.5014L16.2975 20.5137L17.732 20.952ZM17.42 21.96L18.851 22.4097L18.8517 22.4074L17.42 21.96ZM17.168 22.728L15.7499 22.239L15.7448 22.2539L15.74 22.269L17.168 22.728ZM16.976 23.328L18.3835 23.8466L18.3952 23.8149L18.4054 23.7828L16.976 23.328ZM16.988 23.688L18.2011 22.8057L18.2011 22.8057L16.988 23.688ZM19.328 23.688L18.1149 22.8057L18.1149 22.8057L19.328 23.688ZM20.6 27L19.7 28.2L19.751 28.2382L19.805 28.272L20.6 27ZM20.468 26.808L21.9047 26.377L21.9011 26.3648L21.8973 26.3528L20.468 26.808ZM19.952 25.188L18.5153 25.619L18.5189 25.6312L18.5228 25.6432L19.952 25.188ZM19.82 25.008L18.92 26.208L18.971 26.2462L19.025 26.28L19.82 25.008ZM16.484 25.008L17.279 26.28L17.333 26.2462L17.384 26.208L16.484 25.008ZM16.352 25.188L17.7782 25.6528L17.7837 25.636L17.7887 25.619L16.352 25.188ZM15.824 26.808L14.3978 26.3432L14.3924 26.36L14.3873 26.377L15.824 26.808ZM15.692 27L16.487 28.272L16.541 28.2382L16.592 28.2L15.692 27ZM14.528 26.928L13.2625 27.7333L13.2875 27.7726L13.3149 27.8103L14.528 26.928ZM14.516 26.58L13.0989 26.0882L13.0959 26.0969L13.093 26.1057L14.516 26.58ZM17.252 18.696L18.6691 19.1878L18.6721 19.1791L18.675 19.1703L17.252 18.696ZM17.384 18.528L18.179 19.8L18.233 19.7662L18.284 19.728L17.384 18.528ZM18.98 18.528L18.08 19.728L18.131 19.7662L18.185 19.8L18.98 18.528ZM19.112 18.696L17.6889 19.1704L17.6923 19.1801L19.112 18.696ZM21.8 26.58L23.2231 26.1056L23.2198 26.0959L21.8 26.58ZM21.776 26.928L22.9891 27.8103L22.9891 27.8103L21.776 26.928ZM7.5 19L7.5 28H10.5L10.5 19H7.5ZM7.5 28C7.5 30.4853 9.51472 32.5 12 32.5L12 29.5C11.1716 29.5 10.5 28.8284 10.5 28H7.5ZM12 32.5H24L24 29.5H12L12 32.5ZM24 32.5C26.4853 32.5 28.5 30.4853 28.5 28H25.5C25.5 28.8284 24.8284 29.5 24 29.5L24 32.5ZM28.5 28L28.5 16L25.5 16L25.5 28H28.5ZM28.5 16C28.5 13.5147 26.4853 11.5 24 11.5V14.5C24.8284 14.5 25.5 15.1716 25.5 16L28.5 16ZM24 11.5L18 11.5V14.5L24 14.5V11.5ZM16.5 13V16H19.5V13L16.5 13ZM16.5 16C16.5 16.8284 15.8284 17.5 15 17.5L15 20.5C17.4853 20.5 19.5 18.4853 19.5 16H16.5ZM15 17.5H9V20.5H15L15 17.5ZM17.5362 22.636C17.6528 22.9779 17.782 23.3693 17.924 23.811L20.78 22.893C20.634 22.4387 20.4992 22.0301 20.3758 21.668L17.5362 22.636ZM17.229 21.6392C17.3128 21.9244 17.4122 22.2473 17.5266 22.6068L20.3854 21.6972C20.2758 21.3527 20.1832 21.0516 20.107 20.7928L17.229 21.6392ZM16.9778 20.8621C17.0496 21.1044 17.1406 21.3854 17.2488 21.7015L20.0872 20.7305C19.9874 20.4386 19.9104 20.1996 19.8542 20.0099L16.9778 20.8621ZM16.8168 20.2718C16.8548 20.4237 16.908 20.6182 16.9737 20.8481L19.8583 20.0239C19.796 19.8058 19.7532 19.6483 19.7272 19.5442L16.8168 20.2718ZM16.773 20.1273L16.833 20.3313L19.711 19.4847L19.651 19.2807L16.773 20.1273ZM18.152 21.108C17.398 21.108 17.0123 20.5859 16.913 20.427C16.7998 20.2459 16.7629 20.0923 16.7568 20.0678L19.6672 19.3402C19.6451 19.2517 19.5902 19.0501 19.457 18.837C19.3377 18.6461 18.93 18.108 18.152 18.108V21.108ZM19.5592 20.0678C19.5589 20.069 19.5355 20.171 19.4696 20.3028C19.4383 20.3654 19.3571 20.5182 19.2007 20.6747C19.0411 20.8342 18.6861 21.108 18.152 21.108V18.108C17.6099 18.108 17.2469 18.3858 17.0793 18.5533C16.9149 18.7178 16.8257 18.8826 16.7864 18.9612C16.7045 19.125 16.6651 19.275 16.6488 19.3402L19.5592 20.0678ZM19.4157 20.5792L19.5477 20.1112L16.6603 19.2968L16.5283 19.7648L19.4157 20.5792ZM19.1588 21.4148C19.2586 21.1071 19.3441 20.8296 19.4143 20.5841L16.5297 19.7599C16.4719 19.9624 16.3974 20.2049 16.3052 20.4892L19.1588 21.4148ZM18.8517 22.4074C18.9724 22.0213 19.0774 21.6822 19.1665 21.3903L16.2975 20.5137C16.2106 20.7978 16.1076 21.1307 15.9883 21.5126L18.8517 22.4074ZM18.5861 23.217C18.6713 22.9697 18.7596 22.7004 18.851 22.4097L15.989 21.5103C15.9044 21.7796 15.8247 22.0223 15.7499 22.239L18.5861 23.217ZM18.4054 23.7828C18.4608 23.6085 18.5244 23.41 18.596 23.187L15.74 22.269C15.6676 22.494 15.6032 22.6955 15.5466 22.8732L18.4054 23.7828ZM18.2011 22.8057C18.3636 23.0292 18.4293 23.2746 18.4362 23.482C18.4424 23.6705 18.4005 23.8004 18.3835 23.8466L15.5685 22.8094C15.4291 23.1877 15.2906 23.9044 15.7749 24.5703L18.2011 22.8057ZM17.324 22.32C17.4067 22.32 17.8675 22.3471 18.2011 22.8057L15.7749 24.5703C16.2365 25.2049 16.9213 25.32 17.324 25.32L17.324 22.32ZM19.004 22.32H17.324L17.324 25.32H19.004L19.004 22.32ZM18.1149 22.8057C18.2591 22.6075 18.4477 22.4734 18.6331 22.3979C18.8042 22.3281 18.942 22.32 19.004 22.32L19.004 25.32C19.4317 25.32 20.0931 25.1863 20.5411 24.5703L18.1149 22.8057ZM17.9375 23.8512C17.9117 23.778 17.8716 23.6302 17.8858 23.4311C17.9011 23.2167 17.9764 22.9961 18.1149 22.8057L20.5411 24.5703C20.9862 23.9582 20.9198 23.2871 20.7665 22.8528L17.9375 23.8512ZM20.816 28.56H21.452V25.56H20.816V28.56ZM19.805 28.272C20.1219 28.4701 20.4725 28.56 20.816 28.56V25.56C20.9995 25.56 21.2061 25.6099 21.395 25.728L19.805 28.272ZM19.0313 27.239C19.1431 27.6117 19.3677 27.9508 19.7 28.2L21.5 25.8C21.7043 25.9532 21.8409 26.1643 21.9047 26.377L19.0313 27.239ZM18.5228 25.6432L19.0388 27.2632L21.8973 26.3528L21.3813 24.7328L18.5228 25.6432ZM19.025 26.28C18.898 26.2006 18.7836 26.0957 18.6914 25.97C18.6006 25.8463 18.5464 25.723 18.5153 25.619L21.3887 24.757C21.2721 24.3681 21.0216 23.9902 20.615 23.736L19.025 26.28ZM19.604 26.436C19.3594 26.436 19.1156 26.3547 18.92 26.208L20.72 23.808C20.3964 23.5653 20.0086 23.436 19.604 23.436L19.604 26.436ZM16.7 26.436H19.604L19.604 23.436H16.7V26.436ZM17.384 26.208C17.1884 26.3547 16.9446 26.436 16.7 26.436V23.436C16.2954 23.436 15.9076 23.5653 15.584 23.808L17.384 26.208ZM17.7887 25.619C17.7576 25.723 17.7034 25.8463 17.6126 25.97C17.5204 26.0957 17.406 26.2006 17.279 26.28L15.689 23.736C15.2824 23.9902 15.0319 24.3681 14.9153 24.757L17.7887 25.619ZM17.2502 27.2728L17.7782 25.6528L14.9258 24.7232L14.3978 26.3432L17.2502 27.2728ZM16.592 28.2C16.9243 27.9508 17.1489 27.6117 17.2607 27.239L14.3873 26.377C14.4511 26.1643 14.5877 25.9532 14.792 25.8L16.592 28.2ZM15.476 28.56C15.8195 28.56 16.1701 28.4701 16.487 28.272L14.897 25.728C15.0859 25.6099 15.2925 25.56 15.476 25.56V28.56ZM14.852 28.56H15.476V25.56H14.852V28.56ZM13.3149 27.8103C13.7629 28.4263 14.4243 28.56 14.852 28.56V25.56C14.914 25.56 15.0518 25.5681 15.2229 25.6379C15.4083 25.7134 15.5969 25.8475 15.7411 26.0457L13.3149 27.8103ZM13.093 26.1057C12.9694 26.4764 12.8691 27.1152 13.2625 27.7333L15.7935 26.1227C16.0749 26.5648 15.9666 26.9716 15.939 27.0543L13.093 26.1057ZM15.8349 18.2042L13.0989 26.0882L15.9331 27.0718L18.6691 19.1878L15.8349 18.2042ZM16.589 17.256C16.2275 17.4819 15.9626 17.8209 15.829 18.2217L18.675 19.1703C18.6361 19.2872 18.5739 19.4104 18.4825 19.5267C18.391 19.6432 18.2853 19.7336 18.179 19.8L16.589 17.256ZM17.588 16.956C17.1554 16.956 16.7773 17.108 16.484 17.328L18.284 19.728C18.1187 19.852 17.8766 19.956 17.588 19.956V16.956ZM18.776 16.956H17.588V19.956H18.776V16.956ZM19.88 17.328C19.5867 17.108 19.2086 16.956 18.776 16.956V19.956C18.4874 19.956 18.2453 19.852 18.08 19.728L19.88 17.328ZM20.535 18.2217C20.4014 17.8209 20.1365 17.4819 19.775 17.256L18.185 19.8C18.0787 19.7336 17.973 19.6432 17.8815 19.5267C17.7901 19.4104 17.7279 19.2872 17.689 19.1703L20.535 18.2217ZM23.2198 26.0959L20.5318 18.2119L17.6923 19.1801L20.3802 27.0641L23.2198 26.0959ZM22.9891 27.8103C23.4407 27.1893 23.3591 26.5139 23.223 26.1057L20.377 27.0543C20.357 26.9945 20.3206 26.859 20.3336 26.6718C20.3476 26.4688 20.4177 26.2454 20.5629 26.0457L22.9891 27.8103ZM21.452 28.56C21.8797 28.56 22.5411 28.4263 22.9891 27.8103L20.5629 26.0457C20.7071 25.8475 20.8957 25.7134 21.0811 25.6379C21.2522 25.5681 21.39 25.56 21.452 25.56V28.56Z" fill="white" mask="url(#path-2-inside-1_1182_29713)"/>
<rect x="0.75" y="1.75" width="16.5" height="16.5" rx="2.25" stroke="white" stroke-width="1.5"/>
</svg>
